<svg version="1.1" id="Layer_1" xmlns="http://www.w3.org/2000/svg" xmlns:xlink="http://www.w3.org/1999/xlink" x="0px" y="0px" viewBox="0 0 16 16" style="enable-background:new 0 0 16 16;" xml:space="preserve" width="16"  height="16" >
                                        <title>_</title>
                                        <path d="M14.6,8L16,5.9l-2.3-1.2l0.1-2.5l-2.5,0.1L10.1,0L8,1.4L5.9,0L4.7,2.3L2.1,2.1l0.1,2.5L0,5.9L1.4,8L0,10.1l2.3,1.2l-0.1,2.5
                                             l2.5-0.1L5.9,16L8,14.6l2.1,1.4l1.2-2.3l2.5,0.1l-0.1-2.5l2.3-1.2L14.6,8z M7,11L4,8h1.5L7,9.5L10.5,6H12L7,11z" fill="#27BD33"></path>
                                    </svg>