<svg version="1.1" id="Layer_1" xmlns="http://www.w3.org/2000/svg" xmlns:xlink="http://www.w3.org/1999/xlink" x="0px" y="0px" viewBox="0 0 48.7 40" style="enable-background:new 0 0 48.7 40;" xml:space="preserve" width="48.7"  height="40" >
                                        <g>
                                            <path d="M4.7,15.6c0.9-2.4,3.1-4.1,5.7-4.1h31.9v-2c0-1.7-1.4-3-3-3H19.2c-0.3,0-0.6-0.1-0.8-0.4l-3.8-4.6
                                                 c-0.6-0.7-1.4-1.1-2.3-1.1h-9c-1.7,0-3,1.3-3,3V31L4.7,15.6L4.7,15.6z"></path>
                                            <path d="M47.6,15.2c-0.8-1.1-2-1.7-3.3-1.7H10.4c-1.7,0-3.2,1.1-3.8,2.7l-6.3,22c-0.1,0.3,0,0.6,0.2,0.9s0.5,0.4,0.8,0.4h40.2
                                                 c0.4,0,0.8-0.3,1-0.7l5.6-20C48.5,17.6,48.3,16.3,47.6,15.2z"></path>
                                        </g>
                                    </svg>