<svg xmlns="http://www.w3.org/2000/svg" xmlns:xlink="http://www.w3.org/1999/xlink" version="1.1" id="Layer_1" x="0px" y="0px" viewBox="0 0 61 60.8" style="enable-background:new 0 0 61 60.8;" xml:space="preserve" width="61"  height="60.8" >
<style type="text/css">
	.st0{fill:#E20000;}
</style>
<path class="st0" d="M59.6,52.9L37.1,30.4L59.5,8c1.8-1.8,1.8-4.8,0-6.6c-1.8-1.8-4.8-1.8-6.6,0L30.5,23.7L8.1,1.4  c-1.8-1.8-4.8-1.8-6.6,0c-1.8,1.8-1.8,4.8,0,6.6l22.4,22.4L1.4,52.9c-1.8,1.8-1.8,4.8,0,6.6c0.9,0.9,2.1,1.4,3.3,1.4  s2.4-0.5,3.3-1.4L30.5,37L53,59.5c0.9,0.9,2.1,1.4,3.3,1.4s2.4-0.5,3.3-1.4C61.4,57.6,61.4,54.7,59.6,52.9z"/>
</svg>