<svg xmlns:xlink="http://www.w3.org/1999/xlink" xmlns="http://www.w3.org/2000/svg" width="572" height="203" viewBox="0 0 572 203" fill="none">
<path d="M434 134C434 95.8925 464.892 65 503 65C541.108 65 572 95.8925 572 134C572 172.108 541.108 203 503 203C464.892 203 434 172.108 434 134Z" fill="#333333"/>
<path d="M489.2 175.4C496.822 175.4 503 169.221 503 161.6V147.8H489.2C481.579 147.8 475.4 153.978 475.4 161.6C475.4 169.221 481.579 175.4 489.2 175.4Z" fill="#0ACF83"/>
<path d="M475.4 134C475.4 126.379 481.579 120.2 489.2 120.2H503V147.8H489.2C481.579 147.8 475.4 141.622 475.4 134Z" fill="#A259FF"/>
<path d="M475.4 106.4C475.4 98.7785 481.579 92.6001 489.2 92.6001H503V120.2H489.2C481.579 120.2 475.4 114.021 475.4 106.4Z" fill="#F24E1E"/>
<path d="M503 92.6001H516.8C524.422 92.6001 530.6 98.7785 530.6 106.4C530.6 114.021 524.422 120.2 516.8 120.2H503V92.6001Z" fill="#FF7262"/>
<path d="M530.6 134C530.6 141.622 524.422 147.8 516.8 147.8C509.178 147.8 503 141.622 503 134C503 126.379 509.178 120.2 516.8 120.2C524.422 120.2 530.6 126.379 530.6 134Z" fill="#1ABCFE"/>
<path d="M71.4033 44.954C71.4033 44.954 76.5526 43.5813 81.7018 47.3561C86.8511 51.1309 78.6123 41.5224 71.4033 44.954Z" fill="white"/>
<path opacity="0.5" d="M83.418 84.0742C83.418 84.0742 91.6568 87.849 89.9404 102.262C89.9404 102.262 98.5224 92.31 83.418 84.0742Z" fill="white"/>
<path d="M103.672 52.5034C89.597 25.3938 72.4328 28.8254 53.2089 22.3053C40.8507 18.1874 34.6716 7.89263 31.2388 0.686279C13.3881 3.43156 0 18.8737 0 37.7475C0 63.8276 23.3433 85.4467 59.3881 117.017L69 126.626L78.6119 117.017C83.0746 113.243 87.194 109.468 90.9701 106.036C96.806 100.889 97.4925 92.3099 93.0298 85.7898L84.4477 74.4656C84.1045 73.7792 83.7612 73.0929 83.7612 72.0634C75.1791 76.1814 64.5373 73.7792 58.3582 65.8866C51.8358 56.9644 53.5522 44.2675 62.8209 37.4043C71.7463 30.8843 84.4477 32.6001 91.3134 41.8654C97.1492 49.7581 96.4627 60.7392 89.597 67.9455C90.2836 68.2887 90.9701 68.6319 91.6567 69.3182L96.806 76.1814C99.8955 80.2993 104.015 82.3582 108.478 82.3582C109.851 73.4361 109.164 62.7981 103.672 52.5034Z" fill="url(#paint0_linear_30_73)"/>
<path d="M74.8359 68.9749C83.1779 68.9749 89.9404 62.2148 89.9404 53.8759C89.9404 45.5369 83.1779 38.7769 74.8359 38.7769C66.494 38.7769 59.7314 45.5369 59.7314 53.8759C59.7314 62.2148 66.494 68.9749 74.8359 68.9749Z" fill="url(#paint1_linear_30_73)"/>
<path d="M120.149 77.211C131.478 64.1709 137.657 51.8172 137.657 38.0908C137.657 16.8149 121.179 0.343262 99.8955 0.343262C88.2238 0.343262 76.5522 5.83381 68.9999 14.756C61.4477 5.83381 49.7761 0.343262 38.1044 0.343262C35.7014 0.343262 33.6417 0.686421 31.582 1.02958C34.6716 8.23593 41.194 18.8739 53.2089 22.9918C72.4328 28.8255 89.5969 25.3939 103.672 52.5035C109.164 62.7983 109.851 73.4362 108.478 82.7015C112.597 82.7015 117.06 80.6426 120.149 77.211Z" fill="url(#paint2_linear_30_73)"/>
<path d="M56.985 17.8443C44.9701 12.6969 40.5074 5.14739 38.1044 0C36.0447 0 33.6417 0.343159 31.582 0.686319C34.6716 7.89267 41.194 18.5306 53.2089 22.6485C72.4328 28.8254 89.5969 25.3938 103.672 52.5034C109.164 62.7982 109.851 73.4361 108.478 82.7014C112.94 82.7014 117.06 80.9856 120.149 77.2109C123.582 73.093 126.672 69.3182 129.075 65.2003C121.866 23.3348 74.1492 25.3938 56.985 17.8443Z" fill="url(#paint3_linear_30_73)"/>
<path d="M99.8955 0C88.2239 0 76.5522 5.49055 69 14.4127C61.4478 5.49055 49.7761 0 38.1045 0C40.5075 5.14739 45.3134 12.6969 56.9851 17.8443C74.1493 25.3938 121.866 22.9917 129.075 65.2003C134.91 56.2781 138 47.356 138 37.7475C138 16.4717 121.179 0 99.8955 0Z" fill="url(#paint4_linear_30_73)"/>
<path d="M99.8955 0C88.2239 0 76.5522 5.49055 69 14.4127C61.4478 5.49055 49.7761 0 38.1045 0C40.5075 5.14739 45.3134 12.6969 56.9851 17.8443C74.1493 25.3938 121.866 22.9917 129.075 65.2003C134.91 56.2781 138 47.356 138 37.7475C138 16.4717 121.179 0 99.8955 0Z" fill="url(#paint5_linear_30_73)"/>
<path opacity="0.85" d="M73.4624 41.179C73.4624 41.179 86.1639 42.8948 87.537 58.3369C87.537 57.9938 90.6266 42.8948 73.4624 41.179Z" fill="white"/>
<g filter="url(#filter0_d_30_73)">
<path d="M115 46.2339C148.333 27.9005 207.5 5.23389 271 62.7339C338.321 123.694 409.5 163.234 465 148.234" stroke="black" stroke-width="2"/>
</g>
<circle cx="110" cy="49" r="5" stroke="black" stroke-width="2"/>
<circle cx="471" cy="148" r="5" stroke="black" stroke-width="2"/>
<g filter="url(#filter1_d_30_73)">
<path d="M305.816 78.4777C306.368 75.5017 310.632 75.5017 311.184 78.4777V78.4777C311.578 80.6065 314.176 81.4505 315.746 79.9602V79.9602C317.942 77.8768 321.392 80.3832 320.089 83.1152V83.1152C319.157 85.0694 320.762 87.2789 322.909 86.9964V86.9964C325.91 86.6014 327.227 90.657 324.567 92.1013V92.1013C322.665 93.1345 322.665 95.8655 324.567 96.8987V96.8987C327.227 98.343 325.91 102.399 322.909 102.004V102.004C320.762 101.721 319.157 103.931 320.089 105.885V105.885C321.392 108.617 317.942 111.123 315.746 109.04V109.04C314.176 107.55 311.578 108.393 311.184 110.522V110.522C310.632 113.498 306.368 113.498 305.816 110.522V110.522C305.422 108.393 302.824 107.55 301.254 109.04V109.04C299.058 111.123 295.608 108.617 296.911 105.885V105.885C297.843 103.931 296.238 101.721 294.091 102.004V102.004C291.09 102.399 289.773 98.343 292.433 96.8987V96.8987C294.335 95.8655 294.335 93.1345 292.433 92.1013V92.1013C289.773 90.657 291.09 86.6014 294.091 86.9964V86.9964C296.238 87.2789 297.843 85.0694 296.911 83.1152V83.1152C295.608 80.3832 299.058 77.8768 301.254 79.9602V79.9602C302.824 81.4505 305.422 80.6065 305.816 78.4777V78.4777Z" fill="#07D328"/>
</g>
<path d="M314.219 89.9112L314.219 89.911C314.702 89.4028 315.515 89.3616 316.05 89.8113L316.05 89.8114C316.603 90.2755 316.656 91.0911 316.156 91.6176L308.121 100.089C307.877 100.345 307.539 100.49 307.189 100.499L307.186 100.5L307.186 100.5L307.185 100.5C307.177 100.5 307.165 100.5 307.152 100.5C306.814 100.5 306.484 100.374 306.235 100.14L301.895 96.0558C301.368 95.5599 301.368 94.7426 301.895 94.2466L314.219 89.9112ZM314.219 89.9112L307.099 97.4176L303.729 94.2467C303.729 94.2466 303.729 94.2466 303.729 94.2465M314.219 89.9112L303.729 94.2465M303.729 94.2465C303.219 93.7664 302.405 93.7669 301.895 94.2465L303.729 94.2465Z" fill="white" stroke="white"/>
<g filter="url(#filter2_d_30_73)">
<path d="M307.5 118L316.593 136H298.407L307.5 118Z" fill="#0099FF"/>
<path d="M300.032 135L307.5 120.218L314.968 135H300.032Z" stroke="black" stroke-width="2"/>
</g>
<g filter="url(#filter3_d_30_73)">
<rect x="256" y="144" width="103" height="21" fill="#0099FF"/>
<rect x="257" y="145" width="101" height="19" stroke="black" stroke-width="2"/>
</g>
<path d="M272.71 154.55C272.71 155.257 272.557 155.87 272.25 156.39C271.95 156.91 271.52 157.31 270.96 157.59C270.407 157.863 269.76 158 269.02 158H266.75V151.05H269.02C269.76 151.05 270.407 151.193 270.96 151.48C271.52 151.76 271.95 152.167 272.25 152.7C272.557 153.227 272.71 153.843 272.71 154.55ZM269.02 157.13C269.827 157.13 270.447 156.9 270.88 156.44C271.32 155.98 271.54 155.35 271.54 154.55C271.54 153.743 271.32 153.113 270.88 152.66C270.447 152.2 269.827 151.97 269.02 151.97H267.89V157.13H269.02ZM277.42 158L275.68 155.18H274.98V158H273.84V151.05H276.24C276.773 151.05 277.223 151.143 277.59 151.33C277.963 151.51 278.24 151.757 278.42 152.07C278.607 152.383 278.7 152.733 278.7 153.12C278.7 153.587 278.557 154.007 278.27 154.38C277.99 154.753 277.557 154.997 276.97 155.11L278.81 158H277.42ZM274.98 154.29H276.24C276.673 154.29 276.997 154.187 277.21 153.98C277.423 153.773 277.53 153.487 277.53 153.12C277.53 152.747 277.423 152.457 277.21 152.25C276.997 152.043 276.673 151.94 276.24 151.94H274.98V154.29ZM284.348 156.58H281.438L280.938 158H279.748L282.238 151.04H283.558L286.048 158H284.848L284.348 156.58ZM284.038 155.69L282.898 152.42L281.748 155.69H284.038ZM290.301 150.96C291.041 150.96 291.698 151.143 292.271 151.51C292.851 151.87 293.271 152.383 293.531 153.05H292.161C291.981 152.703 291.731 152.443 291.411 152.27C291.091 152.09 290.721 152 290.301 152C289.841 152 289.431 152.103 289.071 152.31C288.711 152.517 288.428 152.81 288.221 153.19C288.021 153.57 287.921 154.01 287.921 154.51C287.921 155.01 288.021 155.453 288.221 155.84C288.428 156.22 288.711 156.513 289.071 156.72C289.431 156.927 289.841 157.03 290.301 157.03C290.921 157.03 291.424 156.857 291.811 156.51C292.204 156.157 292.441 155.68 292.521 155.08H289.911V154.19H293.741V155.08C293.668 155.62 293.474 156.117 293.161 156.57C292.854 157.023 292.451 157.387 291.951 157.66C291.458 157.927 290.908 158.06 290.301 158.06C289.648 158.06 289.051 157.91 288.511 157.61C287.971 157.303 287.541 156.88 287.221 156.34C286.908 155.8 286.751 155.19 286.751 154.51C286.751 153.83 286.908 153.22 287.221 152.68C287.541 152.14 287.971 151.72 288.511 151.42C289.058 151.113 289.654 150.96 290.301 150.96ZM302.053 156.58H299.143L298.643 158H297.453L299.943 151.04H301.263L303.753 158H302.553L302.053 156.58ZM301.743 155.69L300.603 152.42L299.453 155.69H301.743ZM310.546 158H309.406L305.976 152.81V158H304.836V151.04H305.976L309.406 156.22V151.04H310.546V158ZM318.003 154.55C318.003 155.257 317.85 155.87 317.543 156.39C317.243 156.91 316.813 157.31 316.253 157.59C315.7 157.863 315.053 158 314.313 158H312.043V151.05H314.313C315.053 151.05 315.7 151.193 316.253 151.48C316.813 151.76 317.243 152.167 317.543 152.7C317.85 153.227 318.003 153.843 318.003 154.55ZM314.313 157.13C315.12 157.13 315.74 156.9 316.173 156.44C316.613 155.98 316.833 155.35 316.833 154.55C316.833 153.743 316.613 153.113 316.173 152.66C315.74 152.2 315.12 151.97 314.313 151.97H313.183V157.13H314.313ZM328.091 154.55C328.091 155.257 327.938 155.87 327.631 156.39C327.331 156.91 326.901 157.31 326.341 157.59C325.788 157.863 325.141 158 324.401 158H322.131V151.05H324.401C325.141 151.05 325.788 151.193 326.341 151.48C326.901 151.76 327.331 152.167 327.631 152.7C327.938 153.227 328.091 153.843 328.091 154.55ZM324.401 157.13C325.208 157.13 325.828 156.9 326.261 156.44C326.701 155.98 326.921 155.35 326.921 154.55C326.921 153.743 326.701 153.113 326.261 152.66C325.828 152.2 325.208 151.97 324.401 151.97H323.271V157.13H324.401ZM332.801 158L331.061 155.18H330.361V158H329.221V151.05H331.621C332.154 151.05 332.604 151.143 332.971 151.33C333.344 151.51 333.621 151.757 333.801 152.07C333.987 152.383 334.081 152.733 334.081 153.12C334.081 153.587 333.937 154.007 333.651 154.38C333.371 154.753 332.937 154.997 332.351 155.11L334.191 158H332.801ZM330.361 154.29H331.621C332.054 154.29 332.377 154.187 332.591 153.98C332.804 153.773 332.911 153.487 332.911 153.12C332.911 152.747 332.804 152.457 332.591 152.25C332.377 152.043 332.054 151.94 331.621 151.94H330.361V154.29ZM338.709 150.96C339.362 150.96 339.959 151.113 340.499 151.42C341.046 151.72 341.476 152.14 341.789 152.68C342.102 153.22 342.259 153.83 342.259 154.51C342.259 155.19 342.102 155.803 341.789 156.35C341.476 156.89 341.046 157.313 340.499 157.62C339.959 157.92 339.362 158.07 338.709 158.07C338.062 158.07 337.466 157.92 336.919 157.62C336.379 157.313 335.949 156.89 335.629 156.35C335.316 155.803 335.159 155.19 335.159 154.51C335.159 153.83 335.316 153.22 335.629 152.68C335.949 152.14 336.379 151.72 336.919 151.42C337.466 151.113 338.062 150.96 338.709 150.96ZM338.709 152C338.249 152 337.839 152.103 337.479 152.31C337.119 152.517 336.836 152.81 336.629 153.19C336.429 153.57 336.329 154.01 336.329 154.51C336.329 155.01 336.429 155.453 336.629 155.84C336.836 156.22 337.119 156.517 337.479 156.73C337.839 156.937 338.249 157.04 338.709 157.04C339.169 157.04 339.579 156.937 339.939 156.73C340.299 156.517 340.579 156.22 340.779 155.84C340.986 155.453 341.089 155.01 341.089 154.51C341.089 154.01 340.986 153.57 340.779 153.19C340.579 152.81 340.299 152.517 339.939 152.31C339.579 152.103 339.169 152 338.709 152ZM344.521 155.18V158H343.381V151.05H345.781C346.314 151.05 346.764 151.143 347.131 151.33C347.504 151.51 347.781 151.757 347.961 152.07C348.148 152.383 348.241 152.733 348.241 153.12C348.241 153.473 348.158 153.807 347.991 154.12C347.824 154.433 347.558 154.69 347.191 154.89C346.824 155.083 346.354 155.18 345.781 155.18H344.521ZM345.781 154.29C346.214 154.29 346.538 154.187 346.751 153.98C346.964 153.773 347.071 153.487 347.071 153.12C347.071 152.747 346.964 152.457 346.751 152.25C346.538 152.043 346.214 151.94 345.781 151.94H344.521V154.29H345.781Z" fill="white"/>
<defs>
<filter id="filter0_d_30_73" x="110.518" y="25" width="358.743" height="135.42" filterUnits="userSpaceOnUse" color-interpolation-filters="sRGB">
<feFlood flood-opacity="0" result="BackgroundImageFix"/>
<feColorMatrix in="SourceAlpha" type="matrix" values="0 0 0 0 0 0 0 0 0 0 0 0 0 0 0 0 0 0 127 0" result="hardAlpha"/>
<feOffset dy="4"/>
<feGaussianBlur stdDeviation="2"/>
<feComposite in2="hardAlpha" operator="out"/>
<feColorMatrix type="matrix" values="0 0 0 0 0 0 0 0 0 0 0 0 0 0 0 0 0 0 0.25 0"/>
<feBlend mode="normal" in2="BackgroundImageFix" result="effect1_dropShadow_30_73"/>
<feBlend mode="normal" in="SourceGraphic" in2="effect1_dropShadow_30_73" result="shape"/>
</filter>
<filter id="filter1_d_30_73" x="286.997" y="76.2456" width="43.0059" height="44.5088" filterUnits="userSpaceOnUse" color-interpolation-filters="sRGB">
<feFlood flood-opacity="0" result="BackgroundImageFix"/>
<feColorMatrix in="SourceAlpha" type="matrix" values="0 0 0 0 0 0 0 0 0 0 0 0 0 0 0 0 0 0 127 0" result="hardAlpha"/>
<feOffset dy="4"/>
<feGaussianBlur stdDeviation="2"/>
<feComposite in2="hardAlpha" operator="out"/>
<feColorMatrix type="matrix" values="0 0 0 0 0 0 0 0 0 0 0 0 0 0 0 0 0 0 0.25 0"/>
<feBlend mode="normal" in2="BackgroundImageFix" result="effect1_dropShadow_30_73"/>
<feBlend mode="normal" in="SourceGraphic" in2="effect1_dropShadow_30_73" result="shape"/>
</filter>
<filter id="filter2_d_30_73" x="294.407" y="118" width="26.1865" height="26" filterUnits="userSpaceOnUse" color-interpolation-filters="sRGB">
<feFlood flood-opacity="0" result="BackgroundImageFix"/>
<feColorMatrix in="SourceAlpha" type="matrix" values="0 0 0 0 0 0 0 0 0 0 0 0 0 0 0 0 0 0 127 0" result="hardAlpha"/>
<feOffset dy="4"/>
<feGaussianBlur stdDeviation="2"/>
<feComposite in2="hardAlpha" operator="out"/>
<feColorMatrix type="matrix" values="0 0 0 0 0 0 0 0 0 0 0 0 0 0 0 0 0 0 0.25 0"/>
<feBlend mode="normal" in2="BackgroundImageFix" result="effect1_dropShadow_30_73"/>
<feBlend mode="normal" in="SourceGraphic" in2="effect1_dropShadow_30_73" result="shape"/>
</filter>
<filter id="filter3_d_30_73" x="252" y="144" width="111" height="29" filterUnits="userSpaceOnUse" color-interpolation-filters="sRGB">
<feFlood flood-opacity="0" result="BackgroundImageFix"/>
<feColorMatrix in="SourceAlpha" type="matrix" values="0 0 0 0 0 0 0 0 0 0 0 0 0 0 0 0 0 0 127 0" result="hardAlpha"/>
<feOffset dy="4"/>
<feGaussianBlur stdDeviation="2"/>
<feComposite in2="hardAlpha" operator="out"/>
<feColorMatrix type="matrix" values="0 0 0 0 0 0 0 0 0 0 0 0 0 0 0 0 0 0 0.25 0"/>
<feBlend mode="normal" in2="BackgroundImageFix" result="effect1_dropShadow_30_73"/>
<feBlend mode="normal" in="SourceGraphic" in2="effect1_dropShadow_30_73" result="shape"/>
</filter>
<linearGradient id="paint0_linear_30_73" x1="0" y1="63.656" x2="137.834" y2="63.656" gradientUnits="userSpaceOnUse">
<stop stop-color="#267CF9"/>
<stop offset="1" stop-color="#00BFF9"/>
</linearGradient>
<linearGradient id="paint1_linear_30_73" x1="59.6817" y1="53.8759" x2="89.9888" y2="53.8759" gradientUnits="userSpaceOnUse">
<stop stop-color="#267CF9"/>
<stop offset="1" stop-color="#00BFF9"/>
</linearGradient>
<linearGradient id="paint2_linear_30_73" x1="0.0205454" y1="41.5224" x2="137.855" y2="41.5224" gradientUnits="userSpaceOnUse">
<stop stop-color="#267CF9"/>
<stop offset="1" stop-color="#00BFF9"/>
</linearGradient>
<linearGradient id="paint3_linear_30_73" x1="58.5188" y1="49.9026" x2="138.303" y2="1.94599" gradientUnits="userSpaceOnUse">
<stop offset="0.0742574" stop-color="#267CF9"/>
<stop offset="0.3094" stop-color="#2185F9"/>
<stop offset="0.366" stop-color="#1E8AF9"/>
<stop offset="0.4364" stop-color="#159AF9"/>
<stop offset="0.5138" stop-color="#07B3F9"/>
<stop offset="0.5446" stop-color="#00BFF9"/>
</linearGradient>
<linearGradient id="paint4_linear_30_73" x1="44.6557" y1="46.0012" x2="161.512" y2="5.74971" gradientUnits="userSpaceOnUse">
<stop offset="0.0742574" stop-color="#267CF9"/>
<stop offset="0.3094" stop-color="#2185F9"/>
<stop offset="0.7426" stop-color="#00BFF9"/>
</linearGradient>
<linearGradient id="paint5_linear_30_73" x1="75.9446" y1="41.0875" x2="132.883" y2="-22.1721" gradientUnits="userSpaceOnUse">
<stop stop-color="#267CF9"/>
<stop offset="0.2252" stop-color="#2185F9"/>
<stop offset="0.6188" stop-color="#00D1F9"/>
</linearGradient>
</defs>
</svg>