<svg xmlns="http://www.w3.org/2000/svg" xmlns:xlink="http://www.w3.org/1999/xlink" version="1.1" id="Layer_1" x="0px" y="0px" viewBox="0 0 500 500" style="enable-background:new 0 0 500 500;" xml:space="preserve" width="500"  height="500" >
<style type="text/css">
	.st0{fill:#D41B17;}
	.st1{fill:#2F2A27;}
</style>
<g>
	<path class="st0" d="M486.2,243.2c-0.5-2-1.4-3.8-2.7-5.2c-1.3-1.4-3-2.5-5.1-3.3c-2-0.8-4.4-1.2-7-1.2c-2.1,0-4.1,0.3-6.1,0.8   c-1.9,0.5-3.7,1.2-5.3,2.1c-1.6,0.8-3.1,1.8-4.4,2.9c-1.3,1.1-2.4,2.3-3.4,3.5c-0.7-2.8-2.3-5.1-4.7-6.7c-2.4-1.7-5.5-2.5-9.2-2.5   c-2.2,0-4.2,0.2-5.9,0.7c-1.8,0.5-3.4,1.1-4.9,1.8c-1.5,0.7-2.7,1.6-3.8,2.5c-0.6,0.5-1,1-1.5,1.5l-2.9,11.9   c0.6-0.6,1.4-1.2,2.5-1.8c1.5-0.9,3.3-1.4,5.4-1.4c2.2,0,3.6,0.6,4.2,1.7c0.7,1.1,0.8,2.4,0.4,3.7c-0.4,1.8-0.9,3.9-1.5,6.1   c-0.5,2.3-1.3,5.3-2.2,9.1c-0.9,3.8-2.1,8.5-3.4,14.3h19.9c1.2-4.7,2.2-9,3.1-12.8c0.9-3.8,1.7-7.1,2.3-9.8c0.7-2.7,1.3-5.5,2-8.5   c0.8-0.7,1.9-1.6,3.3-2.5c1.4-0.9,3.2-1.4,5.3-1.4c1.9,0,3.2,0.5,4.1,1.4c0.8,0.9,1,2.3,0.6,4c-0.4,1.8-0.9,3.9-1.5,6.1   c-0.5,2.3-1.3,5.3-2.2,9.1c-0.9,3.8-2.1,8.5-3.4,14.3h20c2.4-10.8,4.9-22,7.6-33.6C486.6,247.5,486.7,245.2,486.2,243.2"/>
	<path class="st1" d="M137.3,246.9c1.9-3.3,4.2-6.1,6.8-8.5l0.1-0.2c-3.6,0-7,0.6-10.2,1.7c-3.1,1.2-5.7,2.7-7.7,4.6l1.3-5h-20.4   l-12.1,45.3h20.4l7.7-28.9c1-0.8,2.3-1.5,3.9-2c1.6-0.5,3.2-0.9,4.9-1c0.9-0.1,1.8-0.1,2.7-0.1   C135.4,250.8,136.2,248.8,137.3,246.9"/>
	<polygon class="st1" points="93.2,217.7 65.5,217.7 22.6,284.9 48.9,284.9 55.1,274.3 74.8,274.3 73.5,260.3 63,260.3 76.1,237.7    77.6,255.5 79.6,276.4 80.4,284.9 91.2,284.9 99.2,255  "/>
	<path class="st0" d="M377.7,234.9l-1.3,5.1c-1.6-2.1-3.9-3.8-6.8-4.9c-2.9-1.1-6-1.7-9.2-1.7c-3.3,0-6.4,0.5-9.4,1.7   c-3,1.1-5.7,2.8-8.1,4.9c-2.4,2.2-4.4,4.9-6.1,8.1c-1.6,3.2-2.7,6.9-3.2,11c-0.5,3.8-0.4,7.2,0.3,10.4c0.7,3.1,2,5.9,3.7,8.2   c1.7,2.3,3.9,4,6.4,5.3c2.5,1.2,5.4,1.9,8.6,1.9c3.2,0,5.9-0.5,8.1-1.6c2.2-1,4.3-2.7,6.2-4.9l-1.2,5.1h20l11.8-48.6H377.7z    M373.6,264c-3.7,6.2-11.2,8.6-16.6,5.3c-5.4-3.3-6.8-11-3-17.2c3.7-6.2,11.2-8.6,16.6-5.3C376,250.1,377.3,257.8,373.6,264"/>
	<path class="st1" d="M185.1,216.4l-5.7,23.7c-1.7-2.1-4-3.8-6.9-4.9c-2.9-1.1-6-1.7-9.2-1.7c-3.2,0-6.3,0.6-9.3,1.7   c-3,1.1-5.7,2.8-8,4.9c-2.4,2.2-4.4,4.9-6,8.1c-1.6,3.2-2.7,6.9-3.3,11c-0.5,3.8-0.4,7.2,0.3,10.4c0.7,3.1,1.9,5.9,3.6,8.2   c1.7,2.3,3.8,4,6.4,5.3c2.5,1.2,5.4,1.9,8.6,1.9c3.2,0,5.9-0.5,8.2-1.6c2.3-1,4.3-2.7,6.2-4.9l-1.2,5.1h20l16.1-67.2H185.1z    M176.9,264.4c-3.9,6.4-11.5,8.8-17.1,5.5c-5.6-3.4-7-11.3-3.1-17.7c3.9-6.4,11.5-8.8,17.1-5.5C179.3,250.1,180.7,258,176.9,264.4"/>
	<path class="st1" d="M239.8,234.9L239.8,234.9h-3l2.1,3l-6.8,28c-1.4,1.1-2.8,2-4.2,2.7c-1.4,0.7-3.2,1.1-5.4,1.1   c-2.3,0-3.9-0.5-4.8-1.6c-0.9-1.1-1-2.9-0.4-5.3c0.4-1.8,0.9-3.8,1.4-5.9c0.5-2.1,1.2-5,2-8.6c0.8-3.6,1.9-8,3.2-13.4h-20   c-2.4,10.7-5,21.8-7.7,33.4c-0.5,2.1-0.6,4.1-0.2,6.1c0.4,2,1.2,3.7,2.5,5.3c1.3,1.5,3,2.8,5.2,3.7c2.2,0.9,4.8,1.4,7.9,1.4   c4.3,0,7.8-0.7,10.6-2c2.8-1.4,5.1-2.9,6.9-4.7l-1.3,5.4h20.1l11.7-48.6H239.8z"/>
	<path class="st0" d="M288.1,267.7c-8.6-5.2-10.7-17.3-4.8-27.1c5.9-9.8,17.7-13.6,26.3-8.4c2.7,1.6,4.8,4.1,6.1,6.8l-0.5,1.5   l1.1-0.4l19-7.9c-1.1-2.5-2.6-4.8-4.5-6.9c-1.9-2.1-4.2-4-6.8-5.6c-2.7-1.6-5.7-2.9-9.2-3.8c-3.5-0.9-7.4-1.4-11.7-1.4   c-5.7,0-11,0.9-16,2.7c-5,1.8-9.4,4.2-13.3,7.4c-3.9,3.1-7,6.9-9.5,11.3c-2.5,4.4-4.1,9.1-4.7,14.3c-0.7,5.2-0.2,9.9,1.4,14.3   c1.6,4.3,4,8.1,7.2,11.2c3.3,3.2,7.3,5.6,12,7.4c4.7,1.8,9.9,2.7,15.6,2.7c4.3,0,8.3-0.5,11.9-1.4c3.6-0.9,6.9-2.2,9.9-3.8   c2.9-1.6,5.6-3.5,7.8-5.7c2.3-2.2,4.3-4.5,5.9-7l-17.2-7.8C308,269.2,296.5,272.8,288.1,267.7"/>
	<polygon class="st0" points="421.1,234.9 401.1,234.9 389.3,283.6 409.3,283.6  "/>
	<polygon class="st1" points="61.7,217.7 56.4,217.7 13.5,284.9 18.7,284.9  "/>
</g>
</svg>