<svg xmlns="http://www.w3.org/2000/svg" xmlns:xlink="http://www.w3.org/1999/xlink" version="1.1" id="Layer_2_00000083799108788931657600000008515386973909115049_" x="0px" y="0px" viewBox="0 0 500 500" style="enable-background:new 0 0 500 500;" xml:space="preserve" width="500"  height="500" >
<style type="text/css">
	.st0{fill:#00394A;stroke:#132344;stroke-width:0.7886;stroke-miterlimit:10;}
	.st1{fill:#90C320;}
	.st2{fill:#B5B6B6;}
</style>
<g>
	<g>
		<path class="st0" d="M154.4,268.9c5,4,12.6,6.3,19.6,6.3c10.3,0,11.4-5.3,11.4-7.2c0-1.9-1.7-7.6-17.6-7.6    c-12.1,0-17.6-8.8-17.6-17.2c0-12.8,9.7-17.9,22-17.9c12.3,0,19.4,6.2,21.5,8.1l-7.1,7.4c-6.9-5.8-11.9-5.5-15.6-5.5    c-3.7,0-9.9,1.1-9.9,7c0,3.5,1.1,7.4,14.1,7.4c15.2,0,20.6,9.9,20.6,18.6c0,9.1-6.5,17.3-22.1,17.3s-21-5.5-25.2-8.1L154.4,268.9z    "/>
		<path class="st0" d="M215.8,260.8c0,9.4,10.8,15,19.6,15c10.5,0,15.1-6.3,15.1-6.3l7.7,8.4c0,0-7.7,7.9-22.3,7.9    c-20.1,0-33.4-11.6-33.4-28.9s12.1-30.8,30-30.8c17,0,29,15.1,29,26.7c0,2.1,0.2,6.7,0,7.7L215.8,260.8z M250.5,250.3    c0.2-6.6-7.9-14.2-18-14.2s-15.4,6.9-16.4,14.2H250.5z"/>
		<path class="st0" d="M280.8,260.8c0,9.4,10.8,15,19.6,15c10.5,0,15.1-6.3,15.1-6.3l7.7,8.4c0,0-7.7,7.9-22.3,7.9    c-20.1,0-33.4-11.6-33.4-28.9s12.1-30.8,30-30.8c17,0,29,15.1,29,26.7c0,2.1,0.2,6.7,0,7.7L280.8,260.8z M315.4,250.3    c0.2-6.6-7.9-14.2-18-14.2c-10.1,0-15.4,6.9-16.4,14.2H315.4z"/>
		<path class="st0" d="M347.3,260.8c0,9.4,10.8,15,19.6,15c10.5,0,15.1-6.3,15.1-6.3l7.7,8.4c0,0-7.7,7.9-22.3,7.9    c-20.1,0-33.4-11.6-33.4-28.9s12.1-30.8,30-30.8c17,0,29,15.1,29,26.7c0,2.1,0.2,6.7,0,7.7L347.3,260.8z M381.9,250.3    c0.2-6.6-7.9-14.2-18-14.2s-15.4,6.9-16.4,14.2H381.9z"/>
		<path class="st0" d="M458,212.8l-12.6,5.3v18.4h-0.2c-2.8-4.3-10-8.5-19.6-8.5c-15.4,0-27.4,11.7-27.3,29.7    c0,16.3,11.3,28.2,26.5,28.2c10.3,0,17.1-3.3,20.7-9.3l0.5,10.3h12.6L458,212.8z M427.3,274.3c-9.4,0-17-7.6-17-17    c0-9.4,7.6-17,17-17s17,7.6,17,17C444.2,266.8,436.7,274.3,427.3,274.3z"/>
	</g>
	<path class="st1" d="M60.2,295c-52.2-5.7-50.3-56.8-42.5-69.7C18,246.1,33.7,281.3,60.2,295z M61.4,286.6   c-41.7-32-13.4-74.6,0-81.6C50.8,222.9,45.9,261.1,61.4,286.6z M74.4,295c52.2-5.6,50.3-56.8,42.5-69.6   C116.6,246.1,100.9,281.3,74.4,295z M73.2,286.6c41.7-32,13.4-74.6,0-81.6C83.8,222.9,88.7,261.1,73.2,286.6z"/>
	<g>
		<path class="st2" d="M478.4,222c0.8-0.9,1.2-2.1,1.2-3.6c0-0.9-0.1-1.7-0.5-2.3c-0.3-0.6-0.8-0.9-1.4-0.9c-1,0-1.6,1.1-1.9,3.1    c-0.1,0.6-0.1,1.1-0.2,1.5c-0.1,0.4-0.2,0.8-0.4,1.4c-0.2,0.5-0.4,1-0.7,1.3c-0.3,0.3-0.6,0.6-1.1,0.8c-0.5,0.2-1,0.3-1.6,0.3    c-1.2,0-2.1-0.5-2.8-1.5c-0.7-1-1-2.3-1-3.8c0-2.5,0.8-4.4,2.4-5.6l1.5,1.2c-1.3,1.1-1.9,2.6-1.9,4.5c0,0.8,0.2,1.6,0.5,2.2    c0.3,0.6,0.8,1,1.5,1c0.6,0,1.1-0.3,1.4-0.9c0.3-0.6,0.5-1.4,0.6-2.5c0.1-0.7,0.2-1.3,0.3-1.8c0.1-0.5,0.3-1,0.6-1.6    c0.3-0.5,0.6-0.9,1.1-1.2c0.5-0.3,1-0.4,1.6-0.4c0.9,0,1.6,0.3,2.1,0.8c0.6,0.5,1,1.2,1.2,1.9c0.2,0.7,0.3,1.5,0.3,2.4    c0,2-0.6,3.6-1.7,4.8L478.4,222L478.4,222z"/>
		<path class="st2" d="M481.2,230.2v3.9h-1.8v-3.9h-6.7c-1.6,0-2.4,0.7-2.4,2c0,0.6,0.2,1.2,0.5,1.8l-1.7,0.6    c-0.4-0.9-0.6-1.7-0.6-2.5c-0.1-2.7,1.4-4,4.3-4h6.7v-2.5h1.8v2.5h3.5l0.2,2.1H481.2z"/>
		<path class="st2" d="M468.6,246.6l2-0.1c-1.4-1.1-2.2-2.5-2.2-4.4c0-1.6,0.5-3,1.6-4c1-1,2.5-1.5,4.3-1.5h7v2.1h-6.9    c-1.2,0-2.2,0.3-2.9,1c-0.7,0.7-1,1.6-1,2.8c0,1.1,0.4,2.1,1.2,2.8c0.8,0.7,1.8,1.1,2.9,1.1h6.8v2.1h-12.6V246.6L468.6,246.6z"/>
		<path class="st2" d="M486.5,264.8h-17.9v-2l2.3-0.1c-0.8-0.5-1.5-1.2-1.9-2c-0.4-0.8-0.7-1.8-0.7-2.7c0-1.9,0.6-3.4,1.8-4.6    s2.8-1.8,4.8-1.8c2.1,0,3.7,0.6,4.8,1.8c1.1,1.2,1.7,2.7,1.7,4.6c0,1-0.2,1.9-0.7,2.8c-0.4,0.9-1.1,1.5-1.9,2h7.6L486.5,264.8    L486.5,264.8z M479.5,258.1c0-1.3-0.4-2.3-1.2-3.2c-0.8-0.8-1.9-1.3-3.4-1.3c-1.4,0-2.5,0.4-3.3,1.3c-0.8,0.8-1.2,1.9-1.2,3.2    c0,1.3,0.4,2.3,1.3,3.2c0.9,0.9,2,1.3,3.3,1.3c1.3,0,2.4-0.4,3.3-1.3S479.5,259.4,479.5,258.1L479.5,258.1z"/>
		<path class="st2" d="M481.2,268.6v2.1h-12.7v-2.1H481.2z M485,268.3c-0.6,0-1,0.2-1.2,0.7c-0.2,0.5-0.2,0.9,0,1.4    c0.2,0.5,0.6,0.7,1.2,0.7s1-0.2,1.2-0.7c0.2-0.5,0.2-0.9,0-1.4C486,268.5,485.6,268.3,485,268.3z"/>
		<path class="st2" d="M479.6,275.6c1.2,1.2,1.9,2.8,1.9,4.7c0,1.9-0.6,3.5-1.8,4.7c-1.2,1.2-2.8,1.8-4.8,1.8    c-1.9,0-3.5-0.6-4.7-1.9c-1.2-1.2-1.8-2.8-1.8-4.7c0-1.9,0.6-3.5,1.8-4.7c1.2-1.2,2.8-1.9,4.7-1.9    C476.8,273.7,478.4,274.3,479.6,275.6z M478.2,283.5c0.9-0.9,1.3-1.9,1.3-3.2c0-1.3-0.4-2.4-1.3-3.2c-0.9-0.8-2-1.3-3.4-1.3    c-1.3,0-2.4,0.4-3.3,1.3c-0.9,0.8-1.3,1.9-1.3,3.2s0.4,2.4,1.3,3.2c0.9,0.8,1.9,1.3,3.3,1.3C476.2,284.7,477.4,284.3,478.2,283.5z    "/>
	</g>
</g>
</svg>