<svg xmlns="http://www.w3.org/2000/svg" xmlns:xlink="http://www.w3.org/1999/xlink" version="1.1" id="Layer_1" x="0px" y="0px" viewBox="0 0 28.3 28.3" style="enable-background:new 0 0 28.3 28.3;" xml:space="preserve" width="30"  height="30" >
<style type="text/css">
	.st0{fill-rule:evenodd;clip-rule:evenodd;fill:#CE132E;}
</style>
<path class="st0" d="M14.2,3.7c-3.1,0-5.6,2.5-5.6,5.6c0,3.1,2.5,5.7,5.6,5.7c3.1,0,5.6-2.5,5.6-5.6C19.8,6.2,17.3,3.7,14.2,3.7z   M17.3,15.5c0.2-0.2,0.4-0.2,0.7-0.1l0.3,0.1c3.9,1.4,6.4,4.8,6.4,8.5c0,0.4-0.3,0.7-0.6,0.7l-0.1,0l-19.5,0l-0.1,0  c-0.4,0-0.6-0.4-0.6-0.7c0-3.8,2.6-7.2,6.7-8.6c0.2-0.1,0.5,0,0.7,0.2l0.1,0.1l3,3.6L17.3,15.5L17.3,15.5z M18.1,17L18,16.9  l-3.3,3.8l-0.1,0.1c-0.2,0.2-0.7,0.2-0.9,0l-0.1-0.1l-3.3-3.8l-0.1,0L10,17.1c-2.6,1.1-4.4,3.2-4.8,5.7l-0.1,0.5h18.1l0-0.2l0-0.3  C22.7,20.2,20.8,18.1,18.1,17z M18.4,9.3c0-2.3-1.9-4.2-4.2-4.2C11.9,5.1,10,7,10,9.3c0,2.3,1.9,4.2,4.2,4.2  C16.5,13.5,18.4,11.6,18.4,9.3z"/>
</svg>