<svg xmlns="http://www.w3.org/2000/svg" xmlns:xlink="http://www.w3.org/1999/xlink" width="34" height="34" viewBox="0 0 34 34" version="1.1">
    <title>86C01F93-2181-4392-ABB8-FC57C0FF487F</title>
    <defs>
        <filter id="filter-1">
            <feColorMatrix in="SourceGraphic" type="matrix" values="0 0 0 0 0.666667 0 0 0 0 0.094118 0 0 0 0 0.172549 0 0 0 1.000000 0"/>
        </filter>
    </defs>
    <g id="ana-sayfa-1440px" stroke="none" stroke-width="1" fill="none" fill-rule="evenodd">
        <g id="833602" transform="translate(-1350.000000, -193.000000)" filter="url(#filter-1)">
            <g transform="translate(1350.000000, 193.000000)">
                <path d="M30.4410234,25.2795977 C29.8524648,24.8417813 29.0205273,24.9640352 28.5827109,25.5524609 C28.3419219,25.876125 28.0842656,26.1936133 27.8168477,26.4960938 C27.3310859,27.0456055 27.3826836,27.8849805 27.9321953,28.3708086 C28.1849375,28.5941992 28.498707,28.7039023 28.8113477,28.7039023 C29.178707,28.7039023 29.5444727,28.5522969 29.8069102,28.2553945 C30.1236016,27.8971992 30.4287383,27.521207 30.7138867,27.1378437 C31.1517031,26.549418 31.029582,25.7173477 30.4410234,25.2795977 Z" id="Path" fill="#FFFFFF" fill-rule="nonzero"/>
                <path d="M32.6621797,19.0510234 C31.9459219,18.8950352 31.2379648,19.3495859 31.0819766,20.0662422 C30.9961133,20.4604961 30.8923867,20.8554805 30.7734531,21.2403711 C30.5569023,21.9412227 30.9494961,22.6848398 31.6502812,22.9013906 C31.7809023,22.9416992 31.912918,22.9608906 32.0428086,22.9608906 C32.609918,22.9608906 33.1350586,22.5947266 33.3113008,22.0244297 C33.4524805,21.5676875 33.5755977,21.0989258 33.6774648,20.6312266 C33.8334531,19.9145703 33.3789023,19.2070781 32.6621797,19.0510234 Z" id="Path" fill="#FFFFFF" fill-rule="nonzero"/>
                <path d="M24.048293,29.5331172 C23.6956758,29.7299453 23.3305742,29.9138906 22.9632148,30.0798398 C22.2947031,30.3817227 21.9975352,31.1683711 22.299418,31.8368828 C22.5212148,32.3280234 23.0045859,32.6186836 23.5106016,32.6186836 C23.6933516,32.6186836 23.8790898,32.5807656 24.0564609,32.5006797 C24.4922852,32.3038516 24.9251211,32.085707 25.3432148,31.8522891 C25.9837031,31.4947578 26.2130039,30.6856641 25.8553398,30.0452422 C25.497875,29.4048867 24.6887813,29.1755859 24.048293,29.5331172 Z" id="Path" fill="#FFFFFF" fill-rule="nonzero"/>
                <path d="M15.671875,6.375 L15.671875,16.4498906 L10.801707,21.3199922 C10.2830742,21.8386914 10.2830742,22.6795938 10.801707,23.1982266 C11.0610898,23.4576094 11.4008906,23.5872344 11.7408906,23.5872344 C12.0807578,23.5872344 12.4206914,23.457543 12.6800742,23.1982266 L17.9391836,17.9391172 C18.188207,17.6900937 18.328125,17.3522187 18.328125,17 L18.328125,6.375 C18.328125,5.64147656 17.7335234,5.046875 17,5.046875 C16.2664766,5.046875 15.671875,5.64147656 15.671875,6.375 Z" id="Path" fill="#FFFFFF" fill-rule="nonzero"/>
                <path d="M32.671875,2.85546875 C31.9383516,2.85546875 31.34375,3.45007031 31.34375,4.18359375 L31.34375,7.87153125 C28.2524062,3.02334375 22.8537773,0 17,0 C12.4591406,0 8.19008203,1.76833203 4.97914063,4.97914063 C1.76833203,8.19008203 0,12.4591406 0,17 C0,21.5408594 1.76833203,25.809918 4.97914063,29.0208594 C8.19008203,32.231668 12.4591406,34 17,34 C17.0112227,34 17.0220469,33.9986055 17.0332031,33.9983398 C17.0443594,33.9986055 17.0551836,34 17.0664062,34 C17.5450625,34 18.0284336,33.9798125 18.5032383,33.9401016 C19.2341719,33.878875 19.7771094,33.2367266 19.7159492,32.505793 C19.6546562,31.7748594 19.0133711,31.2316563 18.2815742,31.2931484 C17.8802148,31.3266836 17.471418,31.34375 17.0664062,31.34375 C17.0551836,31.34375 17.0443594,31.3451445 17.0332031,31.3454102 C17.0220469,31.3451445 17.0112227,31.34375 17,31.34375 C9.09081641,31.34375 2.65625,24.9091836 2.65625,17 C2.65625,9.09081641 9.09081641,2.65625 17,2.65625 C22.0972109,2.65625 26.7854258,5.37312891 29.3473125,9.6953125 L25.6954336,9.6953125 C24.9619102,9.6953125 24.3673086,10.2899141 24.3673086,11.0234375 C24.3673086,11.7569609 24.9619102,12.3515625 25.6954336,12.3515625 L29.75,12.3515625 C30.5588281,12.3515625 31.3155273,12.1242539 31.9598008,11.7304648 C32.0012383,11.7068242 32.041082,11.6813906 32.0790664,11.6539648 C33.2349336,10.8935469 34,9.58554297 34,8.1015625 L34,4.18359375 C34,3.45007031 33.4053984,2.85546875 32.671875,2.85546875 Z" id="Path" fill="#FFFFFF" fill-rule="nonzero"/>
            </g>
        </g>
    </g>
</svg>