<svg xmlns="http://www.w3.org/2000/svg" xmlns:xlink="http://www.w3.org/1999/xlink" width="80" height="50" viewBox="0 0 80 50" version="1.1">
    <title>FE3217F8-EF88-4891-BB88-AC1F44E2E67A</title>
    <defs>
        <linearGradient x1="193.924027%" y1="138.407861%" x2="477.222348%" y2="314.125636%" id="linearGradient-1">
            <stop stop-color="#1F2555" offset="0%"/>
            <stop stop-color="#1A79B0" offset="66%"/>
            <stop stop-color="#1182C5" offset="99%"/>
        </linearGradient>
        <linearGradient x1="126.083351%" y1="108.561912%" x2="418.577649%" y2="287.5%" id="linearGradient-2">
            <stop stop-color="#1F2555" offset="0%"/>
            <stop stop-color="#1A79B0" offset="66%"/>
            <stop stop-color="#1182C5" offset="99%"/>
        </linearGradient>
        <linearGradient x1="54.728876%" y1="62.5752573%" x2="285.560202%" y2="239.949505%" id="linearGradient-3">
            <stop stop-color="#1F2555" offset="0%"/>
            <stop stop-color="#1A79B0" offset="66%"/>
            <stop stop-color="#1182C5" offset="99%"/>
        </linearGradient>
        <linearGradient x1="-0.665003492%" y1="20.1989275%" x2="223.411254%" y2="197.575381%" id="linearGradient-4">
            <stop stop-color="#1F2555" offset="0%"/>
            <stop stop-color="#1A79B0" offset="66%"/>
            <stop stop-color="#1182C5" offset="99%"/>
        </linearGradient>
        <linearGradient x1="-26.4017467%" y1="-13.9587412%" x2="137.871907%" y2="123.565728%" id="linearGradient-5">
            <stop stop-color="#1F2555" offset="0%"/>
            <stop stop-color="#1A79B0" offset="66%"/>
            <stop stop-color="#1182C5" offset="99%"/>
        </linearGradient>
        <linearGradient x1="30.6099467%" y1="-60.5032183%" x2="63.030888%" y2="117.651648%" id="linearGradient-6">
            <stop stop-color="#1F2555" offset="0%"/>
            <stop stop-color="#1A79B0" offset="66%"/>
            <stop stop-color="#1182C5" offset="99%"/>
        </linearGradient>
        <linearGradient x1="-136.922645%" y1="-85.6235566%" x2="106.886495%" y2="90.1462664%" id="linearGradient-7">
            <stop stop-color="#1F2555" offset="0%"/>
            <stop stop-color="#1A79B0" offset="66%"/>
            <stop stop-color="#1182C5" offset="99%"/>
        </linearGradient>
        <linearGradient x1="-252.489099%" y1="-173.262753%" x2="-13.3491237%" y2="2.56015399%" id="linearGradient-8">
            <stop stop-color="#1F2555" offset="0%"/>
            <stop stop-color="#1A79B0" offset="66%"/>
            <stop stop-color="#1182C5" offset="99%"/>
        </linearGradient>
        <linearGradient x1="-162.408685%" y1="-203.456856%" x2="-19.2775974%" y2="-32.9950212%" id="linearGradient-9">
            <stop stop-color="#1F2555" offset="0%"/>
            <stop stop-color="#1A79B0" offset="66%"/>
            <stop stop-color="#1182C5" offset="99%"/>
        </linearGradient>
        <linearGradient x1="-263.869163%" y1="-123.060288%" x2="39.7030342%" y2="55.877717%" id="linearGradient-10">
            <stop stop-color="#1F2555" offset="0%"/>
            <stop stop-color="#1A79B0" offset="66%"/>
            <stop stop-color="#1182C5" offset="99%"/>
        </linearGradient>
    </defs>
    <g id="ana-sayfa-1440px" stroke="none" stroke-width="1" fill="none" fill-rule="evenodd">
        <g id="ana-sayfa-1440px-(Bu-sayfa-ölçüsü-örnek-verdiğiniz-site-baz-alınarak-belirlenmiştir.)-market.samm" transform="translate(-1270.000000, -6512.000000)">
            <g id="footer" transform="translate(0.000000, 5860.000000)">
                <g id="Group-14" transform="translate(1270.000000, 652.000000)">
                    <rect id="Rectangle-Copy-20" fill="#FFFFFF" x="0" y="0" width="80" height="50" rx="3"/>
                    <g id="card-finans" transform="translate(8.000000, 20.000000)">
                        <polygon id="Path" points="47 7 49 7 48.0007758 4"/>
                        <polygon id="Path" points="10 7 12 7 10.9992242 4"/>
                        <path d="M7,7.5564909 L5.57035461,7.58342377 C5.08677741,8.34023757 4.43825915,8.71864447 3.62479983,8.71864447 C2.35962692,8.71864447 1.43183345,7.79754013 1.43183345,6.50880205 C1.43183345,5.22006396 2.35822117,4.27875997 3.62479983,4.27875997 C4.43919631,4.27875997 5.08771458,4.65716686 5.57035461,5.41398066 L6.86926547,5.35338169 L6.62044813,4.68005981 C6.02653478,3.62931928 4.87197607,2.98211054 3.62479983,3.00079503 C1.64831859,2.95904907 -0.0287383854,4.56694173 0.000782315783,6.4980289 C-0.0413901145,8.43180935 1.62723238,10.0383554 3.61355385,9.9993027 C4.92089919,9.9993027 6.0328456,9.37580663 6.61904238,8.3227312 L7,7.5564909 Z" id="Path" fill="url(#linearGradient-1)" fill-rule="nonzero"/>
                        <path d="M9.87953556,3.00548589 L7,10 L8.46444122,10 L9.19013062,8.35423197 L12.065312,8.35423197 L12.3976778,9.3979232 C12.5098325,9.75181123 12.8543435,9.99429691 13.245283,9.99451411 L14,9.99451411 L11.2685051,3 L9.87953556,3.00548589 Z M9.69521045,7.02390282 L10.6298984,4.51410658 L11.5660377,7.02390282 L9.69521045,7.02390282 Z" id="Shape" fill="url(#linearGradient-2)" fill-rule="nonzero"/>
                        <path d="M20.4280624,5.11264323 C20.4280624,3.80073801 19.6837416,3 18.3327394,3 L15,3 L15,10 L16.3216036,10 L16.3216036,4.23441445 L18.5412027,4.23441445 C18.9420935,4.23441445 19.2507795,4.54029909 19.2507795,5.11808118 C19.2507795,5.83860944 18.7683742,6.00174791 18.1523385,6.00174791 L16.6957684,6.00174791 L16.6957684,6.4095941 C16.6957684,6.86008855 17.0547383,7.22528646 17.4975501,7.22528646 L18.0146993,7.22528646 L19.5126949,10 L21,10 L19.1639198,6.95338901 C19.8694878,6.58496795 20.4280624,6.09555253 20.4280624,5.11264323 Z" id="Path" fill="url(#linearGradient-3)" fill-rule="nonzero"/>
                        <path d="M24.8655086,3.00019536 L22,3.00019536 C22,3.69561123 22.5375878,4.25956759 23.2012046,4.26031777 L24.5697477,4.26031777 C25.8526757,4.26031777 26.6789903,5.24992846 26.6789903,6.57122185 C26.6789903,7.89251525 25.8332178,8.74619041 24.5697477,8.74619041 L23.2816308,8.74619041 L23.2816308,4.82445024 L22,4.82445024 L22,9.99951603 L24.8655086,9.99951603 C26.8502204,10.0307812 28.0267782,8.54364646 27.9995371,6.57122185 C28.0267782,4.55801659 26.8502204,2.97980503 24.8655086,3.00019536 Z" id="Path" fill="url(#linearGradient-4)" fill-rule="nonzero"/>
                        <polygon id="Path" fill="url(#linearGradient-5)" fill-rule="nonzero" points="29 10 30.6550218 10 30.6550218 5.69944285 34.4497817 5.69944285 34.4497817 4.30356874 30.6550218 4.30356874 30.6550218 1.39587412 37 1.39587412 37 0 29 0"/>
                        <path d="M37,10 L37,10 L37,3 L36,3 L36,8.78759508 C36,9.45718783 36.4477153,10 37,10 Z" id="Path" fill="url(#linearGradient-6)" fill-rule="nonzero"/>
                        <path d="M42.6026817,7.15473441 L39.7798165,3.47690531 C39.5486617,3.17703452 39.1818594,3 38.7918137,3 L38,3 L38,9.87066975 L39.3959068,9.87066975 L39.3959068,5.82371055 L42.7692308,10 L44,10 L44,3 L42.6055046,3 L42.6026817,7.15473441 Z" id="Path" fill="url(#linearGradient-7)" fill-rule="nonzero"/>
                        <polygon id="Path" fill="url(#linearGradient-8)" fill-rule="nonzero" points="57.503461 7.15553417 54.4411629 3 53 3 53 9.8773821 54.5436087 9.8773821 54.5436087 5.82425409 57.6778957 10 59 10 59 3 57.503461 3"/>
                        <path d="M63.3220779,5.43088501 L62.5506494,5.04420128 C61.9753247,4.7456038 61.7584416,4.56495233 61.7584416,4.15587378 C61.7584416,3.67513184 62.1194805,3.40938009 62.6025974,3.40938009 C62.8408441,3.40720133 63.0754446,3.4766843 63.2831169,3.61093339 C63.7822728,3.92147942 64.3939993,3.862876 64.8415584,3.46163465 C64.4194805,2.57330716 63.6376623,2 62.5987013,2 C61.312987,2 60.3454545,2.86593268 60.3454545,4.18722652 C60.3454545,5.21738781 60.9532468,5.88475317 61.9922078,6.41028473 L62.7220779,6.78502456 C63.3714286,7.1239327 63.5857143,7.28816131 63.5857143,7.74501545 C63.5857143,8.27054701 63.225974,8.59900424 62.6194805,8.59900424 C62.2685215,8.60433778 61.9245481,8.4860729 61.6337662,8.2600961 C61.1386027,7.87079501 60.4835848,7.88336511 60,8.29144884 C60.5384151,9.36777077 61.5435257,10.0221589 62.6233766,9.9994264 C63.9805195,9.9994264 65,9.10363397 65,7.68230998 C65,6.64766973 64.4597403,6.00419216 63.3220779,5.43088501 Z" id="Path" fill="url(#linearGradient-9)" fill-rule="nonzero"/>
                        <path d="M46.8454917,3 L44,9.99450443 L45.4912847,9.99450443 L46.0079621,8.34873868 L48.9860125,8.34873868 L49.3867011,9.42122936 C49.5097665,9.76709161 49.8640844,10.000999 50.2633957,10 L51,10 L48.1545083,3 L46.8454917,3 Z M46.5261459,7.01841137 L47.4977405,4.5086186 L48.4678287,7.01841137 L46.5261459,7.01841137 Z" id="Shape" fill="url(#linearGradient-10)" fill-rule="nonzero"/>
                    </g>
                </g>
            </g>
        </g>
    </g>
</svg>