<svg xmlns="http://www.w3.org/2000/svg" xmlns:xlink="http://www.w3.org/1999/xlink" width="80" height="50" viewBox="0 0 80 50" version="1.1">
    <title>62DE09B4-81E3-4782-BDCE-4DB6124B494B</title>
    <g id="ana-sayfa-1440px" stroke="none" stroke-width="1" fill="none" fill-rule="evenodd">
        <g id="ana-sayfa-1440px-(Bu-sayfa-ölçüsü-örnek-verdiğiniz-site-baz-alınarak-belirlenmiştir.)-market.samm" transform="translate(-670.000000, -6512.000000)">
            <g id="footer" transform="translate(0.000000, 5860.000000)">
                <g id="Group-8" transform="translate(670.000000, 652.000000)">
                    <rect id="Rectangle-Copy-7" fill="#FFFFFF" x="0" y="0" width="80" height="50" rx="3"/>
                    <g id="bonus" transform="translate(7.000000, 17.000000)" fill="#7DC142" fill-rule="nonzero">
                        <path d="M14.3430633,5.7539926 L9.2401011,5.7539926 C9.24040286,5.74993002 9.24040286,5.74585066 9.2401011,5.74178809 L9.2401011,0.65708501 C9.25046296,0.4802666 9.18463016,0.307471823 9.05924161,0.182373708 C8.93385306,0.0572755933 8.76090709,-0.00815533206 8.58411494,0.00261827666 L6.3766452,0.00261827666 C6.19848017,-0.014056479 6.02214983,0.0495194678 5.89561758,0.176052897 C5.76908533,0.302586327 5.70550998,0.478918318 5.72218458,0.65708501 L5.72218458,5.75246703 L0.655835591,5.75246703 C0.477339932,5.73613537 0.300869001,5.80031793 0.174569722,5.92750368 C0.0482704429,6.05468942 -0.0146773486,6.23160599 0.0029005211,6.40998489 L0.0029005211,8.61900081 C-0.0137811854,8.79676346 0.0496310581,8.97271212 0.175879323,9.09896156 C0.302127587,9.22521101 0.478074602,9.28862384 0.655835591,9.27194198 L5.71913348,9.27194198 L5.71913348,9.28872318 L5.71913348,14.342915 C5.70245888,14.5210817 5.76603424,14.6974137 5.89256648,14.8239471 C6.01909873,14.9504805 6.19542908,15.0140565 6.3735941,14.9973817 L8.58411494,14.9973817 C8.76227996,15.0140565 8.93861031,14.9504805 9.06514256,14.8239471 C9.1916748,14.6974137 9.25525016,14.5210817 9.23857556,14.342915 L9.23857556,9.29024874 C9.23888344,9.28465925 9.23888344,9.27905704 9.23857556,9.27346755 L14.3430633,9.27346755 C14.5209382,9.29007257 14.6969819,9.2266924 14.8234526,9.1005153 C14.9499234,8.9743382 15.0137136,8.79844123 14.9975239,8.62052638 L14.9975239,6.40998489 C15.0082974,6.23319109 14.9428671,6.0602435 14.8177701,5.93485378 C14.6926732,5.80946406 14.51988,5.74363064 14.3430633,5.7539926 Z" id="Path"/>
                        <path d="M27,11.7883253 L27,9.28884867 C27,6.88415341 25.1860224,5.09706582 22.8626402,5.09706582 C21.822088,5.09706582 21.2179465,5.57403017 20.9275237,5.57403017 C20.8296808,5.57403017 20.7582399,5.4792488 20.7582399,5.31261702 L20.7582399,1.24007525 C20.7663853,1.17469494 20.7434917,1.1092646 20.6961732,1.0626874 C20.6488547,1.0161102 20.5823829,0.993575277 20.515962,1.00159308 L18.2422778,1.00159308 C18.072994,1.00159308 18,1.07344348 18,1.24007525 L18,15.7630282 C18,15.9281313 18.072994,16 18.2422778,16 L20.2985332,16 C20.6371009,16 20.4926661,15.5245461 20.7085418,15.5245461 C21.0005177,15.5245461 21.5565142,16 22.6452114,16 C25.1611734,16.0045679 27,14.2893307 27,11.7883253 Z M24.2184642,11.7883253 C24.2343555,12.2438481 24.0591134,12.6857355 23.7339015,13.0101901 C23.4086895,13.3346448 22.9621683,13.5130729 22.4992235,13.5035625 C22.0353005,13.5098048 21.5885429,13.3310479 21.2606155,13.0079701 C20.9326881,12.6848922 20.7514845,12.2449745 20.7582399,11.7883253 L20.7582399,9.28884867 C20.7582399,8.3483037 21.5328375,7.58584134 22.488352,7.58584134 C23.4438666,7.58584134 24.2184642,8.3483037 24.2184642,9.28884867 L24.2184642,11.7883253 Z" id="Shape"/>
                        <path d="M36,11.9255976 L36,9.07292506 C36,6.63389739 34.2148632,5 31.5100637,5 C28.7851368,5 27,6.63389739 27,9.07292506 L27,11.9255976 C27,14.3661026 28.7851368,16 31.5100637,16 C34.2148632,16 36,14.3661026 36,11.9255976 Z M33.225529,11.9255976 C33.225529,12.8336855 32.4540231,13.5698362 31.5023224,13.5698362 C30.5506217,13.5698362 29.7791158,12.8336855 29.7791158,11.9255976 L29.7791158,9.07292506 C29.7791158,8.1648372 30.5506217,7.42868654 31.5023224,7.42868654 C32.4540231,7.42868654 33.225529,8.1648372 33.225529,9.07292506 L33.225529,11.9255976 Z" id="Shape"/>
                        <path d="M46.7592337,16 L44.4603038,16 C44.2909907,16 44.2195375,15.9275606 44.2195375,15.7611041 L44.2195375,9.22922797 C44.2195375,8.28097277 43.4448062,7.51226005 42.4891267,7.51226005 C41.5334472,7.51226005 40.7587159,8.28097277 40.7587159,9.22922797 L40.7587159,15.7611041 C40.7587159,15.9275606 40.6857094,16 40.5163963,16 L38.2423196,16 C38.0714532,16 38,15.9275606 38,15.7611041 L38,5.24043716 C38,5.0724394 38.0714532,5 38.2423196,5 L40.2989299,5 C40.6624094,5 40.5163963,5.48087432 40.7105627,5.48087432 C41.0010356,5.48087432 41.580428,5 42.6941664,5 C45.1624094,5 47,6.72929802 47,9.22614544 L47,15.7611041 C47,15.9275606 46.9285468,16 46.7592337,16 Z" id="Path"/>
                        <path d="M56.7561795,16 L54.6970885,16 C54.3572687,16 54.5031274,15.5207852 54.285891,15.5207852 C53.9957252,15.5207852 53.413842,16 52.3261082,16 C49.8123724,16 48,14.2711288 48,11.7502434 L48,5.24309257 C48,5.07513628 48.0729294,5.00271475 48.2420634,5.00271475 L50.5385628,5.00271475 C50.6056712,4.99305092 50.6734746,5.01506025 50.7218783,5.06221994 C50.7702819,5.10937963 50.793733,5.17627944 50.7852813,5.24309257 L50.7852813,11.7502434 C50.7695224,12.2074817 50.9431451,12.6511574 51.265678,12.9778501 C51.5882108,13.3045427 52.0314724,13.4857073 52.4921389,13.4791147 C52.9557898,13.4853969 53.4023038,13.3052665 53.7301851,12.9796685 C54.0580664,12.6540704 54.2394599,12.2106657 54.2331336,11.7502434 L54.2331336,5.24309257 C54.2331336,5.07513628 54.3076147,5.00271475 54.475197,5.00271475 L56.748421,5.00271475 C56.8160193,4.99196815 56.884764,5.01349295 56.9339293,5.06079962 C56.9830946,5.10810629 57.0069276,5.17565948 56.9982429,5.24309257 L56.9982429,15.7611631 C56.9982429,15.9275785 56.9237618,16 56.7561795,16 Z" id="Path"/>
                        <path d="M65.5893802,5.78149342 C66.4729384,6.40343809 67,7.39175396 67,7.66800967 C66.9943654,7.75080102 66.9391784,7.8228888 66.8586307,7.85267258 L64.8948267,8.7730325 C64.8577692,8.79112933 64.8164997,8.79977674 64.7749701,8.79814666 C64.6781629,8.79814666 64.6551135,8.75087295 64.5828923,8.65928015 C64.07888,7.94574268 63.8145808,7.34743486 62.8357521,7.34743486 L62.1411986,7.34743486 C61.2791532,7.34743486 60.8243128,7.64289551 60.8243128,8.22052109 C60.8243128,9.16451786 62.1411986,8.95917271 64.1050026,9.46293312 C66.042684,9.97112544 66.9539013,10.8220521 66.9539013,12.3407198 C66.9539013,14.5034918 65.3481304,16 62.8357521,16 L62.1411986,16 C60.8012634,16 59.7717261,15.6306742 59.0295373,14.8728176 C58.2873485,14.1149611 58,13.4915391 58,13.2847166 C58,13.2152834 58.0476353,13.169487 58.1429059,13.1236906 L60.1051733,12.2033306 C60.141842,12.1843012 60.1835298,12.1760799 60.2250299,12.1796938 C60.2957145,12.1796938 60.3448865,12.2476497 60.4155711,12.3407198 C60.8934608,13.1000537 61.2053953,13.6525651 62.1396619,13.6525651 L62.8342155,13.6525651 C63.6962609,13.6525651 64.217176,13.2389202 64.217176,12.662772 C64.217176,11.7438893 62.8772409,11.9492345 60.9149735,11.4661563 C58.9988048,11.0052377 58.1137101,10.1365834 58.1137101,8.56621005 C58.1137101,6.47139404 59.7655796,5 62.1350521,5 L62.8296056,5 C63.9590234,5 64.8471914,5.25261886 65.5893802,5.78149342 Z" id="Path"/>
                        <path d="M26,10.788749 L26,8.28799162 C26,5.8820062 24.1860224,4.09662439 21.8641933,4.09662439 C20.8236411,4.09662439 20.2179465,4.57201287 19.9275237,4.57201287 C19.8312338,4.57201287 19.7597929,4.47724089 19.7597929,4.31215422 L19.7597929,0.240016257 C19.7674059,0.174485987 19.7441137,0.109132295 19.6965768,0.0626427108 C19.6490398,0.0161531265 19.5824919,-0.00635377618 19.515962,0.00155772775 L17.2422778,0.00155772775 C17.074547,0.00155772775 17,0.0734010026 17,0.240016257 L17,14.7615293 C17,14.9281445 17.074547,15 17.2422778,15 L19.2985332,15 C19.6371009,15 19.4926661,14.5230707 19.711648,14.5230707 C19.9989646,14.5230707 20.5565142,15 21.6467645,15 C24.1611734,15.0030449 26,13.2895064 26,10.788749 Z M23.2184642,10.788749 C23.2339191,11.2439661 23.0584837,11.685405 22.7333211,12.0094892 C22.4081585,12.3335733 21.9618893,12.511777 21.4992235,12.5022875 C21.0358413,12.5081036 20.5897313,12.3293888 20.2621902,12.0067233 C19.9346492,11.6840578 19.7534702,11.244821 19.7597929,10.788749 L19.7597929,8.28799162 C19.7878134,7.36781668 20.5537957,6.63616629 21.4891286,6.63616629 C22.4244614,6.63616629 23.1904438,7.36781668 23.2184642,8.28799162 L23.2184642,10.788749 Z" id="Shape"/>
                        <path d="M36,10.9276219 L36,8.07385524 C36,5.6351551 34.2142488,4 31.5085183,4 C28.8027878,4 27,5.6351551 27,8.07385524 L27,10.9276219 C27,13.366322 28.7857512,15 31.5116159,15 C34.2374806,15 36,13.366322 36,10.9276219 Z M33.2245741,10.9276219 C33.2434096,11.52699 32.9188894,12.0886793 32.3775541,12.3936694 C31.8362188,12.6986595 31.1637812,12.6986595 30.6224459,12.3936694 C30.0811106,12.0886793 29.7565904,11.52699 29.7754259,10.9276219 L29.7754259,8.07385524 C29.7565904,7.47448711 30.0811106,6.91279776 30.6224459,6.6078077 C31.1637812,6.30281763 31.8362188,6.30281763 32.3775541,6.6078077 C32.9188894,6.91279776 33.2434096,7.47448711 33.2245741,8.07385524 L33.2245741,10.9276219 Z" id="Shape"/>
                        <path d="M45.7561691,15 L43.459189,15 C43.2899051,15 43.2153581,14.9275403 43.2153581,14.7594954 L43.2153581,8.22733006 C43.2153581,7.27966052 42.4414558,6.51142256 41.486799,6.51142256 C40.5321421,6.51142256 39.7582399,7.27966052 39.7582399,8.22733006 L39.7582399,14.7594954 C39.7582399,14.9275403 39.6836928,15 39.514409,15 L37.2407248,15 C37.0714409,15 37,14.9275403 37,14.7594954 L37,4.24050456 C37,4.07245971 37.0714409,4 37.2407248,4 L39.2969802,4 C39.6603969,4 39.514409,4.47946741 39.7085418,4.47946741 C39.9989646,4.47946741 40.5798102,4 41.6933563,4 C44.1596204,4 46,5.72824107 46,8.22733006 L46,14.7594954 C46,14.9275403 45.925453,15 45.7561691,15 Z" id="Path"/>
                        <path d="M56.7561476,15 L54.7002619,15 C54.361755,15 54.5077167,14.5190611 54.290327,14.5190611 C53.9999564,14.5190611 53.4207681,15 52.3307139,15 C49.8136514,15 48,13.2720113 48,10.7501652 L48,4.24207579 C48,4.07405548 48.0729808,4.00160635 48.2422343,4.00160635 L50.5403542,4.00160635 C50.6067632,3.99352174 50.6732229,4.01624445 50.720533,4.06320977 C50.767843,4.1101751 50.7907324,4.17615066 50.7825885,4.24207579 L50.7825885,10.7501652 C50.7671543,11.2089481 50.9423488,11.6538623 51.2671106,11.9806305 C51.5918725,12.3073987 52.0376514,12.4872943 52.4999673,12.4781539 C52.9635337,12.4844386 53.4099679,12.3044021 53.7377894,11.978969 C54.0656109,11.6535359 54.2469688,11.2103542 54.2406379,10.7501652 L54.2406379,4.24207579 C54.2406379,4.07405548 54.3151715,4.00160635 54.484425,4.00160635 L56.7561476,4.00160635 C56.8225565,3.99352174 56.8890163,4.01624445 56.9363263,4.06320977 C56.9836363,4.1101751 57.0065258,4.17615066 56.9983819,4.24207579 L56.9983819,14.7595306 C56.9983819,14.9275509 56.9269538,15 56.7561476,15 Z" id="Path"/>
                        <path d="M65.5865483,4.7814992 C66.4745647,5.40196622 67,6.39175883 67,6.66801438 C66.992585,6.75141829 66.9366137,6.82355973 66.8555821,6.85415449 L64.8936497,7.77303659 C64.8562323,7.7899806 64.8151467,7.79808446 64.7738136,7.79667343 C64.6785592,7.79667343 64.6539775,7.74939975 64.5817685,7.657807 C64.0793786,6.94574724 63.8135883,6.34743976 62.8349266,6.34743976 L62.1404916,6.34743976 C61.2785934,6.34743976 60.825367,6.64290024 60.825367,7.22200279 C60.825367,8.16452173 62.1404916,7.960654 64.1039604,8.46293682 C66.0428474,8.96965155 66.9508365,9.82057774 66.9508365,11.3407219 C66.9508365,13.5034927 65.3484124,15 62.8349266,15 L62.1404916,15 C60.8007853,15 59.7714237,14.6321517 59.0293616,13.8728183 C58.2872994,13.1341671 58,12.4915405 58,12.2832409 C58,12.2152849 58.0491635,12.1680113 58.1428815,12.1236922 L60.1063503,11.2033328 C60.1438796,11.1852429 60.1859097,11.1775693 60.2277228,11.1811733 C60.2983954,11.1811733 60.3444862,11.2491292 60.4182315,11.3421992 C60.8960396,12.1015327 61.2094572,12.6540438 62.1404916,12.6540438 L62.8349266,12.6540438 C63.6968249,12.6540438 64.2176511,12.2389218 64.2176511,11.6642511 C64.2176511,10.7438917 62.8779447,10.9507141 60.9144759,10.4676362 C59.0017071,10.0067178 58.115227,9.13806402 58.115227,7.56769155 C58.115227,5.47435403 59.7668146,4 62.1358826,4 L62.8303175,4 C63.9610789,3.99852892 64.8429498,4.26001145 65.5865483,4.7814992 Z" id="Path"/>
                    </g>
                </g>
            </g>
        </g>
    </g>
</svg>