<svg xmlns="http://www.w3.org/2000/svg" xmlns:xlink="http://www.w3.org/1999/xlink" version="1.1" id="Layer_1" x="0px" y="0px" viewBox="0 0 901.35 901.35" style="enable-background:new 0 0 901.35 901.35;" xml:space="preserve" width="901.35"  height="901.35" >
<style type="text/css">
	.st0{fill:#010202;}
	.st1{fill:#8CC04B;}
	.st2{fill:#C7053D;}
	.st3{fill:#1E1E1C;}
</style>
<g id="Layer_1_00000044155574593504832000000017162274662428591295_">
	<path class="st0" d="M321.74,141.02c-3.18,0.1-6.6,1.25-10.49,4.27c-9.52-3.61-18.74-4.87-26.99,2.49   c-12.74-1.63-16.88,1.73-20.01,5.65c-2.8-0.06-20.92-2.83-29.24,9.38c-20.89-2.43-27.5,12.1-20.01,25.66   c-4.27,6.51-8.69,12.93,1.29,25.34c-3.53,6.91-1.34,14.4,6.97,23.47c-2.19,9.71,2.12,16.56,9.86,21.9   c-1.45,13.29,12.37,21.02,16.5,23.77c1.58,7.74,4.89,15.05,20.67,19.09c2.6,11.54,12.09,13.53,21.28,15.95   c-30.36,17.38-56.4,40.26-56.22,96.38l-4.45,7.81c-34.81,20.85-66.14,87.88-17.16,142.36c3.2,17.05,8.56,29.3,13.34,42.86   c7.15,54.63,53.78,80.21,66.08,83.23c18.02,13.52,37.22,26.35,63.2,35.34c24.49,24.88,51.02,34.36,77.69,34.34   c0.39,0,0.79,0,1.18,0c26.68,0.01,53.2-9.46,77.69-34.34c25.98-8.99,45.17-21.82,63.2-35.34c12.3-3.03,58.93-28.61,66.08-83.23   c4.78-13.56,10.14-25.8,13.34-42.86c48.98-54.48,17.66-121.51-17.16-142.37l-4.45-7.81c0.18-56.12-25.86-78.99-56.22-96.38   c9.19-2.42,18.67-4.41,21.28-15.95c15.79-4.04,19.09-11.35,20.67-19.09c4.13-2.75,17.95-10.48,16.5-23.77   c7.74-5.34,12.05-12.19,9.86-21.9c8.31-9.07,10.5-16.56,6.97-23.47c9.98-12.4,5.55-18.83,1.29-25.33   c7.48-13.56,0.88-28.09-20.02-25.66c-8.31-12.21-26.43-9.44-29.24-9.38c-3.14-3.92-7.27-7.28-20.01-5.65   c-8.25-7.36-17.47-6.1-26.99-2.49c-11.3-8.78-18.77-1.74-27.31,0.92c-13.68-4.4-16.81,1.63-23.53,4.08   c-14.92-3.1-19.45,3.66-26.6,10.79l-8.32-0.16c-22.5,13.06-33.67,39.65-37.64,53.32c-3.96-13.67-15.12-40.27-37.61-53.32   l-8.32,0.16c-7.16-7.14-11.7-13.89-26.61-10.79c-6.72-2.45-9.84-8.49-23.53-4.08c-5.6-1.75-10.76-5.38-16.83-5.19L321.74,141.02z"/>
	<path class="st1" d="M276.95,198.48c59.69,30.31,94.39,54.83,113.4,75.72c-9.74,38.44-60.52,40.19-79.09,39.11   c3.8-1.74,6.97-3.83,8.1-7.04c-4.66-3.26-21.18-0.34-32.72-6.73c4.43-0.91,6.5-1.78,8.58-5.01c-10.9-3.42-22.64-6.37-29.54-12.05   c3.73,0.05,7.2,0.82,12.07-2.5c-9.76-5.18-20.18-9.29-28.27-17.21c5.05-0.12,10.49-0.05,12.07-1.88   c-8.93-5.45-16.47-11.52-22.71-18.15c7.06,0.84,10.05,0.12,11.75-1.1c-6.75-6.81-15.3-12.57-19.38-20.96   c5.24,1.78,10.04,2.46,13.5-0.16c-2.3-5.1-12.13-8.11-17.79-20.02c5.52,0.53,11.38,1.19,12.55,0   c-2.56-10.28-6.96-16.06-11.27-22.05c11.82-0.17,29.72,0.05,28.91-0.94l-7.31-7.35c11.54-3.06,23.35,0.49,31.92,3.13   c3.85-2.99-0.07-6.78-4.77-10.64c9.81,1.29,18.67,3.51,26.68,6.57c4.28-3.81-2.78-7.61-6.19-11.42   c15.15,2.83,21.57,6.81,27.95,10.79c4.63-4.37,0.27-8.08-2.86-11.89c11.43,4.17,17.31,9.55,23.51,14.86   c2.1-2.79,5.34-4.84,1.43-11.58c8.11,4.61,14.22,10.03,18.74,16.11c5.02-3.15,2.99-7.45,3.02-11.42   c8.43,6.76,13.78,13.94,20.33,20.96c1.32-0.94,2.47-4.16,3.49-9.23c20.11,19.22,48.53,67.63,7.31,86.82   c-35.09-28.5-76.99-49.22-123.43-64.76L276.95,198.48z"/>
	<path class="st1" d="M593.67,198.48c-59.69,30.32-94.39,54.83-113.4,75.72c9.74,38.44,60.53,40.19,79.1,39.11   c-3.8-1.74-6.98-3.83-8.1-7.04c4.66-3.26,21.18-0.34,32.72-6.73c-4.43-0.91-6.5-1.78-8.58-5.01c10.9-3.42,22.64-6.37,29.54-12.05   c-3.73,0.05-7.21,0.82-12.07-2.5c9.76-5.18,20.18-9.29,28.27-17.21c-5.05-0.12-10.49-0.05-12.07-1.88   c8.94-5.45,16.47-11.52,22.71-18.15c-7.06,0.84-10.04,0.12-11.75-1.1c6.75-6.81,15.3-12.57,19.38-20.96   c-5.24,1.78-10.04,2.46-13.5-0.16c2.3-5.1,12.13-8.11,17.79-20.02c-5.52,0.53-11.38,1.19-12.55,0   c2.57-10.29,6.96-16.07,11.28-22.06c-11.82-0.17-29.72,0.05-28.91-0.94l7.31-7.35c-11.54-3.06-23.35,0.49-31.93,3.13   c-3.85-2.99,0.07-6.78,4.76-10.64c-9.81,1.29-18.67,3.51-26.68,6.57c-4.28-3.81,2.78-7.61,6.19-11.42   c-15.15,2.83-21.57,6.81-27.95,10.79c-4.63-4.37-0.26-8.08,2.86-11.89c-11.43,4.17-17.31,9.55-23.51,14.86   c-2.1-2.79-5.34-4.84-1.43-11.58c-8.11,4.61-14.22,10.03-18.74,16.11c-5.02-3.15-2.99-7.45-3.02-11.42   c-8.43,6.75-13.78,13.94-20.33,20.96c-1.32-0.95-2.47-4.16-3.49-9.23c-20.11,19.22-48.53,67.63-7.31,86.82   C505.34,234.73,547.24,214.02,593.67,198.48L593.67,198.48z"/>
	<g>
		<path class="st2" d="M510.76,589.86c0.21,35.86-31.64,65.09-71.12,65.28c-39.49,0.19-71.67-28.73-71.88-64.6c0-0.23,0-0.46,0-0.68    c-0.21-35.87,31.63-65.09,71.12-65.28s71.67,28.73,71.88,64.6C510.76,589.4,510.76,589.63,510.76,589.86z"/>
		<path class="st2" d="M397.89,404.34c29.63,19.12,34.97,62.45,11.93,96.79s-65.73,46.68-95.36,27.56l0,0    c-29.63-19.12-34.97-62.46-11.93-96.8C325.57,397.56,368.26,385.22,397.89,404.34L397.89,404.34z"/>
		<path class="st2" d="M477.85,400.88c-29.63,19.12-34.97,62.46-11.93,96.79c23.04,34.34,65.73,46.68,95.36,27.56l0,0    c29.63-19.12,34.97-62.46,11.93-96.79C550.17,394.1,507.48,381.76,477.85,400.88L477.85,400.88z"/>
		<path class="st2" d="M249.82,435.6c31.98-8.45,10.8,130.34-15.23,118.95C205.97,531.87,196.75,465.45,249.82,435.6z"/>
		<path class="st2" d="M619.46,433.87c-31.99-8.44-10.8,130.35,15.23,118.96C663.32,530.15,672.54,463.72,619.46,433.87    L619.46,433.87z"/>
		<path class="st2" d="M510.79,330.52c55.2-9.18,101.13,23.12,99.28,82.08C608.25,435.2,490.45,333.88,510.79,330.52z"/>
		<path class="st2" d="M358.27,328.79c-55.2-9.18-101.13,23.13-99.28,82.08C260.81,433.47,378.61,332.15,358.27,328.79z"/>
		<path class="st2" d="M437.56,315.04c-32.95-0.84-64.56,24.08-64.64,38.54c-0.09,17.57,26.05,35.56,64.87,36.01    c39.64,0.28,64.93-14.4,65.06-32.53C503,336.52,466.8,314.72,437.56,315.04L437.56,315.04z"/>
		<path class="st2" d="M439.58,675.31c28.72-1.24,67.27,9.11,67.34,22.84c0.48,13.33-34.96,43.45-69.25,42.87    c-35.52,1.51-70.34-28.66-69.88-39.11C367.26,686.58,411.03,674.61,439.58,675.31L439.58,675.31z"/>
		<path class="st2" d="M333.48,593.96c20.45,24.27,29.77,66.9,12.71,79.47c-16.15,9.6-55.36,5.64-83.23-33.79    c-18.79-33.09-16.37-66.76-3.17-76.65C279.52,551.14,310.01,567.13,333.48,593.96L333.48,593.96z"/>
		<path class="st2" d="M541.58,586.26c-22.13,25.53-34.45,72.09-18.31,87.08c15.43,11.65,56.86,10.02,87.47-31.8    c22.22-28.09,14.78-75.01,2.08-87.46C593.97,539.71,566.9,558.1,541.58,586.26L541.58,586.26z"/>
	</g>
	<g>
		<path class="st3" d="M671.73,292.33c-22.73,0-41.15,18.42-41.15,41.15c0,22.72,18.42,41.14,41.15,41.14    c22.73,0,41.15-18.42,41.15-41.14C712.88,310.75,694.46,292.33,671.73,292.33z M671.73,367.77c-18.94,0-34.29-15.35-34.29-34.29    c0-18.96,15.35-34.29,34.29-34.29s34.29,15.34,34.29,34.29S690.67,367.77,671.73,367.77z"/>
		<g>
			<path class="st3" d="M654.41,310.95h23.72c7.89,0,12.88,5.48,12.88,12.12c0,5.19-2.09,9.08-6.96,11.05v0.12     c4.75,1.23,6.09,5.85,6.41,10.29c0.18,2.77,0.12,7.94,1.85,10.41h-9.67c-1.18-2.78-1.05-7.02-1.54-10.54     c-0.67-4.63-2.46-6.65-7.33-6.65h-9.68v17.19h-9.67L654.41,310.95L654.41,310.95z M664.08,330.86h10.6     c4.32,0,6.66-1.86,6.66-6.29c0-4.24-2.34-6.09-6.66-6.09h-10.6V330.86z"/>
		</g>
	</g>
</g>
<g id="Layer_2_00000031201539861672396390000008045635136811091132_">
</g>
</svg>