<svg xmlns="http://www.w3.org/2000/svg" xmlns:xlink="http://www.w3.org/1999/xlink" version="1.1" id="Layer_1" x="0px" y="0px" viewBox="0 0 595.28 595.28" style="enable-background:new 0 0 595.28 595.28;" xml:space="preserve" width="595.28"  height="595.28" >
<style type="text/css">
	.st0{fill:#13110C;}
	.st1{fill:#FFFFFF;}
	.st2{fill:url(#SVGID_1_);}
</style>
<g id="XMLID_2_">
	<g>
		<rect id="XMLID_8_" x="275.7" y="153.31" class="st0" width="44.58" height="42.03"/>
	</g>
	<g>
	</g>
</g>
<g id="XMLID_1_">
	<g>
		<rect id="XMLID_6_" x="327.13" y="153.31" class="st0" width="44.58" height="42.03"/>
	</g>
	<g>
	</g>
</g>
<g id="XMLID_4_">
	<g>
		<rect id="XMLID_3_" x="224.31" y="153.31" class="st0" width="44.58" height="42.03"/>
	</g>
	<g>
	</g>
</g>
<path id="XMLID_35_" class="st1" d="M257.19,244.55c-18.06,0-32.76,14.7-32.76,32.76c0,18.06,14.7,32.76,32.76,32.76h81.9  c18.06,0,32.76-14.7,32.76-32.76c0-18.06-14.7-32.76-32.76-32.76H257.19"/>
<path class="st1" d="M307.53,175.83c-1.97-1.97-4.43-2.46-4.43-2.46s1.15-0.49,1.97-1.4c0.41-0.41,1.89-1.72,1.89-4.93  c0-3.2-2.13-5.01-2.13-5.01s-2.38-2.79-7.63-2.79h-9.77v30.21h11.33c0,0,5.58,0.16,8.62-2.87c2.54-2.54,2.3-5.42,2.3-5.42  S309.82,178.13,307.53,175.83z M292.8,163.98h3.57c0.24,0,0.52,0,0.83,0.02c0.71,0.05,1.54,0.17,2.26,0.49  c0.39,0.18,0.74,0.39,1.03,0.68c0.24,0.24,0.41,0.48,0.54,0.75c0.26,0.53,0.34,1.08,0.36,1.42c0,0.21,0,0.33,0,0.33  s0,0.18-0.02,0.44c-0.02,0.3-0.09,0.74-0.28,1.18c-0.15,0.36-0.37,0.74-0.71,1.07c-0.43,0.42-0.99,0.73-1.56,0.94  c-0.15,0.04-0.29,0.08-0.43,0.13c-0.74,0.2-1.48,0.28-2.01,0.31c-0.18,0.02-0.4,0.02-0.58,0.03c-0.23,0.02-0.4,0.02-0.4,0.02h-2.6  V163.98z M304.14,180.66c0,0,0,0.1-0.02,0.25c-0.02,0.38-0.12,1.06-0.54,1.72c-0.13,0.19-0.29,0.4-0.48,0.59  c-0.5,0.5-1.16,0.84-1.83,1.07c-0.74,0.25-1.51,0.36-2.09,0.41c-0.31,0.03-0.57,0.04-0.75,0.05c-0.18,0-0.29,0.01-0.29,0.01h-5.36  v-8.24v-0.01h5.18c0.2,0,0.39,0.01,0.57,0.02c0.21,0.01,0.42,0.03,0.62,0.05c0.32,0.03,0.65,0.07,0.95,0.12  c0.59,0.11,1.12,0.28,1.61,0.48c0.37,0.16,0.7,0.35,0.99,0.57c0.17,0.13,0.34,0.26,0.48,0.41l0.2,0.23  c0.33,0.41,0.52,0.87,0.62,1.26c0.09,0.33,0.12,0.64,0.12,0.8V180.66z"/>
<path class="st1" d="M256.13,175.83c-1.97-1.97-4.43-2.46-4.43-2.46s1.15-0.49,1.97-1.4c0.41-0.41,1.89-1.72,1.89-4.93  c0-3.2-2.13-5.01-2.13-5.01s-2.38-2.79-7.63-2.79h-9.77v30.21h11.33c0,0,5.58,0.16,8.62-2.87c2.54-2.54,2.3-5.42,2.3-5.42  S258.43,178.13,256.13,175.83z M241.4,163.98h3.57c0.24,0,0.52,0,0.83,0.02c0.71,0.05,1.54,0.17,2.26,0.49  c0.39,0.18,0.74,0.39,1.03,0.68c0.24,0.24,0.41,0.48,0.54,0.75c0.26,0.53,0.34,1.08,0.36,1.42c0,0.21,0,0.33,0,0.33  s0,0.18-0.02,0.44c-0.02,0.3-0.09,0.74-0.28,1.18c-0.15,0.36-0.37,0.74-0.71,1.07c-0.43,0.42-0.99,0.73-1.56,0.94  c-0.15,0.04-0.29,0.08-0.43,0.13c-0.74,0.2-1.48,0.28-2.01,0.31c-0.18,0.02-0.4,0.02-0.58,0.03c-0.23,0.02-0.4,0.02-0.4,0.02h-2.6  V163.98z M252.75,180.66c0,0,0,0.1-0.02,0.25c-0.02,0.38-0.12,1.06-0.54,1.72c-0.13,0.19-0.29,0.4-0.48,0.59  c-0.5,0.5-1.16,0.84-1.83,1.07c-0.74,0.25-1.51,0.36-2.09,0.41c-0.31,0.03-0.57,0.04-0.75,0.05c-0.18,0-0.29,0.01-0.29,0.01h-5.36  v-8.24v-0.01h5.18c0.2,0,0.39,0.01,0.57,0.02c0.21,0.01,0.42,0.03,0.62,0.05c0.32,0.03,0.65,0.07,0.95,0.12  c0.59,0.11,1.12,0.28,1.61,0.48c0.37,0.16,0.7,0.35,0.99,0.57c0.17,0.13,0.34,0.26,0.48,0.41l0.2,0.23  c0.33,0.41,0.52,0.87,0.62,1.26c0.09,0.33,0.12,0.64,0.12,0.8V180.66z"/>
<linearGradient id="SVGID_1_" gradientUnits="userSpaceOnUse" x1="169.1716" y1="547.0267" x2="434.5786" y2="281.6197">
	<stop offset="0" style="stop-color:#74C8EB"/>
	<stop offset="1" style="stop-color:#61AF4A"/>
</linearGradient>
<path class="st2" d="M371.18,396.15c-5.03,0-9.13-4.15-9.13-9.25c0-5.03,4.1-9.13,9.13-9.13c5.1,0,9.24,4.1,9.24,9.13  C380.42,391.99,376.27,396.15,371.18,396.15 M338.15,288.33c6.09,0,11.02-4.94,11.02-11.03c0-6.08-4.93-11.03-11.02-11.03  c-6.09,0-11.03,4.94-11.03,11.03C327.12,283.39,332.06,288.33,338.15,288.33 M257.19,266.28c-6.09,0-11.03,4.94-11.03,11.02  c0,6.09,4.94,11.03,11.03,11.03c6.08,0,11.02-4.94,11.02-11.03C268.21,271.22,263.27,266.28,257.19,266.28 M257.19,244.55  c-18.06,0-32.76,14.7-32.76,32.76c0,18.06,14.7,32.76,32.76,32.76h81.9c18.06,0,32.76-14.7,32.76-32.76  c0-18.06-14.7-32.76-32.76-32.76H257.19 M339.08,331.9h-81.9c-30.1,0-54.61-24.49-54.61-54.6s24.5-54.6,54.61-54.6h81.9  c30.1,0,54.6,24.49,54.6,54.6S369.2,331.9,339.08,331.9 M147.12,442.05h-12.93v-36.9c0-8.23-4.59-14.22-10.91-14.22  c-6.49,0-11.03,5.85-11.03,14.22v36.9H99.2v-36.9c0-9.33-5.55-14.22-11.03-14.22c-6.49,0-11.03,5.85-11.03,14.22v36.9H64.19v-36.29  c0-16.52,9.86-28.05,23.96-28.05c6.7,0,12.42,2.81,17.4,8.57c4.77-5.62,10.85-8.57,17.72-8.57c14.05,0,23.85,11.53,23.85,28.05  L147.12,442.05L147.12,442.05z M173.03,442.05h-13.34v-62.74h13.34V442.05z M166.36,370.18c-4.78,0-8.51-3.79-8.51-8.64  c0-4.85,3.66-8.51,8.51-8.51c4.84,0,8.64,3.74,8.64,8.51C175,366.3,171.12,370.18,166.36,370.18 M217.52,443.65  c-8.64,0-16.78-3.46-22.91-9.72c-5.99-5.99-9.31-14.26-9.31-23.24c0-8.99,3.32-17.25,9.33-23.27c6.03-6.16,14.38-9.7,22.9-9.7  c9.38,0,17.22,3.14,23.29,9.35l1.71,1.75l-9.53,9.71l-1.77-1.59c-4.52-4.06-8.74-5.88-13.7-5.88c-10.62,0-19.25,8.81-19.25,19.63  c0,10.89,8.64,19.75,19.25,19.75c5,0,9.34-1.86,13.67-5.85l1.71-1.58l9.8,9.22l-2.01,1.79  C233.65,440.41,225.86,443.65,217.52,443.65 M261.96,442.05h-14.07v-31.37c0-20.12,8.7-29.79,28.22-31.36l2.69-0.22v13.17  l-2.22,0.25c-10.66,1.18-14.62,5.91-14.62,17.43L261.96,442.05z M317.12,443.65c-8.64,0-16.79-3.46-22.91-9.72  c-6.08-6.21-9.44-14.47-9.44-23.25c0-8.78,3.35-17.03,9.44-23.25c6.13-6.26,14.28-9.72,22.91-9.72c8.56,0,16.66,3.46,22.79,9.72  c6.08,6.08,9.44,14.34,9.44,23.25c0,8.91-3.36,17.17-9.46,23.27C333.79,440.19,325.69,443.65,317.12,443.65 M317,390.93  c-10.21,0-18.52,8.86-18.52,19.74c0,10.83,8.31,19.63,18.52,19.63c10.45,0,18.64-8.62,18.64-19.63  C335.64,399.79,327.28,390.93,317,390.93 M371.18,442.05c-5.03,0-9.13-4.1-9.13-9.13c0-5.1,4.1-9.25,9.13-9.25  c5.1,0,9.24,4.15,9.24,9.25C380.42,437.96,376.27,442.05,371.18,442.05 M425.24,443.65c-19.05,0-32.35-14.82-32.35-36.04  c0-1.31,0-2.73,0.13-4.15l-0.02-50.7h13.22v31.15c5.71-4.06,11.96-6.06,19.01-6.06c8.64,0,16.73,3.41,22.79,9.6  c6.09,6.22,9.44,14.47,9.44,23.25c0,8.91-3.36,17.17-9.46,23.27C441.91,440.19,433.81,443.65,425.24,443.65 M425.24,391.06  c-10.62,0-19.25,8.86-19.25,19.74c0,11.01,8.46,19.63,19.25,19.63c10.62,0,19.26-8.81,19.26-19.63  C444.5,399.91,435.87,391.06,425.24,391.06 M482.23,442.05h-13.34v-62.74h13.34V442.05z M475.56,370.18c-4.77,0-8.51-3.79-8.51-8.64  c0-4.85,3.65-8.51,8.51-8.51c4.84,0,8.64,3.74,8.64,8.51C484.2,366.3,480.32,370.18,475.56,370.18 M532.14,443.93l-2.96-0.57  c-19.66-3.8-26.97-13.23-26.97-34.76v-17.49h-7.95v-11.93h7.95v-12.89h13.46v12.89h16.48v11.93h-16.47v19.58  c0,11.75,4.42,17.62,14.33,19.03l2.14,0.3V443.93z"/>
<path id="XMLID_10_" class="st1" d="M355.14,159.16c-0.16,0-0.33,0-0.57-0.08h-0.25c-0.33-0.08-0.66-0.08-0.99-0.16  c-0.25,0-0.49,0-0.74,0c-0.41-0.08-0.82-0.08-1.23-0.08c-0.25,0-0.33,0-0.49,0c-0.33,0-0.66,0.08-0.99,0.08c-0.16,0-0.41,0-0.57,0  c-0.25,0.08-0.49,0.08-0.74,0.08l-0.25,0.08h-0.25l-0.25,0.08c-0.16,0-0.33,0-0.41,0.08c-0.16,0-0.33,0-0.49,0.08  c-1.07,0.25-2.05,0.49-2.96,0.9c-0.49,0.16-0.9,0.33-1.4,0.57c-0.33,0.16-0.66,0.33-0.99,0.49c-0.33,0.25-0.66,0.41-0.9,0.57  c-0.16,0.16-0.33,0.25-0.49,0.33c-0.16,0.08-0.33,0.25-0.41,0.33c-0.33,0.25-0.57,0.41-0.82,0.66c-0.25,0.25-0.49,0.41-0.66,0.66  c-0.25,0.16-0.41,0.41-0.57,0.57c-0.16,0.16-0.33,0.41-0.49,0.57c-0.25,0.25-0.41,0.49-0.57,0.74c-0.16,0.16-0.25,0.33-0.41,0.57  c-0.08,0.08-0.16,0.25-0.25,0.33c-0.41,0.82-0.82,1.64-1.15,2.46c-0.41,1.07-0.74,2.3-0.9,3.53c-0.08,0.33-0.08,0.74-0.08,1.15  c-0.08,0.33-0.08,0.66-0.08,0.99c0,0.25,0,0.41,0,0.66c0.08,0.25,0.08,0.49,0.08,0.74v0.16c0.08,0.33,0.08,0.57,0.16,0.82l0.08,0.33  c0,0.25,0.08,0.49,0.16,0.74s0.16,0.57,0.25,0.82c0.08,0.33,0.25,0.66,0.33,0.99c0.25,0.49,0.49,0.99,0.74,1.48  c0.16,0.25,0.33,0.57,0.49,0.82c0.08,0.16,0.25,0.41,0.33,0.57c0.16,0.25,0.41,0.49,0.57,0.74s0.41,0.41,0.57,0.66  c0.25,0.25,0.49,0.49,0.66,0.74l0.16,0.16c0.16,0.16,0.41,0.33,0.66,0.57c0.16,0.08,0.33,0.25,0.49,0.41  c0.16,0.16,0.33,0.25,0.57,0.41c0.16,0.16,0.41,0.33,0.66,0.49c0.33,0.16,0.57,0.33,0.9,0.49c0.57,0.33,1.23,0.66,1.89,0.9  c0.33,0.16,0.57,0.25,0.9,0.33c0.25,0.08,0.57,0.25,0.82,0.33c0.57,0.08,1.07,0.25,1.64,0.33c0.49,0.08,0.9,0.16,1.4,0.25  c0.49,0.08,0.99,0.08,1.56,0.16c0.25,0,0.49,0,0.74,0c0.16,0,0.25,0,0.41,0c0.9,0,1.81,0,2.63-0.08l0.08-0.08  c0.33,0,0.66,0,0.99-0.08c0.41,0,0.9-0.08,1.31-0.16c0.25-0.08,0.49-0.08,0.74-0.16c0.41-0.08,0.74-0.16,1.07-0.25  c0.33-0.08,0.57-0.16,0.82-0.25c0.25-0.08,0.49-0.16,0.82-0.25l0.25-0.08c0.08-0.08,0.25-0.08,0.49-0.16  c0.25-0.16,0.57-0.25,0.9-0.41c0.25-0.08,0.49-0.25,0.74-0.33c0.25-0.08,0.49-0.25,0.66-0.33l0.33-0.16v-5.66l-0.25,0.08l-0.33,0.25  c-0.41,0.25-0.82,0.49-1.15,0.66c-0.41,0.25-0.82,0.41-1.23,0.66c-0.74,0.33-1.4,0.57-2.05,0.82c-1.23,0.41-2.38,0.74-3.45,0.9  l-0.33,0.08c-0.25,0-0.49,0.08-0.82,0.08c-0.33,0.08-0.74,0.08-1.07,0.08c-0.25,0-0.41,0-0.57,0c-0.41,0-0.82,0-1.31,0  c-0.49-0.08-0.99-0.08-1.48-0.16c-0.82-0.16-1.64-0.41-2.46-0.66l-0.41-0.16l-0.25-0.08c-0.08-0.08-0.25-0.08-0.41-0.16  c-0.25-0.16-0.57-0.25-0.82-0.41c-0.08-0.08-0.25-0.16-0.41-0.25c-0.08-0.08-0.25-0.16-0.41-0.33c-0.16-0.08-0.33-0.16-0.49-0.33  c-0.16-0.08-0.33-0.25-0.41-0.33l-0.16-0.16l-0.16-0.16l0,0l-0.08-0.08c-0.25-0.25-0.49-0.49-0.74-0.74  c-0.08-0.16-0.16-0.33-0.33-0.49c-0.08-0.08-0.16-0.25-0.25-0.41c-0.08-0.16-0.16-0.25-0.25-0.41c-0.16-0.16-0.25-0.41-0.33-0.57  c-0.16-0.16-0.16-0.41-0.25-0.57c-0.16-0.25-0.25-0.57-0.33-0.82c-0.08-0.25-0.16-0.41-0.16-0.66c-0.16-0.57-0.25-1.15-0.33-1.56  c0-0.16,0-0.41,0-0.49c0-0.25,0-0.49,0-0.66c0-0.08,0-0.16,0-0.33c0-0.33,0-0.74,0.08-1.23c0.08-0.25,0.08-0.57,0.16-0.9  c0.08-0.25,0.16-0.41,0.25-0.66c0-0.16,0.08-0.41,0.16-0.66c0.08-0.08,0.16-0.25,0.16-0.41c0.08-0.16,0.25-0.33,0.33-0.57  c0.08-0.16,0.16-0.25,0.25-0.41c0.16-0.33,0.41-0.66,0.66-0.99l0.25-0.33c0.08-0.16,0.25-0.33,0.33-0.41l0.25-0.25  c1.07-1.07,2.22-1.81,3.45-2.38c0.16-0.08,0.41-0.16,0.57-0.25s0.41-0.16,0.57-0.25c0.25-0.08,0.41-0.08,0.66-0.16  c0.16-0.08,0.41-0.08,0.57-0.16c0.25-0.08,0.41-0.08,0.57-0.16c0.25,0,0.49-0.08,0.74-0.08c0.16,0,0.41,0,0.66-0.08  c0.41,0,0.82,0,1.23,0c0.08,0,0.25,0,0.33,0c0.33,0,0.66,0,0.9,0c0.16,0,0.41,0,0.57,0.08c0.33,0,0.66,0.08,0.99,0.08  c0.33,0.08,0.66,0.08,0.9,0.16c0.41,0.08,0.74,0.16,1.15,0.25c0.16,0.08,0.41,0.16,0.57,0.16c0.25,0.08,0.49,0.16,0.74,0.25  c0.25,0.08,0.49,0.16,0.49,0.16c0.25,0.08,0.49,0.25,0.82,0.33c0.33,0.16,0.66,0.33,0.99,0.49c0.33,0.08,0.57,0.25,0.82,0.33  c0.16,0.08,0.41,0.16,0.57,0.33c0.33,0.16,0.57,0.25,0.74,0.41l0.66,0.33v-5.66c0,0-0.41-0.08-0.99-0.33  c-0.25-0.08-0.57-0.25-0.99-0.33c-0.16-0.08-0.41-0.16-0.57-0.25c-0.25-0.08-0.41-0.16-0.57-0.16c-0.25-0.08-0.41-0.16-0.66-0.25  c-0.16-0.08-0.33-0.08-0.49-0.16h-0.16c-0.16-0.08-0.33-0.08-0.57-0.16c-0.16-0.08-0.33-0.08-0.57-0.16c-0.16,0-0.25-0.08-0.41-0.08  c-0.25-0.08-0.41-0.08-0.66-0.16C355.63,159.33,355.39,159.25,355.14,159.16L355.14,159.16z"/>
</svg>