<svg xmlns="http://www.w3.org/2000/svg" xmlns:xlink="http://www.w3.org/1999/xlink" version="1.1" id="Layer_1" x="0px" y="0px" viewBox="0 0 368 368" style="enable-background:new 0 0 368 368;" xml:space="preserve" width="368"  height="368" >
<style type="text/css">
	.st0{fill:#00979C;}
</style>
<g>
	<path class="st0" d="M70.04,227.4l-13.12,42.84h10.33l2.37-7.98h12.8l2.31,7.98h11.23L82.83,227.4H70.04L70.04,227.4z    M72.21,253.64l3.9-13.33l3.86,13.33H72.21L72.21,253.64z"/>
	<path class="st0" d="M120.63,250.7c-0.16-0.17-0.31-0.32-0.47-0.47c0.32-0.12,0.64-0.25,0.95-0.39c1.25-0.57,2.35-1.34,3.26-2.28   c0.92-0.95,1.64-2.09,2.15-3.39c0.5-1.29,0.75-2.77,0.75-4.39c0-2.24-0.4-4.18-1.2-5.77c-0.81-1.6-1.97-2.92-3.46-3.92   c-1.45-0.97-3.21-1.67-5.23-2.08c-1.95-0.4-4.14-0.6-6.51-0.6h-13.4v42.84h10.28V253.5h0.3c1.12,0,2.06,0.25,2.86,0.76   c0.8,0.51,1.41,1.25,1.87,2.28l6.21,13.7h11.96l-7.55-15.28C122.48,253.1,121.57,251.71,120.63,250.7L120.63,250.7z M116.16,242.48   c-0.3,0.57-0.71,1.03-1.26,1.42c-0.58,0.41-1.3,0.72-2.15,0.93c-0.89,0.22-1.91,0.33-3.02,0.33h-2v-9.02h2.26   c2.35,0,4.1,0.37,5.19,1.1c0.95,0.63,1.42,1.71,1.42,3.27C116.6,241.27,116.46,241.91,116.16,242.48L116.16,242.48z"/>
	<path class="st0" d="M161.04,232.49c-1.73-1.74-3.91-3.04-6.49-3.87c-2.51-0.81-5.46-1.22-8.77-1.22h-13.59v42.84h11.83   c3.82,0,7.16-0.52,9.92-1.54c2.81-1.04,5.16-2.55,6.97-4.48c1.81-1.93,3.17-4.29,4.02-7.01c0.83-2.66,1.26-5.66,1.26-8.9   c0-3.54-0.42-6.64-1.26-9.22C164.08,236.45,162.77,234.23,161.04,232.49L161.04,232.49z M152.64,258.52   c-1.78,1.98-4.37,2.95-7.91,2.95h-2.26v-25.3h2.8c1.98,0,3.64,0.28,4.94,0.83c1.26,0.53,2.23,1.29,2.98,2.31   c0.76,1.04,1.31,2.35,1.64,3.89c0.34,1.63,0.52,3.51,0.52,5.6C155.34,253.26,154.43,256.53,152.64,258.52L152.64,258.52z"/>
	<path class="st0" d="M190.94,254.65c0,1.48-0.14,2.74-0.41,3.74c-0.25,0.94-0.62,1.71-1.11,2.28c-0.46,0.55-1.03,0.94-1.73,1.19   c-0.76,0.27-1.73,0.41-2.89,0.41c-1.23,0-2.24-0.16-3.01-0.47c-0.74-0.3-1.33-0.73-1.82-1.31c-0.49-0.58-0.83-1.32-1.04-2.18   c-0.22-0.96-0.34-2.08-0.34-3.35V227.4h-10.27v28.03c0,2.32,0.29,4.44,0.85,6.32c0.59,1.95,1.55,3.63,2.88,5.01   c1.32,1.37,3.06,2.43,5.15,3.15c2.03,0.7,4.49,1.06,7.3,1.06c2.51,0,4.82-0.35,6.86-1.06c2.08-0.71,3.87-1.79,5.33-3.21   c1.46-1.42,2.59-3.21,3.36-5.32c0.76-2.07,1.15-4.49,1.15-7.21V227.4h-10.27V254.65"/>
	<path class="st0" d="M206.47,236.02h9.22v25.54h-9.22v8.68h28.84v-8.68h-9.22v-25.54h9.22v-8.62h-28.84V236.02"/>
	<path class="st0" d="M263.9,251.81l-11.49-24.41h-11.63v42.84h9.57v-24.88l11.55,24.88h11.57V227.4h-9.57V251.81"/>
	<path class="st0" d="M306.74,232.47c-3-3.82-7.5-5.75-13.36-5.75c-2.51,0-4.9,0.45-7.12,1.32c-2.24,0.89-4.22,2.27-5.89,4.12   c-1.65,1.83-2.96,4.18-3.9,6.99c-0.92,2.77-1.39,6.09-1.39,9.88c0,6.99,1.49,12.43,4.42,16.17c3,3.83,7.5,5.77,13.36,5.77   c2.51,0,4.91-0.45,7.12-1.32c2.24-0.89,4.23-2.27,5.89-4.12c1.65-1.83,2.96-4.18,3.9-6.99c0.92-2.77,1.39-6.09,1.39-9.88   C311.16,241.64,309.67,236.2,306.74,232.47L306.74,232.47z M299.98,254.73c-0.29,1.58-0.75,2.91-1.36,3.96   c-0.58,1-1.3,1.73-2.19,2.24c-0.89,0.5-2,0.76-3.3,0.76c-2.57,0-4.36-0.96-5.47-2.92c-1.22-2.16-1.85-5.56-1.85-10.12   c0-2.14,0.15-4.06,0.46-5.71c0.29-1.58,0.76-2.91,1.38-3.96c0.59-1,1.31-1.74,2.2-2.24c0.88-0.5,1.98-0.76,3.28-0.76   c2.59,0,4.38,0.95,5.49,2.92c1.21,2.16,1.83,5.57,1.83,10.12C300.43,251.17,300.28,253.09,299.98,254.73L299.98,254.73z"/>
	<path class="st0" d="M296.32,102.74h1.82v4.79h1.29v-4.79h1.84v-1.19h-4.95V102.74"/>
	<path class="st0" d="M305.77,101.55l-1.25,4.08l-1.29-4.08h-1.69v5.98h1.22v-3.82l1.21,3.82h1.11l1.14-3.72v3.72h1.21v-5.98H305.77   "/>
	<path class="st0" d="M246.27,217.33c-16.29,0-30.21-5.49-42.47-16.73c-7.57-6.94-13.81-15.44-19.56-24.27   c-5.74,8.84-11.98,17.34-19.55,24.27c-13.17,12.07-28.27,17.51-46.15,16.63c-34.1-0.15-61.8-27.06-61.8-60.12   C56.75,123.97,84.6,97,118.83,97c18.73,0,34.5,6.2,48.21,18.95c6.58,6.12,12.14,13.23,17.21,20.66   c5.07-7.43,10.63-14.54,17.21-20.66C215.17,103.2,230.94,97,249.67,97c34.23,0,62.08,26.97,62.08,60.12   c0,33.06-27.7,59.97-61.8,60.12C248.71,217.3,247.49,217.33,246.27,217.33L246.27,217.33z M196.72,156.32   c6.79,11.02,13.39,21.28,21.42,28.64c9.07,8.31,18.62,11.73,30.98,11.07l0.56-0.01c22.53,0,40.86-17.45,40.86-38.9   c0-21.45-18.33-38.9-40.86-38.9c-13.3,0-24.03,4.22-33.76,13.27C208.65,138.25,202.65,146.91,196.72,156.32L196.72,156.32z    M118.83,118.22c-22.53,0-40.86,17.45-40.86,38.9c0,21.45,18.33,38.9,40.86,38.9l0.56,0.01c12.35,0.65,21.91-2.76,30.97-11.07   c8.03-7.36,14.63-17.62,21.42-28.64c-5.93-9.41-11.93-18.07-19.19-24.83C142.86,122.43,132.13,118.22,118.83,118.22L118.83,118.22z   "/>
	<path class="st0" d="M252.48,149.41V137.9H240.5v11.51H229v11.92h11.51v11.59h11.98v-11.59h11.51v-11.92H252.48"/>
	<path class="st0" d="M101.6,149.26h37.82v12.29H101.6V149.26z"/>
</g>
</svg>