<svg xmlns="http://www.w3.org/2000/svg" xmlns:xlink="http://www.w3.org/1999/xlink" width="80" height="50" viewBox="0 0 80 50" version="1.1">
    <title>B13C50E9-3F75-402D-8796-BF8C4AAC13DB</title>
    <g id="ana-sayfa-1440px" stroke="none" stroke-width="1" fill="none" fill-rule="evenodd">
        <g id="ana-sayfa-1440px-(Bu-sayfa-ölçüsü-örnek-verdiğiniz-site-baz-alınarak-belirlenmiştir.)-market.samm" transform="translate(-870.000000, -6512.000000)">
            <g id="footer" transform="translate(0.000000, 5860.000000)">
                <g id="Group-10" transform="translate(870.000000, 652.000000)">
                    <rect id="Rectangle-Copy-9" fill="#FFFFFF" x="0" y="0" width="80" height="50" rx="3"/>
                    <g id="world" transform="translate(8.000000, 20.000000)" fill="#782B8F" fill-rule="nonzero">
                        <path d="M33.5740413,4.65994962 L33.5740413,2.92821159 C33.5720289,2.90442012 33.5813138,2.88107162 33.5990831,2.86523929 C33.6145213,2.84977367 33.6352157,2.8407722 33.6569924,2.84005038 C34.1265271,2.84005038 34.6070177,2.822733 35.0812477,2.822733 C35.5147848,2.822733 35.9764939,2.83375315 36.4022054,2.84634761 C36.9828633,2.86209068 37.2598888,3.125 37.2598888,3.68860202 C37.2598888,4.40333753 36.9812982,4.71190176 36.3755984,4.72921914 C35.949887,4.7418136 35.5147848,4.74653652 35.0812477,4.74653652 C34.6007572,4.74653652 34.1265271,4.74653652 33.6538622,4.73551637 C33.5756064,4.68986146 33.5740413,4.65994962 33.5740413,4.65994962 Z M41.8362872,9.47732997 C40.8223051,8.45643802 39.7465866,7.49953545 38.615279,6.61209068 L38.4587675,6.48929471 C38.5229372,6.48929471 38.587107,6.47040302 38.6497116,6.45938287 C40.3118645,6.15396725 41.2055456,4.60012594 41.2055456,3.37531486 C41.2055456,2.03243073 40.8831317,0.80604534 39.2162835,0.314861461 C37.7450747,-0.125944584 29.9429728,0.125944584 29.9429728,0.125944584 C29.8561526,0.134598685 29.78918,0.206680276 29.7864612,0.294395466 L29.7864612,9.60327456 C29.78732,9.69743096 29.8634482,9.77330371 29.9570588,9.77329975 L33.4097041,9.77329975 C33.5015815,9.77157622 33.5749161,9.69570334 33.5740413,9.60327456 L33.5740413,6.5947733 C33.5753638,6.56467516 33.5911171,6.53709182 33.6162994,6.52078086 C33.6503543,6.50078841 33.6935595,6.50662618 33.7211622,6.53494962 C33.7336831,6.54439547 36.1345706,8.61303526 37.1049424,9.72292191 C37.1346122,9.75689299 37.1773717,9.7763911 37.222326,9.77651877 L41.7173384,9.77651877 C41.7888473,9.77850215 41.8540349,9.73546067 41.8806034,9.66864923 C41.907172,9.60183779 41.8894776,9.52544882 41.8362872,9.47732997 L41.8362872,9.47732997 Z M28.5766268,4.99370277 C28.5766268,6.91278338 28.2636036,8.7925063 26.5498019,9.47732997 C25.7484626,9.79219144 24.3461189,10 22.4257219,10 C20.5053249,10 19.0888952,9.79848866 18.287556,9.47732997 C16.5800147,8.7925063 16.2529055,6.91278338 16.2529055,4.99370277 C16.2529055,3.07462217 16.5659287,1.21536524 18.287556,0.524244332 C19.0888952,0.201511335 20.5068901,0 22.4257219,0 C24.3445538,0 25.7484626,0.201511335 26.5498019,0.524244332 C28.2573432,1.2074937 28.5766268,3.07462217 28.5766268,4.99370277 Z M24.4932398,5.05982368 C24.4932398,3.59729219 24.1598702,3.11397985 22.4382429,3.11397985 C20.7166156,3.11397985 20.3691599,3.59729219 20.3691599,5.05982368 C20.3691599,6.52235516 20.7166156,7.00724181 22.4382429,7.00724181 C24.1598702,7.00724181 24.4932398,6.52392947 24.4932398,5.05982368 Z M57.2745595,6.53337531 L57.2745595,3.54219144 C57.2734331,3.49690211 57.3065911,3.45810403 57.3512794,3.45245592 C57.805163,3.41624685 58.4562511,3.39263224 59.0478649,3.39263224 C60.8774852,3.39263224 61.01052,3.75472292 61.01052,5.05667506 C61.01052,6.3586272 60.8774852,6.72229219 59.0478649,6.72229219 C58.4343395,6.72229219 57.4107538,6.66404282 57.4107538,6.66404282 C57.2871097,6.66089421 57.2745595,6.61209068 57.2745595,6.53337531 Z M65,5.00629723 C65,3.08721662 64.6650652,1.33973552 62.9653496,0.617128463 C61.8415965,0.135390428 59.900853,0.0834382872 58.9163952,0.0991813602 C55.6077405,0.152707809 53.6654319,0.351070529 53.6654319,0.351070529 C53.5745342,0.357789128 53.5052996,0.435787243 53.5089203,0.527392947 L53.5089203,9.48520151 C53.5108524,9.56547176 53.5660017,9.63449068 53.6435203,9.65365239 C55.395278,9.8352909 57.155363,9.92357551 58.9163952,9.91813602 C59.9024181,9.91813602 61.984022,9.7843199 62.97161,9.38129723 C64.6807164,8.69804786 65,6.92695214 65,5.00629723 L65,5.00629723 Z M42.8739515,0.390428212 C42.8730845,0.294521947 42.9492216,0.215829874 43.0445566,0.214105793 L46.4878112,0.214105793 C46.5344398,0.214511172 46.5789489,0.233754533 46.6113275,0.267507676 C46.6437062,0.301260819 46.6612359,0.34668982 46.6599739,0.393576826 L46.6599739,6.41687657 C46.6624934,6.46258886 46.7005492,6.49808427 46.7460553,6.49716625 L52.3804719,6.49716625 C52.4266855,6.49757151 52.4707966,6.51664901 52.5028818,6.55010696 C52.5349669,6.58356491 52.5523317,6.62859354 52.5511338,6.67506297 L52.5511338,9.60327456 C52.5506563,9.64878618 52.5322852,9.69226844 52.499998,9.72415476 C52.4677108,9.75604108 52.4241526,9.7737192 52.3789068,9.77330705 L43.0445566,9.77330705 C42.9513123,9.77074084 42.8770545,9.69395273 42.8770892,9.60012594 L42.8739515,0.390428212 Z M15.7332871,0.214105793 C15.7858731,0.216277544 15.8345188,0.242742067 15.8651096,0.285820654 C15.8957004,0.328899242 15.9048112,0.38376878 15.8897987,0.434508816 L13.4638693,9.63790932 C13.4401714,9.71539739 13.3706546,9.76957357 13.2901414,9.77335033 L9.24744751,9.77335033 C9.16861984,9.76963096 9.10136046,9.71474156 9.08154525,9.63790932 L8.02822236,5.3872796 C7.99692005,5.26133501 7.93118519,5.25976071 7.89831776,5.3872796 L6.8778623,9.63790932 C6.85995556,9.71858704 6.78785713,9.77528594 6.70569957,9.77335033 L2.60040101,9.77335033 C2.51903587,9.77293489 2.44822209,9.71724626 2.42823828,9.63790932 L0.00387402002,0.421914358 C-0.00731581002,0.369991001 0.00603605334,0.315782395 0.0400304246,0.275119245 C0.0740247959,0.234456095 0.124827278,0.211925003 0.177601866,0.214105793 L4.18742836,0.214105793 C4.27225696,0.212658003 4.34450295,0.275820017 4.35489575,0.360516373 L5.20005824,4.88822418 C5.22196986,5.00472292 5.31744192,5.00472292 5.33935354,4.88822418 L6.2408602,0.357367758 C6.25536738,0.274146628 6.3274618,0.21360423 6.41145781,0.214105793 L9.55107996,0.214105793 C9.63206196,0.214822322 9.70138273,0.272709609 9.71698223,0.352644836 L10.5715354,4.88979849 C10.593447,5.00472292 10.6779633,5.00472292 10.6998749,4.88979849 L11.6185978,0.351070529 C11.6362513,0.273268705 11.703654,0.217092769 11.782935,0.214105793 L15.7332871,0.214105793 Z" id="Shape"/>
                    </g>
                </g>
            </g>
        </g>
    </g>
</svg>