<svg xmlns="http://www.w3.org/2000/svg" xmlns:xlink="http://www.w3.org/1999/xlink" version="1.1" id="Layer_1" x="0px" y="0px" viewBox="0 0 500 500" style="enable-background:new 0 0 500 500;" xml:space="preserve" width="500"  height="500" >
<style type="text/css">
	.st0{fill-rule:evenodd;clip-rule:evenodd;fill:#2F2A27;}
	.st1{fill-rule:evenodd;clip-rule:evenodd;fill:#FFCB00;}
</style>
<g>
	<path class="st0" d="M98.1,276.6c2.3,0,4.1-1.8,4.1-4.1v-44.4c0.1-1.9-1.1-3.6-2.9-4.2c-1.7-0.8-3.8-0.4-5,1l-35.6,36.6   c-0.5,0.5-1.2,0.5-1.7,0l-35.6-36.6c-1.3-1.4-3.3-1.9-5-1c-1.8,0.6-2.9,2.3-2.9,4.2v44.4c0,1.1,0.4,2.1,1.2,2.9   c0.8,0.8,1.8,1.2,2.9,1.2h1c2.3,0,4.1-1.8,4.1-4.1v-28.7c0-0.7,0.4-1.4,1.1-1.7c0.7-0.3,1.5-0.1,2,0.4l28.8,29.6   c0.9,0.9,2.1,1.4,3.3,1.4c1.2,0,2.4-0.5,3.3-1.4l28.8-29.6c0.5-0.5,1.3-0.7,2-0.4c0.7,0.3,1.1,0.9,1.1,1.7v28.7   c0,1.1,0.4,2.1,1.2,2.9c0.8,0.8,1.8,1.2,2.9,1.2H98.1z M382,265.9c1-1,1.5-2.3,1.5-3.7v-24.4c0-1.4-0.5-2.7-1.5-3.7   c-1-1-2.3-1.5-3.7-1.5h-56.1c-1.4,0-2.6,0.4-3.6,1.4c-1,1-1.6,2.4-1.6,3.8v24.4c0,1.4,0.5,2.7,1.5,3.7c1,1,2.3,1.5,3.7,1.5h56.1   C379.7,267.4,381,266.9,382,265.9 M392.6,262.2c0,3.8-1.5,7.5-4.2,10.2c-2.7,2.7-6.3,4.3-10.2,4.2h-56.1c-3.8,0.1-7.5-1.5-10.2-4.2   c-2.7-2.7-4.3-6.3-4.2-10.2v-24.4c0-3.8,1.5-7.5,4.2-10.1c2.7-2.8,6.3-4.3,10.2-4.2h56.1c3.8-0.1,7.5,1.5,10.2,4.2   c2.7,2.7,4.2,6.3,4.2,10.1V262.2z M118.5,227.6c0-1.1-0.4-2.1-1.2-2.9c-0.8-0.8-1.8-1.2-2.9-1.2h-1c-1.1,0-2.1,0.4-2.9,1.2   c-0.8,0.8-1.2,1.8-1.2,2.9v44.9c0,1.1,0.4,2.1,1.2,2.9c0.8,0.8,1.8,1.2,2.9,1.2h1c2.3,0,4.1-1.8,4.1-4.1V227.6z M204.3,268.3   l-22.3-18.7c-1.1-0.9-1.6-2.3-1.5-3.7c0.2-1.4,1-2.6,2.3-3.2l20.7-9.9c1-0.5,1.7-1.3,2.1-2.3c0.4-1,0.3-2.2-0.2-3.1l-0.4-0.9   c-1-2-3.4-2.9-5.4-1.9l-59,28.2c-1.3,0.6-2.8,0.5-3.9-0.2c-1.2-0.7-1.9-2.1-1.9-3.5v-21.6c0-1.1-0.4-2.1-1.2-2.9   c-0.8-0.8-1.8-1.2-2.9-1.2h-1c-1.1,0-2.1,0.4-2.9,1.2c-0.8,0.8-1.2,1.8-1.2,2.9v44.9c0,1.1,0.4,2.1,1.2,2.9   c0.8,0.8,1.8,1.2,2.9,1.2h1c2.3,0,4.1-1.8,4.1-4.1v-4.1c0-1.6,0.9-3,2.3-3.7l28.5-13.7c1.4-0.7,3.1-0.5,4.4,0.5l28.5,23.9   c2.5,2.1,5.6,0.6,6.6-1.1C206.2,272.7,206.4,270.1,204.3,268.3 M282.5,250.5h-54.7c-1.1,0-2.1-0.4-2.9-1.2   c-0.8-0.8-1.2-1.8-1.2-2.9v-11.7c0-0.1,0-0.3,0-0.4l0-0.1l0.2-0.7c0.4-0.7,1.2-1,1.9-0.9h56.4c0.1,0,0.3,0,0.4,0l0.3,0   c0.4,0,0.8,0.1,1.2,0.1l0.6,0.1l1.8,0.5l1.2,0.6l1.8,1.5l1.2,2l0.5,1.9l0.2,2.2c-0.1,1.9-0.4,3.6-1.4,5.2l-1.5,1.8l-2,1.2l-1.9,0.5   L282.5,250.5z M298.5,268.3l-6.1-5.6c-0.8-0.9-1.2-2-1.1-3.2c0.1-1.2,0.7-2.2,1.7-2.9c1.3-1,2-1.6,3.4-3.3   c2.7-3.3,4.1-7.5,4.1-11.8l-0.2-3.2l-0.7-3l-1.1-2.7c-1-1.9-2.4-3.6-4.4-5.2c-3.4-2.6-7.5-4.1-11.8-4.1h-56.6   c-2.7,0-5.3,0.9-7.4,2.6c-2.6,2.1-4.1,5.4-4,8.8v37.7c0,1.1,0.4,2.1,1.2,2.9c0.8,0.8,1.8,1.2,2.9,1.2h1c2.3,0,4.1-1.8,4.1-4.1v-8.7   c0-1.1,0.4-2.1,1.2-2.9c0.8-0.8,1.8-1.2,2.9-1.2h47.4c1.1,0,2.2,0.5,3,1.3l1.6,1.7l12.5,12.3c2.8,2.5,5.4,1.2,6.6,0.1   C300,273.9,301.2,270.8,298.5,268.3"/>
	<path class="st1" d="M486.5,272.5v-1c0-1.1-0.4-2.1-1.2-2.9c-0.8-0.8-1.8-1.2-2.9-1.2h-68.5c-1.4,0-2.7-0.5-3.7-1.5   c-1-1-1.5-2.3-1.5-3.7V259c0-1.1,0.4-2.1,1.2-2.9c0.8-0.8,1.8-1.2,2.9-1.2h69.6c2.3,0,4.1-1.8,4.1-4.1v-1c0-1.1-0.4-2.1-1.2-2.9   c-0.8-0.8-1.8-1.2-2.9-1.2h-69.6c-1.1,0-2.1-0.4-2.9-1.2c-0.8-0.8-1.2-1.8-1.2-2.9v-3.9c0-1.4,0.5-2.7,1.5-3.7c1-1,2.3-1.5,3.7-1.5   h68.5c2.3,0,4.1-1.8,4.1-4.1v-1c0-1.1-0.4-2.1-1.2-2.9c-0.8-0.8-1.8-1.2-2.9-1.2h-68.5c-3.8,0-7.5,1.5-10.2,4.2   c-2.7,2.7-4.2,6.3-4.2,10.1v24.4c-0.1,3.8,1.5,7.5,4.2,10.1c2.7,2.7,6.3,4.3,10.2,4.2h68.5C484.7,276.6,486.5,274.7,486.5,272.5"/>
</g>
</svg>