<svg xmlns="http://www.w3.org/2000/svg" xmlns:xlink="http://www.w3.org/1999/xlink" version="1.1" id="Layer_1" x="0px" y="0px" viewBox="0 0 28.3 28.3" style="enable-background:new 0 0 28.3 28.3;" xml:space="preserve" width="30"  height="30" >
<style type="text/css">
	.st0{fill-rule:evenodd;clip-rule:evenodd;fill:#CE132E;}
</style>
<path class="st0" d="M4.6,3.7h2.8c0.4,0,0.8,0.2,0.8,0.6l3.1,11.6h9.1l2.2-6.8h-9.7c-0.5,0-0.9-0.4-0.9-0.9c0-0.5,0.4-0.9,0.9-0.9  h10.9c0.7,0,1,0.7,0.8,1.2l-2.8,8.6c-0.1,0.4-0.5,0.6-0.8,0.6H10.7c-0.4,0-0.8-0.3-0.9-0.6L6.7,5.5H4.6c-0.5,0-0.9-0.4-0.9-0.9  C3.7,4.1,4.1,3.7,4.6,3.7z M15.7,21.7c0-1.7-1.3-3-3-3s-3,1.3-3,3s1.3,3,3,3C14.3,24.7,15.7,23.3,15.7,21.7z M13.9,21.6  c0,0.7-0.6,1.3-1.3,1.3c-0.7,0-1.3-0.6-1.3-1.3c0-0.7,0.5-1.3,1.3-1.3S13.9,21,13.9,21.6z M19.7,18.7c1.7,0,3,1.3,3,3s-1.3,3-3,3  s-3-1.3-3-3S18,18.7,19.7,18.7z M19.7,22.9c0.7,0,1.3-0.6,1.3-1.3c0-0.7-0.5-1.3-1.3-1.3c-0.7,0-1.3,0.6-1.3,1.3  C18.4,22.3,19,22.9,19.7,22.9z"/>
</svg>