<svg xmlns="http://www.w3.org/2000/svg" xmlns:xlink="http://www.w3.org/1999/xlink" width="80" height="50" viewBox="0 0 80 50" version="1.1">
    <title>55572E84-A433-46EF-816B-C64526FA3010</title>
    <g id="ana-sayfa-1440px" stroke="none" stroke-width="1" fill="none" fill-rule="evenodd">
        <g id="ana-sayfa-1440px-(Bu-sayfa-ölçüsü-örnek-verdiğiniz-site-baz-alınarak-belirlenmiştir.)-market.samm" transform="translate(-470.000000, -6512.000000)">
            <g id="footer" transform="translate(0.000000, 5860.000000)">
                <g id="Group-6" transform="translate(470.000000, 652.000000)">
                    <rect id="Rectangle-Copy-5" fill="#FFFFFF" x="0" y="0" width="80" height="50" rx="3"/>
                    <g id="master" transform="translate(15.000000, 11.000000)" fill-rule="nonzero">
                        <path d="M0.00626779222,14.1167345 C0.255672684,6.34438627 7.2200332,0 15.5642534,0 C23.9084736,0 30.3686025,6.34438627 29.9836514,14.1167345 C29.6095441,21.8103549 22.66416,28 14.4419314,28 C6.21970271,28 -0.229582486,21.8049253 0.00626779222,14.1167345 Z" id="Path" fill="#E1001A"/>
                        <path d="M20.8650089,15.21875 L19,15.21875 L19.2238011,14.78125 L21,14.78125 C20.8971994,14.9183393 20.8450302,15.0677571 20.8472469,15.21875 L20.8650089,15.21875 Z" id="Path" fill="#F9BA00"/>
                        <path d="M25.2846889,3.54559355 C28.2096109,1.23556853 31.8416656,-0.0151752956 35.5803904,0 C44.0041461,0 50.4464856,6.3472085 49.9757624,14.1168034 C49.507776,21.8103856 42.414087,28 34.1244326,28 C30.2929647,28 26.863801,26.7159265 24.3104013,24.5495614 L24.3104013,24.5495614 C24.5840776,24.3242378 24.8577539,24.0907698 25.1314302,23.8491577 L23.5961063,23.8491577 C23.3552711,23.5994013 23.2211698,23.4609494 23.103489,23.3224975 L25.7006768,23.3224975 C26.0455089,22.9587219 26.4122351,22.5705137 26.7187526,22.1768759 L22.1675161,22.1768759 C22.0443618,21.9977029 21.9102604,21.8131003 21.7953164,21.6339273 L27.1593714,21.6339273 C27.4330476,21.2647222 27.7067239,20.8737992 27.9338752,20.4828762 L21.130283,20.4828762 C21.0427066,20.3091326 20.9496567,20.1299596 20.8702906,19.9399275 L28.2403927,19.9399275 C28.4374396,19.5625782 28.6317497,19.2015174 28.7877452,18.8078796 L20.4105144,18.8078796 C20.3503056,18.6259918 20.2846233,18.4413893 20.2298881,18.264931 L29.0367906,18.264931 C29.1763655,17.8902964 29.3104669,17.5210914 29.4199374,17.1328831 L27.0471641,17.1328831 L27.1675817,16.5899345 L29.5567755,16.5899345 C29.6470887,16.2071557 29.7182445,15.8433801 29.7757166,15.4524571 L27.4604153,15.4524571 L27.624621,14.9095084 L29.8468724,14.9095084 C29.87424,14.6380341 29.9016076,14.385563 29.9125547,14.1222329 C29.9448734,13.4339751 29.9247466,12.744279 29.8523459,12.0590281 L20,12.0590281 C20.0328412,11.8825698 20.057472,11.7088263 20.0985235,11.5323679 L29.7784533,11.5323679 C29.7209813,11.130586 29.6607725,10.7505219 29.5677226,10.3623136 L20.4324085,10.3623136 C20.4926173,10.1804259 20.5829305,10.0012528 20.6486128,9.81936501 L29.4062536,9.81936501 C29.2940463,9.42301251 29.1489979,9.04294847 29.0012127,8.66288442 L21.1494404,8.66288442 C21.2370168,8.47828189 21.3574343,8.29367935 21.453221,8.11993579 L28.7521673,8.11993579 C28.5711874,7.72465235 28.3702365,7.33866911 28.1500795,6.9634552 L22.156569,6.9634552 C22.2742498,6.78156741 22.4302453,6.60239436 22.5506629,6.42050657 L27.8107209,6.42050657 C27.5451178,6.00994108 27.257338,5.61391587 26.9486406,5.2341638 L23.5085298,5.2341638 C23.6699989,5.04684652 23.8916766,4.86767348 24.0558824,4.69121517 L26.4697071,4.69121517 C26.0954464,4.28777365 25.6979506,3.9061661 25.2792154,3.5483083 L25.2846889,3.54559355 Z" id="Path" fill="#F9BA00"/>
                        <path d="M26,18 L27.2219959,13.0045907 L28.479294,13.0045907 L28.5879158,13.4994835 C28.9717087,13.1472294 29.4819263,12.9684136 30,13.0045907 L29.5437882,14.3088109 C29.1880516,14.3088109 28.5173116,14.221316 28.0149355,15.7169312 L27.4718262,18 L26,18 Z" id="Path" fill="#FFFFFF"/>
                        <path d="M19.1970411,11 L20.5878951,11 L20.2479086,12.4763333 L21,12.4763333 L20.7063753,13.6815034 L19.9877673,13.6815034 L19.5138467,15.9291456 C19.4288501,16.356981 19.4494553,16.7426354 20.2530599,16.6070538 L20.1242771,17.7308749 C19.8050822,17.9184966 19.4511038,18.0106279 19.0940148,17.9990252 C18.7746335,17.9990252 17.7340687,17.7881205 18.0637526,16.2786449 L19.1970411,11 Z" id="Path" fill="#FFFFFF"/>
                        <path d="M25.8205577,15.7806789 C26.0304544,14.9715579 26.5248165,13 23.9093926,13 C21.5038656,13 21.1006429,15.1738382 21.0288361,15.4866983 C20.9570293,15.7995583 20.8217012,17.9976701 23.3929362,17.9976701 C24.0198646,18.0138526 24.9367819,17.9464258 25.306863,17.7738134 L25.5830429,16.7516239 C25.0260979,16.8313663 24.4640055,16.8719268 23.9011073,16.8729921 C23.3100822,16.8729921 22.3572615,16.908054 22.5782054,15.7941642 L25.8205577,15.7806789 Z" id="Path" fill="#FFFFFF"/>
                        <path d="M22,15 L23.9591336,15 C24.0879855,14.4621426 23.9239922,14.0019757 23.2973037,14.0019757 C22.6842413,13.9674394 22.1361446,14.3890938 22,15 L22,15 Z" id="Path" fill="#E1001A"/>
                        <path d="M17.6620398,14.2031484 L18,13.2020796 C17.5901748,13.0439442 17.1561276,12.9775303 16.7229934,13.0066838 C16.5395293,13.0066838 14.9776705,12.9879473 14.6952323,14.1790586 C14.4803862,15.0944744 14.7893784,15.4718827 15.0935425,15.6110688 C15.5763428,15.8332311 15.8611949,16.0420101 16.1219071,16.1785195 C16.2746467,16.2625597 16.3512233,16.4557865 16.3037537,16.6373757 C16.256284,16.8189648 16.0983835,16.9368324 15.928787,16.9172762 C15.7284249,16.9172762 14.8593844,17.0216657 14.2196741,16.7968267 L14,17.8246621 C14.4982783,17.9588122 15.0108114,18.0164527 15.5232348,17.995968 C15.8394689,17.995968 17.3844297,18.0816209 17.6547978,16.6041076 C17.7875679,15.8814109 17.4954737,15.554859 17.2516596,15.399613 C16.9586699,15.1986755 16.653817,15.0198278 16.3391672,14.8642821 C16.076041,14.7465093 15.8925769,14.2807714 16.3826192,14.1415854 C16.8098999,14.0968271 17.2407617,14.1202635 17.6620398,14.2111784 L17.6620398,14.2031484 Z" id="Path" fill="#FFFFFF"/>
                        <polygon id="Path" fill="#FFFFFF" points="7.60801051 18 9 12 6.67564018 12 4.82665791 15.6479569 4.67695338 12 2.40774787 12 1 18 2.41300066 18 3.42416284 13.6704086 3.66053841 18 5 18 7.12212738 13.7727885 6.14248194 18 7.60801051 18"/>
                        <path d="M10.0641263,13.1741116 L9.79654405,14.2455676 C10.3927793,14.1621371 10.992999,14.1102779 11.594697,14.0902065 C12.0924,14.108957 12.651647,14.0393123 12.4536361,14.7812956 C12.0843725,14.8161179 9.51023101,14.4357511 9.02858291,16.5036611 C8.82522037,17.5188657 9.74837924,18.0331646 10.4869063,17.9983423 C11.2254334,17.96352 11.4314718,17.8778035 11.6963782,17.7063705 L11.8703067,17.9742345 L13.2082181,17.9742345 L13.8852013,15.2955945 C14.0591298,14.6232559 14.3641736,13 11.9425539,13 C11.3072138,13.0004174 10.6731873,13.0577909 10.0480714,13.171433 L10.0641263,13.1741116 Z" id="Path" fill="#FFFFFF"/>
                        <path d="M12,16.0513053 C11.7162916,16.0226521 11.08512,15.9102435 10.5208908,16.1504894 C9.95666166,16.3907353 9.78133622,16.8117166 10.3455654,16.9571866 C10.9097945,17.1026566 11.7131038,16.8602066 11.843801,16.4899194 L12,16.0491012 L12,16.0513053 Z" id="Path" fill="#E1001A"/>
                        <path d="M39,18 L40.2508406,13.0047685 L41.4936113,13.0047685 L41.5985205,13.4996437 C41.9793616,13.1466914 42.485894,12.9678302 43,13.0047685 L42.5561533,14.3280811 C42.203766,14.3280811 41.5205111,14.2214505 41.0147949,15.7170124 L40.4445192,18 L39,18 Z" id="Path" fill="#FFFFFF"/>
                        <path d="M33.9436438,12.8717913 C33.5846526,12.6595322 33.1719571,12.5655303 32.760294,12.6022534 C31.7786555,12.6884339 30.968458,13.4340947 30.7688029,14.4351114 C30.4340015,16.0343699 31.5307647,16.8310043 33.1499336,16.3039079 L33.5395732,17.6486028 C32.9361243,17.9053959 32.286338,18.0238998 31.6346686,17.9960072 C30.0241584,17.9960072 28.3357203,16.6123791 29.2650828,13.8031947 C29.789816,12.1653164 31.2475325,11.0443472 32.9103774,11 C34.1860862,11.0479179 34.6219053,11.4642042 35,11.8984598 L33.9436438,12.8717913 Z" id="Path" fill="#FFFFFF"/>
                        <path d="M46.0298136,13.1212121 C45.7681687,12.9090909 45.6294968,12.4639351 44.9596858,12.4639351 C44.174751,12.4639351 42.9790336,12.3115664 42.1679343,14.8151942 C41.6263293,16.4822877 42.4819082,18 43.4918577,18 C43.9332078,17.9709106 44.361648,17.8191192 44.7399041,17.5578318 L44.896891,18 L46.4118152,18 L48,11 L46.5164732,11 L46.0298136,13.1212121 Z" id="Path" fill="#FFFFFF"/>
                        <path d="M45.892039,15.7740013 C46.0604746,15.2250958 46.0157339,14.5381421 45.8683527,14.2949145 C45.4630545,13.6145345 44.4366498,14.1535795 44.0708287,15.478184 C43.8313343,16.3426281 44.2366325,17 44.7261486,17 C45.2156646,17 45.6025402,16.5135448 45.892039,15.7740013 L45.892039,15.7740013 Z" id="Path" fill="#F9BA00"/>
                        <path d="M35.0925248,13.1766956 L34.8267879,14.2475779 C35.4198159,14.1643199 36.016774,14.1124893 36.615197,14.0923 C37.1094676,14.1110404 37.6648577,14.041433 37.4575829,14.783019 C37.090866,14.8178227 34.5344773,14.4376595 34.0322346,16.5044623 C33.8169878,17.5191233 34.7231505,18.0331468 35.4592416,17.9983432 C36.1953328,17.9635395 36.3972928,17.8778689 36.6630297,17.7065277 L36.8331013,17.9742483 L38.1617856,17.9742483 L38.8739605,15.2970425 C39.0573189,14.6277411 39.3815179,13 36.989886,13 C36.3580412,13.000286 35.7274935,13.0576292 35.1058116,13.1713412 L35.0925248,13.1766956 Z" id="Path" fill="#FFFFFF"/>
                        <path d="M37,16.0513053 C36.7180752,16.0226521 36.0908717,15.9102435 35.5270221,16.1504894 C34.9631725,16.3907353 34.7794463,16.8117166 35.3369605,16.9571866 C35.8944747,17.1026566 36.699069,16.8602066 36.8352799,16.4899194 L37,16.0491012 L37,16.0513053 Z" id="Path" fill="#F9BA00"/>
                        <path d="M49.5279968,20.0895592 C49.6293606,20.0842019 49.7280285,20.1262173 49.7993896,20.2051254 C49.8707507,20.2840335 49.9080773,20.392395 49.9020589,20.5031811 C49.883664,20.7390107 49.7028601,20.919932 49.4864343,20.9190756 C49.3843347,20.9251664 49.2847384,20.8831463 49.2128341,20.8036424 C49.1409297,20.7241385 49.103603,20.6147641 49.1102941,20.5031811 C49.1297051,20.2682512 49.310224,20.0886021 49.5259187,20.0895592 L49.5259187,20.0054712 C49.2582252,19.9942734 49.028387,20.2118473 49.0001536,20.5031811 C48.9968569,20.6400836 49.0467401,20.7721071 49.1374412,20.8665337 C49.2281424,20.9609604 49.3511729,21.008953 49.4760437,20.9986182 C49.743306,21.0073741 49.9715906,20.7894226 49.9997306,20.4986358 C50.0040721,20.3628268 49.9557688,20.231328 49.8667241,20.1365451 C49.7776795,20.0417621 49.6561749,19.99251 49.532153,20.0009259 L49.532153,20.0850139 L49.5279968,20.0895592 Z" id="Path" fill="#F9BA00"/>
                        <path d="M48.8850334,20.1304348 L49.0020903,20.1304348 C49.062709,20.1304348 49.1254181,20.1304348 49.1212375,20.2766798 C49.1170569,20.4229249 49.0522575,20.4387352 48.979097,20.4387352 L48.8766722,20.4387352 L48.8766722,20.56917 L48.9749164,20.56917 L49.110786,21 L49.2069398,21 L49.0606187,20.5612648 C49.1436917,20.5636165 49.2129097,20.4414573 49.2173913,20.284585 C49.2173913,20.0869565 49.1588629,20 49.0229933,20 L48.8139632,20 L48.7826087,21 L48.8662207,21 L48.8933946,20.1304348 L48.8850334,20.1304348 Z" id="Path" fill="#F9BA00"/>
                    </g>
                </g>
            </g>
        </g>
    </g>
</svg>