<svg xmlns="http://www.w3.org/2000/svg" xmlns:xlink="http://www.w3.org/1999/xlink" width="80" height="50" viewBox="0 0 80 50" version="1.1">
    <title>EB4E37BB-8020-4267-AD53-E820E324772E</title>
    <g id="ana-sayfa-1440px" stroke="none" stroke-width="1" fill="none" fill-rule="evenodd">
        <g id="ana-sayfa-1440px-(Bu-sayfa-ölçüsü-örnek-verdiğiniz-site-baz-alınarak-belirlenmiştir.)-market.samm" transform="translate(-970.000000, -6512.000000)">
            <g id="footer" transform="translate(0.000000, 5860.000000)">
                <g id="Group-11" transform="translate(970.000000, 652.000000)">
                    <rect id="Rectangle-Copy-16" fill="#FFFFFF" x="0" y="0" width="80" height="50" rx="3"/>
                    <g id="maximum" transform="translate(7.000000, 17.000000)" fill="#EB008B">
                        <path d="M0,13.3745753 L0.974765135,6.78017545 C1.05457047,6.24618713 1.48637432,5.26934449 2.16044436,4.73393219 C2.8894354,4.14102531 3.8013366,3.81851472 4.74129182,3.82116815 C5.78446152,3.82116815 6.39725247,4.07605858 6.7478259,4.26971834 C6.96036924,4.38453653 7.15523647,4.52937246 7.32641456,4.69975694 C7.5788525,4.47898957 7.86831363,4.30448606 8.18147169,4.18428021 C8.76894382,3.91381061 9.41194516,3.78550712 10.0583221,3.8097764 C10.9775085,3.8097764 11.8339908,4.10453796 12.2073657,4.47334589 C12.5807407,4.84215383 12.706149,5.062869 12.8486586,5.70223102 C12.8929567,6.07932213 12.8852847,6.46070243 12.825857,6.83571024 C12.7289506,7.50497561 11.8724683,13.3688794 11.8724683,13.3688794 L9.44980644,13.3688794 C9.44980644,13.3688794 10.2977381,7.59610961 10.3433412,7.2629009 C10.3889442,6.92969219 10.4858507,6.23052347 10.2521351,5.92579414 C10.0184194,5.6210648 9.60086654,5.53989857 9.2830703,5.56268207 C8.96527407,5.58546558 8.30688007,5.68229546 8.13159336,6.73033654 C7.95630665,7.77837763 7.1340267,13.3759992 7.1340267,13.3759992 L4.71849029,13.3759992 C4.71849029,13.3759992 5.60204933,7.36969856 5.641952,7.05357748 C5.68185467,6.73745639 5.73885848,5.9870248 5.3141801,5.71504674 C4.88950172,5.44306869 4.12280049,5.50572332 3.81070463,5.93718589 C3.49860878,6.36864845 3.43020421,6.57654791 3.32332207,7.23442152 C3.21643993,7.89229514 2.42266188,13.3745753 2.42266188,13.3745753 L0,13.3745753 Z M18.5433391,8.78512362 C18.5433391,8.78512362 18.0103535,8.81929887 17.6241527,8.85347412 C17.0312216,8.89476757 16.4472216,9.02039376 15.8898118,9.22655396 C15.2456416,9.43053609 14.8151317,10.0368428 14.8352413,10.7117535 C14.8352413,11.281341 15.1516124,11.9135832 16.1734057,11.9805098 C17.195199,12.0474363 18.1457375,11.3924106 18.1457375,11.3924106 L18.5433391,8.78512362 Z M14.5630481,4.69975694 C14.5630481,4.69975694 15.2755957,4.18997609 17.0683655,3.91799804 C18.8611353,3.64601998 19.4910274,3.98634854 20.2890807,4.57444768 C21.0871341,5.16254682 21.0914093,6.19065234 20.9930778,6.83571024 C20.8947462,7.48076814 20.2107005,12.1741695 20.2107005,12.1741695 L19.5979095,12.6497751 C18.8383338,13.205123 17.7951641,13.5041564 16.5353799,13.6237698 C15.2755957,13.7433832 13.6552625,13.4087505 13.0424715,12.0260768 C12.4296806,10.643403 12.7930798,8.89334525 14.4946435,8.02614821 C16.1962072,7.15895117 18.7585285,7.21021405 18.7585285,7.21021405 C18.7585285,7.21021405 18.9509163,6.4398469 18.5319383,6.07103896 C18.0645071,5.65381608 17.5785496,5.78624519 16.5239791,5.95854542 C15.7583362,6.10544915 15.0099719,6.33116487 14.2908549,6.63208269 L14.5630481,4.69975694 Z M24.2023922,1.95149703 C24.4076059,0.97607836 25.1401049,0.184351671 25.8369764,0.184351671 C26.533848,0.184351671 26.9342998,0.97607836 26.7290861,1.95149703 C26.5238723,2.92691571 25.7942236,3.72006636 25.0945018,3.72006636 C24.3947801,3.72006636 23.9971785,2.92833967 24.2023922,1.95149703 Z M20.6866823,12.2040729 C20.6866823,12.2040729 23.5055207,8.34369327 23.5610994,8.25967911 C23.6298702,8.12055835 23.6298702,7.95736951 23.5610994,7.81824876 C23.4827191,7.67585187 21.7697547,4.74674791 21.684249,4.58156753 C21.5987432,4.41638714 21.4918611,4.09457017 21.6457714,3.44951228 C21.7996817,2.80445438 22.2001334,2.61079462 22.3825456,2.58231524 C22.5649578,2.55383586 22.7388194,2.62218637 22.9525837,2.9454273 C23.166348,3.26866823 24.872187,5.83893203 24.9391665,5.95284954 C25.0061459,6.06676705 25.1329794,6.09524643 25.2241855,5.96281733 C25.3153916,5.83038822 28.823976,1.01737346 28.9935624,0.783842563 C29.1631487,0.550311669 29.5949526,0.0875217878 30.0096553,0.0248671577 C30.424358,-0.0377874724 30.7350287,0.0134754068 31.0243231,0.229918674 C31.3661243,0.500127416 31.5492288,0.923823562 31.5117056,1.35770202 C31.4604022,1.82191587 31.2053102,2.22347509 30.799158,2.73895181 C30.3930059,3.25442854 26.7105598,7.73138666 26.6136533,7.83960829 C26.5285296,7.96141764 26.4999748,8.11393566 26.5352731,8.25825514 C26.5566495,8.40065202 26.7903652,8.70538136 26.8744458,8.82784268 C26.9585264,8.950304 29.1702742,12.2467919 29.1702742,12.2467919 L30.3545283,4.10453796 L32.6346807,4.10453796 L31.2851155,13.385967 L29.9469511,13.385967 L31.1326303,15.1488405 L28.7954741,17 C28.7954741,17 25.007571,10.3984803 24.947717,10.3073463 C24.887863,10.2162123 24.8052075,10.0738154 24.6199451,10.3073463 C24.4346827,10.5408772 21.4847356,14.1762697 21.4847356,14.1762697 L20.6866823,12.2040729 Z M32.1643993,13.3703034 L33.1391644,6.77590355 C33.2189697,6.24191522 33.6493485,5.26792052 34.3248436,4.72966029 C35.0553768,4.13704478 35.9690091,3.81596611 36.9099664,3.82116815 C37.9545612,3.82116815 38.565927,4.07605858 38.9179255,4.26971834 C39.128459,4.38499573 39.321381,4.52981267 39.4908138,4.69975694 C39.7432518,4.47898957 40.0327129,4.30448606 40.3458709,4.18428021 C40.9333431,3.91381061 41.5763444,3.78550712 42.2227214,3.8097764 C43.1419078,3.8097764 43.9969649,4.10453796 44.371765,4.47334589 C44.746565,4.84215383 44.8705483,5.062869 45.0130578,5.70223102 C45.0569887,6.081242 45.0493184,6.46445337 44.9902563,6.84140612 C44.8904996,7.51067148 44.0354425,13.3745753 44.0354425,13.3745753 L41.6127806,13.3745753 C41.6127806,13.3745753 42.4678377,7.59610961 42.5077404,7.2629009 C42.5476431,6.92969219 42.6502499,6.23052347 42.4165343,5.92579414 C42.1828187,5.6210648 41.7652658,5.53989857 41.4474696,5.56268207 C41.1296733,5.58546558 40.4712793,5.68229546 40.2959926,6.73033654 C40.1207059,7.77837763 39.298426,13.3759992 39.298426,13.3759992 L36.8828895,13.3759992 C36.8828895,13.3759992 37.7664486,7.36969856 37.8063512,7.05357748 C37.8462539,6.73745639 37.907533,5.98132892 37.4800044,5.71362277 C37.0524759,5.44591663 36.2900499,5.50429935 35.9779541,5.93576192 C35.6658582,6.36722448 35.5974536,6.57512394 35.4905715,7.23299755 C35.3836894,7.89087117 34.5884862,13.3745753 34.5884862,13.3745753 L32.1643993,13.3703034 Z M46.3013439,4.11450574 L48.7054795,4.11450574 C48.7054795,4.11450574 47.814795,10.1891569 47.7478155,10.641979 C47.6808361,11.0948011 47.725014,11.8096335 48.143992,12.013261 C48.56297,12.2168886 49.2441655,12.1841373 49.5277595,11.9349427 C49.8113534,11.6857482 50.0721459,11.4351297 50.2189307,10.641979 C50.3657155,9.84882836 51.2065217,4.10311399 51.2065217,4.10311399 L53.5835805,4.10311399 C53.5835805,4.10311399 52.7784017,9.70215957 52.6871956,10.3813927 C52.5959895,11.0606259 52.2682176,12.2069208 51.5471194,12.7836282 C50.8260212,13.3603356 50.0208424,13.6579451 48.1325913,13.6579451 C46.2443401,13.6579451 45.5018655,12.51877 45.3878579,11.788274 C45.2738502,11.0577779 45.3536556,10.3486414 45.5132662,9.35186322 C45.6728769,8.35508502 46.3013439,4.11592971 46.3013439,4.11592971 L46.3013439,4.11450574 Z M53.1232747,13.3703034 L54.0980399,6.77590355 C54.1778452,6.24191522 54.608224,5.26792052 55.2837191,4.72966029 C56.011599,4.13921729 56.9213293,3.81827142 57.8588662,3.82116815 C58.903461,3.82116815 59.5148268,4.07605858 59.8668253,4.26971834 C60.0808762,4.38418933 60.2772028,4.52903963 60.4496893,4.69975694 C60.7021272,4.47898957 60.9915884,4.30448606 61.3047464,4.18428021 C61.8922186,3.91381061 62.5352199,3.78550712 63.1815968,3.8097764 C64.0993582,3.8097764 64.9558404,4.10453796 65.3306404,4.47334589 C65.7054405,4.84215383 65.8294238,5.062869 65.9719333,5.70223102 C66.0158641,6.081242 66.0081939,6.46445337 65.9491318,6.84140612 C65.8522253,7.51067148 64.9957431,13.3745753 64.9957431,13.3745753 L62.5730812,13.3745753 C62.5730812,13.3745753 63.4167376,7.59610961 63.4666159,7.2629009 C63.5164942,6.92969219 63.6091254,6.23052347 63.3754098,5.92579414 C63.1416942,5.6210648 62.7241413,5.53989857 62.406345,5.56268207 C62.0885488,5.58546558 61.4301548,5.68229546 61.2548681,6.73033654 C61.0795814,7.77837763 60.2573014,13.3759992 60.2573014,13.3759992 L57.841765,13.3759992 C57.841765,13.3759992 58.7253241,7.36969856 58.7652267,7.05357748 C58.8051294,6.73745639 58.8621332,5.9870248 58.4360297,5.71504674 C58.0099263,5.44306869 57.2460752,5.50572332 56.9339794,5.93718589 C56.6218835,6.36864845 56.5534789,6.57654791 56.4465968,7.23442152 C56.3397147,7.89229514 55.5445115,13.3759992 55.5445115,13.3759992 L53.1232747,13.3703034 Z" id="Shape"/>
                    </g>
                </g>
            </g>
        </g>
    </g>
</svg>