<svg xmlns="http://www.w3.org/2000/svg" xmlns:xlink="http://www.w3.org/1999/xlink" width="41" height="34" viewBox="0 0 41 34" version="1.1">
    <title>CEC1D226-F69A-4357-BD50-CB66033D5921</title>
    <defs>
        <filter id="filter-1">
            <feColorMatrix in="SourceGraphic" type="matrix" values="0 0 0 0 0.666667 0 0 0 0 0.094118 0 0 0 0 0.172549 0 0 0 1.000000 0"/>
        </filter>
    </defs>
    <g id="ana-sayfa-1440px" stroke="none" stroke-width="1" fill="none" fill-rule="evenodd">
        <g id="Group-15" transform="translate(-629.000000, -193.000000)" filter="url(#filter-1)">
            <g transform="translate(629.000000, 193.000000)">
                <path d="M11.3677207,33.5059289 C8.92778878,33.5059289 6.87463165,31.8122783 6.32466468,29.537525 L3.06732545,29.5375534 C2.49459818,29.5375534 2.02977604,29.0727312 2.02977604,28.5 C2.02977604,27.9272767 2.49459818,27.4624545 3.06732545,27.4624545 L6.25053367,27.4623697 C6.65975986,25.0068993 8.7994785,23.1304348 11.3677207,23.1304348 C13.9359629,23.1304348 16.0756816,25.0068993 16.4849077,27.4623697 L19.3664545,27.4622727 L22.9951911,7.03458498 C23.0428624,6.82464779 23.1512857,6.64225149 23.2993471,6.5040366 L24.1219697,2.07509881 L3.06732545,2.07509881 C2.49459818,2.07509881 2.02977604,1.61027668 2.02977604,1.03754941 C2.02977604,0.464822134 2.49459818,0 3.06732545,0 L25.4230567,0 C25.7384717,0 26.0372859,0.143181818 26.2344203,0.390118577 C26.4315547,0.634980237 26.5062583,0.958695652 26.4357049,1.26581028 L25.4984545,6.22490909 L31.6483531,6.22529644 C36.7966733,6.22529644 40.9862978,10.4149209 40.9862978,15.5632411 L39.4112978,28.690913 C39.3199934,29.1827115 38.8925231,29.5375534 38.3924243,29.5375534 L36.6914091,29.537525 C36.1414422,31.8122783 34.088285,33.5059289 31.6483531,33.5059289 C29.2084212,33.5059289 27.1552641,31.8122783 26.6052971,29.537525 L16.4107767,29.537525 C15.8608098,31.8122783 13.8076526,33.5059289 11.3677207,33.5059289 Z M31.6483531,25.2055336 C29.9322464,25.2055336 28.5357049,26.6020751 28.5357049,28.3181818 C28.5357049,30.0342885 29.9322464,31.43083 31.6483531,31.43083 C33.3644598,31.43083 34.7610013,30.0342885 34.7610013,28.3181818 C34.7610013,26.6020751 33.3644598,25.2055336 31.6483531,25.2055336 Z M11.3677207,25.2055336 C9.65161399,25.2055336 8.25507248,26.6020751 8.25507248,28.3181818 C8.25507248,30.0342885 9.65161399,31.43083 11.3677207,31.43083 C13.0838274,31.43083 14.4803689,30.0342885 14.4803689,28.3181818 C14.4803689,26.6020751 13.0838274,25.2055336 11.3677207,25.2055336 Z M31.6483531,8.30039526 L25.1064545,8.30009091 L22.0239091,24.6164545 L21.5343215,27.4624545 L26.5311661,27.4624545 C26.9403923,25.0068993 29.0801109,23.1304348 31.6483531,23.1304348 C34.2165953,23.1304348 36.356314,25.0068993 36.7655401,27.4624545 L37.5312583,27.4624545 L38.9298749,15.372332 C38.911199,11.5583004 35.6532938,8.30039526 31.6483531,8.30039526 Z M13,17.513834 C13.552,17.513834 14,17.9414704 14,18.4683794 C14,18.9952885 13.552,19.4229249 13,19.4229249 L1,19.4229249 C0.448,19.4229249 0,18.9952885 0,18.4683794 C0,17.9414704 0.448,17.513834 1,17.513834 L13,17.513834 Z M12.9924242,11.7865613 C13.5486061,11.7865613 14,12.2141976 14,12.7411067 C14,13.2680158 13.5486061,13.6956522 12.9924242,13.6956522 L2.91666667,13.6956522 C2.36048485,13.6956522 1.90909091,13.2680158 1.90909091,12.7411067 C1.90909091,12.2141976 2.36048485,11.7865613 2.91666667,11.7865613 L12.9924242,11.7865613 Z M13.0454545,5.4229249 C13.5723636,5.4229249 14,5.85056126 14,6.37747036 C14,6.90437945 13.5723636,7.33201581 13.0454545,7.33201581 L5.40909091,7.33201581 C4.88218182,7.33201581 4.45454545,6.90437945 4.45454545,6.37747036 C4.45454545,5.85056126 4.88218182,5.4229249 5.40909091,5.4229249 L13.0454545,5.4229249 Z M6.88550727,1.89378039 L6.88550727,24.0898396" id="Combined-Shape" fill="#FFFFFF" fill-rule="nonzero"/>
            </g>
        </g>
    </g>
</svg>