<svg xmlns="http://www.w3.org/2000/svg" xmlns:xlink="http://www.w3.org/1999/xlink" width="80" height="50" viewBox="0 0 80 50" version="1.1">
    <title>08F94B13-6D3D-4252-8344-C021DAD1DFC4</title>
    <g id="ana-sayfa-1440px" stroke="none" stroke-width="1" fill="none" fill-rule="evenodd">
        <g id="ana-sayfa-1440px-(Bu-sayfa-ölçüsü-örnek-verdiğiniz-site-baz-alınarak-belirlenmiştir.)-market.samm" transform="translate(-1170.000000, -6512.000000)">
            <g id="footer" transform="translate(0.000000, 5860.000000)">
                <g id="Group-13" transform="translate(1170.000000, 652.000000)">
                    <rect id="Rectangle-Copy-19" fill="#FFFFFF" x="0" y="0" width="80" height="50" rx="3"/>
                    <g id="ziraat-logo" transform="translate(5.000000, 18.000000)">
                        <path d="M5.66802115,3.1444246 L4.66841281,4.01684103 L4,4.59071192 L4,7.24445011 L4.34624988,6.94922174 L4.34624988,8.17657566 L4,8.46848686 L4,11.1222251 L4.34624988,10.8203623 L4.34624988,12.0477163 L4,12.3462618 L4,15 L4.66841281,14.4228119 L5.66802115,13.5537127 L6.99882502,12.3860679 L6.99882502,7.94437356 C6.9837635,7.75236976 6.8893871,7.57866604 6.7429012,7.47333503 C6.91584933,7.32867514 7.0118563,7.09846105 6.99882502,6.85965808 L6.99882502,2 L5.66802115,3.1444246 Z M6.51708606,9.8749681 C6.51708606,10.1071702 6.43278175,10.2066854 6.24911877,10.372544 L5.64694507,10.8800714 L4.81895623,11.6231181 L4.81895623,10.3957642 L5.66802115,9.6560347 L6.17986879,9.22148507 C6.35449916,9.06557795 6.52611867,9.10206685 6.52611867,9.31104874 L6.51708606,9.8749681 Z M6.51708606,6.00714468 C6.51708606,6.24266394 6.43278175,6.33886195 6.24911877,6.50472059 L5.64694507,7.01224802 L4.81895623,7.74202603 L4.81895623,6.51467211 L5.66802115,5.77494259 L6.17986879,5.34039296 C6.35449916,5.18448584 6.52611867,5.22429191 6.52611867,5.42995662 L6.51708606,6.00714468 Z" id="Shape" fill="#ED1C24"/>
                        <polygon id="Path" fill="#ED1C24" points="5 2.83892069 5 1.91005724 4.50226244 2.48242028 4.35520362 2.65249387 4.35520362 1.68111202 4.50226244 1.51103843 5 0.932134096 5 0 4.50226244 0.578904334 4 1.16107931 4 4 4.50226244 3.42109567"/>
                        <polygon id="Path" fill="#ED1C24" points="2 0 2 0.974358974 2.325 1.36410256 2.325 2.43076923 2.19772727 2.28034188 2.19772727 3.25470085 2.5 3.62735043 2.80681818 4 2.80681818 3.02564103 2.67727273 2.86837607 2.67727273 1.79487179 3 2.18461538 3 1.21367521 2.5 0.605128205"/>
                        <polygon id="Path" fill="#ED1C24" points="0 2 0 4.64654731 2.3360161 6.67468031 2.6167002 6.9140665 2.3360161 7.21994885 1.99195171 7.59565217 0 5.87672634 0 8.52327366 0.636820926 9.07186701 0 9.75345269 0 12.4 2.3360161 14.4214834 3 15 3 12.3501279 2.3360161 11.7749361 0.389336016 10.0859335 1.02012072 9.40102302 2.3360161 10.544757 3 11.1232737 3 8.47340153 2.37525151 7.92813299 3 7.24654731 3 4.59667519 2.3360161 4.02148338"/>
                        <polygon id="Path" fill="#231F20" fill-rule="nonzero" points="10.7372134 4 10.335097 5.26056879 13.8835979 5.26056879 10 10.7978478 10 12 15.4356261 12 15.9858907 10.7978478 12.1022928 10.7978478 16 5.245196 16 4"/>
                        <path d="M17,5 C17.5522847,5 18,4.55228475 18,4 C18,3.44771525 17.5522847,3 17,3 C16.4477153,3 16,3.44771525 16,4 C16,4.55228475 16.4477153,5 17,5" id="Path" fill="#231F20" fill-rule="nonzero"/>
                        <rect id="Rectangle" fill="#231F20" fill-rule="nonzero" x="17" y="6" width="1" height="6"/>
                        <rect id="Rectangle" fill="#231F20" fill-rule="nonzero" x="69" y="6" width="1" height="6"/>
                        <path d="M19,11.9872949 L19,6 L20.1006494,6 L20.1006494,6.67654844 C20.3483184,6.42116983 20.6609482,6.23481309 21.0064935,6.1365802 C21.3316758,6.05497798 21.6717978,6.04845367 22,6.1175225 L22,7.2705135 L21.1331169,7.2705135 C20.7857143,7.2705135 20.1396104,7.73742721 20.1396104,8.1884595 L20.1396104,12 L19,11.9872949 Z" id="Path" fill="#231F20" fill-rule="nonzero"/>
                        <path d="M25.507765,10.4325331 C25.507765,10.6568884 25.1701553,11.0207078 24.3936529,11.0207078 C24.1391483,11.0408074 23.8866171,10.9661815 23.6951365,10.814288 C23.5036558,10.6623945 23.3900239,10.4465588 23.3808238,10.2172733 C23.3808238,9.91409044 23.6610398,9.18038797 24.4814315,9.18038797 C25.2140446,9.18038797 25.5246455,9.18038797 25.5246455,9.18038797 L25.507765,10.4325331 Z M27,11.9060017 L27,7.96462479 C27,6.42142414 25.8858879,6 25.0486158,6 C24.4671018,6.01190591 23.888706,6.0800093 23.3234301,6.2031325 L23.0128292,7.35825911 C23.5631773,7.21392799 24.1290296,7.12246081 24.7008778,7.08539456 C25.1443942,7.05760398 25.5293768,7.35723227 25.5617826,7.75542863 L25.5617826,8.30418957 C24.910582,8.28652069 24.2597424,8.34874195 23.6272789,8.4891311 C22.8102633,8.7134864 22,9.19554711 22,10.4840742 C22,11.7726012 23.2660365,12 24.0594193,12 C24.5327889,12.0010093 24.9945512,11.8684405 25.3794733,11.6210098 L25.6191762,11.6210098 L25.6191762,11.8908425 L27,11.9060017 Z" id="Shape" fill="#231F20" fill-rule="nonzero"/>
                        <path d="M30.5067568,10.4325331 C30.5067568,10.6568884 30.1689189,11.0207078 29.3918919,11.0207078 C29.1372153,11.0408074 28.8845135,10.9661815 28.6929035,10.814288 C28.5012934,10.6623945 28.3875848,10.4465588 28.3783784,10.2172733 C28.3783784,9.91409044 28.6587838,9.18038797 29.4797297,9.18038797 C30.2128378,9.18038797 30.5236486,9.18038797 30.5236486,9.18038797 L30.5067568,10.4325331 Z M32,11.9060017 L32,7.96462479 C32,6.42142414 30.8851351,6 30.0439189,6 C29.4631442,6.01212288 28.885503,6.08022475 28.3209459,6.2031325 L28.0101351,7.35825911 C28.5608551,7.21392799 29.1270897,7.12246081 29.6993243,7.08539456 C29.9130501,7.07120709 30.1242934,7.1338532 30.2865164,7.25953173 C30.4487394,7.38521027 30.5486326,7.56360992 30.5641892,7.75542863 L30.5641892,8.30418957 C29.9125486,8.28652069 29.2612692,8.34874195 28.6283784,8.4891311 C27.8074324,8.7134864 27,9.19554711 27,10.4840742 C27,11.7726012 28.2668919,12 29.0608108,12 C29.5345003,12.0010093 29.9965745,11.8684405 30.3817568,11.6210098 L30.6216216,11.6210098 L30.6216216,11.8908425 L32,11.9060017 Z" id="Shape" fill="#231F20" fill-rule="nonzero"/>
                        <path d="M32.5840456,4 L33.7065527,4 L33.7065527,5.70854271 L35,5.70854271 L34.7150997,6.68341709 L33.7293447,6.68341709 L33.7293447,10.3283082 C33.7293447,10.8040201 33.8034188,11.0753769 34.1851852,11.0753769 L34.8518519,11.0753769 L34.8518519,12 L33.6524217,12 C33.3276353,12 32.5413105,11.7386935 32.5413105,10.7638191 L32.5413105,6.65661642 L32,6.65661642 L32,5.68509213 L32.5698006,5.68509213 L32.5840456,4 Z" id="Path" fill="#231F20" fill-rule="nonzero"/>
                        <path d="M41.4718473,6.11519134 C41.4719228,6.44758359 41.3200306,6.76601569 41.0504067,6.99871401 C40.7807827,7.23141233 40.4161184,7.35879319 40.0386079,7.35214534 L38.2084175,7.35214534 L38.2084175,4.89988404 L39.9402484,4.89988404 C40.4250205,4.89988404 41.4718473,5.14109007 41.4718473,6.11519134 M38.1732891,8.27986084 L40.4671746,8.27986084 C41.2926923,8.27986084 41.9004139,8.93544646 41.9004139,9.79512949 C41.9004139,10.6548125 41.0467934,11.0691921 40.2283014,11.0691921 L38.1838276,11.0691921 L38.1732891,8.27986084 Z M42.6029822,5.82141477 C42.6029822,4.6803247 41.2540511,4 39.8664787,4 L37,4 L37,12 L40.8641257,12 C41.4823858,12 42.9999669,11.2763819 42.9999669,9.69926556 C43.005402,8.79070418 42.341668,7.98370728 41.3594363,7.70467723 C41.3594363,7.70467723 42.6029822,6.95941245 42.6029822,5.82141477" id="Shape" fill="#231F20" fill-rule="nonzero"/>
                        <path d="M46.8932701,9.82871188 C46.8932701,10.5260821 46.538549,11.3330826 45.3005724,11.3330826 C44.0625957,11.3330826 44.0377652,10.6631199 44.0377652,10.1576026 C44.0377652,9.65208536 44.4244113,8.89380942 45.7794459,8.89380942 L46.8861757,8.89380942 L46.8932701,9.82871188 Z M48,12 L48,7.6909219 C47.9954755,7.23216533 47.7758392,6.79432246 47.3906985,6.47628563 C47.0055579,6.1582488 46.4874007,5.98684531 45.9532592,6.00078879 C45.2187718,6.03069661 44.4971202,6.17732077 43.8249326,6.43321924 L43.7078746,7.30417072 C44.230808,7.0742016 44.7900828,6.91107775 45.3679694,6.81997042 C46.3611885,6.65857032 46.8932701,7.15190647 46.8932701,7.53256708 L46.8932701,8.29693359 L45.3395917,8.29693359 C44.7119088,8.27430566 44.1018905,8.47846446 43.6576605,8.8598364 C43.2134305,9.24120835 42.9756221,9.76490982 43.0019796,10.3037763 C43.0019796,11.7106979 44.5095443,12 45.3573278,12 C45.9322268,11.9744204 46.4895602,11.8212256 46.974856,11.5553884 L46.974856,12 L48,12 Z" id="Shape" fill="#231F20" fill-rule="nonzero"/>
                        <path d="M62.8885753,9.82871188 C62.8885753,10.5260821 62.5323494,11.3330826 61.2891212,11.3330826 C60.0458929,11.3330826 60.0280816,10.6631199 60.0280816,10.1576026 C60.0280816,9.65208536 60.4163678,8.89380942 61.7771506,8.89380942 L62.8885753,8.89380942 L62.8885753,9.82871188 Z M64,12 L64,7.6909219 C63.9954564,7.23216533 63.7748883,6.79432246 63.3881138,6.47628563 C63.0013394,6.1582488 62.4809841,5.98684531 61.9445768,6.00078879 C61.2130942,6.03303775 60.494716,6.17960165 59.8250329,6.43321924 L59.7074783,7.30417072 C60.23263,7.0742016 60.7942774,6.91107775 61.3746154,6.81997042 C62.3756101,6.65857032 62.9063866,7.15190647 62.9063866,7.53256708 L62.9063866,8.29693359 L61.3496796,8.29693359 C60.7190278,8.27336426 60.1057713,8.47721981 59.6594072,8.8588052 C59.2130431,9.24039058 58.9745806,9.76464804 59.0021511,10.3037763 C59.0021511,11.7106979 60.5125488,12 61.3639286,12 C61.9414145,11.9751141 62.5013149,11.8218638 62.9883185,11.5553884 L62.9883185,12 L64,12 Z" id="Shape" fill="#231F20" fill-rule="nonzero"/>
                        <path d="M48.0143988,12 L49.1771058,12 L49.1771058,8.03053435 C49.1771058,7.66717557 49.9726422,7.09618321 50.8725702,7.09618321 C51.7724982,7.09618321 51.7904968,7.59694656 51.7904968,7.87480916 L51.7904968,12 L53,12 L53,7.52671756 C52.8701663,6.69424778 52.0491933,6.0637539 51.0597552,6.03664122 C50.3113542,6.03568933 49.5983839,6.30694779 49.1015119,6.78167939 L49.1015119,6 L48,6.19541985 L48.0143988,12 Z" id="Path" fill="#231F20" fill-rule="nonzero"/>
                        <polygon id="Path" fill="#231F20" fill-rule="nonzero" points="54 4 55.1315461 4 55.1315461 8.30412968 55.3591022 8.30412968 57.3042394 5.85565419 58.7350374 5.85565419 56.2069825 8.61289078 59 11.9475106 57.4538653 11.9475106 55.3591022 8.9000386 55.1128429 8.9000386 55.1128429 12 54 12"/>
                        <path d="M67.4457275,7.12966805 L67.6581986,6.42012448 C67.1407309,6.15660238 66.5716081,6.01307463 65.9923018,6 C65.0900693,6 64.1447267,6.57261411 64.1447267,7.57157676 C64.1447267,8.57053942 64.7605851,9.17427386 65.804465,9.43879668 C66.8483449,9.7033195 67.0546574,10.0114108 67.0546574,10.3195021 C67.0546574,10.6275934 66.7467283,11.1877593 65.8598922,11.1877593 C65.3048004,11.1779164 64.7624803,11.0177892 64.2894534,10.7240664 L64,11.4865145 C64.6071185,11.8194768 65.286167,11.9958543 65.9769053,12 C67.113164,12 68,11.0290456 68,10.1639004 C68,9.29875519 67.0762125,8.69190871 66.2848345,8.53008299 C65.4934565,8.36825726 65.1485758,8.03215768 65.1485758,7.5466805 C65.1485758,7.06120332 65.7151655,6.8246888 66.2386451,6.8246888 C66.6540498,6.85533769 67.0617449,6.95414082 67.4457275,7.11721992" id="Path" fill="#231F20" fill-rule="nonzero"/>
                    </g>
                </g>
            </g>
        </g>
    </g>
</svg>