<svg xmlns:cc="http://creativecommons.org/ns#" xmlns:dc="http://purl.org/dc/elements/1.1/" xmlns:inkscape="http://www.inkscape.org/namespaces/inkscape" xmlns:rdf="http://www.w3.org/1999/02/22-rdf-syntax-ns#" xmlns:sodipodi="http://sodipodi.sourceforge.net/DTD/sodipodi-0.dtd" xmlns:svg="http://www.w3.org/2000/svg" xmlns="http://www.w3.org/2000/svg" xmlns:xlink="http://www.w3.org/1999/xlink" version="1.1" id="svg5890" x="0px" y="0px" viewBox="0 0 210 210" style="enable-background:new 0 0 210 210;" xml:space="preserve" width="210"  height="210" >
<style type="text/css">
	.st0{clip-path:url(#SVGID_00000047755712298164349030000016984207392185723798_);}
	.st1{fill:#231F20;}
	.st2{fill:#EE2922;}
</style>
<sodipodi:namedview bordercolor="#666666" borderopacity="1" fit-margin-bottom="0" fit-margin-left="0" fit-margin-right="0" fit-margin-top="0" gridtolerance="10" guidetolerance="10" id="namedview5892" inkscape:current-layer="g5898" inkscape:cx="69.372045" inkscape:cy="27.425027" inkscape:pageopacity="0" inkscape:pageshadow="2" inkscape:window-height="878" inkscape:window-maximized="1" inkscape:window-width="1350" inkscape:window-x="89" inkscape:window-y="0" inkscape:zoom="2.2787879" objecttolerance="10" pagecolor="#ffffff" showgrid="false">
	</sodipodi:namedview>
<g id="g5898" transform="matrix(1.25,0,0,-1.25,-115.46882,932.9596)" inkscape:groupmode="layer" inkscape:label="6DOF-v2">
	<g id="g5986" transform="matrix(1.5588912,0,0,1.5588912,11.202386,-434.24219)">
		<g>
			<defs>
				<rect id="SVGID_1_" x="10.95" y="661.88" width="190" height="84.16"/>
			</defs>
			<clipPath id="SVGID_00000024680403971385257760000016401941486402715805_">
				<use xlink:href="#SVGID_1_" style="overflow:visible;"/>
			</clipPath>
			<g id="g5988" style="clip-path:url(#SVGID_00000024680403971385257760000016401941486402715805_);">
				<g id="g5994" transform="translate(72.7655,718.0236)">
					<path id="path5996" inkscape:connector-curvature="0" class="st1" d="M2.57-30.79c0,0.55,0.29,0.73,0.73,0.73h2.92       c0.36,0,0.63-0.11,0.63-0.5c0-0.4-0.27-0.5-0.63-0.5H3.81v-1.18h2.11c0.33,0,0.58-0.09,0.58-0.48s-0.26-0.48-0.58-0.48H3.81       v-1.32h2.47c0.36,0,0.63-0.11,0.63-0.5c0-0.39-0.27-0.5-0.63-0.5H3.29c-0.44,0-0.73,0.17-0.73,0.73V-30.79z"/>
				</g>
				<g id="g5998" transform="translate(80.3273,718.2284)">
					<path id="path6000" inkscape:connector-curvature="0" class="st1" d="M2.57-30.79c0,0.37,0.24,0.62,0.62,0.62       c0.38,0,0.62-0.25,0.62-0.62v-3.9h2.08c0.36,0,0.65-0.18,0.65-0.52c0-0.34-0.29-0.52-0.65-0.52h-2.6       c-0.44,0-0.73,0.17-0.73,0.73V-30.79z"/>
				</g>
				<g id="g6002" transform="translate(87.3881,718.0236)">
					<path id="path6004" inkscape:connector-curvature="0" class="st1" d="M2.57-30.79c0,0.55,0.29,0.73,0.73,0.73h2.92       c0.36,0,0.63-0.11,0.63-0.5c0-0.4-0.27-0.5-0.63-0.5H3.81v-1.18h2.11c0.33,0,0.58-0.09,0.58-0.48s-0.26-0.48-0.58-0.48H3.81       v-1.32h2.47c0.36,0,0.63-0.11,0.63-0.5c0-0.39-0.27-0.5-0.63-0.5H3.29c-0.44,0-0.73,0.17-0.73,0.73V-30.79z"/>
				</g>
				<g id="g6006" transform="translate(97.4478,718.8814)">
					<path id="path6008" inkscape:connector-curvature="0" class="st1" d="M2.57-30.79c1.43,0,2.21-0.9,2.21-1.43       c0-0.35-0.19-0.56-0.56-0.56c-0.72,0-0.51,0.99-1.65,0.99c-0.78,0-1.43-0.68-1.43-1.86c0-0.99,0.39-1.86,1.47-1.86       c0.98,0,0.96,1.05,1.56,1.05c0.3,0,0.61-0.17,0.61-0.48c0-0.79-0.96-1.57-2.16-1.57c-1.71,0-2.72,0.98-2.72,2.86       C-0.11-32.11,0.8-30.79,2.57-30.79"/>
				</g>
				<g id="g6010" transform="translate(104.1593,717.7047)">
					<path id="path6012" inkscape:connector-curvature="0" class="st1" d="M2.57-30.79H1.39c-0.36,0-0.65,0.18-0.65,0.52       c0,0.34,0.29,0.52,0.65,0.52h3.6c0.36,0,0.65-0.18,0.65-0.52c0-0.34-0.29-0.52-0.65-0.52H3.81v-3.9c0-0.37-0.24-0.62-0.62-0.62       c-0.38,0-0.62,0.25-0.62,0.62V-30.79z"/>
				</g>
				<g id="g6014" transform="translate(111.5314,716.3228)">
					<path id="path6016" inkscape:connector-curvature="0" class="st1" d="M2.57-30.79h1.25c0.47,0,0.94,0.12,0.94,0.74       c0,0.58-0.36,0.74-0.9,0.74H2.57V-30.79z M1.32-29.09c0,0.55,0.29,0.73,0.73,0.73h2.07C5.6-28.36,6-29.17,6-29.88       c0-0.59-0.35-1.18-0.94-1.31v-0.02c0.64-0.09,0.75-0.55,0.75-1.11c0-0.63,0.17-0.87,0.17-1.12c0-0.29-0.3-0.49-0.59-0.49       c-0.68,0-0.74,0.66-0.74,0.88c0,0.96-0.17,1.34-0.86,1.34H2.57v-1.6c0-0.37-0.24-0.62-0.62-0.62c-0.38,0-0.62,0.25-0.62,0.62       C1.32-33.3,1.32-29.09,1.32-29.09z"/>
				</g>
				<g id="g6018" transform="translate(120.8242,714.159)">
					<path id="path6020" inkscape:connector-curvature="0" class="st1" d="M2.57-30.79c1.13,0,1.52,0.88,1.52,1.93       c0,1.05-0.5,1.79-1.52,1.79c-1.02,0-1.52-0.74-1.52-1.79C1.05-29.91,1.4-30.79,2.57-30.79 M2.57-26.07       c1.79,0,2.76-1.19,2.76-2.79c0-1.54-0.9-2.93-2.76-2.93c-1.96,0-2.76,1.28-2.76,2.93C-0.2-27.26,0.77-26.07,2.57-26.07"/>
				</g>
				<g id="g6022" transform="translate(126.8675,718.1221)">
					<path id="path6024" inkscape:connector-curvature="0" class="st1" d="M2.57-30.79c0,0.52,0.25,0.73,0.78,0.73       c0.26,0,0.49-0.1,0.62-0.33l2.18-3.52h0.01v3.24c0,0.4,0.23,0.6,0.6,0.6c0.37,0,0.6-0.2,0.6-0.6v-4.29       c0-0.49-0.21-0.77-0.74-0.77c-0.39,0-0.52,0.08-0.68,0.33l-2.16,3.42H3.77v-3.15c0-0.4-0.23-0.6-0.6-0.6s-0.6,0.2-0.6,0.6       L2.57-30.79z"/>
				</g>
				<g id="g6026" transform="translate(135.1888,718.2284)">
					<path id="path6028" inkscape:connector-curvature="0" class="st1" d="M2.57-30.79c0,0.37,0.24,0.62,0.62,0.62       c0.38,0,0.62-0.25,0.62-0.62v-4.42c0-0.37-0.24-0.62-0.62-0.62c-0.38,0-0.62,0.25-0.62,0.62V-30.79z"/>
				</g>
				<g id="g6030" transform="translate(142.4771,718.8814)">
					<path id="path6032" inkscape:connector-curvature="0" class="st1" d="M2.57-30.79c1.43,0,2.21-0.9,2.21-1.43       c0-0.35-0.19-0.56-0.56-0.56c-0.72,0-0.51,0.99-1.65,0.99c-0.78,0-1.43-0.68-1.43-1.86c0-0.99,0.39-1.86,1.47-1.86       c0.98,0,0.96,1.05,1.56,1.05c0.3,0,0.61-0.17,0.61-0.48c0-0.79-0.96-1.57-2.16-1.57c-1.71,0-2.72,0.98-2.72,2.86       C-0.11-32.11,0.8-30.79,2.57-30.79"/>
				</g>
				<g id="g6034" transform="translate(150.7149,716.4518)">
					<path id="path6036" inkscape:connector-curvature="0" class="st1" d="M2.57-30.79c1.14-0.26,1.43-0.93,1.43-1.57       c0-0.99-0.74-1.72-2.25-1.72c-1.58,0-2.29,0.79-2.29,1.38c0,0.3,0.22,0.52,0.52,0.52c0.68,0,0.5-0.99,1.76-0.99       c0.64,0,1,0.36,1,0.72c0,0.22-0.11,0.46-0.53,0.57l-1.41,0.36c-1.13,0.29-1.34,0.91-1.34,1.5c0,1.22,1.12,1.67,2.18,1.67       c0.97,0,2.12-0.55,2.12-1.28c0-0.31-0.27-0.49-0.57-0.49c-0.58,0-0.47,0.81-1.63,0.81c-0.58,0-0.9-0.27-0.9-0.64       c0-0.38,0.46-0.5,0.85-0.59L2.57-30.79z"/>
				</g>
				<g id="g6038" transform="translate(57.5527,725.3973)">
					<path id="path6040" inkscape:connector-curvature="0" class="st1" d="M2.57-30.79c0-1.32,1.17-1.88,2.36-1.88       c0.86,0,2.01,0.35,2.01,1.43c0,0.93-1.3,1.28-3.48,1.73c-1.79,0.41-3.54,1-3.54,2.98c0,2.85,2.46,3.59,4.86,3.59       c2.42,0,4.69-0.82,4.93-3.57H6.78c-0.09,1.19-1,1.51-2.1,1.51c-0.69,0-1.71-0.11-1.71-1.04c0-1.1,1.75-1.25,3.48-1.66       C8.25-28.11,10-28.76,10-30.84c0-2.94-2.57-3.89-5.1-3.89c-2.59,0-5.14,0.97-5.25,3.93H2.57z"/>
				</g>
				<g id="g6042" transform="translate(74.5133,727.3203)">
					<path id="path6044" inkscape:connector-curvature="0" class="st1" d="M2.57-30.79c0,1.79-0.71,3.61-2.68,3.61       c-2.01,0-2.66-1.8-2.66-3.61c0-1.82,0.69-3.54,2.68-3.54C1.92-34.33,2.57-32.61,2.57-30.79 M-5.73-25.69l2.92,0.52v-1.43h0.04       c0.76,1.21,1.95,1.73,3.33,1.73c3.5,0,5.08-2.83,5.08-6.01c0-2.98-1.62-5.77-4.91-5.77c-1.36,0-2.59,0.58-3.35,1.68h-0.05       v-8.05l-3.07,2.73C-5.73-40.28-5.73-25.69-5.73-25.69z"/>
				</g>
				<g id="g6046" transform="translate(85.9011,727.2342)">
					<path id="path6048" inkscape:connector-curvature="0" class="st1" d="M2.57-30.79c-0.52-0.45-1.6-0.48-2.55-0.65       c-0.95-0.17-1.82-0.52-1.82-1.64c0-1.12,0.89-1.43,1.88-1.43c2.4,0,2.48,1.88,2.48,2.57L2.57-30.79z M-4.52-28.52       c0.17,2.85,2.74,3.74,5.25,3.74c2.23,0,4.91-0.5,4.91-3.17v-5.82c0-1.02,0.11-2.03,0.39-2.49H2.91       c-0.11,0.35-0.2,0.72-0.22,1.08c-0.97-1.02-2.38-1.38-3.76-1.38c-2.14,0-3.8,1.06-3.8,3.35c0.04,5.08,7.56,2.35,7.43,4.86       c0,1.3-0.91,1.51-1.99,1.51c-1.19,0-1.92-0.48-2.03-1.69C-1.45-28.52-4.52-28.52-4.52-28.52z"/>
				</g>
				<g id="g6050" transform="translate(90.7091,732.4189)">
					<path id="path6052" inkscape:connector-curvature="0" class="st1" d="M2.57-30.79l2.92,0.52v-2.08h0.04       c0.58,1.41,2.03,2.38,3.57,2.38c0.24,0,0.46-0.05,0.67-0.11v-2.85c-0.28,0.06-0.74,0.11-1.1,0.11c-2.27,0-3.03-1.6-3.03-3.59       v-5.03H2.57V-30.79z"/>
				</g>
				<g id="g6054" transform="translate(99.0926,735.5139)">
					<path id="path6056" inkscape:connector-curvature="0" class="st1" d="M2.57-30.79l3.07,1.68v-8.28l3.87,4.02h3.63l-4.22-4.11       l4.69-7.07H9.89l-3.07,4.99l-1.19-1.15v-3.85H2.57L2.57-30.79z"/>
				</g>
				<g id="g6058" transform="translate(112.0021,730.887)">
					<path id="path6060" inkscape:connector-curvature="0" class="st1" d="M2.57-30.79h-3.03l2.09,2.05h0.94v0.86       c0,1.99,1.23,3.4,3.74,3.4c0.54,0,1.1-0.07,1.62-0.09v-2.29c-0.37,0.05-0.76,0.07-1.12,0.07c-0.84,0-1.17-0.35-1.17-1.28v-0.67       h2.12v-2.05H5.63v-9.12H2.57V-30.79z"/>
				</g>
				<g id="g6062" transform="translate(128.5334,721.7654)">
					<path id="path6064" inkscape:connector-curvature="0" class="st1" d="M2.57-30.79h-2.92v1.56h-0.07       c-0.78-1.27-2.12-1.86-3.42-1.86c-3.26,0-4.08,1.84-4.08,4.6v6.87h3.07v-6.31c0-1.84,0.52-2.74,1.97-2.74       c1.67,0,2.38,0.93,2.38,3.2v5.86h3.07V-30.79z"/>
				</g>
				<g id="g6066" transform="translate(130.2282,732.9397)">
					<path id="path6068" inkscape:connector-curvature="0" class="st1" d="M2.57-30.79h2.92v-1.56h0.07       c0.78,1.27,2.12,1.86,3.42,1.86c3.26,0,4.08-1.84,4.08-4.6v-6.87H9.98v6.31c0,1.84-0.52,2.75-1.97,2.75       c-1.66,0-2.38-0.93-2.38-3.2v-5.86H2.57V-30.79z"/>
				</g>
				<g id="g6070" transform="translate(142.1529,723.342)">
					<path id="path6072" inkscape:connector-curvature="0" class="st1" d="M2.57-30.79H2.15c-0.13,0-0.23,0.06-0.23,0.19       c0,0.12,0.1,0.19,0.23,0.19h1.29c0.13,0,0.23-0.07,0.23-0.19c0-0.12-0.1-0.19-0.23-0.19H3.01v-1.39c0-0.13-0.09-0.22-0.22-0.22       c-0.14,0-0.22,0.09-0.22,0.22V-30.79z"/>
				</g>
				<g id="g6074" transform="translate(143.4792,723.5319)">
					<path id="path6076" inkscape:connector-curvature="0" class="st1" d="M2.57-30.79c0,0.18,0.12,0.22,0.24,0.22h0.13       c0.14,0,0.2-0.05,0.25-0.2l0.39-1.25h0.01l0.38,1.25c0.05,0.15,0.11,0.2,0.25,0.2h0.12c0.12,0,0.24-0.04,0.24-0.22v-1.59       c0-0.11-0.06-0.22-0.2-0.22c-0.14,0-0.2,0.11-0.2,0.22v1.21H4.18l-0.42-1.3c-0.03-0.09-0.1-0.13-0.19-0.13       c-0.09,0-0.16,0.04-0.19,0.13l-0.42,1.3H2.96v-1.21c0-0.11-0.05-0.22-0.2-0.22s-0.2,0.11-0.2,0.22V-30.79z"/>
				</g>
				<g id="g6078" transform="translate(116.3533,752.1186)">
					<path id="path6080" inkscape:connector-curvature="0" class="st2" d="M2.57-30.79c0,0,0.28-1.2-0.62-1.37       c-0.63-0.11-1.66,0.51-2.17,1.14c-0.63,0.77-0.55,1.38-0.06,1.92c0.74,0.82,2.01,0.5,2.01,0.5s-2.32,2.04-4.74,0.37       c-2.16-1.48-1.54-3.51,0.41-5.27c1.75-1.6,0.36-3.34-1.41-3.12c-1.21,0.15-1.7,1.12-1.42,1.72c0.25,0.51,1.12,0.82,1.12,0.82       s-1,0.41-2.17-0.04c-1.05-0.4-1.93-1.27-1.85-3.45v-10.13c0,0,1.09,1.35,2.37,2.71c1.44,1.54,2.09,2.58,3.57,2.46       c2.79-0.17,4.81,1.07,6.18,3.05C6.4-35.64,4.33-31.36,2.57-30.79"/>
				</g>
			</g>
		</g>
	</g>
</g>
</svg>