<svg xmlns="http://www.w3.org/2000/svg" xmlns:xlink="http://www.w3.org/1999/xlink" width="80" height="50" viewBox="0 0 80 50" version="1.1">
    <title>51AE1EF7-EE1F-44E9-B1EF-3C422377185A</title>
    <g id="ana-sayfa-1440px" stroke="none" stroke-width="1" fill="none" fill-rule="evenodd">
        <g id="ana-sayfa-1440px-(Bu-sayfa-ölçüsü-örnek-verdiğiniz-site-baz-alınarak-belirlenmiştir.)-market.samm" transform="translate(-1370.000000, -6512.000000)">
            <g id="footer" transform="translate(0.000000, 5860.000000)">
                <g id="Group-16" transform="translate(1370.000000, 652.000000)">
                    <rect id="Rectangle-Copy-21" fill="#FFFFFF" x="0" y="0" width="80" height="50" rx="3"/>
                    <g id="paraf" transform="translate(18.000000, 11.000000)" fill="#06D0FF" fill-rule="nonzero">
                        <path d="M17.1375465,3.47733326 C16.7818738,2.09777441 15.8092252,0.960769107 14.5030979,0.397719453 C13.1603484,-0.195415313 11.6175228,-0.121835747 10.3370508,0.596404215 C7.14993804,2.36221504 5.38042131,6.99653711 4.42131351,11.3576676 C3.0086741,10.4437177 2.01486989,8.94116421 1.52664188,7.03627406 L0,7.99244448 C0.718711276,10.3096055 2.13878563,12.1176368 4.06195787,13.1458305 C3.64994875,15.457166 3.3834168,17.7921822 3.26394052,20.1370505 L3.26394052,20.2463272 C3.2267658,20.991395 3.14498141,22.700084 3.21933086,24.5553029 L4.91945477,23.4898559 C4.90210657,22.1114804 4.95910781,20.9193718 4.98636927,20.3307682 L4.98636927,20.219008 C5.09243355,18.0655212 5.33080338,15.9206292 5.70012392,13.7965231 C8.39653036,14.5217225 11.4498141,13.8163916 14.0371747,11.8270604 C16.5080545,9.93458802 17.8438662,6.34087739 17.1375465,3.47733326 Z M12.9913259,10.4561355 C10.8004957,12.144956 8.24287485,12.7360432 6.05204461,12.0977684 C6.9739777,7.74905564 8.58488228,3.54190581 11.1747212,2.10640841 C11.9860137,1.65308967 12.9629194,1.60892547 13.8116481,1.98719755 C14.6260126,2.33375764 15.2351271,3.03764634 15.4622057,3.89457126 C15.9925651,6.05526805 14.8847584,9.0032532 12.9913259,10.4561355 Z M42.9541512,12.2741011 C43.77943,10.600182 44.2552664,7.94774041 43.6827757,6.29368976 C43.2812887,5.13386746 42.3717472,4.50055979 41.2168525,4.54029674 C39.0136307,4.60983641 38.1610905,7.36907104 37.7472119,8.69529182 C36.6915562,12.2198804 36.0763655,15.8621089 35.9157373,19.5385127 L35.7149938,19.6875263 C35.3333333,19.9731356 34.4758364,20.6263118 34.1140025,20.6511474 C34.0116181,20.429055 33.9567453,20.1879494 33.952912,19.9433329 C33.9107807,19.424269 33.952912,18.0756961 34,16.9928642 C34.0272615,16.3272702 34.047088,15.7510844 34.047088,15.4158039 L34.047088,15.4158039 L34.047088,15.4158039 C34.0297398,14.0399119 33.2118959,13.1532812 31.960347,13.1532812 C30.9690211,13.1532812 29.7521685,13.7443683 28.8079306,14.6955716 C27.8194486,15.6852909 27.0457309,16.8690391 26.535316,18.172555 C26.2932778,18.7872654 26.152655,19.4373443 26.1189591,20.0973136 C25.952912,20.2264587 25.7942999,20.3456695 25.692689,20.4127257 C24.4832714,21.2248496 24.1363073,20.946691 24.0223048,20.8547993 C23.4745973,20.4077585 24.0024783,19.0542186 24.4659232,17.8596265 C24.9021066,16.7420247 25.3110285,15.6889954 25.11772,14.8098154 C25.0608455,14.54759 24.8819494,14.3285946 24.6366648,14.2209325 C24.3913802,14.1132705 24.109455,14.129999 23.8785626,14.2659158 C23.5142503,14.4770184 22.3370508,14.7402757 21.6480793,14.7626277 C21.6679058,14.6632854 21.6827757,14.5713937 21.6976456,14.4819855 C21.7769517,13.9852736 21.9628253,12.8229678 21.0656753,11.9462712 C20.4634449,11.3601512 19.4944238,11.3079964 18.7063197,11.8196097 C17.8393883,12.377587 17.4882678,13.4727363 17.8686493,14.4323143 C18.1525884,15.2127753 18.7655978,15.8279908 19.5439901,16.1136841 C18.88228,18.0434099 17.7149938,20.2637121 16.6047088,21.1106059 C16.4584882,20.5865748 16.314746,19.277739 16.5055762,16.0093746 C16.5204461,15.7610187 16.5303594,15.5747517 16.5328377,15.4754093 C16.5675341,14.9786974 16.5501859,14.2808172 16.0371747,13.7369177 C15.6933322,13.3704142 15.207928,13.1711313 14.7063197,13.1905346 C14.2587952,13.2028095 13.8175068,13.2988349 13.4052045,13.4736603 C13.0003452,13.6272058 12.611119,13.8193199 12.2428748,14.0473626 C10.6689342,15.0967624 9.43741485,16.5865221 8.70136307,18.3315028 C8.20570012,19.6130195 8.27261462,20.9094376 8.87980173,21.8084861 C9.30833035,22.4456283 10.0263422,22.8258988 10.7930607,22.8217784 L10.7930607,22.8217784 C11.5737299,22.8217784 12.4064436,22.451728 13.2019827,21.7563314 C13.7995455,21.2520167 14.3353004,20.6784462 14.7980173,20.0476424 C14.9045849,21.5775151 15.2143742,22.3921226 15.7695167,22.7522387 C15.9685203,22.8800126 16.1998371,22.9480896 16.4361834,22.9484399 C16.6690292,22.9455145 16.8974123,22.884028 17.1003717,22.7696236 C18.8946716,21.8308381 20.4287485,18.7959284 21.2168525,16.4241291 C21.3482032,16.4241291 21.4845105,16.4241291 21.6232962,16.4241291 C22.1868656,16.3993774 22.7469075,16.3220528 23.2961586,16.193158 C23.1846344,16.5358892 23.0483271,16.903456 22.9095415,17.2387366 C22.2701363,18.8803694 21.4745973,20.9243389 22.9714994,22.136316 C23.8934325,22.8813838 25.0929368,22.7820414 26.535316,21.8432559 C26.8991962,22.4524859 27.5618107,22.8186438 28.2701363,22.8019099 C29.7571252,22.8019099 31.1821561,21.4359522 31.3407683,21.2794879 C31.6901136,20.9355264 32.0116528,20.5643094 32.3023544,20.1693368 C32.3469641,20.6486638 32.4956629,21.7662656 33.417596,22.1835036 C33.6258651,22.276249 33.8514019,22.3236527 34.0793061,22.3225829 C34.6716233,22.3225829 35.2763321,22.0220722 35.8463445,21.6495383 C35.8116481,23.6711558 35.8760843,25.7879763 36.039653,28 L37.6505576,26.9916748 C37.5092937,24.6943823 37.4696406,22.5088499 37.5489467,20.4350777 C38.7864519,19.5923232 39.8760843,19.0550464 40.8178439,18.8232476 L41.5266419,17.0301176 C40.3816605,17.0946901 39.1053284,17.5268295 37.6679058,18.3786904 C37.884312,15.2624262 38.4479159,12.1802026 39.3482032,9.18952017 C39.6208178,8.30785654 40.2577447,6.24153501 41.2763321,6.20924874 C41.6356877,6.19683094 41.9182156,6.29865688 42.1065675,6.84007286 C42.4857497,7.94028973 42.1437423,9.79550869 41.6778191,11.0348049 L42.9541512,12.2741011 Z M14.8698885,15.3636491 C14.8377307,15.7015416 14.7679025,16.0347607 14.66171,16.357073 C14.0817844,18.15517 13.6406444,19.1485939 12.0991326,20.4921996 C11.6183395,20.9144047 11.1524164,21.1453757 10.7881041,21.1453757 L10.7881041,21.1453757 C10.5745969,21.1510435 10.3739419,21.0434234 10.260223,20.8622499 C10.039653,20.5418708 9.90830235,19.8464741 10.260223,18.944942 C10.869823,17.5256413 11.8726767,16.3112234 13.149938,15.4456066 C13.4273131,15.2749401 13.720245,15.1310748 14.0247831,15.0159508 C14.2455285,14.9174478 14.4823831,14.860213 14.7236679,14.8470688 C14.7905824,14.8470688 14.8277571,14.8470688 14.8277571,14.8470688 C14.8277571,14.8470688 14.9045849,14.9712467 14.8698885,15.3636491 Z M20.0545229,14.208794 C20.039653,14.293235 20.0247831,14.3826431 20.0049566,14.4745348 C19.7442265,14.3428443 19.5425038,14.1176426 19.4399009,13.8437107 C19.340751,13.6487556 19.3867322,13.4111954 19.551425,13.2675249 C19.6364091,13.1849996 19.7480522,13.135667 19.866171,13.1284456 L19.9033457,13.1284456 C20.0743494,13.3047783 20.1660471,13.5382329 20.0594796,14.208794 L20.0545229,14.208794 Z M32.3791822,15.4307053 C32.3773354,15.6704034 32.3507587,15.9092677 32.2998761,16.1434868 C31.9993781,17.6428155 31.2559108,19.0169438 30.1660471,20.0873794 C29.6431227,20.6014762 28.7881041,21.1304744 28.2651797,21.1304744 C28.1313507,21.1304744 28.0173482,21.1106059 27.9008674,20.8622499 C27.739777,20.5244858 27.7075589,19.7918358 28.1016109,18.7437737 C28.5287091,17.6621951 29.1751339,16.6812033 30,15.8628446 C30.7112763,15.1426123 31.5167286,14.817266 31.9628253,14.817266 C32.1536555,14.817266 32.3717472,14.817266 32.3791822,15.4307053 L32.3791822,15.4307053 Z M42.2924411,20.9665594 L42.2924411,22.6752484 L44,22.6752484 L44,20.9665594 L42.2924411,20.9665594 Z" id="Shape"/>
                    </g>
                </g>
            </g>
        </g>
    </g>
</svg>