<svg xmlns="http://www.w3.org/2000/svg" xmlns:xlink="http://www.w3.org/1999/xlink" width="80" height="50" viewBox="0 0 80 50" version="1.1">
    <title>CAF484EC-C020-4ED6-922E-C79A31CC5C48</title>
    <g id="ana-sayfa-1440px" stroke="none" stroke-width="1" fill="none" fill-rule="evenodd">
        <g id="ana-sayfa-1440px-(Bu-sayfa-ölçüsü-örnek-verdiğiniz-site-baz-alınarak-belirlenmiştir.)-market.samm" transform="translate(-370.000000, -6512.000000)">
            <g id="footer" transform="translate(0.000000, 5860.000000)">
                <g id="Group-5" transform="translate(370.000000, 652.000000)">
                    <rect id="Rectangle" fill="#FFFFFF" x="0" y="0" width="80" height="50" rx="3"/>
                    <g id="visa" transform="translate(7.000000, 15.000000)">
                        <path d="M18.0734175,2.31775339 C18.0849966,2.69980754 17.9739223,3.07546267 17.756624,3.38915429 L10.5721168,14.2263396 L10.7362944,1 L0,1 L3.53791309,2.60361524 C4.54610271,3.21020013 5.05019751,3.99806327 5.00857501,4.99276953 L5.40861355,19 L10.6368629,19 L24,1 L17.5600732,1 C17.9229274,1.33804777 18.1120278,1.82432412 18.0734175,2.32007747 L18.0734175,2.31775339 Z" id="Path" fill="#0095D6"/>
                        <path d="M61.1143474,1.53193961 L61.569819,1 L55.0998442,1 C55.3139159,1.21370499 55.384514,1.32288037 55.3799592,1.39256678 C55.2792562,1.62531019 55.1651904,1.85179666 55.0383555,2.07084785 L44.7560829,18.1893148 C44.5283471,18.4703833 44.2755603,18.7189315 44,19 L49.2925806,19 L49.0648448,18.4703833 C49.0898957,18.0058072 49.4018938,17.1649245 50.032722,15.9639954 L51.2716049,13.9825784 L56.7236006,13.9825784 C56.8511327,15.6457607 56.9217308,17.0232288 56.9376723,18.0452962 L56.4298214,19 L63,19 L62.1049982,17.659698 L61.1143474,1.53193961 Z M56.6029006,11.4529617 L52.6881218,11.4529617 L56.3933837,5.3786295 L56.6029006,11.4529617 Z" id="Shape" fill="#0095D6"/>
                        <path d="M40.5731009,0.00115116616 C38.5999809,-0.028588526 36.663284,0.518514277 35.0148283,1.57132274 C33.2190427,2.48024985 32.30359,3.63004264 32.2286681,5.05933051 C32.1420395,6.6953993 32.6969303,8.11787022 33.8675858,9.19494884 L37.4942768,11.5218022 C38.8007284,12.3875553 39.4141519,13.1487818 39.3673257,13.8418387 C39.3204995,14.5348956 38.948231,15.0893411 38.2669095,15.53926 C37.5723298,15.990737 36.7494304,16.219604 35.9138918,16.1936876 C34.5606139,16.1936876 32.2895421,15.3302068 29.1685744,13.7395844 L29,16.954914 C31.4396462,18.3001261 33.8301249,19 36.1854839,19 C38.4237773,19 40.3436524,18.4478268 42.0387617,17.204869 C43.8415713,16.0687101 44.7687305,14.7053194 44.8483351,13.2260406 C44.9185744,11.9785381 44.366025,10.8355623 43.0408429,9.62214458 L39.5874089,7.28620192 C38.4331426,6.41590422 37.8173777,5.65013313 37.8478148,5.05933051 C37.925078,3.69593985 38.8545786,3.01424452 40.6784599,3.01424452 C41.9193548,3.01424452 43.7057752,3.64140423 46.0634755,4.96389317 L47,1.58268433 C45.0310356,0.533894039 42.819086,-0.0104231451 40.5731009,0.00115116616 Z" id="Path" fill="#0095D6"/>
                        <path d="M25.6826154,19 C25.642772,18.2586185 25.527669,17.5869593 25.4900392,16.880439 L30.8312617,2.31775339 L32,1 L25.2819683,1 C25.3395198,1.32304713 25.3948578,1.75067786 25.4524093,2.0714009 C25.4461924,2.43205267 25.4046547,2.79107616 25.3284522,3.14280181 L20.0160054,17.5520981 L19,19 L25.6826154,19 Z" id="Path" fill="#0095D6"/>
                        <polygon id="Path" fill="#FFD520" points="10.9384019 5 0 0 11 0"/>
                    </g>
                </g>
            </g>
        </g>
    </g>
</svg>