<svg xmlns="http://www.w3.org/2000/svg" xmlns:xlink="http://www.w3.org/1999/xlink" version="1.1" id="Layer_1" x="0px" y="0px" viewBox="0 0 280 280" style="enable-background:new 0 0 280 280;" xml:space="preserve" width="280"  height="280" >
<g transform="translate(0.000000,156.000000) scale(0.100000,-0.100000)">
	<path d="M1215,604c-193-14-322-27-334-34c-31-17,14-20,116-8c146,18,663,17,806-1c104-13,131-11,111,8C1893,590,1372,616,1215,604z   "/>
	<path d="M770,561c-13-25-4-48,22-57c29-9,52,18,44,50S786,590,770,561z"/>
	<path d="M1962,568c-25-25-6-68,30-68c26,0,45,44,28,65C2005,583,1979,585,1962,568z"/>
	<path d="M585,516c-214-56-356-120-443-200C-24,164,65-7,372-129c427-169,1206-207,1758-85c384,85,610,226,610,381   c0,41-53,125-103,165c-96,76-267,147-464,194c-121,28-113,27-113,11c0-9,29-20,83-31c292-62,542-199,562-310c13-64-2-104-58-160   c-191-190-741-309-1347-293c-421,12-763,76-996,188C160-1,69,105,86,184c25,119,216,234,512,307c86,21,132,37,132,46   C730,554,736,555,585,516z"/>
	<path d="M2100,170V-40h39h40l3,52c2,29,8,53,15,55c7,3,24-19,38-47c29-57,37-63,89-58l36,3l-50,80c-27,44-50,83-50,86   c0,4,18,29,40,57c22,27,40,53,40,56s-18,6-40,6c-37,0-42-4-77-57l-38-56l-3,121l-3,122h-39h-40V170z"/>
	<path d="M430,160V-40h40h40v68c1,43,6,74,15,86c8,11,16,18,18,15c2-2,23-41,47-86l42-83h45c25,0,43,4,41,8c-1,4-29,55-61,114   l-57,106l55,80c30,44,55,83,55,86s-19,6-43,6h-43l-57-87l-57-88v88v87h-40h-40V160z"/>
	<path d="M960,315c-28-10-34-17-32-34c3-16-3-24-17-28c-29-7-29-58-1-66c18-5,20-14,20-100c0-112,10-127,83-127h47v35   c0,32-2,35-30,35h-30v80v80h30c27,0,30,3,30,30s-3,30-29,30c-27,0-30,3-33,38l-3,39L960,315z"/>
	<path d="M1375,250c-59-24-89-96-74-176c10-54,30-81,76-100c74-32,150-7,183,60c53,110-10,227-121,225C1415,259,1386,255,1375,250z    M1471,181c20-16,24-29,24-71c0-43-4-55-24-71c-26-21-58-18-78,9c-21,26-16,109,7,132C1425,205,1441,205,1471,181z"/>
	<path d="M767,243c-4-3-7-69-7-145V-40h40h40v145v145h-33C788,250,770,247,767,243z"/>
	<path d="M1207,223c-26-27-27-27-27-5c0,19-5,22-35,22h-35V100V-40h40h40v85c0,72,3,88,20,105c11,11,29,20,40,20c17,0,20,7,20,40   C1270,259,1248,264,1207,223z"/>
	<path d="M1630,105V-40h40h40v98c0,83,3,102,18,115c24,22,35,21,55-1c13-15,17-39,17-115v-97h41h41l-4,121c-3,118-4,121-31,145   c-35,30-85,31-121,3l-26-20v20c0,17-6,21-35,21h-35V105z"/>
	<path d="M1950,106V-40h40h41l-3,143l-3,142l-37,3l-38,3V106z"/>
</g>
</svg>