<svg xmlns="http://www.w3.org/2000/svg" xmlns:xlink="http://www.w3.org/1999/xlink" width="80" height="50" viewBox="0 0 80 50" version="1.1">
    <title>5597771C-2619-4E0B-91A5-6E1708142FB3</title>
    <defs>
        <radialGradient cx="49.9977613%" cy="49.9454626%" fx="49.9977613%" fy="49.9454626%" r="51.7199948%" id="radialGradient-1">
            <stop stop-color="#00B1E7" offset="0%"/>
            <stop stop-color="#00A9DD" offset="98%"/>
        </radialGradient>
        <radialGradient cx="50.0141679%" cy="50%" fx="50.0141679%" fy="50%" r="102.814241%" gradientTransform="translate(0.500142,0.500000),scale(0.368421,1.000000),translate(-0.500142,-0.500000)" id="radialGradient-2">
            <stop stop-color="#00B1E7" offset="0%"/>
            <stop stop-color="#00A9DD" offset="98%"/>
        </radialGradient>
        <radialGradient cx="50.0049227%" cy="50%" fx="50.0049227%" fy="50%" r="103.232113%" gradientTransform="translate(0.500049,0.500000),scale(0.368421,1.000000),translate(-0.500049,-0.500000)" id="radialGradient-3">
            <stop stop-color="#00B1E7" offset="0%"/>
            <stop stop-color="#00A9DD" offset="98%"/>
        </radialGradient>
        <radialGradient cx="50%" cy="50%" fx="50%" fy="50%" r="56.9636136%" gradientTransform="translate(0.500000,0.500000),scale(1.000000,0.857143),translate(-0.500000,-0.500000)" id="radialGradient-4">
            <stop stop-color="#00B1E7" offset="0%"/>
            <stop stop-color="#00A9DD" offset="98%"/>
        </radialGradient>
        <radialGradient cx="50%" cy="50%" fx="50%" fy="50%" r="143.385214%" gradientTransform="translate(0.500000,0.500000),scale(1.000000,0.285714),translate(-0.500000,-0.500000)" id="radialGradient-5">
            <stop stop-color="#00B1E7" offset="0%"/>
            <stop stop-color="#00A9DD" offset="98%"/>
        </radialGradient>
        <radialGradient cx="49.9445466%" cy="49.9341761%" fx="49.9445466%" fy="49.9341761%" r="51.6640358%" id="radialGradient-6">
            <stop stop-color="#00B1E7" offset="0%"/>
            <stop stop-color="#00A9DD" offset="98%"/>
        </radialGradient>
        <radialGradient cx="49.9858797%" cy="50.0100546%" fx="49.9858797%" fy="50.0100546%" r="108.094297%" gradientTransform="translate(0.499859,0.500101),scale(0.350000,1.000000),translate(-0.499859,-0.500101)" id="radialGradient-7">
            <stop stop-color="#00B1E7" offset="0%"/>
            <stop stop-color="#00A9DD" offset="98%"/>
        </radialGradient>
        <radialGradient cx="49.8973306%" cy="49.9635952%" fx="49.8973306%" fy="49.9635952%" r="54.7374597%" gradientTransform="translate(0.498973,0.499636),scale(1.000000,0.857143),translate(-0.498973,-0.499636)" id="radialGradient-8">
            <stop stop-color="#00B1E7" offset="0%"/>
            <stop stop-color="#00A9DD" offset="98%"/>
        </radialGradient>
        <radialGradient cx="49.9843113%" cy="50%" fx="49.9843113%" fy="50%" r="56.9187324%" gradientTransform="translate(0.499843,0.500000),scale(1.000000,0.857143),translate(-0.499843,-0.500000)" id="radialGradient-9">
            <stop stop-color="#00B1E7" offset="0%"/>
            <stop stop-color="#00A9DD" offset="98%"/>
        </radialGradient>
        <radialGradient cx="50.0146499%" cy="49.9635952%" fx="50.0146499%" fy="49.9635952%" r="54.6733079%" gradientTransform="translate(0.500146,0.499636),scale(1.000000,0.857143),translate(-0.500146,-0.499636)" id="radialGradient-10">
            <stop stop-color="#00B1E7" offset="0%"/>
            <stop stop-color="#00A9DD" offset="98%"/>
        </radialGradient>
    </defs>
    <g id="ana-sayfa-1440px" stroke="none" stroke-width="1" fill="none" fill-rule="evenodd">
        <g id="ana-sayfa-1440px-(Bu-sayfa-ölçüsü-örnek-verdiğiniz-site-baz-alınarak-belirlenmiştir.)-market.samm" transform="translate(-1470.000000, -6512.000000)">
            <g id="footer" transform="translate(0.000000, 5860.000000)">
                <g id="Group-17" transform="translate(1470.000000, 652.000000)">
                    <rect id="Rectangle-Copy-26" fill="#FFFFFF" x="0" y="0" width="80" height="50" rx="3"/>
                    <g id="americanex" transform="translate(10.000000, 15.000000)" fill-rule="nonzero">
                        <path d="M32.0040155,6.99306175 L32.0040155,5.63489878 C32.0040155,5.63489878 31.9279722,4.57161155 30.740956,4.57161155 L28.886243,4.57161155 L28.886243,7 L27,7 L27,0.00971039085 L31.5996881,0.00971039085 C31.5996881,0.00971039085 33.9996866,-0.260881465 33.9996866,2.05476038 C34.0130221,2.74440983 33.5998601,3.37939796 32.9387908,3.68524977 C32.9387908,3.68524977 33.8661473,4.08766842 33.8661473,5.26890595 L33.8661473,6.99306175 L32.0114343,6.99306175 M28.8955166,2.92898022 L30.8540935,2.92898022 C31.4234903,2.92898022 31.890878,2.63236992 31.890878,2.26637709 C31.890878,1.90038426 31.4234903,1.60550852 30.8540935,1.60550852 L28.8955166,1.60550852 L28.8955166,2.92898022 L28.8955166,2.92898022" id="Shape" fill="url(#radialGradient-1)"/>
                        <path d="M53.4789879,7 L50.5668151,2.36034483 L50.5668151,7 L46.9781857,7 L46.3304381,5.54310345 L42.9750696,5.54310345 L42.3398822,7 L39.4689787,7 C39.4689787,7 37.0000009,6.65517241 37.0000009,3.72413793 C36.9982074,-0.129310345 39.7973383,0.024137931 39.8942313,0 L42.1568621,0.0586206897 L42.1568621,1.62068966 L40.2997464,1.64482759 C40.2997464,1.64482759 39.088584,1.64482759 38.9414502,3.16034483 C38.9244003,3.32072679 38.916613,3.48189342 38.9181241,3.64310345 C38.9181241,5.98965517 41.0372098,5.26034483 41.1053937,5.23793103 L43.3787905,0.0655172414 L45.9428661,0.0655172414 L48.6917563,6.36206897 L48.6917563,0.0586206897 L51.2827467,0.0586206897 L54.1536502,4.62758621 L54.1536502,0.0586206897 L56.0000009,0.0586206897 L56.0000009,7 L53.4789879,7 M43.7591852,3.77068966 L45.542734,3.77068966 L44.6635198,1.70172414 L43.7663624,3.77068966 L43.7663624,3.77068966" id="Shape" fill="url(#radialGradient-2)"/>
                        <path d="M17.0638968,7 L17.0638968,2.16815698 L14.6676184,7 L13.0944176,7 L10.6906567,2.19076006 L10.6906567,7 L6.92133504,7 L6.25913163,5.5307998 L2.76479275,5.5307998 L2.08949493,7 L0,7 L3.18007286,0 L5.86255784,0 L8.76764793,6.4331843 L8.76764793,0 L11.7849759,0 L13.8894359,4.34674615 L15.9808014,0 L19,0 L19,7 L17.0638968,7 M3.58038791,3.74341778 L5.451019,3.74341778 L4.51570346,1.65697963 L3.58038791,3.74341778 L3.58038791,3.74341778" id="Shape" fill="url(#radialGradient-3)"/>
                        <polyline id="Path" fill="url(#radialGradient-4)" points="20 7 20 0 26 0 26 1.63437655 21.9347553 1.63437655 21.9347553 2.7123696 25.8983689 2.7123696 25.8983689 4.29980129 21.9347553 4.29980129 21.9347553 5.48559364 26 5.48559364 26 7 20 7"/>
                        <polyline id="Path" fill="url(#radialGradient-5)" points="34 7 34 0 36 0 36 7 34 7"/>
                        <path d="M38.9978936,19.9913295 L38.9978936,18.6283302 C38.9978936,18.6283302 38.9201198,17.5653295 37.734995,17.5653295 L35.894348,17.5653295 L35.894348,19.9930636 L34,19.9930636 L34,13.0098597 L38.5923587,13.0098597 C38.5923587,13.0098597 40.9996436,12.7376067 40.9996436,15.0543587 C41.0138726,15.7440539 40.6010942,16.3792938 39.9404382,16.6844088 C39.9404382,16.6844088 40.8477994,17.0849849 40.8477994,18.2659042 L40.8477994,20 L39.0071524,20 M35.894348,15.928343 L37.849804,15.928343 C38.4164418,15.928343 38.8830847,15.6335467 38.8830847,15.2659184 C38.8830847,14.8982901 38.4164418,14.6052279 37.849804,14.6052279 L35.894348,14.6052279 L35.894348,15.928343 L35.894348,15.928343" id="Shape" fill="url(#radialGradient-6)"/>
                        <path d="M25.9210204,20 L24.2397628,20 L22.2083216,17.9330223 L20.1542879,20 L13,20 L13,13.0083438 L20.0036713,13.0083438 L22.2083216,15.2279172 L24.4261508,13.0187481 L25.9003106,13.0187481 L25.9003106,13.0083438 L30.5694248,13.0083438 C30.5694248,13.0083438 33,12.7534397 33,15.0614492 C33,17.1180227 32.1923186,17.75615 29.7052622,17.75615 L27.8225548,17.75615 L27.8225548,20 L25.9210204,20 M23.5092723,16.5683315 L25.8946625,18.9959898 L25.8946625,14.1406731 L23.5092723,16.5683315 L23.5092723,16.5683315 M14.929775,18.4931178 L18.9813612,18.4931178 L20.8904264,16.5683315 L18.9907747,14.6608856 L14.929775,14.6608856 L14.929775,15.7359914 L18.8834604,15.7359914 L18.8834604,17.3191715 L14.929775,17.3191715 L14.929775,18.501788 L14.929775,18.501788 M27.8187894,15.9371403 L29.8069284,15.9371403 C30.3849195,15.9371403 30.8593618,15.6406191 30.8593618,15.2747363 C30.8593618,14.9088535 30.3849195,14.6140664 29.8069284,14.6140664 L27.8187894,14.6140664 L27.8187894,15.9371403 L27.8187894,15.9371403" id="Shape" fill="url(#radialGradient-7)"/>
                        <path d="M51.3845703,19.986101 L48.1812848,19.986101 L48.1812848,18.3755542 L50.9973599,18.3755542 C50.9973599,18.3755542 52.0041068,18.4936957 52.0041068,17.8213315 C52.0041068,17.1906644 50.4816662,17.2393109 50.4816662,17.2393109 C50.4816662,17.2393109 48,17.453008 48,15.1544607 C48,12.8559133 50.2334996,13.0018528 50.2334996,13.0018528 L53.6884717,13.0018528 L53.6884717,14.6349855 L50.9075975,14.6349855 C50.9075975,14.6349855 49.9466119,14.4456116 49.9466119,15.1336122 C49.9466119,15.7121581 51.2525667,15.6287641 51.2525667,15.6287641 C51.2525667,15.6287641 54,15.4289659 54,17.5398768 C54,19.7984645 52.2293928,20 51.6028161,20 C51.4672925,20 51.3863303,20 51.3863303,20" id="Path" fill="url(#radialGradient-8)"/>
                        <polyline id="Path" fill="url(#radialGradient-9)" points="41 20 41 13 47 13 47 14.6246269 42.9353624 14.6246269 42.9353624 15.7042289 46.898337 15.7042289 46.898337 17.2957711 42.9353624 17.2957711 42.9353624 18.481592 47 18.481592 47 20 41 20"/>
                        <path d="M58.3893935,19.986101 L55.1916203,19.986101 L55.1916203,18.3755542 L57.9832992,18.3755542 C57.9832992,18.3755542 59.001172,18.4936957 59.001172,17.8213315 C59.001172,17.1906644 57.4805157,17.2393109 57.4805157,17.2393109 C57.4805157,17.2393109 55,17.453008 55,15.1544607 C55,12.8559133 57.2343979,13.0018528 57.2343979,13.0018528 L60.6730149,13.0018528 L60.6730149,14.6349855 L57.9094638,14.6349855 C57.9094638,14.6349855 56.9531204,14.4456116 56.9531204,15.1336122 C56.9531204,15.7121581 58.2593027,15.6287641 58.2593027,15.6287641 C58.2593027,15.6287641 61,15.4289659 61,17.5398768 C61,19.7984645 59.2332259,20 58.6073835,20 C58.4720188,20 58.3893935,20 58.3893935,20" id="Path" fill="url(#radialGradient-10)"/>
                    </g>
                </g>
            </g>
        </g>
    </g>
</svg>