<svg xmlns="http://www.w3.org/2000/svg" xmlns:xlink="http://www.w3.org/1999/xlink" width="80" height="50" viewBox="0 0 80 50" version="1.1">
    <title>BE99AE0B-EA75-4C93-9465-9169C4D1CFD3</title>
    <g id="ana-sayfa-1440px" stroke="none" stroke-width="1" fill="none" fill-rule="evenodd">
        <g id="ana-sayfa-1440px-(Bu-sayfa-ölçüsü-örnek-verdiğiniz-site-baz-alınarak-belirlenmiştir.)-market.samm" transform="translate(-1070.000000, -6512.000000)">
            <g id="footer" transform="translate(0.000000, 5860.000000)">
                <g id="Group-12" transform="translate(1070.000000, 652.000000)">
                    <rect id="Rectangle-Copy-18" fill="#FFFFFF" x="0" y="0" width="80" height="50" rx="3"/>
                    <g id="Advantage" transform="translate(4.000000, 20.000000)">
                        <circle id="Oval" fill="#EB542A" fill-rule="nonzero" cx="5.5" cy="5.5" r="5.5"/>
                        <line x1="4.99401425" y1="3.99226563" x2="5.00598575" y2="4.00773438" id="Path" fill="#FFFFFF" fill-rule="nonzero"/>
                        <path d="M6.79656879,4.29140059 C6.75572963,4.21387697 6.67878565,4.16708409 6.59647052,4.16971236 C6.46795212,4.16971236 6.48259346,4.24378346 6.37034321,4.21732949 C6.25809296,4.19087553 6.35732869,3.98629822 6.22392984,3.95455346 C6.090531,3.92280871 6.10842596,4.04449694 6.00593661,4.03391535 C5.90344725,4.02333376 5.86440368,3.98982541 5.80909197,4.03391535 C5.75378025,4.07800529 5.71148306,4.04978773 5.57483058,4.09035047 C5.4381781,4.13091321 5.5666965,4.01627937 5.45769988,4.05155133 C5.34870327,4.08682328 5.44143173,4.1432584 5.29501836,4.15383998 C5.19587913,4.15889459 5.10248079,4.20572329 5.03472793,4.2843462 C4.95501399,4.3513629 4.89482183,4.34783571 4.87204641,4.46070595 C4.849271,4.57357619 4.73864757,4.62295692 4.62151687,4.66704686 C4.50438618,4.7111368 4.57433923,4.73582717 4.53204204,4.77286271 C4.48974484,4.80989826 4.49462529,4.85751539 4.53204204,4.87691497 C4.56945879,4.89631454 4.6036219,4.9245321 4.55644426,4.98096722 C4.50926662,5.03740234 4.45070128,5.00036679 4.46208898,4.93687728 C4.47347669,4.87338777 4.4214186,4.88044216 4.37424096,4.90865972 C4.32706332,4.93687728 4.36610689,4.97567643 4.39538956,5.04269314 C4.42467223,5.10970984 4.33845103,5.14498179 4.29778065,5.2790152 C4.25711027,5.41304862 4.23758848,5.32486874 4.25873708,5.2119985 C4.27012479,5.14850899 4.22620078,5.19612612 4.18227677,5.30899636 C4.13835276,5.4218666 4.18227677,5.40246703 4.21481307,5.46066575 C4.24734938,5.51886447 4.27337842,5.54884563 4.24734938,5.62820751 C4.22132033,5.7075694 4.15624772,5.71815099 4.12045779,5.81691245 C4.08466786,5.91567391 4.0033271,5.81691245 4.00007347,5.91391031 C3.99681984,6.01090818 4.10256282,5.93683708 4.13347231,5.96329104 C4.1643818,5.98974501 4.206679,6.03736214 4.1643818,6.09556086 C4.12208461,6.15375958 4.04237066,6.18726793 4.08629467,6.20314031 C4.13021868,6.21901269 4.24084212,6.20314031 4.26199071,6.2807386 C4.28313931,6.35833689 4.22294715,6.32659213 4.12371142,6.30719256 C4.02447569,6.28779299 4.04237066,6.38302726 4.08466786,6.43064439 C4.13518441,6.47446776 4.16835399,6.53755279 4.17739632,6.60700414 C4.1855304,6.68812963 4.14648683,6.64227609 4.13021868,6.57525939 C4.11395053,6.50824268 4.09442875,6.52940585 4.09768238,6.62640371 C4.10093601,6.72340158 4.08304104,6.67049365 4.10744327,6.7057656 C4.1318455,6.74103755 4.1643818,6.69342042 4.1643818,6.69342042 C4.20237686,6.72209737 4.23133688,6.76272616 4.24734938,6.80981786 C4.26524434,6.88036176 4.23596167,6.90328853 4.28801976,6.96325084 C4.33657829,7.01526243 4.37140504,7.08042023 4.3888823,7.15195578 C4.40497935,7.22521441 4.46972388,7.2732781 4.5385493,7.26306242 C4.60687554,7.26306242 4.58898057,7.29833437 4.58247331,7.34418791 C4.57596605,7.39004144 4.52390796,7.36182388 4.45883535,7.34418791 C4.39376274,7.32655193 4.39376274,7.37416907 4.46859624,7.4217862 C4.54342974,7.46940333 4.56620516,7.46763973 4.64429228,7.4217862 C4.6668108,7.40951993 4.69335364,7.40951993 4.71587215,7.4217862 C4.79233247,7.45882175 4.79721291,7.43413138 4.82974922,7.53642004 C4.86228552,7.63870869 4.77931795,7.61578193 4.81022744,7.68985302 C4.84113692,7.76392412 4.89482183,7.72688857 4.8915682,7.63870869 C4.88831456,7.55052882 4.8915682,7.53642004 4.9452531,7.58403717 C4.998938,7.6316543 4.96477488,7.64576308 5.01195252,7.78861448 C5.05913016,7.93146588 5.11281506,7.82035924 5.13884411,7.71101619 C5.16487315,7.60167315 5.18602175,7.67398064 5.26573569,7.78508729 C5.34544964,7.89619393 5.30640607,7.89443034 5.43980492,7.87503076 C5.57320376,7.85563119 5.49837026,7.85915839 5.60248644,7.8485768 C5.70660261,7.83799521 5.79933108,7.85915839 5.74727299,7.89443034 C5.70827323,7.9183598 5.66326982,7.92824077 5.61875459,7.9226479 C5.57971102,7.9226479 5.46746078,7.9226479 5.59435236,7.97379222 C5.71002255,8.00392145 5.83015035,8.00812235 5.94737126,7.98613741 C6.04660699,7.97379222 6.04660699,7.86797637 6.13282819,7.852104 C6.2190494,7.83623162 6.1653645,7.90677552 6.24670526,7.94733826 C6.32804602,7.987901 6.40938678,7.93322948 6.49398117,7.88737595 C6.57857556,7.84152241 6.56230741,7.78332369 6.62087275,7.82917723 C6.6794381,7.87503076 6.69245262,7.87150357 6.79819561,7.87503076 C6.9039386,7.87855796 6.86814866,7.85563119 6.89092408,7.82741363 C6.91369949,7.79919607 6.85838777,7.72512497 6.89092408,7.69338022 C6.92346038,7.66163546 6.93322127,7.67398064 6.98202573,7.71454339 C7.03083018,7.75510613 7.08288827,7.79390528 7.12681228,7.77274211 C7.17073629,7.75157894 7.14308043,7.73570656 7.182124,7.68103504 C7.22116756,7.62636351 7.16260221,7.58403717 7.182124,7.5646376 C7.20164578,7.54523803 7.24068934,7.5646376 7.27322565,7.60520034 C7.30576195,7.64576308 7.3643273,7.60520034 7.49447251,7.54347443 C7.62461773,7.48174851 7.54978423,7.418259 7.6002155,7.37945986 C7.65064677,7.34066071 7.68643671,7.418259 7.74825569,7.35829669 C7.81007466,7.29833437 7.74825569,7.23308126 7.81495511,7.19428212 C7.88165453,7.15548297 7.94347351,7.21544529 7.97763663,7.19428212 C7.99780622,7.17454813 8.01958644,7.15683951 8.04270924,7.14137419 C8.04942123,7.1306936 8.05540224,7.11949416 8.0606042,7.10786584 C8.0606042,7.10786584 8.0606042,7.21544529 8.11103548,7.12197462 C8.16146675,7.02850395 8.08012599,7.08493907 8.06873828,7.0637759 C8.05735057,7.04261273 8.05084331,7.02850395 8.08988688,7.00557718 C8.12893044,6.98265041 8.14194496,6.95619645 8.15983993,6.88565255 C8.1777349,6.81510865 8.18424216,6.83450822 8.25907566,6.79041828 C8.33390916,6.74632835 8.33065553,6.76220072 8.3387896,6.71458359 C8.34677032,6.65174735 8.36731296,6.59155856 8.39898177,6.53822384 C8.44290578,6.47473433 8.48520297,6.47826152 8.48682979,6.56115061 C8.4884566,6.64403969 8.41524992,6.63169451 8.42663762,6.68812963 C8.43802533,6.74456475 8.51773928,6.64051249 8.55678284,6.53469664 C8.59582641,6.42888079 8.46080074,6.41124482 8.46080074,6.33011933 C8.46080074,6.24899384 8.4770689,6.25075744 8.52099291,6.24546665 C8.56491692,6.24017586 8.59257277,6.24546665 8.60721411,6.18197714 C8.61266248,6.12248093 8.60656688,6.06240711 8.58931914,6.00561738 C8.57955825,5.93154629 8.60396048,5.91920111 8.66415264,5.93683708 C8.70948526,5.9543709 8.75965628,5.93138947 8.77965652,5.88392916 C8.80080512,5.84336641 8.79917831,5.81691245 8.74874703,5.79927647 C8.69831576,5.7816405 8.56491692,5.76929532 8.61209456,5.67935184 C8.6592722,5.58940837 8.70970347,5.70051501 8.77477608,5.62468032 C8.83984869,5.54884563 8.71133028,5.50122849 8.74223977,5.44832057 C8.77314926,5.39541264 8.86750454,5.4236302 8.91468218,5.34779551 C8.92444308,5.33192313 8.94721849,5.32134154 8.95047212,5.30899636 C8.95372575,5.29665118 8.98300842,5.30899636 8.99764976,5.17672655 C9.0122911,5.04445673 8.95535256,5.04092954 8.91468218,5.08854667 C8.8740118,5.1361638 8.94721849,5.19259892 8.93420397,5.21552569 C8.92118945,5.23845246 8.88702633,5.21552569 8.88702633,5.21552569 C8.8647506,5.20332542 8.84128743,5.19386088 8.81707327,5.18730813 C8.71133028,5.15027258 8.71133028,4.95451326 8.77152245,4.97391283 C8.83171461,4.9933124 8.83008779,5.04092954 8.89678722,4.9986032 C8.96348664,4.95627686 8.95535256,4.91747771 8.95535256,4.91747771 C8.98788887,4.72700918 8.85937047,4.62824772 8.84635595,4.56475821 C8.83334142,4.50126869 8.87075817,4.51185028 8.8626241,4.42190681 C8.85449002,4.33196333 8.75688111,4.30021858 8.75688111,4.30021858 C8.75688111,4.11327724 8.65276494,4.09564126 8.65276494,4.09564126 C8.61109181,4.089394 8.57376824,4.06442157 8.54993455,4.02683957 C8.52610086,3.98925757 8.51795802,3.9425366 8.52750017,3.89811834 C8.54497597,3.81966379 8.53390662,3.73692655 8.49659068,3.66708706 C8.44127896,3.56479841 8.4022354,3.7129406 8.26558292,3.7094134 C8.12893044,3.70588621 8.20539076,3.59830676 8.26558292,3.50836329 C8.32577508,3.41841981 8.32902871,3.33200353 8.28835833,3.33200353 C8.24768795,3.33200353 8.20213713,3.39196585 8.15495949,3.2826228 C8.12385077,3.21697141 8.06029116,3.17700727 7.99227797,3.18033415 C7.90280313,3.16269817 7.88978861,3.10273586 7.85887912,2.97928403 C7.82796963,2.8558322 7.85887912,2.84348702 7.7921797,2.82232385 C7.72548027,2.80116068 7.65878085,2.84348702 7.64576633,2.73943477 C7.64576633,2.69534483 7.64576633,2.68123605 7.6002155,2.65125489 C7.5139943,2.60011056 7.48145799,2.74648916 7.41963902,2.62303733 C7.37896864,2.54367544 7.45868258,2.52956666 7.33341781,2.48194953 C7.20815304,2.43433239 7.26997202,2.46960434 7.21791393,2.32675294 C7.16585584,2.18390154 7.01456203,2.19271953 7.01944248,2.26855423 C7.02432292,2.34438892 7.10241005,2.3549705 7.21954075,2.5754202 C7.33667144,2.79586989 6.99178662,2.4995855 6.92508719,2.39906044 C6.88345917,2.31968952 6.82824491,2.24965722 6.76240567,2.19271953 C6.71522803,2.16802917 6.72010848,2.22270069 6.6371409,2.17508356 C6.55417333,2.12746642 6.55742696,2.19448313 6.51024932,2.13981161 C6.46307168,2.08514008 6.4012527,2.04986813 6.3475678,2.08337649 C6.2938829,2.11688484 6.24507844,2.16450197 6.19302036,2.09219447 C6.14096227,2.01988697 6.08727737,1.98108783 6.04009973,2.02341417 C5.99292209,2.06574051 5.95875897,2.12570283 5.86115005,2.03752295 C5.76354114,1.94934307 5.72449758,2.03752295 5.64153,2.08866728 C5.55856243,2.13981161 5.54717472,2.13804801 5.43329766,2.12041203 C5.34558665,2.09176171 5.2504403,2.11520403 5.18276812,2.18213795 C5.13861807,2.24595005 5.0743342,2.28989797 5.00219163,2.30558977 C4.88506093,2.34086172 4.88831456,2.40258764 4.97453577,2.44491398 C5.06075698,2.48724032 5.15185863,2.55954782 5.01845978,2.54367544 C4.88506093,2.52780306 4.85577826,2.52074867 4.85577826,2.59834696 C4.85577826,2.67594525 4.96640169,2.7112172 5.01845978,2.69887202 C5.07051787,2.68652684 5.16649996,2.75177995 5.19415582,2.71827159 C5.22181168,2.68476324 5.29989881,2.67947245 5.39425409,2.66183647 C5.48860937,2.6442005 5.36659823,2.7147444 5.42516358,2.73590757 C5.54780211,2.75037897 5.67108821,2.75744428 5.79445063,2.75707074 C5.89693999,2.75707074 5.89531317,2.73238038 6.0156975,2.77647031 C6.10939435,2.8089363 6.20506646,2.83427606 6.30201697,2.85230501 C6.44517671,2.89110415 6.39799907,2.74296196 6.54278562,2.80292428 C6.68757218,2.86288659 6.60785823,2.92108531 6.54278562,2.89286775 C6.47771302,2.86465019 6.42728174,2.90521293 6.57857556,2.99162921 C6.71982099,3.04915624 6.85779958,3.11570158 6.99178662,3.19091573 C7.1993979,3.31803995 7.38717127,3.47993667 7.54815742,3.67061426 C7.63763225,3.7852481 7.60184232,3.66179627 7.69131715,3.76232133 C7.78079199,3.86284639 7.60834958,3.85931919 7.68155626,4.00569779 C7.75476295,4.15207638 7.84423778,4.10445925 7.89629587,4.24378346 C7.96963492,4.45650014 8.02463937,4.67612457 8.0606042,4.89984174 C8.07239435,5.04844237 8.09469304,5.19584213 8.12730363,5.34074112 C8.16472038,5.46772014 8.22653935,5.38483106 8.25094158,5.47477453 C8.27534381,5.564718 8.25094158,5.6370255 8.18586897,5.564718 C8.12079637,5.4924105 8.12893044,5.6387891 8.09151369,5.84689361 C8.05458466,6.05489331 7.98934141,6.25578712 7.89792268,6.44298957 C7.80375811,6.6138694 7.68388868,6.76646893 7.54327697,6.89447054 C7.47199126,6.97253217 7.3902784,7.03852374 7.30088151,7.09022986 C7.1935117,7.15371937 7.23255527,7.16782815 7.27159883,7.15195578 C7.3106424,7.1360834 7.42289265,7.11844742 7.3106424,7.19428212 C7.19839215,7.27011681 7.18863126,7.16077376 7.07475419,7.21544529 C6.93516889,7.27836708 6.78945114,7.32392388 6.64039454,7.3512423 C6.52163703,7.36711468 6.64039454,7.37416907 6.54603925,7.42531339 C6.45168397,7.47645772 6.51675658,7.37945986 6.38335773,7.38298705 C6.23533682,7.37311169 6.08867105,7.34651361 5.94574444,7.30362516 C5.73612241,7.24292736 5.54051789,7.13540013 5.37147868,6.98794121 C5.31454015,6.92621529 5.25434798,6.94561487 5.12257595,6.78689109 C4.99080392,6.62816731 5.04774245,6.54351463 4.998938,6.40066323 C4.95013354,6.25781183 4.89319501,6.33364652 4.85415145,6.14494159 C4.81510788,5.95623665 4.87530004,5.98269062 4.87530004,5.92801909 C4.86263406,5.84882361 4.85664435,5.76854261 4.85740508,5.68816983 C4.85740508,5.53473685 4.88668775,5.47477453 4.88668775,5.39188545 C4.88668775,5.30899636 4.85415145,5.41128502 4.8281224,5.5682452 C4.80209336,5.72520538 4.73376712,5.64937068 4.76304979,5.50475569 C4.79233247,5.36014069 4.79883973,5.32839593 4.90458272,5.25961563 C5.0103257,5.19083533 4.95176036,5.19965331 4.98429666,5.09383746 C5.01683297,4.98802161 5.06401061,4.98802161 5.10142736,4.89278735 C5.13884411,4.79755308 5.08027876,4.83106143 5.15673907,4.74640875 C5.23319939,4.66175607 5.24458709,4.72524558 5.3096597,4.7093732 C5.37473231,4.69350082 5.36659823,4.67762845 5.48698256,4.61766613 C5.60444587,4.56499556 5.73083091,4.53975661 5.85789642,4.54359504 C5.97763582,4.54303326 6.09654816,4.56511515 6.20928851,4.60884814 C6.3150315,4.6423565 6.33129965,4.60884814 6.41426722,4.62824772 C6.4972348,4.64764729 6.43704264,4.72877278 6.53465155,4.76580832 C6.63226046,4.80284387 6.60948505,4.67762845 6.66805039,4.7129004 C6.70219701,4.73557602 6.74400226,4.74018868 6.78166284,4.72543604 C6.81932343,4.7106834 6.84875263,4.67816633 6.8616414,4.6370657 C6.90881904,4.52772266 6.81771739,4.54006784 6.84700007,4.47481473 C6.87628274,4.40956162 6.87790955,4.39016205 6.76891294,4.44130638 C6.65991632,4.49245071 6.4972348,4.51361388 6.51350295,4.3566537 C6.5297711,4.19969352 6.59484371,4.27552821 6.67618447,4.33549053 C6.75752523,4.39545284 6.86977548,4.39368925 6.79656879,4.29140059 Z" id="Path" fill="#FFFFFF" fill-rule="nonzero"/>
                        <path d="M6.98375297,3.06289811 C7.02207174,3.05533538 7.05151563,3.02436821 7.05729216,2.98555436 C7.05245996,2.95755067 7.02828049,2.93710189 7,2.93710189 C6.97171951,2.93710189 6.94754004,2.95755067 6.94270784,2.98555436 C6.94270784,3.01821061 6.95125891,3.06289811 6.98375297,3.06289811 Z" id="Path" fill="#FFFFFF" fill-rule="nonzero"/>
                        <path d="M7.98289786,3.06445312 C8.01977023,3.0571637 8.04834309,3.02776452 8.05472684,2.99054688 C8.05472684,2.96017121 8.0302248,2.93554688 8,2.93554688 C7.9697752,2.93554688 7.94527316,2.96017121 7.94527316,2.99054688 C7.94527316,3.01460938 7.95382423,3.06445312 7.98289786,3.06445312 Z" id="Path" fill="#FFFFFF" fill-rule="nonzero"/>
                        <path d="M8.01368171,4.06226569 C8.03166215,4.06368105 8.0494465,4.05771814 8.0629796,4.04573661 C8.07651271,4.03375508 8.08464086,4.01677637 8.08551069,3.99867194 C8.08462588,3.98043018 8.07655519,3.9632919 8.06307948,3.95103873 C8.04960377,3.93878556 8.0318306,3.9324246 8.01368171,3.93335944 C7.96585568,3.94063601 7.9268887,3.9757463 7.91448931,4.02273444 C7.91448931,4.08632819 7.94869359,4.06226569 8.01368171,4.06226569 Z" id="Path" fill="#FFFFFF" fill-rule="nonzero"/>
                        <path d="M8,4.06101563 C8.0296394,4.05599866 8.0513421,4.03020688 8.0513421,4 C8.0513421,3.96979312 8.0296394,3.94400134 8,3.93898437 C7.9703606,3.94400134 7.9486579,3.96979312 7.9486579,4 C7.9486579,4.03020688 7.9703606,4.05599866 8,4.06101562 L8,4.06101563 Z" id="Path" fill="#FFFFFF" fill-rule="nonzero"/>
                        <path d="M7.9991449,7.05929688 C8.03220327,7.05929688 8.05900238,7.03236401 8.05900238,6.99914063 C8.05807661,6.96659034 8.03154675,6.94068983 7.9991449,6.94070313 C7.96703105,6.94070313 7.94099763,6.96686649 7.94099763,6.99914063 C7.9409844,7.03170421 7.96675627,7.05836649 7.9991449,7.05929688 Z" id="Path" fill="#FFFFFF" fill-rule="nonzero"/>
                        <path d="M7.94451405,6.97698018 C7.94451405,6.97698018 7.98042854,6.95807393 7.98213875,6.98729268 C7.98384897,7.01651143 8.02831452,7.02338643 8.02318388,7.06807393 C8.01805324,7.11276143 8.07620051,7.07838643 8.06080859,7.01135518 C8.04541666,6.94432393 8.04028602,6.89276143 7.99240003,6.91854268 C7.94451405,6.94432393 7.92399148,6.94260518 7.94451405,6.97698018 Z" id="Path" fill="#FFFFFF" fill-rule="nonzero"/>
                        <path d="M6.99659339,8.0790625 C7.02737723,8.0790625 7.05645087,8.006875 7.05645087,7.9759375 C7.0555593,7.94594081 7.03157173,7.92183351 7.00172403,7.9209375 C6.97094018,7.9209375 6.94357676,7.99484375 6.94357676,8.0240625 C6.94311346,8.03848895 6.94849392,8.05248704 6.95848712,8.06285409 C6.96848032,8.07322115 6.98223111,8.07907001 6.99659339,8.0790625 Z" id="Path" fill="#FFFFFF" fill-rule="nonzero"/>
                        <path d="M6.99950904,7.96346977 C6.99244321,7.97545475 6.98381583,7.98643732 6.97385583,7.99612602 C6.96017412,8.00643852 6.95846391,8.01846977 6.97385583,8.03393852 C6.98924775,8.04940727 7.02174182,8.05628227 7.03371331,8.01675102 C7.04568481,7.97721977 7.02345203,7.93425102 6.99950904,7.96346977 Z" id="Path" fill="#FFFFFF" fill-rule="nonzero"/>
                        <path d="M3.02137767,6.07820653 C3.05289076,6.08019147 3.08022118,6.05653948 3.08294537,6.02492528 C3.08294537,5.99570653 3.01453682,5.92180028 2.98033254,5.92180028 C2.94847818,5.91976444 2.92063814,5.94320631 2.91705463,5.97508153 C2.91705463,6.00430028 2.9871734,6.07820653 3.02137767,6.07820653 Z" id="Path" fill="#FFFFFF" fill-rule="nonzero"/>
                        <path d="M3.01111639,4.06273438 C3.03334917,4.06273438 3.05045131,4.03695313 3.05045131,4.00773438 C3.04493352,3.9738067 3.02019103,3.94625249 2.9871734,3.93726562 C2.96665083,3.93726562 2.94954869,3.96132812 2.94954869,3.99226562 C2.95554019,4.02538291 2.97921516,4.05248065 3.01111639,4.06273438 L3.01111639,4.06273438 Z" id="Path" fill="#FFFFFF" fill-rule="nonzero"/>
                        <path d="M50.5295568,8.34869164 L49.7397451,8.34869164 L49.7397451,4.34152972 L49.2542332,4.34152972 L49.2542332,3.59226572 L49.7397451,3.59226572 L49.7397451,1.88191309 L50.5295568,1.88191309 L50.5295568,3.59226572 L51.3603976,3.59226572 L51.3603976,4.34152972 L50.5295568,4.34152972 L50.5295568,8.34869164 Z M68.3464764,6.14291444 C68.3567337,7.01822285 68.9704618,7.7307239 69.8696846,7.7307239 C70.5415373,7.7307239 70.9757628,7.31582771 71.281772,6.75037848 L71.9553343,7.14426726 C71.5520625,7.97641027 70.7168931,8.49636428 69.8098503,8.4799879 C68.4268252,8.4799879 67.5361502,7.39635608 67.5361502,6.02912434 C67.5361502,4.62863088 68.3379287,3.45921885 69.7910453,3.45921885 C71.281772,3.45921885 72.0732932,4.72316419 71.994654,6.14116382 L68.3464764,6.14291444 Z M71.1621036,5.45492203 C71.0638738,4.75388179 70.4858568,4.22782851 69.7944644,4.21023346 C69.0957886,4.22888862 68.507012,4.74975919 68.3875056,5.45492203 L71.1621036,5.45492203 Z M64.929088,8.1158596 C64.929088,8.87387668 64.929088,9.53210861 64.4538333,10.1588294 C64.0133913,10.7085027 63.3494732,11.0187082 62.6553878,10.9991255 C61.3612592,10.9991255 60.4022022,10.1588294 60.3731399,8.81435571 L61.1629515,8.81435571 C61.1732088,9.68966412 61.7954846,10.2498615 62.64684,10.2498615 C63.8708771,10.2498615 64.1375668,9.33078767 64.1375668,8.25765956 L64.1375668,7.69045971 C63.7356448,8.18793683 63.1388757,8.47713762 62.5083666,8.4799879 C61.1544038,8.4799879 60.2945006,7.31582771 60.2945006,5.99061077 C60.2945006,4.66539384 61.1629515,3.46096946 62.5374289,3.46096946 C63.1609426,3.45419565 63.7495107,3.75522338 64.1187617,4.26975444 L64.1375668,3.59226572 L64.929088,3.59226572 L64.929088,8.1158596 Z M61.1048269,5.9205861 C61.1048269,6.85016363 61.6382061,7.7307239 62.6263255,7.7307239 C63.6435071,7.7307239 64.1785959,6.89042782 64.1785959,5.92933918 C64.1785959,4.96825055 63.5939302,4.21023346 62.6160682,4.21023346 C61.6980404,4.21023346 61.1048269,5.02952214 61.1048269,5.9205861 Z M57.7934305,8.34869164 L57.0036188,8.34869164 L57.0036188,7.69045971 C56.6137694,8.19877513 56.0140544,8.49093639 55.3829664,8.4799879 C54.0153272,8.4799879 53.1605527,7.29657092 53.1605527,5.98010707 C53.1605527,4.62512965 53.9999412,3.46096946 55.3932237,3.46096946 C56.0177409,3.46230604 56.6060611,3.76126777 56.9848138,4.26975444 L57.0053284,3.59226572 L57.79514,3.59226572 L57.7934305,8.34869164 Z M53.9691693,5.9205861 C53.9691693,6.85016363 54.5025486,7.7307239 55.490668,7.7307239 C56.5163974,7.7307239 57.0429384,6.89042782 57.0429384,5.92933918 C57.0429384,4.96825055 56.4599822,4.21023346 55.4804107,4.21023346 C54.5623829,4.21023346 53.9691693,5.02952214 53.9691693,5.9205861 Z M40.0483119,8.34869164 L39.2585002,8.34869164 L39.2585002,7.69045971 C38.8686508,8.19877513 38.2689358,8.49093639 37.6378478,8.4799879 C36.2702086,8.4799879 35.4154341,7.29657092 35.4154341,5.98010707 C35.4154341,4.62512965 36.2548227,3.46096946 37.6481051,3.46096946 C38.2726223,3.46230604 38.8609425,3.76126777 39.2396952,4.26975444 L39.2602098,3.59226572 L40.0483119,3.59226572 L40.0483119,8.34869164 Z M36.230889,5.9205861 C36.230889,6.85016363 36.7642683,7.7307239 37.7523876,7.7307239 C38.778117,7.7307239 39.3046581,6.89042782 39.3046581,5.92933918 C39.3046581,4.96825055 38.7217019,4.21023346 37.7421303,4.21023346 C36.8241025,4.21023346 36.230889,5.02952214 36.230889,5.9205861 Z M26.0300101,7.69045971 C25.6368291,8.19449084 25.0393015,8.48558653 24.4093577,8.4800672 C23.0417185,8.4800672 22.186944,7.29657092 22.186944,5.98010707 C22.186944,4.62512965 23.0263325,3.46096946 24.419615,3.46096946 C25.0441941,3.46203698 25.6326242,3.76105459 26.0112051,4.26975444 L26.0300101,0 L26.8198218,0 L26.8198218,8.34869164 L26.0300101,8.34869164 L26.0300101,7.69045971 Z M22.9887225,5.9205861 C22.9887225,6.85016363 23.5221017,7.7307239 24.5102211,7.7307239 C25.5359505,7.7307239 26.0624915,6.89042782 26.0624915,5.92933918 C26.0624915,4.96825055 25.4795353,4.21023346 24.4999638,4.21023346 C23.581936,4.21023346 22.9887225,5.02952214 22.9887225,5.9205861 Z M15.8086167,5.9205861 C15.803488,6.85541548 16.3385769,7.7307239 17.3266962,7.7307239 C18.3524256,7.7307239 18.8772571,6.89042782 18.8772571,5.92933918 C18.8772571,4.96825055 18.2943009,4.21023346 17.3164389,4.21023346 C16.3967015,4.21023346 15.803488,5.02952214 15.803488,5.9205861 L15.8086167,5.9205861 Z M19.6345873,8.34869164 L18.8430661,8.34869164 L18.8430661,7.69045971 C18.4537298,8.19943172 17.8536755,8.49175828 17.2224137,8.4799879 C15.8547745,8.4799879 15,7.29657092 15,5.98010707 C15,4.62512965 15.8410981,3.46096946 17.2343805,3.46096946 C17.8587743,3.46284245 18.4468755,3.76169293 18.8259707,4.26975444 L18.8447757,3.59226572 L19.6362969,3.59226572 L19.6345873,8.34869164 Z M31.3056783,6.79064266 L32.6887035,3.59226572 L33.5776689,3.59226572 L31.3056783,8.66905452 L29.0217209,3.59226572 L29.9209436,3.59226572 L31.3056783,6.79064266 Z M43.7956433,4.16471743 C44.1016964,3.71562298 44.604583,3.45027727 45.1393488,3.45571761 C46.4249296,3.45571761 46.7206816,4.40630255 46.7206816,5.51969485 L46.7206816,8.34869164 L45.93087,8.34869164 L45.93087,5.66674666 C45.93087,4.89822588 45.8710358,4.21023346 44.9530079,4.21023346 C43.8657348,4.21023346 43.7956433,5.24134677 43.7956433,6.09214655 L43.7956433,8.34869164 L43.0058316,8.34869164 L43.0058316,3.59226572 L43.7956433,3.59226572 L43.7956433,4.16471743 Z" id="Shape" fill="#EB542A"/>
                    </g>
                </g>
            </g>
        </g>
    </g>
</svg>