<svg xmlns="http://www.w3.org/2000/svg" xmlns:xlink="http://www.w3.org/1999/xlink" width="80" height="50" viewBox="0 0 80 50" version="1.1">
    <title>C4590609-CF83-442B-BE29-CFC429D8CB8C</title>
    <g id="ana-sayfa-1440px" stroke="none" stroke-width="1" fill="none" fill-rule="evenodd">
        <g id="ana-sayfa-1440px-(Bu-sayfa-ölçüsü-örnek-verdiğiniz-site-baz-alınarak-belirlenmiştir.)-market.samm" transform="translate(-770.000000, -6512.000000)">
            <g id="footer" transform="translate(0.000000, 5860.000000)">
                <g id="Group-9" transform="translate(770.000000, 652.000000)">
                    <rect id="Rectangle-Copy-8" fill="#FFFFFF" x="0" y="0" width="80" height="50" rx="3"/>
                    <g id="Axess" transform="translate(13.000000, 17.000000)">
                        <path d="M12,13.7048463 L7.76645161,13.7048463 L7.56903226,12.5931442 C6.57032258,13.5310481 5.27612903,14 3.68645161,14 C2.63526882,14 1.77505376,13.748621 1.10580645,13.2458629 C0.368602151,12.678093 0,11.8845154 0,10.86513 C0,9.50161545 0.637419355,8.55287628 1.91225806,8.01891253 C2.43784946,7.79440504 3.61376344,7.56296296 5.44,7.32458629 C6.71655914,7.15555556 7.35483871,6.82616233 7.35483871,6.33640662 C7.35483871,5.76690307 6.90795699,5.4821513 6.01419355,5.4821513 C5.13419355,5.4821513 4.65462366,5.81977935 4.57548387,6.49503546 L0.630967742,6.49503546 C0.630967742,4.16501182 2.51010753,3 6.2683871,3 C8.48946237,3 9.96989247,3.41044129 10.7096774,4.23132388 C11.2086022,4.78782506 11.4580645,5.81371158 11.4580645,7.30898345 L11.4580645,12.179669 C11.445365,12.4207777 11.4719538,12.6623541 11.5367742,12.8947991 C11.6277652,13.1402077 11.7889786,13.3528886 12,13.5059102 L12,13.7048463 Z M5.53935484,11.6595745 C6.86580645,11.6595745 7.46795699,10.8053191 7.34580645,9.09680851 C6.90462648,9.28591428 6.44425937,9.42587034 5.97290323,9.5141844 C5.35526882,9.64420804 4.94752688,9.76989756 4.74967742,9.89125296 C4.42098063,10.0643468 4.22020539,10.4123335 4.23354839,10.7858156 C4.23612903,11.3683215 4.67139785,11.6595745 5.53935484,11.6595745 Z" id="Shape" fill="#1D1D1B"/>
                        <polygon id="Path" fill="#1D1D1B" points="11 14 14.9935822 8.24850075 11.3184298 3 16.2255856 3 17.6272329 5.75 19.1150925 3 23.9582843 3 20.1552038 8.22651174 24 14 19.0719863 14 17.5006953 10.8514493 15.886298 14 11 14"/>
                        <path d="M33.9990393,9.43334519 L26.1230465,9.43334519 C26.1049267,9.98539339 26.3215478,10.5192339 26.7191027,10.9022642 C27.1042155,11.282141 27.6264968,11.4898609 28.1670387,11.4781324 C28.9072392,11.4781324 29.4227823,11.1748158 29.7136681,10.5681826 L33.661404,10.5681826 C33.332426,11.7571837 32.5852997,12.6498011 31.420025,13.2460349 C30.4408826,13.7495405 29.272145,14.00086 27.9138122,14 C26.1823491,14 24.7807297,13.5367855 23.7089541,12.61037 C22.5696514,11.6284908 22,10.2912979 22,8.59879122 C22,6.91841723 22.5679199,5.55479243 23.7037597,4.50791684 C24.8015073,3.50263895 26.1966337,3 27.8891389,3 C29.7937483,3 31.2949268,3.59580047 32.3926744,4.78740142 C33.490422,5.97900237 34.025877,7.52765029 33.9990393,9.43334519 Z M26.1230465,7.32876126 L29.8733956,7.32876126 C29.8732332,6.8508471 29.6753076,6.39435153 29.3266861,6.0678308 C28.9939091,5.71685401 28.5309582,5.51925128 28.0475678,5.52186092 C26.7645536,5.52186092 26.1230465,6.12416103 26.1230465,7.32876126 L26.1230465,7.32876126 Z" id="Shape" fill="#1D1D1B"/>
                        <path d="M34,10.4676752 L37.9951958,10.4676752 C37.9782676,10.8270075 38.1356439,11.1729215 38.419289,11.3998345 C38.7177925,11.63019 39.0891428,11.7498507 39.4682921,11.737856 C40.3578749,11.737856 40.802226,11.4267029 40.8013452,10.8043966 C40.8013452,10.3805697 40.2429338,10.0559824 39.126111,9.83063468 C37.4966771,9.48394595 36.4538394,9.2061616 35.9975979,8.99728165 C34.8816559,8.45384706 34.3232445,7.59969271 34.3223637,6.43481858 C34.3223637,5.23094197 34.8807751,4.32435094 35.9975979,3.7150455 C36.8854192,3.2383485 37.9956362,3 39.3282489,3 C42.6382016,3 44.3869805,4.0920695 44.5745856,6.27620849 L40.7603891,6.27620849 C40.6793578,5.60103219 40.2623108,5.26344404 39.5092481,5.26344404 C38.7165506,5.26344404 38.3202018,5.50829295 38.3202018,5.99799078 C38.3202018,6.35594689 38.8984306,6.65929953 40.0548883,6.90804869 C41.6711106,7.25473742 42.7408119,7.55809006 43.2639923,7.81810661 C44.4213308,8.38667612 45,9.2338967 45,10.3597683 C45,11.48564 44.5353911,12.3623291 43.6061734,12.9898357 C42.62499,13.6632786 41.1919689,14 39.3071103,14 C37.8811354,14 36.7242373,13.7616515 35.836416,13.2849545 C34.720474,12.6895166 34.1083353,11.7495568 34,10.4650751 L34,10.4676752 Z" id="Path" fill="#1D1D1B"/>
                        <path d="M44,10.4672577 L47.9984379,10.4672577 C47.9811833,10.8267782 48.1380858,11.1730857 48.4214131,11.4008274 C48.720466,11.6314017 49.0924775,11.7510812 49.4722422,11.7388889 C50.3604903,11.7388889 50.8046143,11.427699 50.8046143,10.8053191 C50.8046143,10.3814421 50.2459345,10.0568164 49.1285749,9.83144208 C47.5001202,9.48471237 46.4567812,9.20689519 45.998558,8.99799054 C44.8811984,8.45449173 44.3225186,7.60023641 44.3225186,6.43522459 C44.3225186,5.23120567 44.8811984,4.32450749 45.998558,3.71513002 C46.8868061,3.23837667 47.9975567,3 49.3308099,3 C52.6414724,3 54.3915325,4.09219858 54.5809901,6.27659574 L50.7583514,6.27659574 C50.6772811,5.60133964 50.2600336,5.26371158 49.506609,5.26371158 C48.7135304,5.26371158 48.3169911,5.50858944 48.3169911,5.99834515 C48.3169911,6.35634358 48.8959385,6.65973207 50.0538332,6.90851064 C51.6690699,7.25524035 52.7392854,7.55862884 53.2644797,7.81867612 C54.4214932,8.38731284 55,9.23463357 55,10.3606383 C55,11.486643 54.5351678,12.3630024 53.6055035,12.9897163 C52.6238484,13.6632388 51.1905792,14 49.3056957,14 C47.8781543,14 46.7202596,13.7616233 45.8320115,13.28487 C44.7155331,12.6910954 44.1048626,11.7518913 44,10.4672577 Z" id="Path" fill="#1D1D1B"/>
                        <polygon id="Path" fill="#FFD520" points="15 0 17.9116517 6 21 0 15 0"/>
                    </g>
                </g>
            </g>
        </g>
    </g>
</svg>