<svg xmlns="http://www.w3.org/2000/svg" xmlns:xlink="http://www.w3.org/1999/xlink" width="39" height="40" viewBox="0 0 39 40" version="1.1">
    <title>4457C109-923D-4361-BFBD-36EBA56AC124</title>
    <defs>
        <filter id="filter-1">
            <feColorMatrix in="SourceGraphic" type="matrix" values="0 0 0 0 0.666667 0 0 0 0 0.094118 0 0 0 0 0.172549 0 0 0 1.000000 0"/>
        </filter>
    </defs>
    <g id="ana-sayfa-1440px" stroke="none" stroke-width="1" fill="none" fill-rule="evenodd">
        <g id="2943415" transform="translate(-250.000000, -190.000000)" filter="url(#filter-1)">
            <g transform="translate(250.000000, 190.000000)">
                <path d="M14.065438,0 C20.0680815,0 24.9341855,4.91042532 24.9341855,10.9677419 L24.9341855,10.9677419 L24.9341855,17.0451613 C26.0985974,17.5579808 26.8515453,18.7179511 26.8521998,20 L26.8521998,20 L26.8521998,22.7290323 C28.2260333,22.0459248 29.3774246,20.98031 30.1703645,19.6580645 C30.2855334,19.4622023 30.4945041,19.3421252 30.7201953,19.3421252 C30.9458864,19.3421252 31.1548572,19.4622023 31.270026,19.6580645 C32.4005906,21.5545481 34.2469889,22.9053795 36.3847307,23.4 L36.3847307,23.4 L38.5009398,23.8709677 C38.7983296,23.9385511 39.0070716,24.2086065 38.9998166,24.516129 C38.9846272,30.401554 36.2401465,35.9405097 31.5833017,39.483871 L31.5833017,39.483871 L31.0718312,39.8709677 C30.844511,40.0430108 30.5319457,40.0430108 30.3046255,39.8709677 L30.3046255,39.8709677 L29.793155,39.483871 C28.7152156,38.6632221 27.7290798,37.7265135 26.8521998,36.6903226 L26.8521998,36.6903226 L26.8521998,36.7741935 C26.8521998,38.5557573 25.4209927,40 23.6555094,40 L23.6555094,40 L4.47536663,40 C2.70988325,40 1.27867618,38.5557573 1.27867618,36.7741935 L1.27867618,36.7741935 L1.27867618,34.8387097 L0.639338091,34.8387097 C0.286241413,34.8387097 3.55271368e-15,34.5498611 3.55271368e-15,34.1935484 L3.55271368e-15,34.1935484 L3.55271368e-15,22.5806452 C3.55271368e-15,22.2243324 0.286241413,21.9354839 0.639338091,21.9354839 L0.639338091,21.9354839 L1.27867618,21.9354839 L1.27867618,20 C1.27933073,18.7179511 2.03227862,17.5579808 3.19669045,17.0451613 L3.19669045,17.0451613 L3.19669045,10.9677419 C3.19669045,4.91042532 8.06279448,0 14.065438,0 Z M23.6555094,18.0645161 L4.47536663,18.0645161 C3.4160766,18.0645161 2.55735236,18.9310618 2.55735236,20 L2.55735236,20 L2.55735236,21.9354839 L8.31139518,21.9354839 C8.66449186,21.9354839 8.95073327,22.2243324 8.95073327,22.5806452 L8.95073327,22.5806452 L8.95073327,34.1935484 C8.95073327,34.5498611 8.66449186,34.8387097 8.31139518,34.8387097 L8.31139518,34.8387097 L2.55735236,34.8387097 L2.55735236,36.7741935 C2.55735236,37.8431318 3.4160766,38.7096774 4.47536663,38.7096774 L4.47536663,38.7096774 L23.6555094,38.7096774 C24.7147994,38.7096774 25.5735236,37.8431318 25.5735236,36.7741935 L25.5735236,36.7741935 L25.5735236,34.9935484 C23.50013,31.8991015 22.3872415,28.2515166 22.3768332,24.516129 C22.3693851,24.2086065 22.5781271,23.9385511 22.8755169,23.8709677 L22.8755169,23.8709677 L24.991726,23.3870968 C25.1899208,23.3419355 25.3817222,23.283871 25.5735236,23.2258065 L25.5735236,23.2258065 L25.5735236,20 C25.5735236,18.9310618 24.7147994,18.0645161 23.6555094,18.0645161 L23.6555094,18.0645161 Z M30.6882283,21.1548387 C29.3492681,22.9392526 27.4254795,24.1854415 25.260248,24.6709677 L25.260248,24.6709677 L23.6555094,25.0322581 C23.8268503,30.3291243 26.365501,35.2629096 30.5603607,38.4516129 L30.5603607,38.4516129 L30.6882283,38.5483871 L30.816096,38.4516129 C35.0109557,35.2629096 37.5496064,30.3291243 37.7209473,25.0322581 L37.7209473,25.0322581 L36.1098154,24.6709677 C33.946913,24.1840344 32.0255934,22.9379772 30.6882283,21.1548387 Z M13.9950506,22 C14.9907391,22 15.7979041,22.8730447 15.7979041,23.95 L15.7979041,23.95 L15.7979041,29.15 C16.8325747,29.9893393 17.2546018,31.4506283 16.8456123,32.7777402 C16.4366228,34.1048522 15.2883889,35 13.9950506,35 C13.7538284,34.9943582 13.513952,34.9594735 13.2799187,34.896 C12.1564702,34.5939043 11.293388,33.6206064 11.0611762,32.3939237 C10.8289643,31.167241 11.268927,29.9053674 12.1921971,29.15 L12.1921971,29.15 L12.1921971,23.95 C12.1921971,22.8730447 12.9993621,22 13.9950506,22 Z M33.2214501,25 L34.351182,25.556947 L33.7863161,26.6151464 C35.3991865,28.2962613 35.4052644,30.9069087 33.8002381,32.5951456 C32.1952119,34.2833826 29.524916,34.4750767 27.6836068,33.0342438 C25.8422975,31.5934108 25.456164,29.0100468 26.7991219,27.1167401 C28.1420798,25.2234335 30.7574185,24.6640566 32.7898671,25.8354206 L32.7898671,25.8354206 L33.2214501,25 Z M13.9950506,23.3 C13.6631545,23.3 13.3940995,23.5910149 13.3940995,23.95 L13.3940995,23.95 L13.3940995,29.4945 C13.3949552,29.7276451 13.2802999,29.9434284 13.0936239,30.06 C12.4854504,30.4124747 12.1166106,31.1094786 12.1436422,31.8551996 C12.1706737,32.6009207 12.5888348,33.2645499 13.2206558,33.5644395 C13.8524767,33.8643291 14.587128,33.7478746 15.1128198,33.2645 L15.1128198,33.2645 L15.1128198,33.2775 C15.5759506,32.8761221 15.8267891,32.2539249 15.7835682,31.6137291 C15.7403472,30.9735334 15.4086036,30.3973499 14.8964774,30.073 C14.7098014,29.9564284 14.595146,29.7406451 14.5960018,29.5075 L14.5960018,29.5075 L14.5960018,23.95 C14.5960018,23.5910149 14.3269468,23.3 13.9950506,23.3 Z M7.67205709,30.9677419 L1.27867618,30.9677419 L1.27867618,33.5483871 L7.67205709,33.5483871 L7.67205709,30.9677419 Z M32.2186543,26.955503 C30.9657289,26.2295798 29.3682411,26.4192569 28.3306117,27.4171483 C27.2929824,28.4150397 27.0764886,29.9698744 27.8036987,31.2013796 C28.5309088,32.4328848 30.01871,33.0309651 31.4247806,32.6570163 C32.8308512,32.2830674 33.80114,31.0312504 33.7863161,29.6102839 C33.791539,28.9697485 33.5894324,28.3439236 33.2087565,27.821865 L33.2087565,27.821865 L31.1968182,31.7452475 C31.0991921,31.9365663 30.9072397,32.0652377 30.6890735,32.0856041 L30.6890735,32.0856041 L30.6319522,32.0856041 C30.4321818,32.0856041 30.2440698,31.9938971 30.1242075,31.838072 L30.1242075,31.838072 L28.2201649,29.3627518 L29.2356543,28.6201558 L30.505016,30.2971852 Z M7.67205709,27.0967742 L1.27867618,27.0967742 L1.27867618,29.6774194 L7.67205709,29.6774194 L7.67205709,27.0967742 Z M7.67205709,23.2258065 L1.27867618,23.2258065 L1.27867618,25.8064516 L7.67205709,25.8064516 L7.67205709,23.2258065 Z M14.065438,1.29032258 C8.76898783,1.29032258 4.47536663,5.62305081 4.47536663,10.9677419 L4.47536663,10.9677419 L4.47536663,16.7741935 L7.032719,16.7741935 L7.032719,10.9677419 C7.032719,7.04830178 10.1813745,3.87096774 14.065438,3.87096774 C17.9495014,3.87096774 21.098157,7.04830178 21.098157,10.9677419 L21.098157,10.9677419 L21.098157,16.7741935 L23.6555094,16.7741935 L23.6555094,10.9677419 C23.6555094,5.62305081 19.3618882,1.29032258 14.065438,1.29032258 Z M14.065438,5.16129032 C10.8875679,5.16129032 8.31139518,7.76092726 8.31139518,10.9677419 L8.31139518,10.9677419 L8.31139518,16.7741935 L19.8194808,16.7741935 L19.8194808,10.9677419 C19.8194808,7.76092726 17.2433081,5.16129032 14.065438,5.16129032 Z" id="Combined-Shape" fill="#FFFFFF" fill-rule="nonzero"/>
            </g>
        </g>
    </g>
</svg>