<svg xmlns="http://www.w3.org/2000/svg" xmlns:xlink="http://www.w3.org/1999/xlink" width="37" height="37" viewBox="0 0 37 37" version="1.1">
    <title>19E86ADD-7465-4CC2-AE3B-C4694D5DA5EB</title>
    <defs>
        <filter id="filter-1">
            <feColorMatrix in="SourceGraphic" type="matrix" values="0 0 0 0 0.666667 0 0 0 0 0.094118 0 0 0 0 0.172549 0 0 0 1.000000 0"/>
        </filter>
    </defs>
    <g id="ana-sayfa-1440px" stroke="none" stroke-width="1" fill="none" fill-rule="evenodd">
        <g id="Group-22" transform="translate(-989.000000, -192.000000)" filter="url(#filter-1)">
            <g transform="translate(990.000000, 193.000000)" id="1585147" fill="#FFFFFF" fill-rule="nonzero">
                <path d="M34.5778184,7.55464373 L20.9731035,0.0841499883 C20.7686916,-0.0280499961 20.520839,-0.0280499961 20.3164271,0.0841499883 L15.1885412,2.89981 C15.0803388,2.9283264 14.9793322,2.98269409 14.8956486,3.060781 L6.71197868,7.55464373 C6.49370844,7.67430593 6.35805568,7.90350306 6.35805568,8.15268832 L6.35805568,17.1878522 C4.97754276,17.6195956 3.71242792,18.3810097 2.66051977,19.4331845 C-0.0813174633,22.1747552 -0.780368711,26.3562702 0.921020178,29.8382009 C1.08625531,30.1766665 1.4948125,30.3171163 1.83327805,30.1516147 C2.1720101,29.986113 2.31219342,29.5775558 2.14695829,29.2390903 C0.701417352,26.2805818 1.2954643,22.7277599 3.62527976,20.3979444 C5.08228057,18.9409437 7.01926271,18.1384872 9.07963828,18.1384872 C11.1400138,18.1384872 13.0769961,18.9409437 14.5339969,20.3979444 C15.9907311,21.8546787 16.7931876,23.791661 16.7931876,25.8520365 C16.7931876,27.9124121 15.9907311,29.8493942 14.5337304,31.306395 C12.2039149,33.6362105 8.65109296,34.2302574 5.69258451,32.7847165 C5.35411895,32.6192149 4.94556177,32.7596647 4.78032663,33.0981303 C4.614825,33.4368623 4.75500833,33.8454195 5.09374037,34.0106546 C6.36205332,34.6305529 7.72284458,34.9317072 9.07377513,34.9317072 C11.4305078,34.9317072 13.7557927,34.0141192 15.4987569,32.271155 C16.2980151,31.4718967 16.9296398,30.5497781 17.3765742,29.5474404 L20.3164271,31.1616811 C20.4187663,31.2179143 20.5317658,31.2458976 20.6447653,31.2458976 C20.7577648,31.2458976 20.8710308,31.2179143 20.9731035,31.1616811 L34.5778184,23.6914538 C34.7960887,23.5715251 34.9317414,23.342328 34.9317414,23.0934092 L34.9317414,18.3519603 C34.9317414,17.9751177 34.626323,17.6696991 34.2494802,17.6696991 C33.8726375,17.6696991 33.567219,17.9751177 33.567219,18.3519603 L33.567219,22.6896492 L21.3291586,29.4096556 L21.3291586,16.0256095 L25.3680916,13.8077276 L25.3680916,17.3235049 C25.3680916,17.5649614 25.4954826,17.7882953 25.7030925,17.9108892 C25.8102289,17.9740516 25.9301576,18.0057661 26.0503529,18.0057661 C26.1633524,18.0057661 26.2766184,17.9777827 26.379224,17.921283 L29.2945582,16.3166366 C29.5125619,16.1967079 29.6476816,15.9677773 29.6476816,15.719125 L29.6476816,11.4576575 L33.567219,9.30560313 L33.567219,12.8941372 C33.567219,13.2709799 33.8726375,13.5763984 34.2494802,13.5763984 C34.626323,13.5763984 34.9317414,13.2709799 34.9317414,12.8941372 L34.9317414,8.15268832 C34.9317414,7.90376955 34.7960887,7.67430593 34.5778184,7.55464373 Z M20.6447653,1.46039877 L32.8319226,8.15268832 L28.9875406,10.2637004 L16.8003833,3.57141088 L20.6447653,1.46039877 Z M20.6447653,14.8447113 L8.45760798,8.15268832 L12.4429728,5.96412229 L24.6303967,12.6561453 L20.6447653,14.8447113 Z M26.0476877,11.8779411 L13.8605304,5.1859181 L15.3828257,4.34988156 L27.5702496,11.0419046 L26.0476877,11.8779411 Z M15.4987569,19.4331845 C13.7840425,17.7184702 11.5043307,16.7742313 9.07963828,16.7742313 C8.62097754,16.7742313 8.16791345,16.8080779 7.72257809,16.8744384 L7.72257809,9.30560313 L19.9649027,16.0280081 L19.9649027,29.4120542 L17.8400321,28.2452809 C18.0492411,27.4750719 18.1574435,26.671816 18.1574435,25.8520365 C18.1574435,23.4273441 17.2132046,21.1476323 15.4987569,19.4331845 Z M28.2834258,15.315898 L26.7326141,16.169524 L26.7326141,13.0585728 L28.2834258,12.2070788 L28.2834258,15.315898 Z" id="Shape" stroke="#FFFFFF" stroke-width="0.5"/>
                <path d="M34.2495127,13.9716359 C34.0701526,13.9716359 33.8939906,14.0446592 33.7671327,14.1715171 C33.6402747,14.2983751 33.5672515,14.4742705 33.5672515,14.6538971 C33.5672515,14.8332572 33.6402747,15.0091527 33.7671327,15.1360106 C33.8939906,15.2631351 34.0701526,15.3358918 34.2495127,15.3358918 C34.4288727,15.3358918 34.6050348,15.2631351 34.7318926,15.1360106 C34.8587506,15.0091527 34.9317739,14.8332572 34.9317739,14.6538971 C34.9317739,14.4742705 34.8587506,14.2983751 34.7318926,14.1715171 C34.6050348,14.0446592 34.4288727,13.9716359 34.2495127,13.9716359 Z" id="Path" stroke="#FFFFFF" stroke-width="0.5"/>
                <path d="M6.78556742,25.5684774 C6.96013036,25.5684774 7.1349598,25.5018503 7.26794745,25.3688627 C7.53445573,25.1023544 7.53445573,24.6703445 7.26794745,24.4038362 L6.79542821,23.9310505 L10.8276986,23.9310505 C11.805784,23.9310505 12.6015777,24.7268442 12.6015777,25.7049297 C12.6015777,26.683015 11.805784,27.4788088 10.8276986,27.4788088 L8.43845183,27.4788088 C8.06160908,27.4788088 7.75619062,27.7842273 7.75619062,28.16107 C7.75619062,28.5376462 8.06160908,28.8430647 8.43845183,28.8430647 L10.8276986,28.8430647 C12.5581369,28.8430647 13.9661001,27.4353679 13.9661001,25.7049297 C13.9661001,23.9744914 12.5581369,22.5667946 10.8276986,22.5667946 L6.79542821,22.5667946 L7.26794745,22.0940089 C7.53445573,21.8275006 7.53445573,21.3954907 7.26794745,21.1289824 C7.00170565,20.8627406 6.56969574,20.8627406 6.30318746,21.1289824 L4.66576056,22.7664093 C4.39951876,23.0329176 4.39951876,23.4649275 4.66576056,23.7314358 L6.30318746,25.3685962 C6.4364416,25.5018503 6.61100454,25.5684774 6.78556742,25.5684774 L6.78556742,25.5684774 Z" id="Path" stroke="#FFFFFF" stroke-width="0.5"/>
                <path d="M3.14346523,31.506282 C2.9494472,31.506282 2.7567617,31.4236644 2.62217503,31.2634929 L2.62084244,31.2618939 C2.37831993,30.9735319 2.41563109,30.5433876 2.70399302,30.300865 C2.99235502,30.0580759 3.42276592,30.0953871 3.66528842,30.3837491 C3.9075445,30.6723775 3.87103282,31.1033215 3.58267089,31.345844 C3.45448035,31.4535133 3.29857302,31.506282 3.14346523,31.506282 Z" id="Path"/>
            </g>
        </g>
    </g>
</svg>