<svg xmlns="http://www.w3.org/2000/svg" xmlns:xlink="http://www.w3.org/1999/xlink" width="80" height="50" viewBox="0 0 80 50" version="1.1">
    <title>F4A1BB6C-D2AD-4019-BDB6-FB0E1254A4C8</title>
    <g id="ana-sayfa-1440px" stroke="none" stroke-width="1" fill="none" fill-rule="evenodd">
        <g id="ana-sayfa-1440px-(Bu-sayfa-ölçüsü-örnek-verdiğiniz-site-baz-alınarak-belirlenmiştir.)-market.samm" transform="translate(-570.000000, -6512.000000)">
            <g id="footer" transform="translate(0.000000, 5860.000000)">
                <g id="Group-7" transform="translate(570.000000, 652.000000)">
                    <rect id="Rectangle-Copy-6" fill="#FFFFFF" x="0" y="0" width="80" height="50" rx="3"/>
                    <g id="troy" transform="translate(15.000000, 14.000000)" fill-rule="nonzero">
                        <path d="M34.6262651,3.01188646 C36.0749398,3.01188646 37.4260241,2.97753459 38.7749398,3.02562721 C39.4971084,3.05081859 39.826747,3.42639912 39.9481928,4.21191206 C40.3146988,6.57532125 40.6595181,8.93873044 41.013012,11.3113001 C41.0281928,11.4097755 41.0498795,11.5036706 41.093253,11.7441338 C41.2342169,11.4716089 41.3209639,11.3250409 41.3860241,11.1670222 C42.3337349,8.87689706 43.2836145,6.58677187 44.2183133,4.29664669 C44.4633735,3.69434377 44.8559036,3.1515841 45.4457831,3.12868285 C46.9421687,3.04394822 48.4450602,3.10120135 50,3.10120135 C49.9024096,3.31876324 49.8221687,3.52258438 49.7224096,3.71724502 C47.2313253,8.68376317 44.7344578,13.6525714 42.2318072,18.6236698 C41.0542169,20.9527271 39.3453012,22.6359692 36.7710843,22.9153644 C35.2226506,23.0848337 33.6416867,22.9474262 32,22.9474262 C32.2016867,21.8023636 32.3708434,20.657301 32.6050602,19.5282693 C32.7416867,18.8710034 33.1840964,18.5687068 33.8412048,18.5961883 C34.4983133,18.6236698 35.1142169,18.607639 35.7518072,18.5961883 C37.3891566,18.5755772 38.3845783,17.1854712 37.9421687,15.5251305 C36.8881928,11.5845884 35.8363855,7.64633646 34.786747,3.71037464 C34.7346988,3.50884363 34.693494,3.31418299 34.6262651,3.01188646 Z" id="Path" fill="#455661"/>
                        <path d="M2.05442177,7.12225168 L0,7.12225168 C0.22675737,5.93444729 0.426303855,4.82115462 0.639455782,3.65745696 C1.19501134,3.65745696 1.69160998,3.63773328 2.18820862,3.65745696 C2.569161,3.67718065 2.7324263,3.56322156 2.79365079,3.17313082 C2.9478458,2.12996682 3.17460317,1.09556891 3.36281179,0.0151490477 C4.36054422,0.0151490477 5.31746032,-0.0264898514 6.26984127,0.0282981738 C7.22222222,0.083086199 7.60090703,0.560837779 7.50113379,1.47689356 C7.42857143,2.17379724 7.27437642,2.86412636 7.15873016,3.62896719 L10,3.62896719 C9.77324263,4.83868679 9.57596372,5.96512859 9.36507937,7.12225168 L6.49206349,7.12225168 C6.22902494,8.65631639 5.93650794,10.1903811 5.72562358,11.7025306 C5.62811791,12.4169664 6.11564626,12.8837604 6.9569161,13.0349754 C7.36054422,13.1094871 7.7755102,13.1335938 8.26303855,13.1883818 C8.03628118,14.3893353 7.83900227,15.5705652 7.59410431,16.7430289 C7.569161,16.8591795 7.28798186,17.0103945 7.14058957,16.9994369 C6.14965986,16.9336912 5.13378685,16.9336912 4.17687075,16.7079646 C1.81405896,16.1535098 0.764172336,14.4945284 1.17460317,12.1693246 C1.42857143,10.7251122 1.70521542,9.28309139 1.96825397,7.84107057 C2.00680272,7.62630151 2.02040816,7.40714941 2.05442177,7.12225168 Z" id="Path" fill="#455661"/>
                        <path d="M9,17 C9.75272162,12.3898779 10.502592,7.79589133 11.2496112,3.21804013 C12.2888802,3.21804013 13.2875194,3.16732879 14.277605,3.23648062 C14.8485614,3.27797172 15.1329705,3.74359405 15.1329705,4.41206174 C15.1180016,4.95605614 15.0196345,5.49774549 14.970451,5.9287919 C15.6440513,5.25340902 16.31979,4.45355284 17.1088647,3.81966106 C17.9377123,3.1552875 18.9794935,2.877868 20,3.04977068 C19.751944,4.58647803 19.5117289,6.07324239 19.2793546,7.51006376 C18.5758165,7.57460547 17.9214619,7.55385992 17.3034603,7.70829901 C15.7424184,8.09785432 14.7608865,9.22733422 14.3930793,10.8616225 C13.9996112,12.6042486 13.7515552,14.3837557 13.4500389,16.1494325 C13.4029938,16.4191246 13.3559487,16.6888168 13.3024883,17 L9,17 Z" id="Path" fill="#455661"/>
                        <path d="M28,3.0356486 C27.7861094,4.35591455 27.4331898,7.34728635 27.4331898,7.34728635 C27.4331898,7.34728635 27.0439088,7.38190871 26.9497969,7.4096066 C25.9295385,7.72351598 25.2814499,8.4298121 25.0761149,9.52157049 C24.8515297,10.7171959 25.2279772,11.7143199 26.1455681,12.4713955 C26.2075964,12.5221749 26.5220156,12.8014619 26.5220156,12.8014619 C26.5220156,12.8014619 26.0429006,15.6751177 25.8375656,17 C22.5748411,16.0105842 20.5286968,12.5252822 21.093471,8.91914144 C21.7501153,4.72752786 25.2900055,2.70096579 28,3.0356486 Z" id="Path" fill="#2EB7C5"/>
                        <path d="M27,17.943441 C27.1966181,16.6722441 27.4274307,15.4524559 27.6197746,14.2233206 C27.6518319,14.0270329 27.7159465,13.6508147 27.7159465,13.6508147 C27.8323164,13.6356142 27.9478803,13.6137747 28.0621654,13.5853854 C29.0249403,13.3313762 29.7559272,12.4732529 29.9193518,11.4051893 C30.1330672,10.1854011 29.7782997,9.19461526 28.850775,8.44685238 C28.7656567,8.4098749 28.676622,8.38475223 28.585768,8.37207609 C28.585768,8.37207609 29.0367074,5.28989097 29.2269141,4 C31.5158056,4.34584033 34.0996243,7.31352426 33.997041,10.9355007 C33.8602631,15.7842756 29.9343119,18.4271501 27,17.943441 Z" id="Path" fill="#2EB7C5"/>
                    </g>
                </g>
            </g>
        </g>
    </g>
</svg>