<svg xmlns:xlink="http://www.w3.org/1999/xlink" xmlns="http://www.w3.org/2000/svg" version="1.0" width="500" height="500" viewBox="0 0 500.000000 500.000000" preserveAspectRatio="xMidYMid meet">

<g transform="translate(0.000000,500.000000) scale(0.100000,-0.100000)" fill="#000000" stroke="none">
<path d="M1612 2498 l3 -883 883 -3 c485 -1 882 1 882 5 0 10 -1753 1763 -1763 1763 -4 0 -6 -397 -5 -882z"/>
<path d="M2977 2979 c-224 -221 -407 -407 -405 -413 2 -6 186 -193 411 -415 l407 -405 0 817 c0 449 -1 817 -2 817 -2 0 -187 -181 -411 -401z"/>
</g>
</svg>