<svg data-name="katman 1" id="katman_1" viewBox="0 0 50 50" xmlns="http://www.w3.org/2000/svg" xmlns:xlink="http://www.w3.org/1999/xlink" width="65"  height="65" ><defs>
<style type="text/css">.guvenli-g-1{fill:url(#Adsız_degrade_5);}.guvenli-g-2{fill:url(#Adsız_degrade_5-2);}
</style>
<linearGradient gradientUnits="userSpaceOnUse" id="Adsız_degrade_5" x1="4.05" x2="43.24" y1="26.46" y2="26.46"><stop offset="0" stop-color="#ef7c01"></stop><stop offset="1" stop-color="#f89a03"></stop></linearGradient><linearGradient id="Adsız_degrade_5-2" x1="34.77" x2="45.38" xlink:href="#Adsız_degrade_5" y1="26.48" y2="26.48"></linearGradient></defs><path class="guvenli-g-1" d="M42.77,34c-.23-.23-.52-.18-.8-.19a27.64,27.64,0,0,1-4-.12,7.85,7.85,0,0,1-4.81-2.79,8.89,8.89,0,0,1-1.41-3,9.59,9.59,0,0,1,0-2.51l.45-1.7a15.17,15.17,0,0,1,1-1.73c.47-.39.74-1,1.3-1.31a8.17,8.17,0,0,1,2.9-1.34l.64-.09c1.36-.15,2.72,0,4.07-.08a1,1,0,0,0,1.11-1,3.76,3.76,0,0,0-.09-.65,5.57,5.57,0,0,0-.37-1.71,5.1,5.1,0,0,0-.63-1.61,4.71,4.71,0,0,0-.8-1.32A7.22,7.22,0,0,0,39.63,11a9.91,9.91,0,0,0-6.17-2.1c-6.26,0-12.52,0-18.78,0a13.56,13.56,0,0,0-3,.31,9.05,9.05,0,0,0-5.56,3.53l.14.06-.14-.06a5.86,5.86,0,0,0-.88,1.41,6.55,6.55,0,0,0-.62,1.61,5.54,5.54,0,0,0-.35,1.71A5.55,5.55,0,0,0,4.09,19v1.51h0V31c0,1,0,2.08,0,3.12a8.87,8.87,0,0,0,.85,3.65,8.83,8.83,0,0,0,2.32,3.34c.06.06.1.13.16.18a10.13,10.13,0,0,0,7,2.71H33a13.28,13.28,0,0,0,2.36-.21A9.42,9.42,0,0,0,40.56,41a8.17,8.17,0,0,0,2.09-3.46,8.82,8.82,0,0,0,.58-2.73A.8.8,0,0,0,42.77,34Z" fill="url(&quot;#Adsız_degrade_5&quot;)"></path><path class="guvenli-g-2" d="M45.35,25.35a3.65,3.65,0,0,0-.18-1.82,1.94,1.94,0,0,0-1.9-1.3c-1.49,0-3,0-4.48,0A3.66,3.66,0,0,0,36,23.53a3.48,3.48,0,0,0-1.07,1.8,3.7,3.7,0,0,0,.14,2.58,4,4,0,0,0,3.31,2.67,26.43,26.43,0,0,0,5.11.08A2,2,0,0,0,45.32,29a4.39,4.39,0,0,0,0-1.2Z" fill="url(&quot;#Adsız_degrade_5-2&quot;)"></path></svg>