<svg data-name="katman 1" id="katman_1" viewBox="0 0 50 50" xmlns="http://www.w3.org/2000/svg" xmlns:xlink="http://www.w3.org/1999/xlink" width="65"  height="65" ><defs>
<style type="text/css">.guvenli-g-1{fill:url(#Adsız_degrade_5);}.guvenli-g-2{fill:url(#Adsız_degrade_5-2);}
</style>
<linearGradient gradientUnits="userSpaceOnUse" id="Adsız_degrade_5" x1="2.12" x2="43.06" y1="25.93" y2="25.93"><stop offset="0" stop-color="#ef7c01"></stop><stop offset="1" stop-color="#f89a03"></stop></linearGradient><linearGradient id="Adsız_degrade_5-2" x1="34.7" x2="47.88" xlink:href="#Adsız_degrade_5" y1="29.83" y2="29.83"></linearGradient></defs><path class="guvenli-g-1" d="M26.31,35.06v1.71c1.3.38,2.58.73,3.85,1.11a7.15,7.15,0,0,1,.77.29c1.64.68,1.53,1.31,1.46,2.65A1.43,1.43,0,0,1,31,42.1a5.62,5.62,0,0,1-.58,0H14.74c-1.19,0-1.76-.36-2-1.21-.28-1.32,0-2.15,1.13-2.57,1.38-.52,2.81-.9,4.22-1.33.24-.07.49-.1.75-.16V35.06H7.3a4.88,4.88,0,0,1-4.95-3.43,5,5,0,0,1-.22-1.43q0-7.83,0-15.65a4.81,4.81,0,0,1,4.63-4.8H37.86a4.8,4.8,0,0,1,5,3.7A6.3,6.3,0,0,1,43.05,15q0,7.44,0,14.88a4.86,4.86,0,0,1-3.71,5.05,6.89,6.89,0,0,1-1.63.17c-3.55,0-7.09,0-10.63,0Z" fill="url(&quot;#Adsız_degrade_5&quot;)"></path><path class="guvenli-g-2" d="M47.88,29.83v12c0,1-.4,1.41-1.4,1.41H36.14c-1,0-1.44-.4-1.44-1.43V17.86c0-1,.4-1.43,1.44-1.43H46.48c1,0,1.4.4,1.4,1.4Z" fill="url(&quot;#Adsız_degrade_5-2&quot;)"></path></svg>