<svg xmlns:xlink="http://www.w3.org/1999/xlink" fill="#fff" height="15.75" viewBox="0 0 18 15.75" width="18" xmlns="http://www.w3.org/2000/svg"> <path d="M.643,7.112H17.357A.643.643,0,0,0,18,6.469V4.862a.643.643,0,0,0-.643-.643H.643A.643.643,0,0,0,0,4.862V6.469A.643.643,0,0,0,.643,7.112Zm0,6.429H17.357A.643.643,0,0,0,18,12.9V11.29a.643.643,0,0,0-.643-.643H.643A.643.643,0,0,0,0,11.29V12.9A.643.643,0,0,0,.643,13.54Zm0,6.429H17.357A.643.643,0,0,0,18,19.326V17.719a.643.643,0,0,0-.643-.643H.643A.643.643,0,0,0,0,17.719v1.607A.643.643,0,0,0,.643,19.969Z" data-name="Icon awesome-bars" id="Icon_awesome-bars" transform="translate(0 -4.219)" fill="#FFFFFF"></path> </svg>