<svg data-name="katman 1" id="katman_1" viewBox="0 0 50 50" xmlns="http://www.w3.org/2000/svg" xmlns:xlink="http://www.w3.org/1999/xlink" width="65"  height="65" ><defs>
<style type="text/css">.guvenli-g-1{fill:url(#Adsız_degrade_5);}.guvenli-g-2{fill:url(#Adsız_degrade_8);}.cls-3{fill:url(#Adsız_degrade_5-2);}
</style>
<linearGradient gradientUnits="userSpaceOnUse" id="Adsız_degrade_5" x1="20.77" x2="45.36" y1="24.55" y2="24.55"><stop offset="0" stop-color="#ef7c01"></stop><stop offset="1" stop-color="#f89a03"></stop></linearGradient><linearGradient gradientUnits="userSpaceOnUse" id="Adsız_degrade_8" x1="11.78" x2="44.58" y1="24.73" y2="24.73"><stop offset="0" stop-color="#f89a03"></stop><stop offset="1" stop-color="#ef7c01"></stop></linearGradient><linearGradient id="Adsız_degrade_5-2" x1="1.5" x2="44.87" xlink:href="#Adsız_degrade_5" y1="16.99" y2="16.99"></linearGradient></defs><path class="guvenli-g-1" d="M44.87,2.79a2.06,2.06,0,0,1,.49.71v.6a1.61,1.61,0,0,0-.17.65l-3,15.55q-1.17,6.15-2.35,12.29c-.78,4.13-1.58,8.25-2.35,12.37a1.57,1.57,0,0,1-1.07,1.36h-.51c-.29-.16-.59-.3-.86-.47L27.5,41.19,20.77,37a.56.56,0,0,1,.15-.35l1.13-1.6L27.78,27c1.6-2.26,3.19-4.54,4.79-6.8,2.21-3.14,4.44-6.27,6.66-9.4C40.51,9,41.81,7.19,43.08,5.36a23.83,23.83,0,0,0,1.5-2.21h0c.08,0,.09-.1.09-.17A.34.34,0,0,1,44.87,2.79Z" fill="url(&quot;#Adsız_degrade_5&quot;)"></path><path class="guvenli-g-2" d="M44.58,3.15a23.83,23.83,0,0,1-1.5,2.21C41.81,7.19,40.51,9,39.23,10.8c-2.22,3.13-4.45,6.26-6.66,9.4-1.6,2.26-3.19,4.54-4.79,6.8l-5.73,8.08-1.13,1.6a.56.56,0,0,0-.15.35c-.19,0-.25.22-.35.35-2,2.65-4,5.3-6,8a3,3,0,0,1-1,1h-.6a1.53,1.53,0,0,1-1-1.66c0-4.38,0-8.77,0-13.15,1.1-1,2.21-1.89,3.3-2.84,1.64-1.42,3.26-2.86,4.89-4.27l6.82-5.9c1.83-1.59,3.66-3.2,5.5-4.79,2-1.78,4.09-3.53,6.14-5.31C40.07,7,41.7,5.53,43.35,4.11A4.75,4.75,0,0,1,44.58,3.15Z" fill="url(&quot;#Adsız_degrade_5-2&quot;)"></path><path class="cls-3" d="M44.58,3.15a4.75,4.75,0,0,0-1.23,1C41.7,5.53,40.07,7,38.43,8.4c-2,1.78-4.1,3.53-6.14,5.31-1.84,1.59-3.67,3.2-5.5,4.79L20,24.4c-1.63,1.41-3.25,2.85-4.89,4.27-1.09.95-2.2,1.89-3.3,2.84-3.18-2-6.37-3.9-9.55-5.87a1.29,1.29,0,0,1,.2-2.41l10.05-5.05L43.29,2.72a1.28,1.28,0,0,1,1.58.07.34.34,0,0,0-.2.19.18.18,0,0,0-.09.17Z" fill="url(&quot;#Adsız_degrade_5-2&quot;)"></path></svg>