<svg data-name="katman 1" id="katman_1" viewBox="0 0 50 50" xmlns="http://www.w3.org/2000/svg" xmlns:xlink="http://www.w3.org/1999/xlink" width="65"  height="65" ><defs>
<style type="text/css">.guvenli-g-1{fill:url(#Adsız_degrade_5);}.guvenli-g-2{fill:url(#Adsız_degrade_5-2);}
</style>
<linearGradient gradientUnits="userSpaceOnUse" id="Adsız_degrade_5" x1="7.95" x2="42.19" y1="26.78" y2="26.78"><stop offset="0" stop-color="#ef7c01"></stop><stop offset="1" stop-color="#f89a03"></stop></linearGradient><linearGradient id="Adsız_degrade_5-2" x1="9.79" x2="40.35" xlink:href="#Adsız_degrade_5" y1="14.84" y2="14.84"></linearGradient></defs><path class="guvenli-g-1" d="M29.55,28.5c0,.08,0,.11,0,.14a2.39,2.39,0,0,0,1.71,2.76c1.54.68,3.11,1.31,4.65,2A17.22,17.22,0,0,1,40,35.93a5.9,5.9,0,0,1,2.06,6,3.66,3.66,0,0,1-1.72,2.33A12,12,0,0,1,36,45.88,47.22,47.22,0,0,1,26,46.69c-2.65,0-5.31-.07-8-.26a19.31,19.31,0,0,1-6.92-1.6,4.71,4.71,0,0,1-3-3.31,5,5,0,0,1,1.66-5A19.29,19.29,0,0,1,13,34.15c1.82-1,3.73-1.87,5.61-2.79.31-.16.64-.29.94-.47a2.16,2.16,0,0,0,.83-3.07,6.36,6.36,0,0,0-.7-1A16.34,16.34,0,0,1,16.1,19a11.84,11.84,0,0,1,1.06-7.74A8.3,8.3,0,0,1,23.66,7a10.19,10.19,0,0,1,5.19.54,8.36,8.36,0,0,1,5.24,6.66,14.36,14.36,0,0,1-1.26,8.91.69.69,0,0,1-.4.35,10,10,0,0,1-1.44.33.88.88,0,0,1-.44-.1,3.82,3.82,0,0,0-1.07-.38,15.6,15.6,0,0,0-2.82,0,2.52,2.52,0,0,0-2,2.76,2.6,2.6,0,0,0,2.48,2.41C27.93,28.52,28.73,28.5,29.55,28.5Z" fill="url(&quot;#Adsız_degrade_5&quot;)"></path><path class="guvenli-g-2" d="M35.69,23.33c0-.48-.09-.88-.1-1.27,0-1.33,0-2.66,0-4a2.45,2.45,0,0,1,1.09-2.22.51.51,0,0,0,.17-.39,11.81,11.81,0,0,0-23.42-1.1c0,.11-.06.22-.07.33-.07.57-.19,1.1.48,1.52a1.89,1.89,0,0,1,.7,1.7c0,1.49,0,3,0,4.47a2.31,2.31,0,0,1-2.08,2.36,2.35,2.35,0,0,1-2.61-1.83,2.29,2.29,0,0,1,0-.52c0-1.49,0-3,0-4.47a2.43,2.43,0,0,1,1.05-2.05.78.78,0,0,0,.29-.48A13.59,13.59,0,0,1,18.08,4.31a13.93,13.93,0,0,1,20.58,8.85c.17.73.22,1.49.35,2.22a.69.69,0,0,0,.24.46A2.47,2.47,0,0,1,40.35,18c0,1.44,0,2.88,0,4.32A2.35,2.35,0,0,1,37,24.54a.6.6,0,0,0-.64.06,12.61,12.61,0,0,1-5.62,1.89,1.92,1.92,0,0,0-.56.27,4.24,4.24,0,0,1-1.05.47,13,13,0,0,1-1.87,0,1.36,1.36,0,0,1-1.37-1.33,1.39,1.39,0,0,1,1.27-1.43,15.89,15.89,0,0,1,2.07,0,1.09,1.09,0,0,1,.69.28,1,1,0,0,0,.94.28A11.35,11.35,0,0,0,35.69,23.33Z" fill="url(&quot;#Adsız_degrade_5-2&quot;)"></path></svg>