<svg xmlns:xlink="http://www.w3.org/1999/xlink" xmlns="http://www.w3.org/2000/svg" width="21" height="16" viewBox="0 0 21 16" fill="none">
<path fill-rule="evenodd" clip-rule="evenodd" d="M3.11969 1.33002H6.93807C7.30542 1.33002 7.60308 1.03227 7.60308 0.665008C7.60308 0.297746 7.30542 0 6.93807 0H3.11969C2.75234 0 2.45468 0.297746 2.45468 0.665008C2.45468 1.03227 2.75234 1.33002 3.11969 1.33002ZM0.665008 2.72742H20.0294C20.3967 2.72742 20.6944 3.02517 20.6944 3.39243V14.9021C20.6944 15.2694 20.3968 15.5671 20.0294 15.5671H0.665008C0.297658 15.5671 0 15.2694 0 14.9021V3.39243C0 3.02517 0.297658 2.72742 0.665008 2.72742ZM1.33002 14.237H19.3644V4.05744H1.33002V14.237ZM3.11969 9.81215H6.93807C7.30542 9.81215 7.60308 9.5144 7.60308 9.14714C7.60308 8.77988 7.30542 8.48213 6.93807 8.48213H3.11969C2.75234 8.48213 2.45468 8.77988 2.45468 9.14714C2.45468 9.5144 2.75234 9.81215 3.11969 9.81215ZM15.0006 9.81215H13.7564C13.389 9.81215 13.0913 9.5144 13.0913 9.14714C13.0913 8.77988 13.389 8.48213 13.7564 8.48213H15.0006V7.23804C15.0006 6.87077 15.2983 6.57303 15.6656 6.57303C16.033 6.57303 16.3306 6.87077 16.3306 7.23804V8.48213H17.5747C17.9421 8.48213 18.2398 8.77988 18.2398 9.14714C18.2398 9.5144 17.9421 9.81215 17.5747 9.81215H16.3306V11.0564C16.3306 11.4237 16.033 11.7214 15.6656 11.7214C15.2983 11.7214 15.0006 11.4237 15.0006 11.0564V9.81215ZM17.5747 1.33002H13.7564C13.389 1.33002 13.0913 1.03227 13.0913 0.665008C13.0913 0.297746 13.389 0 13.7564 0H17.5747C17.9421 0 18.2398 0.297746 18.2398 0.665008C18.2398 1.03227 17.9421 1.33002 17.5747 1.33002Z" fill="#434343"/>
</svg>