<svg xmlns:xlink="http://www.w3.org/1999/xlink" xmlns="http://www.w3.org/2000/svg" width="21" height="21" viewBox="0 0 21 21" fill="none">
<path fill-rule="evenodd" clip-rule="evenodd" d="M21 7.7C21 8.2799 20.5299 8.75 19.95 8.75H18.9V9.45H19.95C20.5299 9.45 21 9.9201 21 10.5C21 11.0799 20.5299 11.55 19.95 11.55H18.9V12.25H19.95C20.5299 12.25 21 12.7201 21 13.3C21 13.8799 20.5299 14.35 19.95 14.35H18.9V15.05H19.95C20.5299 15.05 21 15.5201 21 16.1C21 16.6799 20.5299 17.15 19.95 17.15H18.9V17.85C18.8993 17.9428 18.863 18.0318 18.7985 18.0985L18.0985 18.7985C18.0318 18.863 17.9428 18.8993 17.85 18.9H17.15V19.95C17.15 20.5299 16.6799 21 16.1 21C15.5201 21 15.05 20.5299 15.05 19.95V18.9H14.35V19.95C14.35 20.5299 13.8799 21 13.3 21C12.7201 21 12.25 20.5299 12.25 19.95V18.9H11.55V19.95C11.55 20.5299 11.0799 21 10.5 21C9.9201 21 9.45 20.5299 9.45 19.95V18.9H8.75V19.95C8.75 20.5299 8.2799 21 7.7 21C7.1201 21 6.65 20.5299 6.65 19.95V18.9H5.95V19.95C5.95 20.5299 5.4799 21 4.9 21C4.3201 21 3.85 20.5299 3.85 19.95V18.9H3.15C3.05721 18.8993 2.96824 18.863 2.9015 18.7985L2.2015 18.0985C2.13703 18.0318 2.10069 17.9428 2.1 17.85V17.15H1.05C0.470101 17.15 0 16.6799 0 16.1C0 15.5201 0.470101 15.05 1.05 15.05H2.1V14.35H1.05C0.470101 14.35 0 13.8799 0 13.3C0 12.7201 0.470101 12.25 1.05 12.25H2.1V11.55H1.05C0.470101 11.55 0 11.0799 0 10.5C0 9.9201 0.470101 9.45 1.05 9.45H2.1V8.75H1.05C0.470101 8.75 0 8.2799 0 7.7C0 7.1201 0.470101 6.65 1.05 6.65H2.1V5.95H1.05C0.470101 5.95 0 5.4799 0 4.9C0 4.3201 0.470101 3.85 1.05 3.85H2.1V3.15C2.10069 3.05721 2.13703 2.96824 2.2015 2.9015L2.9015 2.2015C2.96824 2.13703 3.05721 2.10069 3.15 2.1H3.85V1.05C3.85 0.470101 4.3201 0 4.9 0C5.4799 0 5.95 0.470101 5.95 1.05V2.1H6.65V1.05C6.65 0.470101 7.1201 0 7.7 0C8.2799 0 8.75 0.470101 8.75 1.05V2.1H9.45V1.05C9.45 0.470101 9.9201 0 10.5 0C11.0799 0 11.55 0.470101 11.55 1.05V2.1H12.25V1.05C12.25 0.470101 12.7201 0 13.3 0C13.8799 0 14.35 0.470101 14.35 1.05V2.1H15.05V1.05C15.05 0.470101 15.5201 0 16.1 0C16.6799 0 17.15 0.470101 17.15 1.05V2.1H17.85C17.9428 2.10069 18.0318 2.13703 18.0985 2.2015L18.7985 2.9015C18.863 2.96824 18.8993 3.05721 18.9 3.15V3.85H19.95C20.5299 3.85 21 4.3201 21 4.9C21 5.4799 20.5299 5.95 19.95 5.95H18.9V6.65H19.95C20.5299 6.65 21 7.1201 21 7.7ZM19.95 4.55H18.9V5.25H19.95C20.1433 5.25 20.3 5.0933 20.3 4.9C20.3 4.7067 20.1433 4.55 19.95 4.55ZM18.9 7.35H19.95C20.1433 7.35 20.3 7.5067 20.3 7.7C20.3 7.8933 20.1433 8.05 19.95 8.05H18.9V7.35ZM1.05 16.45H2.1V15.75H1.05C0.8567 15.75 0.7 15.9067 0.7 16.1C0.7 16.2933 0.8567 16.45 1.05 16.45ZM2.1 13.65H1.05C0.8567 13.65 0.7 13.4933 0.7 13.3C0.7 13.1067 0.8567 12.95 1.05 12.95H2.1V13.65ZM1.05 10.85H2.1V10.15H1.05C0.8567 10.15 0.7 10.3067 0.7 10.5C0.7 10.6933 0.8567 10.85 1.05 10.85ZM2.1 8.05H1.05C0.8567 8.05 0.7 7.8933 0.7 7.7C0.7 7.5067 0.8567 7.35 1.05 7.35H2.1V8.05ZM1.05 5.25H2.1V4.55H1.05C0.8567 4.55 0.7 4.7067 0.7 4.9C0.7 5.0933 0.8567 5.25 1.05 5.25ZM15.75 1.05C15.75 0.8567 15.9067 0.7 16.1 0.7C16.2933 0.7 16.45 0.8567 16.45 1.05V2.1H15.75V1.05ZM13.3 0.7C13.1067 0.7 12.95 0.8567 12.95 1.05V2.1H13.65V1.05C13.65 0.8567 13.4933 0.7 13.3 0.7ZM10.15 1.05C10.15 0.8567 10.3067 0.7 10.5 0.7C10.6933 0.7 10.85 0.8567 10.85 1.05V2.1H10.15V1.05ZM7.7 0.7C7.5067 0.7 7.35 0.8567 7.35 1.05V2.1H8.05V1.05C8.05 0.8567 7.8933 0.7 7.7 0.7ZM4.55 1.05C4.55 0.8567 4.7067 0.7 4.9 0.7C5.0933 0.7 5.25 0.8567 5.25 1.05V2.1H4.55V1.05ZM4.9 20.3C5.0933 20.3 5.25 20.1433 5.25 19.95V18.9H4.55V19.95C4.55 20.1433 4.7067 20.3 4.9 20.3ZM8.05 19.95C8.05 20.1433 7.8933 20.3 7.7 20.3C7.5067 20.3 7.35 20.1433 7.35 19.95V18.9H8.05V19.95ZM10.5 20.3C10.6933 20.3 10.85 20.1433 10.85 19.95V18.9H10.15V19.95C10.15 20.1433 10.3067 20.3 10.5 20.3ZM13.65 19.95C13.65 20.1433 13.4933 20.3 13.3 20.3C13.1067 20.3 12.95 20.1433 12.95 19.95V18.9H13.65V19.95ZM16.1 20.3C16.2933 20.3 16.45 20.1433 16.45 19.95V18.9H15.75V19.95C15.75 20.1433 15.9067 20.3 16.1 20.3ZM18.2 17.7065L17.7065 18.2H3.2935L2.8 17.7065V3.2935L3.2935 2.8H17.7065L18.2 3.2935V17.7065ZM20.3 16.1C20.3 15.9067 20.1433 15.75 19.95 15.75H18.9V16.45H19.95C20.1433 16.45 20.3 16.2933 20.3 16.1ZM19.95 12.95C20.1433 12.95 20.3 13.1067 20.3 13.3C20.3 13.4933 20.1433 13.65 19.95 13.65H18.9V12.95H19.95ZM20.3 10.5C20.3 10.3067 20.1433 10.15 19.95 10.15H18.9V10.85H19.95C20.1433 10.85 20.3 10.6933 20.3 10.5ZM3.85 3.5H17.15C17.3433 3.5 17.5 3.6567 17.5 3.85V17.15C17.5 17.3433 17.3433 17.5 17.15 17.5H3.85C3.6567 17.5 3.5 17.3433 3.5 17.15V3.85C3.5 3.6567 3.6567 3.5 3.85 3.5ZM4.2 16.8H16.8V4.2H4.2V16.8ZM5.6 6.3C5.9866 6.3 6.3 5.9866 6.3 5.6C6.3 5.2134 5.9866 4.9 5.6 4.9C5.2134 4.9 4.9 5.2134 4.9 5.6C4.9 5.9866 5.2134 6.3 5.6 6.3Z" fill="#434343"/>
</svg>