<svg xmlns="http://www.w3.org/2000/svg" xmlns:xlink="http://www.w3.org/1999/xlink" width="23" height="30" viewBox="0 0 23 30" version="1.1">
<g id="surface1">
<path style=" stroke:none;fill-rule:nonzero;fill:rgb(28.235294%,28.235294%,28.235294%);fill-opacity:1;" d="M 8.890625 5.601562 C 9.082031 5.410156 9.082031 5.105469 8.890625 4.914062 C 8.691406 4.730469 8.386719 4.730469 8.1875 4.914062 C 6.375 6.734375 6.375 9.664062 8.1875 11.484375 C 8.382812 11.675781 8.695312 11.675781 8.890625 11.484375 C 9.082031 11.292969 9.082031 10.988281 8.890625 10.796875 C 7.449219 9.359375 7.449219 7.039062 8.890625 5.601562 Z M 8.890625 5.601562 "/>
<path style=" stroke:none;fill-rule:nonzero;fill:rgb(28.235294%,28.235294%,28.235294%);fill-opacity:1;" d="M 14.800781 4.914062 C 14.679688 4.78125 14.492188 4.722656 14.316406 4.765625 C 14.140625 4.808594 14 4.945312 13.960938 5.121094 C 13.914062 5.292969 13.972656 5.480469 14.109375 5.601562 C 15.550781 7.039062 15.550781 9.359375 14.109375 10.796875 C 13.917969 10.988281 13.917969 11.292969 14.109375 11.484375 C 14.203125 11.574219 14.324219 11.625 14.453125 11.628906 C 14.582031 11.625 14.707031 11.574219 14.800781 11.484375 C 15.675781 10.617188 16.171875 9.433594 16.171875 8.199219 C 16.171875 6.964844 15.675781 5.785156 14.800781 4.914062 Z M 14.800781 4.914062 "/>
<path style=" stroke:none;fill-rule:nonzero;fill:rgb(28.235294%,28.235294%,28.235294%);fill-opacity:1;" d="M 18.722656 5.316406 C 18.617188 5.0625 18.332031 4.941406 18.074219 5.042969 C 17.828125 5.140625 17.707031 5.421875 17.804688 5.667969 C 18.832031 8.1875 18.253906 11.074219 16.324219 13 C 16.132812 13.191406 16.132812 13.496094 16.324219 13.6875 C 16.414062 13.78125 16.539062 13.832031 16.667969 13.828125 C 16.796875 13.835938 16.925781 13.78125 17.011719 13.6875 C 19.210938 11.484375 19.886719 8.191406 18.722656 5.316406 Z M 18.722656 5.316406 "/>
<path style=" stroke:none;fill-rule:nonzero;fill:rgb(28.235294%,28.235294%,28.235294%);fill-opacity:1;" d="M 17.628906 3.398438 C 17.441406 3.15625 17.234375 2.929688 17.011719 2.714844 C 16.890625 2.578125 16.707031 2.523438 16.53125 2.5625 C 16.355469 2.609375 16.214844 2.746094 16.171875 2.917969 C 16.128906 3.09375 16.1875 3.28125 16.324219 3.398438 C 16.511719 3.589844 16.691406 3.792969 16.855469 4 C 16.949219 4.117188 17.089844 4.1875 17.242188 4.183594 C 17.355469 4.191406 17.460938 4.152344 17.542969 4.085938 C 17.648438 4.003906 17.714844 3.890625 17.730469 3.761719 C 17.746094 3.632812 17.714844 3.5 17.628906 3.398438 Z M 17.628906 3.398438 "/>
<path style=" stroke:none;fill-rule:nonzero;fill:rgb(28.235294%,28.235294%,28.235294%);fill-opacity:1;" d="M 4.074219 0.828125 C 4.171875 0.742188 4.222656 0.617188 4.222656 0.484375 C 4.222656 0.355469 4.171875 0.230469 4.074219 0.140625 C 3.882812 -0.0429688 3.578125 -0.0429688 3.386719 0.140625 C -1.074219 4.601562 -1.074219 11.796875 3.386719 16.257812 C 3.476562 16.347656 3.601562 16.398438 3.730469 16.398438 C 3.859375 16.40625 3.988281 16.351562 4.074219 16.257812 C 4.171875 16.167969 4.222656 16.042969 4.222656 15.914062 C 4.222656 15.785156 4.171875 15.660156 4.074219 15.570312 C -0.00390625 11.492188 -0.00390625 4.90625 4.074219 0.828125 Z M 4.074219 0.828125 "/>
<path style=" stroke:none;fill-rule:nonzero;fill:rgb(28.235294%,28.235294%,28.235294%);fill-opacity:1;" d="M 19.601562 0.140625 C 19.410156 -0.0429688 19.101562 -0.0429688 18.910156 0.140625 C 18.71875 0.332031 18.71875 0.636719 18.910156 0.828125 C 22.988281 4.90625 22.988281 11.492188 18.910156 15.570312 C 18.71875 15.761719 18.71875 16.070312 18.910156 16.257812 C 19.003906 16.351562 19.125 16.402344 19.253906 16.398438 C 19.386719 16.40625 19.511719 16.351562 19.601562 16.257812 C 24.0625 11.796875 24.0625 4.601562 19.601562 0.140625 Z M 19.601562 0.140625 "/>
<path style=" stroke:none;fill-rule:nonzero;fill:rgb(28.235294%,28.235294%,28.235294%);fill-opacity:1;" d="M 6.664062 2.714844 C 6.472656 2.527344 6.164062 2.527344 5.972656 2.714844 C 3.757812 4.90625 3.082031 8.203125 4.246094 11.085938 C 4.308594 11.289062 4.496094 11.425781 4.707031 11.429688 C 4.765625 11.441406 4.824219 11.441406 4.878906 11.429688 C 5.003906 11.382812 5.101562 11.292969 5.152344 11.175781 C 5.203125 11.054688 5.203125 10.917969 5.152344 10.796875 C 4.113281 8.253906 4.710938 5.34375 6.664062 3.398438 C 6.757812 3.3125 6.8125 3.1875 6.8125 3.058594 C 6.8125 2.925781 6.757812 2.800781 6.664062 2.714844 Z M 6.664062 2.714844 "/>
<path style=" stroke:none;fill-rule:nonzero;fill:rgb(28.235294%,28.235294%,28.235294%);fill-opacity:1;" d="M 6.664062 13 C 6.476562 12.816406 6.304688 12.601562 6.128906 12.402344 C 5.960938 12.191406 5.65625 12.15625 5.441406 12.316406 C 5.253906 12.503906 5.253906 12.8125 5.441406 13 C 5.625 13.242188 5.828125 13.46875 6.042969 13.6875 C 6.136719 13.777344 6.261719 13.828125 6.390625 13.828125 C 6.519531 13.835938 6.644531 13.78125 6.734375 13.6875 C 6.820312 13.585938 6.863281 13.457031 6.847656 13.328125 C 6.835938 13.199219 6.769531 13.082031 6.664062 13 Z M 6.664062 13 "/>
<path style=" stroke:none;fill-rule:nonzero;fill:rgb(28.235294%,28.235294%,28.235294%);fill-opacity:1;" d="M 18.234375 29.371094 L 12.527344 10 C 13.171875 9.628906 13.5625 8.941406 13.550781 8.199219 C 13.5625 8.085938 13.5625 7.972656 13.550781 7.859375 C 13.53125 7.722656 13.460938 7.605469 13.347656 7.53125 C 13.242188 7.457031 13.101562 7.425781 12.972656 7.457031 C 12.710938 7.5 12.527344 7.75 12.570312 8.011719 C 12.578125 8.074219 12.578125 8.136719 12.570312 8.199219 C 12.578125 8.636719 12.3125 9.039062 11.902344 9.203125 C 11.496094 9.371094 11.027344 9.273438 10.71875 8.960938 C 10.410156 8.648438 10.328125 8.179688 10.507812 7.777344 C 10.6875 7.375 11.097656 7.125 11.535156 7.140625 L 11.695312 7.140625 C 11.964844 7.183594 12.214844 6.996094 12.253906 6.726562 C 12.292969 6.460938 12.109375 6.210938 11.839844 6.171875 L 11.535156 6.171875 C 10.585938 6.140625 9.742188 6.757812 9.484375 7.667969 C 9.234375 8.578125 9.640625 9.542969 10.472656 10 L 4.722656 29.398438 C 4.664062 29.605469 4.738281 29.816406 4.910156 29.941406 C 4.992188 30 5.09375 30.027344 5.195312 30.027344 C 5.300781 30.03125 5.40625 29.992188 5.484375 29.925781 L 11.535156 25.515625 L 17.515625 29.898438 C 17.601562 29.96875 17.710938 30.003906 17.816406 30 C 17.972656 29.996094 18.113281 29.925781 18.207031 29.800781 C 18.296875 29.675781 18.324219 29.515625 18.277344 29.371094 Z M 11.40625 10.242188 L 11.535156 10.242188 L 13.175781 15.785156 L 11.535156 17.042969 L 9.824219 15.785156 Z M 9.480469 16.785156 L 10.675781 17.644531 L 8.832031 19.070312 Z M 6.101562 28.214844 L 7.726562 22.714844 L 10.675781 24.914062 Z M 8.011719 21.714844 L 8.371094 20.5 L 11.765625 18.015625 L 13.476562 16.757812 L 14.136719 18.96875 L 13.316406 18.371094 C 13.101562 18.214844 12.800781 18.261719 12.644531 18.472656 C 12.484375 18.691406 12.53125 18.992188 12.742188 19.15625 L 14.582031 20.585938 L 14.941406 21.800781 L 11.535156 24.285156 Z M 12.324219 24.871094 L 15.199219 22.714844 L 16.8125 28.214844 Z M 12.324219 24.871094 "/>
</g>
</svg>