<svg xmlns:xlink="http://www.w3.org/1999/xlink" xmlns="http://www.w3.org/2000/svg" width="31" height="47" viewBox="0 0 31 47" fill="none">
<path d="M15.5 0C7.89426 0.00853711 1.73089 6.0757 1.72222 13.5625V22.2812C1.72222 22.8162 2.16286 23.25 2.70638 23.25H6.64282C7.18634 23.25 7.62698 22.8162 7.62698 22.2812V13.5625C7.62698 9.28229 11.1518 5.8125 15.5 5.8125C19.8481 5.8125 23.3729 9.28229 23.3729 13.5625V22.2812C23.3729 22.8162 23.8136 23.25 24.3571 23.25H28.2936C28.8371 23.25 29.2778 22.8162 29.2778 22.2812V13.5625C29.269 6.0757 23.1056 0.00853711 15.5 0Z" fill="#455A64"/>
<path d="M28.0938 21.5278H2.90625C1.30118 21.5278 0 22.8179 0 24.4092V41.6977C0 44.35 2.16861 46.5001 4.84372 46.5001H26.1563C28.8314 46.5001 31 44.35 31 41.6977V24.4092C31.0001 22.8179 29.6989 21.5278 28.0938 21.5278Z" fill="#FFC107"/>
<path d="M17.6864 33.6664C18.4906 32.9117 18.9476 31.8379 18.9434 30.7129C18.9434 28.4935 17.209 26.6943 15.0697 26.6943C12.9303 26.6943 11.196 28.4935 11.196 30.7129C11.1918 31.8379 11.6487 32.9117 12.4529 33.6664L11.2443 37.4277C11.0753 37.9541 11.3497 38.523 11.8571 38.6984C11.9561 38.7326 12.0599 38.75 12.1643 38.7499H17.9748C18.5097 38.7505 18.9438 38.3014 18.9444 37.7466C18.9445 37.6382 18.9278 37.5306 18.8948 37.4278L17.6864 33.6664Z" fill="#455A64"/>
</svg>