<svg xmlns:xlink="http://www.w3.org/1999/xlink" xmlns="http://www.w3.org/2000/svg" width="30" height="28" viewBox="0 0 30 28" fill="none">
<path fill-rule="evenodd" clip-rule="evenodd" d="M0.585938 4.6875C2.20137 4.6875 3.51562 6.00176 3.51562 7.61719C3.51562 7.94074 3.77795 8.20312 4.10156 8.20312C4.42518 8.20312 4.6875 7.94074 4.6875 7.61719C4.6875 6.00176 6.00176 4.6875 7.61719 4.6875C7.9408 4.6875 8.20312 4.42512 8.20312 4.10156C8.20312 3.77801 7.9408 3.51562 7.61719 3.51562C6.00176 3.51562 4.6875 2.20137 4.6875 0.585938C4.6875 0.262383 4.42518 0 4.10156 0C3.77795 0 3.51562 0.262383 3.51562 0.585938C3.51562 2.20137 2.20137 3.51562 0.585938 3.51562C0.262324 3.51562 0 3.77801 0 4.10156C0 4.42512 0.262324 4.6875 0.585938 4.6875ZM4.10156 2.69672C4.44803 3.27152 4.9316 3.75516 5.50635 4.10156C4.93154 4.44797 4.44797 4.9316 4.10156 5.50641C3.7551 4.9316 3.27152 4.44797 2.69678 4.10156C3.27152 3.75516 3.7551 3.27152 4.10156 2.69672ZM18.8672 22.2656C21.4519 22.2656 23.5547 24.3684 23.5547 26.9531C23.5547 27.2767 23.8171 27.5391 24.1406 27.5391C24.4642 27.5391 24.7266 27.2767 24.7266 26.9531C24.7266 24.3684 26.8294 22.2656 29.4141 22.2656C29.7376 22.2656 30 22.0032 30 21.6797C30 21.3561 29.7376 21.0938 29.4141 21.0938C26.8294 21.0938 24.7266 18.9909 24.7266 16.4062C24.7266 16.0827 24.4642 15.8203 24.1406 15.8203C23.8171 15.8203 23.5547 16.0827 23.5547 16.4062C23.5547 18.9909 21.4519 21.0938 18.8672 21.0938C18.5436 21.0938 18.2812 21.3561 18.2812 21.6797C18.2812 22.0032 18.5436 22.2656 18.8672 22.2656ZM24.1406 18.9592C24.7158 20.1425 25.6778 21.1045 26.8611 21.6797C25.6778 22.2548 24.7158 23.2168 24.1406 24.4001C23.5655 23.2169 22.6035 22.2549 21.4202 21.6797C22.6035 21.1045 23.5655 20.1425 24.1406 18.9592ZM16.9336 15.9961C16.9336 16.3197 16.6713 16.582 16.3477 16.582C16.0241 16.582 15.7617 16.3197 15.7617 15.9961C15.7617 15.6725 16.0241 15.4102 16.3477 15.4102C16.6713 15.4102 16.9336 15.6725 16.9336 15.9961ZM18.7137 14.8646C18.4355 15.0298 18.0759 14.9381 17.9108 14.6598C17.7456 14.3815 17.8374 14.0221 18.1156 13.8569C18.7835 13.4606 19.4894 13.1372 20.2209 12.8902C16.947 11.7797 14.3524 9.18475 13.2422 5.91064C12.1318 9.1851 9.53666 11.7803 6.26221 12.8906C9.53631 14.0009 12.1313 16.5954 13.2418 19.8694C13.4888 19.1378 13.8121 18.432 14.2085 17.7641C14.3735 17.4858 14.7329 17.394 15.0114 17.5593C15.2896 17.7244 15.3813 18.0838 15.2162 18.3622C14.3081 19.8925 13.8281 21.6475 13.8281 23.4375C13.8281 23.7611 13.5658 24.0234 13.2422 24.0234C12.9186 24.0234 12.6562 23.7611 12.6562 23.4375C12.6562 17.945 8.18777 13.4766 2.69531 13.4766C2.3717 13.4766 2.10938 13.2142 2.10938 12.8906C2.10938 12.5671 2.3717 12.3047 2.69531 12.3047C8.18777 12.3047 12.6562 7.83621 12.6562 2.34375C12.6562 2.0202 12.9186 1.75781 13.2422 1.75781C13.5658 1.75781 13.8281 2.0202 13.8281 2.34375C13.8281 7.83621 18.2966 12.3047 23.7891 12.3047C24.1126 12.3047 24.375 12.5671 24.375 12.8906C24.375 13.2142 24.1126 13.4766 23.7891 13.4766C21.9991 13.4766 20.2441 13.9566 18.7137 14.8646Z" fill="white"/>
</svg>