<svg xmlns:xlink="http://www.w3.org/1999/xlink" xmlns="http://www.w3.org/2000/svg" width="18" height="21" viewBox="0 0 18 21" fill="none">
<path fill-rule="evenodd" clip-rule="evenodd" d="M17.7743 4.99602L9.22559 0.0604486C9.08597 -0.0201495 8.91394 -0.0201495 8.77432 0.0604486L0.225639 4.99602C0.0860134 5.07662 0 5.22559 0 5.38683V15.258C0 15.4193 0.0860134 15.5682 0.225639 15.6488L8.77436 20.5844C8.84417 20.6247 8.92206 20.6449 9 20.6449C9.07794 20.6449 9.15583 20.6247 9.22564 20.5844L17.7744 15.6488C17.914 15.5682 18 15.4193 18 15.258V5.38683C18 5.22563 17.9139 5.07662 17.7743 4.99602ZM17.0974 14.3322L16.8059 14.1639C16.5902 14.0393 16.3141 14.1133 16.1895 14.3291C16.0648 14.545 16.1388 14.821 16.3546 14.9456L16.771 15.186L9.45123 19.4121V10.8993L9.45857 10.8998H9.45858H9.45859C9.46189 10.9001 9.4652 10.9004 9.46852 10.9004C9.62448 10.9004 9.77615 10.8194 9.85977 10.6747C9.9239 10.5637 9.93509 10.4368 9.90183 10.3227L17.0974 6.16835V14.3322ZM1.19408 14.1639C1.41006 14.0393 1.68593 14.1133 1.81052 14.3291C1.93512 14.545 1.8612 14.821 1.64531 14.9456L1.22892 15.1859L8.54872 19.412V10.8993L8.54101 10.8998C8.53781 10.9001 8.53462 10.9004 8.53144 10.9004C8.37543 10.9004 8.2238 10.8194 8.14018 10.6747C8.0761 10.5637 8.06486 10.4368 8.09812 10.3228L0.902554 6.16839V14.3322L1.19408 14.1639ZM9 1.87652C9.2492 1.87652 9.45128 1.67449 9.45128 1.42525V1.23287L16.646 5.38678L9.44212 9.54598C9.4001 9.34024 9.2181 9.18545 9 9.18545C8.78185 9.18545 8.59985 9.34024 8.55784 9.54602L1.35388 5.38678L8.54872 1.23287V1.42529C8.54872 1.67449 8.7508 1.87652 9 1.87652ZM13.2015 13.1251L12.3964 12.6603C12.1806 12.5356 12.1066 12.2597 12.2313 12.0438C12.3559 11.828 12.6318 11.7541 12.8477 11.8787L13.6528 12.3435C13.8686 12.4681 13.9426 12.7441 13.8179 12.9599C13.7343 13.1047 13.5826 13.1856 13.4267 13.1856C13.3501 13.1856 13.2726 13.1661 13.2015 13.1251ZM10.4173 11.5177L11.2224 11.9824C11.2935 12.0235 11.3711 12.0429 11.4476 12.0429C11.6036 12.0429 11.7553 11.962 11.8388 11.8173C11.9635 11.6014 11.8895 11.3254 11.6737 11.2008L10.8686 10.736C10.6527 10.6114 10.3768 10.6854 10.2522 10.9012C10.1275 11.1171 10.2015 11.3931 10.4173 11.5177ZM15.1806 14.2677L14.3755 13.8029C14.1596 13.6783 14.0857 13.4023 14.2103 13.1865C14.3349 12.9706 14.6109 12.8967 14.8268 13.0213L15.6318 13.4861C15.8477 13.6107 15.9216 13.8867 15.797 14.1026C15.7134 14.2473 15.5617 14.3283 15.4057 14.3283C15.3292 14.3283 15.2516 14.3088 15.1806 14.2677ZM6.55232 12.043C6.62885 12.043 6.70647 12.0235 6.77751 11.9825L7.58258 11.5177C7.79843 11.3931 7.87239 11.1171 7.74775 10.9012C7.62315 10.6854 7.34715 10.6114 7.13131 10.736L6.32623 11.2009C6.11038 11.3255 6.03642 11.6015 6.16106 11.8173C6.24464 11.9621 6.39631 12.043 6.55232 12.043ZM2.81935 14.2677C2.74828 14.3088 2.6707 14.3283 2.59417 14.3283C2.43816 14.3283 2.28649 14.2473 2.20291 14.1026C2.07827 13.8867 2.15223 13.6107 2.36808 13.4861L3.17316 13.0214C3.38914 12.8968 3.66505 12.9707 3.7896 13.1865C3.91424 13.4024 3.84028 13.6784 3.62443 13.803L2.81935 14.2677ZM4.57324 13.1856C4.64978 13.1856 4.7274 13.1661 4.79843 13.1251L5.60346 12.6603C5.81931 12.5356 5.89327 12.2597 5.76863 12.0438C5.64403 11.828 5.36803 11.7541 5.15219 11.8787L4.34715 12.3435C4.13131 12.4681 4.05734 12.7441 4.18198 12.9599C4.26561 13.1047 4.41724 13.1856 4.57324 13.1856ZM9 4.16179C8.7508 4.16179 8.54872 3.95975 8.54872 3.71051V2.78093C8.54872 2.53169 8.7508 2.32965 9 2.32965C9.2492 2.32965 9.45128 2.53169 9.45128 2.78093V3.71051C9.45128 3.95975 9.2492 4.16179 9 4.16179ZM9 4.61492C8.7508 4.61492 8.54872 4.81695 8.54872 5.0662V5.99578C8.54872 6.24502 8.7508 6.44706 9 6.44706C9.2492 6.44706 9.45128 6.24502 9.45128 5.99578V5.0662C9.45128 4.81695 9.24924 4.61492 9 4.61492ZM8.54872 7.35146C8.54872 7.10222 8.7508 6.90019 9 6.90019C9.24924 6.90019 9.45128 7.10222 9.45128 7.35146V8.28105C9.45128 8.53029 9.2492 8.73232 9 8.73232C8.7508 8.73232 8.54872 8.53029 8.54872 8.28105V7.35146Z" fill="#434343"/>
</svg>