<svg xmlns:xlink="http://www.w3.org/1999/xlink" xmlns="http://www.w3.org/2000/svg" width="20" height="20" viewBox="0 0 20 20" fill="none">
<path fill-rule="evenodd" clip-rule="evenodd" d="M17.8516 0H2.14844C0.963789 0 0 0.963789 0 2.14844V17.8516C0 19.0362 0.963789 20 2.14844 20H17.8516C19.0362 20 20 19.0362 20 17.8516V2.14844C20 0.963789 19.0362 0 17.8516 0ZM18.8281 17.8516C18.8281 18.39 18.39 18.8281 17.8516 18.8281H2.14844C1.60996 18.8281 1.17188 18.39 1.17188 17.8516V2.14844C1.17188 1.60996 1.60996 1.17188 2.14844 1.17188H17.8516C18.39 1.17188 18.8281 1.60996 18.8281 2.14844V17.8516ZM2.96875 2.38281H17.0312C17.3548 2.38281 17.6172 2.64516 17.6172 2.96875V12.3438C17.6172 12.6673 17.3548 12.9297 17.0312 12.9297H2.96875C2.64516 12.9297 2.38281 12.6673 2.38281 12.3438V2.96875C2.38281 2.64516 2.64516 2.38281 2.96875 2.38281ZM10 10.5859C9.23613 10.5859 8.58484 11.0758 8.34297 11.7578H11.657C11.4152 11.0758 10.7639 10.5859 10 10.5859ZM16.4453 11.7578H12.8707C12.5986 10.4222 11.4148 9.41406 10 9.41406C9.85352 9.41406 9.70961 9.4252 9.56887 9.44605L8.94738 7.73855C8.83672 7.43445 8.50043 7.27766 8.19637 7.38836C7.89227 7.49902 7.73551 7.83527 7.84617 8.13938L8.46801 9.84781C7.78961 10.2657 7.29348 10.9521 7.12926 11.7579H3.55469V3.55469H16.4453V11.7578ZM14.1016 15.8594C14.1016 14.8901 14.8901 14.1016 15.8594 14.1016C16.8286 14.1016 17.6172 14.8901 17.6172 15.8594C17.6172 16.8286 16.8286 17.6172 15.8594 17.6172C14.8901 17.6172 14.1016 16.8286 14.1016 15.8594ZM15.2734 15.8594C15.2734 16.1825 15.5363 16.4453 15.8594 16.4453C16.1825 16.4453 16.4453 16.1825 16.4453 15.8594C16.4453 15.5363 16.1825 15.2734 15.8594 15.2734C15.5363 15.2734 15.2734 15.5363 15.2734 15.8594ZM4.14062 14.1016C3.17137 14.1016 2.38281 14.8901 2.38281 15.8594C2.38281 16.8286 3.17137 17.6172 4.14062 17.6172C5.10988 17.6172 5.89844 16.8286 5.89844 15.8594C5.89844 14.8901 5.10988 14.1016 4.14062 14.1016ZM4.14062 16.4453C3.81754 16.4453 3.55469 16.1825 3.55469 15.8594C3.55469 15.5363 3.81754 15.2734 4.14062 15.2734C4.46371 15.2734 4.72656 15.5363 4.72656 15.8594C4.72656 16.1825 4.46371 16.4453 4.14062 16.4453ZM4.87629 7.50473C5.09234 7.74563 5.46281 7.76578 5.70371 7.54969C6.89098 6.48484 8.41676 5.89844 10 5.89844C11.5832 5.89844 13.109 6.48484 14.2963 7.54969C14.5372 7.76574 14.9076 7.74563 15.1237 7.50473C15.3398 7.26383 15.3196 6.89336 15.0787 6.6773C13.6761 5.41934 11.8725 4.72656 10 4.72656C8.1275 4.72656 6.32387 5.41934 4.92129 6.67727C4.68039 6.89336 4.66023 7.26379 4.87629 7.50473ZM12.9297 14.6875C12.9297 14.3639 12.6673 14.1016 12.3438 14.1016H7.65625C7.33266 14.1016 7.07031 14.3639 7.07031 14.6875V17.0312C7.07031 17.3548 7.33266 17.6172 7.65625 17.6172H12.3438C12.6673 17.6172 12.9297 17.3548 12.9297 17.0312V14.6875ZM11.7578 16.4453H8.24219V15.2734H11.7578V16.4453Z" fill="#434343"/>
</svg>