<svg xmlns:xlink="http://www.w3.org/1999/xlink" xmlns="http://www.w3.org/2000/svg" width="27" height="27" viewBox="0 0 27 27" fill="none">
<path fill-rule="evenodd" clip-rule="evenodd" d="M26.7683 0.231725C26.5446 0.00791961 26.2089 -0.0608989 25.9152 0.0565935L0.497259 10.2237C0.206429 10.34 0.0116816 10.617 0.000501944 10.9301C-0.010625 11.2431 0.164031 11.5332 0.445843 11.6699L10.4689 16.531L15.3301 26.5541C15.4627 26.8275 15.7395 27 16.0416 27C16.051 27 16.0605 26.9998 16.0699 26.9995C16.3829 26.9883 16.66 26.7936 16.7762 26.5028L26.9434 1.08486C27.0609 0.791026 26.9921 0.455477 26.7683 0.231725ZM2.74712 11.0277L22.9246 2.95673L10.8997 14.9816L2.74712 11.0277ZM12.0183 16.1002L15.9723 24.2529L24.0433 4.07533L12.0183 16.1002Z" fill="#434343"/>
</svg>