<svg xmlns:xlink="http://www.w3.org/1999/xlink" xmlns="http://www.w3.org/2000/svg" width="21" height="19" viewBox="0 0 21 19" fill="none">
<path fill-rule="evenodd" clip-rule="evenodd" d="M14.2004 5.70166V0H13V5.70166L13.0065 5.86266L13.025 6.01643L13.0564 6.17441C13.2678 7.05611 14.0398 7.7 14.9501 7.7H15.878L15.913 7.82572C16.2245 8.81272 17.1194 9.5 18.1489 9.5C19.4471 9.5 20.5 8.41761 20.5 7.09C20.5 5.76239 19.4471 4.68 18.1489 4.68L17.9857 4.68578L17.8159 4.70422C16.9195 4.83561 16.1766 5.48953 15.9077 6.36903L15.877 6.48H14.9501L14.8552 6.47434L14.7582 6.45611C14.4418 6.37237 14.2004 6.06442 14.2004 5.70166ZM6.84085 4.14671C6.67569 2.92735 5.65419 2 4.43182 2C3.08935 2 2 3.11469 2 4.48256C2 5.85043 3.08935 6.96512 4.43182 6.96512C5.40813 6.96512 6.27354 6.36892 6.657 5.476L8.06818 5.47674L8.19585 5.48328L8.31419 5.50136C8.85775 5.61424 9.27273 6.11928 9.27273 6.71735V18.5H10.5V6.71735L10.4944 6.54938L10.4772 6.38121L10.4494 6.21666C10.2188 5.07834 9.23504 4.23256 8.06818 4.23256L6.849 4.232L6.84085 4.14671ZM20.5 12.4318C20.5 11.0907 19.4093 10 18.0682 10L17.8996 10.0058L17.7242 10.0244C16.798 10.1567 16.0291 10.8154 15.7503 11.7031L15.718 11.818L14.4318 11.8182L14.2674 11.8238L14.1027 11.841C12.9072 12.0064 12 13.0283 12 14.2487V18.5H13.2273V14.2487L13.2337 14.1209L13.2513 14.0025L13.2833 13.8795C13.4374 13.3976 13.897 13.0455 14.4318 13.0455L15.718 13.045L15.756 13.1757C16.079 14.1718 17.0049 14.8636 18.0682 14.8636C19.4093 14.8636 20.5 13.773 20.5 12.4318ZM2.43182 8C3.50222 8 4.43209 8.71249 4.74946 9.73316L4.782 9.851L6.06818 9.85185C7.23473 9.85185 8.21868 10.6936 8.44942 11.8269L8.4772 11.9907L8.49436 12.1582L8.5 12.3254V18.5H7.27273V12.3254C7.27273 11.7314 6.85802 11.2294 6.3143 11.1171L6.19592 11.0991L6.06818 11.0926L4.782 11.092L4.7499 11.2122C4.43769 12.2242 3.50887 12.9444 2.43182 12.9444C1.08962 12.9444 0 11.8346 0 10.4722C0 9.1098 1.08962 8 2.43182 8ZM16.8636 12.4318C16.8636 11.7679 17.4043 11.2273 18.0682 11.2273C18.7321 11.2273 19.2727 11.7679 19.2727 12.4318C19.2727 13.0957 18.7321 13.6364 18.0682 13.6364C17.4043 13.6364 16.8636 13.0957 16.8636 12.4318ZM2.43182 9.24074C1.76893 9.24074 1.22727 9.79243 1.22727 10.4722C1.22727 11.152 1.76893 11.7037 2.43182 11.7037C3.09471 11.7037 3.63636 11.152 3.63636 10.4722C3.63636 9.79243 3.09471 9.24074 2.43182 9.24074ZM18.1489 5.9C17.5162 5.9 16.9982 6.43257 16.9982 7.09C16.9982 7.74743 17.5162 8.28 18.1489 8.28C18.7816 8.28 19.2996 7.74743 19.2996 7.09C19.2996 6.43257 18.7816 5.9 18.1489 5.9ZM3.22727 4.48256C3.22727 3.79871 3.76919 3.24419 4.43182 3.24419C5.09444 3.24419 5.63636 3.79871 5.63636 4.48256C5.63636 5.16641 5.09444 5.72093 4.43182 5.72093C3.76919 5.72093 3.22727 5.16641 3.22727 4.48256Z" fill="#434343"/>
</svg>