<svg xmlns:xlink="http://www.w3.org/1999/xlink" xmlns="http://www.w3.org/2000/svg" width="21" height="21" viewBox="0 0 21 21" fill="none">
<path fill-rule="evenodd" clip-rule="evenodd" d="M19.4756 7.81812L18.4515 7.64445C18.3604 7.39066 18.2573 7.14169 18.1434 6.8996L18.7465 6.05589C19.2712 5.31873 19.1869 4.32314 18.5481 3.69061L17.3175 2.45982C16.9697 2.11198 16.5086 1.92036 16.0193 1.92036C15.6339 1.92036 15.2655 2.03909 14.9562 2.26163L14.1093 2.86485C13.8474 2.741 13.5816 2.63157 13.314 2.53704L13.1447 1.5336C12.9957 0.644875 12.2333 0 11.332 0H9.5933C8.69208 0 7.92977 0.644875 7.78109 1.53184L7.60309 2.57453C7.35171 2.66634 7.10385 2.77064 6.86112 2.88712L6.0296 2.28822C5.71781 2.06376 5.34787 1.9452 4.95967 1.9452C4.46556 1.9452 4.0043 2.13714 3.66031 2.48577L2.4268 3.71528C1.78978 4.3523 1.70631 5.34709 2.22845 6.08057L2.84128 6.94157C2.72833 7.18462 2.62675 7.43472 2.53703 7.68995L1.53343 7.8593C0.644872 8.00846 0 8.77077 0 9.672V11.4107C0 12.3119 0.644872 13.0742 1.53183 13.2231L2.57452 13.4009C2.66633 13.6524 2.77079 13.9005 2.88711 14.143L2.29046 14.9729C1.76575 15.7101 1.85002 16.7059 2.48881 17.3382L3.71943 18.569C4.06726 18.9169 4.52837 19.1085 5.01767 19.1085C5.40299 19.1085 5.77149 18.9898 6.08055 18.7674L6.94155 18.1545C7.16778 18.2596 7.40233 18.3559 7.64314 18.4426L7.81377 19.4666C7.96293 20.3551 8.72524 21 9.62646 21H11.3691C12.2704 21 13.0328 20.3551 13.1817 19.4677L13.3553 18.4434C13.6091 18.3522 13.8581 18.2492 14.1002 18.1353L14.9412 18.7365C15.253 18.9609 15.6229 19.0796 16.0111 19.0796C16.5002 19.0796 16.9613 18.888 17.3092 18.5402L18.5398 17.3094C19.177 16.6724 19.2603 15.6776 18.7381 14.9441L18.1345 14.0964C18.2514 13.8487 18.3547 13.5999 18.4437 13.3525L19.4663 13.182C20.3549 13.0329 20.9998 12.2706 20.9998 11.3693V9.63419C21.0099 8.732 20.3696 7.96873 19.4756 7.81812ZM19.7693 11.3693C19.7693 11.6672 19.5562 11.9192 19.2633 11.9684L17.9069 12.1945C17.6567 12.2361 17.4548 12.4127 17.3797 12.6554C17.2592 13.0459 17.0937 13.445 16.8881 13.841C16.7718 14.0644 16.7904 14.3305 16.9365 14.5352L17.7358 15.6577C17.9082 15.9 17.8805 16.2287 17.6698 16.4394L16.4392 17.67C16.3221 17.7872 16.174 17.8492 16.0111 17.8492C15.8826 17.8492 15.7613 17.8107 15.6585 17.7367L14.5408 16.9379C14.3352 16.7903 14.068 16.7717 13.8435 16.8891C13.4677 17.0859 13.0682 17.2514 12.6563 17.3807C12.416 17.456 12.2406 17.6572 12.1987 17.9049L11.9683 19.2628C11.9192 19.5564 11.6671 19.7695 11.3691 19.7695H9.62646C9.32846 19.7695 9.0766 19.5564 9.02741 19.2636L8.80135 17.9072C8.76001 17.6585 8.58505 17.457 8.34473 17.381C7.93874 17.2528 7.55214 17.0939 7.19533 16.9085C7.09808 16.8581 6.99282 16.8332 6.88804 16.8332C6.75249 16.8332 6.61759 16.8749 6.50208 16.9571L5.36438 17.7668C5.26184 17.8407 5.1452 17.878 5.01767 17.878C4.85473 17.878 4.70669 17.8162 4.58957 17.6989L3.3567 16.4662C3.14634 16.2579 3.11958 15.9301 3.29117 15.689L4.08569 14.5838C4.23517 14.3763 4.25343 14.1071 4.13295 13.8807C3.93092 13.5018 3.76349 13.1045 3.63516 12.6996C3.55921 12.4609 3.35878 12.2864 3.11205 12.2443L1.73707 12.0099C1.44355 11.9605 1.23046 11.7085 1.23046 11.4107V9.672C1.23046 9.37415 1.44355 9.12213 1.73755 9.07278L3.07728 8.84672C3.3277 8.80458 3.52941 8.62754 3.60392 8.38401C3.73033 7.97033 3.89295 7.57027 4.08729 7.19536C4.20297 6.9725 4.18438 6.70702 4.03874 6.5021L3.23093 5.36712C3.05838 5.12487 3.08609 4.7961 3.29614 4.58606L4.53093 3.35543L4.53542 3.35078C4.64645 3.23783 4.79705 3.17567 4.95967 3.17567C5.08816 3.17567 5.20961 3.21412 5.31054 3.28686L6.42053 4.08586C6.62833 4.2355 6.89781 4.25345 7.1234 4.13297C7.50231 3.93093 7.89965 3.7635 8.30403 3.63533C8.54276 3.55955 8.71723 3.35944 8.75969 3.11206L8.99425 1.73708C9.04343 1.44356 9.29545 1.23047 9.59346 1.23047H11.3321C11.63 1.23047 11.882 1.44356 11.9313 1.73756L12.1574 3.07777C12.1997 3.32835 12.3771 3.52991 12.6208 3.60425C13.0362 3.7305 13.4505 3.90097 13.8525 4.11118C14.0758 4.22781 14.342 4.20955 14.5477 4.06327L15.6727 3.26202C15.7751 3.18816 15.8917 3.15083 16.0194 3.15083C16.1822 3.15083 16.3302 3.21268 16.4475 3.32996L17.6802 4.56267C17.8906 4.77095 17.9175 5.09875 17.7448 5.34116L16.9452 6.45996C16.7984 6.66568 16.7801 6.9326 16.8973 7.15627C17.0942 7.53214 17.2595 7.93156 17.389 8.34364C17.4644 8.58396 17.6655 8.75924 17.9132 8.80106L19.2699 9.03129L19.271 9.03145C19.5637 9.08064 19.7735 9.32897 19.7693 9.62201V11.3693ZM10.6094 6.5625C8.37791 6.5625 6.5625 8.37791 6.5625 10.6094C6.5625 12.8408 8.37791 14.6562 10.6094 14.6562C12.8408 14.6562 14.6562 12.8408 14.6562 10.6094C14.6562 8.37791 12.8408 6.5625 10.6094 6.5625ZM10.6094 13.4367C9.05043 13.4367 7.78209 12.1683 7.78209 10.6094C7.78209 9.05043 9.05043 7.78209 10.6094 7.78209C12.1683 7.78209 13.4367 9.05043 13.4367 10.6094C13.4367 12.1683 12.1683 13.4367 10.6094 13.4367Z" fill="#434343"/>
</svg>