<svg xmlns="http://www.w3.org/2000/svg" xmlns:xlink="http://www.w3.org/1999/xlink" width="22" height="22" viewBox="0 0 22 22" version="1.1">
<g id="surface1">
<path style=" stroke:none;fill-rule:nonzero;fill:rgb(26.27451%,26.27451%,26.27451%);fill-opacity:1;" d="M 18.128906 9.988281 L 17.953125 9.726562 C 17.953125 7.746094 17.027344 6.90625 15.972656 6.292969 C 16.28125 6.203125 16.632812 6.117188 16.71875 5.71875 C 17.292969 5.585938 17.378906 5.324219 17.425781 5.058594 C 17.554688 4.972656 18.039062 4.707031 17.996094 4.226562 C 18.261719 4.046875 18.433594 3.785156 18.347656 3.433594 C 18.65625 3.125 18.699219 2.859375 18.613281 2.59375 C 18.964844 2.15625 18.789062 1.933594 18.65625 1.714844 C 18.921875 1.230469 18.699219 0.703125 17.953125 0.792969 C 17.644531 0.351562 17.027344 0.441406 16.941406 0.441406 C 16.851562 0.308594 16.71875 0.175781 16.28125 0.21875 C 15.972656 -0.0429688 15.664062 0 15.355469 0.132812 C 14.960938 -0.175781 14.695312 0.0859375 14.386719 0.175781 C 13.90625 0 13.816406 0.21875 13.550781 0.308594 C 13.023438 0.175781 12.890625 0.441406 12.628906 0.703125 L 12.320312 0.703125 C 11.527344 1.1875 11.132812 2.113281 11 2.59375 C 10.867188 2.113281 10.472656 1.144531 9.679688 0.703125 L 9.371094 0.703125 C 9.109375 0.441406 8.976562 0.21875 8.449219 0.308594 C 8.226562 0.21875 8.09375 0 7.613281 0.175781 C 7.433594 0.132812 7.261719 0 7.039062 0 C 6.90625 0 6.820312 0.0429688 6.6875 0.132812 C 6.335938 0.0429688 6.027344 0 5.71875 0.21875 C 5.28125 0.175781 5.148438 0.265625 5.015625 0.441406 C 4.925781 0.441406 4.269531 0.351562 4.003906 0.792969 C 3.253906 0.703125 3.035156 1.230469 3.300781 1.714844 C 3.167969 1.933594 2.992188 2.15625 3.34375 2.59375 C 3.253906 2.816406 3.300781 3.078125 3.609375 3.433594 C 3.519531 3.785156 3.695312 4.003906 3.960938 4.179688 C 3.914062 4.664062 4.398438 4.925781 4.53125 5.015625 C 4.574219 5.28125 4.707031 5.542969 5.234375 5.675781 C 5.324219 6.074219 5.675781 6.160156 5.984375 6.246094 C 4.925781 6.863281 4.003906 7.699219 4.003906 9.679688 L 3.828125 9.945312 C 2.640625 10.734375 1.539062 13.113281 3.253906 15.046875 C 3.386719 15.664062 3.566406 16.105469 3.738281 16.585938 C 4.003906 18.523438 5.632812 19.449219 6.074219 19.535156 C 6.6875 20.019531 7.390625 20.460938 8.273438 20.8125 C 9.109375 21.691406 10.074219 22.042969 11 22.042969 L 11.042969 22.042969 C 11.96875 22.042969 12.890625 21.691406 13.773438 20.8125 C 14.695312 20.503906 15.355469 20.019531 15.972656 19.535156 C 16.414062 19.449219 18.039062 18.523438 18.304688 16.585938 C 18.480469 16.105469 18.65625 15.664062 18.789062 15.046875 C 20.460938 13.113281 19.359375 10.734375 18.128906 9.988281 Z M 17.027344 9.636719 C 16.984375 10.425781 12.847656 6.820312 13.550781 6.730469 C 15.488281 6.425781 17.074219 7.566406 17.027344 9.636719 Z M 12.496094 1.273438 C 12.539062 1.453125 12.585938 1.585938 12.628906 1.585938 C 12.847656 1.320312 13.023438 1.101562 13.332031 0.835938 C 13.332031 0.96875 13.246094 1.144531 13.421875 1.230469 C 13.59375 1.011719 13.773438 0.835938 14.078125 0.660156 C 13.949219 0.878906 14.035156 0.96875 14.125 1.054688 C 14.34375 0.878906 14.566406 0.660156 14.960938 0.527344 C 14.871094 0.660156 14.695312 0.792969 14.871094 0.96875 C 15.09375 0.835938 15.3125 0.703125 15.839844 0.574219 C 15.707031 0.703125 15.488281 0.835938 15.621094 0.96875 C 15.882812 0.878906 16.191406 0.792969 16.542969 0.746094 C 16.367188 0.878906 16.234375 1.011719 16.367188 1.144531 C 16.675781 1.054688 17.074219 0.925781 17.46875 1.011719 L 17.203125 1.273438 C 17.246094 1.320312 17.863281 1.320312 18.261719 1.320312 C 18.128906 1.539062 17.953125 1.761719 17.863281 2.113281 C 17.90625 2.15625 18.128906 2.113281 18.304688 2.113281 C 18.128906 2.550781 17.773438 2.640625 17.6875 2.816406 C 17.820312 2.90625 17.996094 2.90625 18.171875 2.816406 C 18.039062 3.125 17.730469 3.300781 17.511719 3.566406 C 17.554688 3.609375 17.6875 3.652344 17.90625 3.609375 C 17.6875 3.828125 17.425781 4.046875 17.117188 4.269531 C 17.160156 4.3125 17.378906 4.3125 17.554688 4.355469 C 17.292969 4.621094 16.894531 4.796875 16.585938 4.972656 C 16.765625 5.105469 16.894531 5.058594 17.027344 5.058594 C 16.808594 5.28125 16.367188 5.367188 16.015625 5.5 C 16.105469 5.632812 16.148438 5.632812 16.324219 5.675781 C 15.925781 5.894531 15.355469 5.808594 15.179688 5.894531 C 15.226562 6.027344 15.3125 6.074219 15.445312 6.160156 C 14.785156 6.203125 13.023438 6.117188 12.671875 4.753906 C 13.332031 4.003906 14.566406 3.125 16.632812 2.066406 C 15.003906 2.640625 13.550781 3.34375 12.320312 4.355469 C 10.824219 3.652344 11.792969 1.933594 12.496094 1.273438 Z M 11 6.160156 C 12.011719 6.160156 13.289062 6.90625 13.289062 7.65625 C 13.289062 8.316406 12.40625 8.800781 11 8.800781 C 9.636719 8.800781 8.710938 8.140625 8.710938 7.523438 C 8.710938 7.039062 9.855469 6.160156 11 6.160156 Z M 5.808594 5.632812 C 5.984375 5.585938 6.027344 5.585938 6.117188 5.457031 C 5.71875 5.324219 5.324219 5.234375 5.105469 5.015625 C 5.234375 5.015625 5.367188 5.058594 5.542969 4.925781 C 5.191406 4.753906 4.839844 4.621094 4.574219 4.3125 C 4.753906 4.3125 4.925781 4.3125 5.015625 4.226562 C 4.707031 4.046875 4.445312 3.828125 4.226562 3.566406 C 4.488281 3.609375 4.574219 3.566406 4.621094 3.519531 C 4.398438 3.300781 4.09375 3.078125 3.960938 2.773438 C 4.136719 2.816406 4.3125 2.859375 4.445312 2.773438 C 4.269531 2.640625 3.914062 2.550781 3.738281 2.113281 C 3.914062 2.113281 4.136719 2.15625 4.179688 2.113281 C 4.09375 1.761719 3.914062 1.539062 3.785156 1.320312 C 4.179688 1.320312 4.839844 1.320312 4.796875 1.273438 L 4.53125 1.011719 C 4.925781 0.925781 5.367188 1.011719 5.632812 1.144531 C 5.765625 1.054688 5.632812 0.925781 5.457031 0.746094 C 5.808594 0.792969 6.117188 0.878906 6.378906 0.96875 C 6.511719 0.835938 6.292969 0.703125 6.160156 0.574219 C 6.6875 0.660156 6.90625 0.792969 7.128906 0.96875 C 7.304688 0.792969 7.128906 0.660156 7.039062 0.527344 C 7.480469 0.703125 7.699219 0.878906 7.921875 1.101562 C 8.007812 1.011719 8.09375 0.925781 7.964844 0.703125 C 8.226562 0.878906 8.449219 1.054688 8.625 1.273438 C 8.800781 1.144531 8.710938 1.011719 8.710938 0.878906 C 9.019531 1.101562 9.195312 1.363281 9.414062 1.628906 C 9.460938 1.585938 9.503906 1.496094 9.546875 1.320312 C 10.253906 2.023438 11.265625 3.738281 9.8125 4.398438 C 8.578125 3.386719 7.128906 2.640625 5.5 2.113281 C 7.566406 3.167969 8.800781 4.046875 9.460938 4.796875 C 9.109375 6.160156 7.347656 6.203125 6.6875 6.203125 C 6.820312 6.160156 6.953125 6.074219 6.953125 5.941406 C 6.820312 5.765625 6.203125 5.851562 5.808594 5.632812 Z M 8.226562 6.6875 C 8.933594 6.820312 4.796875 10.425781 4.753906 9.59375 C 4.664062 7.480469 6.292969 6.335938 8.226562 6.6875 Z M 3.871094 14.695312 C 2.859375 13.90625 2.550781 11.527344 4.398438 10.472656 C 5.542969 10.164062 4.796875 15.09375 3.871094 14.695312 Z M 7.789062 18.921875 C 7.214844 19.273438 5.851562 19.140625 4.882812 17.730469 C 4.226562 16.542969 4.3125 15.355469 4.753906 15.003906 C 5.457031 14.566406 6.511719 15.136719 7.347656 16.105469 C 8.050781 16.941406 8.40625 18.480469 7.789062 18.921875 Z M 6.6875 13.773438 C 5.632812 13.113281 5.457031 11.574219 6.292969 10.339844 C 7.085938 9.109375 8.578125 8.667969 9.636719 9.371094 C 10.691406 10.03125 10.867188 11.574219 10.03125 12.804688 C 9.195312 13.992188 7.699219 14.433594 6.6875 13.773438 Z M 11 21.296875 C 9.769531 21.339844 8.535156 20.285156 8.535156 19.886719 C 8.535156 19.359375 10.03125 18.921875 11.042969 18.964844 C 12.054688 18.921875 13.375 19.273438 13.421875 19.753906 C 13.421875 20.285156 12.1875 21.339844 11 21.296875 Z M 13.550781 15.925781 C 13.550781 17.203125 12.453125 18.261719 11.042969 18.261719 C 9.636719 18.261719 8.535156 17.246094 8.535156 15.972656 C 8.535156 15.972656 8.535156 15.972656 8.535156 15.925781 C 8.535156 14.652344 9.636719 13.59375 11.042969 13.59375 C 12.40625 13.640625 13.550781 14.652344 13.550781 15.925781 Z M 11.96875 12.671875 C 11.175781 11.441406 11.351562 9.898438 12.363281 9.238281 C 13.421875 8.578125 14.914062 9.019531 15.707031 10.207031 C 16.5 11.441406 16.324219 12.980469 15.3125 13.640625 C 14.300781 14.34375 12.804688 13.90625 11.96875 12.671875 Z M 17.074219 17.773438 C 16.015625 19.273438 14.566406 19.316406 13.992188 18.921875 C 13.421875 18.390625 13.859375 16.71875 14.652344 15.839844 C 15.53125 14.828125 16.5 14.167969 17.160156 14.695312 C 17.554688 15.136719 17.820312 16.765625 17.074219 17.773438 Z M 17.90625 14.609375 C 16.984375 15.003906 16.234375 10.074219 17.378906 10.382812 C 19.226562 11.484375 18.875 13.816406 17.90625 14.609375 Z M 17.90625 14.609375 "/>
</g>
</svg>