<svg xmlns:xlink="http://www.w3.org/1999/xlink" xmlns="http://www.w3.org/2000/svg" width="50" height="36" viewBox="0 0 50 36" fill="none">
<path d="M42.1178 8.60889H32.087V27.3915H48.5218V18.9375L46.605 12.0936C46.0272 10.0297 44.1975 8.60889 42.1178 8.60889Z" fill="#FF7058"/>
<path d="M46.1739 18.7826L44.4676 12.7263C44.1735 11.6852 43.2303 10.9565 42.174 10.9565H34.4348V18.7826H46.1739Z" fill="#84DBFF"/>
<path d="M46.1739 18.7826H34.4348V10.9565L46.1739 18.7826Z" fill="#CDD6E0"/>
<path d="M46.1739 18.7826L44.4676 12.7263C44.1735 11.6852 43.2303 10.9565 42.174 10.9565H34.4348L46.1739 18.7826Z" fill="#F2F2F2"/>
<path d="M3.10479 0H28.9822C30.696 0 32.087 1.36329 32.087 3.04539V27.3913H0V3.04539C0 1.36338 1.38988 0 3.10479 0Z" fill="#FFD15C"/>
<path d="M21.1305 0V7.77113L19.9064 6.63396L18.6234 7.82609L17.3414 6.63396L16.0593 7.82609L14.7751 6.63396L13.4763 7.82609L12.1952 6.63396L10.9565 7.78491V0H21.1305Z" fill="#F2F2F2"/>
<path d="M49.3043 27.066V30.5215H0V27.066H5.14614C6.34793 24.9255 8.65908 23.478 11.3092 23.478C13.949 23.478 16.2601 24.9255 17.4722 27.066H34.0303C35.2321 24.9255 37.532 23.478 40.1821 23.478C42.8322 23.478 45.133 24.9255 46.3451 27.066H49.3043Z" fill="#334A5E"/>
<path d="M45.3913 30.9131C45.3913 33.7226 43.1133 36.0001 40.3033 36.0001C37.4933 36.0001 35.2174 33.7226 35.2174 30.9131C35.2174 28.1037 37.4943 25.8262 40.3033 25.8262C43.1144 25.8262 45.3913 28.1037 45.3913 30.9131Z" fill="#40596B"/>
<path d="M42.2609 30.9131C42.2609 31.994 41.3847 32.8696 40.3054 32.8696C39.2249 32.8696 38.3478 31.994 38.3478 30.9131C38.3478 29.8321 39.224 28.9565 40.3054 28.9565C41.3847 28.9556 42.2609 29.8322 42.2609 30.9131Z" fill="#ACB3BA"/>
<path d="M16.4348 30.9131C16.4348 33.7226 14.1562 36.0001 11.3478 36.0001C8.53837 36.0001 6.26086 33.7226 6.26086 30.9131C6.26086 28.1037 8.53837 25.8262 11.3478 25.8262C14.1562 25.8262 16.4348 28.1037 16.4348 30.9131Z" fill="#40596B"/>
<path d="M14.0869 30.9131C14.0869 31.994 13.2116 32.8696 12.1309 32.8696C11.0502 32.8696 10.1739 31.994 10.1739 30.9131C10.1739 29.8321 11.0503 28.9565 12.1309 28.9565C13.2115 28.9565 14.0869 29.8322 14.0869 30.9131Z" fill="#ACB3BA"/>
</svg>