<svg xmlns="http://www.w3.org/2000/svg" xmlns:xlink="http://www.w3.org/1999/xlink" width="23" height="30" viewBox="0 0 23 30" version="1.1">
<g id="surface1">
<path style=" stroke:none;fill-rule:nonzero;fill:rgb(26.27451%,26.27451%,26.27451%);fill-opacity:1;" d="M 2.652344 4.082031 C 2.921875 4.078125 3.140625 3.863281 3.144531 3.597656 L 3.144531 2.042969 C 3.144531 1.773438 2.925781 1.554688 2.652344 1.554688 C 2.382812 1.554688 2.164062 1.773438 2.164062 2.042969 L 2.164062 3.597656 C 2.167969 3.863281 2.382812 4.078125 2.652344 4.082031 Z M 2.652344 4.082031 "/>
<path style=" stroke:none;fill-rule:nonzero;fill:rgb(26.27451%,26.27451%,26.27451%);fill-opacity:1;" d="M 4.710938 4.082031 C 4.980469 4.078125 5.195312 3.863281 5.199219 3.597656 L 5.199219 2.042969 C 5.199219 1.773438 4.980469 1.554688 4.710938 1.554688 C 4.441406 1.554688 4.21875 1.773438 4.21875 2.042969 L 4.21875 3.597656 C 4.222656 3.863281 4.441406 4.078125 4.710938 4.082031 Z M 4.710938 4.082031 "/>
<path style=" stroke:none;fill-rule:nonzero;fill:rgb(26.27451%,26.27451%,26.27451%);fill-opacity:1;" d="M 20.867188 17.441406 L 20.867188 16.035156 C 20.867188 15.382812 20.445312 14.804688 19.824219 14.589844 L 19.824219 4.375 C 19.824219 1.957031 17.851562 0 15.417969 0 C 12.984375 0 11.011719 1.957031 11.011719 4.375 L 11.011719 25.625 C 11.011719 27.503906 9.476562 29.027344 7.582031 29.027344 C 5.691406 29.027344 4.15625 27.503906 4.15625 25.625 L 4.15625 15.410156 C 4.777344 15.195312 5.195312 14.617188 5.199219 13.964844 L 5.199219 12.558594 C 6.46875 11.96875 7.28125 10.707031 7.289062 9.316406 L 7.289062 5.667969 C 7.289062 5.304688 7.089844 4.964844 6.765625 4.789062 L 6.765625 0.484375 C 6.761719 0.21875 6.546875 0.00390625 6.277344 0 L 1.054688 0 C 0.785156 0.00390625 0.566406 0.21875 0.5625 0.484375 L 0.5625 4.789062 C 0.242188 4.964844 0.0429688 5.304688 0.0429688 5.667969 L 0.0429688 9.296875 C 0.0507812 10.6875 0.863281 11.949219 2.132812 12.539062 L 2.132812 13.945312 C 2.132812 14.597656 2.554688 15.175781 3.175781 15.390625 L 3.175781 25.625 C 3.175781 28.042969 5.148438 30 7.582031 30 C 10.015625 30 11.988281 28.042969 11.988281 25.625 L 11.988281 4.375 C 11.988281 2.496094 13.523438 0.972656 15.417969 0.972656 C 17.308594 0.972656 18.84375 2.496094 18.84375 4.375 L 18.84375 14.589844 C 18.222656 14.804688 17.804688 15.382812 17.800781 16.035156 L 17.800781 17.441406 C 16.515625 18.039062 15.699219 19.328125 15.710938 20.734375 L 15.710938 24.363281 C 15.714844 24.917969 16.164062 25.363281 16.722656 25.367188 L 16.753906 25.367188 L 16.753906 29.546875 C 16.757812 29.8125 16.976562 30.027344 17.246094 30.03125 L 21.425781 30.03125 C 21.691406 30.027344 21.910156 29.8125 21.914062 29.546875 L 21.914062 25.335938 C 22.472656 25.332031 22.921875 24.882812 22.925781 24.332031 L 22.925781 20.734375 C 22.941406 19.332031 22.140625 18.050781 20.867188 17.441406 Z M 5.789062 0.972656 L 5.789062 4.664062 L 1.542969 4.664062 L 1.542969 0.972656 Z M 1.019531 9.296875 L 1.019531 5.667969 L 1.054688 5.636719 L 6.277344 5.636719 L 6.277344 9.296875 C 6.277344 10.746094 5.09375 11.921875 3.632812 11.921875 C 2.171875 11.921875 0.988281 10.746094 0.988281 9.296875 Z M 3.109375 12.847656 C 3.292969 12.878906 3.480469 12.894531 3.664062 12.894531 C 3.851562 12.894531 4.035156 12.878906 4.21875 12.847656 L 4.21875 13.964844 C 4.21875 14.265625 3.972656 14.515625 3.664062 14.515625 C 3.359375 14.515625 3.109375 14.265625 3.109375 13.964844 Z M 18.78125 16.035156 C 18.78125 15.734375 19.027344 15.484375 19.335938 15.484375 C 19.640625 15.484375 19.890625 15.734375 19.890625 16.035156 L 19.890625 17.152344 C 19.523438 17.089844 19.148438 17.089844 18.78125 17.152344 Z M 20.933594 28.996094 L 17.734375 28.996094 L 17.734375 25.335938 L 20.933594 25.335938 Z M 21.980469 24.296875 L 21.945312 24.332031 L 16.722656 24.332031 L 16.691406 24.296875 L 16.691406 20.734375 C 16.691406 19.285156 17.875 18.109375 19.335938 18.109375 C 20.796875 18.109375 21.980469 19.285156 21.980469 20.734375 Z M 21.980469 24.296875 "/>
<path style=" stroke:none;fill-rule:nonzero;fill:rgb(26.27451%,26.27451%,26.27451%);fill-opacity:1;" d="M 19.335938 28.445312 C 19.605469 28.441406 19.820312 28.226562 19.824219 27.957031 L 19.824219 26.402344 C 19.824219 26.136719 19.605469 25.917969 19.335938 25.917969 C 19.0625 25.917969 18.84375 26.136719 18.84375 26.402344 L 18.84375 27.957031 C 18.847656 28.226562 19.066406 28.441406 19.335938 28.445312 Z M 19.335938 28.445312 "/>
</g>
</svg>