<svg xmlns:xlink="http://www.w3.org/1999/xlink" xmlns="http://www.w3.org/2000/svg" width="46" height="46" viewBox="0 0 46 46" fill="none">
<path d="M45.2106 19.4289L21.7573 42.8821C20.7048 43.9346 18.9983 43.9346 17.9458 42.8821L3.11788 28.0542C2.06532 27.0017 2.06532 25.2952 3.11788 24.2427L26.5711 0.789424C27.6236 -0.263141 29.3301 -0.263141 30.3826 0.789424L39.0303 9.43706L40.3795 12.5831L43.0733 13.4801L45.2105 15.6173C46.2631 16.6698 46.2631 18.3763 45.2106 19.4289Z" fill="#D3E0E4"/>
<path d="M11.7623 36.7002L39.0229 9.43952L43.0654 13.4819L15.8047 40.7426L11.7623 36.7002Z" fill="#002C3B"/>
<path d="M2.6952 19.6396C1.20664 19.6396 0 20.8463 0 22.3348V43.3047C0 44.7932 1.20664 45.9999 2.6952 45.9999H19.2791L21.9743 32.8198L19.2791 19.6397H2.6952V19.6396Z" fill="#FFE477"/>
<path d="M35.863 19.6396H19.2791V45.9999H35.863C37.3516 45.9999 38.5582 44.7932 38.5582 43.3047V22.3348C38.5582 20.8463 37.3516 19.6396 35.863 19.6396Z" fill="#FFCD00"/>
<path d="M4.28824 37.4668H9.60757V40.162H4.28824V37.4668Z" fill="#FDFAE5"/>
<path d="M12.509 37.4668H17.8284V40.162H12.509V37.4668Z" fill="#FDFAE5"/>
<path d="M20.7299 37.4668H26.0492V40.162H20.7299L20.7299 37.4668Z" fill="#FAF1B4"/>
<path d="M28.9507 37.4668H34.27V40.162H28.9507V37.4668Z" fill="#FAF1B4"/>
<path d="M4.37009 26.8252H12.5091V32.5429H4.37009V26.8252Z" fill="#FDFAE5"/>
</svg>