<svg xmlns:xlink="http://www.w3.org/1999/xlink" xmlns="http://www.w3.org/2000/svg" width="20" height="20" viewBox="0 0 20 20" fill="none">
<path fill-rule="evenodd" clip-rule="evenodd" d="M12.6946 11.9877C13.4646 11.3713 14.4393 11 15.5 11C17.9813 11 20 13.0187 20 15.5C20 17.9813 17.9813 20 15.5 20C13.0187 20 11 17.9813 11 15.5C11 14.4393 11.371 13.4646 11.9877 12.6943L11.6263 12.3333H8.37367L8.01266 12.6943C8.62898 13.4646 9 14.4393 9 15.5C9 17.9813 6.98133 20 4.5 20C2.01867 20 0 17.9813 0 15.5C0 13.0187 2.01867 11 4.5 11C5.5607 11 6.53535 11.3713 7.30535 11.9873L7.66668 11.6263V8.37367L7.30535 8.01266C6.53531 8.62867 5.56066 9 4.5 9C2.01867 9 0 6.98133 0 4.5C0 2.01867 2.01867 0 4.5 0C6.98133 0 9 2.01867 9 4.5C9 5.56066 8.62902 6.53531 8.01234 7.30566L8.37367 7.66668H11.6263L11.9873 7.30566C11.371 6.53531 11 5.56066 11 4.5C11 2.01867 13.0187 0 15.5 0C17.9813 0 20 2.01867 20 4.5C20 6.98133 17.9813 9 15.5 9C14.4393 9 13.4646 8.62867 12.6946 8.01234L12.3333 8.37367V11.6263L12.6946 11.9877ZM1 15.5C1 17.433 2.56699 19 4.5 19C6.43301 19 8 17.433 7.99996 15.5C7.99996 14.714 7.73766 13.991 7.30031 13.407L5.50133 15.206C6.2377 15.5327 6.66668 16.2 6.66668 16.8333C6.66668 17.1093 6.44301 17.3333 6.16668 17.3333C5.89035 17.3333 5.66668 17.1093 5.66668 16.8333C5.66668 16.431 5.19801 16 4.5 16C3.16164 16 2.33332 15.0487 2.33332 14.1667C2.33332 13.8907 2.55699 13.6667 2.83332 13.6667C3.10965 13.6667 3.33332 13.8907 3.33332 14.1667C3.33332 14.5304 3.71863 14.9143 4.30797 14.985L6.59332 12.6996C6.00898 12.2623 5.28602 12 4.5 12C2.56699 12 1 13.567 1 15.5ZM7.30035 6.59332L5.015 4.30797C5.08566 3.71863 5.46934 3.33332 5.83332 3.33332C6.10965 3.33332 6.33332 3.10934 6.33332 2.83332C6.33332 2.5573 6.10965 2.33332 5.83332 2.33332C4.95164 2.33332 4 3.16164 4 4.5C4 5.19801 3.56934 5.66668 3.16668 5.66668C2.89035 5.66668 2.66668 5.89066 2.66668 6.16668C2.66668 6.4427 2.89035 6.66668 3.16668 6.66668C3.8 6.66668 4.46703 6.2377 4.79402 5.50102L6.59301 7.3C6.00902 7.73766 5.28602 8 4.5 8C2.56699 8 1 6.43301 1 4.5C1 2.56699 2.56699 1 4.5 1C6.43301 1 8 2.56699 8 4.5C8 5.28602 7.73766 6.00898 7.30035 6.59332ZM8.66664 11.3333H11.3333V8.66664H8.66664V11.3333ZM15.5 1C17.433 1 19 2.56699 19 4.5C19 6.43301 17.433 8 15.5 8C14.714 8 13.991 7.73766 13.4067 7.30035L15.692 5.015C16.2814 5.08566 16.6667 5.46965 16.6667 5.83332C16.6667 6.10934 16.8904 6.33332 17.1667 6.33332C17.443 6.33332 17.6667 6.10934 17.6667 5.83332C17.6667 4.95133 16.8384 4 15.5 4C14.802 4 14.3333 3.56898 14.3333 3.16668C14.3333 2.89066 14.1096 2.66668 13.8333 2.66668C13.557 2.66668 13.3333 2.89066 13.3333 3.16668C13.3333 3.8 13.7623 4.46734 14.4987 4.79402L12.6997 6.59301C12.2623 6.00898 12 5.28602 12 4.5C12 2.56699 13.567 1 15.5 1ZM12 15.5C12 17.433 13.567 19 15.5 19C17.433 19 19 17.433 19 15.5C19 13.567 17.433 12 15.5 12C14.714 12 13.991 12.2623 13.407 12.7L15.206 14.499C15.533 13.7623 16.2 13.3333 16.8333 13.3333C17.1096 13.3333 17.3333 13.5573 17.3333 13.8333C17.3333 14.1093 17.1096 14.3333 16.8333 14.3333C16.4307 14.3333 16 14.802 16 15.5C16 16.8384 15.0484 17.6667 14.1667 17.6667C13.8904 17.6667 13.6667 17.4427 13.6667 17.1667C13.6667 16.8907 13.8904 16.6667 14.1667 16.6667C14.5307 16.6667 14.9143 16.2814 14.985 15.692L12.6996 13.4067C12.2623 13.991 12 14.714 12 15.5Z" fill="#434343"/>
</svg>