<svg xmlns:xlink="http://www.w3.org/1999/xlink" xmlns="http://www.w3.org/2000/svg" width="22" height="18" viewBox="0 0 22 18" fill="none">
<path fill-rule="evenodd" clip-rule="evenodd" d="M4.42404 0.264193C4.0729 -0.0869456 3.55804 -0.0869456 3.21332 0.257529C-0.997908 4.7927 -1.07179 12.3094 3.00308 16.9624L3.22534 17.2089C3.57036 17.6401 4.14421 17.6401 4.42404 17.1883C4.74592 16.8664 4.77274 16.3127 4.49652 15.9436L4.41367 15.8479C0.920006 11.9034 0.85282 5.75342 4.2219 1.82218L4.42404 1.59352C4.74592 1.27165 4.77274 0.717924 4.50451 0.357406L4.42404 0.264193ZM18.6936 0.183723C18.3488 -0.0845071 17.8894 -0.057684 17.5675 0.264193C17.2456 0.586069 17.2188 1.13979 17.495 1.5088L17.5779 1.60454C21.0716 5.549 21.1387 11.699 17.7697 15.6303L17.5675 15.8589C17.2164 16.2101 17.2164 16.8371 17.6051 17.2364C17.83 17.6113 18.3409 17.6381 18.6986 17.2835L18.7782 17.1949C22.9898 12.6594 23.0637 5.24954 18.998 0.506859L18.7795 0.259839L18.6936 0.183723ZM14.3139 3.74215C14.6358 3.42028 15.0953 3.39345 15.4401 3.66168L15.5275 3.73984L15.6988 3.94041C18.0159 6.76992 17.9565 11.08 15.5206 13.8336C15.2607 14.1787 14.6681 14.1505 14.3324 13.7309C13.9628 13.3592 13.9628 12.7321 14.3139 12.381L14.4806 12.1949C16.2032 10.1737 16.1477 7.01974 14.3192 5.07692C13.9628 4.72035 13.9628 4.09329 14.3139 3.74215ZM7.67762 3.62996C7.32648 3.27882 6.81162 3.27882 6.47095 3.61883C3.9742 6.44125 3.97419 10.899 6.49807 13.7584C6.74593 14.1715 7.30731 14.1448 7.67762 13.5981C7.99949 13.2762 8.02632 12.7225 7.75402 12.3578L7.67234 12.2633C5.78667 10.2598 5.78667 6.96826 7.67762 4.95929C7.99949 4.63742 8.02632 4.08369 7.75809 3.72318L7.67762 3.62996ZM9.00193 8.72622C9.00193 7.62505 9.89461 6.73238 10.9958 6.73238C12.0969 6.73238 12.9896 7.62505 12.9896 8.72622C12.9896 9.82739 12.0969 10.7201 10.9958 10.7201C9.89461 10.7201 9.00193 9.82739 9.00193 8.72622Z" fill="#434343"/>
</svg>