<svg xmlns:xlink="http://www.w3.org/1999/xlink" xmlns="http://www.w3.org/2000/svg" width="20" height="20" viewBox="0 0 20 20" fill="none">
<path fill-rule="evenodd" clip-rule="evenodd" d="M18.8919 0H1.10793C0.497142 0 0 0.4968 0 1.10776V14.528C0 15.1366 0.497142 15.632 1.10793 15.632H5.82813C6.1542 16.0215 6.6187 16.3959 7.07876 16.7586C7.72304 17.2663 8.5249 17.8983 8.46423 18.3102C8.44491 18.4414 8.28068 18.7933 7.17583 19.2277C6.9969 19.298 6.89333 19.4854 6.92905 19.6746C6.96477 19.8633 7.12986 20 7.32212 20H12.674C12.8662 20 13.0311 19.8633 13.067 19.6746C13.1027 19.4854 12.9992 19.298 12.8202 19.2277C11.7154 18.7933 11.5512 18.4414 11.532 18.3102C11.4712 17.898 12.2742 17.2659 12.9198 16.7577L12.9198 16.7577L12.9202 16.7574C13.3803 16.3954 13.8449 16.0213 14.1714 15.632H18.8919C19.5029 15.632 20 15.1366 20 14.528V1.10776C20 0.4968 19.5029 0 18.8919 0ZM1.10793 0.799973H18.8919C19.0618 0.799973 19.1999 0.937887 19.1999 1.10776V12.3011H0.799973V1.10776C0.799973 0.937887 0.938058 0.799973 1.10793 0.799973ZM10.7404 18.4269C10.6122 17.5562 11.5339 16.8304 12.4253 16.1288C12.6343 15.9644 12.8452 15.7975 13.0392 15.632H6.9593C7.15344 15.7978 7.36467 15.9651 7.57385 16.13L7.57466 16.1307C8.46444 16.832 9.38396 17.5568 9.25565 18.4269C9.2143 18.7073 9.07177 18.9628 8.82055 19.1999H11.1755C10.9241 18.9628 10.7818 18.7073 10.7404 18.4269ZM18.8919 14.8321H1.10793C0.938058 14.8321 0.799973 14.6957 0.799973 14.528V13.1012H19.1999V14.528C19.1999 14.6957 19.0618 14.8321 18.8919 14.8321ZM8.64162 13.5667H11.3584C11.5792 13.5667 11.7583 13.7457 11.7583 13.9668C11.7583 14.1878 11.5792 14.3667 11.3584 14.3667H8.64162C8.42065 14.3667 8.24155 14.1878 8.24155 13.9668C8.24155 13.7457 8.42065 13.5667 8.64162 13.5667ZM2.39992 4.54417C2.50229 4.54417 2.60465 4.50504 2.68275 4.42694L4.42694 2.68275C4.58314 2.52655 4.58314 2.27345 4.42694 2.11725C4.27074 1.96088 4.01764 1.96088 3.86127 2.11725L2.11725 3.86127C1.96088 4.01764 1.96088 4.27074 2.11725 4.42694C2.19535 4.50504 2.29772 4.54417 2.39992 4.54417ZM2.88612 6.5917C2.78375 6.5917 2.68139 6.55273 2.60329 6.47463C2.44709 6.31826 2.44709 6.06516 2.60329 5.90896L5.90896 2.60346C6.06516 2.44726 6.31826 2.44726 6.47463 2.60346C6.63084 2.75983 6.63084 3.01293 6.47463 3.16913L3.16896 6.47463C3.09086 6.55273 2.98849 6.5917 2.88612 6.5917Z" fill="#434343"/>
</svg>