<svg xmlns="http://www.w3.org/2000/svg" xmlns:xlink="http://www.w3.org/1999/xlink" width="25" height="32" viewBox="0 0 25 31" version="1.1">
<g id="surface1">
<path style=" stroke:none;fill-rule:nonzero;fill:rgb(0%,0%,0%);fill-opacity:1;" d="M 20.667969 16.007812 L 20.636719 16.0625 C 20.539062 16.230469 20.605469 16.441406 20.785156 16.53125 C 20.835938 16.5625 20.898438 16.574219 20.953125 16.574219 C 21.082031 16.574219 21.207031 16.507812 21.273438 16.390625 L 21.300781 16.332031 C 21.746094 15.546875 22.246094 14.652344 21.433594 13.1875 C 20.792969 12.03125 21.433594 10.621094 21.449219 10.589844 C 21.53125 10.417969 21.449219 10.214844 21.265625 10.132812 C 21.082031 10.050781 20.867188 10.132812 20.789062 10.304688 C 20.753906 10.375 19.984375 12.046875 20.800781 13.515625 C 21.425781 14.652344 21.089844 15.25 20.667969 16.007812 Z M 20.667969 16.007812 "/>
<path style=" stroke:none;fill-rule:nonzero;fill:rgb(0%,0%,0%);fill-opacity:1;" d="M 22.828125 18.828125 L 22.796875 18.890625 C 22.703125 19.054688 22.761719 19.265625 22.941406 19.359375 C 22.996094 19.386719 23.058594 19.398438 23.113281 19.398438 C 23.242188 19.398438 23.367188 19.332031 23.429688 19.214844 L 23.464844 19.160156 C 23.90625 18.375 24.402344 17.480469 23.59375 16.011719 C 22.957031 14.855469 23.589844 13.445312 23.605469 13.414062 C 23.6875 13.242188 23.605469 13.035156 23.425781 12.957031 C 23.242188 12.878906 23.027344 12.957031 22.945312 13.132812 C 22.914062 13.203125 22.144531 14.875 22.957031 16.339844 C 23.585938 17.480469 23.253906 18.074219 22.828125 18.828125 Z M 22.828125 18.828125 "/>
<path style=" stroke:none;fill-rule:nonzero;fill:rgb(0%,0%,0%);fill-opacity:1;" d="M 23.226562 21.296875 L 21.441406 21.296875 L 21.246094 20.347656 C 21.230469 20.28125 21.199219 20.21875 21.148438 20.167969 L 19.273438 18.367188 L 19.558594 18.09375 C 19.699219 17.964844 19.773438 17.789062 19.773438 17.601562 C 19.773438 17.414062 19.699219 17.242188 19.558594 17.113281 L 16.566406 14.234375 L 17.117188 13.703125 C 17.316406 13.515625 17.425781 13.261719 17.425781 12.996094 C 17.425781 12.726562 17.316406 12.476562 17.117188 12.285156 C 16.722656 11.90625 16.039062 11.90625 15.644531 12.285156 L 15.433594 12.488281 L 8.457031 6.285156 C 8.03125 5.902344 7.367188 5.914062 6.953125 6.3125 L 6.90625 6.359375 L 6.667969 6.125 C 6.273438 5.746094 5.671875 5.699219 5.21875 5.976562 C 4.425781 5.679688 1.246094 4.320312 1.292969 1.746094 C 1.296875 1.550781 1.136719 1.390625 0.933594 1.390625 C 0.742188 1.40625 0.574219 1.542969 0.570312 1.730469 C 0.519531 4.589844 3.613281 6.089844 4.757812 6.546875 C 4.617188 6.933594 4.703125 7.386719 5.027344 7.695312 L 5.273438 7.929688 L 5.183594 8.015625 C 4.769531 8.414062 4.753906 9.050781 5.152344 9.457031 L 11.613281 16.152344 L 11.402344 16.355469 C 11.203125 16.546875 11.09375 16.796875 11.09375 17.066406 C 11.09375 17.335938 11.203125 17.585938 11.402344 17.773438 C 11.597656 17.964844 11.859375 18.070312 12.136719 18.070312 C 12.421875 18.070312 12.683594 17.964844 12.878906 17.773438 L 13.429688 17.246094 L 16.429688 20.121094 C 16.566406 20.253906 16.746094 20.324219 16.941406 20.324219 C 17.132812 20.324219 17.316406 20.253906 17.449219 20.121094 L 17.738281 19.847656 L 19.253906 21.300781 L 1.773438 21.300781 C 1.109375 21.300781 0.570312 21.820312 0.570312 22.457031 C 0.570312 23.09375 1.109375 23.613281 1.773438 23.613281 L 23.226562 23.613281 C 23.890625 23.613281 24.429688 23.09375 24.429688 22.457031 C 24.429688 21.8125 23.894531 21.296875 23.226562 21.296875 Z M 5.535156 7.203125 C 5.367188 7.042969 5.367188 6.773438 5.535156 6.613281 C 5.710938 6.449219 5.988281 6.449219 6.15625 6.613281 L 6.394531 6.84375 L 5.78125 7.4375 Z M 5.675781 8.988281 C 5.546875 8.851562 5.550781 8.640625 5.691406 8.511719 L 7.46875 6.804688 C 7.539062 6.738281 7.628906 6.703125 7.71875 6.703125 C 7.804688 6.703125 7.894531 6.734375 7.964844 6.796875 L 14.921875 12.984375 L 12.121094 15.664062 Z M 12.363281 17.28125 C 12.242188 17.398438 12.035156 17.398438 11.914062 17.28125 C 11.851562 17.222656 11.820312 17.148438 11.820312 17.066406 C 11.820312 16.984375 11.851562 16.90625 11.914062 16.84375 L 12.371094 16.40625 L 15.699219 13.207031 L 16.160156 12.769531 C 16.222656 12.710938 16.300781 12.675781 16.386719 12.675781 C 16.472656 12.675781 16.550781 12.710938 16.613281 12.769531 C 16.671875 12.828125 16.707031 12.902344 16.707031 12.984375 C 16.707031 13.070312 16.671875 13.148438 16.613281 13.207031 Z M 13.9375 16.753906 L 16.050781 14.722656 L 19.050781 17.597656 L 16.9375 19.625 Z M 18.761719 18.859375 L 20.558594 20.589844 L 20.691406 21.199219 L 20.050781 21.078125 L 18.25 19.351562 Z M 23.226562 22.914062 L 1.773438 22.914062 C 1.507812 22.914062 1.292969 22.707031 1.292969 22.453125 C 1.292969 22.199219 1.507812 21.992188 1.773438 21.992188 L 23.226562 21.992188 C 23.492188 21.992188 23.707031 22.199219 23.707031 22.453125 C 23.707031 22.707031 23.492188 22.914062 23.226562 22.914062 Z M 23.226562 22.914062 "/>
<path style=" stroke:none;fill-rule:nonzero;fill:rgb(0%,0%,0%);fill-opacity:1;" d="M 15.304688 16.035156 C 15.238281 16.097656 15.203125 16.191406 15.203125 16.28125 C 15.203125 16.375 15.238281 16.460938 15.304688 16.53125 C 15.371094 16.589844 15.464844 16.632812 15.5625 16.632812 C 15.65625 16.632812 15.753906 16.597656 15.816406 16.53125 C 15.886719 16.460938 15.925781 16.375 15.925781 16.28125 C 15.925781 16.191406 15.886719 16.097656 15.816406 16.035156 C 15.679688 15.90625 15.441406 15.90625 15.304688 16.035156 Z M 15.304688 16.035156 "/>
<path style=" stroke:none;fill-rule:nonzero;fill:rgb(0%,0%,0%);fill-opacity:1;" d="M 16.414062 16.910156 C 16.371094 16.925781 16.328125 16.945312 16.296875 16.984375 C 16.226562 17.046875 16.183594 17.136719 16.183594 17.230469 C 16.183594 17.324219 16.226562 17.410156 16.296875 17.476562 C 16.328125 17.511719 16.367188 17.53125 16.414062 17.550781 C 16.457031 17.566406 16.503906 17.578125 16.550781 17.578125 C 16.648438 17.578125 16.738281 17.539062 16.808594 17.476562 C 16.824219 17.460938 16.84375 17.4375 16.847656 17.425781 C 16.863281 17.40625 16.875 17.382812 16.886719 17.363281 C 16.894531 17.34375 16.902344 17.324219 16.902344 17.300781 C 16.914062 17.277344 16.914062 17.257812 16.914062 17.234375 C 16.914062 17.140625 16.875 17.050781 16.808594 16.988281 C 16.707031 16.890625 16.546875 16.859375 16.414062 16.910156 Z M 16.414062 16.910156 "/>
<path style=" stroke:none;fill-rule:nonzero;fill:rgb(0%,0%,0%);fill-opacity:1;" d="M 17.871094 18.050781 C 17.851562 18.007812 17.828125 17.96875 17.792969 17.929688 C 17.660156 17.808594 17.414062 17.808594 17.28125 17.929688 C 17.246094 17.96875 17.222656 18.003906 17.199219 18.050781 C 17.179688 18.089844 17.175781 18.136719 17.175781 18.179688 C 17.175781 18.226562 17.179688 18.273438 17.199219 18.3125 C 17.222656 18.355469 17.246094 18.390625 17.28125 18.425781 C 17.347656 18.484375 17.4375 18.523438 17.539062 18.523438 C 17.632812 18.523438 17.726562 18.488281 17.792969 18.425781 C 17.828125 18.386719 17.851562 18.355469 17.871094 18.3125 C 17.890625 18.273438 17.902344 18.226562 17.902344 18.179688 C 17.902344 18.132812 17.890625 18.089844 17.871094 18.050781 Z M 17.871094 18.050781 "/>
</g>
</svg>