<svg xmlns:xlink="http://www.w3.org/1999/xlink" xmlns="http://www.w3.org/2000/svg" width="22" height="17" viewBox="0 0 22 17" fill="none">
<path fill-rule="evenodd" clip-rule="evenodd" d="M20.8667 4.997L21.9309 7.40701C21.9711 7.49784 21.9918 7.59619 21.9918 7.6954V12.5153C21.9918 12.6146 21.9711 12.7129 21.931 12.8037L20.8668 15.2137C20.7526 15.4725 20.4964 15.6394 20.2136 15.6394H18.4499C18.0555 15.6394 17.7358 15.3198 17.7358 14.9253V13.7996H17.1872V15.7462C17.1872 16.1407 16.8674 16.4603 16.4731 16.4603H9.1749C9.00733 16.4603 8.84528 16.4015 8.71674 16.294L5.89771 13.9363H3.12333C2.72896 13.9363 2.40924 13.6167 2.40924 13.2223V9.39008H1.42818V13.2223C1.42818 13.6167 1.10846 13.9363 0.714089 13.9363C0.319721 13.9363 0 13.6167 0 13.2223V4.12991C0 3.73554 0.319721 3.41582 0.714089 3.41582C1.10846 3.41582 1.42818 3.73545 1.42818 4.12991V7.9619H2.40924V4.12991C2.40924 3.73545 2.72896 3.41582 3.12333 3.41582H4.68995V2.82227C4.68995 2.42781 5.00967 2.10818 5.40403 2.10818H8.91688V1.42818H5.40403C5.00967 1.42818 4.68995 1.10846 4.68995 0.714089C4.68995 0.319626 5.00967 0 5.40403 0H13.8577C14.2521 0 14.5718 0.319626 14.5718 0.714089C14.5718 1.10846 14.2521 1.42818 13.8577 1.42818H10.3449V2.10818H13.8577C14.2521 2.10818 14.5718 2.42781 14.5718 2.82227V4.77078H16.473C16.8674 4.77078 17.1871 5.09041 17.1871 5.48487V6.41109H17.7357V5.2854C17.7357 4.89094 18.0554 4.57131 18.4498 4.57131H20.2135C20.4964 4.57131 20.7525 4.73822 20.8667 4.997ZM19.7484 14.2113L20.5637 12.3648V7.84612L19.7484 5.99958H19.164V7.12537C19.164 7.51983 18.8442 7.83946 18.4499 7.83946H16.4731C16.0787 7.83946 15.759 7.51983 15.759 7.12537V6.19915H13.8578C13.4634 6.19915 13.1437 5.87952 13.1437 5.48506V3.53636H6.11812V4.12991C6.11812 4.52437 5.7984 4.844 5.40403 4.844H3.83742V12.5083H6.15687C6.32445 12.5083 6.4865 12.5671 6.61503 12.6746L9.43407 15.0322H15.759V13.0856C15.759 12.6912 16.0787 12.3715 16.4731 12.3715H18.4499C18.8442 12.3715 19.164 12.6912 19.164 13.0856V14.2113H19.7484Z" fill="#434343"/>
</svg>