<svg xmlns="http://www.w3.org/2000/svg" xmlns:xlink="http://www.w3.org/1999/xlink" width="25" height="25" viewBox="0 0 25 25" version="1.1">
<g id="surface1">
<path style=" stroke:none;fill-rule:nonzero;fill:rgb(36.862745%,36.862745%,36.862745%);fill-opacity:1;" d="M 24.425781 13.179688 L 20.789062 13.179688 L 20.789062 10.382812 C 20.78125 10.066406 20.527344 9.8125 20.210938 9.804688 L 17.863281 9.804688 L 19.210938 7.53125 L 22.335938 9.332031 C 22.425781 9.382812 22.523438 9.40625 22.625 9.40625 L 22.773438 9.40625 C 22.925781 9.367188 23.050781 9.269531 23.125 9.132812 L 24.136719 7.394531 C 24.253906 7.179688 24.222656 6.914062 24.0625 6.730469 C 21.773438 4.070312 19.273438 1.429688 16.25 0.03125 C 15.980469 -0.09375 15.660156 0.0117188 15.511719 0.269531 L 13.585938 3.554688 C 13.511719 3.6875 13.488281 3.847656 13.53125 3.996094 C 13.570312 4.140625 13.667969 4.269531 13.800781 4.34375 L 15.726562 5.457031 L 12.335938 11.28125 L 8.488281 5.617188 L 8.386719 4.792969 C 8.371094 4.703125 8.339844 4.617188 8.289062 4.542969 L 6.835938 2.382812 C 6.75 2.253906 6.617188 2.167969 6.46875 2.140625 C 6.320312 2.113281 6.164062 2.144531 6.039062 2.230469 L 3.414062 3.992188 C 3.285156 4.082031 3.199219 4.21875 3.175781 4.367188 C 3.140625 4.515625 3.171875 4.671875 3.261719 4.792969 L 4.710938 6.957031 C 4.761719 7.03125 4.832031 7.089844 4.914062 7.132812 L 5.625 7.53125 L 9.4375 13.167969 L 7.210938 13.167969 L 5 8.519531 C 4.933594 8.382812 4.816406 8.277344 4.675781 8.226562 C 4.53125 8.175781 4.375 8.1875 4.238281 8.257812 C 4.097656 8.324219 3.992188 8.441406 3.945312 8.589844 C 3.894531 8.734375 3.90625 8.894531 3.976562 9.03125 L 6 13.179688 L 4.476562 13.179688 L 3.574219 11.117188 C 3.4375 10.832031 3.101562 10.707031 2.8125 10.832031 C 2.675781 10.890625 2.566406 11.003906 2.511719 11.144531 C 2.457031 11.285156 2.460938 11.445312 2.523438 11.582031 L 3.226562 13.179688 L 0.574219 13.179688 C 0.25 13.1875 -0.0078125 13.457031 0 13.78125 L 0 16.945312 C -0.00390625 17.097656 0.0546875 17.246094 0.164062 17.359375 C 0.273438 17.46875 0.421875 17.53125 0.574219 17.53125 L 1.574219 17.53125 L 1.574219 24.429688 C 1.582031 24.746094 1.835938 25 2.148438 25.007812 L 22.851562 25.007812 C 23.164062 25 23.417969 24.746094 23.425781 24.429688 L 23.425781 17.53125 L 24.425781 17.53125 C 24.742188 17.53125 25 17.273438 25 16.957031 L 25 13.78125 C 25.007812 13.457031 24.75 13.1875 24.425781 13.179688 Z M 19.636719 10.957031 L 19.636719 13.179688 L 15.886719 13.179688 L 17.136719 10.957031 Z M 14.875 3.632812 L 16.125 1.34375 C 18.714844 2.824219 21 4.777344 22.863281 7.105469 L 22.351562 7.992188 Z M 12.875 12.695312 L 16.726562 6.03125 L 18.226562 6.894531 L 14.585938 13.144531 L 12.601562 13.144531 Z M 6.511719 6.78125 C 6.457031 6.710938 6.390625 6.652344 6.3125 6.605469 L 5.585938 6.195312 L 4.539062 4.632812 L 6.25 3.507812 L 7.261719 5.03125 L 7.363281 5.84375 C 7.378906 5.933594 7.410156 6.019531 7.460938 6.09375 L 11.699219 12.34375 L 11.261719 13.09375 L 10.824219 13.09375 Z M 22.273438 21.429688 L 19.886719 21.429688 C 19.570312 21.429688 19.3125 21.6875 19.3125 22.007812 C 19.3125 22.324219 19.570312 22.582031 19.886719 22.582031 L 22.273438 22.582031 L 22.273438 23.832031 L 2.726562 23.832031 L 2.726562 22.53125 L 5.113281 22.53125 C 5.429688 22.53125 5.6875 22.273438 5.6875 21.957031 C 5.6875 21.640625 5.429688 21.382812 5.113281 21.382812 L 2.726562 21.382812 L 2.726562 17.53125 L 9.335938 17.53125 L 9.335938 19.542969 C 9.34375 19.859375 9.597656 20.113281 9.914062 20.117188 L 15.085938 20.117188 C 15.402344 20.113281 15.65625 19.859375 15.664062 19.542969 L 15.664062 17.53125 L 22.273438 17.53125 L 22.273438 21.46875 Z M 10.488281 18.929688 L 10.488281 17.53125 L 14.511719 17.53125 L 14.511719 18.96875 Z M 23.851562 16.34375 L 1.148438 16.34375 L 1.148438 14.332031 L 23.851562 14.332031 Z M 23.851562 16.34375 "/>
<path style=" stroke:none;fill-rule:nonzero;fill:rgb(36.862745%,36.862745%,36.862745%);fill-opacity:1;" d="M 7.3125 21.429688 C 6.996094 21.429688 6.738281 21.6875 6.738281 22.007812 C 6.738281 22.324219 6.996094 22.582031 7.3125 22.582031 C 7.628906 22.582031 7.886719 22.324219 7.886719 22.007812 C 7.886719 21.6875 7.628906 21.429688 7.3125 21.429688 Z M 7.3125 21.429688 "/>
<path style=" stroke:none;fill-rule:nonzero;fill:rgb(36.862745%,36.862745%,36.862745%);fill-opacity:1;" d="M 17.6875 22.53125 C 18.003906 22.53125 18.261719 22.273438 18.261719 21.957031 C 18.261719 21.640625 18.003906 21.382812 17.6875 21.382812 C 17.371094 21.382812 17.113281 21.640625 17.113281 21.957031 C 17.113281 22.273438 17.371094 22.53125 17.6875 22.53125 Z M 17.6875 22.53125 "/>
</g>
</svg>