<svg xmlns:xlink="http://www.w3.org/1999/xlink" xmlns="http://www.w3.org/2000/svg" width="25" height="16" viewBox="0 0 25 16" fill="none">
<path fill-rule="evenodd" clip-rule="evenodd" d="M0 1C0 0.447715 0.447715 0 1 0H24C24.5523 0 25 0.447715 25 1C25 1.55228 24.5523 2 24 2H1C0.447716 2 0 1.55228 0 1ZM0 8C0 7.44772 0.447715 7 1 7H17C17.5523 7 18 7.44772 18 8C18 8.55229 17.5523 9 17 9H1C0.447716 9 0 8.55229 0 8ZM1 14C0.447715 14 0 14.4477 0 15C0 15.5523 0.447716 16 1 16H21C21.5523 16 22 15.5523 22 15C22 14.4477 21.5523 14 21 14H1Z" fill="white"/>
</svg>