<svg xmlns:xlink="http://www.w3.org/1999/xlink" xmlns="http://www.w3.org/2000/svg" width="24" height="11" viewBox="0 0 24 11" fill="none">
<path fill-rule="evenodd" clip-rule="evenodd" d="M17.5962 0.000677301L17.3226 0.00618359C17.1353 0.0133824 16.9394 0.0274228 16.7409 0.0470181C14.8022 0.331668 13.2232 1.5224 12.0203 3.21951L11.851 3.46536L11.5631 3.89553L11.2711 3.46822C10.0165 1.63259 8.38176 0.344874 6.38524 0.0489938C6.06603 0.017073 5.78588 0.000730772 5.51455 0.00068736C2.52271 -0.046439 0.0565741 2.33567 0 5.31411C0.0565741 8.30579 2.52271 10.6879 5.52006 10.6407C5.80264 10.6407 6.08793 10.622 6.39056 10.5842C8.32635 10.3077 9.89895 9.12617 11.1183 7.42168L11.2901 7.17466L11.5785 6.74821L11.869 7.17324C13.1286 9.01617 14.752 10.2968 16.7538 10.5924C17.0935 10.6252 17.3591 10.6407 17.6338 10.6407C20.6147 10.6722 23.0636 8.29463 23.1201 5.32734C23.0649 2.40499 20.7108 0.0649487 17.8144 0.00116651L17.5962 0.000677301ZM20.5154 2.43299C21.3092 3.18366 21.7714 4.21946 21.7999 5.33176C21.7307 7.52709 19.9594 9.27115 17.7942 9.33017L17.5901 9.33073C17.5161 9.33073 17.4423 9.32863 17.361 9.32414L17.0869 9.30327C17.035 9.2985 16.9792 9.29307 16.9187 9.28694C15.0573 9.01088 13.6253 7.66903 12.6154 5.95889L12.07 5.67073L12.3404 5.15758C13.3214 3.29566 14.7463 1.78605 16.6415 1.40127L16.8914 1.35753C16.9658 1.34266 17.0429 1.33202 17.1254 1.32471L17.393 1.31174L17.5697 1.31088C18.6617 1.27855 19.7217 1.68231 20.5154 2.43299ZM5.60117 1.29176L5.31287 1.29136C3.14075 1.35031 1.36945 3.09437 1.30024 5.2897C1.36374 7.50437 3.1323 9.25093 5.303 9.31008L5.76142 9.30808L5.96212 9.29677C6.04616 9.28946 6.12427 9.27882 6.1987 9.26393L6.14006 9.27073L6.39718 9.22928C8.34535 8.86146 9.76452 7.35474 10.7598 5.46374L10.8447 5.30236L10.7611 5.14029L10.6344 4.90193C9.64125 3.08909 8.15044 1.62383 6.1912 1.33449L5.79568 1.30066L5.60117 1.29176ZM3.87006 5.91073H7.40006V4.75073H3.87006V5.91073ZM19.1801 5.91073H17.9901L18.0001 5.92073V7.09073H16.8501V5.91073H15.6501V4.76073H16.8501V3.56073H17.9801V4.75073H19.1801V5.91073Z" fill="#434343"/>
</svg>