<svg xmlns:xlink="http://www.w3.org/1999/xlink" xmlns="http://www.w3.org/2000/svg" width="875" height="1190" viewBox="0 0 875 1190" fill="none">
<path d="M1331.08 546.765C1348.31 576.613 1348.31 613.387 1331.08 643.235L1043.3 1141.76C1026.07 1171.61 994.233 1190 959.774 1190L384.226 1190C349.767 1190 317.925 1171.61 300.696 1141.76L12.9222 643.235C-4.30742 613.387 -4.30754 576.613 12.9221 546.765L300.696 48.2351C317.925 18.387 349.767 -4.34593e-05 384.226 -4.1953e-05L959.774 -1.67951e-05C994.233 -1.52888e-05 1026.07 18.3872 1043.3 48.2352L1331.08 546.765Z" fill="url(#paint0_linear_2401_14013)"/>
<defs>
<linearGradient id="paint0_linear_2401_14013" x1="1344" y1="595" x2="323.517" y2="518.556" gradientUnits="userSpaceOnUse">
<stop stop-color="#FF6969"/>
<stop offset="1" stop-color="#5558FF"/>
</linearGradient>
</defs>
</svg>