<svg xmlns:xlink="http://www.w3.org/1999/xlink" xmlns="http://www.w3.org/2000/svg" width="203" height="24" viewBox="0 0 203 24" fill="none">
<path d="M122.639 23.6637C122.39 23.6637 122.187 23.586 122.028 23.4304C121.87 23.2527 121.791 23.0527 121.791 22.8305V18.5977C121.791 18.3533 121.87 18.1533 122.028 17.9978C122.187 17.8422 122.39 17.7645 122.639 17.7645H126.944C127.17 17.7645 127.362 17.8422 127.52 17.9978C127.701 18.1533 127.792 18.3533 127.792 18.5977V22.8305C127.792 23.0527 127.701 23.2527 127.52 23.4304C127.362 23.586 127.17 23.6637 126.944 23.6637H122.639Z" fill="#1B1B1B"/>
<path d="M141.466 23.997C139.341 23.997 137.511 23.6526 135.974 22.9638C134.437 22.275 133.239 21.264 132.38 19.9309C131.544 18.5977 131.081 16.9423 130.99 14.9648C130.968 14.0538 130.956 13.0761 130.956 12.0318C130.956 10.9875 130.968 9.98765 130.99 9.03221C131.081 7.09912 131.555 5.45488 132.414 4.09949C133.273 2.7441 134.471 1.72201 136.008 1.03321C137.545 0.344402 139.364 0 141.466 0C142.958 0 144.336 0.188865 145.602 0.566597C146.868 0.922107 147.975 1.45537 148.924 2.1664C149.874 2.8552 150.608 3.69954 151.128 4.69942C151.67 5.67707 151.953 6.78804 151.976 8.03233C151.998 8.23231 151.93 8.39895 151.772 8.53227C151.637 8.66559 151.467 8.73225 151.264 8.73225H146.687C146.393 8.73225 146.167 8.6767 146.009 8.5656C145.851 8.43228 145.715 8.19898 145.602 7.86569C145.286 6.68806 144.766 5.88816 144.043 5.46599C143.342 5.0216 142.472 4.7994 141.432 4.7994C140.189 4.7994 139.206 5.1438 138.483 5.83261C137.759 6.49919 137.364 7.62127 137.296 9.19886C137.228 11.0209 137.228 12.8873 137.296 14.7982C137.364 16.3757 137.759 17.5089 138.483 18.1977C139.206 18.8643 140.189 19.1976 141.432 19.1976C142.472 19.1976 143.353 18.9754 144.076 18.531C144.8 18.0866 145.308 17.2867 145.602 16.1313C145.692 15.798 145.817 15.5758 145.975 15.4647C146.156 15.3314 146.393 15.2648 146.687 15.2648H151.264C151.467 15.2648 151.637 15.3314 151.772 15.4647C151.93 15.5981 151.998 15.7647 151.976 15.9647C151.953 17.209 151.67 18.331 151.128 19.3309C150.608 20.3086 149.874 21.1529 148.924 21.8639C147.975 22.5527 146.868 23.086 145.602 23.4637C144.336 23.8193 142.958 23.997 141.466 23.997Z" fill="#1B1B1B"/>
<path d="M165.236 23.997C163.157 23.997 161.349 23.6637 159.812 22.9971C158.275 22.3306 157.077 21.3307 156.218 19.9975C155.36 18.6421 154.885 16.9534 154.795 14.9315C154.772 13.976 154.761 13.0206 154.761 12.0652C154.761 11.0875 154.772 10.121 154.795 9.16553C154.885 7.16578 155.36 5.4882 156.218 4.13282C157.1 2.75521 158.309 1.72201 159.846 1.03321C161.405 0.344402 163.202 0 165.236 0C167.293 0 169.09 0.344402 170.627 1.03321C172.164 1.72201 173.373 2.75521 174.254 4.13282C175.136 5.4882 175.61 7.16578 175.678 9.16553C175.723 10.121 175.746 11.0875 175.746 12.0652C175.746 13.0206 175.723 13.976 175.678 14.9315C175.61 16.9534 175.136 18.6421 174.254 19.9975C173.396 21.3307 172.198 22.3306 170.661 22.9971C169.124 23.6637 167.316 23.997 165.236 23.997ZM165.236 19.1976C166.434 19.1976 167.406 18.8421 168.152 18.1311C168.92 17.4201 169.327 16.2869 169.372 14.7315C169.418 13.7538 169.44 12.8317 169.44 11.9652C169.44 11.0986 169.418 10.1987 169.372 9.26551C169.327 8.2212 169.124 7.37686 168.762 6.7325C168.423 6.06591 167.949 5.57708 167.338 5.26601C166.728 4.95494 166.027 4.7994 165.236 4.7994C164.468 4.7994 163.779 4.95494 163.168 5.26601C162.558 5.57708 162.072 6.06591 161.711 6.7325C161.349 7.37686 161.146 8.2212 161.1 9.26551C161.078 10.1987 161.066 11.0986 161.066 11.9652C161.066 12.8317 161.078 13.7538 161.1 14.7315C161.168 16.2869 161.575 17.4201 162.321 18.1311C163.089 18.8421 164.061 19.1976 165.236 19.1976Z" fill="#1B1B1B"/>
<path d="M180.523 23.6637C180.297 23.6637 180.094 23.586 179.913 23.4304C179.755 23.2527 179.676 23.0527 179.676 22.8305V1.16652C179.676 0.922108 179.755 0.722132 179.913 0.566597C180.094 0.41106 180.297 0.333292 180.523 0.333292H184.185C184.569 0.333292 184.852 0.433279 185.032 0.633254C185.213 0.81101 185.326 0.955437 185.371 1.06653L191.338 11.5652L197.305 1.06653C197.373 0.955437 197.486 0.81101 197.644 0.633254C197.825 0.433279 198.107 0.333292 198.492 0.333292H202.119C202.368 0.333292 202.571 0.41106 202.729 0.566597C202.91 0.722132 203.001 0.922108 203.001 1.16652V22.8305C203.001 23.0527 202.91 23.2527 202.729 23.4304C202.571 23.586 202.368 23.6637 202.119 23.6637H198.085C197.836 23.6637 197.621 23.586 197.441 23.4304C197.282 23.2527 197.203 23.0527 197.203 22.8305V10.332L193.406 17.2978C193.293 17.4978 193.146 17.6756 192.965 17.8311C192.785 17.9866 192.536 18.0644 192.22 18.0644H190.457C190.14 18.0644 189.892 17.9866 189.711 17.8311C189.53 17.6756 189.383 17.4978 189.27 17.2978L185.439 10.332V22.8305C185.439 23.0527 185.36 23.2527 185.202 23.4304C185.044 23.586 184.84 23.6637 184.592 23.6637H180.523Z" fill="#1B1B1B"/>
<path d="M8.16356 23.5081C8.00034 23.3573 7.90828 23.1465 7.90941 22.9263V15.8481L0.100653 1.56276C0.0339471 1.45216 -0.000844622 1.32578 1.55724e-05 1.1972C0.0218421 0.820896 0.326871 0.520303 0.709592 0.497941H5.17174C5.45034 0.487089 5.72447 0.56924 5.94954 0.731028C6.13141 0.865098 6.28107 1.03684 6.38791 1.23409L11.0871 9.56821L15.7847 1.22739C15.8916 1.02968 16.0419 0.857839 16.2248 0.724321C16.4491 0.562295 16.7227 0.480097 17.0009 0.491234H21.463C21.8457 0.513595 22.1508 0.814189 22.1726 1.19049C22.1734 1.31907 22.1386 1.44545 22.0719 1.55606L14.2632 15.8431V22.9263C14.2714 23.1524 14.1792 23.3708 14.0107 23.5249C13.841 23.6798 13.6163 23.7635 13.3847 23.758H8.75373C8.53034 23.7584 8.31672 23.668 8.16356 23.5081Z" fill="#1B1B1B"/>
<path d="M51.7978 23.509C51.6355 23.3577 51.5442 23.1471 51.5453 22.9272V1.3289C51.5378 1.10292 51.6299 0.884732 51.7978 0.730252C51.957 0.580249 52.1691 0.496709 52.3897 0.497165H57.1213C57.351 0.485464 57.5749 0.570036 57.7375 0.729881C57.9001 0.889727 57.9861 1.10985 57.9742 1.33561V18.5404H68.1146C68.3488 18.5377 68.5741 18.628 68.7395 18.791C68.9049 18.9539 68.9963 19.1755 68.9931 19.4057V22.9272C69.0025 23.155 68.9103 23.3754 68.7406 23.5308C68.5716 23.6858 68.3475 23.7695 68.1164 23.7639H52.3897C52.1651 23.7627 51.951 23.6705 51.7978 23.509Z" fill="#1B1B1B"/>
<path fill-rule="evenodd" clip-rule="evenodd" d="M71.8246 22.9265C71.8243 23.1466 71.9162 23.357 72.0787 23.5084C72.2298 23.6688 72.4414 23.761 72.6638 23.7632H81.7212C88.502 23.7632 92.0061 20.7281 92.2335 14.6578C92.2574 14.0373 92.2688 13.1955 92.2676 12.1324C92.2665 11.0692 92.2551 10.2163 92.2335 9.57345C92.1482 6.65232 91.1816 4.40921 89.3338 2.84412C87.4859 1.27903 84.8944 0.496482 81.5591 0.496482H72.6689C72.4392 0.489361 72.2177 0.580511 72.0617 0.746338C71.9031 0.912673 71.8179 1.13389 71.8246 1.36175V22.9265ZM84.7013 17.7767C84.0247 18.4408 82.9768 18.7728 81.5576 18.7728L78.1769 18.7845V5.49357H81.3888C82.8079 5.48686 83.8837 5.82224 84.616 6.4997C85.3483 7.17716 85.7372 8.22409 85.7827 9.6405C85.8293 10.261 85.8521 11.0804 85.8509 12.0988C85.8498 13.1172 85.8271 13.9479 85.7827 14.5907C85.7384 16.0507 85.3779 17.1127 84.7013 17.7767Z" fill="#1B1B1B"/>
<path fill-rule="evenodd" clip-rule="evenodd" d="M93.5576 23.0611C93.5605 23.2449 93.6401 23.4195 93.7776 23.544C93.9039 23.6788 94.0808 23.757 94.2672 23.7603H98.6611C99.1639 23.7834 99.626 23.4895 99.8108 23.0292L101.027 19.8046H109.883L111.099 23.0292C111.283 23.4899 111.746 23.7839 112.249 23.7603H116.643C117.025 23.738 117.33 23.4374 117.352 23.0611C117.356 22.9605 117.345 22.8599 117.318 22.7626L109.443 1.46616C109.223 0.823356 108.773 0.501953 108.09 0.501953H102.818C102.149 0.501953 101.69 0.823915 101.467 1.46616L93.5917 22.7626C93.5646 22.8597 93.5531 22.9604 93.5576 23.0611ZM108.464 14.8239H102.448L105.457 6.35065L108.464 14.8239Z" fill="#1B1B1B"/>
<path fill-rule="evenodd" clip-rule="evenodd" d="M27.4737 1.5551C27.9452 0.752323 28.8166 0.257812 29.7595 0.257812H40.6539C42.1117 0.257812 43.2935 1.41962 43.2935 2.85279C43.2935 4.28596 42.1117 5.44777 40.6539 5.44777H31.2833L27.3595 12.1278L31.2835 18.8092H40.6539C42.1117 18.8092 43.2935 19.971 43.2935 21.4042C43.2935 22.8373 42.1117 23.9991 40.6539 23.9991H29.7595C28.8165 23.9991 27.9451 23.5045 27.4736 22.7017L22.0255 13.4252C21.554 12.6222 21.554 11.6329 22.0256 10.8299L27.4737 1.5551Z" fill="#1B1B1B"/>
<path fill-rule="evenodd" clip-rule="evenodd" d="M39.3396 0.606025C40.602 -0.110671 42.2164 0.314436 42.9454 1.55553L48.3934 10.8304C48.8651 11.6333 48.8651 12.6226 48.3935 13.4256L42.9455 22.7021C42.2166 23.9433 40.6022 24.3685 39.3397 23.6519C38.0772 22.9353 37.6447 21.3482 38.3736 20.1071L43.0596 12.1282L38.3737 4.15092C37.6447 2.90983 38.0771 1.32272 39.3396 0.606025Z" fill="#FF5555"/>
</svg>