<svg width="106" height="30" viewBox="0 0 106 30" version="1.1" xmlns="http://www.w3.org/2000/svg" xmlns:xlink="http://www.w3.org/1999/xlink">
    <title>pagely</title>
    <defs>
        <filter id="filter-1">
            <feColorMatrix in="SourceGraphic" type="matrix" values="0 0 0 0 0.509804 0 0 0 0 0.549020 0 0 0 0 0.494534 0 0 0 1.000000 0"></feColorMatrix>
        </filter>
    </defs>
    <g id="Website" stroke="none" stroke-width="1" fill="#88898E" fill-rule="evenodd">
        <g id="For-hosts" transform="translate(-1192.000000, -2616.000000)" fill="#88898E">
            <g id="pagely" transform="translate(1192.000000, 2616.000000)" fill="#88898E">
                <g transform="translate(-0.000000, 0.000000)" fill="#88898E">
                    <path d="M35.3197674,5.40697674 L40.0290698,5.40697674 C41.5116279,5.23255814 42.994186,5.75581395 44.0406977,6.80232558 C45.0872093,7.76162791 45.4360465,8.98255814 45.4360465,11.3372093 C45.5232558,12.6453488 45.2616279,14.0406977 44.5639535,15.1744186 C43.6918605,16.3953488 42.2965116,17.1802326 40.0290698,17.1802326 L38.4593023,17.1802326 L38.4593023,24.6802326 L35.3197674,24.6802326 L35.3197674,5.40697674 Z M38.4593023,14.5639535 L39.9418605,14.5639535 C42.4709302,14.5639535 42.4709302,13.255814 42.4709302,11.3372093 C42.4709302,9.41860465 42.4709302,8.02325581 40.0290698,8.02325581 L38.372093,8.02325581 L38.4593023,14.5639535 L38.4593023,14.5639535 Z" id="Shape" fill="#88898E" fill-rule="nonzero"></path>
                    <path d="M49.8837209,5.31976744 L52.5,5.31976744 L57.3837209,24.6802326 L54.244186,24.6802326 L53.2848837,20.5813953 L49.0116279,20.5813953 L48.0523256,24.6802326 L44.9127907,24.6802326 L49.8837209,5.31976744 Z M51.1918605,11.0755814 L51.1918605,11.0755814 L49.622093,18.0523256 L52.7616279,18.0523256 L51.1918605,11.0755814 Z" id="Shape" fill="#88898E" fill-rule="nonzero"></path>
                    <path d="M58.3430233,10.0290698 C58.3430233,6.88953488 61.0465116,5.40697674 63.5755814,5.40697674 C66.1046512,5.40697674 68.8081395,6.97674419 68.8081395,10.0290698 L68.8081395,10.9883721 L65.6686047,10.9883721 L65.6686047,10.0290698 C65.5813953,8.89534884 64.5348837,8.02325581 63.4011628,8.11046512 C62.3546512,8.19767442 61.5697674,8.98255814 61.4825581,10.0290698 L61.4825581,20.0581395 C61.5697674,21.1918605 62.6162791,22.0639535 63.75,21.9767442 C64.7965116,21.8895349 65.5813953,21.1046512 65.6686047,20.0581395 L65.6686047,16.4825581 L63.2267442,16.4825581 L63.2267442,14.0406977 L68.8081395,14.0406977 L68.8081395,20.0581395 C68.8081395,23.1976744 66.1046512,24.6802326 63.5755814,24.6802326 C61.0465116,24.6802326 58.3430233,23.1104651 58.3430233,20.0581395 L58.3430233,10.0290698 L58.3430233,10.0290698 Z" id="Path" fill="#88898E" fill-rule="nonzero"></path>
                    <polygon id="Path" fill="#88898E" fill-rule="nonzero" points="71.25 5.31976744 80.5813953 5.31976744 80.5813953 7.93604651 74.3895349 7.93604651 74.3895349 13.6046512 79.7965116 13.6046512 79.7965116 16.2209302 74.3895349 16.2209302 74.3895349 21.8895349 80.5813953 21.8895349 80.5813953 24.6802326 71.25 24.6802326"></polygon>
                    <polygon id="Path" fill="#88898E" fill-rule="nonzero" points="82.2383721 5.31976744 85.377907 5.31976744 85.377907 21.8895349 91.5697674 21.8895349 91.5697674 24.6802326 82.2383721 24.6802326"></polygon>
                    <polygon id="Path" fill="#88898E" fill-rule="nonzero" points="93.4011628 16.4825581 89.127907 5.31976744 92.4418605 5.31976744 94.9709302 12.994186 95.0581395 12.994186 97.5872093 5.31976744 100.901163 5.31976744 96.627907 16.4825581 96.627907 24.6802326 93.4883721 24.6802326 93.4883721 16.4825581"></polygon>
                    <path d="M103.953488,5.31976744 C104.738372,5.31976744 105.436047,6.01744186 105.436047,6.80232558 C105.436047,7.5872093 104.738372,8.28488372 103.953488,8.28488372 C103.168605,8.28488372 102.47093,7.5872093 102.47093,6.80232558 C102.47093,6.01744186 103.168605,5.31976744 103.953488,5.31976744 Z M103.953488,5.58139535 C103.343023,5.58139535 102.819767,6.19186047 102.819767,6.80232558 C102.819767,6.80232558 102.819767,6.80232558 102.819767,6.80232558 C102.819767,7.4127907 103.343023,7.93604651 103.953488,7.93604651 C104.563953,7.93604651 105.087209,7.4127907 105.087209,6.80232558 C105.087209,6.80232558 105.087209,6.80232558 105.087209,6.80232558 C105.087209,6.19186047 104.563953,5.58139535 103.953488,5.58139535 C103.953488,5.58139535 103.953488,5.58139535 103.953488,5.58139535 Z M103.430233,5.93023256 L104.040698,5.93023256 C104.476744,5.93023256 104.651163,6.10465116 104.651163,6.45348837 C104.651163,6.80232558 104.476744,6.88953488 104.215116,6.88953488 L104.738372,7.6744186 L104.389535,7.6744186 L103.866279,6.97674419 L103.69186,6.97674419 L103.69186,7.6744186 L103.430233,7.6744186 L103.430233,5.93023256 Z M103.69186,6.71511628 L103.953488,6.71511628 C104.215116,6.71511628 104.389535,6.62790698 104.389535,6.45348837 C104.389535,6.27906977 104.302326,6.19186047 104.040698,6.19186047 L103.69186,6.19186047 L103.69186,6.71511628 L103.69186,6.71511628 Z" id="Shape" fill="#88898E" fill-rule="nonzero"></path>
                    <path d="M17.3546512,11.3372093 C17.3546512,10.2906977 16.4825581,9.33139535 15.4360465,9.33139535 C15.4360465,9.33139535 15.3488372,9.33139535 15.3488372,9.33139535 L12.6453488,9.33139535 L12.6453488,13.3430233 L15.3488372,13.3430233 C16.3953488,13.3430233 17.3546512,12.4709302 17.3546512,11.3372093 C17.3546512,11.4244186 17.3546512,11.3372093 17.3546512,11.3372093 Z" id="Path" fill="#88898E" fill-rule="nonzero"></path>
                    <path d="M15.3488372,6.71511628 L10.0290698,6.71511628 L10.0290698,23.372093 L11.3372093,23.372093 L11.3372093,8.02325581 L15.3488372,8.02325581 C17.1802326,8.02325581 18.6627907,9.50581395 18.6627907,11.3372093 C18.6627907,13.1686047 17.1802326,14.6511628 15.3488372,14.6511628 L12.6453488,14.6511628 L12.6453488,23.2848837 L13.9534884,23.2848837 L13.9534884,15.9593023 L15.2616279,15.9593023 C17.877907,15.9593023 19.9709302,13.8662791 19.9709302,11.25 C19.9709302,11.25 19.9709302,11.25 19.9709302,11.25 C19.9709302,8.80813953 18.0523256,6.71511628 15.5232558,6.71511628 C15.5232558,6.71511628 15.4360465,6.71511628 15.3488372,6.71511628 Z" id="Path" fill="#88898E" fill-rule="nonzero"></path>
                    <path d="M0,0 L0,30 L30,30 L30,0 L0,0 Z M15.3488372,17.3546512 L15.3488372,24.6802326 L8.63372093,24.6802326 L8.63372093,5.31976744 L15.3488372,5.31976744 C18.6627907,5.31976744 21.3662791,8.02325581 21.3662791,11.3372093 C21.3662791,14.6511628 18.6627907,17.3546512 15.3488372,17.3546512 Z" id="Shape" fill="#88898E" fill-rule="nonzero"></path>
                </g>
            </g>
        </g>
    </g>
</svg>