<svg version="1.1" id="Layer_1" xmlns="http://www.w3.org/2000/svg" xmlns:xlink="http://www.w3.org/1999/xlink" x="0px" y="0px" viewBox="0 0 366.7 103" style="enable-background:new 0 0 366.7 103;" xml:space="preserve" width="366.7"  height="103" >
<style type="text/css">
	.st0{fill:none;}
	.st1{fill:#888A8E;}
</style>
<g fill="#88898E">
	<g fill="#88898E">
		<path class="st0" d="M44.1,78.8c-0.1,0.5-0.4,1-0.7,1.4C43.8,79.8,44,79.3,44.1,78.8z" fill="#88898E"></path>
		<path class="st0" d="M42,75.5c0.5,0.1,1,0.4,1.4,0.7C43,75.8,42.5,75.6,42,75.5z" fill="#88898E"></path>
		<path class="st0" d="M41.4,75.4c-1.6,0-2.8,1.2-2.8,2.8C38.6,76.7,39.9,75.4,41.4,75.4z" fill="#88898E"></path>
		<path class="st0" d="M77.5,31.1c1.4,0,2.6,1,2.8,2.4c0-0.1,0-0.3,0-0.4c0-1.5-1.3-2.8-2.8-2.8c-1.6,0-2.8,1.3-2.8,2.8			c0,0.1,0,0.3,0,0.4C74.9,32.1,76.1,31.1,77.5,31.1z" fill="#88898E"></path>
		<path class="st0" d="M42.8,53.2c0.6,0.4,1.1,1,1.3,1.7c0,0.3,0.1,0.5-0.1,0.7c0,0.1,0,0.2,0,0.3c-0.1,1.4-1.3,2.5-2.7,2.5			c-0.3,0-0.7-0.1-1-0.2c0.4,0.2,0.8,0.3,1.2,0.3c1.4,0,2.6-1.1,2.7-2.5c0-0.1,0-0.2,0-0.3c0-0.3-0.1-0.5,0.1-0.7			C44.1,54.2,43.5,53.5,42.8,53.2z" fill="#88898E"></path>
		<polygon class="st0" points="52.1,55.9 106.6,55.8 52.1,55.9 		" fill="#88898E"></polygon>
		<g fill="#88898E">
			<path class="st1" d="M94,0c0,0-25,7.3-44.3,9.3C36.3,10.7,26.1,17,18.6,24.6h65.9c2.3,0,4.1,1.9,4.1,4.1v0.1V39				c0,2.3-1.8,4.1-4.1,4.2H5.3c0,0,0-0.1,0.1-0.1H5.3c-0.7,1.3-1.3,2.5-1.8,3.7h0.1H48c2.3,0,4.1,1.8,4.1,4.1v3.9v1.1l54.5-0.1h3.2				C99.6,30.9,94,0,94,0z" fill="#88898E"></path>
			<path class="st1" d="M52.1,61.1c0,0.3,0,0.5-0.1,0.8c0,0.2-0.1,0.5-0.2,0.7c0,0,0,0.1,0,0.1c-0.1,0.2-0.2,0.4-0.3,0.6				c0,0,0,0.1-0.1,0.1c-0.1,0.1-0.2,0.3-0.3,0.4C51,63.8,51,63.9,50.9,64c-0.1,0.1-0.2,0.1-0.2,0.2c-0.1,0.1-0.2,0.2-0.4,0.3				c0,0-0.1,0-0.1,0.1c-0.2,0.1-0.4,0.2-0.6,0.3c0,0-0.1,0-0.1,0c-0.2,0.1-0.4,0.2-0.7,0.2c-0.3,0.1-0.5,0.1-0.8,0.1H3				c0.5,1.2,1,2.4,1.5,3.7H48c2.3,0,4.1,1.9,4.1,4.1v0.1v10.2c0,2.3-1.8,4.2-4.1,4.2H16.4c7.6,8.4,18.4,15.2,33.3,15.2				c5.7,0,43,0.3,42.8,0.2c1.3-17.1,10.5-40.6,14.1-47.1l-54.5,0.1V61.1z" fill="#88898E"></path>
		</g>
		<path class="st1" d="M77.5,36.7c1.5,0,2.8-1.3,2.8-2.8c0-0.1,0-0.3,0-0.4c-0.2-1.3-1.4-2.4-2.8-2.4s-2.6,1-2.8,2.4			c0,0.1,0,0.3,0,0.4C74.7,35.4,76,36.7,77.5,36.7z" fill="#88898E"></path>
		<path class="st1" d="M44,55.9c0-0.1,0-0.2,0-0.3c0.2-0.2,0.1-0.4,0.1-0.7c-0.2-0.7-0.7-1.3-1.3-1.7c-0.4-0.2-0.9-0.4-1.4-0.4			c-1.3,0-2.4,1-2.7,2.2c0,0.2-0.1,0.4-0.1,0.6c0,0.1,0,0.2,0,0.3c0.1,1.1,0.8,1.9,1.7,2.3c0.3,0.1,0.6,0.2,1,0.2			C42.7,58.4,43.9,57.3,44,55.9z" fill="#88898E"></path>
		<path class="st1" d="M44.1,77.4c0-0.1,0-0.2-0.1-0.2c0-0.1-0.1-0.2-0.1-0.2c0-0.1-0.1-0.2-0.1-0.2c0,0-0.1-0.1-0.1-0.1			c-0.1-0.1-0.2-0.2-0.2-0.3c0,0,0,0,0,0c-0.4-0.4-0.9-0.6-1.4-0.7c-0.2,0-0.4-0.1-0.6-0.1c-1.5,0-2.8,1.3-2.8,2.8s1.3,2.8,2.8,2.8			c0.2,0,0.4,0,0.6-0.1c0.1,0,0.2-0.1,0.3-0.1c0.1,0,0.2,0,0.2-0.1c0.1,0,0.2-0.1,0.2-0.1c0.1,0,0.2-0.1,0.2-0.1			c0,0,0.1-0.1,0.1-0.1c0.1-0.1,0.2-0.2,0.3-0.2c0,0,0,0,0,0c0.4-0.4,0.6-0.9,0.7-1.4c0-0.2,0.1-0.4,0.1-0.6c0-0.2,0-0.4-0.1-0.6			C44.1,77.5,44.1,77.4,44.1,77.4z" fill="#88898E"></path>
	</g>
	<g fill="#88898E">
		<path class="st1" d="M160.9,28c0.7,0.1,1,0.3,1,0.9v3.2c0,0.7-0.3,1-0.9,1h-15.5c-6.1,0-9,1.9-9,6.1v1.2c0,3.5,1,5.3,5.2,7			l15.1,6.2c6.4,2.6,7.9,6.6,7.9,12v2.2c0,10.5-8.4,12-18.2,12c-5.6,0-11.1-0.3-16.9-1c-0.6-0.1-0.8-0.4-0.8-1.1v-3.1			c0-0.6,0.3-1,1-1h18.9c6.1,0,9-1.7,9-6.1v-1.3c0-3.5-1-5.7-5.2-7.5l-16.4-6.6c-5.4-2.1-6.5-6.5-6.5-11.7v-1.7			c0-10.5,8.2-11.9,18.1-11.9C153.2,27,155.3,27.3,160.9,28z" fill="#88898E"></path>
		<path class="st1" d="M202.1,59.7v2c0,1.4-0.3,1.9-2.5,1.9h-22c0.2,8.4,1.8,10.5,9.2,10.5h11.3c0.7,0,1,0.3,1,1v3			c0,0.6-0.3,1-1,1.1c-3.5,0.5-7.3,0.6-11.5,0.6c-13,0-15.7-3.8-15.7-19.2s2.8-19.3,15.7-19.3C199,41.5,201.9,45.2,202.1,59.7z			 M177.6,58.3h17.9c-0.1-8.8-1.6-11-8.8-11C179.2,47.3,177.7,49.5,177.6,58.3z" fill="#88898E"></path>
		<path class="st1" d="M241,57.7v20.9c0,0.7-0.5,1-1.2,1h-4.4c-0.7,0-1-0.3-1-1V58.2c0-10.6-2.1-10.9-8.7-10.9h-9.5v31.3			c0,0.7-0.3,1-1,1h-4.6c-0.7,0-1-0.3-1-1V43.7c0-0.9,0.3-1,1-1.1c5.4-1,11.1-1.1,14.4-1.1C237.4,41.5,241,43,241,57.7z" fill="#88898E"></path>
		<path class="st1" d="M257.6,31.4c0.8-0.2,1.2,0.1,1.2,0.9v9.6h7.3c0.8,0,1.1,0.3,1.1,1v3.2c0,0.7-0.3,1-1.1,1h-7.3v23.2			c0,3,0.8,3.7,4.5,3.7h3.3c0.8,0,1.1,0.3,1.1,1v3.3c0,0.6-0.3,1-1,1.1c-1.4,0.3-3.2,0.4-3.9,0.4c-5,0-10.6-0.1-10.6-7.9V47.2h-3.9			c-0.7,0-1-0.3-1-1V43c0-0.7,0.3-1,1-1h3.9v-8.3c0-0.7,0.3-1,0.9-1.1L257.6,31.4z" fill="#88898E"></path>
		<path class="st1" d="M292.4,42.3c0.7,0.2,1,0.5,1,1.2v2.9c0,0.7-0.4,1-1.1,1h-6c-4.8,0-6,0.8-6,3.9v27.4c0,0.7-0.3,1-1,1h-4.5			c-0.7,0-1-0.3-1-1v-29c0-7.8,6.9-8.1,10.9-8.1C286.3,41.5,291,41.8,292.4,42.3z" fill="#88898E"></path>
		<path class="st1" d="M329.2,59.7v2c0,1.4-0.3,1.9-2.5,1.9h-22c0.2,8.4,1.8,10.5,9.2,10.5h11.3c0.7,0,1,0.3,1,1v3			c0,0.6-0.3,1-1,1.1c-3.5,0.5-7.3,0.6-11.5,0.6c-13,0-15.7-3.8-15.7-19.2s2.8-19.3,15.7-19.3C326.1,41.5,329,45.2,329.2,59.7z			 M304.6,58.3h17.9c-0.1-8.8-1.6-11-8.8-11C306.3,47.3,304.8,49.5,304.6,58.3z" fill="#88898E"></path>
		<path class="st1" d="M366.7,59.7v2c0,1.4-0.3,1.9-2.5,1.9h-22c0.2,8.4,1.8,10.5,9.2,10.5h11.3c0.7,0,1,0.3,1,1v3			c0,0.6-0.3,1-1,1.1c-3.5,0.5-7.3,0.6-11.5,0.6c-13,0-15.7-3.8-15.7-19.2s2.8-19.3,15.7-19.3C363.7,41.5,366.6,45.2,366.7,59.7z			 M342.2,58.3h17.9c-0.1-8.8-1.6-11-8.8-11C343.9,47.3,342.4,49.5,342.2,58.3z" fill="#88898E"></path>
	</g>
</g>
</svg>