<svg xmlns:xlink="http://www.w3.org/1999/xlink" xmlns="http://www.w3.org/2000/svg" width="142" height="27" viewBox="0 0 142 27" fill="none">
<path fill-rule="evenodd" clip-rule="evenodd" d="M111.115 17.1027C109.996 17.7522 108.746 18.0769 107.364 18.0769C105.969 18.0769 104.711 17.7522 103.593 17.1027C102.474 16.4533 101.596 15.556 100.957 14.4107C100.319 13.2654 100 11.9875 100 10.5769C100 9.16629 100.319 7.88836 100.957 6.74311C101.596 5.59785 102.474 4.7005 103.593 4.05107C104.711 3.40163 105.969 3.0769 107.364 3.0769C108.746 3.0769 109.996 3.40163 111.115 4.05107C112.233 4.7005 113.108 5.59436 113.74 6.73261C114.372 7.8709 114.687 9.15231 114.687 10.5769C114.687 12.0015 114.372 13.2829 113.74 14.4212C113.108 15.5594 112.233 16.4533 111.115 17.1027ZM104.61 15.4791C105.432 15.968 106.35 16.2124 107.364 16.2124C108.377 16.2124 109.289 15.968 110.097 15.4791C110.907 14.9903 111.546 14.3164 112.013 13.4575C112.48 12.5986 112.714 11.6384 112.714 10.5769C112.714 9.51545 112.48 8.55525 112.013 7.69629C111.546 6.8374 110.907 6.1635 110.097 5.67467C109.289 5.18584 108.377 4.94143 107.364 4.94143C106.35 4.94143 105.432 5.18584 104.61 5.67467C103.787 6.1635 103.142 6.8374 102.675 7.69629C102.208 8.55525 101.974 9.51545 101.974 10.5769C101.974 11.6384 102.208 12.5986 102.675 13.4575C103.142 14.3164 103.787 14.9903 104.61 15.4791ZM119.093 17.9093V6.97356L127.384 17.9093H129.004V3.2445H127.029V14.1802L118.738 3.2445H117.119V17.9093H119.093ZM142 16.0867V17.9093H131.971V3.2445H141.724V5.06712H133.946V9.57129H140.875V11.3521H133.946V16.0867H142Z" fill="white"/>
<path d="M96.5 19.0769C96.9148 19.0769 97.268 18.9353 97.5612 18.6522C97.8537 18.3691 98 18.0106 98 17.5769C98 17.1311 97.8568 16.7697 97.5703 16.4926C97.2838 16.2154 96.9268 16.0769 96.5 16.0769C96.0732 16.0769 95.7163 16.2154 95.4297 16.4926C95.1432 16.7697 95 17.1311 95 17.5769C95 18.0106 95.1463 18.3691 95.4387 18.6522C95.732 18.9353 96.0852 19.0769 96.5 19.0769Z" fill="white"/>
<path fill-rule="evenodd" clip-rule="evenodd" d="M46.4302 21.7197C45.5394 22.6245 44.2097 23.0769 42.4412 23.0769C41.473 23.0769 40.5501 22.9375 39.6722 22.6585C38.7944 22.3796 38.0844 21.9816 37.5422 21.4647L38.4329 19.9544C38.9106 20.3898 39.5011 20.7334 40.2047 20.9851C40.9083 21.2367 41.6344 21.3626 42.3831 21.3626C43.5837 21.3626 44.4712 21.0633 45.0456 20.4647C45.6201 19.866 45.9073 18.9544 45.9073 17.7299V16.8728C45.4684 17.4306 44.9295 17.849 44.2904 18.1279C43.6515 18.4069 42.9576 18.5463 42.2089 18.5463C41.2278 18.5463 40.3402 18.3252 39.5463 17.883C38.7524 17.4409 38.1296 16.8218 37.6777 16.0259C37.2259 15.2299 37 14.3218 37 13.3014C37 12.281 37.2259 11.3728 37.6777 10.5769C38.1296 9.78097 38.7524 9.16536 39.5463 8.72995C40.3402 8.29461 41.2278 8.0769 42.2089 8.0769C42.9834 8.0769 43.7031 8.22656 44.3679 8.52588C45.0328 8.8252 45.5781 9.26736 46.0042 9.85243V8.1789H47.7662V17.5259C47.7662 19.417 47.3209 20.815 46.4302 21.7197ZM40.592 16.383C41.1277 16.6823 41.7376 16.832 42.4219 16.832C43.0931 16.832 43.6966 16.6823 44.2323 16.383C44.7681 16.0837 45.1877 15.6653 45.491 15.1279C45.7944 14.5905 45.9461 13.9817 45.9461 13.3014C45.9461 12.2538 45.6169 11.4068 44.9585 10.7605C44.3001 10.1143 43.4546 9.7912 42.4219 9.7912C41.3762 9.7912 40.5242 10.1143 39.8658 10.7605C39.2074 11.4068 38.8783 12.2538 38.8783 13.3014C38.8783 13.9817 39.03 14.5905 39.3333 15.1279C39.6367 15.6653 40.0562 16.0837 40.592 16.383ZM52.5975 18.9953V13.6075C52.5975 12.4375 52.8847 11.5361 53.4592 10.9034C54.0336 10.2708 54.8243 9.95443 55.8313 9.95443C56.012 9.95443 56.154 9.96125 56.2572 9.97488V8.0769C55.3536 8.0769 54.5855 8.24013 53.9529 8.56672C53.3204 8.89325 52.8427 9.36943 52.52 9.99527V8.1789H50.7386V18.9953H52.5975ZM65.2421 18.4035C64.4352 18.8796 63.5218 19.1177 62.502 19.1177C61.4821 19.1177 60.5656 18.8796 59.7524 18.4035C58.9391 17.9273 58.3033 17.2707 57.845 16.434C57.3867 15.5973 57.1576 14.6483 57.1576 13.5871C57.1576 12.5259 57.3867 11.5769 57.845 10.7402C58.3033 9.90343 58.9391 9.25038 59.7524 8.78095C60.5656 8.31159 61.4821 8.0769 62.502 8.0769C63.5218 8.0769 64.4352 8.31159 65.2421 8.78095C66.0491 9.25038 66.6813 9.90343 67.1397 10.7402C67.598 11.5769 67.8271 12.5259 67.8271 13.5871C67.8271 14.6483 67.598 15.5973 67.1397 16.434C66.6813 17.2707 66.0491 17.9273 65.2421 18.4035ZM62.502 17.4034C61.8436 17.4034 61.2531 17.2435 60.7302 16.9238C60.2074 16.6041 59.7943 16.1552 59.4909 15.5769C59.1876 14.9987 59.0359 14.3354 59.0359 13.5871C59.0359 12.8388 59.1876 12.1755 59.4909 11.5973C59.7943 11.0191 60.2074 10.5735 60.7302 10.2606C61.2531 9.94768 61.8436 9.7912 62.502 9.7912C63.1604 9.7912 63.751 9.94768 64.2736 10.2606C64.7968 10.5735 65.2064 11.0191 65.5031 11.5973C65.8004 12.1755 65.9484 12.8388 65.9484 13.5871C65.9484 14.3354 65.8004 14.9987 65.5031 15.5769C65.2064 16.1552 64.7968 16.6041 64.2736 16.9238C63.751 17.2435 63.1604 17.4034 62.502 17.4034ZM76.1534 18.6585C75.5399 18.9647 74.8719 19.1177 74.1494 19.1177C72.781 19.1177 71.7027 18.7197 70.9152 17.9239C70.1278 17.1279 69.7344 15.9544 69.7344 14.4034V8.1789H71.593V14.1789C71.593 15.2266 71.8319 16.0191 72.3097 16.5565C72.7874 17.0939 73.4717 17.3626 74.3623 17.3626C75.3432 17.3626 76.1177 17.0497 76.6857 16.4239C77.2537 15.798 77.5381 14.9136 77.5381 13.7708V8.1789H79.3966V18.9953H77.6348V17.3626C77.2602 17.9204 76.7669 18.3524 76.1534 18.6585ZM84.2278 22.9544V17.3626C84.6543 17.934 85.1736 18.3694 85.7871 18.6687C86.3999 18.9681 87.0744 19.1177 87.8105 19.1177C88.8044 19.1177 89.6951 18.8864 90.4825 18.4238C91.27 17.9612 91.8867 17.3116 92.332 16.4749C92.7773 15.6381 93 14.6755 93 13.5871C93 12.4986 92.7773 11.5394 92.332 10.7095C91.8867 9.87963 91.27 9.23334 90.4825 8.77079C89.6951 8.30818 88.8044 8.0769 87.8105 8.0769C87.0484 8.0769 86.3519 8.22997 85.7189 8.53611C85.0866 8.84218 84.564 9.29456 84.1505 9.8932V8.1789H82.3692V22.9544H84.2278ZM85.8935 16.9238C86.4226 17.2435 87.0101 17.4034 87.6554 17.4034C88.3136 17.4034 88.9044 17.2435 89.427 16.9238C89.9502 16.6041 90.3631 16.1552 90.6662 15.5769C90.97 14.9987 91.1213 14.3354 91.1213 13.5871C91.1213 12.8388 90.97 12.1755 90.6662 11.5973C90.3631 11.0191 89.9502 10.5735 89.427 10.2606C88.9044 9.94768 88.3136 9.7912 87.6554 9.7912C87.0101 9.7912 86.4259 9.95102 85.9033 10.2708C85.38 10.5905 84.9672 11.0361 84.664 11.6075C84.3602 12.1789 84.2089 12.8388 84.2089 13.5871C84.2089 14.3354 84.3569 14.9987 84.6543 15.5769C84.9509 16.1552 85.3638 16.6041 85.8935 16.9238Z" fill="white"/>
<path d="M26 0.0769043H0V26.0769H26V0.0769043Z" fill="#76B82B"/>
</svg>