<svg width="138" height="28" viewBox="0 0 138 28" version="1.1" xmlns="http://www.w3.org/2000/svg" xmlns:xlink="http://www.w3.org/1999/xlink">
    <title>logo/affiliate/godaddy</title>

    <g id="Website" stroke="none" stroke-width="1" fill="#88898E" fill-rule="evenodd">
        <g id="Front" transform="translate(-651.000000, -2974.000000)" fill="#88898E">
            <g id="Afiiliates" transform="translate(80.000000, 2944.000000)" fill="#88898E">
                <g id="godaddy" transform="translate(512.000000, 0.000000)" fill="#88898E">
                    <g id="/logo/affiliate/godaddy" transform="translate(59.944444, 30.000000)" fill="#88898E">
                        <g id="godaddy" fill="#88898E" fill-rule="nonzero">
                            <path d="M27.2017844,1.27406635 C23.9244771,-0.758919431 19.6099795,-0.274559242 15.7619502,2.12600948 C11.9259502,-0.274559242 7.60877951,-0.758919431 4.33548195,1.27406635 C-0.842449756,4.48676777 -1.47198146,12.7607014 2.93073073,19.7553934 C6.17596,24.9121706 11.2509746,27.933782 15.7686332,27.8780474 C20.2862917,27.933782 25.3613063,24.9121706 28.6065356,19.7553934 C33.0039015,12.7607014 32.3797161,4.48676777 27.2017844,1.27406635 Z M5.31118927,18.2784265 C4.40336558,16.8495818 3.718417,15.2926395 3.27957951,13.6604171 C2.88969126,12.24356 2.74062056,10.7720491 2.83850634,9.30648341 C3.03498439,6.72145972 4.09489659,4.70837915 5.82176488,3.63747867 C7.54863317,2.5665782 9.83152098,2.5015545 12.2627698,3.45965877 C12.6276576,3.60430332 12.9885356,3.77150711 13.3467405,3.95596209 C11.9957026,5.1790357 10.8209255,6.58117393 9.85557951,8.12278673 C7.18240878,12.3692322 6.36709171,17.0947299 7.30002829,20.8621232 C6.55613492,20.0653929 5.89019435,19.2002708 5.31118927,18.2784265 L5.31118927,18.2784265 Z M28.2590234,13.65909 C27.8196071,15.2911115 27.1346955,16.8479697 26.2274137,18.2770995 C25.6479143,19.2002543 24.98202,20.0670934 24.2385746,20.8661043 C25.0726039,17.4888531 24.5058917,13.3512227 22.4609161,9.47103318 C22.3948671,9.3417992 22.2767717,9.24639053 22.1358975,9.20845235 C21.9950233,9.17051418 21.8445554,9.19359731 21.7217844,9.27198104 L15.3462722,13.2264834 C15.2288264,13.2992402 15.1453536,13.4153913 15.1142623,13.5493217 C15.0831709,13.6832521 15.1070148,13.8239608 15.1805356,13.9404171 L16.1161454,15.425346 C16.1891736,15.5418615 16.305926,15.6247107 16.4406049,15.655587 C16.5752837,15.6864633 16.7168027,15.6628252 16.8338917,15.5898957 L20.9666137,13.0261043 C21.1002722,13.4242085 21.2339307,13.8223128 21.3341746,14.2204171 C21.7239911,15.6354834 21.8735099,17.1051641 21.7765844,18.5690427 C21.5801063,21.1527393 20.5201941,23.1658199 18.7933259,24.2380474 C17.9026183,24.7787326 16.8820203,25.0720412 15.8381356,25.0873365 L15.7058137,25.0873365 C14.6618801,25.072366 13.6411975,24.779033 12.7506234,24.2380474 C11.0224185,23.1658199 9.96250634,21.1527393 9.76602829,18.5690427 C9.66874248,17.1034872 9.81780322,15.6320747 10.2071015,14.215109 C11.1028568,10.9368849 12.9545067,7.99462932 15.5293844,5.75804739 C16.6397725,4.79037646 17.9045002,4.01275723 19.2718234,3.45700474 C21.6963893,2.49890047 23.9832868,2.56259716 25.7114917,3.63482464 C27.4396966,4.70705213 28.4982722,6.71880569 28.6947502,9.30382938 C28.7939001,10.76953 28.6466458,12.2413942 28.2590234,13.65909 L28.2590234,13.65909 Z M61.1684283,10.571128 C57.8162722,10.571128 55.1070137,13.1694218 55.1070137,16.4750142 C55.1070137,19.7580474 57.8162722,22.3138768 61.1684283,22.3138768 C64.5433063,22.3138768 67.2525649,19.7620284 67.2525649,16.4750142 C67.2525649,13.1707488 64.5473161,10.572455 61.1684283,10.572455 L61.1684283,10.571128 Z M61.1684283,19.2272417 C59.6233356,19.2272417 58.4471405,17.9864834 58.4471405,16.452455 C58.4471405,14.9184265 59.6233356,13.65909 61.1684283,13.65909 C62.7362429,13.65909 63.912438,14.9224076 63.912438,16.456436 C63.912438,17.9904645 62.7362429,19.2325498 61.1684283,19.2325498 L61.1684283,19.2272417 Z M74.8109551,6.03663015 L68.6426137,6.03663015 C68.5079655,6.03415897 68.3780888,6.08622828 68.2829869,6.18089961 C68.1878851,6.27557095 68.1357844,6.40465504 68.138721,6.53833175 L68.138721,21.4685687 C68.1290137,21.6067604 68.1779205,21.7426913 68.2736182,21.8435003 C68.369316,21.9443094 68.5030948,22.0008213 68.6426137,21.9994015 L74.8109551,21.9994015 C79.7469649,21.9994015 83.1766429,18.7402275 83.1766429,13.9988057 C83.1766429,9.22818957 79.7469649,6.03663015 74.8109551,6.03663015 Z M74.9566429,18.8463886 L71.5817649,18.8463886 L71.5817649,9.18174408 L74.9566429,9.18174408 C77.6886234,9.18174408 79.5718722,11.2107488 79.5718722,13.9921706 C79.5718722,16.7271469 77.6886234,18.8463886 74.9566429,18.8463886 Z M95.4545161,10.8922654 L93.1355405,10.8922654 C92.8697568,10.913132 92.6624045,11.1292928 92.6543698,11.3938768 L92.6543698,12.0772891 C92.1264185,11.2107488 90.9328478,10.572455 89.4465649,10.572455 C86.5541941,10.572455 83.8449356,12.8283791 83.8449356,16.4312227 C83.8449356,20.0141611 86.5301356,22.3112227 89.4238429,22.3112227 C90.9154722,22.3112227 92.1331015,21.6742559 92.6610527,20.8077156 L92.6610527,21.5136872 C92.6625057,21.7771439 92.8768716,21.9905659 93.1422234,21.9927393 L95.461199,21.9927393 C95.590051,21.995673 95.714503,21.9461442 95.805639,21.8556607 C95.8967751,21.7651773 95.9466611,21.6416165 95.9437063,21.5136872 L95.9437063,11.3938768 C95.9476766,11.2624323 95.8979385,11.1349803 95.8058034,11.0405057 C95.7136683,10.9460312 95.5869678,10.8925646 95.4545161,10.8922654 L95.4545161,10.8922654 Z M90.0600576,19.252455 C88.524321,19.252455 87.3708478,18.0807014 87.3708478,16.455109 C87.3708478,14.8295166 88.524321,13.65909 90.0600576,13.65909 C91.5957941,13.65909 92.7492673,14.8281896 92.7492673,16.453782 C92.7492673,18.0793744 91.5971307,19.251128 90.0600576,19.251128 L90.0600576,19.252455 Z M108.471521,6.03672038 L106.152545,6.03672038 C106.021427,6.03279475 105.894215,6.08131629 105.799469,6.17139092 C105.704724,6.26146556 105.650385,6.38554557 105.648653,6.51577251 L105.648653,12.0321706 C105.114019,11.2107488 103.903072,10.572455 102.388721,10.572455 C99.5177356,10.572455 96.8552576,12.8283791 96.8552576,16.4312227 C96.8552576,20.0141611 99.5404576,22.3112227 102.434165,22.3112227 C103.925794,22.3112227 105.051199,21.6742559 105.671375,20.8077156 L105.671375,21.5136872 C105.672104,21.7774425 105.886891,21.9912831 106.152545,21.9927393 L108.471521,21.9927393 C108.600485,21.9960572 108.725164,21.946652 108.816386,21.856083 C108.907609,21.7655141 108.95737,21.641728 108.954028,21.5136872 L108.954028,6.51842654 C108.958119,6.38993195 108.908688,6.26544392 108.817381,6.17428839 C108.726074,6.08313286 108.600963,6.0333692 108.471521,6.03672038 L108.471521,6.03672038 Z M103.077062,19.2803223 C101.548009,19.2803223 100.403892,18.0966256 100.403892,16.453782 C100.403892,14.8109384 101.552019,13.6272417 103.077062,13.6272417 C104.602106,13.6272417 105.750233,14.8109384 105.750233,16.453782 C105.750233,18.0966256 104.607453,19.2803223 103.077062,19.2803223 Z M121.485853,6.03672038 L119.170887,6.03672038 C119.039643,6.03279656 118.912293,6.08127761 118.817336,6.17131413 C118.72238,6.26135065 118.667745,6.38542554 118.665658,6.51577251 L118.665658,12.0321706 C118.137706,11.2107488 116.920077,10.572455 115.405726,10.572455 C112.53474,10.572455 109.872262,12.8283791 109.872262,16.4312227 C109.872262,20.0141611 112.558799,22.3112227 115.45117,22.3112227 C116.944136,22.3112227 118.068204,21.6742559 118.68838,20.8077156 L118.68838,21.5136872 C118.68984,21.7776573 118.905013,21.9912889 119.170887,21.9927393 L121.485853,21.9927393 C121.614701,21.9960738 121.739256,21.9466293 121.83027,21.856016 C121.921284,21.7654027 121.970739,21.6416032 121.967023,21.5136872 L121.967023,6.51842654 C121.971491,6.39005754 121.922368,6.26555471 121.831268,6.17435387 C121.740169,6.08315302 121.61518,6.03335029 121.485853,6.03672038 L121.485853,6.03672038 Z M116.091394,19.2803223 C114.561004,19.2803223 113.418223,18.0966256 113.418223,16.453782 C113.418223,14.8109384 114.56635,13.6272417 116.091394,13.6272417 C117.616438,13.6272417 118.764565,14.8109384 118.764565,16.453782 C118.764565,18.0966256 117.624458,19.2803223 116.095404,19.2803223 L116.091394,19.2803223 Z M134.183414,11.6685687 L130.722994,23.451128 C130.054701,25.5478104 128.564409,26.8018389 126.245433,26.8018389 C125.190867,26.8018389 124.231199,26.5881896 123.478701,26.160891 C123.040301,25.9127393 122.67675,25.6858199 122.67675,25.322218 C122.67675,25.0966256 122.750262,24.9798483 122.883921,24.7688531 L123.570926,23.7470521 C123.764731,23.4617441 123.907745,23.3688531 124.116253,23.3688531 C124.28148,23.3728851 124.441305,23.4280983 124.573365,23.5267678 C125.005082,23.8041137 125.406058,24.0429763 126.016877,24.0429763 C126.730614,24.0429763 127.27594,23.8160569 127.569989,22.9720758 L127.866711,21.9940664 L126.46597,21.9940664 C126.170029,22.0034783 125.909367,21.8021305 125.845794,21.5150142 L122.748926,11.6685687 C122.63398,11.2810806 122.73957,10.8935883 123.312965,10.8935883 L125.752233,10.8935883 C126.050292,10.8935883 126.258799,10.9944455 126.389784,11.417763 L128.676682,19.346673 L130.815219,11.417763 C130.883384,11.1443981 131.067833,10.8935883 131.435394,10.8935883 L133.749023,10.8935883 C134.204799,10.8922654 134.342467,11.2107488 134.183414,11.6685687 Z M54.2329502,15.1732133 L54.2329502,21.4672417 C54.2350744,21.605859 54.1805764,21.7394369 54.0818401,21.8374662 C53.9831038,21.9354954 53.8485624,21.9896032 53.7089454,21.9874313 L51.7949551,21.9874313 C51.6552268,21.9899774 51.5204651,21.9359899 51.4216456,21.837878 C51.3228261,21.7397662 51.2684492,21.6059694 51.2710137,21.4672417 L51.2710137,19.815109 C50.0560576,21.3385213 47.9429161,22.2979526 45.5531015,22.2979526 C41.0648478,22.2979526 37.5576478,18.9459147 37.5576478,14.1739716 C37.5576478,9.21491943 41.3441941,5.79653081 46.1278332,5.79653081 C49.6590917,5.79653081 52.48196,7.30401896 53.7356771,10.3362464 C53.7707918,10.4163691 53.7902937,10.5023732 53.7931502,10.5897062 C53.7931502,10.7330237 53.6982527,10.8418389 53.3921746,10.946673 L51.1574039,11.8012701 C51.0225971,11.856764 50.8715506,11.8591369 50.7350429,11.8079052 C50.615373,11.7377478 50.5216408,11.631193 50.4677259,11.504019 C49.6657746,9.98989573 48.2383015,8.96145972 46.0409551,8.96145972 C43.1913551,8.96145972 41.1503893,11.1709384 41.1503893,14.0359621 C41.1503893,16.8134028 42.8879502,19.0971943 46.1224868,19.0971943 C47.82396,19.0971943 49.1805941,18.3009858 49.812799,17.4264834 L47.7945551,17.4264834 C47.6549381,17.4286554 47.5203967,17.3745476 47.4216604,17.2765183 C47.3229241,17.1784891 47.268426,17.0449111 47.2706137,16.9062938 L47.2706137,15.1957725 C47.268426,15.0571552 47.3229241,14.9235773 47.4216604,14.825548 C47.5203967,14.7275188 47.6549381,14.673411 47.7945551,14.6755829 L53.7089454,14.6755829 C53.8459762,14.6686408 53.9798314,14.7180767 54.0789789,14.8122453 C54.1781265,14.9064139 54.2338008,15.0369897 54.2329502,15.1732133 L54.2329502,15.1732133 Z M134.246233,8.56202844 L134.246233,8.4094218 C134.246084,8.39872003 134.249888,8.38833464 134.256926,8.38022749 C134.264682,8.37343623 134.274653,8.3696648 134.284994,8.36961137 L135.262038,8.36961137 C135.272451,8.3692609 135.282568,8.37308725 135.290106,8.38022749 C135.297144,8.38833464 135.300948,8.39872003 135.300803,8.4094218 L135.300803,8.56202844 C135.300733,8.57229324 135.296936,8.58218919 135.290106,8.58989573 C135.282568,8.59703597 135.272451,8.60086232 135.262038,8.60051185 L134.90517,8.60051185 L134.90517,9.5572891 C134.904476,9.57898389 134.886923,9.59641029 134.865072,9.59709953 L134.680623,9.59709953 C134.670412,9.59705264 134.660699,9.59271302 134.653892,9.5851564 C134.64621,9.57789293 134.641862,9.56782112 134.641862,9.5572891 L134.641862,8.60051185 L134.284994,8.60051185 C134.274486,8.60131805 134.264148,8.59752325 134.256696,8.59012417 C134.249243,8.58272508 134.245421,8.57246122 134.246233,8.56202844 L134.246233,8.56202844 Z M135.954389,8.40411374 L136.221706,9.01852133 L136.489023,8.40411374 C136.493114,8.39322664 136.500609,8.3839259 136.510409,8.37757346 C136.521538,8.37185395 136.533975,8.36910991 136.546497,8.36961137 L136.856584,8.36961137 C136.866846,8.36884643 136.876949,8.37246765 136.884353,8.37956449 C136.891756,8.38666133 136.895755,8.39655864 136.895345,8.40676777 L136.895345,9.55861611 C136.896116,9.56880468 136.892468,9.57883519 136.88532,9.58618549 C136.878172,9.59353579 136.868204,9.59750662 136.857921,9.59709953 L136.684165,9.59709953 C136.673752,9.59745 136.663635,9.59362365 136.656097,9.58648341 C136.648464,9.57928221 136.644532,9.5690338 136.645404,9.55861611 L136.645404,8.6894218 L136.358038,9.32108057 C136.353856,9.33300531 136.346459,9.34356232 136.336653,9.3516019 C136.325646,9.35764862 136.313115,9.36041325 136.300565,9.35956398 L136.158887,9.35956398 C136.146778,9.3602242 136.134729,9.35746349 136.124136,9.3516019 C136.113924,9.34394026 136.106434,9.33325047 136.10275,9.32108057 L135.816721,8.6894218 L135.816721,9.55861611 C135.817322,9.56876167 135.813618,9.57869375 135.806508,9.58600507 C135.799398,9.59331639 135.78953,9.59733958 135.779297,9.59709953 L135.601531,9.59709953 C135.591529,9.59697154 135.582015,9.59278735 135.575199,9.58551886 C135.568383,9.57825037 135.564858,9.56853019 135.565443,9.55861611 L135.565443,8.40676777 C135.565033,8.39655864 135.569032,8.38666133 135.576436,8.37956449 C135.583839,8.37246765 135.593942,8.36884643 135.604204,8.36961137 L135.904936,8.36961137 C135.917014,8.36927951 135.928977,8.3720204 135.939687,8.37757346 C135.947019,8.38486015 135.952118,8.39406361 135.954389,8.40411374 L135.954389,8.40411374 Z" id="Path_27" fill="#88898E"></path>
                        </g>
                    </g>
                </g>
            </g>
        </g>
    </g>
</svg>