<svg width="230" height="230" viewBox="0 0 230 230" version="1.1" xmlns="http://www.w3.org/2000/svg" xmlns:xlink="http://www.w3.org/1999/xlink" xml:space="preserve" xmlns:serif="http://www.serif.com/" style="fill-rule:evenodd;clip-rule:evenodd;stroke-linejoin:round;stroke-miterlimit:2;">
    <g id="Artboard1" transform="matrix(0.0231076,0,0,0.0163598,0,0)">
        <rect x="0" y="0" width="9933.07" height="14043.3" style="" fill="none"></rect>
        <g transform="matrix(39.2651,0,0,55.4604,-12793,-10599.1)">
            <circle cx="452.138" cy="317.437" r="126.326" style="" fill="#AFE614"></circle>
            <clipPath id="_clip1">
                <circle cx="452.138" cy="317.437" r="126.326" fill="#AFE614"></circle>
            </clipPath>
            <g clip-path="url(#_clip1)">
                <g transform="matrix(4.16667,0,0,4.16667,70.2373,-46.8101)">
                    <path d="M104.761,102.422C104.761,102.422 100.352,100.746 96.785,99.404L81.784,99.404C80.008,99.404 78.568,97.93 78.568,96.112L78.568,76.81C78.568,74.993 80.008,73.518 81.784,73.518L101.544,73.518C103.32,73.518 104.76,74.993 104.76,76.81L104.76,93.434L104.761,93.433L104.761,102.422ZM100.89,91.599C100.582,91.231 100.04,91.189 99.681,91.504C99.653,91.528 96.861,93.927 91.663,93.927C86.532,93.927 83.696,91.545 83.645,91.502C83.285,91.188 82.746,91.232 82.438,91.599C82.129,91.968 82.172,92.521 82.531,92.837C82.665,92.953 85.841,95.682 91.663,95.682C97.488,95.682 100.665,92.953 100.797,92.837C101.156,92.521 101.199,91.968 100.89,91.599Z" style="fill-rule: nonzero;" fill="#26282C"></path>
                </g>
            </g>
        </g>
    </g>
</svg>