<svg xmlns:xlink="http://www.w3.org/1999/xlink" xmlns="http://www.w3.org/2000/svg" width="184" height="20" viewBox="0 0 184 20" fill="none">
<path fill-rule="evenodd" clip-rule="evenodd" d="M50.3553 10.0634C50.3553 7.85624 49.2706 6.95171 46.5454 6.95171C43.9168 6.95171 42.663 7.92264 42.663 10.0634C42.663 12.1818 43.9168 13.1309 46.5454 13.1309C49.2706 13.1309 50.3553 12.204 50.3553 10.0634ZM53.4421 10.0634C53.4421 13.5061 51.3442 15.669 47.4616 15.669C45.4119 15.669 43.6516 14.6538 42.7833 12.8218V19.2H39.7207V4.63437H42.7833V7.30451C43.6516 5.47304 45.4843 4.41357 47.6307 4.41357C51.4167 4.41357 53.4421 6.55437 53.4421 10.0634Z" fill="white"/>
<path fill-rule="evenodd" clip-rule="evenodd" d="M66.3517 10.0634C66.3517 7.92264 65.0979 6.95171 62.4693 6.95171C59.7441 6.95171 58.6591 7.85624 58.6591 10.0634C58.6591 12.204 59.7441 13.1309 62.4693 13.1309C65.0979 13.1309 66.3517 12.1818 66.3517 10.0634ZM66.2554 4.63437H69.3182V15.4482H66.2554V12.7778C65.3874 14.6096 63.651 15.669 61.5531 15.669C57.6704 15.669 55.5723 13.5061 55.5723 10.0634C55.5723 6.55437 57.5741 4.41357 61.4083 4.41357C63.5544 4.41357 65.3874 5.49517 66.2554 7.34877V4.63437Z" fill="white"/>
<path fill-rule="evenodd" clip-rule="evenodd" d="M81.4242 7.10622H77.3969V12.9766H81.1348V15.4484H77.9998C75.8055 15.4484 74.3344 14.102 74.3344 12.0937V7.10622H71.4648V4.63449H74.3344V1.41235H77.3969V4.63449H81.4242V7.10622Z" fill="white"/>
<path fill-rule="evenodd" clip-rule="evenodd" d="M93.7459 10.7253L96.7361 11.3874C95.9887 14.2344 93.7459 15.669 90.0081 15.669C87.8135 15.669 86.0772 15.1613 84.8234 14.1242C83.5453 13.109 82.918 11.7626 82.918 10.0634C82.918 8.34182 83.5453 6.97382 84.8234 5.93649C86.0772 4.92129 87.8135 4.41382 90.0081 4.41382C93.7459 4.41382 95.9887 5.84795 96.7361 8.69515L93.7459 9.35702C93.3598 7.59169 92.323 6.95169 89.9839 6.95169C87.1143 6.95169 85.9808 7.92262 85.9808 10.0634C85.9808 12.1818 87.1143 13.1309 89.9839 13.1309C92.323 13.1309 93.3362 12.4909 93.7459 10.7253Z" fill="white"/>
<path fill-rule="evenodd" clip-rule="evenodd" d="M111.783 9.20267V15.4483H108.721V9.7984C108.721 7.768 107.828 6.95173 105.875 6.95173C103.56 6.95173 102.402 8.0552 102.402 10.2843V15.4483H99.3398V0H102.402V7.17227C103.053 5.34053 104.573 4.41387 106.96 4.41387C110.167 4.41387 111.783 6.00267 111.783 9.20267Z" fill="white"/>
<path fill-rule="evenodd" clip-rule="evenodd" d="M114.074 12.469L117.064 11.7408C117.33 13.0866 118.222 13.5282 120.127 13.5282C121.767 13.5282 122.587 13.153 122.587 12.4248C122.587 11.7186 122.056 11.4317 120.513 11.2328L118.15 10.9242C115.834 10.637 114.412 9.48957 114.412 7.70211C114.412 5.64957 116.365 4.41357 119.669 4.41357C122.949 4.41357 124.902 5.56131 125.36 7.59171L122.394 8.18744C122.177 6.84131 121.43 6.44397 119.79 6.44397C118.27 6.44397 117.499 6.81917 117.499 7.56957C117.499 8.20957 117.957 8.54051 119.187 8.69517L122.081 9.02611C124.323 9.26877 125.65 10.3725 125.65 12.1157C125.65 14.3448 123.527 15.669 119.934 15.669C116.727 15.669 114.484 14.3226 114.074 12.469Z" fill="white"/>
<path fill-rule="evenodd" clip-rule="evenodd" d="M136.745 7.10622H132.717V12.9766H136.455V15.4484H133.32C131.126 15.4484 129.655 14.102 129.655 12.0937V7.10622H126.785V4.63449H129.655V1.41235H132.717V4.63449H136.745V7.10622Z" fill="white"/>
<path fill-rule="evenodd" clip-rule="evenodd" d="M149.178 10.0634C149.178 7.92264 147.924 6.95171 145.296 6.95171C142.57 6.95171 141.485 7.85624 141.485 10.0634C141.485 12.204 142.57 13.1309 145.296 13.1309C147.924 13.1309 149.178 12.1818 149.178 10.0634ZM149.082 4.63437H152.144V15.4482H149.082V12.7778C148.214 14.6096 146.477 15.669 144.379 15.669C140.497 15.669 138.398 13.5061 138.398 10.0634C138.398 6.55437 140.4 4.41357 144.234 4.41357C146.381 4.41357 148.214 5.49517 149.082 7.34877V4.63437Z" fill="white"/>
<path fill-rule="evenodd" clip-rule="evenodd" d="M165.552 10.7253L168.542 11.3874C167.795 14.2344 165.552 15.669 161.814 15.669C159.62 15.669 157.884 15.1613 156.63 14.1242C155.352 13.109 154.725 11.7626 154.725 10.0634C154.725 8.34182 155.352 6.97382 156.63 5.93649C157.884 4.92129 159.62 4.41382 161.814 4.41382C165.552 4.41382 167.795 5.84795 168.542 8.69515L165.552 9.35702C165.166 7.59169 164.129 6.95169 161.79 6.95169C158.921 6.95169 157.787 7.92262 157.787 10.0634C157.787 12.1818 158.921 13.1309 161.79 13.1309C164.129 13.1309 165.143 12.4909 165.552 10.7253Z" fill="white"/>
<mask id="mask0_0_3574" style="mask-type:alpha" maskUnits="userSpaceOnUse" x="171" y="0" width="13" height="16">
<path fill-rule="evenodd" clip-rule="evenodd" d="M171.146 0H184V15.4482H171.146V0Z" fill="white"/>
</mask>
<g mask="url(#mask0_0_3574)">
<path fill-rule="evenodd" clip-rule="evenodd" d="M180.286 15.4483L176.621 10.7917L174.161 12.9325V15.4483H171.146V0H174.161V9.65547L179.828 4.6344H183.735L178.55 9.1144L184 15.4483H180.286Z" fill="white"/>
</g>
<path fill-rule="evenodd" clip-rule="evenodd" d="M0 19.1999H7.30159V14.3999H0V19.1999Z" fill="#AFE614"/>
<path fill-rule="evenodd" clip-rule="evenodd" d="M7.30078 19.1999H14.6024V14.3999H7.30078V19.1999Z" fill="#6EBE00"/>
<path fill-rule="evenodd" clip-rule="evenodd" d="M14.6035 14.4H29.2067V0H14.6035V14.4Z" fill="#AFE614"/>
<path fill-rule="evenodd" clip-rule="evenodd" d="M0 9.6H14.6032V0H0V9.6Z" fill="#6EBE00"/>
</svg>