<svg version="1.1" id="Layer_1" xmlns="http://www.w3.org/2000/svg" xmlns:xlink="http://www.w3.org/1999/xlink" x="0px" y="0px" viewBox="0 0 134 23" style="enable-background:new 0 0 134 23;" xml:space="preserve" width="183"  height="24" >
<style type="text/css">
	.st0{fill:#888A8E;}
</style>
<path class="st0" d="M0,22.1h8.1l-4-6.9L0,22.1z" fill="#88898E"></path>
<path class="st0" d="M9.7,5.5l9.7,16.5h6.4L12.9,0L9.7,5.5z" fill="#88898E"></path>
<path class="st0" d="M43.5,6.9l4-6.9h-8.1L43.5,6.9z" fill="#88898E"></path>
<path class="st0" d="M21.8,0l12.9,22.1l3.2-5.5L28.2,0H21.8z" fill="#88898E"></path>
<path class="st0" d="M58.4,0h-5.5v22.1h5.5V0z" fill="#88898E"></path>
<path class="st0" d="M125,0l4,6.9l4-6.9H125z" fill="#88898E"></path>
<path class="st0" d="M108.2,0l9.7,16.5v5.5h5.5V15l-8.7-15H108.2z" fill="#88898E"></path>
<path class="st0" d="M70.8,0h-5.5v22.1h5.5V0z" fill="#88898E"></path>
<path class="st0" d="M75.3,0h-1.8c2.2,0.9,4,2.4,5.3,4.4c1.3,2,2,4.3,2,6.6c0,2.4-0.7,4.7-2,6.6c-1.3,2-3.2,3.5-5.3,4.4h1.8	c2.9,0,5.7-1.2,7.8-3.2c2.1-2.1,3.2-4.9,3.2-7.8c0-2.9-1.2-5.7-3.2-7.8C81,1.2,78.2,0,75.3,0z" fill="#88898E"></path>
<path class="st0" d="M97.8,0h-5.5v22.1h5.5V0z" fill="#88898E"></path>
<path class="st0" d="M104.2,22.1h6v-5.5C108.9,19,106.7,21,104.2,22.1z" fill="#88898E"></path>
</svg>