<svg width="166" height="29" viewBox="0 0 166 29" version="1.1" xmlns="http://www.w3.org/2000/svg" xmlns:xlink="http://www.w3.org/1999/xlink">
    <title>logo/affiliate/cloudways</title>
    <defs>
        <filter id="filter-1">
            <feColorMatrix in="SourceGraphic" type="matrix" values="0 0 0 0 0.509804 0 0 0 0 0.549020 0 0 0 0 0.494534 0 0 0 1.000000 0"></feColorMatrix>
        </filter>
    </defs>
    <g id="Website" stroke="none" stroke-width="1" fill="#88898E" fill-rule="evenodd">
        <g id="For-hosts" transform="translate(-642.000000, -2713.000000)" fill="#88898E">
            <g id="/logo/affiliate/cloudways" transform="translate(642.000000, 2713.000000)" fill="#88898E">
                <g id="cloudways" fill="#88898E" fill-rule="nonzero">
                    <path d="M66.4064155,10.4862432 C63.4661304,10.4862432 62.108058,12.5840405 62.108058,14.6112973 C62.108058,16.6377703 63.3911498,18.6646351 66.4064155,18.6646351 C67.5006522,18.6646351 68.6690676,18.2315946 69.5002705,17.4705405 L70.7805556,18.6646351 C69.5752512,19.7862297 68.0271208,20.3301757 66.4060145,20.3301757 C62.1826377,20.3301757 60.2972947,17.5426486 60.2972947,14.6112973 C60.2972947,11.6795541 62.2576184,8.78582432 66.4060145,8.78582432 C67.9517391,8.78582432 69.4609758,9.32937838 70.668686,10.4862432 L69.4244879,11.6450676 C68.593686,10.8467838 67.5006522,10.4862432 66.4064155,10.4862432 L66.4064155,10.4862432 Z M71.8379034,20.0762297 L71.8379034,8.93004054 L73.7216425,8.93004054 L73.7216425,18.4099054 L79.8303623,18.4099054 L79.8303623,20.0758378 L71.8379034,20.0758378 L71.8379034,20.0762297 Z M86.9611449,20.3301757 C82.9238164,20.3301757 80.9995797,17.5054189 80.9995797,14.5732838 C80.9995797,11.1736216 83.4883768,8.74781081 86.9611449,8.74781081 C90.955971,8.74781081 92.9146908,11.5349459 92.9146908,14.5732838 C92.9146908,17.5779189 90.9888502,20.3301757 86.9611449,20.3301757 L86.9611449,20.3301757 Z M86.9940242,10.3780811 C84.3195797,10.3780811 82.8488357,12.1850946 82.8488357,14.6109054 C82.8853237,16.5652703 84.0926329,18.6987297 86.9611449,18.6987297 C89.8617343,18.6987297 91.0670386,16.7451486 91.0670386,14.6109054 C91.0670386,12.5472027 89.8236425,10.4133514 86.9940242,10.3780811 L86.9940242,10.3780811 Z M98.9448213,20.2917703 C96.3449565,20.2196622 94.158087,18.6266216 94.158087,15.4781622 L94.158087,8.96491892 L96.0109517,8.96491892 L96.0109517,15.4781622 C96.0109517,17.5054189 97.2491353,18.592527 98.9444203,18.6646351 C100.796483,18.7712297 102.152952,17.6147568 102.152952,15.4781622 L102.152952,8.96491892 L103.999401,8.96491892 L103.999401,15.4781622 C103.999802,18.7712297 101.735145,20.4022838 98.9448213,20.2917703 L98.9448213,20.2917703 Z M110.148217,20.0762297 C108.754058,20.0762297 107.129343,20.0762297 105.735986,20.0762297 L105.735986,8.93004054 L110.148217,8.93004054 C114.110164,8.93004054 115.916918,11.6446757 115.951401,14.3945811 C116.029589,17.2165946 114.181536,20.0762297 110.148217,20.0762297 L110.148217,20.0762297 Z M110.148217,10.6300676 L107.582034,10.6300676 L107.582034,18.375027 L110.148217,18.375027 C112.97142,18.375027 114.181536,16.3842162 114.143043,14.3945811 C114.110164,12.5123243 112.898444,10.6300676 110.148217,10.6300676 L110.148217,10.6300676 Z M129.530121,20.1118919 L127.868116,20.1118919 L126.322391,16.1663243 L125.077792,12.4394324 L123.795101,16.2043378 L122.289072,20.1122838 L120.671174,20.1122838 L116.442184,8.96531081 L118.517585,8.96531081 L121.463082,17.5426486 L124.476744,8.96531081 L125.681246,8.96531081 L128.738614,17.5426486 L131.640807,8.96531081 L133.715406,8.96531081 L129.530121,20.1118919 L129.530121,20.1118919 Z M143.78086,20.1118919 L142.652942,17.758973 L136.354966,17.758973 L135.260729,20.1118919 L133.30201,20.1118919 L138.50214,8.96491892 L140.539048,8.96491892 L145.743589,20.1118919 L143.78086,20.1118919 L143.78086,20.1118919 Z M139.517386,10.8119054 L137.073899,16.1322297 L141.972502,16.1322297 L139.517386,10.8119054 L139.517386,10.8119054 Z M150.871947,15.5165676 L150.871947,20.0762297 L149.024696,20.0762297 L149.024696,15.5165676 L144.539488,9.00293243 L144.539488,8.93004054 L146.759638,8.93004054 L149.928072,13.8506351 L153.242459,8.93004054 L155.474237,8.93004054 L155.474237,9.00293243 L150.871947,15.5165676 L150.871947,15.5165676 Z M161.053681,10.1962432 C159.502343,10.1962432 158.376029,10.8119054 158.376029,11.8966622 C158.376029,12.9833784 159.659522,13.2737703 161.19843,13.4889189 C163.575357,13.8165405 165.880111,14.4290676 165.880111,16.9265946 C165.880111,19.4249054 163.502382,20.3638784 161.053681,20.3638784 C158.827918,20.3638784 157.131029,19.7137297 156.076087,17.8318649 L157.471449,16.9262027 C158.297841,18.2645135 159.732498,18.7708378 161.08656,18.7708378 C162.481522,18.7708378 164.03286,18.3377973 164.03286,16.9262027 C164.03286,15.7321081 162.67158,15.2990676 161.053681,15.0811757 C158.754541,14.7923514 156.568473,14.2115676 156.568473,11.8241622 C156.568473,9.50808108 158.938986,8.64043243 161.053681,8.64043243 C162.710072,8.64043243 164.406961,9.03663514 165.389329,10.5222973 L163.921792,11.4275676 C163.352019,10.6676892 162.258986,10.1962432 161.053681,10.1962432 L161.053681,10.1962432 Z M37.5224155,23.0071892 C30.9421594,23.0071892 25.6081063,17.8882973 25.6081063,11.5729595 C25.6081063,5.25683784 30.9421594,0.135594595 37.5224155,0.135594595 C44.1038744,0.135594595 49.4403333,5.25683784 49.4403333,11.5729595 C49.4403333,17.8882973 44.1038744,23.0071892 37.5224155,23.0071892 L37.5224155,23.0071892 Z M46.2710966,28.8342297 C40.5440966,28.8342297 35.9021111,24.3803784 35.9021111,18.8813514 C35.9021111,13.3846757 40.5440966,8.93004054 46.2710966,8.93004054 C51.9976957,8.93004054 56.6396812,13.3846757 56.6396812,18.8813514 C56.6396812,24.3803784 51.9980966,28.8342297 46.2710966,28.8342297 L46.2710966,28.8342297 Z M28.9257005,28.8342297 C23.2011063,28.8342297 18.556715,24.3803784 18.556715,18.8813514 C18.556715,13.3846757 23.2011063,8.93004054 28.9257005,8.93004054 C34.6522995,8.93004054 39.2970918,13.3846757 39.2970918,18.8813514 C39.2966908,24.3803784 34.6522995,28.8342297 28.9257005,28.8342297 L28.9257005,28.8342297 Z M28.9257005,28.8671486 L28.9257005,20.9427027 L46.2354106,20.9427027 L46.2354106,28.8671486 L28.9257005,28.8671486 L28.9257005,28.8671486 Z M11.9953043,22.7900811 L1.92704348,22.7900811 C1.47515459,22.7900811 1.13754106,22.4632432 1.13754106,22.0294189 L1.13754106,20.9078243 C1.13754106,20.4743919 1.47515459,20.1479459 1.92704348,20.1479459 L11.9584155,20.1479459 C12.4103043,20.1479459 12.7511256,20.4743919 12.7511256,20.9078243 L12.7511256,22.0294189 C12.7876135,22.4287568 12.4103043,22.7900811 11.9953043,22.7900811 L11.9953043,22.7900811 Z M27.1927246,22.7900811 L17.1613527,22.7900811 C16.7098647,22.7900811 16.3690435,22.4632432 16.3690435,22.0294189 L16.3690435,20.9078243 C16.3690435,20.4743919 16.7094638,20.1479459 17.1613527,20.1479459 L27.1931256,20.1479459 C27.6450145,20.1479459 27.9854348,20.4743919 27.9854348,20.9078243 L27.9854348,22.0294189 C27.9850338,22.4287568 27.6446135,22.7900811 27.1927246,22.7900811 L27.1927246,22.7900811 Z M37.9382174,28.8671486 L10.1119662,28.8671486 C9.35614493,28.8671486 8.71780676,28.2565811 8.71780676,27.5288378 C8.71780676,26.8054054 9.35614493,26.1897432 10.1119662,26.1897432 L37.9382174,26.1897432 C38.6916329,26.1897432 39.3331787,26.8054054 39.3331787,27.5288378 C39.3331787,28.256973 38.6916329,28.8671486 37.9382174,28.8671486 L37.9382174,28.8671486 Z M29.3407005,16.7098784 L1.51444928,16.7098784 C0.758628019,16.7098784 0.119487923,16.0946081 0.119487923,15.3719595 C0.119487923,14.6461757 0.758227053,14.0328649 1.51444928,14.0328649 L29.3407005,14.0328649 C30.0961208,14.0328649 30.7356618,14.6461757 30.7356618,15.3719595 C30.7356618,16.0942162 30.0965217,16.7098784 29.3407005,16.7098784 L29.3407005,16.7098784 Z M36.8086957,10.6300676 L8.97963768,10.6300676 C8.22622222,10.6300676 7.58467633,10.0144054 7.58467633,9.29136486 C7.58467633,8.56832432 8.22622222,7.95266216 8.97963768,7.95266216 L36.8086957,7.95266216 C37.5621111,7.95266216 38.203657,8.56832432 38.203657,9.29136486 C38.203657,10.0144054 37.5977971,10.6300676 36.8086957,10.6300676 L36.8086957,10.6300676 Z M39.483942,4.54986486 L11.6572899,4.54986486 C10.9014686,4.54986486 10.2623285,3.93733784 10.2623285,3.21116216 C10.2623285,2.48851351 10.9014686,1.87245946 11.6572899,1.87245946 L39.483942,1.87245946 C40.2397633,1.87245946 40.8789034,2.48812162 40.8789034,3.21116216 C40.8789034,3.93733784 40.2397633,4.54986486 39.483942,4.54986486 L39.483942,4.54986486 Z" id="Shape" fill="#88898E"></path>
                </g>
            </g>
        </g>
    </g>
</svg>