<svg xmlns:xlink="http://www.w3.org/1999/xlink" xmlns="http://www.w3.org/2000/svg" viewBox="0 0 231.84 238.04" width="231.84"  height="238.04" ><defs><style>.cls-1{fill:#ff492c;stroke:#ff492c;}</style></defs><g id="Layer_2" data-name="Layer 2"><g id="Layer_1-2" data-name="Layer 1"><path class="cls-1" d="M206.68,70.51H171.26c1-5.56,4.39-8.67,11.35-12.2L189.14,55C200.8,49,207,42.26,207,31.24q0-10.44-8-16.38C193.74,10.9,187.32,9,179.94,9a29.59,29.59,0,0,0-16.16,4.6,27.36,27.36,0,0,0-10.7,11.66l10.27,10.28c4-8,9.74-12,17.34-12,6.42,0,10.38,3.32,10.38,7.92,0,3.85-1.93,7.06-9.32,10.8l-4.17,2c-9.1,4.6-15.41,9.84-19.05,15.83s-5.46,13.48-5.46,22.58v2.46h53.61V70.51Zm-4.74,31.59H143.29L114,152.88h58.65l29.32,50.79,29.33-50.78Z"/><path class="cls-1" d="M119,186.74a67.73,67.73,0,1,1,0-135.45L142.22,2.78a118.53,118.53,0,1,0,46.58,212l-25.67-44.47A67.4,67.4,0,0,1,119,186.74Z"/></g></g></svg>