<svg xmlns:xlink="http://www.w3.org/1999/xlink" id="a" xmlns="http://www.w3.org/2000/svg" viewBox="0 0 360 76" width="360"  height="76" ><defs><style>.b{fill:#828c7e;}</style></defs><g fill="#88898E"><path class="b" d="M28.52,18.71h21.47l-3.33,12.73c-.51,1.77-1.46,3.2-2.85,4.28-1.39,1.08-3.01,1.62-4.84,1.62h-9.98c-2.28,0-4.29,.66-6.03,1.99-1.74,1.33-2.96,3.13-3.66,5.41-.44,1.71-.49,3.33-.14,4.84,.35,1.52,.96,2.87,1.85,4.04,.89,1.17,2.03,2.11,3.42,2.8,1.39,.7,2.91,1.04,4.56,1.04h6.08c1.14,0,2.07,.46,2.8,1.38,.73,.92,.93,1.95,.62,3.09l-3.8,14.06h-6.65c-4.56,0-8.76-1-12.59-2.99-3.83-2-7.02-4.64-9.55-7.93-2.53-3.29-4.26-7.04-5.18-11.26-.92-4.21-.81-8.53,.33-12.97l.38-1.43c.82-3.04,2.1-5.84,3.85-8.41,1.74-2.57,3.8-4.75,6.18-6.56s5.02-3.21,7.93-4.23c2.91-1.01,5.95-1.52,9.12-1.52Z" fill="#88898E"></path><path class="b" d="M39.35,76L58.06,5.89c.51-1.77,1.46-3.2,2.85-4.27,1.39-1.08,3.01-1.61,4.85-1.61h19.85c4.56,0,8.75,1,12.59,2.99,3.83,1.99,7.01,4.64,9.55,7.93,2.53,3.29,4.28,7.05,5.23,11.26,.95,4.21,.82,8.54-.38,12.97l-.38,1.43c-.82,3.04-2.09,5.84-3.8,8.41-1.71,2.57-3.75,4.77-6.13,6.6-2.38,1.84-5.02,3.26-7.93,4.28-2.91,1.01-5.95,1.52-9.12,1.52h-17.2l3.42-12.83c.51-1.71,1.46-3.1,2.85-4.18,1.39-1.08,3.01-1.61,4.84-1.61h5.51c2.28,0,4.32-.7,6.13-2.09,1.81-1.39,2.99-3.2,3.56-5.41,.44-1.58,.49-3.14,.14-4.66-.35-1.52-.97-2.86-1.85-4.04-.89-1.17-2.03-2.12-3.42-2.85-1.39-.73-2.91-1.09-4.56-1.09h-10.64l-13.87,51.59c-.51,1.71-1.46,3.1-2.85,4.18-1.39,1.08-2.98,1.61-4.75,1.61h-13.2Z" fill="#88898E"></path><path class="b" d="M157.81,38.57l.29-1.04c.13-.51,.05-.93-.24-1.28-.29-.35-.68-.52-1.19-.52h-30.88c-1.33,0-2.53-.28-3.61-.86-1.08-.57-1.96-1.31-2.66-2.23-.7-.92-1.17-1.98-1.43-3.18-.25-1.2-.22-2.44,.09-3.71l1.9-7.22h41.8c2.6,0,4.97,.57,7.12,1.71,2.15,1.14,3.94,2.63,5.37,4.46,1.43,1.84,2.41,3.94,2.94,6.32,.54,2.38,.49,4.83-.14,7.36l-7.51,27.93c-.76,2.85-2.3,5.16-4.61,6.94-2.31,1.77-4.96,2.66-7.93,2.66l-30.88-.1c-2.72,0-5.23-.59-7.5-1.76-2.28-1.17-4.15-2.72-5.61-4.65-1.46-1.93-2.47-4.15-3.04-6.65-.57-2.5-.51-5.05,.19-7.65l.38-1.43c.44-1.77,1.19-3.42,2.23-4.94,1.05-1.52,2.26-2.82,3.66-3.9,1.39-1.08,2.95-1.91,4.65-2.52,1.71-.6,3.52-.9,5.42-.9h25.93l-1.9,7.13c-.51,1.71-1.46,3.1-2.85,4.18-1.39,1.08-2.98,1.61-4.75,1.61h-11.59c-1.08,0-1.77,.54-2.09,1.62-.19,.7-.06,1.31,.38,1.85,.44,.54,1.01,.81,1.71,.81h18.71c.7,0,1.3-.19,1.81-.57,.51-.38,.82-.89,.95-1.52l.19-.76,4.65-17.19Z" fill="#88898E"></path><path class="b" d="M213.1,18.71c4.62,0,8.85,1,12.68,2.99s7.01,4.64,9.55,7.93c2.53,3.29,4.26,7.06,5.18,11.31,.92,4.24,.78,8.58-.43,13.02l-4.75,17.86c-.32,1.27-1,2.28-2.04,3.04-1.05,.76-2.2,1.14-3.47,1.14h-10.26c-1.2,0-2.15-.46-2.85-1.38-.7-.92-.89-1.95-.57-3.09l5.7-21.56c.44-1.58,.49-3.14,.14-4.66-.35-1.52-.97-2.86-1.85-4.04-.89-1.17-2.03-2.12-3.42-2.85-1.39-.73-2.91-1.09-4.56-1.09h-10.64l-9.22,34.49c-.32,1.27-1,2.28-2.04,3.04s-2.23,1.14-3.56,1.14h-10.16c-1.14,0-2.08-.46-2.8-1.38-.73-.92-.93-1.95-.62-3.09l14.06-52.82h25.94Z" fill="#88898E"></path><path class="b" d="M269.05,36.81c-.76,.6-1.3,1.38-1.61,2.33l-4.27,16.15c-.25,.89-.09,1.71,.48,2.47,.57,.76,1.33,1.14,2.28,1.14h39.33l-3.04,11.31c-.51,1.71-1.46,3.1-2.85,4.18-1.39,1.08-2.98,1.61-4.75,1.61h-35.81c-2.6,0-4.97-.55-7.12-1.66-2.15-1.11-3.94-2.6-5.37-4.46-1.43-1.87-2.41-3.99-2.94-6.36-.54-2.38-.46-4.8,.24-7.27l5.79-21.56c.63-2.34,1.61-4.5,2.95-6.46,1.33-1.96,2.9-3.64,4.7-5.03,1.8-1.39,3.83-2.48,6.08-3.28,2.25-.79,4.57-1.19,6.98-1.19h25.36c2.6,0,4.97,.57,7.12,1.71,2.15,1.14,3.94,2.63,5.37,4.46,1.42,1.84,2.39,3.96,2.9,6.37,.51,2.41,.44,4.84-.19,7.31l-1.71,6.46c-.76,2.85-2.3,5.15-4.61,6.89-2.31,1.74-4.93,2.61-7.84,2.61h-28.69l1.9-7.03c.44-1.71,1.36-3.1,2.75-4.18,1.39-1.08,3.01-1.61,4.85-1.61h11.59c1.08,0,1.77-.54,2.09-1.62l.38-1.43c.19-.7,.06-1.33-.38-1.9-.44-.57-1.01-.85-1.71-.85h-17.67c-.95,0-1.81,.3-2.57,.9Z" fill="#88898E"></path><path class="b" d="M305.15,76L324.25,4.27c.32-1.27,1-2.29,2.04-3.09,1.04-.79,2.23-1.19,3.56-1.19h10.16c1.2,0,2.17,.46,2.9,1.38,.73,.92,.93,1.95,.62,3.09l-14.25,52.92c-.7,2.79-1.82,5.32-3.37,7.6-1.55,2.28-3.39,4.23-5.51,5.84-2.12,1.61-4.48,2.88-7.08,3.8-2.6,.92-5.32,1.38-8.17,1.38Z" fill="#88898E"></path></g><path class="b" d="M346.81,6.67c0-1.16,.29-2.25,.87-3.26,.58-1.01,1.38-1.81,2.39-2.4,1.01-.59,2.11-.88,3.28-.88s2.25,.29,3.26,.87c1.01,.58,1.81,1.38,2.4,2.39s.88,2.11,.88,3.28-.28,2.21-.84,3.22c-.56,1-1.35,1.81-2.36,2.41-1.01,.6-2.12,.9-3.33,.9s-2.31-.3-3.32-.9-1.8-1.4-2.37-2.4c-.57-1-.85-2.08-.85-3.23Zm.91,0c0,1,.25,1.94,.76,2.81,.5,.87,1.19,1.56,2.07,2.06,.87,.5,1.81,.75,2.8,.75s1.94-.25,2.81-.76c.86-.5,1.55-1.19,2.06-2.05,.51-.86,.76-1.8,.76-2.82s-.25-1.94-.76-2.81c-.5-.86-1.19-1.55-2.05-2.06-.86-.51-1.8-.76-2.82-.76s-1.94,.25-2.81,.76c-.86,.5-1.55,1.19-2.06,2.05-.51,.86-.76,1.8-.76,2.82Zm8.28-1.58c0,.46-.12,.87-.37,1.23-.25,.36-.59,.62-1.04,.8l2.07,3.43h-1.46l-1.8-3.08h-1.17v3.08h-1.29V2.8h2.27c.96,0,1.67,.19,2.12,.57,.45,.38,.67,.95,.67,1.72Zm-3.77,1.31h.94c.46,0,.84-.12,1.12-.36,.28-.24,.42-.55,.42-.92,0-.43-.12-.75-.37-.93-.25-.19-.64-.28-1.18-.28h-.92v2.5Z" fill="#88898E"></path></svg>