<svg width="42" height="48" viewBox="0 0 42 48" version="1.1" xmlns="http://www.w3.org/2000/svg" xmlns:xlink="http://www.w3.org/1999/xlink">
    <title>Group 7</title>
    <g id="Website" stroke="none" stroke-width="1" fill="#88898E" fill-rule="evenodd">
        <g id="For-hosts" transform="translate(-704.000000, -2786.000000)" fill="#88898E">
            <g id="Group-7" transform="translate(704.000000, 2786.000000)" fill="#88898E">
                <polygon id="Fill-1" points="0 6.28619488 2.17625899 8.83282891 2.17625899 33 11 24.3955924 11 1" fill="#88898E"></polygon>
                <path d="M34.9137308,40.5561377 C33.2240289,40.5561377 32.3857272,39.1946108 32.3857272,37.5785928 C32.3857272,35.9625749 33.2109304,34.626497 34.9137308,34.626497 C36.5772358,34.626497 37.3500452,35.988024 37.3500452,37.5785928 C37.3500452,39.1564371 36.5772358,40.5561377 34.9137308,40.5561377 L34.9137308,40.5561377 Z M36.0925926,31 C34.5993677,31 33.368112,31.508982 32.3857272,32.4505988 L32.3857272,31.254491 L27.9715447,31.254491 L27.9715447,48 L32.3857272,48 L32.3857272,42.7829341 C33.3812105,43.6736527 34.5993677,44.2080838 36.0925926,44.2080838 C39.7339657,44.2080838 42,41.370509 42,37.6040419 C42,33.8757485 39.7339657,31 36.0925926,31 L36.0925926,31 Z M20.9769648,38.5711078 C20.9769648,39.8817365 20.0600723,40.4416168 19.0514905,40.4416168 C17.7023487,40.4416168 17.3879855,39.6399701 17.3879855,38.7747006 L17.3879855,31.254491 L17.3355917,31.254491 L13,35.4663174 L13,39.754491 C13,42.1212575 14.296748,44.2080838 17.3093948,44.2080838 C18.6323397,44.2080838 19.9814815,43.6736527 20.9769648,42.7829341 L20.9769648,43.9281437 L25.3649503,43.9281437 L25.3649503,31.254491 L20.9769648,31.254491 L20.9769648,38.5711078 Z" id="Fill-2" fill="#88898E"></path>
                <path d="M28.0064905,0 C20.2698192,0 14,6.26981919 14,14.0064905 C14,16.1483542 14.4932777,18.160408 15.3500232,19.9647659 L15.4928141,20.1205378 L24.1381548,11.475197 L21.4121465,8.74918869 L33.2508113,8.74918869 L33.2508113,20.5878535 L30.524803,17.8618452 L21.8275382,26.5591099 C23.6838201,27.4677793 25.7737599,28 27.9935095,28 C35.7301808,28 42,21.7301808 42,13.9935095 C42,6.26981919 35.7301808,0 28.0064905,0" id="Fill-4" fill="#88898E"></path>
            </g>
        </g>
    </g>
</svg>