<svg width="150" height="30" viewBox="0 0 150 30" version="1.1" xmlns="http://www.w3.org/2000/svg" xmlns:xlink="http://www.w3.org/1999/xlink">
    <title>logo/affiliate/hostinger</title>

    <g id="Website" stroke="none" stroke-width="1" fill="#88898E" fill-rule="evenodd">
        <g id="Front" transform="translate(-389.000000, -2973.000000)" fill="#88898E">
            <g id="Afiiliates" transform="translate(80.000000, 2944.000000)" fill="#88898E">
                <g id="hostinger" transform="translate(256.000000, 0.000000)" fill="#88898E">
                    <g id="/logo/affiliate/hostinger" transform="translate(53.000000, 29.000000)" fill="#88898E">
                        <g id="hostinger" fill="#88898E" fill-rule="nonzero">
                            <polygon id="Path" points="45.1114 8.89822 47.9253 8.89822 47.9253 21.3612 45.1114 21.3612 45.1114 16.0739 40.3857 16.0739 40.3857 21.3612 37.5718 21.3612 37.5718 8.89822 40.3857 8.89822 40.3857 13.6637 45.1114 13.6637" fill="#88898E"></polygon>
                            <path d="M54.4949,15.1209 C54.4949,15.732 54.5698,16.2835 54.7201,16.7752 C54.8704,17.267 55.0871,17.6895 55.3698,18.0431 C55.6518,18.3972 55.9978,18.6695 56.4069,18.8612 C56.8155,19.0535 57.2843,19.1496 57.8137,19.1496 C58.3305,19.1496 58.7966,19.0535 59.2117,18.8612 C59.6261,18.6695 59.9752,18.3972 60.2574,18.0431 C60.5399,17.6895 60.7568,17.267 60.9071,16.7752 C61.0574,16.2835 61.1326,15.732 61.1326,15.1209 C61.1326,14.5091 61.0574,13.9546 60.9071,13.4569 C60.7568,12.9595 60.5399,12.5342 60.2574,12.1802 C59.9752,11.8266 59.6261,11.5535 59.2117,11.3621 C58.7966,11.1702 58.3305,11.0744 57.8137,11.0744 C57.2843,11.0744 56.8155,11.1732 56.4069,11.3709 C55.9978,11.5688 55.6518,11.8447 55.3698,12.1985 C55.0871,12.5521 54.8704,12.9776 54.7201,13.475 C54.5698,13.9729 54.4949,14.5214 54.4949,15.1209 Z M64.0369,15.1209 C64.0369,16.1877 63.8773,17.1262 63.5593,17.935 C63.2402,18.7445 62.8041,19.4219 62.2513,19.9672 C61.6982,20.5131 61.0397,20.9235 60.2762,21.1991 C59.5128,21.4753 58.6918,21.6131 57.8144,21.6131 C56.9604,21.6131 56.1551,21.4753 55.3974,21.1991 C54.6398,20.9235 53.9782,20.5131 53.4133,19.9672 C52.8478,19.4219 52.4034,18.7445 52.0786,17.935 C51.754,17.1262 51.5913,16.1877 51.5913,15.1209 C51.5913,14.0537 51.7598,13.1154 52.0965,12.3064 C52.4329,11.4969 52.8872,10.8164 53.4584,10.2649 C54.0292,9.71341 54.6907,9.29998 55.4426,9.02411 C56.1937,8.74799 56.9846,8.60993 57.8144,8.60993 C58.6679,8.60993 59.4734,8.74799 60.2313,9.02411 C60.9887,9.29998 61.65,9.71341 62.2152,10.2649 C62.7802,10.8164 63.2253,11.4969 63.5499,12.3064 C63.8748,13.1154 64.0369,14.0537 64.0369,15.1209 Z" id="Shape" fill="#88898E"></path>
                            <path d="M71.1123,19.2212 C71.5091,19.2212 71.8367,19.1885 72.0952,19.1221 C72.3537,19.0565 72.5613,18.9667 72.7174,18.852 C72.8735,18.7386 72.982,18.6038 73.0423,18.4479 C73.1025,18.2922 73.1326,18.1182 73.1326,17.9263 C73.1326,17.5189 72.9399,17.1797 72.5552,16.9104 C72.1704,16.6403 71.5091,16.3498 70.5713,16.0375 C70.1623,15.8942 69.7534,15.7289 69.3446,15.5433 C68.9358,15.3578 68.569,15.1239 68.2444,14.842 C67.9201,14.5603 67.6553,14.2186 67.451,13.8164 C67.2464,13.4151 67.1443,12.9267 67.1443,12.3511 C67.1443,11.7755 67.2525,11.2569 67.4689,10.7954 C67.6855,10.3337 67.992,9.94143 68.389,9.61728 C68.7857,9.29338 69.2664,9.04517 69.8316,8.87089 C70.3968,8.69737 71.0339,8.60986 71.7436,8.60986 C72.5853,8.60986 73.3129,8.70039 73.9263,8.87995 C74.5391,9.05975 75.0443,9.25792 75.441,9.47368 L74.6297,11.6857 C74.2806,11.5059 73.8927,11.3469 73.4662,11.2089 C73.0392,11.0713 72.5252,11.0019 71.9242,11.0019 C71.2506,11.0019 70.7666,11.0955 70.472,11.2811 C70.1774,11.4669 70.0298,11.7518 70.0298,12.1351 C70.0298,12.3632 70.0843,12.5553 70.1925,12.7107 C70.3005,12.8666 70.4541,13.0074 70.6523,13.1334 C70.8508,13.2592 71.0793,13.3733 71.3381,13.4749 C71.5961,13.577 71.8818,13.6817 72.1948,13.7895 C72.8438,14.0297 73.409,14.2663 73.8902,14.5002 C74.3709,14.7341 74.7709,15.0069 75.0897,15.3185 C75.408,15.6301 75.6456,15.996 75.8022,16.4157 C75.9581,16.8357 76.0365,17.3449 76.0365,17.9439 C76.0365,19.107 75.6274,20.0093 74.8098,20.6506 C73.9921,21.2924 72.7595,21.6133 71.1123,21.6133 C70.5592,21.6133 70.0601,21.5801 69.6152,21.5142 C69.1703,21.4478 68.7766,21.3671 68.4339,21.2712 C68.0913,21.1754 67.7965,21.0736 67.5498,20.9657 C67.3034,20.8576 67.0961,20.756 66.9276,20.6597 L67.7216,18.4298 C68.0939,18.634 68.5539,18.8166 69.1015,18.978 C69.6483,19.1402 70.3189,19.2212 71.1123,19.2212 Z" id="Path" fill="#88898E"></path>
                            <polygon id="Path" points="88.4327 8.89829 88.4327 11.2903 84.6629 11.2903 84.6629 21.3613 81.8492 21.3613 81.8492 11.2903 78.0792 11.2903 78.0792 8.89829" fill="#88898E"></polygon>
                            <polygon id="Path" points="91.5579 21.3616 94.3718 21.3616 94.3718 8.89834 91.5579 8.89834" fill="#88898E"></polygon>
                            <path d="M106.967,21.3613 C106.162,19.9347 105.29,18.5261 104.352,17.135 C103.414,15.744 102.416,14.4313 101.358,13.1963 L101.358,21.3613 L98.58,21.3613 L98.58,8.89832 L100.871,8.89832 C101.267,9.29364 101.706,9.77925 102.187,10.3549 C102.668,10.9305 103.158,11.5451 103.657,12.1985 C104.156,12.8518 104.652,13.5293 105.145,14.2304 C105.638,14.9318 106.101,15.606 106.534,16.2535 L106.534,8.89832 L109.33,8.89832 L109.33,21.3613 L106.967,21.3613 Z" id="Path" fill="#88898E"></path>
                            <path d="M119.634,11.0564 C118.324,11.0564 117.376,11.419 116.793,12.1443 C116.21,12.8698 115.919,13.8616 115.919,15.121 C115.919,15.7319 115.99,16.2869 116.135,16.7843 C116.279,17.2815 116.496,17.71 116.784,18.0699 C117.073,18.4297 117.433,18.7086 117.866,18.9065 C118.299,19.1042 118.804,19.203 119.381,19.203 C119.694,19.203 119.962,19.197 120.184,19.1852 C120.406,19.1733 120.602,19.1495 120.77,19.1132 L120.77,14.7793 L123.584,14.7793 L123.584,20.9478 C123.247,21.0798 122.706,21.2204 121.961,21.37 C121.215,21.5196 120.295,21.5951 119.201,21.5951 C118.263,21.5951 117.412,21.451 116.649,21.1635 C115.885,20.8753 115.233,20.4561 114.692,19.9044 C114.151,19.3531 113.733,18.6754 113.438,17.8722 C113.143,17.0695 112.996,16.1521 112.996,15.121 C112.996,14.0777 113.159,13.1545 113.484,12.351 C113.808,11.548 114.252,10.867 114.818,10.3098 C115.383,9.75224 116.047,9.32976 116.811,9.04207 C117.575,8.75413 118.389,8.60978 119.255,8.60978 C119.844,8.60978 120.376,8.64926 120.851,8.72697 C121.326,8.80518 121.735,8.89496 122.078,8.99706 C122.421,9.09865 122.703,9.20352 122.926,9.31165 C123.148,9.41954 123.307,9.50378 123.404,9.56364 L122.592,11.8113 C122.207,11.6076 121.765,11.4311 121.266,11.281 C120.767,11.1311 120.223,11.0564 119.634,11.0564 Z" id="Path" fill="#88898E"></path>
                            <polygon id="Path" points="127.521 21.3613 127.521 8.89832 135.963 8.89832 135.963 11.2542 130.335 11.2542 130.335 13.6998 135.331 13.6998 135.331 16.0021 130.335 16.0021 130.335 19.0055 136.378 19.0055 136.378 21.3613" fill="#88898E"></polygon>
                            <path d="M143.596,11.1462 C143.392,11.1462 143.209,11.1522 143.046,11.164 C142.884,11.1764 142.731,11.1884 142.586,11.2 L142.586,14.5809 L143.38,14.5809 C144.438,14.5809 145.195,14.4496 145.652,14.1855 C146.109,13.9223 146.337,13.4724 146.337,12.8366 C146.337,12.225 146.106,11.791 145.643,11.5325 C145.18,11.2752 144.498,11.1462 143.596,11.1462 Z M143.435,8.75414 C145.311,8.75414 146.748,9.08659 147.746,9.75225 C148.744,10.4177 149.243,11.4517 149.243,12.8547 C149.243,13.7296 149.042,14.4405 148.639,14.986 C148.236,15.5312 147.656,15.9602 146.898,16.2716 C147.151,16.5836 147.415,16.9402 147.692,17.3418 C147.968,17.7437 148.242,18.1634 148.513,18.601 C148.783,19.0386 149.045,19.494 149.297,19.9673 C149.549,20.4413 149.784,20.9058 150,21.3612 L146.855,21.3612 C146.625,20.9536 146.393,20.5401 146.158,20.1204 C145.922,19.701 145.681,19.2931 145.434,18.8972 C145.187,18.5014 144.941,18.1272 144.701,17.7736 C144.459,17.4195 144.217,17.0989 143.976,16.8107 L142.587,16.8107 L142.587,21.3612 L139.774,21.3612 L139.774,9.07754 C140.387,8.95834 141.021,8.87384 141.676,8.82631 C142.332,8.77803 142.918,8.75414 143.435,8.75414 Z" id="Shape" fill="#88898E"></path>
                            <path d="M0.000249566,14.046 L0.000249566,0.000497794 L7.08916,3.78046 L7.08916,10.1086 L16.4735,10.1132 L23.6774,14.046 L0.000249566,14.046 Z M18.3925,8.95058 L18.3925,0 L25.6725,3.6859 L25.6725,13.1797 L18.3925,8.95058 Z M18.3924,26.1177 L18.3924,19.8441 L8.93577,19.8375 C8.9446,19.8793 1.6123,15.8418 1.6123,15.8418 L25.6725,15.9547 L25.6725,30 L18.3924,26.1177 Z M0,26.1177 L0.000252212,16.9393 L7.08916,21.0683 L7.08916,29.8033 L0,26.1177 Z" id="Shape" fill="#88898E"></path>
                        </g>
                    </g>
                </g>
            </g>
        </g>
    </g>
</svg>