<svg version="1.1" id="Layer_1" xmlns="http://www.w3.org/2000/svg" xmlns:xlink="http://www.w3.org/1999/xlink" x="0px" y="0px" viewBox="0 0 304 36" style="enable-background:new 0 0 304 36;" xml:space="preserve" width="304"  height="36" >
<style type="text/css">
	.st0{fill-rule:evenodd;clip-rule:evenodd;fill:#888A8E;}
</style>
<g fill="#88898E">
	<path class="st0" d="M0,4.3V0h4.5v4.3H0z M0,28.3V7.8h4.5v20.5H0z M9.4,7.8h4.3v2.9h0.1c0.3-0.5,0.7-1,1.1-1.4		c0.4-0.4,0.8-0.8,1.3-1.1c0.5-0.3,1.1-0.5,1.7-0.7c0.6-0.2,1.4-0.3,2.2-0.3c1.2,0,2.4,0.3,3.5,0.8c1.1,0.6,1.8,1.4,2.3,2.6		c0.8-1.1,1.7-1.9,2.7-2.5c1-0.6,2.3-0.9,3.8-0.9c2.2,0,3.9,0.5,5.1,1.6c1.2,1.1,1.8,2.8,1.8,5.3v14.2h-4.5v-12c0-0.8,0-1.6-0.1-2.2		c-0.1-0.7-0.2-1.3-0.5-1.7c-0.3-0.5-0.6-0.9-1.1-1.1c-0.5-0.3-1.2-0.4-2.1-0.4c-1.5,0-2.6,0.5-3.3,1.4c-0.7,1-1,2.3-1,4v12H22V15.2		c0-1.4-0.3-2.5-0.8-3.2c-0.5-0.7-1.5-1.1-2.8-1.1c-0.6,0-1.1,0.1-1.7,0.4c-0.5,0.2-1,0.6-1.4,1c-0.4,0.4-0.7,1-1,1.7		c-0.3,0.7-0.4,1.4-0.4,2.3v12.2H9.4V7.8z M43.2,7.8h4.3v2.8h0.1c0.6-1.2,1.5-2,2.7-2.6c1.1-0.5,2.4-0.8,3.7-0.8		c1.6,0,3,0.3,4.2,0.9c1.2,0.6,2.2,1.3,3,2.3c0.8,1,1.4,2.1,1.8,3.5c0.4,1.3,0.6,2.7,0.6,4.2c0,1.4-0.2,2.7-0.5,4		c-0.4,1.3-0.9,2.4-1.6,3.4c-0.7,1-1.6,1.8-2.8,2.4c-1.1,0.6-2.4,0.9-3.9,0.9c-0.7,0-1.3-0.1-2-0.2s-1.3-0.3-1.9-0.6		c-0.6-0.3-1.2-0.6-1.7-1c-0.5-0.4-0.9-0.9-1.3-1.4h-0.1v10.2h-4.5V7.8z M59,18.1c0-0.9-0.1-1.8-0.4-2.7c-0.2-0.9-0.6-1.6-1.1-2.3		c-0.5-0.7-1.1-1.2-1.8-1.6c-0.7-0.4-1.5-0.6-2.5-0.6c-1.9,0-3.3,0.7-4.3,2c-1,1.3-1.4,3.1-1.4,5.3c0,1,0.1,2,0.4,2.9		c0.3,0.9,0.6,1.6,1.1,2.3c0.5,0.6,1.1,1.1,1.8,1.5s1.5,0.6,2.4,0.6c1,0,1.9-0.2,2.6-0.6c0.7-0.4,1.3-1,1.8-1.6		c0.5-0.7,0.8-1.4,1-2.3C58.9,19.9,59,19,59,18.1z M84.2,23.8c0,0.6,0.1,1,0.2,1.2c0.1,0.2,0.4,0.4,0.9,0.4h0.5c0.2,0,0.4,0,0.6-0.1		v3.1c-0.2,0.1-0.4,0.1-0.6,0.2c-0.3,0.1-0.5,0.1-0.8,0.2c-0.3,0.1-0.5,0.1-0.8,0.1c-0.3,0-0.5,0-0.7,0c-0.9,0-1.7-0.2-2.3-0.6		c-0.6-0.4-1-1-1.2-1.9c-0.9,0.9-2,1.5-3.3,1.9c-1.3,0.4-2.6,0.6-3.8,0.6c-0.9,0-1.8-0.1-2.7-0.4c-0.8-0.3-1.6-0.6-2.2-1.1		c-0.6-0.5-1.2-1.1-1.5-1.9c-0.4-0.8-0.6-1.6-0.6-2.6c0-1.3,0.2-2.3,0.7-3.1c0.5-0.8,1.1-1.4,1.8-1.9c0.8-0.4,1.6-0.8,2.5-1		c0.9-0.2,1.9-0.3,2.8-0.5c0.8-0.2,1.6-0.3,2.3-0.3c0.7-0.1,1.4-0.2,2-0.3c0.6-0.2,1-0.4,1.3-0.7c0.3-0.3,0.5-0.8,0.5-1.5		c0-0.6-0.1-1.1-0.4-1.4c-0.3-0.4-0.6-0.7-1-0.9c-0.4-0.2-0.9-0.3-1.4-0.4c-0.5-0.1-1-0.1-1.4-0.1c-1.3,0-2.3,0.3-3.1,0.8		c-0.8,0.5-1.3,1.3-1.4,2.5h-4.5c0.1-1.3,0.4-2.4,1-3.3s1.3-1.6,2.1-2.1c0.9-0.5,1.8-0.9,2.9-1.1c1.1-0.2,2.2-0.3,3.3-0.3		c1,0,2,0.1,3,0.3c1,0.2,1.9,0.6,2.6,1c0.8,0.5,1.4,1.1,1.9,1.8s0.7,1.7,0.7,2.8V23.8z M79.7,18.1c-0.7,0.4-1.5,0.7-2.5,0.8		c-1,0.1-2,0.2-3,0.4c-0.5,0.1-0.9,0.2-1.4,0.3c-0.5,0.1-0.8,0.3-1.2,0.6c-0.3,0.3-0.6,0.6-0.8,1c-0.2,0.4-0.3,0.9-0.3,1.5		c0,0.5,0.1,0.9,0.4,1.3c0.3,0.3,0.6,0.6,1.1,0.8c0.4,0.2,0.9,0.3,1.3,0.4c0.5,0.1,0.9,0.1,1.3,0.1c0.5,0,1-0.1,1.6-0.2		c0.6-0.1,1.1-0.4,1.6-0.7c0.5-0.3,0.9-0.7,1.3-1.2c0.3-0.5,0.5-1.1,0.5-1.8V18.1z M102.7,14.7c-0.2-1.3-0.7-2.2-1.5-2.9		s-1.9-1-3.2-1c-0.6,0-1.2,0.1-1.9,0.3c-0.7,0.2-1.3,0.6-1.8,1.1c-0.6,0.5-1,1.3-1.4,2.3c-0.4,1-0.6,2.2-0.6,3.8		c0,0.8,0.1,1.7,0.3,2.5c0.2,0.8,0.5,1.6,1,2.3c0.4,0.7,1,1.2,1.7,1.6c0.7,0.4,1.5,0.6,2.5,0.6c1.3,0,2.4-0.4,3.3-1.2		c0.9-0.8,1.4-2,1.6-3.5h4.5c-0.4,2.7-1.4,4.7-3,6.1c-1.6,1.4-3.7,2.1-6.4,2.1c-1.6,0-3-0.3-4.3-0.8c-1.2-0.5-2.3-1.3-3.1-2.2		c-0.8-0.9-1.5-2.1-1.9-3.4c-0.4-1.3-0.7-2.7-0.7-4.2c0-1.5,0.2-3,0.6-4.3c0.4-1.3,1.1-2.5,1.9-3.5c0.8-1,1.9-1.8,3.2-2.3		c1.3-0.6,2.7-0.9,4.4-0.9c1.2,0,2.3,0.2,3.4,0.5c1.1,0.3,2,0.8,2.9,1.4c0.8,0.6,1.5,1.4,2,2.3c0.5,0.9,0.8,2,1,3.3H102.7z		 M109.3,7.8h3.4V1.7h4.5v6.1h4.1v3.4h-4.1v10.9c0,0.5,0,0.9,0.1,1.2c0,0.3,0.1,0.6,0.3,0.9c0.1,0.2,0.4,0.4,0.7,0.5		c0.3,0.1,0.7,0.2,1.2,0.2c0.3,0,0.6,0,1,0c0.3,0,0.6-0.1,1-0.1v3.5c-0.5,0.1-1,0.1-1.5,0.2c-0.5,0.1-1,0.1-1.5,0.1		c-1.2,0-2.2-0.1-2.9-0.3c-0.7-0.2-1.3-0.6-1.7-1c-0.4-0.4-0.7-1-0.8-1.6c-0.1-0.7-0.2-1.4-0.3-2.3V11.2h-3.4V7.8z M127.8,7.9v3.5		h0.1c0.7-1.3,1.5-2.3,2.6-3c1.1-0.7,2.4-1.1,4.1-1.1c1.4,0,2.6,0.3,3.7,1c1.1,0.7,1.8,1.7,2.2,3c0.6-1.3,1.5-2.4,2.7-3		c1.2-0.7,2.5-1,3.8-1c4.5,0,6.8,2.4,6.8,7.2v13.9h-2.5V14.6c0-1.7-0.4-3-1.1-3.9c-0.7-0.9-2-1.3-3.8-1.3c-1.1,0-2,0.2-2.7,0.6		c-0.7,0.4-1.3,1-1.7,1.6c-0.4,0.7-0.7,1.5-0.9,2.4c-0.2,0.9-0.3,1.8-0.3,2.8v11.6h-2.5V14.5c0-0.7-0.1-1.3-0.2-2		c-0.1-0.6-0.4-1.2-0.7-1.6c-0.3-0.5-0.8-0.8-1.3-1.1s-1.2-0.4-2-0.4c-1.1,0-2,0.2-2.8,0.6c-0.8,0.4-1.4,0.9-1.9,1.6		c-0.5,0.7-0.9,1.5-1.1,2.4c-0.2,0.9-0.4,1.9-0.4,3v11.4h-2.5V7.9H127.8z M159.7,21.6c0.3,1,0.7,1.8,1.2,2.6		c0.6,0.8,1.3,1.4,2.1,1.9c0.8,0.5,1.9,0.8,3.1,0.8c1.8,0,3.3-0.5,4.3-1.4c1-1,1.7-2.2,2.1-3.8h2.5c-0.5,2.3-1.5,4.1-2.9,5.4		c-1.4,1.3-3.4,1.9-6,1.9c-1.6,0-3-0.3-4.2-0.9c-1.2-0.6-2.1-1.3-2.9-2.3c-0.7-1-1.3-2.1-1.6-3.5c-0.4-1.3-0.5-2.7-0.5-4.1		c0-1.4,0.2-2.7,0.5-4c0.4-1.3,0.9-2.5,1.6-3.5c0.7-1,1.7-1.8,2.9-2.5c1.2-0.6,2.6-0.9,4.2-0.9c1.6,0,3,0.3,4.2,1		c1.2,0.7,2.1,1.5,2.8,2.6c0.7,1.1,1.2,2.3,1.6,3.7c0.3,1.4,0.4,2.8,0.4,4.2h-15.8C159.3,19.7,159.4,20.6,159.7,21.6z M172.1,13.9		c-0.3-0.9-0.7-1.6-1.3-2.3c-0.6-0.7-1.2-1.2-2-1.6c-0.8-0.4-1.7-0.6-2.7-0.6c-1,0-1.9,0.2-2.7,0.6c-0.8,0.4-1.5,1-2,1.6		c-0.6,0.7-1,1.5-1.3,2.3c-0.3,0.9-0.5,1.8-0.7,2.7h13.3C172.5,15.7,172.4,14.8,172.1,13.9z M194.5,28.3v-3.9h-0.1		c-0.3,0.7-0.7,1.3-1.2,1.8c-0.5,0.6-1.1,1-1.8,1.4c-0.7,0.4-1.4,0.7-2.1,0.9c-0.8,0.2-1.5,0.3-2.2,0.3c-1.6,0-2.9-0.3-4.1-0.9		c-1.2-0.6-2.1-1.3-2.9-2.3c-0.8-1-1.3-2.1-1.7-3.5c-0.4-1.3-0.6-2.7-0.6-4.1s0.2-2.8,0.6-4.1c0.4-1.3,0.9-2.5,1.7-3.5		c0.8-1,1.7-1.8,2.9-2.4c1.1-0.6,2.5-0.9,4.1-0.9c0.8,0,1.5,0.1,2.2,0.3c0.7,0.2,1.4,0.5,2,0.9c0.6,0.4,1.2,0.9,1.7,1.4		c0.5,0.6,0.9,1.2,1.1,1.9h0.1V0h2.5v28.3H194.5z M180.8,21.3c0.3,1,0.6,2,1.2,2.8c0.5,0.8,1.2,1.5,2.1,2c0.8,0.5,1.9,0.8,3.1,0.8		c1.3,0,2.4-0.3,3.4-0.8c0.9-0.5,1.7-1.2,2.2-2c0.6-0.8,1-1.8,1.2-2.8c0.3-1,0.4-2.1,0.4-3.2c0-1.1-0.1-2.1-0.4-3.2		c-0.3-1-0.7-2-1.2-2.8c-0.6-0.8-1.3-1.5-2.2-2c-0.9-0.5-2-0.8-3.4-0.8c-1.2,0-2.2,0.3-3.1,0.8c-0.8,0.5-1.5,1.2-2.1,2		c-0.5,0.8-0.9,1.8-1.2,2.8c-0.3,1-0.4,2.1-0.4,3.2C180.4,19.2,180.6,20.2,180.8,21.3z M201.2,28.3V7.9h2.5v20.5H201.2z M201.2,4V0		h2.5v4H201.2z M209.4,11c0.4-0.9,1-1.6,1.7-2.1c0.7-0.6,1.6-1,2.6-1.2c1-0.3,2.1-0.4,3.3-0.4c0.9,0,1.8,0.1,2.7,0.3		c0.9,0.2,1.7,0.5,2.4,1c0.7,0.5,1.3,1.1,1.7,2c0.4,0.9,0.7,2,0.7,3.4v10.9c0,1,0.5,1.5,1.5,1.5c0.3,0,0.6-0.1,0.8-0.2v2.1		c-0.3,0.1-0.5,0.1-0.8,0.1c-0.2,0-0.5,0-0.9,0c-0.6,0-1.1-0.1-1.5-0.3c-0.4-0.2-0.7-0.4-0.9-0.7c-0.2-0.3-0.4-0.7-0.4-1.1		c-0.1-0.4-0.1-0.9-0.1-1.4h-0.1c-0.4,0.7-0.9,1.2-1.4,1.8c-0.5,0.5-1,0.9-1.5,1.3s-1.2,0.6-1.9,0.8c-0.7,0.2-1.6,0.3-2.6,0.3		c-1,0-1.8-0.1-2.7-0.3c-0.8-0.2-1.6-0.6-2.2-1.1c-0.6-0.5-1.1-1.1-1.5-1.9c-0.4-0.8-0.5-1.6-0.5-2.7c0-1.4,0.3-2.5,1-3.4		c0.6-0.8,1.5-1.4,2.5-1.8c1-0.4,2.2-0.7,3.5-0.9c1.3-0.2,2.6-0.3,4-0.5c0.5-0.1,1-0.1,1.4-0.2s0.7-0.2,1-0.4		c0.3-0.2,0.5-0.5,0.6-0.8c0.1-0.3,0.2-0.8,0.2-1.3c0-0.8-0.1-1.5-0.4-2.1c-0.3-0.5-0.7-1-1.1-1.3c-0.5-0.3-1.1-0.5-1.7-0.7		c-0.6-0.1-1.3-0.2-2.1-0.2c-1.6,0-2.9,0.4-3.9,1.1c-1,0.8-1.5,2-1.6,3.6h-2.5C208.8,13,209,11.9,209.4,11z M221.9,17.2		c-0.2,0.3-0.5,0.5-0.9,0.6c-0.4,0.1-0.8,0.2-1.2,0.3c-1.1,0.2-2.1,0.4-3.3,0.5c-1.1,0.1-2.1,0.4-3.1,0.7c-0.9,0.3-1.7,0.7-2.3,1.2		s-0.9,1.3-0.9,2.3c0,0.6,0.1,1.2,0.4,1.7c0.3,0.5,0.6,0.9,1,1.3c0.4,0.4,0.9,0.6,1.5,0.8c0.6,0.2,1.1,0.3,1.7,0.3		c1,0,1.9-0.1,2.7-0.4s1.6-0.7,2.3-1.3c0.6-0.6,1.2-1.2,1.5-2c0.4-0.8,0.6-1.7,0.6-2.7L221.9,17.2L221.9,17.2z M238.4,0.3		c0.5,0.2,1,0.5,1.3,0.9c0.4,0.4,0.7,0.8,0.9,1.3c0.2,0.5,0.3,1.1,0.3,1.7c0,0.6-0.1,1.1-0.3,1.7c-0.2,0.5-0.5,1-0.9,1.3		c-0.4,0.4-0.8,0.7-1.3,0.9c-0.5,0.2-1.1,0.3-1.7,0.3c-0.6,0-1.1-0.1-1.7-0.3c-0.5-0.2-1-0.5-1.3-0.9c-0.4-0.4-0.7-0.8-0.9-1.3		c-0.2-0.5-0.3-1.1-0.3-1.7c0-0.6,0.1-1.1,0.3-1.7c0.2-0.5,0.5-1,0.9-1.3c0.4-0.4,0.8-0.7,1.3-0.9c0.5-0.2,1.1-0.3,1.7-0.3		C237.4,0,237.9,0.1,238.4,0.3z M235.4,0.9c-0.4,0.2-0.8,0.4-1.1,0.8c-0.3,0.3-0.6,0.7-0.7,1.1c-0.2,0.4-0.3,0.9-0.3,1.4		c0,0.5,0.1,1,0.3,1.4c0.2,0.4,0.4,0.8,0.7,1.1c0.3,0.3,0.7,0.6,1.1,0.8c0.4,0.2,0.9,0.3,1.4,0.3c0.5,0,1-0.1,1.4-0.3		c0.4-0.2,0.8-0.4,1.1-0.8c0.3-0.3,0.6-0.7,0.7-1.1c0.2-0.4,0.3-0.9,0.3-1.4c0-0.5-0.1-1-0.3-1.4c-0.2-0.4-0.4-0.8-0.7-1.1		c-0.3-0.3-0.7-0.6-1.1-0.8c-0.4-0.2-0.9-0.3-1.4-0.3C236.3,0.6,235.8,0.7,235.4,0.9z M235.2,6.7V1.8h1.9c0.6,0,1,0.1,1.2,0.3		c0.3,0.2,0.4,0.6,0.4,1c0,0.2,0,0.4-0.1,0.6c-0.1,0.2-0.2,0.3-0.3,0.4c-0.1,0.1-0.2,0.2-0.4,0.3c-0.1,0.1-0.3,0.1-0.5,0.1l1.4,2.2		h-0.7l-1.4-2.2h-1v2.2H235.2z M237.2,4c0.2,0,0.3,0,0.5-0.1c0.1-0.1,0.2-0.1,0.3-0.3c0.1-0.1,0.1-0.3,0.1-0.5c0-0.2,0-0.3-0.1-0.4		c-0.1-0.1-0.1-0.2-0.3-0.3c-0.1-0.1-0.2-0.1-0.4-0.1c-0.1,0-0.3,0-0.4,0h-1.1V4h0.8C236.8,4,237,4,237.2,4z" fill="#88898E"></path>
	<polygon class="st0" points="246.6,14.2 280.6,14.2 280.6,0 246.6,0 	" fill="#88898E"></polygon>
	<polygon class="st0" points="246.6,28.3 303.3,28.3 303.3,14.2 246.6,14.2 	" fill="#88898E"></polygon>
</g>
</svg>