<svg xmlns:xlink="http://www.w3.org/1999/xlink" xmlns="http://www.w3.org/2000/svg" viewBox="0 0 24 24" fill="currentcolor" width="24" height="24"><path d="m11.193 24c-1.434.0-2.928-.208-4.456-.621-5.772-1.565-5.752-8.642-5.736-14.326l.002-.916c0-5.302 3.417-6.927 3.563-6.993C7.83-.387 16.176-.39 19.443 1.147c.139.063 3.556 1.688 3.556 6.99.001.142.034 3.697-.455 6.243-.381 1.985-3.118 3.897-6.101 4.263l-.237.031c-1.188.156-4.176.551-7.768-.154.326 1.349 1.425 1.625 3.613 1.702 1.835.07 3.511-.466 3.527-.471.223-.073.465-.035.657.099s.311.349.321.581l.083 1.854c.013.286-.137.554-.388.691-.063.035-1.578.853-4.209 1-.28.016-.563.024-.849.024zm.809-22.504c-2.687.0-5.374.336-6.805 1.008-.111.054-2.694 1.336-2.694 5.633l-.002.92c-.015 5.442-.033 11.61 4.628 12.875 1.675.453 3.3.642 4.827.546 1.525-.085 2.611-.423 3.162-.637l-.018-.421c-.754.163-1.891.344-3.099.302-1.759-.062-4.699-.167-5.114-3.364-.034-.249-.05-.514-.05-.796.0-.231.106-.449.289-.591.182-.143.419-.19.644-.137 3.768.942 7.019.513 8.242.353l.25-.032c2.476-.304 4.582-1.864 4.811-3.058.46-2.399.428-5.917.428-5.952.0-4.305-2.582-5.588-2.692-5.64-1.433-.673-4.12-1.009-6.807-1.009z" fill="#FFFFFF"></path><path d="m18.725 15c-.414.0-.75-.336-.75-.75.0-1.065.008-1.976.015-2.759.033-3.665.017-4.298-.753-5.174-.511-.562-1.359-.876-2.21-.809-.448.035-1.281.215-1.817 1.029l-.567.94c-.136.225-.379.362-.642.362s-.506-.138-.642-.362l-.583-.966c-.521-.789-1.356-.97-1.806-1.004-.848-.064-1.699.25-2.217.82-.76.86-.776 1.497-.744 5.188.007.778.015 1.681.015 2.735.0.414-.336.75-.75.75s-.75-.336-.75-.75c0-1.05-.008-1.947-.015-2.723-.032-3.746-.042-4.877 1.128-6.201.831-.913 2.152-1.413 3.447-1.313 1.204.093 2.262.688 2.916 1.636.668-.957 1.717-1.543 2.91-1.636 1.296-.103 2.621.397 3.444 1.304 1.18 1.34 1.169 2.464 1.136 6.188-.007.779-.015 1.686-.015 2.745.0.414-.336.75-.75.75z" fill="#FFFFFF"></path><path d="m11.999 12.13c-.414.0-.75-.336-.75-.75V7.091c0-.414.336-.75.75-.75s.75.336.75.75v4.289c0 .414-.336.75-.75.75z" fill="#FFFFFF"></path></svg>