<svg xmlns:xlink="http://www.w3.org/1999/xlink" viewBox="0 0 24 24" fill="currentcolor" xmlns="http://www.w3.org/2000/svg" width="24"  height="24" ><path d="m9.7572 21.543c-.21543-1.3514-.38438-2.4903-.37538-2.5308.017008-.07597 3.1734-2.3103 3.2109-2.2727.02721.02645.30916 4.8132.29118 4.9432-.0087.06349-.4854.49368-1.3388 1.2082-.72884.61028-1.3412 1.1095-1.3607 1.1094-.01965-75e-6-.2118-1.1059-.42728-2.4573zM7.709 22.9686l-.98536-.75859-.45604-2.2603c-.25085-1.2432-.45143-2.2992-.44576-2.3467.00794-.06803.2406.07748 1.0868.68035l1.0764.76683.3651 2.2757c.20081 1.2516.36038 2.304.35463 2.3385-.00605.03779-.4286-.25928-.99579-.69577zm6.4796-2.708c-.05413-.67589-.26906-4.4802-.25391-4.4942.10443-.09487 3.0591-2.1356 3.0918-2.1356.02797.0.0359.36586.02041.97361-.01361.53548-.03742 1.5988-.05291 2.3628l-.02835 1.3892-1.3386 1.1211c-.73625.61659-1.3545 1.1273-1.3739 1.135-.01927.0076-.04845-.1508-.06456-.35187zM9.0927 17.425c-3515e-7-.034015-.18826-1.2359-.41764-2.6682s-.40025-2.622-.37965-2.6439c.020409-.02268.90006-.55283 1.9543-1.18 1.9099-1.1361 1.917-1.1398 1.9494-1.016.03174.1217.33124 5.1734.3078 5.1942-.02986.02645-3.1702 2.2195-3.2847 2.294-.099439.06463-.12918.06917-.1296.0189zm-2.5369-1.0543c-.60442-.42826-1.1149-.79355-1.1344-.81177-.038589-.037794-1.0281-4.9311-1.0087-4.9894.00983-.03024 2.4743 1.582 2.4757 1.6187 2306e-7.0076.17768 1.12.39428 2.4748.2166 1.3548.38895 2.4685.38298 2.4749-.00605.0076-.5054-.33902-1.1098-.76713zm11.833-.75753c.01587-.84522.03175-1.8651.03515-2.2665l.006-.72979 1.2935-.90538c.71142-.49795 1.2992-.89802 1.3061-.88902.0068.0076-.02267.97036-.06603 2.1363l-.07869 2.1199-.13655.1149c-1.0407.87496-2.347 1.955-2.3653 1.9556-.01285 529e-6-.01058-.69071.0056-1.5359zm-4.5751-1.7362c-.01512-.14854-.05178-.71082-.08168-1.2499l-.05439-.98011.10454-.07899c.05749-.04346.17522-.11679.26162-.16365l.15712-.08466 1.0817.51008c.59497.28044 1.0753.5303 1.0673.55502-.01474.04611-2.423 1.7557-2.4784 1.7594-.01701.0011-.04286-.11943-.05787-.26759zm2.8451-2.8867c-.54841-.26079-.99636-.48624-.99545-.5006 903e-6-.01512.56035-.34507 1.2433-.73519l1.2416-.70904 1.012.31219c.55657.17159 1.0159.32655 1.0207.34394.0091.034016-2.4539 1.7738-2.4996 1.767-.01398-.0021-.47414-.21732-1.0225-.47822zm-8.6457-.34923c-3515e-7-.018898-.19854-1.2719-.4405-2.7816-.24197-1.5097-.42648-2.7592-.41-2.7766.044863-.047622 4.6088-2.115 4.6269-2.096.017385.018897.30716 4.8457.3066 5.1095l-355e-6.1663-1.9301 1.1474c-2.195 1.305-2.1519 1.2803-2.1527 1.231zm-2.767-1.1814-1.2426-.83369-.52316-2.6237c-.28774-1.4431-.51787-2.6297-.51141-2.6371.013606-.015118 2.648 1.6215 2.7321 1.6978.048151.043842.85818 4.9077.85818 5.153.0.04573-.015874.08202-.03515.08013-.019276-.001585-.59437-.37815-1.2779-.83668zm-.30013-6.4717c-.81502-.50785-1.4767-.94016-1.4703-.96068.010961-.034016 4.0645-1.8972 4.379-2.0117.14128-.051402.19404-.022677 1.6328.87598.81774.51103 1.4699.94356 1.4493.96121-.020788.018898-.89265.41941-1.9378.8928-1.0452.47339-2.0513.92935-2.2358 1.0133l-.33547.15231z" style="" fill="#FFFFFF" stroke-width="3.7795px"></path></svg>