<svg xmlns:xlink="http://www.w3.org/1999/xlink" xmlns="http://www.w3.org/2000/svg" width="81" height="81" viewBox="0 0 81 81" fill="none">
<rect x="1.75" y="1.43262" width="78" height="78" rx="4" stroke="#425066" stroke-width="2"/>
<path d="M26.5297 29.5296C25.3091 29.5296 24.2629 29.081 23.391 28.1839C22.5192 27.2868 22.0833 26.2102 22.0833 24.9542C22.0833 23.6982 22.5192 22.6396 23.391 21.7783C24.2629 20.8812 25.3091 20.4326 26.5297 20.4326C27.7503 20.4326 28.7791 20.8812 29.6161 21.7783C30.488 22.6396 30.9239 23.6982 30.9239 24.9542C30.9239 26.2102 30.488 27.2868 29.6161 28.1839C28.7791 29.081 27.7503 29.5296 26.5297 29.5296ZM22.5078 33.3813H30.3546V59.0993H22.5078V33.3813Z" fill="#FF6F00"/>
<path d="M34.7909 33.5487H42.27V36.6708H42.6304C43.4325 35.343 44.5659 34.3023 46.0306 33.5487C47.4953 32.7593 48.1173 32.544 49.8261 32.544C53.0346 32.544 55.4177 33.7641 57.0916 35.7736C58.7656 37.7832 59.4166 40.666 59.4166 44.147V59.0993H51.2792V44.147C51.2792 42.3886 50.698 41.7546 50.4074 41.1565C49.5355 40.1876 49.0705 39.7032 47.5012 39.7032C45.6528 39.7032 45.1762 39.9603 44.3043 40.8574C43.1884 42.3288 42.6304 43.7762 42.6304 46.0011V59.0993H34.7909V33.5487Z" fill="#FF6F00"/>
</svg>