<svg xmlns:xlink="http://www.w3.org/1999/xlink" xmlns="http://www.w3.org/2000/svg" viewBox="0 0 1005.76 566.92" width="1520"  height="1000" ><g id="Layer_2" data-name="Layer 2"><g id="Layer_1-2" data-name="Layer 1"><g id="Layer_45" data-name="Layer 45"><g id="Layer_62" data-name="Layer 62"><path d="M996.87,410.83,886.5,462.3c-6.64,3.09-7.18,9-1.22,13.16h0c6,4.18,5.41,10.07-1.23,13.17l-28.41,13.25" style="fill:none;stroke:#e5e5e5;stroke-linecap:round;stroke-linejoin:round;stroke-width:1.5px;fill-rule:evenodd"/></g><g id="Layer_61" data-name="Layer 61"><path d="M315.46,33.51l-66.6,31.06c-7.51,3.5-8.13,10.16-1.39,14.88L257,86.13c6.74,4.72,6.12,11.38-1.39,14.88L226,114.83c-7.51,3.51-19.06,2.52-25.81-2.21l-7.91-5.54c-11.11-7.78-30.15-9.41-42.52-3.64l-95,44.3" style="fill:none;stroke:#e5e5e5;stroke-linecap:round;stroke-linejoin:round;stroke-width:1.5px;fill-rule:evenodd"/></g><g id="Layer_60" data-name="Layer 60"><path d="M564.2,170.91l-61.5,28.68c-7.51,3.5-8.13,10.17-1.39,14.89l8.95,6.27c6.75,4.72,18.3,5.71,25.81,2.21l110.5-51.53c7.51-3.5,19.06-2.51,25.81,2.21l34.47,24.14c6.74,4.72,6.12,11.39-1.39,14.89l-40,18.64" style="fill:none;stroke:#e5e5e5;stroke-linecap:round;stroke-linejoin:round;stroke-width:1.5px;fill-rule:evenodd"/></g><g id="Layer_59" data-name="Layer 59"><path d="M237,153.12,405.64,72.23c14.85-7.12,38-5.31,51.64,4L556,143.83c13.68,9.36,36.8,11.17,51.64,4L714.9,96.46c14.84-7.12,38-5.31,51.64,4.05L885.08,181.6" style="fill:none;stroke:#cbcbcb;stroke-linecap:round;stroke-linejoin:round;stroke-width:1.5px;fill-rule:evenodd"/></g><g id="Layer_58" data-name="Layer 58"><path d="M267.56,263.87l19.77,13.84c6.75,4.72,6.13,11.39-1.38,14.89L182.7,340.74" style="fill:none;stroke:#e5e5e5;stroke-linecap:round;stroke-linejoin:round;stroke-width:1.5px;fill-rule:evenodd"/></g><g id="Layer_57" data-name="Layer 57"><path d="M454.65,91.63l-35.36,16.49c-7.51,3.5-8.13,10.17-1.39,14.89l19.75,13.82c6.75,4.73,6.13,11.39-1.38,14.89L381.5,177.26c-7.51,3.5-8.13,10.17-1.39,14.89l31.39,22" style="fill:none;stroke:#e5e5e5;stroke-linecap:round;stroke-linejoin:round;stroke-width:1.5px;fill-rule:evenodd"/></g><g id="Layer_56" data-name="Layer 56"><path d="M74.34,129.63l61,42.69c13.49,9.45,36.6,11.43,51.61,4.42l51.49-24" style="fill:none;stroke:#cbcbcb;stroke-linecap:round;stroke-linejoin:round;stroke-width:1.5px;fill-rule:evenodd"/></g><g id="Layer_55" data-name="Layer 55"><path d="M859.25,399.81l38-17.7c7.51-3.5,8.13-10.16,1.38-14.89L869,346.52c-6.74-4.72-6.12-11.38,1.39-14.88l30.72-14.33c7.51-3.5,19.07-2.51,25.81,2.21l41.77,29.25" style="fill:none;stroke:#e5e5e5;stroke-linecap:round;stroke-linejoin:round;stroke-width:1.5px;fill-rule:evenodd"/></g><g id="Layer_54" data-name="Layer 54"><path d="M814.76,276.6l-57.85,27c-7.46,3.48-8,10.15-1.22,14.91l13.94,9.76c6.79,4.75,6.24,11.42-1.22,14.9l-51,23.78" style="fill:none;stroke:#cbcbcb;stroke-linecap:round;stroke-linejoin:round;stroke-width:1.5px;fill-rule:evenodd"/></g><g id="Layer_53" data-name="Layer 53"><path d="M212.05,315.05l10.61,7.44c6.74,4.72,6.13,11.38-1.38,14.88l-40.57,18.92c-7.5,3.5-19.06,2.51-25.8-2.21L66.23,292c-6.74-4.73-6.12-11.39,1.38-14.89l117.06-54.59c7.51-3.5,8.13-10.17,1.39-14.89L132.5,170.13" style="fill:none;stroke:#cbcbcb;stroke-linecap:round;stroke-linejoin:round;stroke-width:1.5px;fill-rule:evenodd"/></g><g id="Layer_52" data-name="Layer 52"><path d="M942,406.72l-38,17.71c-7.51,3.5-8.13,10.16-1.38,14.89L939.27,465" style="fill:none;stroke:#e5e5e5;stroke-linecap:round;stroke-linejoin:round;stroke-width:1.5px;fill-rule:evenodd"/></g><g id="Layer_51" data-name="Layer 51"><path d="M126.29,7l-33,15.38c-7.51,3.5-8.13,10.17-1.39,14.89l40.14,28.1" style="fill:none;stroke:#f66f00;stroke-linecap:round;stroke-linejoin:round;stroke-width:1.5px;fill-rule:evenodd"/></g><g id="Layer_50" data-name="Layer 50"><path d="M564.58,74.56l-68.92,32.13c-15,7-38.12,5-51.61-4.42l-1.64-1.15c-13.49-9.45-36.6-11.42-51.61-4.42L272,152.08" style="fill:none;stroke:#ed772f;stroke-linecap:round;stroke-linejoin:round;stroke-width:1.5px;fill-rule:evenodd"/></g><g id="Layer_49" data-name="Layer 49"><path d="M111.28,301.06,79.44,315.91c-7.51,3.5-8.13,10.16-1.39,14.89l15.82,11.07c6.75,4.73,6.13,11.39-1.38,14.89L65.55,369.32c-7.51,3.51-8.13,10.17-1.38,14.89l12.87,9c6.75,4.72,6.13,11.39-1.38,14.89L20.41,433.88" style="fill:none;stroke:#e5e5e5;stroke-linecap:round;stroke-linejoin:round;stroke-width:1.5px;fill-rule:evenodd"/></g><g id="Layer_48" data-name="Layer 48"><path d="M971.81,101.58,940,116.43c-7.51,3.5-8.13,10.17-1.39,14.89L954.4,142.4c6.75,4.72,6.13,11.39-1.38,14.89l-26.94,12.56c-7.51,3.5-8.13,10.17-1.38,14.89l12.87,9c6.75,4.72,6.13,11.38-1.38,14.88l-55.25,25.77" style="fill:none;stroke:#e5e5e5;stroke-linecap:round;stroke-linejoin:round;stroke-width:1.5px;fill-rule:evenodd"/></g><g id="Layer_47" data-name="Layer 47"><path d="M66.82,386.66l63.92,44.76c6.74,4.72,6.12,11.38-1.38,14.89L52.25,482.26" style="fill:none;stroke:#e5e5e5;stroke-linecap:round;stroke-linejoin:round;stroke-width:1.5px;fill-rule:evenodd"/></g><g id="Layer_46" data-name="Layer 46"><line x1="763.76" y1="324.13" x2="814.51" y2="359.67" style="fill:none;stroke:#cbcbcb;stroke-linecap:round;stroke-linejoin:round;stroke-width:1.5px"/></g></g><g id="Layer_11" data-name="Layer 11"><g id="Layer_44" data-name="Layer 44"><path d="M661.24,230.34h.27a3,3,0,0,1,2,1.06,3,3,0,0,1,.69,2.19,3,3,0,0,1-3,2.74H661a3,3,0,0,1-2.72-3.25,3,3,0,0,1,3-2.74m0-1.5a4.5,4.5,0,0,0-.39,9l.4,0a4.5,4.5,0,0,0,.39-9,2.75,2.75,0,0,0-.4,0Z" style="fill:#e5e5e5"/></g><g id="Layer_43" data-name="Layer 43"><circle cx="567.8" cy="168.34" r="4.5" transform="translate(24.63 404.36) rotate(-40)" style="fill:#e5e5e5"/></g><g id="Layer_42" data-name="Layer 42"><path d="M818,359h.27a3,3,0,0,1-.26,6h-.27a3,3,0,0,1-2.72-3.25,3,3,0,0,1,3-2.74m0-1.5a4.5,4.5,0,0,0-.39,9l.4,0a4.5,4.5,0,0,0,.39-9l-.4,0Z" style="fill:#cbcbcb"/></g><g id="Layer_41" data-name="Layer 41"><circle cx="814.76" cy="275.55" r="4.5" transform="translate(13.5 588.19) rotate(-40)" style="fill:#cbcbcb"/></g><g id="Layer_40" data-name="Layer 40"><circle cx="713.43" cy="368.69" r="4.5" transform="translate(-70.08 544.84) rotate(-40)" style="fill:#cbcbcb"/></g><g id="Layer_39" data-name="Layer 39"><path d="M888.36,180.55h.27A3.15,3.15,0,0,1,891.5,184a3.17,3.17,0,0,1-3.13,2.88l-.28,0a3.09,3.09,0,0,1-2.14-1.11,3.14,3.14,0,0,1,2.41-5.17m0-1.35a4.5,4.5,0,0,0-.38,9l.4,0a4.5,4.5,0,0,0,.38-9Z" style="fill:#cbcbcb"/></g><g id="Layer_38" data-name="Layer 38"><path d="M971.48,348.3h.27a3,3,0,0,1-.26,6h-.27A3,3,0,0,1,968.5,351a3,3,0,0,1,3-2.74m0-1.5a4.5,4.5,0,0,0-.39,9l.4,0a4.5,4.5,0,0,0,.39-9l-.4,0Z" style="fill:#e5e5e5"/></g><g id="Layer_37" data-name="Layer 37"><path d="M208.59,309.21h.27a3,3,0,0,1,2.72,3.25,3,3,0,0,1-3,2.74h-.26a3,3,0,0,1,.25-6m0-1.5a4.5,4.5,0,0,0-.39,9,2.75,2.75,0,0,0,.4,0,4.5,4.5,0,0,0,.39-9l-.4,0Z" style="fill:#cbcbcb"/></g><g id="Layer_36" data-name="Layer 36"><circle cx="856.86" cy="400.93" r="4.5" transform="translate(-57.25 644.58) rotate(-40)" style="fill:#e5e5e5"/></g><g id="Layer_35" data-name="Layer 35"><path d="M319.32,27.43h.28a3.15,3.15,0,0,1-.27,6.29h-.28a3.15,3.15,0,0,1,.27-6.29m0-1.35a4.5,4.5,0,0,0-.39,9,2.68,2.68,0,0,0,.4,0,4.5,4.5,0,0,0,.39-9l-.4,0Z" style="fill:#e5e5e5"/></g><g id="Layer_34" data-name="Layer 34"><path d="M44.87,247.11h-.31a4.33,4.33,0,0,1-4-4.61,4.32,4.32,0,0,1,4.3-4h.31a4.33,4.33,0,0,1,4,4.61A4.34,4.34,0,0,1,44.87,247.11Z" style="fill:#445064;fill-rule:evenodd"/><path d="M44.86,239.15h.26a3.64,3.64,0,0,1-.25,7.27h-.26a3.64,3.64,0,0,1,.25-7.27m0-1.36a5,5,0,0,0-.34,10h.35a5,5,0,0,0,.34-10Z" style="fill:#445064"/></g><g id="Layer_33" data-name="Layer 33"><circle cx="985.45" cy="552.15" r="5.5" transform="translate(-124.36 762.61) rotate(-40)" style="fill:none"/></g><g id="Layer_32" data-name="Layer 32"><path d="M945.68,493.18a4.53,4.53,0,0,1-1-.12,4.75,4.75,0,0,1,1-9.38,5.17,5.17,0,0,1,1,.11,4.75,4.75,0,0,1-1,9.39Z" style="fill:#e5e5e5;fill-rule:evenodd"/><path d="M945.67,484.43a4.38,4.38,0,0,1,.88.09,4,4,0,0,1-.87,7.91,3.69,3.69,0,0,1-.87-.1,4,4,0,0,1,.86-7.9m0-1.5a5.5,5.5,0,1,0,1.2.13,5.5,5.5,0,0,0-1.2-.13Z" style="fill:#e5e5e5"/></g><g id="Layer_31" data-name="Layer 31"><path d="M60.21,167.47h-.38A4.25,4.25,0,0,1,60.2,159l.38,0a4.25,4.25,0,0,1-.37,8.48Z" style="fill:#e5e5e5;fill-rule:evenodd"/><path d="M60.2,159.72l.31,0a3.5,3.5,0,0,1-.3,7H59.9a3.49,3.49,0,0,1-3.18-3.79,3.52,3.52,0,0,1,3.48-3.2m0-1.5a5,5,0,0,0-.43,10,3.24,3.24,0,0,0,.44,0,5,5,0,0,0,.43-10l-.44,0Z" style="fill:#e5e5e5"/></g><g id="Layer_30" data-name="Layer 30"><circle cx="130.06" cy="4.5" r="4.5" transform="translate(27.54 84.65) rotate(-40)" style="fill:#f66f00"/></g><g id="Layer_29" data-name="Layer 29"><path d="M1001.26,405.52h.27a3,3,0,0,1,2.72,3.25,3,3,0,0,1-3,2.74H1001a3,3,0,0,1-2.72-3.25,3,3,0,0,1,3-2.74m0-1.5a4.5,4.5,0,0,0-.39,9h.4a4.5,4.5,0,0,0,.39-9l-.4,0Z" style="fill:#e5e5e5"/></g><g id="Layer_28" data-name="Layer 28"><circle cx="182.31" cy="340.61" r="4.5" transform="translate(-176.29 196.87) rotate(-40)" style="fill:#e5e5e5"/></g><g id="Layer_27" data-name="Layer 27"><path d="M878.13,239.6h-.26a3.75,3.75,0,0,1,.25-7.49h.27a3.76,3.76,0,0,1,2.57,1.28,3.71,3.71,0,0,1,.91,2.72A3.76,3.76,0,0,1,878.13,239.6Z" style="fill:#fff;fill-rule:evenodd"/><path d="M878.12,232.85h.22a3,3,0,0,1-.21,6h-.21a3,3,0,0,1-2.78-3.2,3,3,0,0,1,3-2.79m0-1.5a4.5,4.5,0,0,0-.3,9h.31a4.5,4.5,0,0,0,.31-9Z" style="fill:#e5e5e5"/></g><g id="Layer_26" data-name="Layer 26"><path d="M264.08,257.47h0l.26,0a3,3,0,0,1,2.73,3.25,3,3,0,0,1-3,2.73h-.27a3,3,0,0,1-2.73-3.25,3,3,0,0,1,3-2.74m0-1.5a4.5,4.5,0,0,0-.39,9h.4a4.5,4.5,0,0,0,.38-9l-.39,0Z" style="fill:#e5e5e5"/></g><g id="Layer_25" data-name="Layer 25"><path d="M961.76,433.22h0l.31,0a3.5,3.5,0,0,1-.3,7h-.31a3.5,3.5,0,0,1,.3-7m0-1.5a5,5,0,0,0-.43,10,3.31,3.31,0,0,0,.44,0,5,5,0,0,0,.43-10l-.44,0Z" style="fill:#e5e5e5"/></g><g id="Layer_24" data-name="Layer 24"><path d="M458.16,86.31h.27a3,3,0,0,1-.26,6h-.26a3,3,0,0,1,.25-6m0-1.5a4.5,4.5,0,0,0-.38,9l.39,0a4.5,4.5,0,0,0,.39-9,2.68,2.68,0,0,0-.4,0Z" style="fill:#e5e5e5"/></g><g id="Layer_23" data-name="Layer 23"><circle cx="415.1" cy="216.61" r="4.5" transform="translate(-42.12 317.5) rotate(-40)" style="fill:#e5e5e5"/></g><g id="Layer_22" data-name="Layer 22"><path d="M268.21,150.74h.27A3,3,0,0,1,271.2,154a3,3,0,0,1-3,2.74l-.27,0a3,3,0,0,1-2.72-3.25,3,3,0,0,1,3-2.73m0-1.5a4.5,4.5,0,0,0-.39,9l.4,0a4.5,4.5,0,0,0,.39-9Z" style="fill:#ed772f"/></g><g id="Layer_21" data-name="Layer 21"><circle cx="565.58" cy="73.56" r="4.5" transform="translate(85.04 380.76) rotate(-40)" style="fill:#ed772f"/></g><g id="Layer_20" data-name="Layer 20"><path d="M16.29,432.79h.28a3.14,3.14,0,0,1,2.13,1.12,3.1,3.1,0,0,1,.73,2.3,3.17,3.17,0,0,1-3.13,2.87H16a3.15,3.15,0,0,1-2.87-3.41,3.17,3.17,0,0,1,3.14-2.88m0-1.35a4.5,4.5,0,0,0-.39,9,2.68,2.68,0,0,0,.4,0,4.5,4.5,0,0,0,.38-9l-.39,0Z" style="fill:#e5e5e5"/></g><g id="Layer_19" data-name="Layer 19"><path d="M113.28,303.39l-.34,0a3.83,3.83,0,0,1,.33-7.64l.34,0a3.82,3.82,0,0,1,3.47,4.14A3.85,3.85,0,0,1,113.28,303.39Z" style="fill:#e5e5e5;fill-rule:evenodd"/><path d="M113.27,296.41h.28a3.15,3.15,0,0,1-.27,6.29H113a3.17,3.17,0,0,1-2.87-3.42,3.18,3.18,0,0,1,3.14-2.87m0-1.35a4.5,4.5,0,0,0-.39,9l.4,0a4.5,4.5,0,0,0,.38-9l-.39,0Z" style="fill:#e5e5e5"/></g><g id="Layer_18" data-name="Layer 18"><path d="M975.05,96.14h.26a3,3,0,0,1-.25,6h-.27a3,3,0,0,1,.26-6m0-1.5a4.5,4.5,0,0,0-.39,9l.4,0a4.5,4.5,0,0,0,.38-9,2.55,2.55,0,0,0-.39,0Z" style="fill:#e5e5e5"/></g><g id="Layer_17" data-name="Layer 17"><path d="M47.94,481.18h.28a3.15,3.15,0,0,1-.27,6.29h-.28a3.15,3.15,0,0,1,.27-6.29m0-1.35a4.5,4.5,0,0,0-.39,9l.4,0a4.5,4.5,0,0,0,.38-9l-.39,0Z" style="fill:#e5e5e5"/></g><g id="Layer_16" data-name="Layer 16"><circle cx="5.5" cy="465" r="5.5" transform="translate(-297.61 112.32) rotate(-40)" style="fill:none"/></g><g id="Layer_15" data-name="Layer 15"><path d="M852.47,500.64h.28a3.13,3.13,0,0,1,2.14,1.11,3.15,3.15,0,0,1-2.41,5.18h-.28a3.14,3.14,0,0,1-2.13-1.12,3.1,3.1,0,0,1-.73-2.3,3.17,3.17,0,0,1,3.13-2.87m0-1.35a4.5,4.5,0,0,0-.38,9l.39,0a4.5,4.5,0,0,0,.39-9,2.68,2.68,0,0,0-.4,0Z" style="fill:#e5e5e5"/></g><g id="Layer_14" data-name="Layer 14"><path d="M685.42,93.2,749.33,138c6.75,4.72,6.13,11.39-1.38,14.89l-77.11,36" style="fill:none;stroke:#e5e5e5;stroke-linecap:round;stroke-linejoin:round;stroke-width:1.5px;fill-rule:evenodd"/></g><g id="Layer_13" data-name="Layer 13"><path d="M682.38,94.05H682a3.89,3.89,0,0,1-3.53-4.21,3.91,3.91,0,0,1,3.87-3.55h.34a3.89,3.89,0,0,1-.33,7.76Z" style="fill:#e5e5e5;fill-rule:evenodd"/><path d="M682.37,86.89h.29a3.28,3.28,0,0,1-.28,6.54l-.29,0a3.26,3.26,0,0,1-3-3.54,3.3,3.3,0,0,1,3.26-3m0-1.23a4.5,4.5,0,0,0-.39,9h.4a4.5,4.5,0,0,0,.38-9l-.39,0Z" style="fill:#e5e5e5"/></g><g id="Layer_12" data-name="Layer 12"><path d="M666.69,187.85H667a3,3,0,0,1-.25,6h-.27a3,3,0,0,1,.26-6m0-1.5a4.5,4.5,0,0,0-.39,9,2.61,2.61,0,0,0,.4,0,4.5,4.5,0,0,0,.38-9l-.39,0Z" style="fill:#e5e5e5"/></g></g><path d="M143.82,66.8,55.67,108.56l-.07-4a2.31,2.31,0,0,1,1.06-2l86-40.72c.61-.29,1.11.14,1.12,1Z" style="fill:#445064;stroke:#445064;stroke-linecap:round;stroke-linejoin:round;stroke-width:0.75px"/><path d="M143.82,66.8,55.67,108.56l1,60c0,.81.52,1.24,1.12,1l86-40.72a2.28,2.28,0,0,0,1.06-2Z" style="fill:#fff;stroke:#445064;stroke-linecap:round;stroke-linejoin:round;stroke-width:0.75px"/><ellipse cx="58.71" cy="104.36" rx="1.19" ry="0.76" transform="translate(-61.03 105.62) rotate(-61.24)" style="fill:#fff;stroke:#fff;stroke-linecap:round;stroke-linejoin:round;stroke-width:0.75px"/><ellipse cx="62.12" cy="102.75" rx="1.19" ry="0.76" transform="translate(-57.84 107.77) rotate(-61.24)" style="fill:#fff;stroke:#fff;stroke-linecap:round;stroke-linejoin:round;stroke-width:0.75px"/><ellipse cx="65.53" cy="101.13" rx="1.19" ry="0.76" transform="translate(-54.66 109.93) rotate(-61.24)" style="fill:#fff;stroke:#fff;stroke-linecap:round;stroke-linejoin:round;stroke-width:0.75px"/><line x1="61.63" y1="110.59" x2="67.1" y2="108" style="fill:#fff;stroke:#445064;stroke-linecap:round;stroke-linejoin:round;stroke-width:0.75px"/><line x1="64.61" y1="112.45" x2="71.84" y2="109.02" style="fill:#fff;stroke:#ed772f;stroke-linecap:round;stroke-linejoin:round;stroke-width:0.75px"/><line x1="70.54" y1="112.9" x2="86.08" y2="105.54" style="fill:#fff;stroke:#697587;stroke-linecap:round;stroke-linejoin:round;stroke-width:0.75px"/><line x1="70.6" y1="116.14" x2="129.35" y2="88.31" style="fill:#fff;stroke:#697587;stroke-linecap:round;stroke-linejoin:round;stroke-width:0.75px"/><line x1="70.66" y1="119.38" x2="109.98" y2="100.75" style="fill:#fff;stroke:#697587;stroke-linecap:round;stroke-linejoin:round;stroke-width:0.75px"/><line x1="64.89" y1="125.37" x2="75.05" y2="120.56" style="fill:#fff;stroke:#ed772f;stroke-linecap:round;stroke-linejoin:round;stroke-width:0.75px"/><line x1="70.77" y1="125.85" x2="78.67" y2="122.11" style="fill:#fff;stroke:#697587;stroke-linecap:round;stroke-linejoin:round;stroke-width:0.75px"/><line x1="70.82" y1="129.09" x2="76.71" y2="126.3" style="fill:#fff;stroke:#697587;stroke-linecap:round;stroke-linejoin:round;stroke-width:0.75px"/><line x1="77.89" y1="125.74" x2="87.53" y2="121.17" style="fill:#fff;stroke:#697587;stroke-linecap:round;stroke-linejoin:round;stroke-width:0.75px"/><line x1="70.88" y1="132.32" x2="81.72" y2="127.19" style="fill:#fff;stroke:#697587;stroke-linecap:round;stroke-linejoin:round;stroke-width:0.75px"/><line x1="76.83" y1="132.77" x2="96.42" y2="123.49" style="fill:#fff;stroke:#445064;stroke-linecap:round;stroke-linejoin:round;stroke-width:0.75px"/><line x1="70.99" y1="138.8" x2="77.08" y2="135.91" style="fill:#fff;stroke:#445064;stroke-linecap:round;stroke-linejoin:round;stroke-width:0.75px"/><line x1="76.94" y1="139.25" x2="97.74" y2="129.39" style="fill:#fff;stroke:#445064;stroke-linecap:round;stroke-linejoin:round;stroke-width:0.75px"/><line x1="71.13" y1="145.26" x2="87.24" y2="137.63" style="fill:#fff;stroke:#697587;stroke-linecap:round;stroke-linejoin:round;stroke-width:0.75px"/><line x1="71.18" y1="148.5" x2="77.86" y2="145.34" style="fill:#fff;stroke:#697587;stroke-linecap:round;stroke-linejoin:round;stroke-width:0.75px"/><line x1="71.22" y1="151.75" x2="75.55" y2="149.69" style="fill:#fff;stroke:#697587;stroke-linecap:round;stroke-linejoin:round;stroke-width:0.75px"/><line x1="76.73" y1="149.14" x2="89.11" y2="143.27" style="fill:#fff;stroke:#697587;stroke-linecap:round;stroke-linejoin:round;stroke-width:0.75px"/><line x1="71.28" y1="154.98" x2="77.97" y2="151.81" style="fill:#fff;stroke:#697587;stroke-linecap:round;stroke-linejoin:round;stroke-width:0.75px"/><line x1="65.48" y1="160.99" x2="72.76" y2="157.54" style="fill:#fff;stroke:#ed772f;stroke-linecap:round;stroke-linejoin:round;stroke-width:0.75px"/><g id="Layer_6" data-name="Layer 6"><g id="Layer_10" data-name="Layer 10"><path d="M950.13,535.91l8.73-19.06c-1,5.72.92,4.64.92,4.64a4.89,4.89,0,0,1,3.71.81,1.56,1.56,0,0,0,2.35-.14c1.47-1.88.64-3.51,1.13-4.88l1.21,8.13-4.87,10.07a11.14,11.14,0,0,1-3.32,4.1,10.57,10.57,0,0,1-8.58,2.28S948.49,540,950.13,535.91Z" style="fill:#fff;stroke:#445064;stroke-linecap:round;stroke-linejoin:round;stroke-width:0.75px"/><path d="M961.74,521.32c-.54-.48-2.88-1-3.76-.48,0,0-1.78,1.24-1.32-4.55l-.39-4.1,10.19,1.38-.13,2.62a18.88,18.88,0,0,1-2.06,5.88C963.76,522.86,962.44,522,961.74,521.32Z" style="fill:#fff;stroke:#445064;stroke-linecap:round;stroke-linejoin:round;stroke-width:0.75px"/><path d="M949.62,536.05l7-19.76c-.46,5.79,1.32,4.55,1.32,4.55.88-.5,3.22,0,3.76.48a1.56,1.56,0,0,0,2.33-.34,20.18,20.18,0,0,0,2-4.5.41.41,0,0,1,.8.07l.87,6.25-5.08,12a11.13,11.13,0,0,1-2.45,3.64c-1.8,1.76-4.86,3.91-8.8,3.44C951.41,541.86,948.33,540.24,949.62,536.05Z" style="fill:#fff;stroke:#445064;stroke-linecap:round;stroke-linejoin:round;stroke-width:0.75px"/><line x1="956.65" y1="524.38" x2="960.99" y2="524.88" style="fill:none;stroke:#445064;stroke-linecap:round;stroke-linejoin:round;stroke-width:0.75px"/><line x1="955.64" y1="526.46" x2="959.98" y2="526.96" style="fill:none;stroke:#445064;stroke-linecap:round;stroke-linejoin:round;stroke-width:0.75px"/><line x1="954.63" y1="528.55" x2="958.97" y2="529.05" style="fill:none;stroke:#445064;stroke-linecap:round;stroke-linejoin:round;stroke-width:0.75px"/><path d="M954.25,363.36l-9.07-.61a9.58,9.58,0,0,0-9.34,5.53l-9.48,20.52a6.82,6.82,0,0,0,.08,5.9l10.8,21.81Z" style="fill:#fff;stroke:#445064;stroke-linecap:round;stroke-linejoin:round;stroke-width:0.75px;fill-rule:evenodd"/><path d="M949.3,503.13v7.29l-16.54,2.39,5.16-4.84s2.46-1.23,2.33-5.16Z" style="fill:#fff;stroke:#445064;stroke-linecap:round;stroke-linejoin:round;stroke-width:0.75px"/><path d="M923.59,518.45a6.51,6.51,0,0,0,3.54,4l.19.08a6.67,6.67,0,0,0,.74.29,10.36,10.36,0,0,0,8.26-.91l2.63-1.47a10.93,10.93,0,0,1,3.37-1.19l2.87-.5a11.16,11.16,0,0,0,2.45-.74l3.86-1.68a1.37,1.37,0,0,0,.8-1.54l-.39-1.86-.33-1.59-.74-2.44a1.41,1.41,0,0,0-1.54-.27,1.36,1.36,0,0,0-.61.56,4.79,4.79,0,0,1-5.67,2.12,4.79,4.79,0,0,1-2.24-1.6l-.77-1a1.37,1.37,0,0,0-2-.19l-1.89,1.65-1.78,1.55-.64.56-.78.47-.63.38-5,3-.35.21Z" style="fill:#fff;stroke:#445064;stroke-linecap:round;stroke-linejoin:round;stroke-width:0.75px"/><path d="M923.59,518.45a6.42,6.42,0,0,0,3.53,3.55l.2.08a7.51,7.51,0,0,0,1.11.35,10.27,10.27,0,0,0,8.14-1.63l2.5-1.68a10.75,10.75,0,0,1,3.25-1.48l2.82-.76a10.74,10.74,0,0,0,2.37-.94l3.71-2a1.38,1.38,0,0,0,.69-1,1.46,1.46,0,0,0,0-.62l-.29-1-.74-2.44-.51-1.68a1.37,1.37,0,0,0-2.54-.19,4.79,4.79,0,0,1-7.84,1.22l-.85-.92a1.3,1.3,0,0,0-.22-.19,1.37,1.37,0,0,0-1.77.17l-2.17,2.26-1.59,1.65-.2.21-5.83,4.27L927,516Z" style="fill:#fff;stroke:#445064;stroke-linecap:round;stroke-linejoin:round;stroke-width:0.75px"/><line x1="934.94" y1="509.6" x2="938.83" y2="511.59" style="fill:none;stroke:#445064;stroke-linecap:round;stroke-linejoin:round;stroke-width:0.75px"/><line x1="933.26" y1="511.19" x2="937.15" y2="513.19" style="fill:none;stroke:#445064;stroke-linecap:round;stroke-linejoin:round;stroke-width:0.75px"/><line x1="931.58" y1="512.79" x2="935.47" y2="514.78" style="fill:none;stroke:#445064;stroke-linecap:round;stroke-linejoin:round;stroke-width:0.75px"/><path d="M934.94,419.52l3.42,83.87a10.74,10.74,0,0,0,12.54.66,32.83,32.83,0,0,0,.38-6.56l-.58-23.94a16.65,16.65,0,0,0-1.66-6.13l3.15-46.23Z" style="fill:#ced0d1;stroke:#445064;stroke-linecap:round;stroke-linejoin:round;stroke-width:0.75px"/><path d="M938.36,423.63h30.86s2.5,27.7-3.77,51.55c0,0,6.46,13.72,2.87,39.29,0,0-9.77,8.14-13,1.14,0,0,1.62-54.07-10.75-79.31" style="fill:#ced0d1;stroke:#445064;stroke-linecap:round;stroke-linejoin:round;stroke-width:0.75px"/><path d="M944.48,362.3l18.27,2,2.12,1.25a9.91,9.91,0,0,1,4.78,7.19l2.05,13.37a21,21,0,0,1-.45,8.6c-1.21,4.51-2.64,13.05-.88,24.83a47,47,0,0,1,.58,9.28,2.6,2.6,0,0,1-4.42,1.66,5,5,0,0,0-4.55-1.17L955.36,434a3.31,3.31,0,0,1-3.53.2l-5.57-3.1a2.74,2.74,0,0,1-1.22-1.4l-1.47-3.77-1.16,1.63a1.38,1.38,0,0,1-1.79.41l-1.38-.77a10.9,10.9,0,0,1-5.52-10.87l1.09-8.82a47.33,47.33,0,0,0,0-12l-.76-5.75a46.15,46.15,0,0,1,1.46-15" style="fill:#fff;stroke:#445064;stroke-linecap:round;stroke-linejoin:round;stroke-width:0.75px"/><path d="M964.57,475.86s-1,2.29-2.94,2" style="fill:#fff;stroke:#445064;stroke-linecap:round;stroke-linejoin:round;stroke-width:0.75px;fill-rule:evenodd"/><path d="M963.52,475.46s-2.14-1.6-4.08-.65" style="fill:#fff;stroke:#445064;stroke-linecap:round;stroke-linejoin:round;stroke-width:0.75px;fill-rule:evenodd"/><path d="M947.27,468.18a3.5,3.5,0,0,0-2.5-.8" style="fill:#fff;stroke:#445064;stroke-linecap:round;stroke-linejoin:round;stroke-width:0.75px;fill-rule:evenodd"/><polygon points="959.82 351.3 960.4 362.3 954.61 369.53 946.33 366.47 947.28 363.38 946.85 351.3 959.82 351.3" style="fill:#9fa1a2;stroke:#445064;stroke-linecap:round;stroke-linejoin:round;stroke-width:0.75px;fill-rule:evenodd"/><path d="M951.38,367.86s-3.06-.17-4.09-4.48l-2.66-.43.58,8.06,2.78-2.58a1.28,1.28,0,0,1,1.25-.3h0a1.26,1.26,0,0,1,.88.88l.24.78Z" style="fill:#e5e6e8;stroke:#445064;stroke-linecap:round;stroke-linejoin:round;stroke-width:0.75px;fill-rule:evenodd"/><path d="M943.42,340.58a10.44,10.44,0,0,0-1.83,6.4l.27,8.83.19,6c.36,1.79,3.27,2.57,5.38,2.9a5.48,5.48,0,0,0,3.82-.81l3.7-2.38a6.79,6.79,0,0,0,2.86-3.83l1.49-5.07a7.63,7.63,0,0,0,1.12-1.16,10.36,10.36,0,0,0,1.89-3.94,9.48,9.48,0,0,0-1.79-7.57,9.74,9.74,0,0,0-7.35-3.54C947.91,336.17,945,338.34,943.42,340.58Z" style="fill:#9fa1a2;stroke:#445064;stroke-linecap:round;stroke-linejoin:round;stroke-width:0.75px;fill-rule:evenodd"/><path d="M941.86,355.81l.19,6c.36,1.79,3.27,2.57,5.38,2.9a5.48,5.48,0,0,0,3.82-.81l3.7-2.38a6.79,6.79,0,0,0,2.86-3.83l1.49-5.07a7.63,7.63,0,0,0,1.12-1.16l-1.91-.73s-1.35,4.94-4.09,7.4a3.16,3.16,0,0,1-4.56-.44,3.56,3.56,0,0,0-1.1-.86l-2-1a3.23,3.23,0,0,0-4.29,1.46Z" style="fill:#616161;stroke:#445064;stroke-linecap:round;stroke-linejoin:round;stroke-width:0.75px;fill-rule:evenodd"/><ellipse cx="959.98" cy="352.07" rx="2.84" ry="1.94" transform="translate(282.55 1117.96) rotate(-68.65)" style="fill:#9fa1a2;stroke:#445064;stroke-linecap:round;stroke-linejoin:round;stroke-width:0.75px"/><path d="M945,348.38l.55,1.82a1.38,1.38,0,0,1-.06,1l-1.1,2.39a1.37,1.37,0,0,0,.89,1.89l1.43.38" style="fill:#9fa1a2;stroke:#445064;stroke-linecap:round;stroke-linejoin:round;stroke-width:0.75px;fill-rule:evenodd"/><path d="M948.25,359.18s-3.42-2.77-4.68-1.47c0,0-.57,2.25.74,2.71l2.44.82S947.51,360.91,948.25,359.18Z" style="fill:#9fa1a2;stroke:#445064;stroke-linecap:round;stroke-linejoin:round;stroke-width:0.75px;fill-rule:evenodd"/><path d="M962.75,364.28l-8.1,11L953,369.53a1.27,1.27,0,0,0-2.3-.33l-.37.59,1-1.93h1.1a3.78,3.78,0,0,0,2.43-.88c1.64-1.38,4.63-4.11,5.38-6.3l-.13-3,2.14,2Z" style="fill:#e5e6e8;stroke:#445064;stroke-linecap:round;stroke-linejoin:round;stroke-width:0.75px;fill-rule:evenodd"/><path d="M951,368.82s-5.75,7.21-5.66,26.34c0,0-1.63,3-1.77,30.77" style="fill:#fff;stroke:#445064;stroke-linecap:round;stroke-linejoin:round;stroke-width:0.75px"/><path d="M962.75,364.28l2.91,1.57a18.65,18.65,0,0,1,7.25,25.88L961.61,411a3.29,3.29,0,0,1-3.78,1.47c-2.19-.38-4.51-.9-6.92-1.52V399.76q1.19,0,2.46,0l8.82-17.47" style="fill:#fff;stroke:#445064;stroke-linecap:round;stroke-linejoin:round;stroke-width:0.75px"/><line x1="957.05" y1="405.26" x2="953.82" y2="398.89" style="fill:none;stroke:#445064;stroke-linecap:round;stroke-linejoin:round;stroke-width:0.75px"/><line x1="955.96" y1="399.63" x2="958.88" y2="402.07" style="fill:none;stroke:#445064;stroke-linecap:round;stroke-linejoin:round;stroke-width:0.75px"/><path d="M921.15,382a.22.22,0,0,0-.14.28l1.21,13.19a1.16,1.16,0,0,0,.5.63l5.92,3.54a.22.22,0,0,0,.27,0l.89-.52a.21.21,0,0,0,.15-.27l-1.22-13.2a1.14,1.14,0,0,0-.5-.62l-5.92-3.54a.21.21,0,0,0-.27,0Z" style="fill:#697587;stroke:#445064;stroke-linecap:round;stroke-linejoin:round;stroke-width:0.75px;fill-rule:evenodd"/><path d="M928.64,399.6l-5.92-3.54a1.16,1.16,0,0,1-.5-.63L921,382.24a.23.23,0,0,1,.33-.27l5.91,3.54a1.12,1.12,0,0,1,.5.63L929,399.33A.23.23,0,0,1,928.64,399.6Z" style="fill:#697587;stroke:#445064;stroke-linecap:round;stroke-linejoin:round;stroke-width:0.75px;fill-rule:evenodd"/><path d="M921.77,390.5l6.77,4.16,1-.64-.3-3.24a7.24,7.24,0,0,1,3.1,2.47,3.08,3.08,0,0,1,.56,1.2l1,4c6.14,2.64,10.92,1.37,17.08,1.29v11.17a182.22,182.22,0,0,1-20.95-7,18.6,18.6,0,0,1-6.2-1.44,2.59,2.59,0,0,1-1.42-3,2.54,2.54,0,0,0-.22-1.91l-.37-.69a2.56,2.56,0,0,1-.15-2.13l.21-.57-.77-.62a1.39,1.39,0,0,1-.5-1.06v-1.21Z" style="fill:#9fa1a2;stroke:#445064;stroke-linecap:round;stroke-linejoin:round;stroke-width:0.75px;fill-rule:evenodd"/><path d="M953.37,400.53v11a1.37,1.37,0,0,1-1.81,1.29l-4.19-1.41a1.38,1.38,0,0,1-.94-1.3v-9.53a1.37,1.37,0,0,1,1.37-1.37H952A1.37,1.37,0,0,1,953.37,400.53Z" style="fill:#e5e6e8;stroke:#445064;stroke-linecap:round;stroke-linejoin:round;stroke-width:0.75px"/></g><g id="Layer_9" data-name="Layer 9"><path d="M857.9,537.87s-6.9,3.23-5,15.8c0,0,2,4.19,7.77,0Z" style="fill:#fff;stroke:#445064;stroke-linecap:round;stroke-linejoin:round;stroke-width:0.75px"/><path d="M884.47,525l2.38,6.44a3.1,3.1,0,0,1,3.14-.13l1.8,1a3.1,3.1,0,0,1,1.63,2.72v.34a3.07,3.07,0,0,1-1.54,2.66L890,539a3.08,3.08,0,0,1-3.13,0l-2-1.2a3.07,3.07,0,0,1-1-1L876.58,525Z" style="fill:#fff;stroke:#445064;stroke-linecap:round;stroke-linejoin:round;stroke-width:0.75px"/><path d="M900.49,475l6,3.48v-2a1.42,1.42,0,0,0-.72-1.22l-1.81-.94a1.35,1.35,0,0,0-1.08-.08C902.12,474.55,901.32,474.79,900.49,475Z" style="fill:#425066;stroke:#445064;stroke-linecap:round;stroke-linejoin:round;stroke-width:0.75px"/><path d="M862.92,525.47l9.74-12.8a7.79,7.79,0,0,0,1.58-4.69,7.83,7.83,0,0,1,.18-1.67l5.17-23.41a8.1,8.1,0,0,1,3.93-5.29h0a4.1,4.1,0,0,1-.37-2.7c0,1.3,1.9,2,1.9,2a5.65,5.65,0,0,1,1.69-4.05,4.27,4.27,0,0,0,0,3.68h0a4.39,4.39,0,0,1,3.75-1.89c-1.8.82-2,1.81-2,1.84a50.28,50.28,0,0,0,12-1.51l6,3.48v2.13l-1.17.63v.05l-.07,2.1a1.41,1.41,0,0,1-.52,1L902,486.57l-6.39,5a11.46,11.46,0,0,0,.72,4l2.78,7.47a21.91,21.91,0,0,1,.34,14.28c-.31,1-.67,2.06-1.06,3.16a64.33,64.33,0,0,1-5.57,11.94,31.56,31.56,0,0,1-4.66,6c-.16.16-.32.3-.49.45-.93.78-3.69,3.42-3.84,6.94l-10.42,13.85-2,.3a13.7,13.7,0,0,1-8.63-1.55l-4.76-2.62S849.7,541.48,862.92,525.47Z" style="fill:#fff;stroke:#445064;stroke-linecap:round;stroke-linejoin:round;stroke-width:0.75px"/><path d="M902,486.57l-6.61,5.13a2.74,2.74,0,0,1-2.5.45l-1.51-.47" style="fill:#fff;stroke:#445064;stroke-linecap:round;stroke-linejoin:round;stroke-width:0.75px"/><path d="M906.51,480.62l-6,3.53a2.74,2.74,0,0,1-1.88.33l-1.43-.26" style="fill:#fff;stroke:#445064;stroke-linecap:round;stroke-linejoin:round;stroke-width:0.75px"/><path d="M895.28,479.45s-2.52-1.35-3.42.63" style="fill:#fff;stroke:#445064;stroke-linecap:round;stroke-linejoin:round;stroke-width:0.75px"/><path d="M889.66,481.15l-1.16-.68a1.37,1.37,0,0,0-1.37,0c-1.38.79-4.39,2.79-5.69,5.67a36.93,36.93,0,0,0,5,4.49,1.37,1.37,0,0,0,2.15-1.13v-7.16l.91-.23" style="fill:#425066;stroke:#445064;stroke-linecap:round;stroke-linejoin:round;stroke-width:0.75px"/><path d="M890.5,522.69s-1.49.42-4.14-2.54" style="fill:#fff;stroke:#445064;stroke-linecap:round;stroke-linejoin:round;stroke-width:0.75px"/><line x1="891.83" y1="553.67" x2="890.02" y2="554.8" style="fill:none;stroke:#445064;stroke-linecap:round;stroke-linejoin:round;stroke-width:0.75px"/><line x1="889.68" y1="552.55" x2="887.87" y2="553.67" style="fill:none;stroke:#445064;stroke-linecap:round;stroke-linejoin:round;stroke-width:0.75px"/><path d="M865.83,558.11c-8.33,6.3-30.54,4.93-23.49-12.07,0,0,.13,12,12.79,10.46a17.52,17.52,0,0,0,6-2,5.35,5.35,0,0,1,6,.29" style="fill:#fff;stroke:#445064;stroke-linecap:round;stroke-linejoin:round;stroke-width:0.75px"/><path d="M896,507.68l4.15,21.84,4.49,12.14h0a3.1,3.1,0,0,1,3.14-.13l1.8,1a3.1,3.1,0,0,1,1.63,2.72v.34a3.07,3.07,0,0,1-1.54,2.66l-1.84,1.07a3.08,3.08,0,0,1-3.13,0l-2-1.2a3.07,3.07,0,0,1-1-1l-8.5-13.82-6.34-17.43" style="fill:#fff;stroke:#445064;stroke-linecap:round;stroke-linejoin:round;stroke-width:0.75px"/><line x1="905.6" y1="543.8" x2="904.17" y2="540.43" style="fill:none;stroke:#445064;stroke-linecap:round;stroke-linejoin:round;stroke-width:0.75px"/><line x1="909.9" y1="542.68" x2="908.09" y2="543.8" style="fill:none;stroke:#445064;stroke-linecap:round;stroke-linejoin:round;stroke-width:0.75px"/><line x1="907.75" y1="541.55" x2="905.94" y2="542.68" style="fill:none;stroke:#445064;stroke-linecap:round;stroke-linejoin:round;stroke-width:0.75px"/><path d="M869.21,542.83s9.26-5.4,15.28,0c0,0,3.08,4.34-.13,11.52l2.85-1.63a3.38,3.38,0,0,1,3.22-.06l.88.46a3.37,3.37,0,0,1,.17,5.88l-9.06,5.4-3.58,1.84a2.75,2.75,0,0,1-2.61-.06l-2.65-1.52a2.75,2.75,0,0,1-1.37-2.25c-.14-3.21.36-10.6,7.42-13.92" style="fill:#fff;stroke:#445064;stroke-linecap:round;stroke-linejoin:round;stroke-width:0.75px"/><path d="M884.49,542.83s4.85,6.83-4,17.53" style="fill:#fff;stroke:#445064;stroke-linecap:round;stroke-linejoin:round;stroke-width:0.75px"/></g><g id="Layer_8" data-name="Layer 8"><polyline points="927.32 471.4 927.32 442.3 898.23 442.3" style="fill:none;stroke:#ed772f;stroke-linecap:round;stroke-linejoin:round;stroke-width:0.75px"/><polyline points="869.13 442.3 840.03 442.3 840.03 471.4" style="fill:none;stroke:#ed772f;stroke-linecap:round;stroke-linejoin:round;stroke-width:0.75px"/><polyline points="898.23 529.59 927.32 529.59 927.32 500.5" style="fill:none;stroke:#ed772f;stroke-linecap:round;stroke-linejoin:round;stroke-width:0.75px"/><polyline points="840.03 500.5 840.03 529.59 869.13 529.59" style="fill:none;stroke:#ed772f;stroke-linecap:round;stroke-linejoin:round;stroke-width:0.75px"/></g><g id="Layer_7" data-name="Layer 7"><polygon points="927.32 529.59 923.59 388.44 840.03 442.3 840.03 529.59 927.32 529.59" style="fill:#ed772f;fill-rule:evenodd;opacity:0.09"/></g></g><g id="Layer_3" data-name="Layer 3"><g id="Layer_5" data-name="Layer 5"><path d="M86.07,257.14l3-1.57a3.18,3.18,0,0,1,3.76.88l2.85,3.24,3,6.14a.88.88,0,0,1-.65,1.32,1.1,1.1,0,0,1-1-.46l-2.3-3.18-2,.85a8.17,8.17,0,0,1-7.63-.94L67.82,251.76,72,244.13Z" style="fill:#fff;stroke:#445064;stroke-linecap:round;stroke-linejoin:round;stroke-width:0.75px"/><path d="M48.26,209.72c3.54-1,7.57,1.14,9.12,4.81l11.23,26.52L72,244.13l-4.13,7.63-4-2.68a11.9,11.9,0,0,1-3.72-4l-18.73-33.4Z" style="fill:#f2aa3c;stroke:#445064;stroke-linecap:round;stroke-linejoin:round;stroke-width:0.75px"/><path d="M71.29,254.23l3.29,1.92s-1.25-4.23,5.37-4.82l-3.12-2.85" style="fill:#f2aa3c;stroke:#445064;stroke-linecap:round;stroke-linejoin:round;stroke-width:0.75px;fill-rule:evenodd"/><path d="M68.61,241.05l5.06,4.54a8.7,8.7,0,0,0,3,1.79l2,.73A1.76,1.76,0,0,1,79.79,250l-.2,1-.65-.59c-1.9-.4-6.29.62-6,4.79l1.2.73-1.66.86a1.64,1.64,0,0,1-2.16-.83,12.32,12.32,0,0,0-4.52-5,1.5,1.5,0,0,0-.23-.15l-1.54-.91a8.13,8.13,0,0,1-.78-.52h0A10.28,10.28,0,0,1,60,245.32l-2.27-5" style="fill:#f2aa3c;stroke:#445064;stroke-linecap:round;stroke-linejoin:round;stroke-width:0.75px;fill-rule:evenodd"/><path d="M46,360.42A15.55,15.55,0,0,1,51.39,363a28.34,28.34,0,0,1,4.32,4.08c3.29,3.66,9,4.71,11.27,5,.57.07.9.09.9.09l.43,0" style="fill:none;stroke:#445064;stroke-linecap:round;stroke-linejoin:round;stroke-width:0.75px;fill-rule:evenodd"/><path d="M43.79,385.29l-2.7-.34a18.69,18.69,0,0,1-6.39-4.7" style="fill:none;stroke:#445064;stroke-linecap:round;stroke-linejoin:round;stroke-width:0.75px;fill-rule:evenodd"/><path d="M50.59,359l3.8,0,2.92-3.56a2,2,0,0,1-.65-.71c-1.33-2.14-.63-7-.63-7l-8.56-5.16a32.67,32.67,0,0,1,0,6.8,8.42,8.42,0,0,1-.62,2.39,7.44,7.44,0,0,1-.41.91.41.41,0,0,1,0,.09C45,355.49,47.45,359,50.59,359Z" style="fill:#fff;stroke:#445064;stroke-linecap:round;stroke-linejoin:round;stroke-width:0.75px;fill-rule:evenodd"/><path d="M46.16,359.08A19.16,19.16,0,0,1,53.4,363a23.3,23.3,0,0,1,3.12,3.16c3.65,4.25,11.28,4.71,11.28,4.71l.91-.62c-5.38-3.39-11.4-16-11.4-16a6.46,6.46,0,0,1-.65.57c-4.32,3.25-9.82-3-9.82-3a7.44,7.44,0,0,1-.41.91,8.61,8.61,0,0,0-.71,6A.59.59,0,0,0,46.16,359.08Z" style="fill:#fff;stroke:#445064;stroke-linecap:round;stroke-linejoin:round;stroke-width:0.75px;fill-rule:evenodd"/><line x1="59.34" y1="358.08" x2="56.88" y2="359.36" style="fill:#fff;stroke:#445064;stroke-linecap:round;stroke-linejoin:round;stroke-width:0.75px"/><line x1="60.14" y1="359.52" x2="57.68" y2="360.79" style="fill:#fff;stroke:#445064;stroke-linecap:round;stroke-linejoin:round;stroke-width:0.75px"/><line x1="60.93" y1="360.95" x2="58.48" y2="362.23" style="fill:#fff;stroke:#445064;stroke-linecap:round;stroke-linejoin:round;stroke-width:0.75px"/><polygon points="41.09 349.94 41.63 366.88 34.06 364.22 34.06 348.26 41.09 349.94" style="fill:#fff;stroke:#445064;stroke-linecap:round;stroke-linejoin:round;stroke-width:0.75px;fill-rule:evenodd"/><path d="M30.74,268.79l10.52,1.29-.17-.81,20.28-9.64c2,16.7,2.48,31.89-2.62,56.73a108.5,108.5,0,0,0-1.25,33s-5.47,4.92-11.19-2.52a52.92,52.92,0,0,0,.37-13.71A41.37,41.37,0,0,1,47,322.22a35.12,35.12,0,0,1,3-9.51L48,303c-1.77,6.4-3.55,12.94-5,18.72,0,0,1.77,6.71-.58,17.25,0,0-.81,9.46.45,14.94,0,0-7.4,4.15-10.73-.32,0,0,.81-2.61-.45-11.88,0,0-.82-26.08,3.78-31C35.45,310.66,30.28,296.29,30.74,268.79Z" style="fill:#fff;stroke:#445064;stroke-linecap:round;stroke-linejoin:round;stroke-width:0.75px;fill-rule:evenodd"/><path d="M51,292.36c-2.64,9.31-5.69,20.27-8,29.33" style="fill:none;stroke:#445064;stroke-linecap:round;stroke-linejoin:round;stroke-width:0.75px;fill-rule:evenodd"/><path d="M41.86,363.41a1.18,1.18,0,0,1,.34.77c.1,1.9.63,9.72,2.62,15.22,0,0,1.87,4.24-1,5.07l-2.7-.33a18.79,18.79,0,0,1-6.39-4.71s-1.28-5.81-.64-17.86c0,0,.73,2.37,2.55,1.59C36.61,363.16,39.68,361.22,41.86,363.41Z" style="fill:#fff;stroke:#445064;stroke-linecap:round;stroke-linejoin:round;stroke-width:0.75px;fill-rule:evenodd"/><path d="M63.71,207.39c-3.35,2.28-6.56,2.29-8.26-3l-14.51-7.94s-2.77-7.8-7.46-6.41c0,0,2.14-13.14,15.12-9.67,0,0,10.33,2.12,10.29,16,0,0-.18,5.5.83,8.66a3.47,3.47,0,0,0,3.93,2.43Z" style="fill:#616161;stroke:#445064;stroke-linecap:round;stroke-linejoin:round;stroke-width:0.75px;fill-rule:evenodd"/><path d="M59.44,237a15,15,0,0,1-.3,4.93,18.39,18.39,0,0,0-.51,4.49,15.08,15.08,0,0,0,1.23,5.53c.9,2.19,2.47,7,4,16.36a3.75,3.75,0,0,1-.93,3.23c-13,13.58-24.33,22.17-33,17.58,0,0-.61-20.31,3-32.61,0,0,1.82-8.47-4.25-21.36,0,0-7.73-14.32,1.55-19.49l17.81-9.69" style="fill:#f2aa3c;stroke:#445064;stroke-linecap:round;stroke-linejoin:round;stroke-width:0.75px;fill-rule:evenodd"/><path d="M56.88,219.71l4.42,8.8a6.34,6.34,0,0,1-.83,7.3l-3.59,3.69" style="fill:#f2aa3c;stroke:#445064;stroke-linecap:round;stroke-linejoin:round;stroke-width:0.75px;fill-rule:evenodd"/><path d="M44.93,243s-5.52-1.26-6.54-5.48" style="fill:#f2aa3c;stroke:#445064;stroke-linecap:round;stroke-linejoin:round;stroke-width:0.75px;fill-rule:evenodd"/><path d="M34.33,191.74h0a11.07,11.07,0,0,0,2,5.37l1.05,1.49a11.17,11.17,0,0,1,2,5.86c0,.15,0,.29,0,.44v1.27c3.74,5.54,7.43,6.52,7.43,6.52a4.7,4.7,0,0,0,3.93-1.1v-1.35a1.41,1.41,0,0,0,.83.09l.9-.23a1.15,1.15,0,0,0,.63-.38C58.8,203.07,55.62,191,55.62,191l-.89-1.86a12.08,12.08,0,0,0-1.48-2.33l-.74-.91a11.35,11.35,0,0,0-7.7-4.21h0a8.75,8.75,0,0,0-7.37,2.78l-1.28,1.43A7.59,7.59,0,0,0,34.33,191.74Z" style="fill:#fff;stroke:#445064;stroke-linecap:round;stroke-linejoin:round;stroke-width:0.75px;fill-rule:evenodd"/><path d="M39.43,206.17v2.31l5.5,9.18,5.86-3.18v-2.89a4.7,4.7,0,0,1-3.93,1.1S43.17,211.71,39.43,206.17Z" style="fill:#fff;stroke:#445064;stroke-linecap:round;stroke-linejoin:round;stroke-width:0.75px;fill-rule:evenodd"/><path d="M53.14,209.72a1.18,1.18,0,0,1-.62.38l-.9.23a1.45,1.45,0,0,1-1.15-.23l-7.21-4.91a3.28,3.28,0,0,1-1.32-1.91" style="fill:none;stroke:#445064;stroke-linecap:round;stroke-linejoin:round;stroke-width:0.75px;fill-rule:evenodd"/><path d="M43.48,219.24a4.59,4.59,0,0,0,4.81,1.15,27.11,27.11,0,0,0,3.18-1.52,1.18,1.18,0,0,0,.59-1l0-5.77a3.18,3.18,0,0,0-1.31-1.38v.91a4.7,4.7,0,0,1-3.93,1.1s-3.69-1-7.43-6.52V204.9c0-.15,0-.29,0-.44a2.58,2.58,0,0,0-1.83.83v6.36c.35.66.73,1.3,1.13,1.91" style="fill:#f2aa3c;stroke:#445064;stroke-linecap:round;stroke-linejoin:round;stroke-width:0.75px;fill-rule:evenodd"/><path d="M48.5,216.25c-2.54.85-5-.2-7-2.7" style="fill:#f2aa3c;stroke:#445064;stroke-linecap:round;stroke-linejoin:round;stroke-width:0.75px;fill-rule:evenodd"/><path d="M33.48,190c3.44-1,5.84,2.89,6.86,5l-1.32.46a3.68,3.68,0,0,0,.58.54,2.61,2.61,0,0,0,.28.17l.19.07a.25.25,0,0,0,.12,0l.13,0a1,1,0,0,0,.25,0,1.71,1.71,0,0,0,1.23-.66l.1-.15a.89.89,0,0,0,.08-.17.83.83,0,0,0,.08-.28,4.08,4.08,0,0,0,0-.61h0a11,11,0,0,0-.88-3.79c1.06.66,6.22,3.3,6.13,1.08a1.85,1.85,0,0,1-.87-.89c-.3-1,.5-.43.71.17a2.71,2.71,0,0,1,.16.72,5.07,5.07,0,0,0,1,.48l.15,0c.37.12.74.23,1.12.32l.61.14.68.1.82.08h.31a1,1,0,0,0,.26-.06.37.37,0,0,0,.17-.1.82.82,0,0,0,.21-.82,1,1,0,0,0-.07-.23l0-.09.35.11.21.06a6.77,6.77,0,0,0,1.42.27l.51,0a2.08,2.08,0,0,0,.35,0,1.33,1.33,0,0,0,.49-.09.59.59,0,0,0,.14-.06l.13-.08a.94.94,0,0,0,.1-.1.76.76,0,0,0,.11-.22,1,1,0,0,0,0-.62,2.08,2.08,0,0,0-.36-.55l-.15-.17-.3-.29-.64-3.79-6-4.93-6.53-.47L36.93,183A15.31,15.31,0,0,0,33.48,190Z" style="fill:#616161;stroke:#616161;stroke-linecap:round;stroke-linejoin:round;stroke-width:0.75px;fill-rule:evenodd"/><path d="M55.54,189.88c.44.43,1,1,.86,1.63s-1.24.58-1.83.53A7.27,7.27,0,0,1,51.32,191c-.66-.47-.29-1,.36-.52s1.47,1.65.8,2.29c-.31.3-1.15.15-1.56.1a12.88,12.88,0,0,1-2.56-.61c-.66-.21-1.71-.76-1.89-1.37-.29-1,.51-.42.72.18,1.21,3.43-4.82.36-6-.36a9.57,9.57,0,0,1,.84,4.42,1.65,1.65,0,0,1-1.75,1.26,2.1,2.1,0,0,1-1.29-.83" style="fill:none;stroke:#445064;stroke-linecap:round;stroke-linejoin:round;stroke-width:0.75px;fill-rule:evenodd"/><path d="M53.22,198.7l.62,3.74a1.92,1.92,0,0,1-2.12-.1" style="fill:#fff;stroke:#445064;stroke-linecap:round;stroke-linejoin:round;stroke-width:0.75px;fill-rule:evenodd"/><path d="M40.94,196.44s-2.77-7.8-7.46-6.41a15.19,15.19,0,0,1,3.45-7" style="fill:none;stroke:#445064;stroke-linecap:round;stroke-linejoin:round;stroke-width:0.75px;fill-rule:evenodd"/><path d="M41.41,196.38c-.33-1.56-1.54-2.74-2.69-2.63s-1.81,1.46-1.48,3,1.53,2.74,2.68,2.63a1.59,1.59,0,0,0,1.14-.69" style="fill:#fff;stroke:#445064;stroke-linecap:round;stroke-linejoin:round;stroke-width:0.75px;fill-rule:evenodd"/><path d="M33.48,190s2.14-13.14,15.12-9.67c0,0,10.33,2.12,10.29,16" style="fill:none;stroke:#445064;stroke-linecap:round;stroke-linejoin:round;stroke-width:0.75px;fill-rule:evenodd"/><line x1="41.22" y1="366.51" x2="38.3" y2="366.14" style="fill:#fff;stroke:#445064;stroke-linecap:round;stroke-linejoin:round;stroke-width:0.75px"/><line x1="41.16" y1="368.06" x2="38.24" y2="367.69" style="fill:#fff;stroke:#445064;stroke-linecap:round;stroke-linejoin:round;stroke-width:0.75px"/><line x1="41.11" y1="369.61" x2="38.19" y2="369.24" style="fill:#fff;stroke:#445064;stroke-linecap:round;stroke-linejoin:round;stroke-width:0.75px"/></g><g id="Layer_4" data-name="Layer 4"><line x1="77.03" y1="252.06" x2="77.03" y2="353.46" style="fill:#fff;stroke:#445064;stroke-linecap:round;stroke-linejoin:round;stroke-width:0.75px"/><polygon points="62.63 308.99 62.63 307 19.01 276.45 19.01 278.43 62.63 308.99" style="fill:#ced0d1;stroke:#445064;stroke-linecap:round;stroke-linejoin:round;stroke-width:0.75px"/><polygon points="62.63 308.99 120.66 282.61 120.66 280.62 62.63 307 62.63 308.99" style="fill:#e5e6e8;stroke:#445064;stroke-linecap:round;stroke-linejoin:round;stroke-width:0.75px"/><polygon points="62.63 306.99 120.66 280.61 77.04 250.07 19.01 276.45 62.63 306.99" style="fill:#fff;stroke:#445064;stroke-linecap:round;stroke-linejoin:round;stroke-width:0.75px"/><polygon points="49.79 282.63 49.79 281.64 38.24 273.55 38.24 274.54 49.79 282.63" style="fill:#9fa1a2;stroke:#445064;stroke-linecap:round;stroke-linejoin:round;stroke-width:0.75px"/><polygon points="49.72 282.63 79.47 269.1 79.47 268.11 49.72 281.63 49.72 282.63" style="fill:#ced0d1;stroke:#445064;stroke-linecap:round;stroke-linejoin:round;stroke-width:0.75px"/><polygon points="49.72 281.63 79.47 268.1 67.99 260.06 38.24 273.58 49.72 281.63" style="fill:#e5e6e8;stroke:#445064;stroke-linecap:round;stroke-linejoin:round;stroke-width:0.75px"/><path d="M45,263.5l3-1.57a3.15,3.15,0,0,1,3.75.88l2.86,3.24,3,6.14a.88.88,0,0,1-.65,1.32,1.11,1.11,0,0,1-1-.46l-2.3-3.18-2,.85a8.17,8.17,0,0,1-7.63-.94l-14.43-9.61L34.75,254Z" style="fill:#fff;stroke:#445064;stroke-linecap:round;stroke-linejoin:round;stroke-width:0.75px"/><path d="M37.59,230.39l-5.4,21.3L34.75,254l-5.17,6.13-6.13-4.08a3.44,3.44,0,0,1-1.55-3.18l1.17-9.63h0l3-22.14" style="fill:#f2aa3c;stroke:#445064;stroke-linecap:round;stroke-linejoin:round;stroke-width:0.75px"/><path d="M41,259.52a6.29,6.29,0,0,1-4.47,5.39l-5.86-3.81,5.7-5.81Z" style="fill:#f2aa3c;stroke:#445064;stroke-linecap:round;stroke-linejoin:round;stroke-width:0.75px;fill-rule:evenodd"/><path d="M23.45,256.09l3.36,2.43a17,17,0,0,1,1.51,1.18l2.72,3a3.35,3.35,0,0,0,2.18,1.09c5.8.42,6.48-4.12,6.48-6.25a1.71,1.71,0,0,0-1-1.51l-.84-.39a16.86,16.86,0,0,1-4.34-2.89l-1.26-1.15s-4.64-.76-6.85.67" style="fill:#f2aa3c;stroke:#445064;stroke-linecap:round;stroke-linejoin:round;stroke-width:0.75px;fill-rule:evenodd"/><path d="M43.45,267.3a6.33,6.33,0,0,1,1.48-3.89" style="fill:#fff;stroke:#445064;stroke-linecap:round;stroke-linejoin:round;stroke-width:0.75px;fill-rule:evenodd"/><polygon points="52.76 243.64 103.05 220.78 101.33 219.58 51.04 242.44 52.76 243.64" style="fill:#e5e6e8;stroke:#445064;stroke-linecap:round;stroke-linejoin:round;stroke-width:0.75px"/><polygon points="51.04 286.26 52.77 287.48 52.77 243.65 51.04 242.43 51.04 286.26" style="fill:#9fa1a2;stroke:#445064;stroke-linecap:round;stroke-linejoin:round;stroke-width:0.75px"/><polygon points="52.77 287.48 103.06 264.62 103.06 220.79 52.77 243.64 52.77 287.48" style="fill:#ced0d1;stroke:#445064;stroke-linecap:round;stroke-linejoin:round;stroke-width:0.75px"/><polygon points="83.99 288.82 93.31 284.58 83.51 277.73 74.2 281.96 83.99 288.82" style="fill:#9fa1a2;stroke:#445064;stroke-linecap:round;stroke-linejoin:round;stroke-width:0.75px"/><polygon points="83.99 288.82 93.31 284.58 86.51 265.1 77.2 269.33 83.99 288.82" style="fill:#fff;stroke:#445064;stroke-linecap:round;stroke-linejoin:round;stroke-width:0.75px"/><line x1="120.66" y1="282.61" x2="120.66" y2="384.01" style="fill:#fff;stroke:#445064;stroke-linecap:round;stroke-linejoin:round;stroke-width:0.75px"/><line x1="62.63" y1="308.99" x2="62.63" y2="410.38" style="fill:#fff;stroke:#445064;stroke-linecap:round;stroke-linejoin:round;stroke-width:0.75px"/><line x1="19.01" y1="278.43" x2="19.01" y2="379.83" style="fill:#fff;stroke:#445064;stroke-linecap:round;stroke-linejoin:round;stroke-width:0.75px"/></g></g><path d="M866.66,84.84l47.79,33.46c6.74,4.72,6.12,11.38-1.39,14.89l-15.43,7.19c-7.51,3.5-8.13,10.17-1.38,14.89l46.08,32.26" style="fill:none;stroke:#445064;stroke-linecap:round;stroke-linejoin:round;stroke-width:1.5px;fill-rule:evenodd"/><line x1="896.14" y1="141.35" x2="844.96" y2="165.21" style="fill:none;stroke:#445064;stroke-linecap:round;stroke-linejoin:round;stroke-width:1.5px"/><path d="M946.25,186.53h0l.27,0a3,3,0,0,1,2.73,3.25,3,3,0,0,1-3,2.73H946a3,3,0,0,1-2.73-3.25,3,3,0,0,1,3-2.74m0-1.5a4.5,4.5,0,0,0-.38,9h.39a4.5,4.5,0,0,0,.39-9l-.4,0Z" style="fill:#445064"/><path d="M843,170.56h-.34a3.84,3.84,0,0,1-3.47-4.15,3.84,3.84,0,0,1,3.8-3.49l.34,0a3.74,3.74,0,0,1,2.6,1.35,3.82,3.82,0,0,1-2.93,6.28Z" style="fill:#425066;fill-rule:evenodd"/><path d="M843,163.59h.28A3.15,3.15,0,0,1,846.1,167a3.18,3.18,0,0,1-3.14,2.88l-.28,0a3.15,3.15,0,0,1,.27-6.28m0-1.35a4.5,4.5,0,0,0-.38,9l.39,0a4.5,4.5,0,0,0,.39-9Z" style="fill:#445064"/><path d="M863.83,78.84h.27a3,3,0,0,1,2.72,3.25,3,3,0,0,1-3,2.74l-.27,0a3,3,0,0,1,.26-6m0-1.5a4.5,4.5,0,0,0-.39,9l.4,0a4.5,4.5,0,0,0,.39-9Z" style="fill:#445064"/></g></g></svg>