<svg aria-hidden="true" class="tensorsite-content__image__play-button" height="96" width="96" xmlns="http://www.w3.org/2000/svg" xmlns:xlink="http://www.w3.org/1999/xlink"><defs><path d="M48 0C21.504 0 0 21.504 0 48s21.504 48 48 48 48-21.504 48-48S74.496 0 48 0z" id="b"></path><filter filterUnits="objectBoundingBox" height="175%" id="a" width="175%" x="-37.5%" y="-37.5%"><feOffset in="SourceAlpha" result="shadowOffsetOuter1"></feOffset><feGaussianBlur in="shadowOffsetOuter1" result="shadowBlurOuter1" stdDeviation="12"></feGaussianBlur><feColorMatrix in="shadowBlurOuter1" values="0 0 0 0 0 0 0 0 0 0 0 0 0 0 0 0 0 0 0.08 0"></feColorMatrix></filter><linearGradient id="c" x1="60.966%" x2="36.71%" y1="29.2%" y2="69.385%"><stop offset="0%" stop-color="#FF9100"></stop><stop offset="100%" stop-color="#FF6F00"></stop></linearGradient><linearGradient id="c" x1="60.966%" x2="36.71%" y1="29.2%" y2="69.385%"><stop offset="0%" stop-color="#FF9100"></stop><stop offset="100%" stop-color="#FF6F00"></stop></linearGradient><linearGradient id="c" x1="60.966%" x2="36.71%" y1="29.2%" y2="69.385%"><stop offset="0%" stop-color="#FF9100"></stop><stop offset="100%" stop-color="#FF6F00"></stop></linearGradient><path d="M48 0C21.504 0 0 21.504 0 48s21.504 48 48 48 48-21.504 48-48S74.496 0 48 0z" id="b"></path><path d="M48 0C21.504 0 0 21.504 0 48s21.504 48 48 48 48-21.504 48-48S74.496 0 48 0z" id="b"></path></defs><g fill="none" fill-rule="nonzero"><use fill="#000" filter="url(#a)" xlink:href="#b"></use><use fill="#FFFFFF" xlink:href="#b"></use><path d="M41 63V33l20 15z" fill="url(&quot;#c&quot;)"></path></g></svg>