<svg xmlns:xlink="http://www.w3.org/1999/xlink" xmlns="http://www.w3.org/2000/svg" width="132" height="29" viewBox="0 0 132 29"><defs><clipPath id="lgnua"><path fill="#fff" d="M.55 0h121.785C127.673 0 132 4.327 132 9.665v9.67c0 5.338-4.327 9.665-9.665 9.665H.55z"/></clipPath></defs><g><g><g><path fill="#fff" d="M.55 0h121.785C127.673 0 132 4.327 132 9.665v9.67c0 5.338-4.327 9.665-9.665 9.665H.55z"/><path fill="none" stroke="#f6f6f6" stroke-miterlimit="20" stroke-width="3.87" d="M.55 0v0h121.785C127.673 0 132 4.327 132 9.665v9.67c0 5.338-4.327 9.665-9.665 9.665H.55v0z" clip-path="url(&quot;#lgnua&quot;)"/></g><g><g><path fill="#929292" d="M32.805 12.257c.567 0 1.096-.012 1.625.005.283.009.412.143.46.424.11.845.278 1.689.417 2.537.006.035.014.069.031.154.055-.097.09-.149.115-.206.371-.818.743-1.636 1.11-2.455.096-.215.25-.409.437-.417.63-.03 1.219-.01 1.828-.01-.038.078-.07.15-.109.22-.976 1.775-1.954 3.55-2.935 5.327-.461.832-1.13 1.434-2.14 1.534-.644.06-1.225.01-1.868.01.079-.38.145-.818.224-1.22.066-.236.24-.344.497-.334.257.01.503.004.749 0 .641-.007 1.031-.504.858-1.097l-1.237-4.222c-.02-.072-.036-.142-.062-.25zM20.49 13.54h-.77c.085-.444.16-.86.28-1.294.168 0 .354-.008.54 0 .143.007.204-.036.227-.181.058-.39.143-.776.233-1.18.354 0 .712-.015 1.07.006.356.02.498.198.46.54-.027.26-.084.519-.128.804h1.065c-.085.452-.159.872-.238 1.305h-1.076c-.099.572-.209 1.146-.288 1.71-.036.267.135.44.462.498.15.027.306.036.49.057-.086.448-.16.89-.252 1.327-.009.044-.114.1-.17.096-.395-.025-.751-.025-1.11-.109-.885-.207-1.285-.827-1.125-1.695.095-.54.199-1.077.298-1.616.014-.08.02-.162.032-.268zm2.703 3.635l.893-4.893c.413 0 .81-.018 1.203.006.227.015.34.18.34.418-.006.193-.045.385-.064.538.267-.244.536-.524.85-.749.329-.236.743-.334 1.148-.273l-.286 1.584c-.277.023-.54.015-.785.07-.62.124-1.01.539-1.157 1.124A15.705 15.705 0 0 0 25 16.873a1.13 1.13 0 0 0-.098.302zm7.172-4.976a47.393 47.393 0 0 0-.225 1.529s-.14.012-.192.022c-.405.111-.663.362-.744.749-.09.424.06.777.425 1.045l.15.118s-.191 1.019-.273 1.488c-1.296-.35-2.109-1.587-1.884-2.865.26-1.486 1.667-2.204 2.743-2.086zm-.294 5.035c.078-.445.17-.872.247-1.302.012-.07.038-.201.038-.201.046-.005.092-.013.138-.023a.961.961 0 0 0 .738-.763c.085-.427-.056-.775-.425-1.036a.435.435 0 0 0-.105-.027s.179-1.079.298-1.53c.867.12 1.894 1.16 1.853 2.428-.054 1.699-1.615 2.624-2.782 2.454z"/></g></g><g><path fill="#929292" d="M108.297 19.866c.286-.066.528-.146.703-.24.22-.094.391-.216.534-.367l.085-.096c.113-.163.223-.304.33-.502l.246-.461-1.606-4.605H109l1.412 4.217 2.093-4.217h.411l-2.574 5.048c-.17.357-.342.61-.557.815-.2.206-.421.363-.662.472-.24.07-.5.193-.78.254zm-1.766-2.297c.246-.173.469-.422.575-.748.137-.326.205-.718.205-1.178 0-.568-.14-1.009-.42-1.323-.28-.32-.663-.471-1.15-.471-.34 0-.637.088-.89.262a1.706 1.706 0 0 0-.589.753c-.14.326-.21.719-.21 1.136 0 .616.137 1.057.411 1.365.274.308.67.462 1.187.462.35 0 .634-.086.88-.258zm-1.958.349a1.833 1.833 0 0 1-.68-.757c-.162-.323-.242-.705-.242-1.161 0-.493.088-.936.264-1.313.177-.377.422-.687.735-.883.35-.212.683-.318 1.11-.318.395 0 .739.09 1.03.267.293.179.52.433.68.762.162.33.243.714.243 1.155 0 .508-.088.95-.265 1.33a2.279 2.279 0 0 1-.74.877 2.01 2.01 0 0 1-1.095.312c-.401 0-.748-.09-1.04-.271zm-3.862.208l.289-3.28v-.626-.625h.35l.007.765.037-.067c.13-.211.303-.385.518-.521.3-.19.628-.286.98-.286.108 0 .108.002.197.005.058.003.117.01.178.023l-.054.335a.858.858 0 0 0-.156-.023 3.862 3.862 0 0 0-.2-.005c-.36 0-.649.084-.857.25a1.47 1.47 0 0 0-.5.616 2.238 2.238 0 0 0-.186.72l-.22 2.719zm-3.711 0L97.516 12h-2.391l.027-.326h5.167l-.028.326H97.9l-.493 6.126zm-9.233 1.74a3.62 3.62 0 0 0 .726-.24c.198-.094.368-.216.507-.367l.09-.096c.112-.163.222-.304.33-.502l.245-.461-1.606-4.605h.393l1.43 4.217L92 13.595h.386l-2.574 5.048a2.94 2.94 0 0 1-.557.815c-.2.206-.421.363-.662.472-.24.07-.5.193-.78.254zm-2.903-2.093c.554 0 .979-.123 1.274-.367.295-.245.442-.603.442-1.074 0-.43-.13-.752-.392-.97l-.093-.068C85.835 15.122 85.461 15 85 15h-2.128l-.217 2.773zm-1.961-3.108H85c.503 0 .922-.124 1.229-.372.307-.293.46-.605.46-1.07 0-.392-.134-.69-.405-.892-.284-.203-.671-.331-1.2-.331h-1.972zm-.659 3.461l.502-6.452h2.31c.444 0 .817.06 1.118.181.301.145.528.297.68.53.146.233.229.518.229.857 0 .392-.083.758-.315 1.014l-.097.117c-.172.187-.4.331-.671.434l-.112.033.112.032c.284.128.505.225.667.413.216.251.333.575.333.974 0 .393-.092.741-.26 1.006-.167.278-.41.491-.74.64-.31.147-.698.221-1.154.221zm-4.623-.888c.301-.393.452-.93.452-1.613 0-.574-.136-1.014-.406-1.318-.271-.307-.667-.458-1.173-.458-.494 0-.935.151-1.233.58-.261.386-.447.915-.447 1.571 0 .589.186 1 .415 1.352.277.316.665.475 1.164.475.517 0 .927-.196 1.228-.589zm-2.287.68c-.334-.182-.519-.435-.68-.761-.161-.327-.242-.71-.242-1.157 0-.502.09-.944.27-1.322.18-.378.429-.678.748-.88.32-.208.69-.312 1.11-.312.46 0 .83.115 1.14.345l.111.09c.141.079.209.276.34.45l.042.102.238-3.017h.365l-.53 6.67h-.365l.064-.815-.05.09c-.053.083-.113.16-.183.231a1.24 1.24 0 0 1-.616.368c-.237.142-.484.19-.74.19-.356 0-.73-.09-1.022-.272zM73.13 15.25a1.587 1.587 0 0 0-.31-.966 1.455 1.455 0 0 0-1.1-.463c-.591 0-1.043.179-1.356.608l-.099.14c-.124.193-.265.431-.265.66v.16h3.125zm-2.707 2.668a1.825 1.825 0 0 1-.703-.757c-.164-.323-.246-.705-.246-1.161 0-.493.09-.936.27-1.313.178-.377.433-.687.761-.883.329-.212.721-.318 1.178-.318.408 0 .754.085 1.04.254.277.17.498.422.635.757l.053.149c.094.354.117.68.07 1.115h-3.576l-.006.07c-.003.071-.005.169-.005.22 0 .538.106.949.406 1.291.27.324.7.485 1.21.485.273 0 .549-.045.825-.136.277-.09.531-.232.763-.426l.173.308a1.73 1.73 0 0 1-.776.427c-.328.134-.65.19-.967.19-.432 0-.8-.09-1.105-.272zM68 12.335v-.598h.625l-.055.598zm-3 5.791l.331-4.214h-.896l.018-.317h.904l.073-.933c.036-.435.17-.75.401-.948a1.23 1.23 0 0 1 .822-.294c.08 0 .16.008.242.023.105.015.169.032.26.05l-.036.362a1.291 1.291 0 0 0-.43-.073c-.152 0-.29.028-.415.082-.125.054-.274.136-.274.3l-.088.094a1.77 1.77 0 0 0-.117.53l-.064.807h2.629L68 18.126h-.361L68 13.912h-2.294l-.331 4.214zm-2.163 0l.366-4.531h.383l-.365 4.531zm.347-5.764l.046-.58h.584l-.046.58zm-3.423 5.764l.239-3.28c0-.206 0-.414.053-.626.006-.22.006-.42 0-.625h.347l.006.765.038-.067a1.41 1.41 0 0 1 .556-.521c.263-.19.59-.286.943-.286.057 0 .138.002.196.005.058.003.117.01.178.023l-.055.335a.857.857 0 0 0-.155-.023 3.398 3.398 0 0 0-.2-.005c-.36 0-.649.084-.907.25-.18.166-.343.371-.45.616a2.231 2.231 0 0 0-.186.72l-.22 2.719zm-1.41-2.876c-.001-.405-.105-.727-.351-.966-.224-.284-.591-.463-1.06-.463-.59 0-1.042.179-1.355.608l-.099.14a2.424 2.424 0 0 0-.278.66l-.035.16h3.173zm-2.707 2.668a1.825 1.825 0 0 1-.703-.757c-.164-.323-.246-.705-.246-1.161 0-.493.09-.936.305-1.313.144-.377.398-.687.726-.883.329-.212.721-.318 1.178-.318.408 0 .754.085 1.04.254.286.17.498.422.635.757l.053.149c.094.354.117.68.07 1.115h-3.576l-.006.07c-.003.071-.005.169-.005.22 0 .538.135.949.406 1.291.27.324.674.485 1.21.485.269 0 .549-.045.826-.136.276-.09.53-.232.762-.426l.173.308c-.189.188-.492.337-.776.427-.328.134-.65.19-.967.19-.432 0-.8-.09-1.105-.272zm-4.902.208l-2.282-6.452h.402L51 17.654l3-5.98h.43l-3.314 6.452z"/></g></g></g></svg>