<svg xmlns:xlink="http://www.w3.org/1999/xlink" xmlns="http://www.w3.org/2000/svg" width="17" height="20" viewBox="0 0 17 20"><g><g><g><path fill="#f4d7cb" d="M16.43.56L5.809 13 1.23 11.902A.856.856 0 0 1 1 10.324z"/></g><g><path fill="#f4d7cb" d="M16.432.56L12.5 18.75c-.153.706-1.053.929-1.499.376l-2.541-2.99L5.81 13z"/></g><g><g><path fill="#af5631" d="M8.46 16.143l-2.98 2.559L5.812 13z"/></g><g><path fill="#dc6d40" d="M12 18.633c-.103.25-.42.367-.586.133L6.551 13l8.861-10.374zm-5.879-1.227l.173-2.967 1.378 1.636zm-4.85-6.605L13.595 3c-.09.127-7.776 9.123-7.986 9.37l-4.243-1.012c-.266-.063-.365-.412-.093-.557zM16.135.088L.668 9.852c-1.073.677-.799 2.305.435 2.599l4.12.981-.304 5.233c-.03.496.556.779.93.458l2.549-2.188 2.153 2.554c.769.912 2.251.511 2.502-.619L17 .681c.093-.49-.45-.857-.866-.593z"/></g></g></g></g></svg>