<svg xmlns:xlink="http://www.w3.org/1999/xlink" xmlns="http://www.w3.org/2000/svg" width="135" height="40" viewBox="0 0 135 40"><g><g><g><path d="M0 10C0 4.477 4.477 0 10 0h115c5.523 0 10 4.477 10 10v20c0 5.523-4.477 10-10 10H10C4.477 40 0 35.523 0 30z"/></g><g><path fill="#fff" d="M96.077 17.469h1.843v12.236h-1.843zm9.772 0h1.843v12.236h-1.843zm-24.705 0H83v12.236h-1.856zm4.636 8.208l3.746-1.554c-.233-.483-.783-.887-1.526-.887-1.232 0-2.381 1.239-2.22 2.441zm5.604-1.605l.292.678-5.61 2.31c.334.619.876 1.257 2.052 1.257 1.047 0 1.675-.565 2.05-1.143l1.445.955C91 29 89.88 30 88.11 30 86 30 84 28.4 84 25.786c0-2.471 1.784-4.146 3.905-4.146 1.673 0 2.937 1.107 3.479 2.432zm-17.832 1.75c0 1.534 1.115 2.5 2.314 2.5 1.134 0 2.259-.894 2.259-2.515 0-1.595-1.125-2.53-2.234-2.53-1.18 0-2.34.95-2.34 2.545zM78 22.602V21.9h1.737v7.46c0 2.931-1.737 4.329-3.94 4.329-2.043 0-3.192-1.249-3.797-2.445l1.643-.667c.222.535.864 1.477 2.14 1.477 1.324 0 2.217-.858 2.217-2.29v-.818c-.485.539-1.119 1.055-2.31 1.055-1.93 0-3.979-1.703-3.979-4.203 0-2.193 1.768-4.148 4.016-4.148.98 0 1.717.351 2.273.954zm-11.305.673c-1.353 0-2.394 1.075-2.394 2.513 0 1.47 1.054 2.53 2.388 2.53 1.216 0 2.311-.994 2.311-2.518 0-1.558-1.1-2.524-2.305-2.525zm4.174 2.537c0 2.397-1.869 4.136-4.17 4.136-2.53 0-4.234-1.948-4.234-4.185 0-2.217 1.756-4.117 4.206-4.117 2.015 0 4.198 1.416 4.198 4.166zm-15.814-.024c0 1.47 1.054 2.53 2.388 2.53 1.216 0 2.353-.994 2.353-2.518 0-1.558-1.142-2.525-2.347-2.525-1.354 0-2.394 1.075-2.394 2.513zm6.568.024c0 2.397-1.877 4.136-4.17 4.136-2.53 0-4.234-1.948-4.234-4.185 0-2.217 1.781-4.117 4.206-4.117 2.014 0 4.198 1.416 4.198 4.166zm-9.274-2.894s.109.428.109 1.166c0 3.503-2.551 5.916-6.036 5.916-3.962 0-6.652-3.24-6.652-6.519 0-3.344 2.86-6.481 6.558-6.481 2.904 0 4.497 1.798 4.497 1.798l-1.24 1.275s-1.185-1.271-3.194-1.271c-2.603 0-4.68 2.05-4.68 4.71 0 2.733 2.179 4.681 4.675 4.681 1.951 0 4.018-1.05 4.228-3.516h-4.235V22.92h5.97z"/></g><g><path fill="#fff" d="M119.276 33.689l5.335-12.047h2.012l-5.335 12.047zM96.07 17.469h4.457c2.16 0 3.928 1.756 3.928 3.9 0 2.143-1.767 3.898-3.928 3.898H96.07zm1.842 1.83v4.14h2.615c1.144 0 2.086-.935 2.086-2.07 0-1.136-.942-2.07-2.086-2.07z"/></g><g><path fill="#fff" d="M73.933 6.32h.762l2.445 4.159v-4.16h.762V12h-.761l-2.446-4.128V12h-.762zM72.06 9.184C72.06 8 71.133 7.114 70 7.1c-1.204.014-2.131.9-2.131 2.084 0 1.198.974 2.056 2.131 2.07 1.086-.014 2.06-.872 2.06-2.07zm.88-.015C72.94 10.607 71.74 12 70 12c-1.81 0-3-1.393-3-2.831 0-1.48 1.286-2.85 3-2.85 1.642 0 2.94 1.37 2.94 2.85zM62.556 7.173H61V6.32h4v.853h-1.518V12h-.927zm-14.42-.853h2.977v.853h-2.2v1.576h1.935v.853h-1.936v1.577h2.2V12h-2.976zm5.49.853h-1.52V6.32h3.969v.853h-1.522V12h-.927zM59 6.32h1V12h-1zM47.143 9.436C47.143 11 45.946 12 44.311 12c-1.859 0-3.121-1.38-3.121-2.831 0-1.48 1.342-2.85 3.077-2.85 1.362 0 2.11.779 2.11.779l-.582.564s-.555-.563-1.498-.563c-1.222 0-2.196.901-2.196 2.084 0 1.209 1.021 2.07 2.193 2.07.916 0 1.886-.465 1.984-1.555H44.29V8.92h2.801s.051.189.051.516zm68.087 20.27v-.988c-.426.502-.944.89-1.602 1.068-1.169.316-2.628.214-3.46-.734-.555-.594-.733-1.569-.63-2.36.194-1.463 1.407-2.356 2.825-2.499.908-.09 1.903.085 2.822.327-.185-1.995-3.262-2.424-4.335-.52l-1.483-1c2.194-3.301 7.994-2.234 7.705 2.305v4.4zm-1.534-3.901c-3.167-.473-2.636 2.962-.506 2.386 1.009-.273 1.81-1.004 2.039-2.022-.515-.169-.99-.299-1.533-.364zm8.192 5.126l-4.114-9.29h2.012L122.624 28h-.736z"/></g><g><path fill="#0097fb" d="M8.937 7.51l11.537 11.98L9 31.572c-.344-.22-.523-.7-.526-1.32L8.37 8.806c-.003-.678.234-1.092.567-1.296z"/></g><g><path fill="#00b341" d="M10.25 7.53a1.364 1.364 0 0 0-.49-.16L21 19l3.278-3.51z"/></g><g><path fill="#ffbf00" d="M24.9 23.092l-3.47-3.604 3.466-3.648 4.775 2.708c1.175.667.574 1.452 0 1.828z"/></g><g><path fill="#ff2724" d="M10 31.579c0-.038.15-.087.255-.147l14.032-7.988L21 20z"/></g></g></g></svg>