<svg xmlns:xlink="http://www.w3.org/1999/xlink" xmlns="http://www.w3.org/2000/svg" width="76" height="55" viewBox="0 0 76 55"><g><g><g><path fill="#fff" d="M53.583 1.437c.925.92 1.417 2.168 1.417 3.47v7.785h11.372c.408 0 .785.22.984.574l8.5 15.127.051.102c.093.14.093.292.093.444v17.714c0 .62-.505 1.122-1.128 1.122h-5.761l-.056.71a7.067 7.067 0 0 1-3.693 5.659 7.142 7.142 0 0 1-6.783 0 7.066 7.066 0 0 1-3.693-5.658l-.056-.711H28.511l-.056.71a7.067 7.067 0 0 1-3.693 5.659 7.1 7.1 0 0 1-6.762 0 7.042 7.042 0 0 1-3.713-5.658l-.056-.711H9.67c-.671 0-1.128-.502-1.128-1.122V28.934c0-.62.457-1.121 1.128-1.121.622 0 1.127.501 1.127 1.121v16.599h3.864l.203-.461a7.136 7.136 0 0 1 3.833-3.706c1.714-.692 3.632-.692 5.302 0a7.024 7.024 0 0 1 3.876 3.705l.204.462h27.182l.204-.461a7.084 7.084 0 0 1 3.832-3.706 7.14 7.14 0 0 1 5.346 0 7.084 7.084 0 0 1 3.832 3.705l.204.462h5.065v-6.26h-3.492a1.125 1.125 0 0 1-1.127-1.122c0-.62.505-1.151 1.127-1.151h3.492v-7.769l-8.034-14.296H55v23.241c0 .62-.477 1.122-1.1 1.122a1.124 1.124 0 0 1-1.127-1.122V4.906c0-1.47-1.2-2.663-2.678-2.663H13.476a2.672 2.672 0 0 0-2.678 2.663v7.786H29.64c.623 0 1.128.502 1.128 1.121 0 .62-.505 1.122-1.128 1.122H1.128A1.124 1.124 0 0 1 0 13.813c0-.62.505-1.121 1.128-1.121h7.414V4.906c0-1.301.52-2.55 1.458-3.469A4.899 4.899 0 0 1 13.476 0h36.618c1.309 0 2.564.517 3.489 1.437zM17.936 44.505c-.936.906-1.423 2.135-1.423 3.416 0 1.282.487 2.51 1.423 3.416a4.871 4.871 0 0 0 6.87-.001 4.825 4.825 0 0 0 1.424-3.414c0-1.282-.512-2.51-1.423-3.417a4.869 4.869 0 0 0-3.435-1.415 4.871 4.871 0 0 0-3.436 1.415zm40.6 0a4.816 4.816 0 0 0 0 6.832A4.888 4.888 0 0 0 62 52.752a4.863 4.863 0 0 0 3.405-1.416 4.825 4.825 0 0 0 1.425-3.414c0-1.282-.512-2.51-1.423-3.417A4.852 4.852 0 0 0 62 43.09a4.889 4.889 0 0 0-3.464 1.415zM10.799 18.86v3.906h9.958c.623 0 1.128.503 1.128 1.122 0 .62-.505 1.112-1.128 1.112H4.115A1.106 1.106 0 0 1 3 23.888c0-.62.492-1.122 1.115-1.122h4.428V18.86c0-.62.457-1.121 1.128-1.121.623 0 1.128.502 1.128 1.121z"/></g></g></g></svg>