<svg xmlns:xlink="http://www.w3.org/1999/xlink" xmlns="http://www.w3.org/2000/svg" width="135" height="40" viewBox="0 0 135 40"><g><g><g><path d="M0 10C0 4.477 4.477 0 10 0h115c5.523 0 10 4.477 10 10v20c0 5.523-4.477 10-10 10H10C4.477 40 0 35.523 0 30z"/></g><g><path fill="#fff" d="M121.463 9.372a1.43 1.43 0 0 0-.21-.822c-.188-.298-.476-.446-.865-.446-.388 0-.643.145-.865.435-.184.242-.295.53-.322.833zm1.037.276c0 .193-.014.352-.04.487h-3.259c.015.475.17.865.472 1.089.276.224.631.337 1.067.337a3.63 3.63 0 0 0 1.317-.228l.17.743c-.463.199-1.008.298-1.64.298-.757 0-1.352-.22-1.784-.66-.433-.438-.647-1.027-.647-1.767 0-.726.2-1.33.602-1.813.422-.515.99-.772 1.71-.772.702 0 1.236.257 1.597.773.291.407.435.865.435 1.513zm-5.933 2.636h-1.087V9.547c0-.863-.328-1.296-.984-1.296-.496 0-.848.251-1.037.749a1.352 1.352 0 0 0-.05.388v2.895h-1.086V5.26h1.085v2.902h.02c.343-.528.833-.792 1.469-.792.45 0 .822.145 1.103.437.382.362.567.901.567 1.614zM109.62 8.27v2.34c0 .593.213.89.633.89.195.001.358-.016.485-.05l.028.813c-.215.08-.497.12-.845.12-.428 0-.762-.13-1.004-.384-.243-.26-.363-.694-.363-1.302V8.271h-.714V7.47h.714v-.883l1.065-.317v1.198h1.196v.803zm-6.115 4.013h-1.086V9.526c0-.85-.328-1.275-.986-1.275a.98.98 0 0 0-.783.351c-.201.233-.302.51-.302.825v2.856H99.26V8.845c0-.423-.013-.845-.04-1.378h.954l.051.753h.03c.129-.22.317-.427.563-.582.296-.179.624-.27.986-.27.456 0 .835.145 1.137.436.376.357.563.889.563 1.595zm-6.969-2.412c0-.445-.097-.872-.29-1.143-.245-.384-.553-.576-.976-.576-.436 0-.767.191-.997.576C94.077 9 94 9.433 94 9.89c0 .444.079.825.272 1.109.236.418.564.61.987.61.414 0 .741-.195.975-.61.2-.3.301-.685.301-1.128zm1.127-.035c0 .74-.215 1.347-.662 1.823-.432.489-1 .733-1.773.733-.716 0-1.287-.234-1.714-.704-.425-.469-.638-1.06-.638-1.773 0-.745.219-1.357.659-1.832.466-.475 1.03-.712 1.775-.712.691 0 1.294.233 1.691.702.454.456.662 1.043.662 1.763zm-10.419.416V9.45c0-.138-.01-.25-.03-.337a1.332 1.332 0 0 0-.393-.648 1.08 1.08 0 0 0-.726-.263c-.406 0-.723.16-.956.477-.231.321-.348.723-.348 1.218 0 .476.11.862.333 1.16.236.316.554.474.95.474.357 0 .642-.132.859-.396.209-.244.311-.538.311-.882zm1.127 2.031zm-.964 0l-.052-.773h-.03c-.324.588-.832.882-1.57.882-.588 0-1.078-.227-1.467-.683-.39-.456-.583-1.047-.583-1.773 0-.78.21-1.41.634-1.937a2.08 2.08 0 0 1 1.508-.63c.656 0 1.154.217 1.377.63h.02V5.26h1.087V11c0 .456.013.887.04 1.284zm-6.338-1.655v-.742c-1.2-.02-1.798.302-1.798.97 0 .25.069.439.208.565a.76.76 0 0 0 .522.188c.248 0 .47-.075.674-.223a.91.91 0 0 0 .394-.758zm1.128 1.655h-.975l-.082-.555h-.03c-.333.442-.81.664-1.427.664-.461 0-.835-.146-1.115-.393-.256-.306-.383-.634-.383-1 0-.612.249-1.06.75-1.37.5-.311 1.202-.463 2.066-.456v-.09c0-.634-.297-.951-1-.951-.456 0-.88.12-1.248.357l-.221-.703c.469-.277 1.015-.415 1.677-.415 1.277 0 1.918.628 1.918 1.99v1.774c0 .48.024.864.07 1.148zM75.81 9.872c0-.445-.098-.872-.291-1.143-.227-.384-.519-.576-.974-.576-.437 0-.769.191-.996.576-.195.271-.292.704-.292 1.162 0 .444.098.825.292 1.109.235.418.563.61.986.61.414 0 .74-.195.973-.61.203-.3.302-.685.302-1.128zm1.128-.035c0 .74-.215 1.347-.644 1.823-.45.489-1.047.733-1.79.733-.72 0-1.29-.234-1.715-.704-.425-.469-.638-1.06-.638-1.773 0-.745.219-1.357.659-1.832.44-.475 1.03-.712 1.773-.712.719 0 1.294.233 1.732.702.414.456.623 1.043.623 1.763zm-6.397 2.447h-1.085V5.26h1.085zm-2.996 0h-1.087V9.526c0-.85-.327-1.275-.984-1.275a.988.988 0 0 0-.785.351 1.232 1.232 0 0 0-.302.825v2.856h-1.086V8.845c0-.423-.014-.845-.04-1.378h.955l.051.753h.03c.126-.22.316-.427.563-.582.295-.179.624-.27.985-.27.456 0 .836.145 1.155.436.358.357.545.889.545 1.595zM61.913 7.47zm-1.53 4.814h-.994l-.634-2.09c-.158-.511-.289-1.03-.393-1.555h-.02a11.237 11.237 0 0 1-.393 1.554l-.672 2.091h-1.008L54.833 7.47h1.116l.553 2.288c.133.541.243 1.057.332 1.545h.019c.081-.402.215-.915.404-1.535l.693-2.298h.885l.665 2.25c.16.548.292 1.076.391 1.585h.03a16.21 16.21 0 0 1 .333-1.585l.593-2.25h1.065zm-7.742-2.412c0-.445-.097-.872-.291-1.143-.228-.384-.552-.576-.975-.576-.436 0-.768.191-.995.576-.196.271-.292.704-.292 1.162 0 .444.097.825.292 1.109.234.418.562.61.985.61.415 0 .74-.195.975-.61.201-.3.301-.685.301-1.128zm1.127-.035c0 .74-.214 1.347-.643 1.823-.45.489-1.047.733-1.791.733-.717 0-1.334-.234-1.715-.704-.425-.469-.619-1.06-.619-1.773 0-.745.2-1.357.64-1.832.44-.475 1.03-.712 1.775-.712.718 0 1.294.233 1.73.702.414.456.624 1.043.624 1.763zm-7.22-1.02c0-.817-.209-1.378-.627-1.817-.42-.393-1.032-.601-1.837-.601-.342 0-.633.022-.875.07v4.993c.134.02.379.03.735.03.831 0 1.472-.229 1.925-.684.451-.455.679-1.12.679-1.992zm1.146-.03c0 1.213-.366 2.107-1.096 2.714-.677.561-1.598.842-2.886.842-.618 0-1.147-.027-1.59-.08V5.696A12 12 0 0 1 44 5.556c1.181 0 2.076.255 2.68.763.675.576 1.014 1.397 1.014 2.468zm73.682 16.024c.015-.645-.13-1.203-.429-1.673-.382-.606-.947-.909-1.76-.909-.724 0-1.312.295-1.76.888-.368.47-.587 1.035-.654 1.693h4.603zm2.108.565c0 .39-.026.719-.081.988h-6.63c.025.968.346 1.709.961 2.219.56.417 1.266.685 2.17.685.98 0 1.877-.154 2.682-.463l.347 1.511c-.933.405-2.053.606-3.335.606-1.543 0-2.754-.447-3.598-1.34-.916-.894-1.357-2.095-1.357-3.582 0-1.496.41-2.727 1.23-3.708.858-1.048 2.018-1.572 3.477-1.572 1.434 0 2.52.524 3.257 1.571.583.833.877 1.863.877 3.085zm-9.886-2.522h.001zm-.696-.06c-.777 0-1.379.289-1.802.868-.367.51-.552 1.157-.552 1.936v5.142h-2.21l.021-6.74c0-1.104-.028-2.132-.082-3.06h1.925l.08 1.875h.062c.233-.645.601-1.162 1.105-1.552.492-.35 1.024-.525 1.551-.525.25 0 .435.015.598.04v2.076c-.23-.04-.462-.06-.696-.06zm-8.78 3.036c0-.904-.196-1.68-.594-2.326-.463-.782-1.126-1.172-1.984-1.172-.888 0-1.544.39-2.027 1.172-.396.647-.593 1.435-.593 2.366 0 .904.197 1.68.593 2.325.483.805 1.146 1.173 2.007 1.173.845 0 1.476-.368 1.985-1.194.407-.658.613-1.441.613-2.344zm2.292-.07c0 1.505-.414 2.743-1.31 3.71-.915.995-2.104 1.53-3.645 1.53-1.459 0-2.622-.515-3.459-1.47-.896-.953-1.33-2.157-1.33-3.609 0-1.518.447-2.762 1.33-3.73.903-.967 2.108-1.452 3.623-1.452 1.46 0 2.635.477 3.52 1.432.857.927 1.271 2.122 1.271 3.589zm-10.991-3.186H93v4.758c0 1.21.415 1.815 1.276 1.815.394 0 .724-.034.981-.147l.062 1.7c-.436.16-1.01.24-1.719.24-.873 0-1.6-.263-2.048-.786-.49-.525-.737-1.405-.737-2.642v-4.94h-1.45v-1.635h1.45v-1.795L93 18.497v2.44h2.423zm-8.534 7.177c-.889.794-2.15 1.19-3.758 1.19-1.484 0-2.674-.281-3.575-.846l.511-1.815c.933.576 2.07.877 3.195.868.833 0 1.48-.148 1.947-.555.463-.37.695-.867.695-1.486 0-.55-.192-1.016-.574-1.393-.38-.377-1.016-.714-1.903-1.051-2.427-.888-3.623-2.187-3.623-3.897 0-1.117.424-2.033 1.27-2.766.844-.694 1.926-1.05 3.378-1.05 1.255 0 2.298.215 3.131.645L87 19.37a5.855 5.855 0 0 0-2.61-.625c-.778 0-1.39.189-1.82.565-.368.336-.57.745-.57 1.23 0 .538.227.981.65 1.33.35.323 1.037.673 2.006 1.05 1.188.47 2.06 1.02 2.62 1.653.56.629.839 1.427.839 2.355 0 1.157-.408 2.072-1.226 2.823zM73.07 25.8c0-.954-.218-1.74-.655-2.36-.478-.645-1.118-.967-1.924-.967-.546 0-1.04.18-1.49.528a2.53 2.53 0 0 0-.863 1.408c-.06.217-.137.44-.137.664v1.634c0 .712.256 1.294.698 1.805.444.489 1.02.737 1.731.737.833 0 1.48-.317 1.944-.948.465-.632.696-1.465.696-2.5zm2.252-.08c0 1.667-.457 2.984-1.372 3.951-.818.862-1.835 1.33-3.05 1.33-1.31 0-2.251-.502-2.823-1.43H68v5.164h-2.176V24.166a64.29 64.29 0 0 0-.082-3.226h1.944l.123 1.553h.042c.735-1.17 1.855-1.755 3.357-1.755 1.172 0 2.152.457 2.938 1.37.783.892 1.175 2.119 1.175 3.612zm-13.693.08c0-.954-.219-1.74-.628-2.36-.506-.645-1.147-.967-2-.967-.497 0-1 .18-1.436.528-.442.36-.749.855-.87 1.408-.06.217-.094.44-.102.664v1.634c0 .712.222 1.294.665 1.805.444.489 1.021.737 1.743.737.82 0 1.468-.317 1.93-.948.465-.632.698-1.465.698-2.5zm2.252-.08c0 1.667-.458 2.984-1.372 3.951-.82.862-1.836 1.33-3.05 1.33-1.31 0-2.252-.502-2.826-1.43h-.04v5.164h-2.21V24.166a64.29 64.29 0 0 0-.083-3.226h1.944l.123 1.553h.042c.737-1.17 1.855-1.755 3.357-1.755 1.173 0 2.153.457 2.936 1.37.786.892 1.179 2.119 1.179 3.612zm-15.455-.646l-1.166-3.55c-.123-.362-.355-1.215-.696-2.523h-.041a187.39 187.39 0 0 1-.656 2.524l-1.145 3.549zm4.033 5.667h-2.354l-1.29-3.992H44.33l-1.228 3.992H40.81l4.441-13.592H48z"/></g><g><path fill="#fff" d="M22.93 10.413c.881-1.094 1.484-2.582 1.317-4.093-1.247.055-2.871.876-3.79 1.946-.812.943-1.539 2.488-1.35 3.942 1.432.106 2.893-.718 3.823-1.795zm3.972 11.318c-.03-3.226 2.66-4.796 2.784-4.869-1.524-2.205-3.885-2.507-4.686-2.53-2-.207-3.937 1.178-4.948 1.178-1.052 0-2.586-1.158-4.263-1.124-2.158.032-4.176 1.273-5.284 3.199-2.285 3.927-.58 9.698 1.608 12.873 1.095 1.542 2.375 3.29 4.05 3.229 1.639-.067 2.25-1.037 4.229-1.037 1.959 0 2.534 1.037 4.242.998 1.759-.028 2.866-1.562 3.923-3.13 1.265-1.782 1.773-3.518 1.793-3.627-.04-.014-3.415-1.292-3.448-5.16z"/></g></g></g></svg>