<svg xmlns:xlink="http://www.w3.org/1999/xlink" xmlns="http://www.w3.org/2000/svg" width="24" height="25" viewBox="0 0 24 25"><g><g><path fill="#dc6d40" d="M14.857 21.429c0 1.972 1.535 3.571 3.429 3.571s3.428-1.599 3.428-3.571c0-1.973-1.534-3.572-3.428-3.572s-3.429 1.599-3.429 3.572zm1.997-.057c0-.8.664-1.49 1.432-1.49.816 0 1.431.69 1.431 1.49s-.664 1.491-1.431 1.491c-.817 0-1.432-.691-1.432-1.49zm-9.997.057C6.857 23.4 8.343 25 10.286 25c1.894 0 3.428-1.599 3.428-3.571 0-1.973-1.534-3.572-3.428-3.572s-3.429 1.599-3.429 3.572zm1.997-.057c0-.8.615-1.49 1.432-1.49.816 0 1.431.69 1.431 1.49s-.664 1.491-1.431 1.491c-.817 0-1.432-.691-1.432-1.49zM0 1.094c0 .597.46 1.089 1 1.089h2.51L7 16c.17.342.576.667 1 .667h11.834c.41 0 .817-.273.968-.667L24 5.664c.14-.664-.256-1.414-1-1.414H10.577c-.577 0-1.017.492-1.017 1.09 0 .596.44 1.088 1.017 1.088h11.036l-2.492 8.113H8.754L5.244.764C5.143.272 4.737 0 4.278 0H1C.46 0 0 .497 0 1.094z"/></g></g></svg>