<svg xmlns:xlink="http://www.w3.org/1999/xlink" xmlns="http://www.w3.org/2000/svg" width="132" height="29" viewBox="0 0 132 29"><defs><clipPath id="sveya"><path fill="#fff" d="M0 0h131.48v29H0z"/></clipPath></defs><g><g><g><path fill="#fff" d="M0 0h131.48v29H0z"/><path fill="none" stroke="#f6f6f6" stroke-miterlimit="20" stroke-width="3.87" d="M0 0v0h131.48v29H0v0z" clip-path="url(&quot;#sveya&quot;)"/></g><g><path fill="#929292" d="M14 16.332l-1 1.17c-.053.072-.155.082-.229.025l-.717-.581c-.054-.028-.054-.04-.12-.032-.042.006-.08.031-.104.086l-.144.192a.186.186 0 0 0 .032.245l1.12.914c.073.058.162.047.237-.024l1.352-1.574a.19.19 0 0 0-.008-.251l-.175-.18a.148.148 0 0 0-.114-.046c-.043.001-.13.022-.13.056zm-5.112-4.467C8.446 12 8 12 7.533 12h-.042c-.044 0-.094 0-.112.14l-.039 2.426c0 2.3 2.576 4.434 3.22 4.434.371-.058.713-.249.986-.525l.017-.017a.083.083 0 0 0-.007-.11c-.17-.348-.26-.659-.259-1.016-.022-1.054.769-1.927 1.767-1.952.161-.003.322.021.476.073a.092.092 0 0 0 .09-.003.103.103 0 0 0 .05-.08l.042-.198c.037-.172.056-.401.057-.605l-.009-2.294-.005-.13C13.74 12 13.645 12 13.599 12h-.236a3.24 3.24 0 0 1-.931-.134c-.839-.27-1.585-.996-1.871-.996-.287 0-.833.728-1.673.995z"/></g><g><path fill="#929292" d="M124 15.249c0-.405-.123-.727-.33-.966a1.523 1.523 0 0 0-1.1-.463c-.57 0-1.041.18-1.355.608l-.098.14a2.69 2.69 0 0 0-.279.66l-.034.16H124zm-2.725 2.668a2.039 2.039 0 0 1-.703-.757c-.165-.323-.247-.705-.247-1.16 0-.494.09-.937.27-1.314.18-.377.405-.686.762-.884.328-.211.721-.317 1.177-.317.408 0 .755.085 1.041.254.286.17.498.421.634.757l.053.149c.094.355.118.68.07 1.115h-3.576l-.005.07c-.004.071-.006.17-.006.17 0 .587.136 1 .406 1.341.271.324.674.485 1.21.485.274 0 .55-.045.826-.136.277-.09.531-.232.762-.426l.174.308a1.74 1.74 0 0 1-.776.428 2.62 2.62 0 0 1-.968.188c-.432 0-.8-.09-1.104-.271zm-3.889.208l.265-3.28c.012-.206.021-.414.027-.626.006-.219.006-.42 0-.625H118v.765l.069-.067a1.6 1.6 0 0 1 .517-.521c.302-.19.629-.286.982-.286.073 0 .138.002.196.005.058.003.117.01.178.022l-.055.336a.817.817 0 0 0-.155-.023 3.787 3.787 0 0 0-.2-.005c-.36 0-.649.083-.868.25a1.53 1.53 0 0 0-.488.616 1.826 1.826 0 0 0-.176.72l-.23 2.719zm-4.67-.376c-.276-.293-.39-.749-.342-1.31l.229-2.845H113l-.251 2.818c-.043.484.035.842.251 1.074.18.233.485.349.899.349.48 0 .869-.147 1.164-.44.295-.292.464-.699.506-1.218l.201-2.583h.375l-.357 4.531h-.365l.062-.834-.001.002c-.127.24-.3.434-.484.583a1.981 1.981 0 0 1-1.074.312c-.53 0-.926-.188-1.21-.439zm-4.102.168a1.833 1.833 0 0 1-.68-.757c-.162-.323-.242-.705-.242-1.16 0-.494.088-.937.308-1.314.133-.377.387-.686.719-.884.331-.211.725-.317 1.182-.317.31 0 .602.055.876.163.274.109.508.257.703.444l-.2.318c-.28-.2-.483-.345-.7-.41a1.52 1.52 0 0 0-.734-.161c-.56 0-.992.161-1.296.593-.305.396-.457.932-.457 1.568 0 .584.136 1 .406 1.341.271.324.671.485 1.2.485.25 0 .479-.045.685-.136.207-.09.43-.232.667-.426l.155.308c-.206.188-.41.337-.68.428-.27.133-.526.188-.872.188-.401 0-.748-.09-1.04-.271zm-2.204-2.668c-.002-.405-.105-.727-.311-.966A1.457 1.457 0 0 0 105 13.82c-.592 0-1 .18-1.357.608l-.099.14a2.44 2.44 0 0 0-.278.66l-.035.16h3.173zm-2.708 2.668a1.82 1.82 0 0 1-.702-.757c-.165-.323-.247-.705-.247-1.16 0-.494.09-.937.247-1.314.202-.377.456-.686.785-.884.328-.211.72-.317 1.215-.317.37 0 .717.085 1 .254.289.17.5.421.637.757l.053.149c.094.355.117.68.07 1.115h-3.576l-.005.07c-.004.071-.006.17-.006.17 0 .587.135 1 .406 1.341.271.324.674.485 1.21.485.273 0 .549-.045.826-.136.277-.09.53-.232.762-.426l.174.308a1.741 1.741 0 0 1-.776.428 2.552 2.552 0 0 1-.968.188c-.432 0-.807-.09-1.105-.271zM98.175 18a3.51 3.51 0 0 1-1.072-.672L97.33 17c.328.3.669.51 1.004.64.34.13.73.195 1.168.195.615 0 1.08-.122 1.397-.367.316-.244.475-.575.475-.992 0-.248-.07-.476-.21-.603a1.807 1.807 0 0 0-.553-.376 5.726 5.726 0 0 0-.748-.254c-.27-.072-.543-.15-.864-.243a3.988 3.988 0 0 1-.706-.318 1.604 1.604 0 0 1-.548-.517c-.137-.165-.205-.483-.205-.816 0-.349.093-.657.278-.92.181-.263.447-.429.785-.611.338-.145.735-.218 1.191-.218.445 0 .859.074 1.205.222.42.178.755.364 1 .648l-.178.317a3.43 3.43 0 0 0-.954-.616c-.332-.171-.686-.171-1.063-.171-.615 0-1.08.088-1.397.339-.317.25-.475.59-.475 1.02 0 .271.067.492.21.641.14.189.324.327.552.432.229.106.48.196.754.272.273.076.551.154.821.235.274.061.525.184.73.304.251.121.434.28.57.476.138.197.206.448.206.757 0 .35-.093.654-.278.91-.186.258-.498.457-.79.614-.34.127-.708.198-1.196.198-.512 0-.956-.07-1.337-.198zm-7.435-.22c.919 0 1.61-.28 2.072-.842.463-.562.694-1.341.694-2.338 0-.846-.21-1.488-.63-1.926-.42-.438-1.065-.674-1.935-.674h-1.589l-.456 5.78zm-2.255.345L89 11.673h1.932c.657 0 1.208.113 1.652.327.416.24.779.571 1.004 1 .225.447.338 1 .338 1.609 0 .73-.123 1.391-.37 1.885-.246.506-.607.929-1.082 1.21-.474.296-1.055.421-1.743.421zM83.734 18a3.516 3.516 0 0 1-.954-.663L83 17c.294.291.6.494.907.627.308.133.638.2.99.2.512 0 .918-.13 1.22-.39.3-.26.451-.635.451-1.124 0-.43-.135-.751-.406-.965-.27-.215-.67-.348-1.162-.348h-.686l.027-.337H85c.476 0 .896-.142 1.212-.426.317-.237.475-.661.475-1.132 0-.345-.119-.621-.356-.83-.237-.208-.55-.275-.94-.275-.391 0-.68 0-1 .158-.32.13-.643.333-.972.611l-.155-.317c.268-.266.589-.452.963-.62a3.306 3.306 0 0 1 1.136-.232c.353 0 .637.062.913.186.256.124.454.3.593.53.131.23.21.501.21.816 0 .398-.079.761-.374 1.087l-.097.117c-.17.187-.375.332-.608.434l-.143.053c.326.082.586.214.78.47.222.257.363.588.363.993 0 .386-.118.714-.295 1.006-.176.283-.421.504-.705.708-.343.11-.71.189-1.13.189-.401 0-.78-.073-1.136-.189zm-5.87-.582l.136-.11c.078-.076.157-.16.23-.251l.067-.057-1.852-2.226-.091.061c-.354.224-.609.43-.804.617-.195.187-.333.37-.415.548-.082.178-.135.37-.135.576 0 .424.155.693.44.92.287.226.67.339 1.15.339.494 0 .918-.139 1.274-.417zm-1.273-3.188c.199-.137.409-.23.502-.369.237-.19.403-.362.497-.516a1 1 0 0 0 .142-.494c0-.266-.084-.479-.251-.64-.167-.16-.388-.211-.662-.211-.31 0-.557.06-.74.234-.182.176-.273.405-.273.69 0 .132.02.26.06.38.039.12.134.257.218.408.085.12.197.288.335.443l.099.125zm3.167 3.968c-.286-.198-.537-.336-.758-.517l-.149-.133a5.105 5.105 0 0 1-.262-.25l-.053-.055c-.23.29-.502.515-.813.678-.34.179-.723.267-1.141.267-.39 0-.732-.067-1.027-.188-.295-.151-.555-.342-.69-.586a1.483 1.483 0 0 1-.246-.848c0-.241.047-.47.142-.684.094-.214.239-.427.46-.639l.138-.128c.194-.175.438-.358.73-.552l.112-.073c-.219-.24-.355-.445-.473-.615a2.156 2.156 0 0 1-.264-.494 1.404 1.404 0 0 1-.078-.467c0-.266.06-.497.178-.693.119-.221.286-.347.502-.453.216-.106.47-.159.762-.159.402 0 .721.107.959.322.213.215.356.509.356.883 0 .186-.05.437-.143.622a1.856 1.856 0 0 1-.546.564l-.118.134c-.124.1-.268.207-.432.324l-.149.104 1.747 2.08.025-.045a3.46 3.46 0 0 0 .159-.361c.192-.51.314-1.113.314-1.808h.375a6.117 6.117 0 0 1-.21 1.572l-.071.198c-.094.22-.166.424-.27.61l-.076.128.025.064c.14.122.312.285.515.455.204.169.443.329.712.48zm-12.15-.073l.503-6.452h.383L68 17.78h3.47l-.028.344zM62.803 18a3.51 3.51 0 0 1-1.072-.672L62 17c.287.3.621.51 1 .64.303.13.692.195 1.13.195.615 0 1.08-.122 1.397-.367.317-.244.473-.575.473-.992 0-.248-.068-.476-.208-.603a1.55 1.55 0 0 0-.552-.376 6.38 6.38 0 0 0-.749-.254c-.27-.072-.543-.15-.817-.243a3.24 3.24 0 0 1-.753-.318 1.604 1.604 0 0 1-.548-.517c-.137-.165-.205-.483-.205-.816 0-.349.093-.657.278-.92.186-.263.448-.429.785-.611.338-.145.769-.218 1.192-.218.444 0 .858.074 1.241.222.336.178.718.364 1.004.648l-.219.317a3.433 3.433 0 0 0-.954-.616C65.164 12 64.81 12 64.432 12c-.615 0-1.08.088-1.432.339-.281.25-.44.59-.44 1.02 0 .271.07.492.21.641.14.189.324.327.553.432.228.106.479.196.753.272.274.076.547.154.821.235.274.061.525.184.753.304.229.121.411.28.548.476.137.197.206.448.206.757 0 .35-.093.654-.279.91-.186.258-.449.457-.79.614-.335.127-.739.198-1.195.198A4.18 4.18 0 0 1 62.802 18zm-5.513 0a3.51 3.51 0 0 1-1.073-.672l.228-.328c.329.3.664.51 1.004.64.341.13.73.195 1.169.195.615 0 1.08-.122 1.383-.367.33-.244.488-.575.488-.992 0-.248-.07-.476-.21-.603a1.227 1.227 0 0 0-.552-.376 6.752 6.752 0 0 0-.726-.254c-.293-.072-.566-.15-.84-.243a3.24 3.24 0 0 1-.753-.318 1.634 1.634 0 0 1-.547-.517c-.137-.165-.206-.483-.206-.816 0-.349.093-.657.279-.92.185-.263.447-.429.785-.611.338-.145.735-.218 1.191-.218.444 0 .858.074 1.242.222.383.178.718.364 1.004.648l-.22.317a3.638 3.638 0 0 0-.935-.616C59.65 12 59.295 12 58.918 12c-.614 0-1.08.088-1.396.339-.317.25-.522.59-.522 1.02 0 .271.117.492.257.641.14.189.324.327.552.432.191.106.48.196.753.272.274.076.548.154.822.235.274.061.525.184.753.304.228.121.41.28.548.476.136.197.205.448.205.757 0 .35-.093.654-.278.91-.186.258-.45.457-.79.614-.34.127-.74.198-1.196.198A4.18 4.18 0 0 1 57.29 18zm-5.496-.11l-.073-.078c-.157-.196-.222-.484-.196-.865l.236-3.036h-.902l.018-.317h.908l.096-1.233.384-.163-.108 1.396h1.395l-.028.317h-1.392l-.223 2.9c-.019.278.001.49.092.634 0 .145.116.245.24.3.125.054.273.081.443.081.086 0 .168-.006.247-.018a1.57 1.57 0 0 0 .246-.063l-.018.362a1.573 1.573 0 0 1-.255.055c-.086.011-.18.018-.283.018-.341 0-.62-.097-.827-.29zm-2.533.235l.365-4.531H50l-.356 4.531zm.347-5.764l.046-.58h.584l-.046.58zm-3.788 5.41c.554 0 .978-.122 1.273-.366.295-.245.443-.603.443-1.074 0-.43-.13-.752-.393-.97L47 15.292c-.21-.171-.585-.292-1.072-.292h-2.101l-.217 2.771zm-1.962-3.108h2.071c.53 0 .948-.123 1.256-.371.307-.292.46-.604.46-1.07 0-.392-.135-.69-.406-.892C47 12.127 46.568 12 46 12h-1.934zm-.658 3.462l.502-6.452H46c.455 0 .828.06 1.129.181.301.146.528.297.68.53.191.233.191.518.191.856 0 .393-.068.76-.278 1.015l-.096.117c-.172.187-.4.331-.682.434l-.102.033.158.031c.239.13.46.226.622.414.216.25.324.575.324.974 0 .393-.084.742-.251 1.006-.168.278-.411.49-.695.64a3.05 3.05 0 0 1-1.2.221zm-4.738-.512c.25-.148.445-.353.539-.613.185-.266.255-.57.255-.914 0-.471-.149-.85-.447-1.137-.298-.287-.694-.43-1.187-.43-.328 0-.621.073-.88.221a1.59 1.59 0 0 0-.607.612c-.134.26-.22.56-.22.897 0 .472.156.854.466 1.147.31.292.715.439 1.214.439.329 0 .618-.074.867-.222zm-2.52-.127c-.389-.486-.583-1.146-.583-2.016 0-.785.108-1.47.324-2.048.216-.58.518-1.029.908-1.346A2.18 2.18 0 0 1 38 11.6c.327 0 .677.073 1 .218.359.182.67.356.95.634l-.22.317a3.538 3.538 0 0 0-.876-.598C38.556 12 38.257 12 38 12c-.662 0-1.164.22-1.547.737l-.1.147c-.353.508-.518 1.203-.585 2.116l-.033.402.048-.115c.055-.117.12-.226.217-.287a1.55 1.55 0 0 1 .686-.64c.314-.142.598-.214.945-.214.369 0 .772.08 1.077.24.292.16.538.387.703.68.164.293.246.637.246 1.03 0 .404-.09.765-.27 1.082-.179.317-.387.567-.734.748-.31.18-.653.272-1.059.272-.712 0-1.263-.198-1.652-.712zM30.913 18c-.353-.174-.666-.385-.912-.663l.182-.337c.31.291.617.494.922.627.304.133.62.2.95.2.522 0 .946-.167 1.259-.5.316-.327.475-.773.475-1.327 0-.442-.137-.802-.411-1.074-.274-.272-.627-.407-1.06-.407-.317 0-.69.075-.976.226-.286.151-.523.38-.712.689h-.365l.292-3.761h3.752L34.28 12h-3.35l-.22 2.853.058-.071c.14-.157.314-.288.523-.395.313-.16.643-.24.99-.24.384 0 .719.077 1.004.23.287.155.509.371.715.623.11.304.19.63.19 1 0 .434-.092.811-.275 1.137a2 2 0 0 1-.762.77c-.325.188-.701.281-1.153.281-.364 0-.735-.072-1.088-.188zm-6.472.125l.018-.29 2.542-2.6c.303-.235.527-.54.694-.767.168-.226.306-.468.36-.656.074-.212.11-.43.11-.653 0-.363-.164-.653-.346-.87-.232-.218-.54-.289-.922-.289-.366 0-.708 0-1.027.158-.32.13-.644.333-.973.611l-.155-.317c.259-.266.589-.452.963-.62.375-.149.75-.226 1.128-.232.53-.006.949.131 1.26.4.31.293.465.673.465 1.15 0 .26-.044.515-.132.766-.089.25-.229.509-.425.774l-.118.163a8.32 8.32 0 0 1-.63.708L25 17.78h3.493l-.027.344z"/></g></g></g></svg>