<svg xmlns:xlink="http://www.w3.org/1999/xlink" xmlns="http://www.w3.org/2000/svg" width="20" height="20" viewBox="0 0 20 20"><g><g><g><path fill="#3b3b3b" d="M1.68 7.843c0-3.396 2.796-6.157 6.226-6.157 3.431 0 6.227 2.76 6.227 6.157 0 3.397-2.796 6.157-6.227 6.157-3.43 0-6.225-2.764-6.225-6.157zm18.068 10.732L14 12.827a7.718 7.718 0 0 0 1.821-4.988C15.821 3.516 12.276 0 7.915 0S0 3.52 0 7.843c0 4.324 3.545 7.84 7.906 7.84 1.853 0 3.558-.683 4.91-1.683l5.76 5.748a.807.807 0 0 0 1.172 0 .809.809 0 0 0 0-1.173z"/></g></g></g></svg>