<svg xmlns:xlink="http://www.w3.org/1999/xlink" xmlns="http://www.w3.org/2000/svg" width="44" height="57" viewBox="0 0 44 57"><g><g><g><path fill="#fff" d="M18.228 1.693a8.014 8.014 0 0 1 7.544 0l13.3 7.1a7.92 7.92 0 0 1 3.053 2.894 7.82 7.82 0 0 1 1.125 4.037v16.874c0 4.457-2.194 8.602-6.882 13.035l-.498.464c-2.013 1.85-4.31 3.632-7.706 6.048l-3.403 2.385-2.211 1.546a.954.954 0 0 1-1.098 0L17.6 53.394c-5.047-3.539-7.476-5.393-9.969-7.76C2.944 41.201.75 37.056.75 32.598V15.724a7.82 7.82 0 0 1 1.125-4.037 7.92 7.92 0 0 1 3.053-2.895zm.9 1.66l-13.3 7.1c-.96.547-1.763 1.274-2.323 2.202a5.95 5.95 0 0 0-.855 3.068v16.875c0 3.9 1.99 7.604 6.285 11.666l.484.451C12 47.111 15.072 49.375 20.329 53L22 54.15l4.122-2.878c4.137-2.91 6.7-4.89 8.936-7.008 4.3-4.067 6.292-7.77 6.292-11.666V15.724a5.95 5.95 0 0 0-.855-3.07c-.56-.927-1.363-1.654-2.324-2.2l-13.3-7.1a6.103 6.103 0 0 0-5.742 0zM32.25 19.932a.955.955 0 0 1 1.342.015c.408.372.408.971-.015 1.336l-14.7 14.185a.956.956 0 0 1-.675.263.95.95 0 0 1-.674-.329L10.536 27.3a.939.939 0 0 1-.313-.718c.005-.274.13-.581.342-.706a.953.953 0 0 1 .757-.207c.271.042.51.2.678.4l6.313 7.344z"/></g></g></g></svg>