<svg xmlns:xlink="http://www.w3.org/1999/xlink" xmlns="http://www.w3.org/2000/svg" width="64" height="55" viewBox="0 0 64 55"><g><g><g><path fill="#fff" d="M47.208.137a3.283 3.283 0 0 1 1.866 1.443l14.618 23.645c.232.48.308 1.09.308 1.696v.962a3.524 3.524 0 0 1-1.498 2.007l-13.85 8.713v13.03c0 .893-.351 1.75-.978 2.367-.674.646-1.475 1-2.36 1H3.339A3.196 3.196 0 0 1 1 54a3.256 3.256 0 0 1-1-2.367v-27.83c0-.89.36-1.744 1-2.376a3.293 3.293 0 0 1 2.343-.992h9.414L44.479.503C45.23 0 46.137-.111 47 .082zM2 23.802v27.782c0 .752.589 1.363 1.338 1.363h18.77l6.306.053h16.9c.36 0 .686-.148.959-.404.253-.256.396-.596.396-.963v-27.83c-.028-.803-.605-1.335-1.326-1.363H3.338c-.75 0-1.338.61-1.338 1.362zm40.738 23.922c.185.186.262.442.262.707 0 .569-.423 1.012-1 1.012H6.13a.994.994 0 0 1-.992-1.003.997.997 0 0 1 .992-1.002H42c.301-.003.553.1.738.286zm2.842-45.53l-.157.076L16.5 20.435h28.72c.88.005 1.727.362 2.353.992.626.631.98 1.486.986 2.38v12.4l12.904-8.037c.298-.17.537-.476.592-.795l.028-.166c.017-.209-.083-.516-.171-.74L47.28 2.8l-.086-.126c-.195-.28-.54-.465-.896-.51l-.038-.004-.034-.01a1.223 1.223 0 0 0-.647.044zM14.653 32.34a.984.984 0 0 1-.38.784.913.913 0 0 1-.6.218H6.129a.998.998 0 0 1-.992-1.002.997.997 0 0 1 .992-1.003h7.532c.548 0 .992.449.992 1.003zm28.741-6.652a.983.983 0 0 1 .285.706v3.037a.987.987 0 0 1-.992 1.002h-3.966a1.004 1.004 0 0 1-.992-1.013v-3.016a.997.997 0 0 1 .992-1.002h3.976a.9.9 0 0 1 .697.286zm-28.74.716a.99.99 0 0 1-.285.717.964.964 0 0 1-.697.286H6.129a.971.971 0 0 1-.992-1.003.997.997 0 0 1 .992-1.002h7.532c.548 0 .992.448.992 1.002z"/></g></g></g></svg>