<svg xmlns:xlink="http://www.w3.org/1999/xlink" xmlns="http://www.w3.org/2000/svg" width="132" height="29" viewBox="0 0 132 29"><defs><clipPath id="xmcja"><path fill="#fff" d="M.52 0H132v29H.52z"/></clipPath></defs><g><g><g><path fill="#fff" d="M.52 0H132v29H.52z"/><path fill="none" stroke="#f6f6f6" stroke-miterlimit="20" stroke-width="3.87" d="M.52 0v0H132v29H.52v0z" clip-path="url(&quot;#xmcja&quot;)"/></g><g><path fill="#929292" d="M24.523 14.79c0 1.684-1.28 3.055-2.875 3.079a2.774 2.774 0 0 1-1.795-.672 4.08 4.08 0 0 0-.003-4.81c.509-.387 1.15-.675 1.798-.675 1.594.024 2.875 1.395 2.875 3.079zm-5.23-3.008A3.484 3.484 0 0 0 17 10.903c-2 0-3.7 1.742-3.7 3.89s1.65 3.89 3.7 3.89a3.468 3.468 0 0 0 2.298-.879c.702.586 1.487.908 2.346.908 2.052 0 3.715-1.712 3.715-3.921 0-2.166-1.663-3.92-3.715-3.92-.861-.001-1.694.322-2.35.91z"/></g><g><path fill="#929292" d="M114.626 18.125l.503-6.453H119V12h-3.506l-.21 2.672h3.34l-.027.328h-3.342L115 17.771h3.56l-.027.354zm-4.445-.344c.919 0 1.61-.281 2.072-.843.463-.562.694-1.341.694-2.338 0-.846-.21-1.488-.63-1.926-.42-.438-1.065-.674-1.935-.674h-1.589l-.456 5.78zm-2.255.344l.502-6.453h1.945c.627 0 1.208.114 1.627.328.47.239.804.571 1 1 .254.447.367 1 .367 1.609 0 .73-.124 1.391-.367 1.885-.25.506-.61.929-1.085 1.21-.474.296-1.056.421-1.743.421zm-2.843-.698c.374-.26.661-.63.862-1.11.201-.48.302-1.053.302-1.717 0-.84-.247-1.487-.608-1.94-.404-.453-.987-.66-1.748-.66-.517 0-.964.11-1.342.37-.377.26-.666.63-.867 1.11-.2.52-.301 1.056-.301 1.727 0 .793.204 1.484.619 1.935.4.45 1 .675 1.745.675.518 0 .963-.13 1.338-.39zm-2.83.408a2.412 2.412 0 0 1-.95-1.033c-.222-.447-.303-.982-.303-1.604 0-.731.09-1.367.33-1.908.241-.54.58-.957 1.019-1.29.438-.253.952-.4 1.542-.4.578 0 1.109.12 1.488.4.414.204.732.548.954 1 .222.443.333 1 .333 1.609 0 .73-.12 1.391-.36 1.903-.24.488-.58.953-1.018 1.246-.438.293-.955.44-1.552.44-.578 0-1.072-.121-1.483-.363zM96 17.839a2.298 2.298 0 0 1-.945-1.032c-.22-.45-.329-.987-.329-1.61 0-.73.12-1.366.361-1.907.24-.54.584-.957 1.032-1.29.447-.253.98-.4 1.602-.4.486 0 .926.072 1.279.217.432.183.765.363 1 .653l-.189.308a2.873 2.873 0 0 0-.936-.616C98.55 12 98.155 12 97.693 12c-.535 0-.995.102-1.378.361-.384.26-.677.639-.881 1.115-.204.524-.306 1.06-.306 1.731 0 .793.204 1.486.612 1.94.407.453.986.68 1.734.68.34 0 .683-.064 1.027-.191.344-.127.668-.336.972-.636l.174.328c-.31.29-.647.507-1.027.672a3.972 3.972 0 0 1-1.265.197c-.529 0-.99-.119-1.355-.358zm-2.756-2.59c-.002-.405-.105-.727-.311-.967a1.46 1.46 0 0 0-1.1-.462c-.59 0-1.042.18-1.356.608l-.099.14a2.442 2.442 0 0 0-.278.66l-.035.16h3.173zm-2.708 2.667a1.836 1.836 0 0 1-.702-.756c-.165-.324-.247-.705-.247-1.16 0-.494.09-.937.27-1.314a1.81 1.81 0 0 1 .762-.884c.328-.211.72-.317 1.177-.317.408 0 .755.084 1.04.254.287.169.498.421.635.757l.053.149c.094.355.117.68.07 1.115H90V16c0 .587.142 1 .413 1.34.271.324.674.486 1.21.486.274 0 .549-.045.826-.136.277-.09.551-.232.762-.426l.174.308a1.745 1.745 0 0 1-.776.428 2.404 2.404 0 0 1-.968.188c-.432 0-.8-.09-1.105-.271zm-3.888.209l.264-3.28c.013-.206.022-.414.028-.626.006-.219.006-.42 0-.625h.347l.005.765.039-.067c.13-.212.302-.386.517-.521.301-.19.628-.286.981-.286.073 0 .171.001.171.004.083.004.143.011.204.023l-.055.336c-.049-.013-.149-.02-.149-.023a4.3 4.3 0 0 0-.207-.005c-.36 0-.648.083-.867.25-.22.166-.382.37-.489.616a2.237 2.237 0 0 0-.187.72L87 18.125zM82 17.749c-.298-.293-.412-.749-.364-1.31l.228-2.845h.375L82 16.412c0 .484 0 .841.243 1.074.198.233.504.349.918.349.48 0 .839-.147 1.164-.44.295-.292.464-.699.506-1.218L85 13.594h.406l-.356 4.531h-.365l.06-.832-.081.138a1.593 1.593 0 0 1-.435.445 1.8 1.8 0 0 1-1.041.312c-.53 0-.933-.188-1.188-.439zm-4.125.168a1.83 1.83 0 0 1-.68-.757C77 16.836 77 16.455 77 16c0-.494 0-.937.218-1.314.177-.378.43-.686.782-.884.312-.211.706-.317 1.162-.317.31 0 .603.055.838.163.313.109.547.257.742.444l-.201.317c-.25-.199-.483-.344-.699-.409a1.52 1.52 0 0 0-.734-.162c-.56 0-.992.162-1.297.594-.304.396-.456.932-.456 1.568 0 .584.135 1 .406 1.34.239.324.671.486 1.239.486.211 0 .44-.045.646-.136.207-.09.43-.232.667-.426l.155.308a1.7 1.7 0 0 1-.68.428c-.271.133-.562.188-.872.188-.402 0-.749-.09-1.04-.271zm-2.203-2.669c-.002-.404-.106-.726-.312-.966a1.46 1.46 0 0 0-1.1-.462c-.59 0-1.042.18-1.355.608l-.099.14a2.442 2.442 0 0 0-.278.66l-.035.16h3.173zM73 17.916a1.698 1.698 0 0 1-.739-.756A2.517 2.517 0 0 1 72 16c0-.494.105-.937.284-1.314.18-.378.434-.686.716-.884a2.409 2.409 0 0 1 1.224-.317c.408 0 .776.084 1.04.254.287.169.498.421.635.757l.101.149c0 .355.07.68 0 1.115h-3.554l-.006.07-.005.17c0 .587.135 1 .406 1.34.27.324.674.486 1.21.486.273 0 .549-.045.826-.136.276-.09.53-.232.762-.426l.173.308c-.188.187-.447.337-.812.428a2.255 2.255 0 0 1-.931.188c-.432 0-.8-.09-1.069-.271zM67.437 18a3.52 3.52 0 0 1-1.073-.672l.228-.328c.33.3.664.51 1.005.64.34.13.73.195 1.168.195.615 0 1.08-.122 1.397-.367.316-.245.474-.575.474-.992 0-.248-.07-.476-.21-.603a1.545 1.545 0 0 0-.552-.376 5.66 5.66 0 0 0-.748-.254c-.271-.073-.543-.15-.817-.243a2.708 2.708 0 0 1-.753-.319 1.698 1.698 0 0 1-.556-.516c-.13-.165-.198-.484-.198-.816 0-.349.093-.657.279-.92.185-.263.447-.429.785-.612.338-.145.735-.217 1.191-.217.444 0 .858.074 1.242.222.383.178.701.364 1.004.648l-.22.317a3.42 3.42 0 0 0-.953-.616C69.798 12 69.444 12 69.066 12c-.614 0-1.066.088-1.396.338-.317.251-.475.591-.475 1.02 0 .272.07.493.21.642.14.189.324.326.595.432.185.106.436.196.71.272.29.075.548.154.822.235.274.061.525.183.753.304.228.12.41.28.548.476.167.196.167.448.167.757 0 .35-.055.654-.24.91-.186.257-.45.457-.76.614-.37.126-.77.197-1.226.197-.511 0-.957-.07-1.337-.197zm-6.157.125l.264-3.28c.013-.206.022-.414.028-.626.006-.219.006-.42 0-.625h.347l.006.765.075-.067c.092-.212.265-.386.48-.521.301-.19.628-.286.981-.286.073 0 .139.001.197.004.057.004.117.011.178.023l-.055.336a.858.858 0 0 0-.155-.023 3.853 3.853 0 0 0-.201-.005c-.36 0-.648.083-.867.25-.22.166-.382.37-.489.616-.069.245-.169.484-.187.72l-.219 2.719zm-1.41-2.877c-.001-.404-.105-.726-.311-.966a1.46 1.46 0 0 0-1.1-.462c-.59 0-1.042.18-1.356.608l-.103.14a2.595 2.595 0 0 0-.274.66l-.034.16h3.173zm-2.707 2.668a1.822 1.822 0 0 1-.703-.756c-.164-.324-.247-.705-.247-1.16 0-.494.09-.937.27-1.314.18-.378.433-.686.762-.884.329-.211.755-.317 1.178-.317.407 0 .754.084 1.04.254.286.169.537.421.635.757l.052.149c.094.355.118.68.07 1.115h-3.576l-.005.07c-.004.07-.006.17-.006.17 0 .587.136 1 .367 1.34.31.324.714.486 1.25.486.273 0 .548-.045.825-.136.277-.09.531-.232.762-.426l.163.308c-.178.187-.436.337-.765.428a2.552 2.552 0 0 1-.968.188c-.432 0-.8-.09-1.104-.271zm-3.227-.026l-.073-.079c-.158-.195-.223-.483-.196-.864l.235-3.036H53v-.317h.927L54 12.36l.406-.163-.108 1.396h1.395l-.027.317h-1.392l-.274 2.9c0 .278.052.49.11.634.057.145.148.245.273.3.125.054.273.081.443.081.085 0 .174-.006.246-.018.08-.012.162-.034.247-.064l-.018.363c-.086.024-.17.042-.301.054 0 .012-.135.018-.238.018-.34 0-.616-.096-.826-.29zm-4.523.11a1.75 1.75 0 0 1-.749-.428l.201-.308c.256.2.496.341.721.426a2.2 2.2 0 0 0 .776.127c.426 0 .755-.07.986-.209a.68.68 0 0 0 .347-.608c0-.24-.064-.4-.192-.515a1.38 1.38 0 0 0-.503-.277c-.183-.07-.394-.136-.62-.208a3.875 3.875 0 0 1-.639-.218c-.2-.087-.365-.21-.493-.367-.127-.157-.191-.415-.191-.634-.006-.272.06-.505.2-.698.14-.193.337-.341.59-.444.252-.103.552-.154.898-.154.31 0 .6.053.868.159.267.105.487.255.657.448l-.21.326c-.396-.418-.83-.57-1.305-.57-.402 0-.755.076-.945.23-.228.154-.342.386-.342.694 0 .228.063.356.191.471.128.115.341.206.493.272.201.067.414.13.64.19.208.06.437.136.638.227.2.068.365.214.493.372.128.156.192.368.192.634 0 .386-.115.691-.489.915-.325.224-.75.335-1.273.335-.353 0-.642-.054-.94-.188zm-2.748-.763c.335-.393.447-.93.447-1.613 0-.624-.112-1.014-.406-1.319-.27-.305-.706-.457-1.173-.457-.533 0-.934.152-1.232.58-.301.386-.447.924-.447 1.572 0 .597.146 1 .41 1.35.274.317.664.476 1.169.476.567 0 .934-.197 1.232-.59zm-2.291.68a1.82 1.82 0 0 1-.68-.766A2.602 2.602 0 0 1 43.452 16c0-.521.088-1 .265-1.337.176-.374.424-.663.744-.87.319-.205.692-.308 1.118-.308.421 0 .83.115 1.14.345l.112.09c.169.08.254.276.339.45l.037.089.07-.865h.374l-.365 4.531h-.365l.079-.813-.066.087c-.052.083-.113.16-.182.232a1.25 1.25 0 0 1-.616.369 1.41 1.41 0 0 1-.74.188c-.396 0-.73-.09-1.022-.272zm-8.444.208l.502-6.453h.347L39 17.68l3.064-6.007h.338l-.511 6.453h-.374L42 12.661l-2.92 5.464h-.311l-2.03-5.482-.435 5.482z"/></g></g></g></svg>