<svg xmlns:xlink="http://www.w3.org/1999/xlink" xmlns="http://www.w3.org/2000/svg" width="39" height="39" viewBox="0 0 39 39"><g><g><path fill="#dc4040" d="M19.261 34.283C15.393 34.221 11.771 32.701 9 30c-2.75-2.821-4.291-6.537-4.291-10.49C4.709 15.556 6.249 11.84 9 9c2.841-2.75 6.557-4.29 10.51-4.29C23.463 4.71 27.18 6.25 30 9c2.688 2.756 4.188 6.306 4.278 10.123-7.997.745-14.34 7.143-15.017 15.16zm13.337-27.86A18.39 18.39 0 0 0 19.51 1 18.39 18.39 0 0 0 6.422 6.422 18.384 18.384 0 0 0 1 19.51c0 4.943 1.926 9.591 5.422 13.087C9.906 36.08 14.552 38 19.503 38h.75c.466 0 .909-.227 1.238-.557l15.953-15.952c.328-.33.556-.77.556-1.235.193-5.162-1.769-10.203-5.402-13.834z"/><path fill="none" stroke="#fff" stroke-miterlimit="20" stroke-width="1.06" d="M19.261 34.283C15.393 34.221 11.771 32.701 9 30c-2.75-2.821-4.291-6.537-4.291-10.49C4.709 15.556 6.249 11.84 9 9c2.841-2.75 6.557-4.29 10.51-4.29C23.463 4.71 27.18 6.25 30 9c2.688 2.756 4.188 6.306 4.278 10.123-7.997.745-14.34 7.143-15.017 15.16zm13.337-27.86A18.39 18.39 0 0 0 19.51 1 18.39 18.39 0 0 0 6.422 6.422 18.384 18.384 0 0 0 1 19.51c0 4.943 1.926 9.591 5.422 13.087C9.906 36.08 14.552 38 19.503 38h.75c.466 0 .909-.227 1.238-.557l15.953-15.952c.328-.33.556-.77.556-1.235.193-5.162-1.769-10.203-5.402-13.834z"/></g></g></svg>