<svg xmlns:xlink="http://www.w3.org/1999/xlink" xmlns="http://www.w3.org/2000/svg" width="55" height="55" viewBox="0 0 55 55"><g><g><g><path fill="#fff" d="M41.248 14.643v1.835h-6.422v1.834h6.422v22.02c0 .244-.097.478-.248.668-.193.153-.426.25-.67.25H14.643a.917.917 0 0 1-.917-.917v-22.02h6.422v-1.835h-6.422v-1.835c0-.507.41-.918.917-.918H22.9V22a.918.918 0 0 0 .917.9h7.34a.918.918 0 0 0 .649-.269.82.82 0 0 0 .269-.631v-8.275h8.257c.243 0 .476.097.669.275.151.166.248.4.248.643zM24.734 19.23h5.505v1.835h-5.505zm0-5.505h5.505v3.67h-5.505zM14.642 11.89a2.753 2.753 0 0 0-2.752 2.753v25.69a2.752 2.752 0 0 0 2.752 2.752h25.689a2.753 2.753 0 0 0 2.752-2.752v-25.69a2.752 2.752 0 0 0-2.752-2.753z"/></g><g><path fill="#fff" d="M20.15 36.66h-1.835v-1.835h1.835zm.917-3.66h-3.67a.91.91 0 0 0-.917.908v3.67a.919.919 0 0 0 .917.917h3.67a.918.918 0 0 0 .649-.268.934.934 0 0 0 .284-.65v-3.67a.933.933 0 0 0-.284-.648.909.909 0 0 0-.649-.259z"/></g><g><path fill="#fff" d="M23.82 33H33v1.825h-9.18z"/></g><g><path fill="#fff" d="M23.82 36.66h5.505v1.835H23.82z"/></g><g><path fill="#fff" d="M48.349 9.53L47 10.723a25.876 25.876 0 0 1 6.17 17.439A25.52 25.52 0 0 1 46 45.252c-4.366 4.613-10.34 7.417-16.71 7.864a25.686 25.686 0 0 1-17.694-5.445h4.881v-1.835h-7.34a.918.918 0 0 0-.917.917v6.423h1.835v-4.395A27.77 27.77 0 0 0 29 55c6.893-.434 13.37-3.38 18.176-8.306C52 41.768 54.768 35.219 55 28.339a27.607 27.607 0 0 0-6.65-18.81z"/></g><g><path fill="#fff" d="M27.486 1.8a25.559 25.559 0 0 1 15.89 5.505h-4.88V9.14h7.34c.242 0 .476-.14.648-.27a.917.917 0 0 0 .269-.648V1.8h-1.835v4.395A27.784 27.784 0 0 0 25.942 0C19.07.441 12.595 3.397 7.796 8.331A27.615 27.615 0 0 0 0 26.698 27.6 27.6 0 0 0 6.68 45.5l1.385-1.202a25.695 25.695 0 0 1-6.232-18.043A25.732 25.732 0 0 1 9.767 8.894a25.688 25.688 0 0 1 17.72-7.095z"/></g></g></g></svg>