<svg xmlns:xlink="http://www.w3.org/1999/xlink" xmlns="http://www.w3.org/2000/svg" width="132" height="29" viewBox="0 0 132 29"><defs><clipPath id="j88fa"><path fill="#fff" d="M0 9.665C0 4.327 4.327 0 9.665 0H131.45v29H9.665C4.327 29 0 24.673 0 19.335z"/></clipPath></defs><g><g><g><path fill="#fff" d="M0 9.665C0 4.327 4.327 0 9.665 0H131.45v29H9.665C4.327 29 0 24.673 0 19.335z"/><path fill="none" stroke="#f6f6f6" stroke-miterlimit="20" stroke-width="3.87" d="M0 9.665C0 4.327 4.327 0 9.665 0H131.45v29H9.665C4.327 29 0 24.673 0 19.335z" clip-path="url(&quot;#j88fa&quot;)"/></g><g><path fill="#929292" d="M18.423 11.783l-.046.01a.178.178 0 0 0-.114.14.195.195 0 0 0 .103.198c.91.321 1.714.869 2.314 1.706.048.067.134.09.207.056.113-.036.113-.12.113-.203l-.302-1.421v-.01l-.03-.088a.638.638 0 0 0-.668-.388zm15.811 2.123l.354 1.71h-1.267l.81-2.221zm-6.841-.222c-.01.82.732 1.316 1.29 1.552l.126.062c.476.245.64.415.638.646-.004.384-.447.558-.88.558a2.976 2.976 0 0 1-1.382-.297c-.048-.02-.102-.017-.185.009v.127l-.195.904-.002.052a.18.18 0 0 0 .114.151 4.77 4.77 0 0 0 1.505.251C30 17.7 31 16.932 31 15.747c0-.651-.4-1.144-1.246-1.548-.518-.266-.832-.44-.832-.713 0-.243.29-.486.847-.486H30c.29 0 .556.087.81.19.048.02.101.016.19-.01v-.127l.18-.864v-.053c-.008-.069-.054-.136-.12-.136a3.39 3.39 0 0 0-1.177-.199c-1.458 0-2.482.776-2.49 1.883zM23 11.8v.005c0 .013-.09.053-.111.109l-1.452 3.922-.16-.61-.131-.226a5.818 5.818 0 0 0-1.58-1.928c-.06-.072-.14-.072-.202-.007a.186.186 0 0 0-.067.2l1.195 4.316.018.043c.03.053.085.087.146.087H22l.072-.005a.173.173 0 0 0 .117-.104l2.26-5.552.01-.05c.007 0-.002-.082-.026-.12a.168.168 0 0 0-.142-.08zm2.314-.009l-.048.008a.178.178 0 0 0-.12.142l-.897 5.563-.001.053a.189.189 0 0 0 .038.095c.033.04.08.063.131.063H25.6l.048-.007a.178.178 0 0 0 .12-.143L26.665 12l.001-.05a.186.186 0 0 0-.039-.095.167.167 0 0 0-.132-.063zm7.91.497l-2.163 5.176-.061.043c0 .044 0 .09.072.13a.17.17 0 0 0 .143.08h1.225l.042-.005a.174.174 0 0 0 .118-.11l.28-.773h1.958l.162.745c0 .083.081.142.162.142h1.07l.05-.008a.173.173 0 0 0 .083-.06.187.187 0 0 0 .033-.15l-1.165-5.559-.016-.046a.17.17 0 0 0-.15-.096H34l-.068-.007c-.307-.002-.59.21-.708.498z"/></g><g><path fill="#929292" d="M108.701 17.238c.299-.393.448-.93.448-1.613 0-.574-.149-1.014-.407-1.318-.27-.307-.661-.458-1.173-.458-.569 0-.934.151-1.232.58-.337.386-.447.924-.447 1.571 0 .598.11 1 .41 1.352.274.316.7.475 1.169.475.531 0 .934-.196 1.232-.589zm-2.291.68a1.82 1.82 0 0 1-.68-.766 2.601 2.601 0 0 1-.242-1.152c0-.52.088-1 .265-1.335a2.04 2.04 0 0 1 .744-.87 2.02 2.02 0 0 1 1.118-.309c.45 0 .83.115 1.141.345l.111.09c.133.079.254.276.339.45l.037.088.07-.864h.374l-.365 4.531H109V17.4c-.082.084-.143.161-.212.232a1.24 1.24 0 0 1-.616.368c-.238.142-.484.19-.74.19-.432 0-.73-.09-1.022-.272zm-4.774.082a1.733 1.733 0 0 1-.749-.427l.201-.308c.256.2.496.341.721.426.191.085.484.127.776.127.415 0 .755-.07.986-.208a.682.682 0 0 0 .347-.61c0-.24-.064-.4-.192-.514a1.429 1.429 0 0 0-.488-.277c-.238-.069-.41-.135-.635-.209a2.616 2.616 0 0 1-.603-.216 1.18 1.18 0 0 1-.528-.368c-.128-.157-.192-.416-.192-.634-.006-.272.06-.504.2-.698.14-.193.337-.34.59-.444.252-.102.552-.154.93-.154.279 0 .568.053.836.159.268.105.487.255.657.448l-.21.327c-.395-.42-.83-.571-1.283-.571-.424 0-.739.077-1 .231-.195.154-.31.385-.31.693 0 .227.064.356.192.471.118.115.292.206.493.272.201.066.414.13.625.19.24.061.452.137.653.227.201.067.347.214.493.372.128.157.192.368.192.634 0 .387-.163.692-.488.915-.326.224-.75.335-1.274.335-.329 0-.642-.054-.94-.189zm-2.501.126l.365-4.531h.383l-.365 4.531zm.347-5.764l.045-.58h.584l-.045.58zM95 18.126l-2.237-6.452h.402l2.1 5.98 3.048-5.98h.42l-3.314 6.452zm-9.613 1.74c.286-.066.528-.146.726-.24.198-.094.368-.216.511-.367l.085-.096c.113-.163.223-.304.291-.502l.285-.461-1.606-4.605h.393l1.43 4.217 2.093-4.217H90l-2.568 5.048c-.17.357-.356.61-.557.815a2.18 2.18 0 0 1-.662.472c-.213.07-.5.193-.78.254zm-2.903-2.093c.516 0 .979-.123 1.274-.367.295-.245.442-.603.442-1.074 0-.43-.13-.752-.392-.97l-.093-.068c-.26-.172-.634-.294-1.121-.294h-2.102l-.217 2.773zm-1.961-3.108h2.07c.53 0 .949-.124 1.256-.372.307-.293.461-.605.461-1.07 0-.392-.135-.69-.406-.892-.271-.203-.671-.331-1.2-.331h-1.972zm-.659 3.461l.503-6.452h2.309c.444 0 .817.06 1.118.181.301.145.528.297.68.53.152.233.229.518.229.857 0 .392-.105.758-.315 1.014l-.097.117a1.7 1.7 0 0 1-.681.434l-.102.033.116.032c.28.128.501.225.663.413.216.251.324.575.324.974 0 .393-.083.741-.25 1.006-.168.278-.412.491-.731.64-.32.147-.708.221-1.164.221zm-4.623-.888c.301-.393.452-.93.452-1.613 0-.574-.136-1.014-.407-1.318-.286-.307-.661-.458-1.172-.458-.524 0-.935.151-1.233.58-.298.386-.447.915-.447 1.571 0 .589.138 1 .415 1.352.277.316.665.475 1.151.475.53 0 .94-.196 1.24-.589zm-2.241.68a1.663 1.663 0 0 1-.726-.761A2.58 2.58 0 0 1 72 16c0-.502.122-.944.302-1.322.179-.378.429-.678.748-.88.32-.208.69-.312 1.11-.312.45 0 .84.115 1.14.345l.111.09c.141.079.254.276.34.45l.042.102.207-3.017h.396l-.53 6.67h-.365l.064-.815-.05.09c-.053.083-.113.16-.183.231-.173.179-.332.316-.616.368-.237.142-.484.19-.716.19-.413 0-.754-.09-1-.272zm-2.25-2.668c-.001-.405-.105-.727-.31-.966a1.454 1.454 0 0 0-1.1-.463c-.591 0-1.043.179-1.34.608l-.115.14a2.422 2.422 0 0 0-.278.66l-.035.16h3.173zM68 17.918a2.052 2.052 0 0 1-.66-.757c-.164-.323-.246-.705-.246-1.161 0-.493.09-.936.269-1.313.18-.377.434-.687.762-.883.329-.212.721-.318 1.178-.318.408 0 .754.085 1.04.254.286.17.498.422.657.757v.149c.125.354.148.68.101 1.115h-3.576l-.006.07c-.003.071-.005.169-.005.22 0 .538.135.949.406 1.291.27.324.674.485 1.21.485.273 0 .549-.045.87-.136.232-.09.486-.232.718-.426l.173.308a1.73 1.73 0 0 1-.776.427c-.328.134-.65.19-.967.19-.432 0-.8-.09-1.148-.272zm-2.403-5.583l.054-.598h.594l-.055.598zm-2.976 5.791L63 13.912h-.945l.018-.317H63v-.933c.086-.435.22-.75.451-.948a1.313 1.313 0 0 1 1.064-.271l.26.05-.036.362a1.485 1.485 0 0 0-.43-.073.962.962 0 0 0-.415.082.608.608 0 0 0-.315.3l-.047.094a1.765 1.765 0 0 0-.117.53l-.064.807H66l-.376 4.531h-.365l.329-4.214h-2.262L63 18.126zm-2.164 0l.365-4.531h.384l-.365 4.531zm.347-5.764l.046-.58h.584l-.046.58zm-3.423 5.764l.265-3.28c.012-.206.021-.414.027-.626.006-.22.006-.42 0-.625H58v.765l.064-.067c.13-.211.302-.385.517-.521.302-.19.629-.286.982-.286.073 0 .138.002.196.005.058.003.117.01.178.023l-.055.335a.857.857 0 0 0-.155-.023 3.79 3.79 0 0 0-.2-.005c-.36 0-.649.084-.868.25a1.53 1.53 0 0 0-.488.616c-.107.245-.171.485-.171.72l-.236 2.719zM56 15.25c0-.405-.134-.727-.34-.966a1.502 1.502 0 0 0-1.1-.463c-.56 0-1.042.179-1.355.608l-.099.14a3.139 3.139 0 0 0-.278.66l-.035.16H56zm-2.736 2.668c-.264-.182-.538-.434-.703-.757-.164-.323-.246-.705-.246-1.161 0-.493.09-.936.27-1.313.179-.377.415-.687.761-.883.329-.212.721-.318 1.178-.318.408 0 .754.085 1.04.254.287.17.498.422.635.757l.053.149c.094.354.117.68.07 1.115h-3.576l-.006.07c-.003.071-.005.169-.005.22 0 .538.135.949.406 1.291.27.324.674.485 1.21.485.273 0 .549-.045.826-.136.276-.09.53-.232.762-.426l.173.308a1.73 1.73 0 0 1-.776.427c-.336.134-.65.19-.967.19-.432 0-.8-.09-1.105-.272zm-4.902.208l-2.282-6.452h.402l2.101 5.98 3.047-5.98h.42l-3.314 6.452z"/></g></g></g></svg>