<svg xmlns:xlink="http://www.w3.org/1999/xlink" xmlns="http://www.w3.org/2000/svg" width="28" height="25" viewBox="0 0 28 25"><g><g><g><g><path fill="#3b3b3b" d="M9.824 18s2.088 1.41 4.176 1.41S18.176 18 18.176 18v1.41S16.088 20.799 14 20.799s-4.176-1.39-4.176-1.39zm8.592-9c.795 0 1.584.35 2.118.925.56.574.869 1.351.86 2.158a3.056 3.056 0 0 1-1.868 2.826 2.981 2.981 0 0 1-3.287-.678c-.858-.88-1.108-2.231-.63-3.341A3.058 3.058 0 0 1 18.415 9zm1.137 4.237c.302-.306.447-.72.447-1.154 0-.901-.696-1.632-1.584-1.632a1.62 1.62 0 0 0-1.61 1.632c0 .917.721 1.632 1.61 1.632.426 0 .836-.172 1.137-.478zm-6.99-1.154c0 1.669-1.334 3.021-2.979 3.021-1.644 0-2.978-1.352-2.978-3.02 0-1.669 1.334-3.021 2.978-3.021 1.645 0 2.978 1.352 2.978 3.02zm-2.979 1.632a1.61 1.61 0 0 0 1.61-1.632 1.62 1.62 0 0 0-1.61-1.632c-.888 0-1.584.731-1.584 1.632 0 .433.145.848.447 1.154.301.306.71.478 1.137.478zM28 15.451c0 1.151-.92 2.084-2.054 2.084h-.41v4.687c0 1.534-1.227 2.778-2.739 2.778H5.203c-1.512 0-2.738-1.244-2.738-2.778v-4.687h-.411C.92 17.535 0 16.602 0 15.45v-4.097c0-1.15.92-2.083 2.054-2.083h.41V6.389c0-1.534 1.227-2.778 2.739-2.778h8.112V.694A.69.69 0 0 1 14 0a.69.69 0 0 1 .685.694v2.917h8.112c1.512 0 2.738 1.244 2.738 2.778V9.27h.411c1.134 0 2.054.933 2.054 2.083zm-1.37-4.097c0-.354-.306-.694-.684-.694h-1.095c-.378 0-.685-.311-.685-.66V6.389A1.38 1.38 0 0 0 22.797 5H5.203a1.38 1.38 0 0 0-1.37 1.389V10c0 .349-.306.66-.684.66H2.054c-.378 0-.685.34-.685.694v4.097a.69.69 0 0 0 .685.695h1.095a.69.69 0 0 1 .685.694v5.382c0 .778.613 1.39 1.369 1.39h17.594c.756 0 1.37-.612 1.37-1.39V16.84a.69.69 0 0 1 .684-.694h1.095a.69.69 0 0 0 .685-.695z"/></g></g></g></g></svg>