<svg xmlns:xlink="http://www.w3.org/1999/xlink" role="img" width="70" height="56" viewBox="0 0 70 56" fill="none" xmlns="http://www.w3.org/2000/svg" shape-rendering="geometricPrecision" text-rendering="geometricPrecision"> <title>A mountain with flag icon</title> <path d="M46.6188 5.76953L30.6447 1.30664L30.6444 12.2073C30.6444 12.9045 31.3399 13.3877 31.9933 13.1444L46.6986 7.66981C47.6063 7.33192 47.5516 6.03012 46.6188 5.76953Z" fill="#DADDC6"></path> <path d="M31.3824 19.0438L3.947 48.6623C2.44028 50.2952 3.59845 52.9398 5.82027 52.9398H65.0711C66.8363 52.9398 67.7359 50.8197 66.5094 49.5502L42.9386 25.1525C42.5455 24.7456 41.8934 24.7456 41.5002 25.1525L40.8451 25.8306C40.452 26.2375 39.7998 26.2375 39.4067 25.8306L32.8352 19.0286C32.4363 18.6157 31.7725 18.6227 31.3824 19.0438Z" fill="#DADDC6"></path> <path d="M29.9919 22.9619V1" stroke="#333333" stroke-width="2px" stroke-linecap="round" fill="none"></path> <path d="M45.9665 7.94726L31.2614 3.83892C30.6239 3.66081 29.9924 4.14008 29.9923 4.80201L29.992 14.385C29.992 15.0822 30.6875 15.5654 31.3409 15.3222L46.0463 9.84755C46.9539 9.50965 46.8992 8.20786 45.9665 7.94726Z" fill="#FFFFFF" stroke="#333333" stroke-width="2px" stroke-linecap="round" stroke-linejoin="round"></path> <path d="M4.73718 49.0415L4.73588 49.0429L2.8292 51.1092C1.64696 52.3904 2.55571 54.4655 4.29905 54.4655H60.7478C62.513 54.4655 63.4127 52.3454 62.1862 51.0759L40.4127 28.5386C39.6264 27.7247 38.3222 27.7247 37.5359 28.5386L37.1416 28.9467L31.5701 23.1797C30.7723 22.3539 29.4447 22.3679 28.6645 23.2102L29.3963 23.888L28.6645 23.2102L4.73718 49.0415Z" fill="#FFFFFF" stroke="#333333" stroke-width="2px" stroke-linecap="square" stroke-linejoin="round"></path> <path d="M30.0078 23.4404L12.884 53.4658" stroke="#333333" stroke-width="2px" stroke-linecap="square" stroke-linejoin="round" fill="none"></path> <path d="M39.1406 29.4307L30.645 53.7994" stroke="#333333" stroke-width="2px" stroke-linecap="square" stroke-linejoin="round" fill="none"></path> <path d="M30.0078 22.9619L30.0078 53.7995" stroke="#333333" stroke-width="2px" stroke-linecap="round" stroke-linejoin="round" fill="none"></path> </svg>