<svg xmlns:xlink="http://www.w3.org/1999/xlink" role="img" width="46" height="40" viewBox="0 0 46 40" fill="none" xmlns="http://www.w3.org/2000/svg" shape-rendering="geometricPrecision" text-rendering="geometricPrecision"> <title>Icon showing mobile with magnifying lens</title> <rect y="4.38385" width="20" height="35" rx="4" fill="#FFFFFF"></rect> <rect x="1" y="5.38385" width="18" height="33" rx="3" fill="#FFFFFF" stroke="#333333" stroke-width="2px"></rect> <path d="M1 30.6583H19V35.3839C19 37.0407 17.6569 38.3839 16 38.3839H4C2.34315 38.3839 1 37.0407 1 35.3839V30.6583Z" fill="#FFFFFF" stroke="#333333" stroke-width="2px"></path> <circle cx="10" cy="34.5215" r="1.5" fill="#333333"></circle> <circle cx="25.4187" cy="20.4463" r="9.68485" transform="rotate(11.3639 25.4187 20.4463)" fill="#FFFFFF"></circle> <circle cx="27.8836" cy="16.375" r="9.68485" transform="rotate(11.3639 27.8836 16.375)" fill="#DADDC6"></circle> <circle cx="25.366" cy="18.122" r="8.79395" transform="rotate(11.3639 25.366 18.122)" fill="#FFFFFF" stroke="#333333" stroke-width="1.78182px"></circle> <path d="M33.6052 22.0095L37.9566 25.5841C38.8459 26.3147 38.9745 27.6279 38.244 28.5172C37.5134 29.4065 36.2003 29.5352 35.311 28.8046L30.9596 25.2299L33.6052 22.0095Z" fill="#FFFFFF" stroke="#333333" stroke-width="1.78px"></path> <path d="M42.6523 6.22168L38.7661 9.06084" stroke="#333333" stroke-width="2px" stroke-linecap="round" stroke-linejoin="round" fill="none"></path> <path d="M34.5352 1.22949L33.7947 5.9851" stroke="#333333" stroke-width="2px" stroke-linecap="round" stroke-linejoin="round" fill="none"></path> <path d="M44.9395 15.4697L40.1838 14.7293" stroke="#333333" stroke-width="2px" stroke-linecap="round" stroke-linejoin="round" fill="none"></path> </svg>