<svg xmlns:xlink="http://www.w3.org/1999/xlink" role="img" width="47" height="36" viewBox="0 0 47 36" fill="none" xmlns="http://www.w3.org/2000/svg" shape-rendering="geometricPrecision" text-rendering="geometricPrecision"> <title>Browser Icon</title> <rect x="3.01953" y="0.714844" width="43.9253" height="32.0993" rx="4" fill="#DADDC6"></rect> <rect x="1" y="4.70483" width="41.9253" height="30.0993" rx="3" fill="#FFFFFF" stroke="#333333" stroke-width="2px"></rect> <path d="M1 7.70483C1 6.04798 2.34315 4.70483 4 4.70483H39.9253C41.5822 4.70483 42.9253 6.04798 42.9253 7.70483V12.3943H1V7.70483Z" fill="#FFFFFF" stroke="#333333" stroke-width="2px"></path> <circle cx="5.20067" cy="8.39281" r="1.26708" fill="#333333"></circle> <circle cx="9.42333" cy="8.39281" r="1.26708" fill="#333333"></circle> <circle cx="13.6479" cy="8.39281" r="1.26708" fill="#333333"></circle> <path d="M31.406 23.7594C31.1411 23.6534 30.8385 23.7156 30.6367 23.9173C30.4349 24.1191 30.3728 24.4217 30.4788 24.6867L33.3322 31.8201C33.4365 32.0809 33.6842 32.2562 33.9648 32.2679C34.2455 32.2796 34.5069 32.1255 34.6325 31.8742L35.6166 29.9061L37.7701 32.0596C38.0487 32.3382 38.5004 32.3382 38.779 32.0596C39.0575 31.781 39.0575 31.3294 38.779 31.0508L36.6254 28.8972L38.5936 27.9132C38.8448 27.7875 38.999 27.5261 38.9873 27.2455C38.9756 26.9648 38.8003 26.7171 38.5395 26.6128L31.406 23.7594Z" fill="#333333"></path> </svg>