<svg xmlns:xlink="http://www.w3.org/1999/xlink" role="img" width="58" height="64" viewBox="0 0 58 64" fill="none" xmlns="http://www.w3.org/2000/svg" shape-rendering="geometricPrecision" text-rendering="geometricPrecision"> <title>a black and white image of a wrench and gear</title> <path d="M50.7196 25.9743L50.7232 25.9714C51.5678 25.3045 51.7552 24.1385 51.2588 23.2282L51.2529 23.2173L51.2467 23.2066L46.6292 15.2167C46.0851 14.2342 44.9205 13.9269 44.0063 14.2595L43.9907 14.2651L43.9754 14.2713L38.7407 16.374C37.7579 15.6633 36.7133 15.0505 35.5968 14.5483L34.7991 8.98451C34.6594 7.90933 33.7283 7.14795 32.6756 7.14795H23.43C22.3772 7.14795 21.4462 7.90937 21.3064 8.98458L20.5087 14.5493C19.3881 15.0567 18.3454 15.6817 17.3706 16.3763L12.1302 14.2713L12.1302 14.2712L12.1219 14.268C11.137 13.8825 10.0038 14.2643 9.47641 15.2166L4.86096 23.203C4.29992 24.158 4.567 25.3276 5.38235 25.9714L5.38598 25.9743L9.82155 29.4436C9.75981 30.034 9.71732 30.6468 9.71732 31.2669C9.71732 31.8869 9.75981 32.4998 9.82155 33.0902L5.38598 36.5595L5.38598 36.5595L5.38235 36.5623C4.53777 37.2292 4.35036 38.3953 4.84677 39.3055L4.8527 39.3164L4.85889 39.3271L9.47641 47.3172C10.0205 48.2995 11.1851 48.6068 12.0993 48.2743L12.1148 48.2686L12.1302 48.2625L17.3648 46.1597C18.3477 46.8704 19.3923 47.4833 20.5088 47.9854L21.3064 53.5492C21.4461 54.6244 22.3772 55.3858 23.43 55.3858H32.6756C33.7283 55.3858 34.6594 54.6244 34.7991 53.5492L35.5969 47.9845C36.7175 47.4771 37.7601 46.852 38.735 46.1574L43.9754 48.2625L43.9753 48.2625L43.9836 48.2657C44.9686 48.6512 46.1019 48.2694 46.6292 47.317L51.2467 39.3271L51.2529 39.3164L51.2588 39.3055C51.7552 38.3953 51.5678 37.2292 50.7232 36.5623L50.7196 36.5595L46.2843 33.0904C46.3458 32.5068 46.3882 31.9036 46.3882 31.2669C46.3882 30.6301 46.3458 30.027 46.2843 29.4433L50.7196 25.9743ZM28.0528 38.3585C24.1443 38.3585 20.9629 35.1767 20.9629 31.2669C20.9629 27.357 24.1443 24.1752 28.0528 24.1752C31.9613 24.1752 35.1427 27.357 35.1427 31.2669C35.1427 35.1767 31.9613 38.3585 28.0528 38.3585Z" fill="#DADDC6" stroke="#DADDC6" stroke-width="2px"></path> <circle cx="24.4834" cy="31.3662" r="7.37988" fill="#FFFFFF"></circle> <path d="M47.1551 27.9416L47.1588 27.9387C48.0033 27.2718 48.1907 26.1058 47.6943 25.1955L47.6884 25.1846L47.6822 25.1739L43.0647 17.184C42.5207 16.2015 41.356 15.8942 40.4418 16.2267L40.4263 16.2324L40.4109 16.2386L35.1763 18.3413C34.1934 17.6306 33.1488 17.0177 32.0323 16.5156L31.2346 10.9518C31.0949 9.87662 30.1639 9.11523 29.1111 9.11523H19.8655C18.8127 9.11523 17.8817 9.87665 17.742 10.9519L16.9442 16.5165C15.8236 17.0239 14.781 17.649 13.8061 18.3436L8.56574 16.2386L8.56575 16.2385L8.55746 16.2353C7.57257 15.8498 6.4393 16.2316 5.91196 17.1839L1.2965 25.1703C0.735462 26.1253 1.00255 27.2949 1.81789 27.9387L1.82153 27.9416L6.25709 31.4109C6.19536 32.0012 6.15286 32.6141 6.15286 33.2342C6.15286 33.8542 6.19536 34.4671 6.25709 35.0574L1.82153 38.5268L1.82152 38.5267L1.81789 38.5296C0.973321 39.1965 0.785904 40.3625 1.28231 41.2728L1.28824 41.2837L1.29444 41.2944L5.91196 49.2844C6.45604 50.2668 7.62062 50.5741 8.5348 50.2416L8.55037 50.2359L8.56574 50.2297L13.8004 48.127C14.7832 48.8377 15.8278 49.4506 16.9443 49.9527L17.742 55.5164C17.8817 56.5917 18.8127 57.3531 19.8655 57.3531H29.1111C30.1639 57.3531 31.0949 56.5917 31.2346 55.5165L32.0324 49.9518C33.153 49.4444 34.1957 48.8193 35.1705 48.1247L40.4109 50.2297L40.4109 50.2298L40.4192 50.233C41.4041 50.6185 42.5375 50.2367 43.0648 49.2843L47.6822 41.2944L47.6884 41.2837L47.6943 41.2728C48.1907 40.3625 48.0033 39.1965 47.1588 38.5296L47.1551 38.5268L42.7199 35.0577C42.7814 34.474 42.8238 33.8709 42.8238 33.2342C42.8238 32.5974 42.7814 31.9943 42.7199 31.4106L47.1551 27.9416ZM24.4883 40.3258C20.5798 40.3258 17.3984 37.144 17.3984 33.2342C17.3984 29.3243 20.5798 26.1425 24.4883 26.1425C28.3968 26.1425 31.5782 29.3243 31.5782 33.2342C31.5782 37.144 28.3968 40.3258 24.4883 40.3258Z" fill="#FFFFFF" stroke="#333333" stroke-width="2px"></path> <path d="M49.0009 6.14071C49.0207 5.98218 49.0356 5.82365 49.0356 5.65521C49.0356 5.48677 49.0207 5.32824 49.0009 5.16971L50.046 4.3523C50.1401 4.27799 50.1649 4.14423 50.1054 4.03524L49.1148 2.32114C49.0554 2.21215 48.9217 2.17252 48.8127 2.21215L47.5794 2.70756C47.3219 2.5094 47.0445 2.34591 46.7424 2.22206L46.5542 0.909241C46.5393 0.790345 46.4353 0.701172 46.3115 0.701172H44.3303C44.2064 0.701172 44.1024 0.790345 44.0876 0.909241L43.8994 2.22206C43.5972 2.34591 43.3199 2.51435 43.0623 2.70756L41.829 2.21215C41.7151 2.16757 41.5863 2.21215 41.5269 2.32114L40.5363 4.03524C40.4719 4.14423 40.5016 4.27799 40.5957 4.3523L41.6408 5.16971C41.621 5.32824 41.6061 5.49173 41.6061 5.65521C41.6061 5.81869 41.621 5.98218 41.6408 6.14071L40.5957 6.95812C40.5016 7.03243 40.4769 7.16619 40.5363 7.27518L41.5269 8.98928C41.5863 9.09827 41.7201 9.1379 41.829 9.09827L43.0623 8.60286C43.3199 8.80102 43.5972 8.96451 43.8994 9.08836L44.0876 10.4012C44.1024 10.5201 44.2064 10.6092 44.3303 10.6092H46.3115C46.4353 10.6092 46.5393 10.5201 46.5542 10.4012L46.7424 9.08836C47.0445 8.96451 47.3219 8.79607 47.5794 8.60286L48.8127 9.09827C48.9266 9.14285 49.0554 9.09827 49.1148 8.98928L50.1054 7.27518C50.1649 7.16619 50.1401 7.03243 50.046 6.95812L49.0009 6.14071ZM45.3209 7.38912C44.3649 7.38912 43.5873 6.61134 43.5873 5.65521C43.5873 4.69908 44.3649 3.9213 45.3209 3.9213C46.2768 3.9213 47.0544 4.69908 47.0544 5.65521C47.0544 6.61134 46.2768 7.38912 45.3209 7.38912Z" fill="#333333"></path> <path d="M56.7139 11.2897C56.7226 11.2206 56.729 11.1514 56.729 11.0779C56.729 11.0043 56.7226 10.9352 56.7139 10.866L57.1701 10.5092C57.2112 10.4768 57.222 10.4184 57.196 10.3709L56.7636 9.62277C56.7377 9.57521 56.6793 9.55791 56.6317 9.57521L56.0934 9.79142C55.981 9.70493 55.8599 9.63358 55.728 9.57953L55.6458 9.00658C55.6393 8.95469 55.5939 8.91577 55.5399 8.91577H54.6751C54.621 8.91577 54.5756 8.95469 54.5691 9.00658L54.487 9.57953C54.3551 9.63358 54.234 9.7071 54.1216 9.79142L53.5832 9.57521C53.5335 9.55575 53.4773 9.57521 53.4513 9.62277L53.0189 10.3709C52.9908 10.4184 53.0038 10.4768 53.0448 10.5092L53.501 10.866C53.4924 10.9352 53.4859 11.0065 53.4859 11.0779C53.4859 11.1492 53.4924 11.2206 53.501 11.2897L53.0448 11.6465C53.0038 11.6789 52.993 11.7373 53.0189 11.7849L53.4513 12.5329C53.4773 12.5805 53.5356 12.5978 53.5832 12.5805L54.1216 12.3643C54.234 12.4508 54.3551 12.5221 54.487 12.5762L54.5691 13.1491C54.5756 13.201 54.621 13.2399 54.6751 13.2399H55.5399C55.5939 13.2399 55.6393 13.201 55.6458 13.1491L55.728 12.5762C55.8599 12.5221 55.981 12.4486 56.0934 12.3643L56.6317 12.5805C56.6815 12.6 56.7377 12.5805 56.7636 12.5329L57.196 11.7849C57.222 11.7373 57.2112 11.6789 57.1701 11.6465L56.7139 11.2897ZM55.1075 11.8346C54.6902 11.8346 54.3507 11.4951 54.3507 11.0779C54.3507 10.6606 54.6902 10.3211 55.1075 10.3211C55.5248 10.3211 55.8642 10.6606 55.8642 11.0779C55.8642 11.4951 55.5248 11.8346 55.1075 11.8346Z" fill="#333333"></path> <path d="M51.135 56.2033L41.162 48.9762C41.6652 46.6664 40.7851 44.1899 38.7028 42.6809C36.511 41.0925 33.6156 41.1674 31.5137 42.5695L36.2263 45.9845L33.8442 49.2731L29.0372 45.8731C28.2655 48.3228 29.1909 51.0828 31.3828 52.6712C33.4651 54.1802 36.092 54.2451 38.1296 53.0471L48.1027 60.2743C48.541 60.592 49.108 60.5014 49.4256 60.0629L51.2519 57.5417C51.664 57.0881 51.5583 56.4265 51.135 56.2033Z" fill="#FFFFFF"></path> <path d="M52.8089 52.8764L42.8358 45.6493C43.3391 43.3395 42.459 40.863 40.3767 39.354C38.1848 37.7656 35.2895 37.8405 33.1876 39.2426L37.9001 42.6576L35.5181 45.9462L30.711 42.5462C29.9393 44.9959 30.8647 47.7559 33.0566 49.3443C35.1389 50.8533 37.7658 50.9182 39.8034 49.7202L49.7765 56.9474C50.2149 57.2651 50.7819 57.1745 51.0995 56.736L52.9257 54.2148C53.3378 53.7612 53.2321 53.0996 52.8089 52.8764Z" fill="#FFFFFF" stroke="#333333" stroke-width="2px"></path> </svg>