<svg xmlns:xlink="http://www.w3.org/1999/xlink" role="img" width="24" height="20" viewBox="0 0 24 20" fill="none" xmlns="http://www.w3.org/2000/svg"> <title>Twitter Logo</title> <path d="M0 17.6344C2.57077 17.8165 5.11852 17.0452 7.15667 15.4678C6.0379 15.4095 4.96632 14.9985 4.09552 14.2937C3.48791 13.7664 3.00966 13.1064 2.69773 12.3648C2.53698 11.9943 2.69773 11.9804 2.98427 12.0433C3.55779 12.1275 4.14289 12.0821 4.69656 11.9105C2.24345 11.0998 0.957484 9.51328 0.803727 6.97629C1.4761 7.31388 2.21179 7.50673 2.96331 7.5424C0.803728 5.68334 0.272568 3.54472 1.48165 0.916885C2.27599 1.84698 3.1688 2.68823 4.14444 3.42591C6.21265 4.94265 8.65581 5.86578 11.2102 6.09569C11.6436 6.13762 11.7414 6.01182 11.6995 5.59947C11.5378 4.42639 11.8071 3.23448 12.4574 2.24486C13.1078 1.25524 14.095 0.535089 15.2359 0.217992C16.0513 -0.0368794 16.9201 -0.0688892 17.7521 0.125284C18.5841 0.319458 19.349 0.732739 19.9674 1.32224C20.0578 1.41087 20.1705 1.47329 20.2936 1.50284C20.4167 1.53238 20.5455 1.52793 20.6663 1.48998C21.564 1.24943 22.4369 0.924148 23.2732 0.518516C22.9632 1.52231 22.3414 2.40118 21.498 3.02754C22.3582 2.95431 23.2021 2.74924 24 2.41951C23.4957 3.25628 22.839 3.99115 22.0641 4.58608C21.9161 4.69376 21.7984 4.83785 21.7225 5.00438C21.6466 5.17091 21.615 5.35423 21.6308 5.53657C21.4001 11.4073 18.8771 15.9291 13.4886 18.4661C9.0297 20.5628 4.52883 20.1994 0.209668 17.7672C0.13692 17.7276 0.0668768 17.6833 0 17.6344Z"></path> </svg>