<svg xmlns:xlink="http://www.w3.org/1999/xlink" role="img" width="49" height="39" viewBox="0 0 49 39" fill="none" xmlns="http://www.w3.org/2000/svg" shape-rendering="geometricPrecision" text-rendering="geometricPrecision"> <title>Icon showing W3C compliance</title> <circle cx="19" cy="19.9429" r="18" stroke="#333333" stroke-width="2px" fill="none"></circle> <path d="M28.0875 19.9429C28.0875 25.0593 26.9843 29.6418 25.2496 32.909C23.4916 36.2201 21.2339 37.9429 18.9997 37.9429C16.7654 37.9429 14.5078 36.2201 12.7497 32.909C11.0151 29.6418 9.91187 25.0593 9.91187 19.9429C9.91187 14.8264 11.0151 10.2439 12.7497 6.97678C14.5078 3.66561 16.7654 1.94287 18.9997 1.94287C21.2339 1.94287 23.4916 3.66561 25.2496 6.97678C26.9843 10.2439 28.0875 14.8264 28.0875 19.9429Z" stroke="#333333" stroke-width="2px" fill="none"></path> <path d="M28.0875 19.9429C28.0875 25.0593 26.9843 29.6418 25.2496 32.909C23.4916 36.2201 21.2339 37.9429 18.9997 37.9429C16.7654 37.9429 14.5078 36.2201 12.7497 32.909C11.0151 29.6418 9.91187 25.0593 9.91187 19.9429C9.91187 14.8264 11.0151 10.2439 12.7497 6.97678C14.5078 3.66561 16.7654 1.94287 18.9997 1.94287C21.2339 1.94287 23.4916 3.66561 25.2496 6.97678C26.9843 10.2439 28.0875 14.8264 28.0875 19.9429Z" stroke="#333333" stroke-width="2px" fill="none"></path> <path d="M2.00977 12.6685H35.887" stroke="#333333" stroke-width="2px" fill="none"></path> <path d="M2.00952 27.2184H35.8867" stroke="#333333" stroke-width="2px" fill="none"></path> <path d="M47.1875 8.46924C47.399 9.17617 47.952 9.72921 48.6589 9.94067C47.952 10.1521 47.399 10.7052 47.1875 11.4121C46.976 10.7052 46.423 10.1521 45.7161 9.94067C46.423 9.72921 46.976 9.17617 47.1875 8.46924Z" fill="#333333"></path> <path d="M43.416 0.942871C43.8921 2.53457 45.1373 3.77978 46.729 4.25589C45.1373 4.732 43.8921 5.97721 43.416 7.56892C42.9399 5.97721 41.6947 4.732 40.103 4.25589C41.6947 3.77978 42.9399 2.53457 43.416 0.942871Z" fill="#333333"></path> <rect x="16.5742" y="9.28259" width="29.6261" height="15.0901" rx="7.54504" fill="#DADDC6"></rect> <rect x="14.498" y="12.4116" width="29.2525" height="14.8594" rx="7.42969" fill="#FFFFFF" stroke="#333333" stroke-width="2px"></rect> <path d="M21.4949 22.7738L19.8164 16.9078H21.1712L22.1422 20.9837H22.1909L23.2621 16.9078H24.4221L25.4905 20.9923H25.5421L26.513 16.9078H27.8678L26.1894 22.7738H24.9807L23.8636 18.9386H23.8178L22.7036 22.7738H21.4949Z" fill="#333333"></path> <path d="M30.6655 22.854C30.2378 22.854 29.8568 22.7805 29.5227 22.6335C29.1904 22.4845 28.9279 22.2802 28.735 22.0205C28.544 21.7589 28.4457 21.4572 28.44 21.1154H29.6888C29.6964 21.2586 29.7432 21.3847 29.8291 21.4935C29.917 21.6004 30.0335 21.6835 30.1786 21.7427C30.3237 21.8019 30.487 21.8315 30.6684 21.8315C30.8574 21.8315 31.0245 21.7981 31.1696 21.7312C31.3147 21.6644 31.4284 21.5718 31.5105 21.4534C31.5926 21.335 31.6336 21.1985 31.6336 21.0438C31.6336 20.8872 31.5897 20.7488 31.5019 20.6285C31.4159 20.5063 31.2918 20.4108 31.1295 20.3421C30.9691 20.2733 30.7782 20.239 30.5567 20.239H30.0096V19.3281H30.5567C30.7438 19.3281 30.909 19.2957 31.0522 19.2308C31.1973 19.1658 31.31 19.0761 31.3902 18.9615C31.4704 18.845 31.5105 18.7095 31.5105 18.5548C31.5105 18.4078 31.4751 18.2789 31.4045 18.1681C31.3357 18.0554 31.2384 17.9676 31.1123 17.9046C30.9882 17.8416 30.8431 17.8101 30.677 17.8101C30.5089 17.8101 30.3552 17.8406 30.2158 17.9017C30.0764 17.9609 29.9647 18.0459 29.8807 18.1567C29.7967 18.2674 29.7518 18.3973 29.7461 18.5462H28.5574C28.5631 18.2082 28.6596 17.9103 28.8467 17.6525C29.0338 17.3948 29.2859 17.1933 29.6029 17.0482C29.9218 16.9012 30.2817 16.8276 30.6827 16.8276C31.0875 16.8276 31.4417 16.9012 31.7453 17.0482C32.0489 17.1952 32.2848 17.3938 32.4528 17.644C32.6227 17.8922 32.7068 18.171 32.7049 18.4803C32.7068 18.8087 32.6046 19.0828 32.3984 19.3024C32.1941 19.522 31.9277 19.6613 31.5993 19.7205V19.7664C32.0308 19.8217 32.3592 19.9716 32.5846 20.2161C32.8118 20.4586 32.9245 20.7622 32.9225 21.1269C32.9245 21.4611 32.828 21.758 32.6333 22.0177C32.4404 22.2774 32.174 22.4817 31.8341 22.6306C31.4942 22.7796 31.1047 22.854 30.6655 22.854Z" fill="#333333"></path> <path d="M39.0241 18.9615H37.7696C37.7467 18.7992 37.6999 18.655 37.6292 18.529C37.5586 18.4011 37.4679 18.2922 37.3571 18.2025C37.2464 18.1127 37.1184 18.044 36.9733 17.9963C36.8301 17.9485 36.6745 17.9246 36.5064 17.9246C36.2028 17.9246 35.9384 18.0001 35.713 18.1509C35.4877 18.2999 35.313 18.5175 35.1889 18.804C35.0648 19.0885 35.0027 19.4341 35.0027 19.8408C35.0027 20.259 35.0648 20.6104 35.1889 20.8949C35.3149 21.1794 35.4906 21.3942 35.7159 21.5393C35.9412 21.6845 36.2019 21.757 36.4979 21.757C36.664 21.757 36.8177 21.7351 36.959 21.6911C37.1022 21.6472 37.2292 21.5833 37.3399 21.4992C37.4507 21.4133 37.5424 21.3092 37.6149 21.187C37.6894 21.0648 37.7409 20.9254 37.7696 20.7689L39.0241 20.7746C38.9917 21.0438 38.9105 21.3035 38.7807 21.5537C38.6527 21.8019 38.4799 22.0244 38.2622 22.221C38.0465 22.4158 37.7887 22.5705 37.4889 22.685C37.191 22.7977 36.854 22.854 36.4778 22.854C35.9546 22.854 35.4868 22.7356 35.0743 22.4989C34.6638 22.2621 34.3392 21.9193 34.1005 21.4706C33.8637 21.0219 33.7453 20.4786 33.7453 19.8408C33.7453 19.2012 33.8656 18.6569 34.1062 18.2082C34.3468 17.7595 34.6733 17.4177 35.0858 17.1828C35.4982 16.946 35.9622 16.8276 36.4778 16.8276C36.8177 16.8276 37.1328 16.8754 37.423 16.9708C37.7152 17.0663 37.9739 17.2057 38.1992 17.389C38.4245 17.5704 38.6079 17.7929 38.7492 18.0564C38.8924 18.3199 38.984 18.6216 39.0241 18.9615Z" fill="#333333"></path> </svg>