<svg xmlns:xlink="http://www.w3.org/1999/xlink" xmlns="http://www.w3.org/2000/svg" viewBox="0 0 32 32" width="32"  height="32" >
                <defs>
                  <style>
                    .facebook-icon {
                      fill: #666666;
                    }

                    .cls-2 {
                      fill: #fff;
                    }
                  </style>
                </defs>
                <g fill="#666666">
                  <path class="facebook-icon" d="M15.947 0C7.14 0 0 7.143 0 15.95 0 24.76 7.142 31.9 15.95 31.9s15.948-7.14 15.948-15.95c0-4.23-1.68-8.286-4.672-11.277C24.234 1.68 20.176 0 15.946 0z" fill="#666666"></path>
                </g>
                <path class="cls-2" d="M18.632 5.102c-2.91 0-4.904 1.776-4.904 5.04v2.55h-3.293v3.814h3.293V26.87c1.353-.18 2.678-.53 3.942-1.045v-9.31h3.285l.492-3.812h-3.784v-2.18c0-1.104.357-2.238 1.894-1.855h2.02V5.252c-.978-.103-1.96-.154-2.943-.15h-.002z" fill="#E5E5E5"></path>
              </svg>