<svg xmlns:xlink="http://www.w3.org/1999/xlink" xmlns="http://www.w3.org/2000/svg" viewBox="0 0 375 374.9999" width="375"  height="374.9999" >
                <defs>
                  <style>
                    .twitter-icon {
                      fill: #666666;
                    }
                    .cls-2{
                      fill: #e5e5e5;
                    }
                    
                  </style>
                </defs>
                <g fill="#666666">
                  <path class="twitter-icon" d="M 187.46875 7.09375 C 87.851562 7.09375 7.09375 87.851562 7.09375 187.46875 C 7.09375 287.085938 87.851562 367.84375 187.46875 367.84375 C 287.085938 367.84375 367.84375 287.085938 367.84375 187.46875 C 367.84375 87.851562 287.085938 7.09375 187.46875 7.09375 " fill="#666666"></path>
                </g>
                <g class="cls-2" transform="translate(85, 75)" fill="#E5E5E5"> 
                  <svg xmlns="http://www.w3.org/2000/svg" x="-32" y="-30" height="280" width="280" viewBox="0 0 50 50" fill="#E5E5E5">
                    <path d="M 6.9199219 6 L 21.136719 26.726562 L 6.2285156 44 L 9.40625 44 L 22.544922 28.777344 L 32.986328 44 L 43 44 L 28.123047 22.3125 L 42.203125 6 L 39.027344 6 L 26.716797 20.261719 L 16.933594 6 L 6.9199219 6 z" fill="#E5E5E5"></path>
                  </svg>
                </g>
              </svg>