<svg xmlns:xlink="http://www.w3.org/1999/xlink" xmlns="http://www.w3.org/2000/svg" width="20" height="20" viewBox="0 0 20 20" fill="none">
  <rect width="20" height="20" fill="#F9F9F9"/>
  <mask id="mask0_0_442" style="mask-type:luminance" maskUnits="userSpaceOnUse" x="0" y="0" width="20" height="20">
    <rect width="20" height="20" fill="white"/>
  </mask>
  <g mask="url(#mask0_0_442)">
    <path fill-rule="evenodd" clip-rule="evenodd" d="M4.16667 15.5H16.6667C16.75 15.5 16.8333 15.4662 16.9 15.3985L17.4 14.8908C17.4667 14.8231 17.5 14.7385 17.5 14.6538V12C18.3284 12 19 11.3284 19 10.5C19 9.67157 18.3284 9 17.5 9V8C18.3284 8 19 7.32843 19 6.5C19 5.67157 18.3284 5 17.5 5C17.3247 5 17.1564 5.03008 17 5.08535V4.83846C17 4.65231 16.85 4.5 16.6667 4.5H4.16667C3.98333 4.5 3.83333 4.65231 3.83333 4.83846V6.19231C3.83333 6.37846 3.98333 6.53077 4.16667 6.53077C4.35 6.53077 4.5 6.37846 4.5 6.19231V5.17692H16.3333V5.55711C16.1249 5.81473 16 6.14278 16 6.5C16 7.06983 16.3177 7.56544 16.7857 7.81934L16.8167 7.85077V9.16433C16.3318 9.41289 16 9.91769 16 10.5C16 11.0823 16.3318 11.5871 16.8167 11.8357V14.5185L16.5167 14.8231H4.45C4.4 14.7215 4.28333 14.6538 4.16667 14.6538C3.98333 14.6538 3.83333 14.8062 3.83333 14.9923V15.1615C3.83333 15.3477 3.98333 15.5 4.16667 15.5ZM18 10.5C18 10.7761 17.7761 11 17.5 11V10C17.7761 10 18 10.2239 18 10.5ZM17 6.5C17 6.77614 17.2239 7 17.5 7C17.7761 7 18 6.77614 18 6.5C18 6.22386 17.7761 6 17.5 6C17.2239 6 17 6.22386 17 6.5ZM3.83333 12.1154C3.83333 12.3015 3.98333 12.4538 4.16667 12.4538C4.35 12.4538 4.5 12.3015 4.5 12.1154V9.57692C4.5 9.39077 4.35 9.23846 4.16667 9.23846C3.98333 9.23846 3.83333 9.39077 3.83333 9.57692V12.1154ZM5.41667 9.06923H2.75C2.61667 9.06923 2.5 8.95077 2.5 8.81538V6.95385C2.5 6.81846 2.61667 6.7 2.75 6.7H5.41667C5.55 6.7 5.66667 6.81846 5.66667 6.95385V8.81538C5.66667 8.95077 5.55 9.06923 5.41667 9.06923ZM3.58333 14.4846H5.91667C6.05 14.4846 6.16667 14.3662 6.16667 14.2308V12.8769C6.16667 12.7415 6.05 12.6231 5.91667 12.6231H3.58333C3.45 12.6231 3.33333 12.7415 3.33333 12.8769V14.2308C3.33333 14.3662 3.45 14.4846 3.58333 14.4846ZM8.83333 10.9308C8.73333 10.9308 8.66667 10.9985 8.66667 11.1V11.2692H9V11.1C9 10.9985 8.93333 10.9308 8.83333 10.9308ZM8.16667 11.1C8.16667 10.9985 8.23333 10.9308 8.33333 10.9308C8.43333 10.9308 8.5 10.9985 8.5 11.1V11.2692H8.16667V11.1ZM9.33333 10.9308C9.23333 10.9308 9.16667 10.9985 9.16667 11.1V11.2692H9.5V11.1C9.5 10.9985 9.43333 10.9308 9.33333 10.9308ZM9.66667 11.1C9.66667 10.9985 9.73333 10.9308 9.83333 10.9308C9.93333 10.9308 10 10.9985 10 11.1V11.2692H9.66667V11.1ZM10.3333 10.9308C10.2333 10.9308 10.1667 10.9985 10.1667 11.1V11.2692H10.5V11.1C10.5 10.9985 10.4333 10.9308 10.3333 10.9308ZM10.6667 11.1C10.6667 10.9985 10.7333 10.9308 10.8333 10.9308C10.9333 10.9308 11 10.9985 11 11.1V11.2692H10.6667V11.1ZM11.3333 10.9308C11.2333 10.9308 11.1667 10.9985 11.1667 11.1V11.2692H11.5V11.1C11.5 10.9985 11.4333 10.9308 11.3333 10.9308ZM11.6667 11.1C11.6667 10.9985 11.7333 10.9308 11.8333 10.9308C11.9333 10.9308 12 10.9985 12 11.1V11.2692H11.6667V11.1ZM12.3333 10.9308C12.2333 10.9308 12.1667 10.9985 12.1667 11.1V11.2692H12.5V11.1C12.5 10.9985 12.4333 10.9308 12.3333 10.9308ZM12.6667 11.1C12.6667 10.9985 12.7333 10.9308 12.8333 10.9308C12.9333 10.9308 13 10.9985 13 11.1V11.2692H12.6667V11.1ZM13.3333 10.9308C13.2333 10.9308 13.1667 10.9985 13.1667 11.1V11.2692H13.5V11.1C13.5 10.9985 13.4333 10.9308 13.3333 10.9308ZM13.6667 11.1C13.6667 10.9985 13.7333 10.9308 13.8333 10.9308C13.9333 10.9308 14 10.9985 14 11.1V11.2692H13.6667V11.1ZM14.3333 10.9308C14.2333 10.9308 14.1667 10.9985 14.1667 11.1V11.2692H14.5V11.1C14.5 10.9985 14.4333 10.9308 14.3333 10.9308ZM14.6667 11.1C14.6667 10.9985 14.7333 10.9308 14.8333 10.9308C14.9333 10.9308 15 10.9985 15 11.1V11.2692H14.6667V11.1ZM14.3333 13.4692C14.4333 13.4692 14.5 13.4015 14.5 13.3V13.1308H14.1667V13.3C14.1667 13.4015 14.2333 13.4692 14.3333 13.4692ZM15 13.3C15 13.4015 14.9333 13.4692 14.8333 13.4692C14.7333 13.4692 14.6667 13.4015 14.6667 13.3V13.1308H15V13.3ZM13.8333 13.4692C13.9333 13.4692 14 13.4015 14 13.3V13.1308H13.6667V13.3C13.6667 13.4015 13.7333 13.4692 13.8333 13.4692ZM13.5 13.3C13.5 13.4015 13.4333 13.4692 13.3333 13.4692C13.2333 13.4692 13.1667 13.4015 13.1667 13.3V13.1308H13.5V13.3ZM12.8333 13.4692C12.9333 13.4692 13 13.4015 13 13.3V13.1308H12.6667V13.3C12.6667 13.4015 12.7333 13.4692 12.8333 13.4692ZM12.5 13.3C12.5 13.4015 12.4333 13.4692 12.3333 13.4692C12.2333 13.4692 12.1667 13.4015 12.1667 13.3V13.1308H12.5V13.3ZM11.8333 13.4692C11.9333 13.4692 12 13.4015 12 13.3V13.1308H11.6667V13.3C11.6667 13.4015 11.7333 13.4692 11.8333 13.4692ZM11.5 13.3C11.5 13.4015 11.4333 13.4692 11.3333 13.4692C11.2333 13.4692 11.1667 13.4015 11.1667 13.3V13.1308H11.5V13.3ZM10.8333 13.4692C10.9333 13.4692 11 13.4015 11 13.3V13.1308H10.6667V13.3C10.6667 13.4015 10.7333 13.4692 10.8333 13.4692ZM10.5 13.3C10.5 13.4015 10.4333 13.4692 10.3333 13.4692C10.2333 13.4692 10.1667 13.4015 10.1667 13.3V13.1308H10.5V13.3ZM9.83333 13.4692C9.93333 13.4692 10 13.4015 10 13.3V13.1308H9.66667V13.3C9.66667 13.4015 9.73333 13.4692 9.83333 13.4692ZM9.5 13.3C9.5 13.4015 9.43333 13.4692 9.33333 13.4692C9.23333 13.4692 9.16667 13.4015 9.16667 13.3V13.1308H9.5V13.3ZM8.83333 13.4692C8.93333 13.4692 9 13.4015 9 13.3V13.1308H8.66667V13.3C8.66667 13.4015 8.73333 13.4692 8.83333 13.4692ZM8.5 13.3C8.5 13.4015 8.43333 13.4692 8.33333 13.4692C8.23333 13.4692 8.16667 13.4015 8.16667 13.3V13.1308H8.5V13.3ZM8 11.4385H15.1667C15.2667 11.4385 15.3333 11.5062 15.3333 11.6077V12.7923C15.3333 12.8938 15.2667 12.9615 15.1667 12.9615H8C7.9 12.9615 7.83333 12.8938 7.83333 12.7923V11.6077C7.83333 11.5062 7.9 11.4385 8 11.4385ZM14.8333 12.2C14.8333 12.3862 14.9833 12.5385 15.1667 12.5385V11.8615C14.9833 11.8615 14.8333 12.0138 14.8333 12.2ZM10.5167 8.42615C9.53333 9.93231 7.53333 9.37385 7.53333 7.90154C7.53333 6.42923 9.55 5.80308 10.5167 7.37692C11.55 5.78615 13.45 6.48 13.45 7.90154C13.45 9.32308 11.5333 9.98308 10.5167 8.42615ZM8.06667 7.90154C8.06667 6.83538 9.55 6.49692 10.2333 7.90154C9.53333 9.23846 8.06667 8.96769 8.06667 7.90154ZM10.8167 7.90154C11.4333 6.48 12.9667 6.86923 12.95 7.90154C12.95 8.93385 11.4167 9.25538 10.8167 7.90154ZM8.61667 7.74923H9.5V8.03692H8.61667V7.74923ZM11.5167 8.03692H11.8167V8.32462H12.1167V8.03692H12.4V7.73231H12.1167V7.42769H11.8167V7.73231H11.5167V8.03692Z" fill="#EA3B31"/>
  </g>
</svg>