<svg xmlns:xlink="http://www.w3.org/1999/xlink" xmlns="http://www.w3.org/2000/svg" width="40" height="40" viewBox="0 0 40 40" fill="none">
  <rect width="40" height="40" rx="20" fill="#0087B2"/>
  <path fill-rule="evenodd" clip-rule="evenodd" d="M13.7809 10.3105C12.3588 10.3105 11.4286 11.229 11.4286 12.4367C11.4286 13.6181 12.3319 14.5644 13.7257 14.5644H13.7535C15.2031 14.5644 16.1047 13.6183 16.1047 12.4367C16.0774 11.229 15.2031 10.3105 13.7809 10.3105ZM30.8174 21.4943V28.552H26.6617V21.967C26.6617 20.3128 26.0606 19.1839 24.5564 19.1839C23.4082 19.1839 22.7248 19.9447 22.4242 20.6807C22.3146 20.9438 22.2864 21.31 22.2864 21.6783V28.552H18.1293C18.1293 28.552 18.1853 17.3992 18.1293 16.2437H22.286V17.9884C22.282 17.9945 22.2774 18.0009 22.2729 18.0073C22.2679 18.0144 22.2628 18.0215 22.2586 18.0281H22.286V17.9884C22.8382 17.1509 23.8245 15.9546 26.032 15.9546C28.767 15.9545 30.8174 17.7137 30.8174 21.4943ZM15.8309 28.552H11.6755V16.2437H15.8309V28.552Z" fill="white"/>
</svg>