<svg xmlns:xlink="http://www.w3.org/1999/xlink" xmlns="http://www.w3.org/2000/svg" width="20" height="20" viewBox="0 0 20 20" fill="none">
  <rect width="20" height="20" fill="#F9F9F9"/>
  <mask id="mask0_0_860" style="mask-type:luminance" maskUnits="userSpaceOnUse" x="0" y="0" width="20" height="20">
    <rect width="20" height="20" fill="white"/>
  </mask>
  <g mask="url(#mask0_0_860)">
    <path fill-rule="evenodd" clip-rule="evenodd" d="M10.9278 6.93402C11.126 7.64278 11.5034 8.31308 12.0604 8.87508C12.105 8.91945 12.1656 8.94441 12.2288 8.94441C12.2921 8.94441 12.3527 8.91945 12.3972 8.87508C12.4892 8.78367 12.4892 8.63603 12.3972 8.54462C12.196 8.34153 12.0211 8.12266 11.8723 7.89211C11.915 7.92868 11.9697 7.9491 12.0266 7.94934C12.0908 7.94971 12.1524 7.92434 12.1973 7.87902C12.364 7.70937 12.5069 7.52556 12.6263 7.3316C12.748 7.53082 12.8946 7.71942 13.066 7.89306C13.111 7.93838 13.1726 7.96375 13.2368 7.96338C13.2864 7.96317 13.3344 7.94761 13.3742 7.91937C13.229 8.13996 13.0597 8.3496 12.8661 8.54464C12.7742 8.63606 12.7742 8.78369 12.8661 8.87511C12.9107 8.91948 12.9713 8.94443 13.0345 8.94443C13.0978 8.94443 13.1584 8.91948 13.2029 8.87511C13.7581 8.31491 14.1349 7.64713 14.3336 6.94089C14.3936 6.91886 14.4432 6.87333 14.4692 6.81307C14.5063 6.72707 14.4881 6.62754 14.4229 6.55979C14.5256 6.01474 14.5256 5.45463 14.4229 4.90973L14.4393 4.8931C14.4832 4.84816 14.5072 4.78773 14.5059 4.72523C14.5045 4.66273 14.478 4.60335 14.4321 4.56029C14.4015 4.53015 14.3645 4.51001 14.3255 4.49986C14.1217 3.7938 13.7395 3.12752 13.1792 2.5705C13.0876 2.48051 12.94 2.47947 12.8472 2.56815C12.8023 2.61216 12.777 2.67206 12.777 2.73456C12.777 2.79705 12.8023 2.85695 12.8472 2.90096C13.0403 3.09306 13.2098 3.29966 13.3556 3.51721C13.2683 3.47779 13.1618 3.49346 13.0898 3.56421C12.9105 3.74188 12.7576 3.93583 12.6312 4.14126C12.5053 3.93507 12.3527 3.74033 12.1736 3.56189C12.1029 3.49345 11.9998 3.47745 11.9139 3.51387C12.0589 3.29839 12.2271 3.09371 12.4186 2.90328C12.4635 2.85927 12.4887 2.79937 12.4887 2.73688C12.4887 2.67438 12.4635 2.61448 12.4186 2.57047C12.326 2.4796 12.1766 2.4796 12.0841 2.57047C11.5243 3.12702 11.1423 3.79264 10.9384 4.49803C10.9 4.50832 10.8638 4.52831 10.8336 4.55797C10.7887 4.60198 10.7634 4.66188 10.7634 4.72438C10.7634 4.78687 10.7887 4.84677 10.8336 4.89078C10.8365 4.89371 10.8394 4.89665 10.8423 4.8996C10.7374 5.44992 10.7371 6.01595 10.8417 6.56647C10.7605 6.66008 10.7664 6.80108 10.8573 6.88763C10.878 6.90733 10.9019 6.92296 10.9278 6.93402ZM11.3528 6.6882C11.4455 7.065 11.5942 7.43118 11.7988 7.77389C11.7791 7.69668 11.7996 7.61146 11.8605 7.5509C12.0791 7.32837 12.2497 7.07705 12.3722 6.80962C12.1138 6.11778 12.1151 5.35314 12.3755 4.66249C12.2492 4.38441 12.0712 4.12374 11.8416 3.8947C11.7998 3.85378 11.775 3.79911 11.7718 3.7414C11.5817 4.06977 11.4422 4.41904 11.3535 4.77807C11.7567 5.34941 11.7579 6.11508 11.3528 6.6882ZM13.9137 6.68278C13.8212 7.05962 13.6729 7.42586 13.4686 7.76866C13.4806 7.69681 13.4587 7.6205 13.4028 7.56494C13.1796 7.33741 13.0066 7.07986 12.8837 6.80581C13.1411 6.11993 13.1429 5.36217 12.8899 4.67569C13.0164 4.39788 13.1945 4.1375 13.4242 3.90874C13.4695 3.86739 13.4966 3.81034 13.5001 3.74981C13.6879 4.07646 13.8256 4.4236 13.9133 4.78033C13.5134 5.3502 13.5125 6.11159 13.9137 6.68278ZM11.9442 16.0961C11.5513 16.0961 11.2327 16.4109 11.2327 16.7992V17.2679C11.2327 17.3974 11.3389 17.5023 11.4699 17.5023H12.8929C13.0239 17.5023 13.1301 17.3974 13.1301 17.2679V16.7992C13.1324 16.44 12.8604 16.1368 12.4992 16.0961L12.8929 14.807H17.6363L18.03 16.0961C17.6689 16.1368 17.3968 16.44 17.3992 16.7992V17.2679C17.3992 17.3974 17.5053 17.5023 17.6363 17.5023H19.0594C19.1903 17.5023 19.2965 17.3974 19.2965 17.2679V16.7992C19.2965 16.4109 18.978 16.0961 18.585 16.0961H18.5234L15.5634 6.41886C15.8666 6.28024 16.0313 5.95192 15.9595 5.62958C15.8877 5.30724 15.5986 5.07765 15.2646 5.07765C14.9306 5.07765 14.6416 5.30724 14.5697 5.62958C14.4979 5.95192 14.6627 6.28024 14.9658 6.41886L12.0059 16.0961H11.9442ZM12.6557 16.7992V17.0336H11.707V16.7992C11.707 16.6698 11.8132 16.5648 11.9442 16.5648H12.4186C12.5495 16.5648 12.6557 16.6698 12.6557 16.7992ZM14.2804 10.8227H16.4149L16.0947 9.74695L14.2804 10.8227ZM16.486 11.0571L16.9889 12.6977H13.787L16.4837 11.0571H16.486ZM15.2646 7.06339L14.1807 10.6024L16.0141 9.51492L15.2646 7.06339ZM14.0432 11.0571H16.0307L13.5878 12.543L14.0432 11.0571ZM16.6023 12.9321H13.4692L12.983 14.5235L16.6023 12.9321ZM17.0766 12.9813L17.5509 14.5727H13.4526L17.0766 12.9813ZM18.8222 17.0336V16.7992C18.8222 16.6698 18.716 16.5648 18.585 16.5648H18.1107C17.9797 16.5648 17.8735 16.6698 17.8735 16.7992V17.0336H18.8222ZM15.2646 5.54934C15.3956 5.54934 15.5018 5.65427 15.5018 5.78371C15.5018 5.91315 15.3956 6.01809 15.2646 6.01809C15.1336 6.01809 15.0274 5.91315 15.0274 5.78371C15.0274 5.65427 15.1336 5.54934 15.2646 5.54934Z" fill="#EA3B31"/>
  </g>
</svg>