<svg xmlns:xlink="http://www.w3.org/1999/xlink" xmlns="http://www.w3.org/2000/svg" width="40" height="40" viewBox="0 0 40 40" fill="none">
  <rect width="40" height="40" rx="20" fill="#CD3339"/>
  <path d="M28.4468 16.7287C27.8659 12.5555 23.6776 10.4307 19.2089 10.9282C15.6759 11.3215 12.1535 14.1577 12.0073 18.2134C11.9183 20.6893 12.6254 22.5462 14.998 23.0689C16.0255 21.2634 14.6671 20.8688 14.4544 19.5609C13.5838 14.2158 20.6643 10.5653 24.3728 14.3003C26.9408 16.887 25.2487 24.84 21.1123 24.0125C17.15 23.2233 23.0529 16.8923 19.8908 15.6504C17.3201 14.6395 15.955 18.7387 17.1739 20.7765C16.4588 24.2805 14.9196 27.5799 15.543 31.9734C17.5633 30.5164 18.2452 27.7304 18.8035 24.8229C19.819 25.4366 20.3626 26.0714 21.6573 26.1704C26.4317 26.5386 29.102 21.4376 28.4468 16.7287Z" fill="white"/>
</svg>