<svg xmlns="http://www.w3.org/2000/svg" xmlns:xlink="http://www.w3.org/1999/xlink" width="16" height="16" viewBox="0 0 16 16" version="1.1">
    <title>money copy</title>
    <g id="Symbols" stroke="none" stroke-width="1" fill="none" fill-rule="evenodd">
        <g id="money-copy" fill="#DB5240" fill-rule="nonzero">
            <path d="M9.09373224,0 C9.88635569,0 10.5312294,0.65252045 10.5312294,1.45454258 C10.5312294,1.75945897 10.4378234,2.04262047 10.2787299,2.27667534 L12.781225,2.27667534 C13.5738485,2.27667534 14.2187222,2.92919579 14.2187222,3.73121792 C14.2187222,4.53324005 13.5738485,5.1857605 12.781225,5.1857605 L11.9676641,5.1857605 C12.0218828,5.26591845 12.0684764,5.35233725 12.1065076,5.44403667 C14.3490657,6.07375875 16,8.15758072 16,10.6245166 C16,13.5885581 13.6168172,16 10.6875104,16 C9.15816961,16 7.77798481,15.3424835 6.8077992,14.2924619 L3.1249939,14.2924619 C2.33237044,14.2924619 1.6874967,13.6399414 1.6874967,12.8379193 C1.6874967,12.3773036 1.90043379,11.9662688 2.23171439,11.6995816 C1.90043379,11.4328944 1.6874967,11.0218596 1.6874967,10.561244 C1.6874967,10.1006283 1.90043379,9.6895935 2.23171439,9.42290628 C1.90043379,9.15621906 1.6874967,8.7451843 1.6874967,8.28456861 C1.6874967,7.82395292 1.90043379,7.41291816 2.23171439,7.14623094 C1.90043379,6.87954372 1.6874967,6.46850896 1.6874967,6.00789327 C1.6874967,5.20587113 2.33237044,4.55335069 3.1249939,4.55335069 L3.9399923,4.55335069 C3.78086762,4.31929581 3.6874928,4.03613432 3.6874928,3.73121792 C3.6874928,3.42630153 3.78089887,3.14314003 3.9399923,2.90908516 L1.43749719,2.90908516 C0.64487374,2.90908516 0,2.25656471 0,1.45454258 C0,0.65252045 0.64487374,0 1.43749719,0 Z M10.6875104,5.88144292 C8.10282792,5.88144292 6.00001953,8.00918575 6.00001953,10.6245166 C6.00001953,13.2398474 8.10282792,15.3675902 10.6875104,15.3675902 C13.2721928,15.3675902 15.3750012,13.2398474 15.3750012,10.6245166 C15.3750012,8.00918575 13.2721928,5.88144292 10.6875104,5.88144292 Z M7.52161031,8.56551667 C7.67398501,8.64754022 7.73176615,8.83903391 7.65070381,8.99318381 C7.38861057,9.49164923 7.25004834,10.0557272 7.25004834,10.6245166 C7.25004834,11.9537471 8.01551559,13.1850174 9.20020078,13.7613009 C9.35576298,13.8369687 9.42120035,14.0259011 9.34648175,14.1833079 C9.29266935,14.2965093 9.18098207,14.3625645 9.0646073,14.3625645 C9.01920113,14.3625645 8.97307622,14.3525408 8.92942006,14.3312918 C8.24957764,14.0005731 7.67445376,13.4855386 7.26623581,12.8419035 C6.84676788,12.1804977 6.62504956,11.413764 6.62504956,10.6245166 C6.62504956,9.95251788 6.78892424,9.28570497 7.09895488,8.69614092 C7.17998598,8.5419594 7.36929811,8.48349312 7.52161031,8.56551667 Z M5.55580165,12.0157865 L3.1249939,12.0157865 C2.67696352,12.0157865 2.31249548,12.3845763 2.31249548,12.8379193 C2.31249548,13.2912623 2.67696352,13.6600521 3.1249939,13.6600521 L6.30558143,13.6600521 C5.96964459,13.1650649 5.71348884,12.6106628 5.55580165,12.0157865 Z M10.6860416,8.00633991 C10.8586038,8.00633991 10.998541,8.14793647 10.998541,8.32254482 L10.998541,8.48700299 C11.5718524,8.61923988 11.9985391,9.10644841 11.9985391,9.6858939 C11.9985391,9.86050225 11.8586018,10.0020988 11.6860397,10.0020988 C11.5134775,10.0020988 11.3735442,9.86050225 11.3735442,9.6858939 C11.3735442,9.35387875 11.0651346,9.08377651 10.6860416,9.08377651 C10.3069486,9.08377651 9.99854297,9.35387875 9.99854297,9.6858939 C9.99854297,10.0178774 10.3069486,10.2879797 10.6860416,10.2879797 C11.409759,10.2879797 11.9985391,10.8417809 11.9985391,11.5225069 C11.9985391,12.1019524 11.5718524,12.5891609 10.998541,12.7213978 L10.998541,12.8579983 C10.998541,13.0326067 10.8586038,13.1742032 10.6860416,13.1742032 C10.5134795,13.1742032 10.3735442,13.0326067 10.3735442,12.8579983 L10.3735442,12.7213978 C9.80023086,12.5891609 9.37354419,12.1019524 9.37354419,11.5225069 C9.37354419,11.3478985 9.51348142,11.206302 9.68604358,11.206302 C9.85860574,11.206302 9.99854297,11.3478985 9.99854297,11.5225069 C9.99854297,11.854522 10.3069486,12.1246243 10.6860416,12.1246243 C11.0651346,12.1246243 11.3735442,11.854522 11.3735442,11.5225069 C11.3735442,11.1904917 11.0651346,10.9203895 10.6860416,10.9203895 C9.96232429,10.9203895 9.37354419,10.3665882 9.37354419,9.6858939 C9.37354419,9.10644841 9.80023086,8.61923988 10.3735442,8.48700299 L10.3735442,8.32254482 C10.3735442,8.14793647 10.5134795,8.00633991 10.6860416,8.00633991 Z M12.4456007,6.91777289 C13.1254431,7.24845998 13.700567,7.76349454 14.1087849,8.40712963 C14.5282529,9.06850382 14.7499712,9.8352691 14.7499712,10.6245166 C14.7499712,11.2965152 14.5860965,11.9633598 14.2760659,12.5528922 C14.2198785,12.6597378 14.1117224,12.7206389 13.9999102,12.7206389 C13.9504103,12.7206389 13.9001604,12.7086863 13.8534104,12.6835164 C13.7010357,12.6014929 13.6432546,12.4099992 13.7243169,12.2558493 C13.9864102,11.7573839 14.1249724,11.1933059 14.1249724,10.6245166 C14.1249724,9.29525436 13.3595052,8.06398406 12.1747887,7.48773224 C12.0192265,7.4120644 11.9537579,7.22316359 12.028539,7.06575679 C12.1032889,6.90834998 12.2900072,6.84207343 12.4456007,6.91777289 Z M5.44748936,9.73911119 L3.1249939,9.73911119 C2.67696352,9.73911119 2.31249548,10.107901 2.31249548,10.561244 C2.31249548,11.0145869 2.67696352,11.3833767 3.1249939,11.3833767 L5.42820815,11.3833767 C5.39342697,11.1353772 5.37502075,10.8820971 5.37502075,10.6245166 C5.37502075,10.3229519 5.4000832,10.0272687 5.44748936,9.73911119 Z M6.39420626,7.46243584 L3.1249939,7.46243584 C2.67696352,7.46243584 2.31249548,7.83125725 2.31249548,8.28456861 C2.31249548,8.73791159 2.67696352,9.10670137 3.1249939,9.10670137 L5.59098908,9.10670137 C5.76517624,8.50891599 6.03945695,7.95422934 6.39420626,7.46243584 Z M11.1772594,6.51388436 C11.3498216,6.51470649 11.4890713,6.65693546 11.4882933,6.83157543 C11.4874776,7.00570947 11.3477278,7.14629418 11.1758219,7.14629418 L11.1562282,7.14626256 C10.983666,7.14626256 10.8437288,7.00469762 10.8437288,6.83005765 C10.8437288,6.65541768 10.983666,6.51385274 11.1562282,6.51385274 L11.1772594,6.51388436 Z M10.7812289,5.1857605 L3.1249939,5.1857605 C2.67699477,5.1857605 2.31249548,5.55458191 2.31249548,6.00789327 C2.31249548,6.46120462 2.67699477,6.83002603 3.1249939,6.83002603 L6.92817397,6.83002603 C7.89048459,5.85390147 9.22048199,5.2490331 10.6875104,5.2490331 C10.8385101,5.2490331 10.9879473,5.25579989 11.1357595,5.26835322 C11.0276347,5.21535728 10.9071037,5.1857605 10.7812289,5.1857605 Z M12.781225,2.90908516 L5.12498999,2.90908516 C4.67695962,2.90908516 4.31249158,3.27790657 4.31249158,3.73121792 C4.31249158,4.18452928 4.67695962,4.55335069 5.12498999,4.55335069 L12.781225,4.55335069 C13.2292554,4.55335069 13.5937234,4.18452928 13.5937234,3.73121792 C13.5937234,3.27790657 13.2292554,2.90908516 12.781225,2.90908516 Z M9.09373224,0.632409817 L1.43749719,0.632409817 C0.989466817,0.632409817 0.624998779,1.00123122 0.624998779,1.45454258 C0.624998779,1.90785394 0.989466817,2.27667534 1.43749719,2.27667534 L9.09373224,2.27667534 C9.54176261,2.27667534 9.90623065,1.90785394 9.90623065,1.45454258 C9.90623065,1.00123122 9.54176261,0.632409817 9.09373224,0.632409817 Z" id="Combined-Shape"/>
        </g>
    </g>
</svg>