<svg xmlns:xlink="http://www.w3.org/1999/xlink" xmlns="http://www.w3.org/2000/svg" width="20" height="20" viewBox="0 0 20 20" fill="none">
  <rect width="20" height="20" fill="#F9F9F9"/>
  <mask id="mask0_0_733" style="mask-type:luminance" maskUnits="userSpaceOnUse" x="0" y="0" width="20" height="20">
    <rect width="20" height="20" fill="white"/>
  </mask>
  <g mask="url(#mask0_0_733)">
    <path fill-rule="evenodd" clip-rule="evenodd" d="M16.4786 5.92088C16.3955 5.64473 16.0911 5.47905 15.8144 5.56189L14.6798 5.89326L14.0157 5.28574L14.2094 4.4021L15.3717 4.0431C15.6484 3.96029 15.8144 3.65654 15.7314 3.38039C15.6484 3.10424 15.344 2.93856 15.0672 3.0214L13.6006 3.46323C13.4345 3.51845 13.2962 3.65654 13.2408 3.84982L12.9364 5.09246L9.94777 6.22463C9.39432 5.47905 8.50877 4.98199 7.51255 4.98199C5.85218 4.98199 4.4962 6.36269 4.4962 7.99194C4.4962 8.54421 4.66223 9.06889 4.93897 9.53832V14.8955H4.05345C3.74906 14.8955 3.5 15.144 3.5 15.4477C3.5 15.7515 3.74906 16 4.05345 16H10.9993C11.3037 16 11.5251 15.7515 11.5528 15.4477C11.5528 15.144 11.3037 14.8955 10.9993 14.8955H10.1138V9.45551C10.3629 9.01367 10.5289 8.48902 10.5289 7.96434C10.5289 7.68819 10.5012 7.43967 10.4182 7.19114L13.2962 6.08657L14.154 6.91499C14.2371 6.99783 14.3754 7.05305 14.5138 7.05305C14.5415 7.05305 14.5968 7.05305 14.6521 7.02543L16.1188 6.58359C16.3955 6.50078 16.5616 6.19703 16.4786 5.92088ZM9.00688 14.8955H6.04589V10.5877C6.48867 10.8362 6.98678 10.9743 7.51255 10.9743C8.066 10.9743 8.56411 10.8362 9.00688 10.5601V14.8955ZM5.60312 7.96434C5.60312 9.01367 6.46099 9.86972 7.51255 9.86972C8.56411 9.86972 9.42198 9.01367 9.42198 7.96434C9.42198 6.91502 8.56411 6.05897 7.51255 6.05897C6.46099 6.05897 5.60312 6.91502 5.60312 7.96434Z" fill="#EA3B31"/>
  </g>
</svg>