<svg xmlns:xlink="http://www.w3.org/1999/xlink" xmlns="http://www.w3.org/2000/svg" width="83" height="58" viewBox="0 0 83 58" fill="none">
<path fill-rule="evenodd" clip-rule="evenodd" d="M62.5228 36.5224C57.6388 36.5224 53.5275 39.8954 52.397 44.4342H36.9973C35.8647 39.8954 31.755 36.5224 26.8699 36.5224C21.986 36.5224 17.8752 39.8954 16.7442 44.4342H10.0003C8.5605 44.4342 7.39208 45.6026 7.39208 47.044C7.39208 48.4844 8.5605 49.6528 10.0003 49.6528H16.789C17.9795 54.1046 22.0492 57.3911 26.8699 57.3911C31.6922 57.3911 35.7604 54.1046 36.9525 49.6528H52.4418C53.6324 54.1046 57.7005 57.3911 62.5228 57.3911C67.3467 57.3911 71.4132 54.1046 72.6054 49.6528H80.175C81.6165 49.6528 82.7849 48.4844 82.7849 47.044V30.0864C82.7849 29.5082 82.5909 28.9449 82.2368 28.4863L77.3723 22.221L77.3771 22.2195L69.5502 6.65424C69.1064 5.77253 68.2057 5.21704 67.2181 5.21704H56.0883V2.60878C56.0883 1.16684 54.9199 0 53.4801 0H10.0003C8.5605 0 7.39208 1.16842 7.39208 2.60878C7.39208 4.04862 8.5605 5.21704 10.0003 5.21704H50.8713V23.4791C50.8713 24.9189 52.0381 26.0873 53.4801 26.0873H73.7674L77.5668 30.9813V44.4342H72.6486C71.5176 39.8954 67.4078 36.5224 62.5228 36.5224ZM29.1319 10.695H6.87085C5.42891 10.695 4.26207 11.8634 4.26207 13.3037C4.26207 14.7452 5.42891 15.912 6.87085 15.912H29.1319C30.5718 15.912 31.7402 14.7452 31.7402 13.3037C31.7402 11.8634 30.5718 10.695 29.1319 10.695ZM24.8709 20.9572H2.60826C1.16842 20.9572 0 22.1241 0 23.5655C0 25.0059 1.16842 26.1737 2.60826 26.1737H24.8709C26.3113 26.1737 27.4792 25.0059 27.4792 23.5655C27.4792 22.1241 26.3113 20.9572 24.8709 20.9572ZM18.8697 31.2174H6.87085C5.42891 31.2174 4.26207 32.3858 4.26207 33.8256C4.26207 35.2676 5.42891 36.4344 6.87085 36.4344H18.8697C20.3116 36.4344 21.4785 35.2676 21.4785 33.8256C21.48 32.3858 20.3116 31.2174 18.8697 31.2174ZM70.8556 20.8687H56.0883V10.4351H65.6107L70.8556 20.8687ZM26.8699 52.1741C23.9924 52.1741 21.6529 49.8336 21.6529 46.956C21.6529 44.08 23.9924 41.739 26.8699 41.739C29.747 41.739 32.088 44.08 32.088 46.956C32.088 49.8346 29.747 52.1741 26.8699 52.1741ZM62.5228 52.1741C59.6452 52.1741 57.3058 49.8336 57.3058 46.956C57.3058 44.08 59.6452 41.739 62.5228 41.739C65.3998 41.739 67.7409 44.08 67.7409 46.956C67.7409 49.8346 65.3998 52.1741 62.5228 52.1741V52.1741Z" fill="white"/>
</svg>