<svg xmlns:xlink="http://www.w3.org/1999/xlink" xmlns="http://www.w3.org/2000/svg" width="66" height="66" viewBox="0 0 66 66" fill="none">
<path fill-rule="evenodd" clip-rule="evenodd" d="M28.9652 26.1693L21.2175 28.8706V32.2476L28.9652 29.5453V31.1667C27.7357 31.4517 22.4615 33.581 21.2175 33.8675V37.245C22.4174 36.9668 27.8874 34.7941 28.9652 34.5437V54.5348C29.2774 54.6081 29.5615 54.6489 29.841 54.671H31.9555C38.2291 54.671 44.6076 50.72 47.9662 45.7288C50.154 42.4762 51.5263 38.6615 51.5263 34.2732H47.3138C47.3138 37.1924 46.3819 40.6778 44.7593 43.0802C43.2057 45.3804 41.4022 47.1319 38.9298 48.5003C37.5372 49.2716 35.1032 50.1888 33.1777 50.3484V32.9223C34.5776 32.5992 44.7504 28.6657 45.5467 28.6001V25.2226C44.9608 25.2727 44.5531 25.5169 44.0009 25.713C41.8999 26.4594 34.6737 29.2 33.1777 29.5453V27.9255C34.0815 27.8506 44.6356 23.6776 45.5467 23.6028V20.2258C44.9328 20.2769 37.2412 23.1552 36.3207 23.4846L33.1777 24.5485V14.1475H28.9652V26.1693Z" fill="white"/>
<path fill-rule="evenodd" clip-rule="evenodd" d="M0.032949 11.2147C-0.189363 9.85712 0.736765 8.57539 2.10284 8.35445C3.46944 8.13197 4.75916 9.05236 4.98148 10.41L5.59128 14.0915C7.47002 11.4212 9.72535 9.05649 12.2742 7.06652L12.4066 6.96844C16.896 3.49748 22.273 1.16682 28.0744 0.338313C37.1399 -0.955295 45.8838 1.53126 52.6867 6.59264L52.6966 6.59987C59.4979 11.6628 64.3581 19.3021 65.6598 28.313C66.9609 37.3254 64.4594 46.0126 59.3665 52.7728C54.2751 59.5418 46.5835 64.3704 37.5108 65.6655C30.6154 66.6489 23.7674 65.4317 17.8148 62.4392C11.8664 59.4509 6.82075 54.6853 3.52658 48.5735C2.8747 47.3604 3.33699 45.8474 4.55867 45.199C5.78087 44.5507 7.30173 45.0101 7.95413 46.2247C10.7517 51.4136 15.0302 55.4581 20.0717 57.9906C25.1075 60.5221 30.9235 61.5509 36.795 60.7125C44.4954 59.6135 51.0214 55.5164 55.3409 49.785C59.6641 44.0546 61.7812 36.6801 60.6754 29.0243C59.5701 21.3669 55.4485 14.8834 49.6829 10.5886C43.9142 6.29841 36.4932 4.19281 28.7897 5.29181C23.8443 5.99694 19.2811 7.96626 15.4899 10.8973L15.3824 10.9866C13.072 12.7907 11.0447 14.9521 9.38981 17.3999L13.8542 15.9643C15.1746 15.5416 16.5926 16.2632 17.0165 17.5744C17.4424 18.8866 16.7178 20.2958 15.3969 20.717L5.07705 24.0388L4.96953 24.062C4.89006 24.0842 4.81059 24.1033 4.72956 24.1162L4.71034 24.1209L4.60178 24.1353L4.58256 24.1384L4.54101 24.141C4.24546 24.1689 3.95666 24.1441 3.68292 24.0739L3.65643 24.0682L3.62267 24.0579C3.47827 24.0156 3.33855 23.9645 3.20454 23.8984L3.20298 23.8968L3.15 23.8721L3.14688 23.869L3.09702 23.8442L3.09078 23.8401L3.04507 23.8137L3.0352 23.8075L2.99209 23.7828L2.98222 23.7771L2.94223 23.7518L2.92924 23.743L2.89236 23.7182L2.8773 23.7079L2.84198 23.6847L2.82744 23.6718L2.79367 23.6496L2.77757 23.6367L2.74641 23.6114L2.72875 23.5969L2.7007 23.5737L2.68148 23.5587L2.65343 23.5355L2.63577 23.518L2.60928 23.4947L2.59058 23.4772H2.58902L2.50332 23.392L2.4815 23.3688L2.46228 23.3481L2.43995 23.3249L2.42125 23.3042C2.15011 22.994 1.95429 22.6151 1.85716 22.1908L1.8556 22.1892L1.84521 22.1325L1.84365 22.1263L1.83482 22.0736L1.83222 22.0633L0.032949 11.2147Z" fill="white"/>
</svg>