<svg xmlns:xlink="http://www.w3.org/1999/xlink" xmlns="http://www.w3.org/2000/svg" width="20" height="20" viewBox="0 0 20 20" fill="none">
  <rect width="20" height="20" fill="#F9F9F9"/>
  <mask id="mask0_0_788" style="mask-type:luminance" maskUnits="userSpaceOnUse" x="0" y="0" width="20" height="20">
    <rect width="20" height="20" fill="white"/>
  </mask>
  <g mask="url(#mask0_0_788)">
    <path fill-rule="evenodd" clip-rule="evenodd" d="M16.5484 6.6129H16.0968C15.8478 6.6129 15.6452 6.4103 15.6452 6.16129V6.1351C15.5851 6.15226 15.5223 6.16129 15.4581 6.16129H15.3258C15.0039 6.16129 14.7419 6.42323 14.7419 6.74517V8.00658C15.0047 8.09978 15.1935 8.35079 15.1935 8.64516V10.6774H16.3226C16.6961 10.6774 17 10.9813 17 11.3548V15.871C17 16.4935 16.4935 17 15.871 17H4.12903C3.50648 17 3 16.4935 3 15.871V11.3548C3 10.9813 3.30388 10.6774 3.67742 10.6774H4.35484V8.85488C3.58983 8.745 3 8.08525 3 7.29032V6.83871C3 5.96715 3.70909 5.25806 4.58065 5.25806H4.80645V6.6129H5.70968V5.25806H5.93548C6.80704 5.25806 7.51613 5.96715 7.51613 6.83871V7.29032C7.51613 8.08522 6.92629 8.74497 6.16129 8.85488V10.6774H7.51796C7.53168 10.4037 7.65006 10.1524 7.84471 9.9705L7.6758 9.80157C7.57283 9.69863 7.51613 9.56174 7.51613 9.41609C7.51613 9.14747 7.71165 8.92412 7.96774 8.87958V5.12577C7.96774 4.92921 8.02425 4.74131 8.12965 4.58065C8.02425 4.42001 7.96774 4.23211 7.96774 4.03552V3.45161C7.96774 3.2026 8.17035 3 8.41935 3H8.87097C9.11998 3 9.32258 3.2026 9.32258 3.45161V4.03552C9.32258 4.23208 9.26607 4.41998 9.16071 4.58065C9.2661 4.74128 9.32261 4.92918 9.32261 5.12577V8.87958C9.5787 8.92412 9.77422 9.14744 9.77422 9.41609C9.77422 9.56171 9.71752 9.69863 9.61455 9.80157L9.44562 9.9705C9.64026 10.1524 9.75864 10.4037 9.77236 10.6774H10.6774V9.17016C10.1311 8.91094 9.77419 8.35582 9.77419 7.74196C9.77419 6.87041 10.4833 6.16132 11.3548 6.16132C12.2264 6.16132 12.9355 6.87041 12.9355 7.74196C12.9355 8.35579 12.5785 8.91091 12.0323 9.17016V10.6774H12.9355V8.64519C12.9355 8.35082 13.1243 8.09981 13.3871 8.00661V6.33231C13.3871 5.73996 12.9052 5.25806 12.3129 5.25806C12.0466 5.25806 11.7963 5.36174 11.608 5.55C11.5051 5.65297 11.3682 5.70968 11.2225 5.70968C10.922 5.70968 10.6774 5.46513 10.6774 5.16455C10.6774 5.01891 10.7341 4.88201 10.8371 4.77907C11.4019 4.21427 12.1528 3.90323 12.9515 3.90323H15.4581C15.5223 3.90323 15.5851 3.91226 15.6452 3.92942V3.90323C15.6452 3.65422 15.8478 3.45161 16.0968 3.45161H16.5484C16.7974 3.45161 17 3.65422 17 3.90323V6.16129C17 6.4103 16.7974 6.6129 16.5484 6.6129ZM16.5484 3.90323H16.0968V6.16129H16.5484V3.90323ZM13.8387 7.06452H14.2903V7.96774H13.8387V7.06452ZM14.5161 8.41935H13.6129C13.4884 8.41935 13.3871 8.52066 13.3871 8.64516V12.0323H14.7419V8.64516C14.7419 8.52066 14.6406 8.41935 14.5161 8.41935ZM12.0323 13.6129V14.0645C12.0323 14.438 11.7284 14.7419 11.3548 14.7419H8.64516C8.27165 14.7419 7.96774 14.438 7.96774 14.0645V13.6129C7.96774 13.5799 7.97505 13.5486 7.98784 13.5203C8.0448 13.7045 8.21669 13.8387 8.41935 13.8387H11.5806C11.7833 13.8387 11.9552 13.7045 12.0122 13.5203C12.0249 13.5486 12.0323 13.5799 12.0323 13.6129ZM7.96774 12.9355V12.4839H3.45161V12.9355H7.96774ZM8.25175 10.2258H9.03857C9.21484 10.3326 9.32258 10.5218 9.32258 10.7307V12.0323H7.96774V10.7307C7.96774 10.5218 8.07548 10.3326 8.25175 10.2258ZM10.6774 12.4839H8.41935V13.3871H11.5806V12.4839H10.6774ZM12.0323 12.9355V12.4839H16.5484V12.9355H12.0323ZM12.9355 12.0323V11.129H12.0323V12.0323H12.9355ZM10.2258 7.74194C10.2258 7.11939 10.7323 6.6129 11.3548 6.6129C11.9774 6.6129 12.4839 7.11939 12.4839 7.74194C12.4839 8.21949 12.1814 8.64731 11.7312 8.80647L11.5806 8.85971V12.0323H11.129V8.85971L10.9785 8.80647C10.5283 8.64731 10.2258 8.21949 10.2258 7.74194ZM9.77419 12.0323H10.6774V11.129H9.77419V12.0323ZM8.41935 3.45161H8.87097V4.03552C8.87097 4.15195 8.83419 4.26246 8.76701 4.35484H8.52328C8.45613 4.26246 8.41935 4.15192 8.41935 4.03552V3.45161ZM8.76704 4.80645H8.52331C8.45613 4.89883 8.41935 5.00937 8.41938 5.12577V8.87097H8.871V5.12577C8.871 5.00937 8.83419 4.89883 8.76704 4.80645ZM8.06125 9.32258H9.22904C9.28061 9.32258 9.32255 9.36452 9.32255 9.41609C9.32255 9.44107 9.31281 9.46456 9.29517 9.48223L9.00323 9.77419H8.28709L7.99512 9.48223C7.97748 9.46458 7.96774 9.4411 7.96774 9.41612C7.96774 9.36452 8.00969 9.32258 8.06125 9.32258ZM7.51613 12.0323V11.129H6.16129V12.0323H7.51613ZM3.45161 7.29032V6.83871C3.45161 6.2935 3.84014 5.83729 4.35484 5.73237V7.06452H6.16129V5.73237C6.67599 5.83729 7.06452 6.2935 7.06452 6.83871V7.29032C7.06452 7.91287 6.55803 8.41935 5.93548 8.41935H5.70968V12.0323H4.80645V8.41935H4.58065C3.9581 8.41935 3.45161 7.91287 3.45161 7.29032ZM4.35484 11.129H3.67742C3.55292 11.129 3.45161 11.2303 3.45161 11.3548V12.0323H4.35484V11.129ZM15.871 16.5484H4.12903C3.75549 16.5484 3.45161 16.2445 3.45161 15.871V13.3871H7.55497C7.5299 13.4578 7.51613 13.5337 7.51613 13.6129V14.0645C7.51613 14.6871 8.02261 15.1935 8.64516 15.1935H11.3548C11.9774 15.1935 12.4839 14.6871 12.4839 14.0645V13.6129C12.4839 13.5337 12.4701 13.4578 12.445 13.3871H16.5484V15.871C16.5484 16.2445 16.2445 16.5484 15.871 16.5484ZM16.5484 11.3548C16.5484 11.2303 16.4471 11.129 16.3226 11.129H15.1935V12.0323H16.5484V11.3548ZM15.6178 5.64354C15.5751 5.68619 15.5184 5.70968 15.4581 5.70968H15.3258C14.7997 5.70968 14.3642 6.10422 14.2991 6.6129H13.8387V6.33231C13.8387 5.49093 13.1542 4.80645 12.3129 4.80645C11.926 4.80645 11.5623 4.95709 11.2887 5.23069C11.271 5.24833 11.2476 5.25806 11.2226 5.25806C11.171 5.25806 11.1291 5.21612 11.1291 5.16455C11.1291 5.13957 11.1388 5.11606 11.1565 5.09839C11.6359 4.61889 12.2734 4.35484 12.9515 4.35484H15.4581C15.5184 4.35484 15.5751 4.37832 15.6178 4.42097L15.6451 4.44835V5.61614L15.6178 5.64354ZM12.0323 7.74194C12.0323 7.3684 11.7284 7.06452 11.3548 7.06452C10.9813 7.06452 10.6774 7.3684 10.6774 7.74194C10.6774 8.11548 10.9813 8.41935 11.3548 8.41935C11.7284 8.41935 12.0323 8.11548 12.0323 7.74194ZM11.129 7.74194C11.129 7.61743 11.2303 7.51613 11.3548 7.51613C11.4793 7.51613 11.5806 7.61743 11.5806 7.74194C11.5806 7.86644 11.4793 7.96774 11.3548 7.96774C11.2303 7.96774 11.129 7.86644 11.129 7.74194Z" fill="#EA3B31"/>
  </g>
</svg>