<svg xmlns:xlink="http://www.w3.org/1999/xlink" xmlns="http://www.w3.org/2000/svg" width="20" height="20" viewBox="0 0 20 20" fill="none">
  <rect width="20" height="20" fill="#F9F9F9"/>
  <mask id="mask0_0_850" style="mask-type:luminance" maskUnits="userSpaceOnUse" x="0" y="0" width="20" height="20">
    <rect width="20" height="20" fill="white"/>
  </mask>
  <g mask="url(#mask0_0_850)">
    <path fill-rule="evenodd" clip-rule="evenodd" d="M15.9538 7.25373C15.9538 7.22886 15.9654 7.20398 15.9769 7.1791C15.9885 7.15423 16 7.12935 16 7.10448V7.05473V7.00498V6.85572V6.80597C16 6.78109 15.9885 6.75622 15.9769 6.73134C15.9654 6.70647 15.9538 6.68159 15.9538 6.65672L15.8615 6.55721L10.7846 3.07463C10.6462 2.97512 10.4154 2.97512 10.2769 3.07463L4.27692 7.55224L4.23077 7.60199H4.18462C4.16154 7.62687 4.15 7.65174 4.13846 7.67662C4.12692 7.70149 4.11538 7.72637 4.09231 7.75124V7.80099C4 7.95025 4 8 4 8.04975V11.0348V14.0199C4 14.1692 4.09231 14.3682 4.23077 14.4179L9.30769 17.9005C9.4 17.9502 9.49231 18 9.53846 18C9.63077 18 9.72308 17.9502 9.81538 17.9005L15.8154 13.4229C15.9077 13.3234 16 13.2239 16 13.0746C16 12.9254 15.9538 12.7761 15.8615 12.6766C15.4462 12.2289 15.3538 11.5821 15.6308 10.9851L15.9538 10.2388C15.9538 10.2139 15.9654 10.1891 15.9769 10.1642C15.9885 10.1393 16 10.1144 16 10.0896V10.0398C16 9.99005 16 9.89055 15.9538 9.8408V9.79104C15.9538 9.74129 15.9077 9.69154 15.8615 9.64179C15.4462 9.19403 15.3538 8.54726 15.6308 7.95025L15.9538 7.25373ZM14.8923 9.9403L9.53846 13.9204L4.92308 10.7861V8.99502L9.30769 11.9801C9.4 12.0299 9.49231 12.0796 9.53846 12.0796C9.63077 12.0796 9.72308 12.0299 9.81538 11.9801L14.5692 8.44776C14.5231 8.94527 14.6154 9.44279 14.8923 9.9403ZM4.92308 13.7711L9.53846 16.9055L14.8923 12.9751C14.6154 12.5274 14.5231 11.9801 14.5692 11.4328L9.81538 14.9652C9.72308 15.0149 9.63077 15.0647 9.53846 15.0647C9.49231 15.0647 9.4 15.0149 9.30769 14.9652L4.92308 11.9801V13.7711Z" fill="#EA3B31"/>
  </g>
</svg>