<svg xmlns:xlink="http://www.w3.org/1999/xlink" xmlns="http://www.w3.org/2000/svg" width="20" height="20" viewBox="0 0 20 20" fill="none">
  <rect width="20" height="20" fill="#F9F9F9"/>
  <mask id="mask0_0_820" style="mask-type:luminance" maskUnits="userSpaceOnUse" x="0" y="0" width="20" height="20">
    <rect width="20" height="20" fill="white"/>
  </mask>
  <g mask="url(#mask0_0_820)">
    <path fill-rule="evenodd" clip-rule="evenodd" d="M6.30956 9.62768C6.68946 9.62768 7.06236 9.56351 7.41798 9.43695C7.53409 9.39563 7.59474 9.26788 7.55351 9.15162C7.51222 9.03536 7.3846 8.97468 7.26855 9.01594C6.96103 9.12537 6.63838 9.18087 6.30959 9.18087C4.73076 9.18087 3.44626 7.89472 3.44626 6.31385C3.44626 4.73299 4.73076 3.44684 6.30959 3.44684C7.88842 3.44684 9.17292 4.73299 9.17292 6.31385C9.17292 6.63418 9.12042 6.94892 9.01692 7.24929C8.9767 7.36594 9.03858 7.4931 9.15507 7.53334C9.27151 7.57355 9.3986 7.51165 9.43876 7.39501C9.55847 7.04763 9.61915 6.68387 9.61915 6.31382C9.61915 4.48659 8.13451 3 6.30959 3C4.48468 3 3 4.48659 3 6.31385C3 8.14112 4.48465 9.62768 6.30956 9.62768ZM9.16736 12.4536C9.05107 12.4945 8.98982 12.6219 9.03054 12.7383C9.13693 13.0425 9.19089 13.3614 9.19089 13.6862C9.19089 15.267 7.90639 16.5532 6.32756 16.5532C4.74873 16.5532 3.46423 15.267 3.46423 13.6862C3.46423 12.1053 4.74873 10.8192 6.32756 10.8192C6.65182 10.8192 6.97028 10.8732 7.27417 10.9797C7.39055 11.0205 7.51775 10.9592 7.55848 10.8427C7.59921 10.7263 7.53795 10.5988 7.42164 10.558C7.07024 10.4348 6.70216 10.3724 6.32756 10.3724C4.50265 10.3724 3.018 11.8589 3.018 13.6862C3.018 15.5134 4.50265 17 6.32756 17C8.15248 17 9.63712 15.5134 9.63712 13.6862C9.63712 13.311 9.57474 12.9424 9.4517 12.5907C9.41097 12.4742 9.28368 12.4128 9.16736 12.4536ZM12.5963 10.558C12.9477 10.4348 13.3158 10.3724 13.6904 10.3724C15.5153 10.3724 17 11.8589 17 13.6862C17 15.5134 15.5153 17 13.6904 17C11.8655 17 10.3808 15.5134 10.3808 13.6862C10.3808 13.3111 10.4432 12.9425 10.5663 12.5907C10.607 12.4743 10.7343 12.4129 10.8506 12.4537C10.9669 12.4945 11.0282 12.6219 10.9874 12.7383C10.881 13.0426 10.8271 13.3615 10.8271 13.6862C10.8271 15.267 12.1116 16.5532 13.6904 16.5532C15.2692 16.5532 16.5537 15.267 16.5537 13.6862C16.5537 12.1053 15.2692 10.8192 13.6904 10.8192C13.3661 10.8192 13.0477 10.8732 12.7438 10.9797C12.6275 11.0205 12.5002 10.9592 12.4595 10.8427C12.4188 10.7263 12.48 10.5988 12.5963 10.558ZM10.8506 7.54636C10.9669 7.50558 11.0282 7.37812 10.9875 7.26168C10.8811 6.95743 10.8271 6.63853 10.8271 6.31385C10.8271 4.73299 12.1116 3.44684 13.6904 3.44684C15.2693 3.44684 16.5538 4.73299 16.5538 6.31385C16.5538 7.89472 15.2693 9.18087 13.6904 9.18087C13.3661 9.18087 13.0477 9.12686 12.7438 9.02031C12.6275 8.97957 12.5002 9.0409 12.4595 9.15734C12.4188 9.2738 12.48 9.40123 12.5964 9.44204C12.9477 9.56524 13.3158 9.6277 13.6904 9.6277C15.5154 9.6277 17 8.14112 17 6.31388C17 4.48665 15.5153 3.00003 13.6904 3.00003C11.8655 3.00003 10.3808 4.48662 10.3808 6.31385C10.3808 6.68893 10.4432 7.05752 10.5663 7.40934C10.607 7.5258 10.7343 7.58716 10.8506 7.54636ZM12.8847 13.8272C12.9008 13.9194 12.9322 14.0063 12.9763 14.0852L11.982 15.0809C11.8948 15.1681 11.8948 15.3096 11.982 15.3968C12.0255 15.4404 12.0827 15.4623 12.1397 15.4623C12.1968 15.4623 12.254 15.4405 12.2975 15.3968L13.2919 14.4012C13.4099 14.4674 13.5458 14.5053 13.6905 14.5053C14.1415 14.5053 14.5086 14.1379 14.5086 13.6862C14.5086 13.5414 14.4707 13.4053 14.4046 13.2871L15.399 12.2914C15.4861 12.2042 15.4861 12.0627 15.399 11.9755C15.3118 11.8883 15.1706 11.8883 15.0834 11.9755L14.089 12.9712C14.0102 12.927 13.9234 12.8955 13.8314 12.8794L11.389 10.4339C11.4321 10.2968 11.4553 10.1511 11.4553 10C11.4553 9.84893 11.432 9.70319 11.3889 9.56613L13.8314 7.12058C13.9234 7.10449 14.0102 7.07307 14.089 7.02883L15.0834 8.0245C15.127 8.06811 15.1841 8.08994 15.2412 8.08994C15.2983 8.08994 15.3554 8.06814 15.399 8.0245C15.4861 7.93725 15.4861 7.79579 15.399 7.70858L14.4046 6.71288C14.4707 6.59472 14.5086 6.45865 14.5086 6.31382C14.5086 5.86213 14.1415 5.49468 13.6905 5.49468C13.5458 5.49468 13.41 5.53259 13.2919 5.59881L12.2975 4.60315C12.2104 4.5159 12.0691 4.5159 11.982 4.60315C11.8949 4.69039 11.8949 4.83185 11.982 4.91907L12.9764 5.91476C12.9322 5.99367 12.9008 6.08056 12.8847 6.17272L10.4423 8.61828C10.3055 8.57515 10.1599 8.55182 10.009 8.55182C9.85816 8.55182 9.7126 8.57518 9.57575 8.61828L7.13334 6.17272C7.11727 6.08056 7.08589 5.99367 7.04171 5.91476L8.03613 4.91907C8.12326 4.83182 8.12326 4.69036 8.03613 4.60315C7.94899 4.5159 7.80775 4.5159 7.72058 4.60315L6.72617 5.59881C6.60815 5.53259 6.47226 5.49468 6.32762 5.49468C5.87654 5.49468 5.50953 5.86213 5.50953 6.31382C5.50953 6.45865 5.5474 6.59472 5.61353 6.71288L4.61914 7.70858C4.53201 7.79582 4.53201 7.93728 4.61914 8.0245C4.66272 8.06811 4.71984 8.08994 4.77693 8.08994C4.83402 8.08994 4.89114 8.06814 4.93472 8.0245L5.9291 7.02883C6.00791 7.07304 6.09472 7.10449 6.18676 7.12058L8.62917 9.56613C8.58609 9.70319 8.56277 9.8489 8.56277 10C8.56277 10.1511 8.58607 10.2968 8.62914 10.4339L6.18673 12.8795C6.09469 12.8955 6.00788 12.927 5.92907 12.9712L4.93469 11.9755C4.84755 11.8883 4.70631 11.8883 4.61914 11.9755C4.53201 12.0628 4.53201 12.2042 4.61914 12.2915L5.61353 13.2871C5.5474 13.4053 5.50953 13.5414 5.50953 13.6862C5.50953 14.1379 5.87654 14.5054 6.32762 14.5054C6.47226 14.5054 6.60815 14.4674 6.72617 14.4012L7.72058 15.3969C7.76416 15.4405 7.82128 15.4623 7.87837 15.4623C7.93546 15.4623 7.99258 15.4405 8.03616 15.3969C8.12329 15.3096 8.12329 15.1681 8.03616 15.0809L7.04174 14.0852C7.08589 14.0064 7.1173 13.9195 7.13334 13.8273L9.57575 11.3817C9.71263 11.4249 9.85816 11.4482 10.0091 11.4482C10.16 11.4482 10.3055 11.4249 10.4424 11.3817L12.8847 13.8272ZM13.6904 13.3138C13.7926 13.3138 13.8852 13.3553 13.9525 13.4223C14.0209 13.4912 14.0623 13.5839 14.0623 13.6862C14.0623 13.8915 13.8955 14.0585 13.6904 14.0585C13.5882 14.0585 13.4956 14.017 13.4283 13.95C13.36 13.8812 13.3185 13.7884 13.3185 13.6862C13.3185 13.4809 13.4853 13.3138 13.6904 13.3138ZM13.6904 5.94154C13.5883 5.94154 13.4956 5.98301 13.4269 6.05149C13.36 6.11884 13.3185 6.21159 13.3185 6.31388C13.3185 6.51921 13.4853 6.68622 13.6904 6.68622C13.7925 6.68622 13.8852 6.64476 13.9539 6.57628C14.0208 6.5089 14.0623 6.41617 14.0623 6.31388C14.0623 6.10856 13.8955 5.94154 13.6904 5.94154ZM13.2919 12.9712C13.1598 13.0452 13.0503 13.1549 12.9763 13.2871L10.8611 11.1691C10.9818 11.0807 11.0883 10.974 11.1766 10.8532L13.2919 12.9712ZM13.2919 7.02886C13.1598 6.95478 13.0503 6.84514 12.9763 6.71294L10.8611 8.8309C10.9818 8.91934 11.0883 9.02597 11.1766 9.14682L13.2919 7.02886ZM6.32756 6.68619C6.2254 6.68619 6.13279 6.6447 6.0655 6.57771C5.99711 6.50887 5.9557 6.41611 5.9557 6.31385C5.9557 6.10853 6.12253 5.94151 6.32756 5.94151C6.42972 5.94151 6.52233 5.98301 6.58962 6.05C6.65801 6.11884 6.69942 6.21159 6.69942 6.31385C6.69942 6.51918 6.53262 6.68619 6.32756 6.68619ZM7.04162 6.71291C6.96764 6.84514 6.85816 6.95475 6.72614 7.02883L8.84137 9.14682C8.9297 9.02597 9.0362 8.91934 9.15689 8.8309L7.04162 6.71291ZM6.59108 13.9486C6.52233 14.0171 6.42969 14.0585 6.32756 14.0585C6.12253 14.0585 5.9557 13.8915 5.9557 13.6862C5.9557 13.5839 5.99714 13.4912 6.06404 13.4238C6.13279 13.3553 6.22543 13.3138 6.32756 13.3138C6.53262 13.3138 6.69942 13.4809 6.69942 13.6862C6.69942 13.7885 6.65798 13.8812 6.59108 13.9486ZM6.72614 12.9712C6.85816 13.0453 6.96767 13.1549 7.04165 13.2871L9.15689 11.1691C9.0362 11.0807 8.9297 10.9741 8.84137 10.8532L6.72614 12.9712ZM10.009 11.0014C9.45756 11.0014 9.00895 10.5521 9.00895 10C9.00895 9.44785 9.45756 8.99866 10.009 8.99866C10.5604 8.99866 11.0091 9.44788 11.0091 10C11.0091 10.5521 10.5604 11.0014 10.009 11.0014Z" fill="#EA3B31"/>
  </g>
</svg>