<svg xmlns:xlink="http://www.w3.org/1999/xlink" xmlns="http://www.w3.org/2000/svg" width="90" height="74" viewBox="0 0 90 74" fill="none">
<path fill-rule="evenodd" clip-rule="evenodd" d="M38.4535 0.567246C48.7047 -1.20502 58.7199 1.26758 66.6269 6.69884C71.7269 10.201 75.9479 14.9362 78.7869 20.554L76.8179 20.8948C74.128 15.7745 70.2214 11.4559 65.5321 8.2354C58.03 3.08114 48.5204 0.736058 38.7828 2.42052C29.0468 4.10499 20.9314 9.49914 15.679 16.8574C12.3946 21.4576 10.229 26.8278 9.4874 32.5407L7.51675 32.883C8.22638 26.6501 10.5412 20.7866 14.1127 15.7834C19.6491 8.02635 28.2013 2.3416 38.4535 0.567246ZM82.4837 41.1183C81.7741 47.3497 79.4587 53.2132 75.8872 58.2164C70.3514 65.9734 61.7992 71.6597 51.5469 73.433C41.2958 75.2048 31.2806 72.7322 23.373 67.3009C18.2735 63.7987 14.0525 59.0652 11.2135 53.4463L13.1825 53.1055C15.8724 58.2237 19.7775 62.5438 24.4683 65.7649C31.9689 70.9186 41.4801 73.2642 51.2177 71.5797C60.9521 69.8953 69.0691 64.5022 74.3214 57.1424C77.6058 52.5421 79.7715 47.172 80.513 41.459L82.4837 41.1183Z" fill="white"/>
<path fill-rule="evenodd" clip-rule="evenodd" d="M18.0849 26.5047C17.4339 26.1968 16.9443 25.8472 16.6167 25.4589C16.2874 25.0695 16.0956 24.6739 16.0397 24.2709C15.9827 23.868 16.0626 23.4499 16.2757 23.0161C16.5868 22.3863 17.0833 21.9906 17.769 21.8281C18.453 21.665 19.2474 21.7952 20.1536 22.2248C21.0672 22.6591 21.6788 23.2084 21.9868 23.8721C22.2601 24.4544 22.242 25.0632 21.9308 25.6946C21.617 26.3317 21.1445 26.7258 20.5132 26.8799C19.7929 27.0561 18.9815 26.9301 18.0849 26.5047ZM18.4983 25.5728C19.1264 25.8707 19.6555 25.9773 20.0827 25.8916C20.5132 25.8059 20.8137 25.5895 20.9841 25.2441C21.1562 24.8944 21.1445 24.5301 20.9447 24.1538C20.7471 23.776 20.3241 23.4352 19.6794 23.1284C19.0481 22.8295 18.5255 22.7182 18.1131 22.7981C17.6997 22.8781 17.4035 23.0992 17.2256 23.4603C17.0471 23.822 17.0562 24.1878 17.248 24.5599C17.4413 24.9315 17.858 25.2692 18.4983 25.5728ZM24.2973 21.7361L19.6736 17.8691L20.3043 17.1421L24.7203 18.1968L21.632 15.6144L22.2377 14.9183L26.862 18.7832L26.2077 19.5358L21.8871 18.5182L24.903 21.0384L24.2973 21.7361ZM32.4702 14.6591L31.5688 15.2575L30.4452 14.3742L28.7873 15.4739L29.2162 16.8176L28.3297 17.4055L26.5311 11.4041L27.4203 10.8145L32.4702 14.6591ZM29.5998 13.7194L27.7634 12.2664L28.4671 14.4709L29.5998 13.7194ZM34.9411 13.6143L33.89 11.3137L30.7926 8.90638L31.856 8.4381L33.9007 10.1064L33.9747 7.5078L35.0359 7.04108L34.8079 10.9212L35.8548 13.2129L34.9411 13.6143ZM39.5201 12.1018L38.8206 6.23204L39.8158 6.11967L40.3959 10.9875L42.8812 10.7032L43.0005 11.7035L39.5201 12.1018ZM49.6786 11.921L48.5944 11.8352L48.2785 10.4576L46.2823 10.3018L45.7629 11.6142L44.6984 11.53L47.1112 5.74023L48.1789 5.8249L49.6786 11.921ZM48.034 9.42797L47.5252 7.16861L46.6717 9.3224L48.034 9.42797ZM51.6449 12.4572L53.59 6.81164L54.5127 7.11791L55.1515 11.5316L56.4519 7.76128L57.3352 8.05291L55.3902 13.7005L54.4355 13.3833L53.7967 9.06944L52.5282 12.7509L51.6449 12.4572ZM61.0741 9.86333L62.5919 10.8736C62.9755 11.1302 63.237 11.3654 63.3745 11.5786C63.5119 11.7934 63.5919 12.0542 63.619 12.3642C63.6462 12.672 63.5945 13.0175 63.4693 13.3979C63.3425 13.7789 63.1145 14.207 62.7869 14.6794C62.4923 15.1049 62.1875 15.4441 61.8716 15.6928C61.5546 15.9432 61.2584 16.1094 60.9808 16.1925C60.7012 16.2766 60.4236 16.2928 60.1455 16.2442C59.8679 16.1935 59.5595 16.0587 59.2244 15.835L57.6629 14.795L61.0741 9.86333ZM61.3266 11.2483L59.0672 14.5122L59.6927 14.9287C59.9596 15.108 60.1711 15.2131 60.325 15.2439C60.4806 15.2753 60.6303 15.2648 60.7752 15.2157C60.9217 15.1671 61.0938 15.0531 61.293 14.8707C61.4928 14.6883 61.7144 14.4218 61.9579 14.0706C62.2099 13.7047 62.3836 13.3995 62.4789 13.1549C62.5722 12.9108 62.6073 12.6898 62.5812 12.4974C62.5557 12.3035 62.48 12.1358 62.3506 11.9936C62.2536 11.8886 62.0394 11.7224 61.7038 11.5002L61.3266 11.2483ZM62.8124 18.6217L66.9578 14.266L67.6903 14.9376L63.5434 19.2928L62.8124 18.6217Z" fill="white"/>
<path fill-rule="evenodd" clip-rule="evenodd" d="M23.4731 56.2315C23.9499 55.6995 24.4241 55.3305 24.894 55.1246C25.3639 54.9171 25.8045 54.8418 26.2136 54.8967C26.6244 54.9516 27.0143 55.1382 27.3825 55.4565C27.9189 55.919 28.1741 56.4934 28.1512 57.1853C28.1272 57.8773 27.7857 58.5928 27.1214 59.3334C26.4507 60.0802 25.7474 60.513 25.0133 60.6253C24.3671 60.7278 23.7747 60.5454 23.2387 60.0834C22.6969 59.6167 22.4353 59.0627 22.4535 58.4256C22.4748 57.698 22.8147 56.9664 23.4731 56.2315ZM24.2765 56.8712C23.8173 57.3855 23.5712 57.8564 23.5392 58.2844C23.5078 58.7146 23.6404 59.0548 23.935 59.3099C24.2323 59.566 24.5919 59.6522 25.0149 59.5649C25.439 59.4787 25.8876 59.1708 26.3617 58.643C26.8241 58.1261 27.0729 57.6625 27.1049 57.2507C27.1379 56.8388 27.0005 56.5012 26.6925 56.2357C26.3862 55.9707 26.0234 55.8803 25.6068 55.9618C25.1902 56.0444 24.7475 56.3486 24.2765 56.8712ZM28.1768 63.7026L31.0643 58.458L31.922 58.9127L31.7936 63.3692L33.7222 59.867L34.5437 60.3024L31.6551 65.5455L30.7686 65.0756L30.8816 60.7189L28.9988 64.138L28.1768 63.7026ZM39.7401 68.0463L38.6863 67.7782L38.6181 66.3676L36.6805 65.8742L35.9363 67.0789L34.9017 66.815L38.3012 61.5232L39.3384 61.7882L39.7401 68.0463ZM38.5595 65.3129L38.4567 63.0002L37.2367 64.9768L38.5595 65.3129ZM43.8886 68.329L43.8945 65.8094L42.0778 62.3647L43.244 62.3678L44.4097 64.7113L45.5652 62.372L46.7277 62.3751L44.8961 65.8193L44.8902 68.3306L43.8886 68.329ZM50.1602 67.935L48.9887 62.1379L49.9716 61.9471L50.9428 66.7559L53.3982 66.2787L53.5975 67.267L50.1602 67.935ZM61.1194 64.1662L60.138 64.6298L59.1578 63.596L57.355 64.449L57.5798 65.8402L56.6176 66.2949L55.7237 60.1011L56.689 59.6449L61.1194 64.1662ZM58.4162 62.8298L56.8158 61.1292L57.1855 63.4105L58.4162 62.8298ZM64.0314 62.2508L60.1183 57.6907L60.8631 57.0756L65.0415 58.8269L62.4289 55.7826L63.1417 55.193L67.0558 59.7515L66.2844 60.3886L62.1934 58.6874L64.7442 61.6612L64.0314 62.2508ZM64.8454 53.3481L65.9264 51.8952C66.2013 51.5278 66.4506 51.28 66.6722 51.1525C66.896 51.0255 67.165 50.9555 67.4804 50.9393C67.7958 50.9231 68.1463 50.9853 68.5283 51.1217C68.9135 51.2597 69.3408 51.498 69.8106 51.834C70.2347 52.1382 70.5687 52.4508 70.8101 52.769C71.0551 53.0879 71.2134 53.3837 71.289 53.6596C71.3663 53.935 71.3721 54.2089 71.313 54.4786C71.2528 54.7498 71.1031 55.0462 70.8644 55.3676L69.7499 56.8639L64.8454 53.3481ZM66.2647 53.1485L69.5118 55.4758L69.9571 54.8789C70.1489 54.6223 70.2635 54.418 70.2997 54.2685C70.3375 54.1174 70.3333 53.9706 70.288 53.8269C70.2427 53.6816 70.1324 53.5086 69.9524 53.3068C69.776 53.1056 69.5118 52.8788 69.1612 52.6269C68.7989 52.3677 68.4937 52.1853 68.246 52.0844C68.0014 51.984 67.7777 51.9422 67.58 51.9616C67.3824 51.9793 67.2087 52.0488 67.059 52.1706C66.9487 52.261 66.7724 52.467 66.5337 52.7868L66.2647 53.1485ZM73.932 50.2625L68.4516 47.6921L68.8831 46.8047L74.3635 49.3766L73.932 50.2625Z" fill="white"/>
<path fill-rule="evenodd" clip-rule="evenodd" d="M41.0677 15.1124C47.2247 14.0473 53.2411 15.5332 57.9921 18.7955C59.8211 20.0519 61.4625 21.5717 62.8503 23.3111L60.6878 23.6842C59.5659 22.4163 58.2926 21.2906 56.8989 20.3331C52.5512 17.3467 47.0404 15.9879 41.397 16.9642C35.7568 17.9404 31.0526 21.0653 28.0095 25.329C27.034 26.6962 26.2291 28.1821 25.6175 29.751L23.4534 30.1258C24.1524 28.0268 25.1641 26.0487 26.4432 24.255C29.7718 19.5941 34.9091 16.1776 41.0677 15.1124ZM66.547 43.8759C65.8481 45.9737 64.8364 47.9514 63.5572 49.7456C60.2286 54.406 55.0913 57.8225 48.9327 58.8876C42.7757 59.9528 36.7578 58.4669 32.0083 55.2046C30.1794 53.9482 28.5396 52.4283 27.1502 50.6906L29.3126 50.3158C30.4346 51.5853 31.7079 52.71 33.1015 53.6686C37.4477 56.6539 42.9601 58.0122 48.6035 57.0359C54.2437 56.0596 58.9479 52.9353 61.9909 48.6726C62.9664 47.3039 63.7714 45.8196 64.383 44.249L66.547 43.8759Z" fill="white"/>
<path fill-rule="evenodd" clip-rule="evenodd" d="M41.649 18.3601C41.9617 18.3068 42.2728 18.2608 42.5871 18.2206C42.8983 18.1835 42.8423 17.7157 42.5248 17.7539C42.057 17.8134 41.593 17.8871 41.1311 17.9775C40.7976 18.0591 40.9452 18.508 41.2265 18.4385C41.3666 18.4103 41.5088 18.3852 41.649 18.3601ZM39.8413 18.7599C40.1343 18.6889 40.0347 18.2279 39.7145 18.3068C39.4018 18.3925 39.0923 18.4829 38.7844 18.5822C38.4674 18.6993 38.6608 19.1305 38.9357 19.0296C39.2372 18.9335 39.5366 18.8446 39.8413 18.7599ZM37.6033 19.5141C37.8798 19.4132 37.7348 18.9643 37.4195 19.0798C37.12 19.2016 36.8244 19.3301 36.5314 19.4665C36.2383 19.6103 36.4648 20.0252 36.7381 19.8904C37.0236 19.7587 37.3118 19.6327 37.6033 19.5141ZM35.477 20.5332C35.7504 20.3791 35.5133 19.9704 35.2384 20.1245C34.9576 20.2813 34.6795 20.4444 34.4062 20.6148C34.1239 20.8134 34.4323 21.1745 34.6646 21.012C34.932 20.8458 35.2022 20.6874 35.477 20.5332ZM33.4942 21.8012C33.7403 21.6297 33.4744 21.2367 33.2075 21.4249C32.946 21.613 32.6924 21.8101 32.442 22.0118C32.2182 22.1686 32.4569 22.5794 32.7483 22.3745C32.9912 22.1775 33.2406 21.9851 33.4942 21.8012ZM31.6849 23.3006C31.9177 23.0712 31.5672 22.7498 31.353 22.9599C31.1234 23.1851 30.8906 23.4031 30.6674 23.6356C30.4559 23.8416 30.7803 24.1896 31.0163 23.9586C31.2337 23.7302 31.4601 23.5201 31.6849 23.3006ZM30.0766 25.0029C30.2822 24.7217 29.8667 24.4844 29.7036 24.7065C29.4985 24.9527 29.3019 25.203 29.1075 25.4576C28.9184 25.7168 29.3158 25.9823 29.4937 25.7377C29.6829 25.4873 29.8757 25.2427 30.0766 25.0029ZM28.6904 26.8875C28.855 26.6622 28.4879 26.357 28.286 26.6371C28.1134 26.9006 27.9397 27.1807 27.7857 27.4546C27.6318 27.7185 28.0457 27.9584 28.2045 27.6845C28.3627 27.4164 28.5215 27.1499 28.6904 26.8875ZM27.5503 28.9216C27.6845 28.6577 27.2636 28.4314 27.1155 28.723C26.984 28.9984 26.8572 29.2754 26.7378 29.5571L27.3009 29.4594C27.3814 29.2801 27.4645 29.1009 27.5503 28.9216ZM31.3727 50.4015C31.1522 50.1852 30.8091 50.5144 31.0355 50.7365C31.2651 50.9602 31.5011 51.1797 31.7409 51.3914C31.9417 51.5884 32.3072 51.2832 32.0611 51.0418C31.8256 50.8327 31.5976 50.621 31.3727 50.4015ZM33.15 51.9365C32.8735 51.7442 32.6183 52.1424 32.857 52.3097C33.1122 52.5041 33.3722 52.6923 33.638 52.8757C33.89 53.0518 34.1739 52.6729 33.9124 52.4905C33.6529 52.3097 33.4009 52.1278 33.15 51.9365ZM35.1041 53.2478C34.8218 53.0905 34.5922 53.5039 34.8596 53.6534C35.1372 53.8149 35.4195 53.9738 35.7051 54.1217C35.9997 54.267 36.1989 53.8389 35.9288 53.7057C35.6491 53.5588 35.3758 53.4078 35.1041 53.2478ZM37.2064 54.3171C36.8803 54.1975 36.7487 54.649 37.013 54.7468C37.3102 54.8758 37.608 54.9971 37.9101 55.1116C38.2106 55.2224 38.3736 54.7797 38.0822 54.6731C37.7876 54.5602 37.4946 54.4415 37.2064 54.3171ZM39.4263 55.1246C39.0907 55.0431 39.0081 55.5072 39.2873 55.5751C39.5984 55.6671 39.9095 55.7497 40.2233 55.8286C40.5302 55.9039 40.6463 55.4476 40.34 55.3724C40.0331 55.2966 39.73 55.215 39.4263 55.1246ZM41.7305 55.6593C41.3895 55.618 41.3623 56.0878 41.649 56.1234C41.9691 56.1751 42.2867 56.2211 42.6095 56.2608C42.9206 56.2995 42.9824 55.8328 42.667 55.7941C42.3527 55.756 42.0432 55.7115 41.7305 55.6593ZM44.0836 55.9101C43.7395 55.9101 43.7725 56.381 44.0607 56.381C44.3857 56.3931 44.7059 56.4019 45.0319 56.4019C45.3462 56.4019 45.3489 55.9305 45.0303 55.9305C44.7117 55.9305 44.4006 55.9216 44.0836 55.9101ZM46.4501 55.8757C46.1161 55.9112 46.1917 56.3763 46.4879 56.3439C46.8092 56.3204 47.1341 56.2891 47.4543 56.2493C47.7639 56.2107 47.7095 55.7424 47.3925 55.7826C47.0798 55.8208 46.7623 55.8521 46.4501 55.8757ZM48.7953 55.5574C48.4612 55.6389 48.6093 56.0878 48.8901 56.0194C49.2076 55.9572 49.5246 55.8877 49.8389 55.8093C50.141 55.7351 50.0291 55.2772 49.7196 55.353C49.4143 55.4298 49.1048 55.4978 48.7953 55.5574ZM51.0845 54.9647C50.7675 55.0818 50.9609 55.5129 51.2358 55.4105C51.5437 55.3096 51.8474 55.203 52.1495 55.0891C52.4393 54.984 52.2789 54.5393 51.9774 54.6506C51.6812 54.7619 51.385 54.867 51.0845 54.9647ZM53.2821 54.1008C52.9891 54.2445 53.2155 54.6595 53.4872 54.5246C53.7802 54.3914 54.07 54.2445 54.3556 54.095C54.6214 53.9649 54.4264 53.5353 54.1276 53.6816C53.8495 53.8269 53.566 53.9706 53.2821 54.1008ZM55.3539 52.9781C55.0716 53.1752 55.3795 53.5363 55.6118 53.3738C55.8856 53.2034 56.1541 53.0267 56.4184 52.8433C56.6752 52.6625 56.396 52.2804 56.1408 52.4597C55.8824 52.639 55.6198 52.8104 55.3539 52.9781ZM57.2686 51.612C57.0454 51.7693 57.2836 52.1796 57.5739 51.9752C57.8216 51.7797 58.0768 51.5618 58.3091 51.3496C58.5494 51.1144 58.1898 50.8019 57.9831 51.0047C57.7502 51.2106 57.5116 51.4196 57.2686 51.612ZM58.9979 50.0284C58.788 50.2343 59.1109 50.5824 59.348 50.3498C59.5701 50.1188 59.7875 49.8831 59.9974 49.6416C60.1876 49.4252 59.877 49.0981 59.6335 49.3364C59.4268 49.5721 59.2153 49.8031 58.9979 50.0284ZM60.5184 48.2462C60.3298 48.5054 60.7267 48.7704 60.9052 48.5263C61.097 48.2697 61.2829 48.0105 61.4624 47.7455C61.6345 47.5098 61.2584 47.2166 61.0624 47.4863C60.8871 47.7439 60.7075 47.9974 60.5184 48.2462ZM61.805 46.2978C61.6526 46.5633 62.065 46.8016 62.2248 46.5277C62.3836 46.2507 62.5359 45.9706 62.6808 45.6873C62.8215 45.4103 62.3942 45.1987 62.252 45.4772C62.1103 45.7542 61.9606 46.0281 61.805 46.2978ZM59.5659 23.8787C59.4753 23.7809 59.3831 23.6842 59.2894 23.5881C59.0582 23.3628 58.7273 23.7036 58.9452 23.9158L59.0022 23.9764L59.5659 23.8787ZM57.9239 22.9452C58.1237 23.1423 58.4902 22.837 58.2441 22.594C58.0028 22.3823 57.7582 22.1764 57.5073 21.9747C57.2191 21.7735 56.9772 22.1806 57.2036 22.339C57.4482 22.5376 57.6885 22.7377 57.9239 22.9452ZM56.071 21.4991C56.3235 21.6757 56.6075 21.2963 56.3459 21.1123C56.0785 20.9305 55.8116 20.7569 55.5367 20.585C55.266 20.4339 55.0172 20.7982 55.2831 20.9853C55.55 21.1468 55.8132 21.323 56.071 21.4991ZM54.0535 20.2845C54.3481 20.4298 54.549 20.0012 54.2773 19.8679C53.9917 19.72 53.7019 19.5763 53.4089 19.4415C53.1398 19.3098 52.9086 19.7226 53.2064 19.8679C53.492 20.0012 53.7743 20.1392 54.0535 20.2845ZM51.8985 19.3197C52.199 19.431 52.361 18.9878 52.0706 18.8812C51.7659 18.7688 51.4638 18.6622 51.1553 18.5613C50.882 18.462 50.686 18.8916 51.0062 19.0087C51.3066 19.1064 51.6029 19.2105 51.8985 19.3197ZM49.6423 18.6235C49.9444 18.6977 50.0653 18.243 49.7542 18.1657C49.4383 18.0904 49.1261 18.022 48.8075 17.9598C48.5326 17.8918 48.3771 18.3392 48.7169 18.4223C49.0265 18.4814 49.3344 18.5493 49.6423 18.6235ZM47.3137 18.2044C47.6216 18.2415 47.6882 17.7763 47.368 17.7361C47.0478 17.699 46.7234 17.6666 46.4016 17.6457C46.1145 17.6148 46.0287 18.0784 46.3697 18.1155C46.6856 18.139 46.9999 18.1673 47.3137 18.2044ZM44.9488 18.0695C45.2631 18.0695 45.2647 17.5986 44.9472 17.5986C44.6244 17.5986 44.2994 17.6101 43.9765 17.6263C43.6926 17.6263 43.6532 18.0962 44.0021 18.0962C44.3159 18.08 44.6345 18.0695 44.9488 18.0695V18.0695Z" fill="white"/>
<path fill-rule="evenodd" clip-rule="evenodd" d="M38.9639 3.41612L38.9095 3.43389C38.8856 3.43233 38.86 3.43389 38.8328 3.43964C38.5153 3.49452 38.1999 3.55671 37.8845 3.62048C37.5553 3.70044 37.6986 4.15095 37.9826 4.08092C38.2937 4.01716 38.6064 3.95653 38.9186 3.90166C38.9415 3.89748 38.9628 3.89016 38.9809 3.88127C39.0017 3.88232 39.0246 3.88232 39.047 3.87971C39.3613 3.8264 39.674 3.7757 39.9878 3.72971C40.2872 3.69312 40.2446 3.22484 39.917 3.26456C39.5984 3.31055 39.2814 3.36229 38.9639 3.41612ZM36.5916 4.39503C36.8936 4.32081 36.7817 3.8635 36.4722 3.93876C36.1595 4.01611 35.8484 4.09712 35.5388 4.18336C35.2506 4.25444 35.346 4.7154 35.6704 4.63492C35.9757 4.55234 36.282 4.47081 36.5916 4.39503ZM34.3039 5.04414C34.6209 4.92707 34.4275 4.4959 34.1526 4.59677C33.8463 4.6945 33.5426 4.79798 33.239 4.90355C32.9353 5.01592 33.1138 5.45285 33.402 5.34623C33.7014 5.24275 34.0003 5.14031 34.3039 5.04414ZM32.0674 5.84692C32.3466 5.74344 32.1985 5.29606 31.8858 5.41156C31.5869 5.5302 31.2912 5.65302 30.9966 5.77897C30.7308 5.87671 30.8618 6.32984 31.1884 6.21015C31.4814 6.08576 31.7728 5.96399 32.0674 5.84692ZM29.8938 6.80126C30.1794 6.66014 29.9604 6.24099 29.6813 6.37896C29.3925 6.51642 29.1043 6.6591 28.8203 6.80701C28.5502 6.94028 28.7495 7.36832 29.0452 7.22355C29.3248 7.07825 29.6088 6.93714 29.8938 6.80126ZM27.7948 7.90037C28.0622 7.75089 27.8326 7.33748 27.5519 7.49584C27.2727 7.6542 26.9978 7.8157 26.7229 7.9819C26.4571 8.16848 26.7064 8.53276 26.9765 8.38172C27.2466 8.21761 27.5199 8.05716 27.7948 7.90037ZM25.7773 9.1432C26.0447 8.95505 25.7533 8.58189 25.5072 8.7554C25.2445 8.92996 24.9771 9.13013 24.7144 9.29738C24.4619 9.47508 24.7352 9.86183 24.9968 9.67838C25.2546 9.49598 25.5146 9.31828 25.7773 9.1432ZM23.8535 10.5209C24.089 10.3568 23.837 9.95538 23.5573 10.1508C23.3037 10.3463 23.0533 10.5449 22.8056 10.7461C22.5786 10.9374 22.837 11.3017 23.1135 11.1078C23.3564 10.9092 23.6042 10.7137 23.8535 10.5209ZM22.0336 12.0261C22.2771 11.7862 21.9143 11.4784 21.7108 11.678C21.4705 11.8902 21.2377 12.1066 21.0022 12.3224C20.771 12.5492 21.1184 12.8738 21.3363 12.6621C21.5669 12.4473 21.7982 12.2351 22.0336 12.0261ZM20.3224 13.6515C20.5387 13.4414 20.2095 13.0975 19.9767 13.3254C19.7535 13.5506 19.5329 13.7848 19.3171 14.0173C19.1131 14.2159 19.4274 14.5729 19.672 14.333C19.8845 14.1046 20.1024 13.8736 20.3224 13.6515ZM18.7327 15.3893C18.9426 15.1018 18.5212 14.8708 18.3641 15.0887C18.1573 15.3302 17.9517 15.5743 17.7525 15.8236C17.5548 16.0959 17.9624 16.3446 18.1312 16.1136C18.3262 15.8696 18.5287 15.6281 18.7327 15.3893ZM17.2677 17.2295C17.4504 16.9776 17.0609 16.7047 16.8766 16.9551C16.6891 17.2117 16.5037 17.4694 16.321 17.7286C16.1441 17.9716 16.5261 18.2575 16.7179 17.9936C16.8979 17.7375 17.0807 17.4824 17.2677 17.2295ZM15.9342 19.1669C16.0881 18.9019 15.7184 18.6563 15.5277 18.9181C15.3556 19.1847 15.1883 19.4559 15.0264 19.7287C14.8666 20.001 15.2864 20.231 15.4403 19.9655C15.6017 19.6974 15.7653 19.4308 15.9342 19.1669ZM14.7414 21.1879C14.8889 20.8989 14.4526 20.7034 14.3184 20.9684C14.167 21.247 14.0195 21.5271 13.8756 21.8099C13.7339 22.0858 14.1628 22.2975 14.3045 22.0189C14.4467 21.7404 14.5932 21.4634 14.7414 21.1879ZM13.6929 23.2874C13.808 22.9879 13.3956 22.8207 13.255 23.0945C13.1239 23.3835 12.9971 23.6736 12.873 23.9658C12.7553 24.2725 13.2129 24.4173 13.3173 24.145C13.4377 23.8576 13.5645 23.5701 13.6929 23.2874ZM12.7974 25.4501C12.9066 25.1657 12.4591 24.9938 12.3461 25.2901C12.2358 25.5865 12.1303 25.8844 12.0259 26.1833C11.9231 26.4546 12.3626 26.6427 12.482 26.3333C12.5832 26.037 12.6887 25.7433 12.7974 25.4501ZM12.0563 27.6707C12.1378 27.3493 11.6663 27.2589 11.5955 27.5406C11.5049 27.8443 11.4186 28.1495 11.3387 28.4547C11.262 28.7584 11.7287 28.8697 11.8038 28.5718C11.8837 28.2697 11.9668 27.9686 12.0563 27.6707ZM11.4745 29.9348C11.5459 29.6547 11.0867 29.5151 11.0052 29.8381C10.937 30.1465 10.8752 30.4559 10.815 30.7658C10.7468 31.0324 11.2012 31.1881 11.2859 30.8515C11.3451 30.5453 11.4085 30.24 11.4745 29.9348ZM14.2491 52.9215C14.3865 53.175 14.5251 53.4269 14.6689 53.6773C14.8271 53.9495 15.2411 53.7128 15.0871 53.4462C14.971 53.2429 14.8575 53.0402 14.7456 52.8358L14.2491 52.9215ZM15.8106 54.6535C15.6199 54.3912 15.2485 54.6384 15.4025 54.9023C15.5719 55.1704 15.7456 55.437 15.9219 55.7009C16.1185 55.9722 16.493 55.6769 16.3226 55.4432C16.1489 55.1825 15.9779 54.9201 15.8106 54.6535ZM17.1318 56.5988C16.9491 56.3485 16.558 56.6192 16.7424 56.8727C16.9278 57.1303 17.1211 57.3854 17.3161 57.6357C17.4882 57.8714 17.8931 57.618 17.6965 57.3498C17.5047 57.1021 17.3145 56.8518 17.1318 56.5988ZM18.5862 58.4474C18.3912 58.2237 18.021 58.4772 18.2175 58.7484C18.4243 58.9914 18.6331 59.2313 18.8441 59.4681C19.095 59.7158 19.4013 59.351 19.2053 59.1587C18.9954 58.923 18.7897 58.6873 18.5862 58.4474ZM20.1685 60.1925C19.9362 59.963 19.6086 60.3085 19.8211 60.517C20.0433 60.747 20.2697 60.9722 20.4993 61.1944C20.7199 61.4107 21.0624 61.0815 20.836 60.8594C20.6096 60.6404 20.3874 60.4177 20.1685 60.1925ZM21.8706 61.8252C21.6682 61.6266 21.3043 61.9349 21.5488 62.1748C21.7875 62.3881 22.0294 62.594 22.2707 62.803C22.4929 62.9912 22.8264 62.6844 22.5834 62.4461C22.348 62.237 22.1045 62.0358 21.8706 61.8252ZM23.6841 63.3408C23.4033 63.1422 23.154 63.5452 23.3868 63.7083C23.642 63.9011 23.894 64.0981 24.1524 64.2873C24.4198 64.4755 24.6857 64.0846 24.4379 63.911C24.1843 63.7229 23.9366 63.529 23.6841 63.3408ZM25.5993 64.7274C25.3532 64.5544 25.0618 64.9291 25.3287 65.1157C25.5945 65.295 25.8636 65.4685 26.1337 65.6415C26.3665 65.8046 26.6744 65.4429 26.3921 65.2459C26.1246 65.0771 25.8604 64.9041 25.5993 64.7274ZM27.6078 65.9823C27.3297 65.827 27.0958 66.2373 27.3659 66.3883C27.644 66.5483 27.9232 66.7056 28.2045 66.8582C28.4959 67.0004 28.7058 66.5974 28.4352 66.4464C28.1576 66.2948 27.8827 66.1396 27.6078 65.9823ZM29.701 67.0981C29.4186 66.9601 29.2023 67.3808 29.4863 67.5204C29.775 67.661 30.0648 67.799 30.3578 67.9322C30.6237 68.0624 30.8576 67.6521 30.5571 67.5037C30.2699 67.3735 29.9833 67.2371 29.701 67.0981ZM31.865 68.0697C31.5523 67.9542 31.4042 68.4016 31.6839 68.5056C31.9811 68.6252 32.2784 68.7423 32.5789 68.8563C32.8799 68.966 33.0413 68.5233 32.7515 68.4167C32.4537 68.3038 32.1591 68.1883 31.865 68.0697ZM34.0951 68.8907C33.8191 68.7899 33.6273 69.2211 33.9427 69.3381C34.248 69.439 34.5543 69.5336 34.8622 69.6271C35.1979 69.7082 35.281 69.2446 35.0013 69.1766C34.6976 69.0862 34.3961 68.99 34.0951 68.8907ZM36.3758 69.5587C36.0663 69.4818 35.9544 69.9397 36.258 70.0134C36.5692 70.0933 36.8814 70.1691 37.1941 70.2402C37.4903 70.3128 37.6203 69.8597 37.3012 69.7808C36.9916 69.7097 36.6837 69.636 36.3758 69.5587ZM38.6996 70.0683C38.4295 70.0019 38.2708 70.4461 38.6139 70.5308C38.9293 70.5883 39.2478 70.6432 39.5664 70.6923C39.8957 70.732 39.9367 70.2627 39.6389 70.2271C39.3251 70.178 39.0124 70.1247 38.6996 70.0683ZM41.0555 70.4163C40.7475 70.3797 40.6809 70.8449 40.9995 70.8846C41.3197 70.9201 41.6415 70.9531 41.9617 70.9797C42.2605 71.0121 42.3319 70.547 42.0027 70.5114C41.6852 70.4832 41.3698 70.4519 41.0555 70.4163ZM43.4283 70.6034C43.0868 70.6034 43.1156 71.0728 43.4086 71.0728C43.7304 71.0864 44.0516 71.0963 44.3734 71.1026C44.6984 71.1026 44.6877 70.6311 44.3793 70.6311C44.0623 70.627 43.7453 70.6165 43.4283 70.6034ZM45.8081 70.6269C45.5108 70.6269 45.4895 71.0963 45.823 71.0963C46.1448 71.089 46.465 71.0759 46.7868 71.0597C47.0707 71.0597 47.1096 70.5898 46.7612 70.5898C46.4437 70.606 46.1267 70.6181 45.8081 70.6269ZM48.1852 70.4874C47.8635 70.5219 47.9253 70.9886 48.2332 70.9557C48.5534 70.9259 48.872 70.8919 49.1921 70.8538C49.5065 70.8151 49.4463 70.3484 49.1335 70.3871C48.8176 70.4242 48.5022 70.4581 48.1852 70.4874ZM50.5469 70.1885C50.2587 70.224 50.2875 70.6933 50.6268 70.652C50.9444 70.6003 51.2613 70.5454 51.5767 70.4864C51.9134 70.4033 51.7627 69.9559 51.4846 70.0238C51.1734 70.0834 50.8613 70.1367 50.5469 70.1885ZM52.883 69.7306C52.5692 69.8075 52.6944 70.2627 52.9933 70.1885C53.306 70.12 53.623 70.04 53.9315 69.9585C54.2272 69.8864 54.1233 69.427 53.8074 69.5038C53.5021 69.5838 53.1915 69.6627 52.883 69.7306ZM55.1819 69.117C54.8526 69.2388 55.0593 69.6637 55.3236 69.5676C55.6304 69.4756 55.9384 69.3763 56.2431 69.2744C56.5526 69.1604 56.3672 68.7261 56.0865 68.8296C55.7871 68.9289 55.4839 69.0266 55.1819 69.117ZM57.4301 68.3498C57.1418 68.4564 57.3017 68.8996 57.6037 68.7883C57.9042 68.6728 58.2036 68.5557 58.4993 68.4329C58.7726 68.3336 58.6325 67.8815 58.3123 68.0002C58.0209 68.1204 57.7263 68.2374 57.4301 68.3498ZM59.617 67.43C59.3256 67.5737 59.5504 67.9881 59.8237 67.8549C60.1151 67.72 60.4039 67.5826 60.6921 67.4389C60.9702 67.3024 60.7603 66.8802 60.4747 67.0197C60.1908 67.1603 59.9052 67.2967 59.617 67.43ZM61.7357 66.3617C61.4576 66.5174 61.6995 66.9246 61.9712 66.772C62.252 66.6178 62.5301 66.4594 62.8066 66.2979C63.0724 66.15 62.8455 65.7351 62.562 65.8934C62.2871 66.0533 62.0138 66.2091 61.7357 66.3617ZM63.773 65.1513C63.4965 65.3452 63.7969 65.7115 64.0356 65.5438C64.3047 65.3708 64.5716 65.1941 64.8363 65.0133C65.0974 64.8314 64.815 64.452 64.5614 64.6281C64.2999 64.8063 64.0372 64.9809 63.773 65.1513ZM65.7164 63.8044C65.4762 63.9738 65.7346 64.3689 66.0095 64.1781C66.2646 63.9868 66.5182 63.7929 66.7692 63.5943C66.9988 63.4344 66.7542 63.0283 66.4687 63.2285C66.2194 63.4239 65.97 63.6152 65.7164 63.8044ZM67.5619 62.3274C67.311 62.5736 67.6828 62.8741 67.8789 62.6818C68.1223 62.4743 68.361 62.2611 68.5981 62.0463C68.8352 61.8137 68.4788 61.498 68.2699 61.7024C68.0376 61.914 67.8022 62.1231 67.5619 62.3274ZM69.2971 60.7292C69.0781 60.9451 69.4116 61.2816 69.6401 61.0595C69.8666 60.8343 70.0882 60.6074 70.3103 60.378C70.5202 60.1721 70.1974 59.824 69.9598 60.0566C69.7424 60.2829 69.5219 60.5066 69.2971 60.7292ZM70.9177 59.015C70.7243 59.2047 71.0264 59.5721 71.2799 59.3233C71.4915 59.0845 71.6982 58.8414 71.9022 58.5974C72.1073 58.3157 71.6923 58.0773 71.5303 58.301C71.3295 58.5409 71.1244 58.7793 70.9177 59.015ZM72.411 57.1972C72.2208 57.4596 72.6193 57.7214 72.7962 57.4784C72.9895 57.2254 73.1797 56.9704 73.3657 56.7127C73.5468 56.464 73.16 56.1854 72.973 56.4431C72.7887 56.6965 72.6028 56.9484 72.411 57.1972ZM73.7748 55.2818C73.6086 55.5096 73.9773 55.8117 74.1781 55.5363C74.3528 55.2697 74.5239 55.0048 74.6911 54.7351C74.8558 54.4518 74.4301 54.2344 74.282 54.4905C74.1158 54.757 73.9469 55.0194 73.7748 55.2818ZM74.9996 53.2785C74.8547 53.5644 75.2665 53.7687 75.421 53.5053C75.5766 53.2299 75.7289 52.9497 75.877 52.6696C76.0204 52.3884 75.5883 52.1836 75.4492 52.4548C75.3027 52.7318 75.1536 53.0062 74.9996 53.2785ZM76.0806 51.1973C75.9479 51.4576 76.3661 51.6891 76.5169 51.3944C76.6517 51.108 76.7827 50.821 76.9127 50.5304C77.0336 50.2132 76.5728 50.0799 76.4716 50.3454C76.3448 50.6313 76.2153 50.9141 76.0806 51.1973ZM77.0123 49.0472C76.9005 49.3409 77.3506 49.5008 77.4609 49.215C77.576 48.9218 77.6889 48.6239 77.7949 48.326C77.9004 48.0474 77.4577 47.8681 77.3416 48.1702C77.2361 48.4639 77.1274 48.7571 77.0123 49.0472ZM77.7901 46.8401C77.7054 47.1673 78.1785 47.2488 78.2494 46.9765C78.3431 46.6728 78.4321 46.3702 78.5195 46.0666C78.5994 45.7525 78.13 45.6547 78.056 45.9422C77.9713 46.2427 77.8823 46.5406 77.7901 46.8401ZM78.4076 44.5839C78.3341 44.8739 78.796 44.9999 78.8759 44.6889C78.9483 44.3806 79.0165 44.0727 79.0815 43.7628C79.1508 43.4889 78.6932 43.3421 78.6101 43.6713C78.5483 43.975 78.4806 44.2813 78.4076 44.5839ZM78.8642 42.2916C78.8232 42.6161 79.3021 42.6548 79.3383 42.3632C79.3772 42.1228 79.4124 41.8829 79.447 41.643L78.9499 41.7287C78.9228 41.9168 78.894 42.1034 78.8642 42.2916ZM75.7529 21.0782C75.7018 20.982 75.6501 20.8874 75.5958 20.7939C75.4418 20.5289 75.031 20.7359 75.1759 21.0207L75.2532 21.1655L75.7529 21.0782ZM74.4711 19.7998C74.6219 20.0606 75.0449 19.8385 74.8819 19.5599C74.7183 19.2871 74.5478 19.0174 74.3758 18.7509C74.1749 18.4739 73.8062 18.776 73.9725 19.0043C74.1419 19.2662 74.3092 19.5333 74.4711 19.7998ZM73.1829 17.8368C73.3683 18.0929 73.7567 17.8143 73.5756 17.5671C73.3912 17.3079 73.2037 17.0518 73.0135 16.7967C72.8356 16.5506 72.4381 16.8161 72.6267 17.0753C72.8159 17.3272 73.0002 17.5807 73.1829 17.8368ZM71.7573 15.9642C71.9203 16.1894 72.3343 15.9495 72.1302 15.6694C71.9294 15.4232 71.7237 15.1792 71.5154 14.9387C71.2725 14.7004 70.9598 15.0265 71.15 15.244C71.3556 15.4828 71.558 15.7211 71.7573 15.9642ZM70.2033 14.195C70.4419 14.4292 70.7632 14.0795 70.5533 13.8752C70.3343 13.6426 70.1143 13.4147 69.8889 13.1879C69.6609 12.9642 69.3274 13.3018 69.5464 13.5182C69.768 13.7419 69.987 13.9672 70.2033 14.195ZM68.5267 12.5362C68.7366 12.7421 69.0919 12.4248 68.8549 12.1923C68.6221 11.9759 68.3834 11.7627 68.1421 11.552C67.9439 11.3581 67.5757 11.6602 67.8245 11.9048C68.0616 12.1123 68.296 12.3214 68.5267 12.5362ZM66.7388 10.9939C67.0259 11.1951 67.2689 10.7879 67.0409 10.6291C66.7915 10.4294 66.5395 10.2339 66.286 10.0395C66.0095 9.84563 65.7543 10.2439 65.9929 10.4116C66.2433 10.6024 66.4927 10.7968 66.7388 10.9939ZM64.8454 9.57595C65.1006 9.75521 65.3813 9.37421 65.1214 9.19233C64.8603 9.00993 64.5945 8.82909 64.3254 8.65453C64.0857 8.48572 63.7863 8.8547 64.0601 9.04704C64.3244 9.21898 64.587 9.39511 64.8454 9.57595ZM62.8577 8.2913C63.1449 8.45279 63.3665 8.03521 63.1054 7.88835C62.8305 7.72424 62.553 7.56431 62.2749 7.40543C62.0016 7.25282 61.7613 7.66047 62.0378 7.81465C62.3127 7.96988 62.586 8.12876 62.8577 8.2913ZM60.7842 7.14306C61.0714 7.28417 61.2797 6.86031 61.0016 6.72391C60.7166 6.57861 60.4294 6.43802 60.1396 6.30057C59.8647 6.16573 59.641 6.58175 59.9313 6.72391C60.2179 6.86031 60.5003 6.99986 60.7842 7.14306ZM58.6341 6.13907C58.9569 6.25719 59.0928 5.80563 58.8227 5.70633C58.5281 5.58037 58.2308 5.45912 57.9319 5.34048C57.625 5.22759 57.4695 5.67392 57.755 5.77741C58.0496 5.89448 58.3427 6.01416 58.6341 6.13907ZM56.4184 5.28247C56.7007 5.38647 56.8851 4.95216 56.5755 4.83823C56.2719 4.73317 55.9682 4.63231 55.6619 4.53457C55.3928 4.43527 55.192 4.86331 55.5154 4.98352C55.8174 5.07968 56.1179 5.17899 56.4184 5.28247ZM54.1473 4.58056C54.4674 4.65896 54.5671 4.19799 54.274 4.12535C53.9629 4.0412 53.6518 3.96124 53.3391 3.88545C53.037 3.81124 52.915 4.26646 53.2261 4.34329C53.5341 4.4175 53.8404 4.4959 54.1473 4.58056ZM51.8319 4.03388C52.11 4.10183 52.2608 3.65445 51.9257 3.57292C51.6103 3.51072 51.2944 3.45166 50.9774 3.39679C50.6359 3.35498 50.6087 3.82483 50.8959 3.86037C51.2086 3.91368 51.5208 3.97273 51.8319 4.03388ZM49.4841 3.6487C49.7995 3.68685 49.857 3.22014 49.5443 3.18198C49.2257 3.14017 48.9071 3.10463 48.5853 3.07066C48.2801 3.03826 48.214 3.50027 48.5369 3.53894C48.8539 3.57292 49.1682 3.60846 49.4841 3.6487ZM47.1128 3.42501C47.4362 3.42501 47.4559 2.98913 47.1416 2.95516C46.8182 2.93582 46.498 2.9238 46.1752 2.91073C45.8427 2.91073 45.8625 3.38163 46.1629 3.38163C46.4799 3.39052 46.7974 3.40724 47.1128 3.42501ZM44.733 3.36386C45.0426 3.36386 45.05 2.89453 44.7282 2.89453C44.4065 2.8961 44.082 2.90498 43.7618 2.91491C43.4704 2.91491 43.44 3.38633 43.7815 3.38633C44.0969 3.37431 44.4171 3.36543 44.733 3.36386ZM42.3543 3.4663C42.6867 3.43076 42.6111 2.96561 42.3149 2.99801C41.9963 3.02206 41.6719 3.04976 41.3533 3.08529C41.0357 3.12397 41.0949 3.58651 41.406 3.55358C41.7203 3.51804 42.0389 3.48982 42.3543 3.4663V3.4663Z" fill="white"/>
<path fill-rule="evenodd" clip-rule="evenodd" d="M3.79709 33.5259L82.5082 19.9095C84.9967 19.4799 87.3903 21.1242 87.8298 23.5659L89.9305 35.2532C90.3684 37.6949 88.6918 40.0442 86.2033 40.4738L7.49224 54.0906C5.00376 54.5203 2.61012 52.8755 2.1706 50.4343L0.0699681 38.7465C-0.36955 36.3052 1.30808 33.9555 3.79709 33.5259ZM9.76388 48.8136L8.12994 39.7259L5.42037 40.1942L5.08847 38.3467L12.3429 37.0918L12.6754 38.9393L9.96739 39.4087L11.6003 48.4948L9.76388 48.8136ZM15.5069 47.8195L13.5421 36.8843L20.3134 35.7141L20.6458 37.5611L15.7104 38.4146L16.1457 40.8282L20.738 40.0327L21.0704 41.8813L16.4776 42.6757L17.0125 45.6532L22.1183 44.7704L22.4508 46.618L15.5069 47.8195ZM22.9143 42.8696L24.666 42.3454C25.1188 43.7053 25.9105 44.2875 27.0399 44.092C27.6003 43.9954 28.0127 43.7779 28.2828 43.4372C28.5513 43.0964 28.6483 42.7138 28.5726 42.2916C28.5273 42.0428 28.4336 41.8431 28.2903 41.6874C28.1469 41.5332 27.9504 41.4208 27.7026 41.3482C27.4538 41.2755 26.8646 41.1836 25.9403 41.0728C25.1129 40.9745 24.4907 40.8219 24.0767 40.6134C23.6633 40.4012 23.3085 40.0918 23.0139 39.6872C22.7177 39.2785 22.5232 38.8191 22.4311 38.308C22.3235 37.7127 22.3645 37.1509 22.5579 36.6267C22.7497 36.1035 23.065 35.6755 23.5094 35.3467C23.9531 35.0206 24.5344 34.7938 25.2504 34.671C26.3271 34.4844 27.2178 34.6234 27.9264 35.0917C28.6333 35.56 29.0995 36.3246 29.3275 37.3819L27.4917 37.7937C27.3057 37.2251 27.0564 36.8457 26.7437 36.6606C26.4326 36.4756 26.0282 36.4249 25.5285 36.5127C25.0298 36.5984 24.6628 36.7657 24.4305 37.0145C24.1961 37.2622 24.1055 37.5345 24.1598 37.8355C24.2131 38.1303 24.382 38.3556 24.6644 38.5139C24.9467 38.6723 25.5509 38.8014 26.4704 38.8975C27.4464 39.0042 28.1667 39.1688 28.6317 39.3867C29.0968 39.6088 29.4804 39.9271 29.7809 40.3479C30.0814 40.7717 30.2897 41.3095 30.409 41.9659C30.5784 42.9124 30.4239 43.7644 29.9455 44.5112C29.465 45.2607 28.5907 45.7452 27.3254 45.9647C25.0858 46.3509 23.6164 45.3197 22.9143 42.8696ZM34.589 44.5185L32.955 35.4324L30.246 35.9007L29.9135 34.0516L37.1685 32.7983L37.501 34.6459L34.7914 35.1142L36.4253 44.2013L34.589 44.5185ZM43.8828 42.9109L41.9164 31.9762L48.6892 30.8045L49.0201 32.653L44.0863 33.5065L44.5199 35.9201L49.1122 35.1241L49.4447 36.9732L44.8524 37.7671L45.3867 40.7451L50.4942 39.8623L50.825 41.7093L43.8828 42.9109ZM50.4143 30.5066L53.7802 29.9244C54.6305 29.7775 55.2905 29.7597 55.7572 29.871C56.2239 29.9818 56.6784 30.228 57.1237 30.6085C57.5675 30.9848 57.9575 31.5111 58.291 32.1806C58.6261 32.8517 58.8877 33.7124 59.0763 34.7614C59.2467 35.7053 59.2846 36.5467 59.1924 37.2815C59.1008 38.019 58.9239 38.619 58.6623 39.0841C58.4013 39.5524 58.0523 39.9271 57.6176 40.2146C57.1797 40.5036 56.5878 40.7142 55.843 40.8412L52.3801 41.4412L50.4143 30.5066ZM52.5842 32.0369L53.8846 39.2754L55.2708 39.0355C55.8643 38.9331 56.2857 38.8061 56.5334 38.6488C56.7812 38.493 56.9682 38.2902 57.0982 38.0399C57.2292 37.7895 57.3065 37.4164 57.332 36.9183C57.3576 36.4223 57.3017 35.7852 57.1616 35.0028C57.0166 34.1938 56.8446 33.5645 56.6464 33.1156C56.4471 32.6693 56.2026 32.3316 55.9139 32.1064C55.624 31.8801 55.2996 31.7541 54.9384 31.7285C54.6699 31.7097 54.1638 31.763 53.4206 31.8916L52.5842 32.0369ZM61.5472 39.8561L59.5808 28.9214L61.4188 28.6026L63.3835 39.5378L61.5472 39.8561ZM59.4705 27.9477L59.1141 25.9627L60.8418 25.6633L61.1982 27.6488L59.4705 27.9477ZM65.1896 39.2252L63.2397 28.382L65.0777 28.0648L66.6935 37.0589L71.2858 36.265L71.6183 38.1141L65.1896 39.2252ZM70.9763 26.9495L74.3427 26.3673C75.193 26.2204 75.8525 26.2026 76.3192 26.314C76.7859 26.4248 77.2404 26.6725 77.6863 27.0514C78.1301 27.4277 78.5195 27.954 78.8535 28.6235C79.1886 29.2946 79.4497 30.1554 79.6388 31.2043C79.8093 32.1482 79.8471 32.9896 79.7549 33.7245C79.6628 34.4619 79.4859 35.0619 79.2249 35.527C78.9638 35.9953 78.6149 36.3701 78.1796 36.6575C77.7417 36.9465 77.1498 37.1572 76.4055 37.2857L72.9427 37.8841L70.9763 26.9495ZM73.1467 28.4798L74.4466 35.7183L75.8328 35.4784C76.4263 35.376 76.8477 35.249 77.0955 35.0932C77.3432 34.9359 77.5307 34.7332 77.6602 34.4828C77.7918 34.2325 77.869 33.8593 77.8946 33.3612C77.9202 32.8663 77.8642 32.2281 77.7236 31.4458C77.5787 30.6367 77.4066 30.0075 77.2089 29.5601C77.0097 29.1122 76.7646 28.7745 76.4764 28.5493C76.1866 28.324 75.8616 28.197 75.5009 28.1714C75.2319 28.1526 74.7263 28.2059 73.9831 28.3345L73.1467 28.4798ZM82.1092 36.299L80.1428 25.3643L81.9808 25.0455L83.9455 35.9807L82.1092 36.299ZM80.033 24.3907L79.6766 22.4057L81.4038 22.1062L81.7602 24.0917L80.033 24.3907Z" fill="white"/>
<path fill-rule="evenodd" clip-rule="evenodd" d="M43.7315 52.0044L45.8385 50.9262L44.9232 48.775L46.9285 50.0252L48.3696 48.1719L48.2694 50.5008L50.6253 50.7987L48.5188 51.8774L49.4356 54.0286L47.4298 52.7779L45.9877 54.6312L46.0889 52.3023L43.7315 52.0044Z" fill="white"/>
<path fill-rule="evenodd" clip-rule="evenodd" d="M52.6913 49.874L53.7925 48.7231L52.7168 47.5498L54.2831 47.9083L54.7812 46.4089L55.2469 47.9183L56.8201 47.5927L55.721 48.7435L56.7945 49.9168L55.2282 49.5573L54.7301 51.0577L54.265 49.5468L52.6913 49.874Z" fill="white"/>
<path fill-rule="evenodd" clip-rule="evenodd" d="M37.143 51.1853L38.73 50.935L38.6107 49.3613L39.6256 50.5854L40.9559 49.6979L40.3837 51.1718L41.8317 51.8564L40.243 52.1083L40.3624 53.6815L39.3475 52.458L38.0188 53.3454L38.591 51.871L37.143 51.1853Z" fill="white"/>
<path fill-rule="evenodd" clip-rule="evenodd" d="M45.8534 22.1361L43.7469 23.2148L44.6633 25.366L42.658 24.1153L41.2158 25.9686L41.3171 23.6397L38.9612 23.3434L41.0677 22.2636L40.1509 20.1124L42.1567 21.3626L43.5988 19.5093L43.4976 21.8382L45.8534 22.1361Z" fill="white"/>
<path fill-rule="evenodd" clip-rule="evenodd" d="M36.8952 24.2679L35.794 25.4193L36.8697 26.5926L35.3034 26.2325L34.8053 27.733L34.3402 26.2221L32.7664 26.5498L33.866 25.3984L32.792 24.2251L34.3567 24.5836L34.8564 23.0842L35.3215 24.5941L36.8952 24.2679Z" fill="white"/>
<path fill-rule="evenodd" clip-rule="evenodd" d="M52.4435 22.9553L50.8565 23.2072L50.9758 24.7788L49.9609 23.5569L48.6306 24.4438L49.2028 22.97L47.7548 22.2843L49.3435 22.0339L49.2241 20.4603L50.239 21.6843L51.5677 20.7953L50.9955 22.2707L52.4435 22.9553Z" fill="white"/>
</svg>