<svg xmlns:xlink="http://www.w3.org/1999/xlink" xmlns="http://www.w3.org/2000/svg" width="20" height="20" viewBox="0 0 20 20" fill="none">
  <rect width="20" height="20" fill="#F9F9F9"/>
  <mask id="mask0_0_761" style="mask-type:luminance" maskUnits="userSpaceOnUse" x="0" y="0" width="20" height="20">
    <rect width="20" height="20" fill="white"/>
  </mask>
  <g mask="url(#mask0_0_761)">
    <path fill-rule="evenodd" clip-rule="evenodd" d="M17.2036 6.75H17.5V7.25H17.1724L17.0307 9.51656C17.0103 9.83349 16.8008 10.1068 16.5 10.2087V16.25C16.4992 16.94 15.94 17.4992 15.25 17.5H8.75C8.15626 17.4992 7.6447 17.0816 7.52516 16.5H7.25C6.65626 16.4992 6.1447 16.0816 6.02516 15.5H3.5C2.94797 15.4994 2.50062 15.052 2.5 14.5V3.5C2.50062 2.94797 2.94797 2.50062 3.5 2.5H10.5C11.052 2.50062 11.4994 2.94797 11.5 3.5V14.5C11.4994 15.052 11.052 15.4994 10.5 15.5H8V16H12.25C12.664 15.9995 12.9995 15.664 13 15.25V10.2087C12.6992 10.1068 12.4897 9.83349 12.4693 9.51656L12.3276 7.25H12V6.75H12.2964L12.2505 6.01562C12.2462 5.94674 12.2705 5.87914 12.3178 5.82884C12.365 5.77854 12.431 5.75 12.5 5.75V4.25C12.5 3.83579 12.8358 3.5 13.25 3.5C13.6642 3.5 14 3.83579 14 4.25V5.75C14.069 5.75 14.135 5.77854 14.1822 5.82884C14.2295 5.87914 14.2538 5.94674 14.2495 6.01562L14.2036 6.75H14.5V7.25H14.1724L14.0307 9.51656C14.0103 9.83349 13.8008 10.1068 13.5 10.2087V15.25C13.4992 15.94 12.94 16.4992 12.25 16.5H8.043C8.14924 16.7994 8.43232 16.9996 8.75 17H15.25C15.664 16.9995 15.9995 16.664 16 16.25V10.2087C15.6992 10.1068 15.4897 9.83349 15.4693 9.51656L15.3276 7.25H15V6.75H15.2964L15.2505 6.01562C15.2462 5.94674 15.2705 5.87914 15.3178 5.82884C15.365 5.77854 15.431 5.75 15.5 5.75V4.25C15.5 3.83579 15.8358 3.5 16.25 3.5C16.6642 3.5 17 3.83579 17 4.25V5.75C17.069 5.75 17.135 5.77854 17.1822 5.82884C17.2295 5.87914 17.2538 5.94674 17.2495 6.01562L17.2036 6.75ZM13.25 4C13.1119 4 13 4.11193 13 4.25V5.75H13.5V4.25C13.5 4.11193 13.3881 4 13.25 4ZM13.5317 9.48541L13.6714 7.25H12.8286L12.9683 9.48541C12.9777 9.63408 13.101 9.74985 13.25 9.74985C13.399 9.74985 13.5223 9.63408 13.5317 9.48541ZM13.7339 6.25L13.7026 6.75H12.7974L12.7661 6.25H13.7339ZM3 14.5V3.5C3.00033 3.22399 3.22399 3.00033 3.5 3H10.5C10.776 3.00033 10.9997 3.22399 11 3.5V14.5C10.9997 14.776 10.776 14.9997 10.5 15H3.5C3.22399 14.9997 3.00033 14.776 3 14.5ZM7.5 15.5H6.543C6.64924 15.7994 6.93232 15.9996 7.25 16H7.5V15.5ZM16 4.25C16 4.11193 16.1119 4 16.25 4C16.3881 4 16.5 4.11193 16.5 4.25V5.75H16V4.25ZM16.5317 9.48541C16.5223 9.63408 16.399 9.74985 16.2501 9.74985C16.1011 9.74985 15.9778 9.63408 15.9684 9.48541L15.8286 7.25H16.6714L16.5317 9.48541ZM16.7026 6.75L16.7339 6.25H15.7661L15.7974 6.75H16.7026ZM10.5 3.75C10.5 3.61193 10.3881 3.5 10.25 3.5H3.75C3.61193 3.5 3.5 3.61193 3.5 3.75V6.75C3.5 6.88807 3.61193 7 3.75 7H10.25C10.3881 7 10.5 6.88807 10.5 6.75V3.75ZM10 6.5H4V4H10V6.5ZM6.35134 12.1258C6.48525 12.3574 6.73248 12.5 7 12.5C7.26752 12.5 7.51475 12.3574 7.64866 12.1258C8.31375 11.8601 8.74998 11.2162 8.74998 10.5C8.74998 9.78382 8.31375 9.13986 7.64866 8.87422C7.51475 8.64262 7.26752 8.49999 7 8.49999C6.73248 8.49999 6.48525 8.64262 6.35134 8.87422C5.68625 9.13986 5.25002 9.78382 5.25002 10.5C5.25002 11.2162 5.68625 11.8601 6.35134 12.1258ZM8.25 10.5C8.24956 10.8933 8.06441 11.2636 7.75 11.5V9.5C8.06441 9.73636 8.24956 10.1067 8.25 10.5ZM7 9C6.86193 9 6.75 9.11193 6.75 9.25V11.75C6.75 11.8881 6.86193 12 7 12C7.13807 12 7.25 11.8881 7.25 11.75V9.25C7.25 9.11193 7.13807 9 7 9ZM6.25 9.5V11.5C5.93524 11.2639 5.75 10.8934 5.75 10.5C5.75 10.1066 5.93524 9.73607 6.25 9.5ZM9.25 13C9.66421 13 10 13.3358 10 13.75C10 14.1642 9.66421 14.5 9.25 14.5H4.75C4.33579 14.5 4 14.1642 4 13.75C4 13.3358 4.33579 13 4.75 13H9.25ZM9.25 14C9.38807 14 9.5 13.8881 9.5 13.75C9.5 13.6119 9.38807 13.5 9.25 13.5H4.75C4.61193 13.5 4.5 13.6119 4.5 13.75C4.5 13.8881 4.61193 14 4.75 14H9.25Z" fill="#EA3B31"/>
  </g>
</svg>