<svg xmlns:xlink="http://www.w3.org/1999/xlink" xmlns="http://www.w3.org/2000/svg" width="20" height="20" viewBox="0 0 20 20" fill="none">
  <rect width="20" height="20" fill="#F9F9F9"/>
  <mask id="mask0_0_676" style="mask-type:luminance" maskUnits="userSpaceOnUse" x="0" y="0" width="20" height="20">
    <rect width="20" height="20" fill="white"/>
  </mask>
  <g mask="url(#mask0_0_676)">
    <path fill-rule="evenodd" clip-rule="evenodd" d="M5.69055 4.5C5.80486 4.5 5.89429 4.58666 5.89429 4.6968V5.32229H4.93232V4.6968C4.93232 4.59017 5.02539 4.5 5.13606 4.5H5.69055ZM14.8645 4.5C14.9788 4.5 15.0682 4.58666 15.0682 4.6968V5.32229H14.1063V4.6968C14.1063 4.59017 14.1993 4.5 14.31 4.5H14.8645ZM17.2253 5.86248H2.77501C2.62577 5.86248 2.5 5.98747 2.5 6.13568V7.06191C2.5 7.20849 2.62325 7.32755 2.77501 7.32755H17.225C17.3793 7.32755 17.5 7.21065 17.5 7.06191V6.13568C17.5003 5.98504 17.377 5.86248 17.2253 5.86248ZM4.1794 14.5381C4.1794 15.0686 4.62629 15.5 5.17547 15.5H14.8326C15.3821 15.5 15.8287 15.0683 15.8287 14.5381V7.86746H4.1794V14.5381ZM8.62317 12.1268L10.1663 9.96584C10.211 9.90293 10.2968 9.87443 10.3754 9.89551C10.4549 9.91659 10.5093 9.98253 10.5093 10.0572V11.4328H11.1473C11.2155 11.4328 11.2783 11.4665 11.3111 11.5206C11.3438 11.5748 11.341 11.6409 11.3039 11.6928L9.76059 13.8537C9.72554 13.9028 9.66606 13.931 9.60398 13.931C9.58646 13.931 9.56875 13.9286 9.55141 13.9241C9.47199 13.903 9.41755 13.837 9.41755 13.7623V12.3868H8.77958C8.71135 12.3868 8.64852 12.3531 8.61589 12.2989C8.58327 12.2448 8.58607 12.1785 8.62317 12.1268Z" fill="#EA3B31"/>
  </g>
</svg>