<svg xmlns:xlink="http://www.w3.org/1999/xlink" xmlns="http://www.w3.org/2000/svg" width="20" height="20" viewBox="0 0 20 20" fill="none">
  <rect width="20" height="20" fill="#F9F9F9"/>
  <mask id="mask0_0_687" style="mask-type:luminance" maskUnits="userSpaceOnUse" x="0" y="0" width="20" height="20">
    <rect width="20" height="20" fill="white"/>
  </mask>
  <g mask="url(#mask0_0_687)">
</g>
  <mask id="path-3-inside-1_0_687" fill="white">
    <path fill-rule="evenodd" clip-rule="evenodd" d="M6.5 3H7V6H8.5V3H9V6H11V3H11.5V6H13.5V3H14V6H15H15.5V6.5V13.5V14H15H14V17H13.5V14H11.5V17H11V14H9V17H8.5V14H7V17H6.5V14H5H4.5V13.5V6.5V6H5H6.5V3ZM5.5 6.5H5V7V13V13.5H5.5H6.5H7H8.5H9H11H11.5H13.5H14H14.5H15V13V7V6.5H14.5H14H13.5H11.5H11H9H8.5H7H6.5H5.5Z"/>
  </mask>
  <path d="M7 3H7.5V2.5H7V3ZM6.5 3V2.5H6V3H6.5ZM7 6H6.5V6.5H7V6ZM8.5 6V6.5H9V6H8.5ZM8.5 3V2.5H8V3H8.5ZM9 3H9.5V2.5H9V3ZM9 6H8.5V6.5H9V6ZM11 6V6.5H11.5V6H11ZM11 3V2.5H10.5V3H11ZM11.5 3H12V2.5H11.5V3ZM11.5 6H11V6.5H11.5V6ZM13.5 6V6.5H14V6H13.5ZM13.5 3V2.5H13V3H13.5ZM14 3H14.5V2.5H14V3ZM14 6H13.5V6.5H14V6ZM15.5 6H16V5.5H15.5V6ZM15.5 14V14.5H16V14H15.5ZM14 14V13.5H13.5V14H14ZM14 17V17.5H14.5V17H14ZM13.5 17H13V17.5H13.5V17ZM13.5 14H14V13.5H13.5V14ZM11.5 14V13.5H11V14H11.5ZM11.5 17V17.5H12V17H11.5ZM11 17H10.5V17.5H11V17ZM11 14H11.5V13.5H11V14ZM9 14V13.5H8.5V14H9ZM9 17V17.5H9.5V17H9ZM8.5 17H8V17.5H8.5V17ZM8.5 14H9V13.5H8.5V14ZM7 14V13.5H6.5V14H7ZM7 17V17.5H7.5V17H7ZM6.5 17H6V17.5H6.5V17ZM6.5 14H7V13.5H6.5V14ZM4.5 14H4V14.5H4.5V14ZM4.5 6V5.5H4V6H4.5ZM6.5 6V6.5H7V6H6.5ZM5 6.5V6H4.5V6.5H5ZM5 13.5H4.5V14H5V13.5ZM15 13.5V14H15.5V13.5H15ZM15 6.5H15.5V6H15V6.5ZM7 2.5H6.5V3.5H7V2.5ZM7.5 6V3H6.5V6H7.5ZM8.5 5.5H7V6.5H8.5V5.5ZM8 3V6H9V3H8ZM9 2.5H8.5V3.5H9V2.5ZM9.5 6V3H8.5V6H9.5ZM11 5.5H9V6.5H11V5.5ZM10.5 3V6H11.5V3H10.5ZM11.5 2.5H11V3.5H11.5V2.5ZM12 6V3H11V6H12ZM13.5 5.5H11.5V6.5H13.5V5.5ZM14 6V3H13V6H14ZM13.5 3.5H14V2.5H13.5V3.5ZM13.5 3V6H14.5V3H13.5ZM15 5.5H14V6.5H15V5.5ZM15.5 5.5H15V6.5H15.5V5.5ZM16 6.5V6H15V6.5H16ZM16 13.5V6.5H15V13.5H16ZM16 14V13.5H15V14H16ZM15 14.5H15.5V13.5H15V14.5ZM14 14.5H15V13.5H14V14.5ZM14.5 17V14H13.5V17H14.5ZM13.5 17.5H14V16.5H13.5V17.5ZM13 14V17H14V14H13ZM11.5 14.5H13.5V13.5H11.5V14.5ZM12 17V14H11V17H12ZM11 17.5H11.5V16.5H11V17.5ZM10.5 14V17H11.5V14H10.5ZM9 14.5H11V13.5H9V14.5ZM9.5 17V14H8.5V17H9.5ZM8.5 17.5H9V16.5H8.5V17.5ZM8 14V17H9V14H8ZM7 14.5H8.5V13.5H7V14.5ZM7.5 17V14H6.5V17H7.5ZM6.5 17.5H7V16.5H6.5V17.5ZM6 14V17H7V14H6ZM5 14.5H6.5V13.5H5V14.5ZM4.5 14.5H5V13.5H4.5V14.5ZM4 13.5V14H5V13.5H4ZM4 6.5V13.5H5V6.5H4ZM4 6V6.5H5V6H4ZM5 5.5H4.5V6.5H5V5.5ZM6.5 5.5H5V6.5H6.5V5.5ZM6 3V6H7V3H6ZM5 7H5.5V6H5V7ZM5.5 7V6.5H4.5V7H5.5ZM5.5 13V7H4.5V13H5.5ZM5.5 13.5V13H4.5V13.5H5.5ZM5.5 13H5V14H5.5V13ZM6.5 13H5.5V14H6.5V13ZM7 13H6.5V14H7V13ZM8.5 13H7V14H8.5V13ZM9 13H8.5V14H9V13ZM11 13H9V14H11V13ZM11.5 13H11V14H11.5V13ZM13.5 13H11.5V14H13.5V13ZM14 13H13.5V14H14V13ZM14.5 13H14V14H14.5V13ZM15 13H14.5V14H15V13ZM14.5 13V13.5H15.5V13H14.5ZM14.5 7V13H15.5V7H14.5ZM14.5 6.5V7H15.5V6.5H14.5ZM14.5 7H15V6H14.5V7ZM14 7H14.5V6H14V7ZM13.5 7H14V6H13.5V7ZM11.5 7H13.5V6H11.5V7ZM11 7H11.5V6H11V7ZM9 7H11V6H9V7ZM8.5 7H9V6H8.5V7ZM7 7H8.5V6H7V7ZM6.5 7H7V6H6.5V7ZM5.5 7H6.5V6H5.5V7Z" fill="#EA3B31" mask="url(#path-3-inside-1_0_687)"/>
  <rect x="7" y="8" width="6" height="4" fill="#EA3B31"/>
</svg>