<svg xmlns:xlink="http://www.w3.org/1999/xlink" xmlns="http://www.w3.org/2000/svg" width="103" height="31" viewBox="0 0 103 31" fill="none">
<g filter="url(#filter0_d_49_3370)">
<path d="M10.5937 18.5137L10.5506 19.1385" stroke="#050707" stroke-width="0.5"/>
<path d="M46.6759 0.0288086L46.649 6.42867C46.649 6.46374 46.6314 6.48056 46.5962 6.47913L46.4325 6.47268" stroke="#CFCFCB" stroke-opacity="0.749" stroke-width="0.5"/>
<path d="M46.4325 6.4728C45.3195 6.44417 44.5218 6.43916 44.0393 6.45777C43.9423 6.46207 43.7919 6.48676 43.588 6.53185C43.4408 6.56478 43.2904 6.57659 43.1367 6.56728C42.6793 6.53722 42.2245 6.54975 41.7721 6.60486" stroke="#050707" stroke-width="0.5"/>
<path d="M46.6834 8.1875L46.6727 13.6372" stroke="#CFCFCB" stroke-opacity="0.749" stroke-width="0.5"/>
<path d="M46.6727 13.6372L46.6813 14.6002" stroke="#DEDDDF" stroke-opacity="0.882" stroke-width="0.5"/>
<path d="M46.6813 14.6001C46.496 14.6896 46.2077 14.7143 45.8164 14.6742C45.4588 14.6384 44.9497 14.6373 44.2892 14.671C43.6408 14.7032 43.1324 14.7196 42.7641 14.7203C41.0831 14.7225 39.4751 14.7228 37.94 14.7214C37.9177 14.7207 37.8962 14.7246 37.8753 14.7332C37.8574 14.7404 37.8387 14.744 37.8193 14.744C37.0036 14.7397 36.1883 14.7454 35.3734 14.7611" stroke="#050707" stroke-width="0.5"/>
<path d="M45.8724 16.3619L45.2176 16.4124" stroke="#DEDDDF" stroke-opacity="0.882" stroke-width="0.5"/>
<path d="M45.2176 16.4127C41.514 16.4177 37.8093 16.4156 34.1035 16.4062C34.0159 16.4062 33.9294 16.4188 33.844 16.4438C33.8425 16.4445 33.8422 16.4442 33.8429 16.4428C33.8465 16.4392 33.8458 16.4381 33.8407 16.4395C33.835 16.441 33.8353 16.4417 33.8418 16.4417C33.8483 16.441 33.8547 16.441 33.8612 16.4417C34.0034 16.4646 34.1401 16.4764 34.2715 16.4771C38.1425 16.5 42.2266 16.5029 46.524 16.4857C46.614 16.485 46.6885 16.5545 46.6931 16.6435C46.7136 17.0021 46.649 17.3521 46.6511 17.7139C46.6569 19.1189 46.6691 20.5239 46.6878 21.929C46.6892 22.0621 46.6964 22.1974 46.7093 22.3348" stroke="#050707" stroke-width="0.5"/>
<path d="M53.1069 0L53.1102 4.64449C53.1109 4.77995 53.158 4.91103 53.2437 5.01596C53.4634 5.28437 53.7223 5.56565 54.0203 5.85983C55.9094 7.73222 57.7652 9.59102 59.5875 11.4362C59.6185 11.4679 59.6185 11.5183 59.5875 11.55C57.8348 13.3122 56.0566 15.089 54.2529 16.8806C53.9485 17.1826 53.6368 17.5118 53.318 17.8683C53.1845 18.0179 53.1173 18.253 53.1166 18.5737C53.113 20.0352 53.1123 21.5021 53.1145 22.9744" stroke="#F3D588" stroke-width="0.5"/>
<path d="M62.2349 4.17102L64.4924 6.45139C64.5202 6.47965 64.5583 6.49555 64.5982 6.49555C64.638 6.49555 64.6764 6.47965 64.7046 6.45139C66.4595 4.67276 68.2951 2.83543 70.2115 0.939419C70.302 0.84995 70.3979 0.765134 70.4991 0.68497C70.5659 0.633437 70.6 0.567588 70.6014 0.487424C70.6022 0.474541 70.609 0.468099 70.6219 0.468099C70.7239 0.472393 70.786 0.424796 70.8082 0.325307C70.8161 0.288804 70.838 0.264469 70.8739 0.252301C70.9924 0.210072 71.0495 0.125972 71.0452 0" stroke="#F3D588" stroke-width="0.5"/>
<path d="M71.0753 22.9786C71.0696 22.8484 71.005 22.7621 70.8815 22.7199C70.8456 22.7077 70.8208 22.6841 70.8072 22.649C70.7784 22.5717 70.7235 22.522 70.6424 22.4998C70.6309 22.4969 70.6215 22.4912 70.6144 22.4826C70.6072 22.4733 70.6022 22.4636 70.5993 22.4536C70.595 22.4386 70.5874 22.4257 70.5767 22.415L64.6884 16.5283C64.6353 16.4754 64.5491 16.4749 64.4946 16.5272C63.7428 17.2566 63.0269 18.0006 62.3469 18.7593C62.3297 18.7779 62.3179 18.8062 62.3114 18.8441" stroke="#F3D588" stroke-width="0.5"/>
<path fill-rule="evenodd" clip-rule="evenodd" d="M21.7174 0H4V22.9637L10.4451 22.9744C10.4647 22.9747 10.4835 22.967 10.4972 22.9529C10.5109 22.9389 10.5181 22.9199 10.5172 22.9003C10.4777 21.6456 10.4889 20.3917 10.5506 19.1384L10.5937 18.5135L10.5958 16.6712C10.5958 16.5531 10.6533 16.479 10.7682 16.449C11.2087 16.3319 11.5393 16.6347 11.8485 16.9396C13.4497 18.5214 15.1191 20.1877 16.8567 21.9384C17.1533 22.2376 17.4534 22.5292 17.7571 22.8134C17.9647 23.0068 18.4172 22.9975 18.7252 22.9912C18.7608 22.9905 18.7944 22.9898 18.8256 22.9895C21.5699 22.968 24.2489 22.9691 26.8625 22.9927C27.1267 22.9948 27.4219 22.9766 27.7478 22.9379C27.7873 22.9336 27.7942 22.9165 27.7683 22.8864C27.7425 22.8578 27.7148 22.8291 27.6854 22.8005C26.3994 21.5766 24.9403 20.1304 23.3082 18.462C23.097 18.2462 22.8698 18.0373 22.641 17.8269C22.22 17.4398 21.7937 17.048 21.4525 16.5993C21.3915 16.5184 21.4116 16.4819 21.5128 16.4898C21.7828 16.5091 22.0136 16.4321 22.2054 16.2589C23.2508 15.3177 24.232 14.3643 25.1489 13.3988C25.2688 13.2728 25.3284 13.1225 25.3277 12.9479C25.3256 9.91024 25.3256 6.79137 25.3277 3.59126C25.3277 3.37654 25.2469 3.18078 25.0854 3.00399C24.3207 2.17086 23.4106 1.27081 22.3551 0.303835C22.1626 0.127761 21.9501 0.0264827 21.7174 0ZM10.5775 6.84863L10.626 6.84648C10.57 6.74342 10.5844 6.67005 10.6691 6.62639C10.7079 6.60564 10.7495 6.59561 10.794 6.59633C13.3646 6.62424 15.9779 6.62102 18.6339 6.58667C18.7143 6.58524 18.7559 6.6246 18.7588 6.70477L18.7857 7.42409L18.8073 7.86213L18.8234 9.73667C18.8241 9.82686 18.7793 9.87195 18.6888 9.87195C16.0019 9.88125 13.3341 9.88125 10.6852 9.87195C10.6393 9.87195 10.5926 9.8673 10.5452 9.85799C10.495 9.84869 10.4795 9.81147 10.4989 9.74634C10.4788 8.73713 10.4867 7.72757 10.5226 6.71765C10.5248 6.64751 10.5413 6.63248 10.5721 6.67256C10.5908 6.69761 10.5926 6.7563 10.5775 6.84863Z" fill="#050707"/>
<path d="M10.626 6.84655C10.6095 6.84727 10.5933 6.84798 10.5775 6.8487" stroke="#050707" stroke-width="0.5"/>
<path d="M10.5775 6.84882C10.5926 6.75648 10.5908 6.69779 10.5721 6.67274C10.5413 6.63266 10.5248 6.64769 10.5226 6.71783C10.4867 7.72775 10.4788 8.73732 10.4989 9.74652" stroke="#050707" stroke-width="0.5"/>
<path d="M18.8073 7.86235L18.7857 7.42432" stroke="#050707" stroke-width="0.5"/>
<path d="M30.3834 0H46.6597C46.6547 0.00930472 46.6601 0.0189673 46.6759 0.0289878L46.649 6.42885C46.649 6.46392 46.6314 6.48074 46.5962 6.47931L46.4325 6.47286C45.3195 6.44423 44.5218 6.43922 44.0393 6.45783C43.9423 6.46213 43.7919 6.48682 43.588 6.53191C43.4408 6.56484 43.2904 6.57665 43.1367 6.56734C42.6793 6.53728 42.2244 6.54981 41.7721 6.60492L33.7394 6.60277C33.7 6.60263 33.6669 6.63286 33.663 6.67256C33.6608 6.69475 33.654 6.70011 33.6425 6.68866C33.6045 6.65144 33.5851 6.66039 33.5844 6.7155C33.575 7.16571 33.5653 7.59981 33.5553 8.01781C33.5524 8.11085 33.598 8.15773 33.6921 8.15845L46.6834 8.18744L46.6726 13.6371L46.6813 14.6002C46.496 14.6896 46.2077 14.7143 45.8164 14.6743C45.4588 14.6385 44.9497 14.6374 44.2891 14.671C43.6408 14.7032 43.1324 14.7197 42.764 14.7204C41.0831 14.7226 39.4751 14.7229 37.9399 14.7215C37.9177 14.7208 37.8961 14.7247 37.8753 14.7333C37.8574 14.7405 37.8387 14.744 37.8193 14.744C37.0036 14.7397 36.1883 14.7455 35.3733 14.7612L33.7621 14.7516C33.726 14.7513 33.6913 14.7654 33.6658 14.7909C33.6403 14.8163 33.6261 14.8509 33.6264 14.8868L33.6307 16.2804C33.6307 16.3207 33.6635 16.3534 33.7039 16.3534L45.8724 16.362L45.2176 16.4125C41.5139 16.4175 37.8093 16.4153 34.1035 16.406C34.0159 16.406 33.9294 16.4185 33.8439 16.4436C33.8425 16.4443 33.8421 16.4439 33.8428 16.4425C33.8464 16.4389 33.8457 16.4379 33.8407 16.4393C33.8349 16.4407 33.8353 16.4414 33.8418 16.4414C33.8482 16.4407 33.8547 16.4407 33.8612 16.4414C34.0033 16.4643 34.1401 16.4762 34.2715 16.4769C38.1424 16.4998 42.2266 16.5026 46.524 16.4855C46.614 16.4847 46.6885 16.5543 46.6931 16.6433C46.7136 17.0019 46.649 17.3519 46.6511 17.7137C46.6569 19.1187 46.6691 20.5237 46.6877 21.9287C46.6892 22.0618 46.6963 22.1971 46.7093 22.3345L46.6899 22.9229C46.6887 22.9529 46.664 22.9766 46.6339 22.9766C41.5236 22.9737 36.3147 22.9766 31.007 22.9852C30.8002 22.9852 30.5859 22.9734 30.364 22.9497C30.3008 22.9426 30.2462 22.9172 30.2003 22.8735C29.2044 21.9251 28.2584 20.9725 27.3622 20.0155C27.1899 19.8309 27.0639 19.6237 27.051 19.3606C26.9982 18.2967 27.0424 17.2381 27.0434 16.1612C27.0499 12.0929 27.051 7.89004 27.0467 3.55261C27.0467 3.18329 27.4872 2.79571 27.7284 2.552C28.6087 1.66161 29.4937 0.810942 30.3834 0Z" fill="#050707"/>
<path d="M48.3938 0H53.1069L53.1102 4.64449C53.1109 4.77995 53.158 4.91103 53.2437 5.01596C53.4634 5.28437 53.7223 5.56565 54.0203 5.85983C55.9094 7.73222 57.7652 9.59102 59.5875 11.4362C59.6185 11.4679 59.6185 11.5183 59.5875 11.55C57.8348 13.3122 56.0566 15.089 54.2529 16.8806C53.9485 17.1826 53.6368 17.5118 53.318 17.8683C53.1845 18.0179 53.1173 18.253 53.1166 18.5737C53.113 20.0352 53.1123 21.5021 53.1145 22.9744L48.4616 22.9819C48.4027 22.9819 48.3733 22.953 48.3733 22.895V18.2999C48.3733 18.1799 48.4122 18.0629 48.4842 17.966C48.6099 17.7971 48.7467 17.6389 48.8946 17.4914C50.9992 15.3964 52.9863 13.411 54.8561 11.535C54.8826 11.5085 54.883 11.4817 54.8571 11.4545C54.5225 11.103 54.1883 10.7598 53.8544 10.4249C52.3293 8.89603 50.8042 7.38437 49.2791 5.88989C48.9969 5.61397 48.7147 5.30584 48.4864 4.9859C48.4024 4.86923 48.3604 4.71928 48.3604 4.53605C48.3597 3.02153 48.3708 1.50951 48.3938 0Z" fill="white"/>
<path d="M53.1069 0H57.7178C57.9619 0.0307771 58.191 0.151381 58.4049 0.36181C59.673 1.60864 60.9496 2.87838 62.2349 4.17102L64.4924 6.45139C64.5202 6.47965 64.5583 6.49555 64.5982 6.49555C64.638 6.49555 64.6764 6.47965 64.7046 6.45139C66.4595 4.67276 68.2951 2.83543 70.2115 0.939419C70.302 0.84995 70.3979 0.765134 70.4991 0.68497C70.5659 0.633437 70.6 0.567588 70.6014 0.487424C70.6021 0.474541 70.609 0.468099 70.6219 0.468099C70.7239 0.472393 70.786 0.424796 70.8082 0.325307C70.8161 0.288804 70.838 0.264469 70.8739 0.252301C70.9924 0.210072 71.0495 0.125972 71.0452 0H76.1342C76.1342 1.4136 76.1357 2.8272 76.1385 4.2408C76.14 4.64019 75.9913 5.00164 75.6926 5.32516C75.4284 5.61146 75.1663 5.88237 74.9064 6.13789C73.2549 7.76407 71.4979 9.51622 69.6353 11.3943C69.5757 11.4545 69.5754 11.5146 69.6342 11.5747C71.6085 13.5749 73.6139 15.5557 75.6108 17.5473C75.8725 17.8082 76.0718 18.1034 76.0858 18.4856C76.0965 18.7787 76.1353 19.0761 76.1342 19.3638C76.1306 20.4818 76.1317 21.6381 76.1375 22.8327C76.1375 22.93 76.0886 22.9787 75.991 22.9787H71.0753C71.0696 22.8485 71.005 22.7622 70.8815 22.72C70.8456 22.7078 70.8208 22.6842 70.8071 22.6491C70.7784 22.5718 70.7235 22.5221 70.6424 22.4999C70.6309 22.497 70.6215 22.4913 70.6144 22.4827C70.6072 22.4734 70.6021 22.4637 70.5993 22.4537C70.595 22.4387 70.5874 22.4258 70.5767 22.4151L64.6884 16.5284C64.6353 16.4755 64.5491 16.475 64.4946 16.5273C63.7428 17.2567 63.0269 18.0007 62.3469 18.7594C62.3297 18.778 62.3179 18.8063 62.3114 18.8442C62.2877 18.7612 62.2568 18.7651 62.2188 18.856C62.2051 18.8889 62.1818 18.9104 62.1488 18.9204C62.0849 18.9398 62.0299 18.9734 61.984 19.0214C60.7813 20.2732 59.5484 21.5143 58.2854 22.7447C57.9957 23.027 57.7975 22.9755 57.3193 22.9755C55.917 22.9776 54.5154 22.9773 53.1145 22.9744C53.1123 21.5021 53.113 20.0352 53.1166 18.5737C53.1173 18.253 53.1845 18.0179 53.318 17.8683C53.6368 17.5118 53.9485 17.1826 54.2529 16.8806C56.0566 15.089 57.8348 13.3122 59.5875 11.55C59.6185 11.5183 59.6185 11.4679 59.5875 11.4362C57.7652 9.59102 55.9094 7.73222 54.0203 5.85983C53.7223 5.56565 53.4634 5.28437 53.2437 5.01596C53.158 4.91103 53.1109 4.77995 53.1102 4.64449L53.1069 0Z" fill="#E7AA11"/>
<path d="M66.472 0H71.0452C71.0495 0.125972 70.9924 0.210072 70.8739 0.252301C70.838 0.264469 70.8161 0.288804 70.8082 0.325307C70.786 0.424796 70.7239 0.472393 70.6219 0.468099C70.609 0.468099 70.6022 0.474541 70.6014 0.487424C70.6 0.567588 70.5659 0.633437 70.4991 0.68497C70.3979 0.765134 70.302 0.84995 70.2115 0.939419C68.2951 2.83543 66.4595 4.67276 64.7046 6.45139C64.6764 6.47965 64.638 6.49555 64.5982 6.49555C64.5583 6.49555 64.5202 6.47965 64.4924 6.45139L62.2349 4.17102L66.472 0Z" fill="white"/>
<path fill-rule="evenodd" clip-rule="evenodd" d="M81.0014 0H95.3875C95.6159 0.0286299 95.8363 0.139929 96.0488 0.333896C97.039 1.24218 97.9538 2.15512 98.7931 3.0727C98.9159 3.20691 98.9999 3.36044 98.9999 3.54725C98.9964 5.49766 98.996 7.4767 98.9989 9.48437C98.9989 9.68335 98.9335 9.8562 98.8028 10.0029C98.4603 10.388 98.0848 10.7638 97.6762 11.1302C97.5807 11.2154 97.4953 11.3117 97.4199 11.419C97.4002 11.4466 97.4044 11.4844 97.4296 11.5071C97.9064 11.9401 98.3379 12.3617 98.7242 12.7718C98.8847 12.9436 99.001 13.1733 98.9999 13.4106C98.9956 15.3689 98.9953 17.3565 98.9989 19.3735C98.9989 19.5732 98.9307 19.7496 98.7942 19.9028C98.0798 20.7001 97.1223 21.6578 95.9217 22.7758C95.776 22.9125 95.6058 22.9805 95.4112 22.9798C90.6665 22.9726 85.9447 22.973 81.2459 22.9809C81.0341 22.9809 80.8553 22.9086 80.7095 22.764C79.9455 22.0075 79.1998 21.2663 78.4725 20.5405C78.2495 20.3172 78.0524 20.0778 77.851 19.833C77.7778 19.745 77.7311 19.6423 77.711 19.5249C77.6629 19.2457 77.6396 18.9741 77.641 18.71C77.6525 16.8813 77.6643 15.0493 77.6765 13.2141C77.6765 13.1497 77.6941 13.0942 77.7293 13.0477C78.051 12.6226 78.5565 12.1119 79.2458 11.5157C79.2795 11.487 79.281 11.4563 79.2501 11.4233C78.9004 11.0547 78.5242 10.6761 78.1214 10.2874C77.8715 10.047 77.6744 9.80753 77.6711 9.4833C77.6489 7.46489 77.641 5.67588 77.6475 4.11626L77.6476 4.06188C77.6477 3.80039 77.6481 3.36063 77.8036 3.17255C77.8704 3.09239 77.9386 3.01473 78.0083 2.93958C78.9798 1.89745 79.9775 0.917588 81.0014 0ZM91.9787 7.75799C92.0943 7.76729 92.1463 7.71576 92.1348 7.60339C92.1305 7.5583 92.1506 7.54004 92.1951 7.54863C92.2806 7.56509 92.328 7.53145 92.3373 7.44771C92.356 7.2788 92.2968 7.16535 92.1596 7.10737C92.1216 7.09163 92.095 7.06443 92.0799 7.02578C92.0555 6.96566 92.0138 6.92021 91.955 6.88943C91.9212 6.87225 91.8947 6.84756 91.8753 6.81535C91.7956 6.67864 91.6731 6.60957 91.508 6.60814C90.2758 6.59669 88.3002 6.59597 85.581 6.60599C85.0044 6.60814 84.589 6.85829 84.3348 7.35645C84.3203 7.38461 84.3237 7.41864 84.3435 7.44342C84.5251 7.67532 84.7222 7.86034 84.9348 7.99848C85.168 8.14974 85.4619 8.1503 85.7372 8.15082L85.7846 8.15093C87.7276 8.1631 89.6759 8.16525 91.6297 8.15738C91.6649 8.15666 91.6875 8.13948 91.6976 8.10584C91.7026 8.0901 91.7019 8.07435 91.6954 8.0586C91.6703 7.99347 91.6925 7.96591 91.7622 7.97593C91.8175 7.98381 91.8609 7.96699 91.8925 7.92547C91.9083 7.90472 91.9162 7.88181 91.9162 7.85676C91.9162 7.84603 91.9155 7.83565 91.914 7.82563C91.9076 7.77624 91.9291 7.75369 91.9787 7.75799ZM92.361 15.6201C92.198 15.8255 91.9991 16.0381 91.7643 16.2579C91.6846 16.333 91.5906 16.3713 91.4821 16.3727C89.0416 16.4071 87.0138 16.4078 85.399 16.3749C84.9358 16.3663 84.574 15.9927 84.3273 15.6266C84.3086 15.5986 84.3079 15.57 84.3252 15.5407C84.5955 15.0661 84.9326 14.7741 85.525 14.7612C85.8366 14.7541 86.1486 14.7505 86.4609 14.7505C88.1813 14.7498 89.8723 14.7544 91.5338 14.7644C91.6169 14.7644 91.6962 14.7991 91.7525 14.86L92.3556 15.502C92.3867 15.5346 92.389 15.5849 92.361 15.6201Z" fill="#E7AA11"/>
<path d="M46.6759 0.0290445C46.7269 0.0197397 46.7682 0.019024 46.7997 0.0268972C46.8364 0.0362019 46.8547 0.0598216 46.8547 0.0977562L46.8568 6.547C46.8568 6.58637 46.8371 6.60712 46.7976 6.60927L46.6877 6.61464C46.5427 6.54378 46.3887 6.50978 46.2257 6.51264C46.2077 6.51264 46.2052 6.50656 46.2181 6.49439C46.226 6.48652 46.2357 6.48294 46.2472 6.48366C46.3097 6.48652 46.3714 6.48294 46.4325 6.47292L46.5962 6.47936C46.6314 6.48079 46.649 6.46397 46.649 6.4289L46.6759 0.0290445Z" fill="#6D6E62" fill-opacity="0.494"/>
<path d="M46.4325 6.4728C46.3715 6.48282 46.3097 6.4864 46.2472 6.48354C46.2357 6.48282 46.226 6.4864 46.2182 6.49428C46.2052 6.50644 46.2077 6.51253 46.2257 6.51253C46.3887 6.50967 46.5427 6.54366 46.6877 6.61452C45.6861 6.65961 44.6952 6.66928 43.7151 6.64351C43.0717 6.62633 42.4241 6.61345 41.7721 6.60486C42.2245 6.54975 42.6793 6.53722 43.1367 6.56728C43.2904 6.57659 43.4408 6.56478 43.588 6.53185C43.7919 6.48676 43.9423 6.46207 44.0393 6.45777C44.5218 6.43916 45.3195 6.44417 46.4325 6.4728Z" fill="#050707"/>
<path d="M10.5775 6.84882L10.5743 9.54468C10.5743 9.58047 10.566 9.61411 10.5495 9.6456C10.5316 9.68067 10.5283 9.71431 10.5398 9.74652C10.5219 9.7594 10.5082 9.7594 10.4989 9.74652C10.4788 8.73732 10.4867 7.72775 10.5226 6.71783C10.5248 6.64769 10.5413 6.63266 10.5721 6.67274C10.5908 6.69779 10.5926 6.75648 10.5775 6.84882Z" fill="#050707"/>
<path d="M10.5775 6.84883C10.5933 6.84811 10.6095 6.8474 10.626 6.84668L10.6378 9.77445C10.6376 9.78839 10.6286 9.80069 10.6154 9.80524C10.6021 9.8098 10.5875 9.80565 10.5786 9.79484L10.5398 9.74653C10.5283 9.71432 10.5316 9.68068 10.5495 9.64561C10.566 9.61412 10.5743 9.58048 10.5743 9.54469L10.5775 6.84883Z" fill="#050707"/>
<path d="M33.6296 7.8441C33.6375 7.60791 33.6425 7.36885 33.6447 7.12692C33.6447 7.11762 33.6494 7.11189 33.6587 7.10975C33.6623 7.10831 33.6655 7.10867 33.6684 7.11082C33.672 7.11368 33.6738 7.1169 33.6738 7.12048C33.6932 7.42968 33.6924 7.74068 33.6716 8.05346C33.668 8.10285 33.6526 8.10678 33.6253 8.06527C33.6009 8.02805 33.5962 7.98761 33.6113 7.94395C33.6228 7.91174 33.6289 7.87846 33.6296 7.8441Z" fill="#050707"/>
<path d="M18.7857 7.42432L18.8073 7.86235C18.7958 7.86808 18.7843 7.87381 18.7728 7.87953C18.752 7.81225 18.7491 7.74426 18.7642 7.67554C18.7685 7.65336 18.7505 7.65658 18.7103 7.68521C18.6917 7.51128 18.7168 7.42432 18.7857 7.42432Z" fill="#050707"/>
<path d="M18.7728 7.87916C18.7505 8.25064 18.7412 8.62175 18.7448 8.99251C18.7448 9.00539 18.7383 9.01183 18.7254 9.01183H18.7243C18.7121 9.01255 18.7057 9.00647 18.7049 8.99358C18.7013 8.55769 18.7031 8.12144 18.7103 7.68484C18.7505 7.65621 18.7685 7.65299 18.7642 7.67518C18.7491 7.74389 18.752 7.81188 18.7728 7.87916Z" fill="#050707"/>
<path d="M46.6834 8.18739C46.7315 8.1788 46.7703 8.17844 46.7998 8.18631C46.8314 8.19419 46.8475 8.21458 46.8482 8.24751C46.8583 10.1965 46.8561 12.0703 46.8418 13.869C46.841 13.8847 46.8357 13.8969 46.8256 13.9055C46.8112 13.9169 46.8041 13.9316 46.8041 13.9495L46.7879 14.6463C46.7862 14.7257 46.7211 14.7891 46.6414 14.7891L35.3734 14.7612C36.1883 14.7454 37.0036 14.7397 37.8193 14.744C37.8387 14.744 37.8574 14.7404 37.8753 14.7333C37.8962 14.7247 37.9177 14.7207 37.94 14.7214C39.4751 14.7229 41.0831 14.7225 42.7641 14.7204C43.1324 14.7197 43.6408 14.7032 44.2892 14.671C44.9497 14.6373 45.4588 14.6384 45.8164 14.6742C46.2077 14.7143 46.496 14.6896 46.6813 14.6001C46.7315 14.3933 46.7527 14.2594 46.7448 14.1986C46.7211 14.0139 46.6971 13.8268 46.6727 13.6371L46.6834 8.18739Z" fill="#050707"/>
<circle cx="18.7222" cy="9.44454" r="0.5" transform="rotate(90.7 18.7222 9.44454)" fill="#050707"/>
<path d="M46.6727 13.6372C46.6971 13.8269 46.7211 14.014 46.7448 14.1987C46.7527 14.2595 46.7315 14.3934 46.6813 14.6002L46.6727 13.6372Z" fill="#B3B0B4" fill-opacity="0.765"/>
<path d="M45.8724 16.3619L46.6651 16.3877L45.2176 16.4124L45.8724 16.3619Z" fill="#B3B0B4" fill-opacity="0.765"/>
<path d="M46.6651 16.3877C46.7915 16.4092 46.8461 16.4818 46.8288 16.6056C46.8102 16.7402 46.8015 16.8186 46.803 16.8408C46.8148 17.049 46.8514 17.253 46.8525 17.4613C46.8611 18.993 46.8583 20.5347 46.8439 22.0865C46.8439 22.0886 46.8432 22.0897 46.8417 22.0897C46.8324 22.0911 46.8234 22.0926 46.8148 22.094C46.7854 21.9909 46.7678 22.0435 46.762 22.2518L46.7093 22.3345C46.6963 22.1971 46.6892 22.0618 46.6877 21.9287C46.6691 20.5236 46.6569 19.1186 46.6511 17.7136C46.649 17.3518 46.7136 17.0018 46.6931 16.6432C46.6885 16.5542 46.614 16.4847 46.524 16.4854C42.2266 16.5026 38.1424 16.4997 34.2715 16.4768C34.1401 16.4761 34.0033 16.4643 33.8612 16.4414C33.8547 16.4407 33.8482 16.4407 33.8418 16.4414C33.8353 16.4414 33.8349 16.4407 33.8407 16.4392C33.8457 16.4378 33.8464 16.4389 33.8428 16.4425C33.8421 16.4439 33.8425 16.4442 33.8439 16.4435C33.9294 16.4185 34.0159 16.4059 34.1035 16.4059C37.8093 16.4153 41.5139 16.4174 45.2176 16.4124L46.6651 16.3877Z" fill="#050707"/>
<path d="M71.0753 22.9786C69.2271 23.0087 67.7455 23.0069 66.6304 22.9733C66.4824 22.969 66.3388 22.8981 66.1995 22.7607C64.296 20.879 63.0007 19.5903 62.3136 18.8946C62.3042 18.8845 62.3035 18.8677 62.3114 18.8441C62.3179 18.8062 62.3297 18.7779 62.3469 18.7593C63.0269 18.0006 63.7428 17.2566 64.4946 16.5272C64.5491 16.4749 64.6353 16.4754 64.6884 16.5283L70.5767 22.415C70.5874 22.4257 70.595 22.4386 70.5993 22.4536C70.6022 22.4636 70.6072 22.4733 70.6144 22.4826C70.6215 22.4912 70.6309 22.4969 70.6424 22.4998C70.7235 22.522 70.7784 22.5717 70.8072 22.649C70.8208 22.6841 70.8456 22.7077 70.8815 22.7199C71.005 22.7621 71.0696 22.8484 71.0753 22.9786Z" fill="white"/>
<path d="M10.5937 18.5137L10.6411 22.9306C10.6411 22.937 10.6382 22.9402 10.6325 22.9402L10.6045 22.9391C10.5865 22.9391 10.5775 22.9302 10.5775 22.9123L10.5506 19.1385L10.5937 18.5137Z" fill="#050707"/>
<path d="M46.8148 22.0941L46.8277 22.9187C46.8277 22.9208 46.8263 22.9219 46.8234 22.9219H46.7922C46.7778 22.9226 46.7706 22.9158 46.7706 22.9015L46.762 22.252C46.7678 22.0437 46.7854 21.9911 46.8148 22.0941Z" fill="#B3B0B4" fill-opacity="0.765"/>
</g>
<defs>
<filter id="filter0_d_49_3370" x="0" y="-0.00878906" width="103" height="31.0088" filterUnits="userSpaceOnUse" color-interpolation-filters="sRGB">
<feFlood flood-opacity="0" result="BackgroundImageFix"/>
<feColorMatrix in="SourceAlpha" type="matrix" values="0 0 0 0 0 0 0 0 0 0 0 0 0 0 0 0 0 0 127 0" result="hardAlpha"/>
<feOffset dy="4"/>
<feGaussianBlur stdDeviation="2"/>
<feComposite in2="hardAlpha" operator="out"/>
<feColorMatrix type="matrix" values="0 0 0 0 0 0 0 0 0 0 0 0 0 0 0 0 0 0 0.25 0"/>
<feBlend mode="normal" in2="BackgroundImageFix" result="effect1_dropShadow_49_3370"/>
<feBlend mode="normal" in="SourceGraphic" in2="effect1_dropShadow_49_3370" result="shape"/>
</filter>
</defs>
</svg>