<svg xmlns:xlink="http://www.w3.org/1999/xlink" xmlns="http://www.w3.org/2000/svg" width="40" height="40" viewBox="0 0 40 40" fill="none">
  <rect width="40" height="40" rx="20" fill="#CD3339"/>
  <path fill-rule="evenodd" clip-rule="evenodd" d="M16.6715 17.0724H15.352L15.3499 12.5001L13.6912 8.57129H15.1194L15.96 11.4899L16.7889 8.57925H18.232L16.6729 12.498L16.6715 17.0724ZM18.2696 11.758C18.175 12.0803 18.1274 12.5274 18.1274 13.0999L18.1266 14.679C18.1266 15.2019 18.1517 15.5942 18.2044 15.855C18.2568 16.116 18.3437 16.3399 18.4671 16.5238C18.5893 16.7074 18.7609 16.8456 18.983 16.9373C19.2043 17.0295 19.4728 17.0736 19.7916 17.0736C20.077 17.0736 20.3296 17.021 20.5505 16.9137C20.7689 16.8073 20.9491 16.6406 21.0887 16.4176C21.2304 16.1923 21.3218 15.952 21.3644 15.6929C21.4075 15.4345 21.4296 15.0274 21.4296 14.4742V12.9658C21.4296 12.5284 21.4065 12.2041 21.3596 11.9891C21.3137 11.777 21.2275 11.5698 21.1007 11.3681C20.9763 11.1671 20.7968 11.0043 20.5642 10.8788C20.3327 10.7541 20.0556 10.6904 19.7319 10.6904C19.3472 10.6904 19.0308 10.7883 18.7837 10.984C18.5359 11.1787 18.3648 11.4369 18.2696 11.758ZM22.3658 16.4685C22.4305 16.6263 22.5311 16.7542 22.6675 16.8507C22.8023 16.9458 22.9745 16.9935 23.181 16.9935C23.3619 16.9935 23.5221 16.9446 23.6617 16.8435C23.8008 16.7429 23.9179 16.5925 24.0137 16.3921L23.9899 16.8857H25.3885V10.9213H24.2875V15.5633C24.2875 15.8147 24.0811 16.0205 23.8287 16.0205C23.5777 16.0205 23.3706 15.8147 23.3706 15.5633V10.9213H22.2214V14.9442C22.2214 15.4566 22.2308 15.7983 22.246 15.9715C22.2616 16.1435 22.3011 16.3086 22.3658 16.4685ZM29.0225 27.4924V21.0881C29.0225 19.552 27.6942 18.2947 26.0703 18.2947H13.9298C12.3055 18.2947 10.9774 19.552 10.9774 21.0881V27.4924C10.9774 29.0286 12.3055 30.2856 13.9298 30.2856H26.0703C27.6942 30.2856 29.0225 29.0286 29.0225 27.4924ZM21.7836 22.9712C21.4821 22.9712 21.2355 23.1744 21.2355 23.4231V26.7896C21.2355 27.0378 21.4821 27.2405 21.7836 27.2405C22.0862 27.2405 22.3331 27.0378 22.3331 26.7896V23.4231C22.3331 23.1741 22.0862 22.9712 21.7836 22.9712ZM26.2409 24.4546H25.0526L25.0581 23.7624C25.0581 23.4547 25.31 23.2031 25.6178 23.2031H25.6936C26.002 23.2031 26.2547 23.4547 26.2547 23.7624L26.2409 24.4546ZM14.7397 28.1877L14.7387 21.4416L16.2437 21.4421V20.4425L12.2319 20.4365V21.4191L13.4842 21.4228V28.1877H14.7397ZM17.9962 22.4465H19.251L19.2512 28.1863L18.2436 28.1851L18.246 27.4412C17.9753 28.0242 16.8933 28.4927 16.3289 28.085C16.0631 27.8936 16.0388 27.5762 16.0162 27.2801C16.0131 27.2388 16.01 27.1978 16.0062 27.1578C15.9955 27.0377 15.9972 26.8247 15.9995 26.5414L15.9995 26.5412V26.5412V26.5412V26.5411V26.5411V26.541C16.0008 26.3861 16.0022 26.2101 16.0019 26.0168L15.998 22.4465H17.2458L17.2509 26.0737C17.251 26.2615 17.2473 26.4195 17.2443 26.5486L17.2443 26.5486C17.2393 26.7598 17.2361 26.8934 17.255 26.9527C17.4337 27.4987 17.8923 27.2019 17.9943 26.9225C18.0145 26.867 18.011 26.75 18.0051 26.5512C18.0012 26.4208 17.9962 26.2553 17.9962 26.0489V22.4465ZM23.2649 26.5717L23.2623 23.5734C23.2613 22.4308 22.4089 21.7466 21.2518 22.6711L21.2569 20.442L20.0036 20.4439L19.9976 28.138L21.0283 28.1231L21.1221 27.6439C22.439 28.8553 23.2669 28.0251 23.2649 26.5717ZM26.251 26.1794L27.1918 26.1743C27.6213 28.7306 24.0214 29.1506 24.0209 26.1787V24.3909C24.0209 23.8545 24.0741 23.4323 24.1809 23.1232C24.2868 22.8144 24.4689 22.5845 24.7073 22.4127C25.4672 21.8626 26.9714 22.0332 27.1256 23.1078C27.1747 23.4475 27.1899 24.0415 27.1899 24.6358V25.4488H25.0355V26.1961V26.7751V26.8335C25.0355 27.1153 25.2677 27.3447 25.5502 27.3447H25.7345C26.0165 27.3447 26.2486 27.1153 26.2486 26.8335V26.307C26.2489 26.2808 26.2495 26.2557 26.25 26.2322L26.2505 26.2092L26.251 26.1794ZM19.2228 15.4692C19.2228 15.807 19.4735 16.0827 19.7789 16.0827C20.0844 16.0827 20.3342 15.807 20.3342 15.4692V12.2941C20.3342 11.9568 20.0844 11.681 19.7789 11.681C19.4735 11.681 19.2228 11.9568 19.2228 12.2941V15.4692Z" fill="white"/>
</svg>