<svg xmlns:xlink="http://www.w3.org/1999/xlink" xmlns="http://www.w3.org/2000/svg" width="20" height="20" viewBox="0 0 20 20" fill="none">
  <rect width="20" height="20" fill="#F9F9F9"/>
  <mask id="mask0_0_841" style="mask-type:luminance" maskUnits="userSpaceOnUse" x="0" y="0" width="20" height="20">
    <rect width="20" height="20" fill="white"/>
  </mask>
  <g mask="url(#mask0_0_841)">
    <mask id="path-3-inside-1_0_841" fill="white">
      <path fill-rule="evenodd" clip-rule="evenodd" d="M15.7536 3.4683C15.8625 3.48098 15.968 3.51368 16.065 3.56476L16.4352 3.9343C16.4863 4.03131 16.519 4.13691 16.5317 4.2458L16.9994 8.23394C17.0335 8.5037 15.4848 10.2288 15.2908 10.4193L8.9694 16.7405C8.62293 17.0865 8.06177 17.0865 7.7153 16.7405L3.25945 12.2848C2.91352 11.9383 2.91352 11.3772 3.25945 11.0307L9.58089 4.70903C9.77141 4.51514 11.4964 2.96645 11.7661 3.00055L15.7536 3.4683ZM15.209 5.12105C15.2999 4.98506 15.2821 4.80379 15.1664 4.68808C15.1021 4.62376 15.0148 4.5876 14.9238 4.58755C14.7602 4.5876 14.6194 4.70317 14.5875 4.86361C14.5557 5.02405 14.6415 5.18467 14.7926 5.24728C14.9438 5.30988 15.1181 5.25703 15.209 5.12105Z"/>
    </mask>
    <path fill-rule="evenodd" clip-rule="evenodd" d="M15.7536 3.4683C15.8625 3.48098 15.968 3.51368 16.065 3.56476L16.4352 3.9343C16.4863 4.03131 16.519 4.13691 16.5317 4.2458L16.9994 8.23394C17.0335 8.5037 15.4848 10.2288 15.2908 10.4193L8.9694 16.7405C8.62293 17.0865 8.06177 17.0865 7.7153 16.7405L3.25945 12.2848C2.91352 11.9383 2.91352 11.3772 3.25945 11.0307L9.58089 4.70903C9.77141 4.51514 11.4964 2.96645 11.7661 3.00055L15.7536 3.4683ZM15.209 5.12105C15.2999 4.98506 15.2821 4.80379 15.1664 4.68808C15.1021 4.62376 15.0148 4.5876 14.9238 4.58755C14.7602 4.5876 14.6194 4.70317 14.5875 4.86361C14.5557 5.02405 14.6415 5.18467 14.7926 5.24728C14.9438 5.30988 15.1181 5.25703 15.209 5.12105Z" fill="white"/>
    <path d="M16.065 3.56476L16.2705 3.35881L16.2395 3.3278L16.2006 3.30734L16.065 3.56476ZM15.7536 3.4683L15.7197 3.7573L15.72 3.75732L15.7536 3.4683ZM16.4352 3.9343L16.6927 3.79877L16.6721 3.75961L16.6408 3.72835L16.4352 3.9343ZM16.5317 4.2458L16.2427 4.2795L16.2427 4.27969L16.5317 4.2458ZM16.9994 8.23394L16.7104 8.26784L16.7108 8.27038L16.9994 8.23394ZM15.2908 10.4193L15.0869 10.2118L15.0851 10.2136L15.2908 10.4193ZM8.9694 16.7405L9.17499 16.9465L9.17515 16.9463L8.9694 16.7405ZM7.7153 16.7405L7.50955 16.9463L7.50971 16.9465L7.7153 16.7405ZM3.25945 12.2848L3.05354 12.4904L3.0537 12.4906L3.25945 12.2848ZM3.25945 11.0307L3.05369 10.8249L3.05354 10.8251L3.25945 11.0307ZM9.58089 4.70903L9.78665 4.91479L9.78844 4.91297L9.58089 4.70903ZM11.7661 3.00055L11.7296 3.28924L11.7322 3.28955L11.7661 3.00055ZM15.1664 4.68808L15.3723 4.48241L15.3721 4.48223L15.1664 4.68808ZM15.209 5.12105L15.4509 5.28276L15.4509 5.28275L15.209 5.12105ZM14.9238 4.58755L14.9239 4.29658L14.9237 4.29658L14.9238 4.58755ZM14.5875 4.86361L14.8729 4.92034L14.8729 4.92034L14.5875 4.86361ZM16.2006 3.30734C16.0719 3.23952 15.9318 3.19611 15.7873 3.17928L15.72 3.75732C15.7932 3.76585 15.8641 3.78784 15.9293 3.82219L16.2006 3.30734ZM16.6408 3.72835L16.2705 3.35881L15.8594 3.77071L16.2297 4.14026L16.6408 3.72835ZM16.8207 4.21209C16.8039 4.06761 16.7605 3.92749 16.6927 3.79877L16.1778 4.06983C16.2121 4.13513 16.2341 4.20621 16.2427 4.2795L16.8207 4.21209ZM17.2884 8.20005L16.8207 4.2119L16.2427 4.27969L16.7105 8.26784L17.2884 8.20005ZM15.4948 10.6269C15.6024 10.5212 16.0455 10.0333 16.4542 9.54257C16.6595 9.29613 16.8616 9.04243 17.0116 8.83053C17.0861 8.72529 17.1523 8.62394 17.2 8.53534C17.2237 8.49129 17.2464 8.44375 17.263 8.39604C17.277 8.35548 17.2987 8.28159 17.2881 8.19751L16.7108 8.27038C16.7044 8.22002 16.718 8.19122 16.713 8.20566C16.7105 8.21295 16.7033 8.23032 16.6875 8.25962C16.6562 8.31774 16.6056 8.3969 16.5366 8.49431C16.3997 8.68768 16.209 8.92774 16.0071 9.17011C15.6015 9.65701 15.1733 10.1269 15.0869 10.2118L15.4948 10.6269ZM9.17515 16.9463L15.4966 10.6251L15.0851 10.2136L8.76365 16.5348L9.17515 16.9463ZM7.50971 16.9465C7.96977 17.4058 8.71493 17.4058 9.17499 16.9465L8.76381 16.5346C8.53094 16.7672 8.15376 16.7672 7.92089 16.5346L7.50971 16.9465ZM3.0537 12.4906L7.50955 16.9463L7.92105 16.5348L3.4652 12.079L3.0537 12.4906ZM3.05354 10.8251C2.59419 11.2852 2.59419 12.0303 3.05354 12.4904L3.46536 12.0792C3.23285 11.8463 3.23285 11.4691 3.46536 11.2363L3.05354 10.8251ZM9.37513 4.50329L3.05369 10.8249L3.4652 11.2364L9.78664 4.91478L9.37513 4.50329ZM11.8026 2.71188C11.7185 2.70124 11.6446 2.72298 11.604 2.73702C11.5563 2.75353 11.5088 2.77627 11.4647 2.79997C11.3761 2.84764 11.2748 2.91387 11.1696 2.98835C10.9577 3.13833 10.704 3.34045 10.4576 3.54572C9.96689 3.95445 9.47902 4.39754 9.37334 4.5051L9.78844 4.91297C9.87327 4.82663 10.3432 4.39842 10.83 3.99286C11.0724 3.79099 11.3124 3.60021 11.5058 3.46335C11.6032 3.39441 11.6823 3.34373 11.7405 3.31247C11.7698 3.29671 11.7871 3.28948 11.7944 3.28696C11.8088 3.28197 11.78 3.2956 11.7296 3.28923L11.8026 2.71188ZM15.7875 3.17931L11.8 2.71156L11.7322 3.28955L15.7197 3.7573L15.7875 3.17931ZM14.9606 4.89375C14.9781 4.91128 14.9808 4.93874 14.9671 4.95934L15.4509 5.28275C15.6189 5.03138 15.586 4.69631 15.3723 4.48241L14.9606 4.89375ZM14.9236 4.87853C14.9376 4.87853 14.9509 4.88407 14.9608 4.89393L15.3721 4.48223C15.2532 4.36344 15.092 4.29667 14.9239 4.29658L14.9236 4.87853ZM14.8729 4.92034C14.8778 4.89604 14.8991 4.87853 14.9239 4.87853L14.9237 4.29658C14.6213 4.29666 14.3611 4.51031 14.3022 4.80688L14.8729 4.92034ZM14.904 4.97846C14.8811 4.96897 14.8681 4.94464 14.8729 4.92034L14.3022 4.80688C14.2432 5.10345 14.4019 5.40037 14.6813 5.5161L14.904 4.97846ZM14.9671 4.95934C14.9533 4.97994 14.9269 4.98794 14.904 4.97846L14.6813 5.5161C14.9606 5.63183 15.2828 5.53413 15.4509 5.28276L14.9671 4.95934Z" fill="#EA3B31" mask="url(#path-3-inside-1_0_841)"/>
  </g>
</svg>