<svg xmlns:xlink="http://www.w3.org/1999/xlink" xmlns="http://www.w3.org/2000/svg" width="62" height="58" viewBox="0 0 62 58" fill="none">
<path fill-rule="evenodd" clip-rule="evenodd" d="M59.4328 11.0381H26.9893C25.5666 11.0381 24.4172 12.1996 24.4172 13.6371C24.4172 15.0689 25.5666 16.2303 26.9893 16.2303H56.3137L55.0669 22.7269H29.5557C28.1377 22.7269 26.9893 23.8884 26.9893 25.3197C26.9893 26.7577 28.1377 27.9191 29.5557 27.9191H54.0657L52.8148 34.4111H24.1829L16.314 1.97628C16.029 0.816413 14.9985 0 13.8158 0H2.57358C1.15093 0 0 1.16712 0 2.59739C0 4.03078 1.15093 5.19686 2.57358 5.19686H11.8016L19.671 37.6239C19.9555 38.7853 20.986 39.6017 22.1677 39.6017H54.9378C56.1656 39.6017 57.2237 38.7205 57.4575 37.5037L61.9526 14.1318C62.0992 13.3667 61.9018 12.5798 61.4178 11.982C60.9293 11.3832 60.1998 11.0381 59.4328 11.0381" fill="white"/>
<path fill-rule="evenodd" clip-rule="evenodd" d="M29.4234 48.5267C30.7153 48.5267 31.7735 49.5902 31.7735 50.9029C31.7735 52.2052 30.7153 53.2698 29.4234 53.2698C28.1259 53.2698 27.0723 52.2052 27.0723 50.9029C27.0723 49.5902 28.1259 48.5267 29.4234 48.5267ZM29.4234 57.9968C33.2992 57.9968 36.4454 54.812 36.4454 50.9029C36.4454 46.9866 33.2992 43.8013 29.4234 43.8013C25.5492 43.8013 22.3973 46.9866 22.3973 50.9029C22.3973 54.812 25.5492 57.9968 29.4234 57.9968V57.9968Z" fill="white"/>
<path fill-rule="evenodd" clip-rule="evenodd" d="M45.5134 50.8984C45.5134 49.593 46.5643 48.5243 47.8634 48.5243C49.1538 48.5243 50.2058 49.593 50.2058 50.8984C50.2058 52.2101 49.1538 53.273 47.8634 53.273C46.5643 53.273 45.5134 52.2101 45.5134 50.8984ZM54.8839 50.8984C54.8839 46.9821 51.7305 43.7988 47.8634 43.7988C43.9877 43.7988 40.8358 46.9821 40.8358 50.8984C40.8358 54.8131 43.9877 58.0001 47.8634 58.0001C51.7305 58.0001 54.8839 54.8131 54.8839 50.8984V50.8984Z" fill="white"/>
</svg>