<svg xmlns:xlink="http://www.w3.org/1999/xlink" xmlns="http://www.w3.org/2000/svg" width="20" height="20" viewBox="0 0 20 20" fill="none">
  <rect width="20" height="20" fill="#F9F9F9"/>
  <mask id="mask0_0_489" style="mask-type:luminance" maskUnits="userSpaceOnUse" x="0" y="0" width="20" height="20">
    <rect width="20" height="20" fill="white"/>
  </mask>
  <g mask="url(#mask0_0_489)">
    <path fill-rule="evenodd" clip-rule="evenodd" d="M7.64405 2.68661C7.51934 2.6247 7.38304 2.58213 7.23278 2.56187L7.26803 2.5H7.2674C7.16935 2.50437 7.0807 2.543 7.01275 2.60346C6.92843 2.55817 6.83186 2.5325 6.72913 2.5325C6.58559 2.5325 6.45402 2.58312 6.35203 2.66624C6.04103 2.62874 5.93778 2.71312 5.8616 2.80686C5.85467 2.80686 5.8434 2.80611 5.82855 2.80511C5.70453 2.79678 5.33096 2.77168 5.15272 3.03123C4.64341 2.97248 4.48287 3.32809 4.66229 3.6562C4.58864 3.7312 4.54331 3.83432 4.54331 3.94744C4.54331 4.07431 4.59997 4.18805 4.69062 4.26493C4.6088 4.43363 4.6629 4.62045 4.86047 4.83663C4.85088 4.87445 4.8455 4.91347 4.8455 4.95427C4.8455 5.13364 4.94623 5.28988 5.09669 5.37113C5.06251 5.6697 5.33705 5.84906 5.45958 5.92911C5.47248 5.93753 5.48369 5.94486 5.49268 5.95111C5.5336 6.1386 5.60915 6.31609 5.99633 6.40984C6.05896 6.68149 6.27314 6.73448 6.49135 6.78847C6.49905 6.79037 6.50675 6.79228 6.51445 6.7942L6.49997 6.80045C5.68973 7.18106 5.13006 7.99977 5.13006 8.94786C5.13006 9.01035 5.13257 9.07223 5.13698 9.12535L5.0287 9.31284L5.02051 9.31784C4.40544 9.72782 4 10.4247 4 11.2153C4 11.8127 4.23105 12.3565 4.60815 12.7621L4.61634 12.8039C4.69755 13.1627 4.80961 13.5102 4.93426 13.8008L4.93615 13.8145C5.07025 14.7257 5.69225 15.4795 6.54719 15.8126L6.53712 15.8044C6.98725 16.1651 7.49719 16.4538 8.08772 16.6657L8.08961 16.6675C8.55989 17.1756 9.23414 17.4956 9.98395 17.5H10.0431C10.7885 17.4944 11.4584 17.1738 11.9274 16.6644L11.9639 16.6525C12.5167 16.4532 13.026 16.1651 13.4648 15.8126L13.4818 15.8063C14.3177 15.4809 14.9374 14.7294 15.0723 13.8075C15.2042 13.4886 15.3104 13.1545 15.3948 12.7715C15.7707 12.3648 16 11.8228 16 11.2278C16 10.4365 15.5952 9.7397 14.9713 9.32472L14.8574 9.13726C14.862 9.0786 14.8643 9.01885 14.8643 8.95911C14.8643 8.01102 14.304 7.1923 13.4799 6.80545C13.4899 6.80292 13.5 6.80042 13.5101 6.79791C13.7271 6.744 13.9451 6.68986 13.9986 6.42171C14.3883 6.32797 14.4639 6.15047 14.5023 5.96298C14.511 5.95696 14.5218 5.94988 14.5342 5.94175C14.6559 5.86211 14.9325 5.68095 14.8983 5.39175L14.9008 5.3905C15.0481 5.31238 15.1482 5.15864 15.1482 4.98115C15.1482 4.94052 15.1425 4.90177 15.1337 4.8674C15.3427 4.64241 15.3981 4.46492 15.3037 4.2968L15.3043 4.29618C15.3944 4.21868 15.4517 4.10431 15.4517 3.97681C15.4517 3.86432 15.407 3.76245 15.3352 3.68683C15.5178 3.35934 15.3579 3.0131 14.8479 3.06935C14.666 2.8122 14.2937 2.83507 14.1685 2.84276C14.1538 2.84366 14.1424 2.84436 14.1353 2.84436C14.0591 2.75124 13.9628 2.67562 13.648 2.71312L13.6486 2.71374C13.5479 2.63062 13.4188 2.58062 13.2778 2.58062C13.172 2.58062 13.0726 2.60875 12.9901 2.65624C12.7764 2.49607 12.6186 2.56395 12.4614 2.63155C12.4162 2.65099 12.371 2.67041 12.3246 2.68437C12.0743 2.60762 11.9694 2.66893 11.8636 2.73081C11.828 2.75158 11.7924 2.77241 11.7511 2.78811C11.4229 2.71978 11.3013 2.84537 11.1522 2.99933C11.1363 3.01575 11.1201 3.03249 11.1033 3.04935L10.9012 3.04498L10.8937 3.04998C10.4555 3.34871 10.1294 3.79682 9.98395 4.33555L9.98017 4.31992C9.83789 3.7962 9.51178 3.34809 9.06668 3.04248L8.86396 3.0481C8.84652 3.03072 8.82971 3.01344 8.81323 2.9965C8.665 2.8441 8.54306 2.71874 8.21615 2.78624C8.1746 2.77101 8.13868 2.75026 8.10278 2.72951C7.99735 2.6686 7.89197 2.60772 7.64405 2.68661ZM6.17953 3.97494L6.14589 3.96145C7.28815 4.3231 8.28073 4.85361 9.14878 5.5335L9.14852 5.53362L9.16804 5.54862L9.14878 5.5335C10.1557 5.06469 9.45885 3.89428 8.97099 3.43621C8.94518 3.55746 8.91748 3.64183 8.886 3.66058C8.72924 3.47808 8.56681 3.31247 8.39494 3.15872L8.38991 3.15435C8.38991 3.17479 8.39221 3.19613 8.39455 3.21777C8.40294 3.29537 8.41175 3.37694 8.31625 3.43559C8.19474 3.27434 8.04302 3.14247 7.86926 3.0456L7.86234 3.04185C7.94127 3.17649 7.8985 3.23058 7.85258 3.28866L7.85257 3.28866C7.84392 3.2996 7.83516 3.31068 7.82708 3.32247C7.67158 3.16122 7.48271 3.03373 7.27118 2.95123L7.26048 2.94748C7.27071 2.96009 7.28163 2.97272 7.29259 2.9854L7.2926 2.98541C7.36257 3.06633 7.434 3.14894 7.33603 3.23809C7.14149 3.11122 6.91233 3.01935 6.66618 2.97748L6.65547 2.97623C6.67509 2.99772 6.69907 3.01928 6.72309 3.04088C6.80316 3.11288 6.88376 3.18536 6.80531 3.25747C6.61581 3.18247 6.3961 3.1256 6.16694 3.09748L6.15372 3.09623C6.26767 3.18997 6.36903 3.27684 6.27459 3.34621C6.11657 3.27747 5.93274 3.23809 5.7401 3.23809C5.65007 3.23809 5.5613 3.24684 5.47631 3.26309L5.48513 3.26184L5.66392 3.43934C5.51157 3.45559 5.33466 3.46496 5.15587 3.46496C5.08662 3.46496 5.01737 3.46371 4.94811 3.46058L4.95819 3.46121C5.08347 3.60995 5.17853 3.78932 5.23016 3.98556L5.23204 3.99494C5.20851 4.0183 5.1068 4.00975 4.99618 4.00045C4.97362 3.99856 4.95068 3.99663 4.92797 3.99494C5.01224 4.16188 5.12993 4.25627 5.22311 4.331C5.28657 4.38189 5.33866 4.42367 5.3611 4.47304C5.31326 4.49867 5.2566 4.51367 5.19679 4.51367C5.13792 4.51367 5.0815 4.49914 5.03291 4.47365L5.03247 4.47304L5.03059 4.47242L5.03291 4.47365C5.17067 4.66526 5.3254 4.83131 5.49898 4.97615L5.50338 4.97927C5.45113 5.00365 5.38943 5.0174 5.32522 5.0174C5.28616 5.0174 5.24769 5.01211 5.21153 5.00267L5.21127 5.0024L5.20812 5.00177L5.21153 5.00267C5.36949 5.17067 5.54945 5.31495 5.74702 5.43363L5.75835 5.43988C5.72384 5.47985 5.60997 5.48278 5.49069 5.48585L5.4568 5.48675C5.65511 5.64924 5.88238 5.78861 6.12728 5.89423L6.14553 5.90111C6.08132 5.94548 6.00199 5.97173 5.91574 5.97173C5.89482 5.97173 5.8739 5.97004 5.85352 5.96719L5.85279 5.96673H5.85027L5.85352 5.96719C6.05922 6.09821 6.29882 6.19866 6.55537 6.25422L6.56985 6.25672C6.52516 6.33047 6.4452 6.37984 6.35329 6.38171C6.51555 6.47284 6.71516 6.48715 6.8772 6.49876C6.99744 6.50738 7.097 6.51452 7.14527 6.55046C7.10498 6.63045 7.0351 6.69108 6.95011 6.71857L6.94759 6.7192C7.40024 6.74732 8.6474 6.70982 8.88159 5.77299C8.0959 5.03739 7.18241 4.42492 6.17953 3.97494ZM6.14239 3.95994H6.14213L6.1172 3.94994L6.14239 3.95994ZM13.5755 4.09316C12.564 4.43798 11.6303 4.94714 10.8244 5.57425C9.8146 5.11614 10.5134 3.94556 11.0038 3.47683C11.0259 3.59933 11.0504 3.6737 11.0888 3.69308L11.0945 3.6862C11.2456 3.50996 11.4093 3.34434 11.5887 3.18622C11.5887 3.20634 11.5865 3.22695 11.5843 3.24776C11.5762 3.32324 11.5679 3.40118 11.6636 3.46683L11.6661 3.46371C11.7889 3.30684 11.9425 3.17497 12.1257 3.07373C12.0411 3.2259 12.0937 3.28099 12.1464 3.33618C12.1522 3.34219 12.1579 3.3482 12.1635 3.35434L12.1622 3.35559C12.3253 3.2056 12.516 3.08498 12.7389 2.99935C12.732 3.00737 12.7248 3.01547 12.7176 3.02365C12.6488 3.10145 12.5735 3.18649 12.6757 3.27972C12.8785 3.15155 13.1077 3.06133 13.3647 3.01748C13.3433 3.04035 13.3174 3.06264 13.2918 3.08462C13.212 3.15313 13.1358 3.21861 13.213 3.28942C13.4154 3.21583 13.6287 3.16334 13.8633 3.1331C13.7471 3.22352 13.6534 3.31706 13.7462 3.38266C13.9069 3.31867 14.082 3.28372 14.2656 3.28372C14.3575 3.28372 14.4469 3.29247 14.5249 3.30747L14.3468 3.48558L14.3247 3.48371C14.4972 3.49933 14.6716 3.50746 14.8485 3.50746C14.9191 3.50746 14.9889 3.50621 15.0487 3.50371L15.0501 3.50197C14.9267 3.65537 14.8333 3.833 14.7749 4.03733C14.8239 4.04971 14.8753 4.05619 14.9279 4.05619C14.982 4.05619 15.0349 4.04869 15.0808 4.03681C14.9968 4.21319 14.8758 4.31015 14.781 4.38623C14.7196 4.43542 14.6691 4.47588 14.6466 4.52344C14.6958 4.54842 14.7518 4.56241 14.8108 4.56241C14.8706 4.56241 14.9272 4.54804 14.9751 4.52304L14.9707 4.53054C14.846 4.72053 14.6893 4.88803 14.5035 5.02927C14.5438 5.05802 14.6181 5.07614 14.7894 5.04802L14.7881 5.04927C14.6307 5.21739 14.4488 5.36238 14.2372 5.4855C14.275 5.53237 14.4047 5.53237 14.5306 5.53237L14.5356 5.52862C14.3317 5.69359 14.1051 5.83169 13.8414 5.94355C13.907 5.9822 13.9844 6.00485 14.0666 6.00485C14.0912 6.00485 14.1145 6.00235 14.1353 5.99923L14.1447 5.9936C13.9288 6.12922 13.6889 6.22922 13.4169 6.28859C13.4654 6.37546 13.5164 6.39484 13.624 6.41359C13.4604 6.50047 13.2553 6.51483 13.0902 6.52639C12.9714 6.53471 12.8732 6.54158 12.8258 6.57296L12.8264 6.57483C12.8661 6.65295 12.9366 6.71357 13.0241 6.74107C12.5715 6.76982 11.3333 6.73358 11.0958 5.7963C11.8144 5.12186 12.6337 4.55258 13.5755 4.09316ZM11.0958 5.7963L11.0913 5.80049L11.0957 5.79611L11.0958 5.7963ZM8.48182 7.70666C8.48182 7.35667 9.25303 6.75357 10.0557 6.77357H10.0708C10.7784 6.76607 11.6661 7.29418 11.6561 7.7904C11.6472 8.22851 11.0334 8.58412 10.062 8.57787C9.11642 8.56662 8.48182 8.13164 8.48182 7.70666ZM12.1446 15.442C11.7511 15.0789 12.0514 13.9533 12.5909 13.3352V13.3427C13.2073 12.6683 13.8671 12.219 14.3266 12.5658L14.3222 12.5583C14.5124 12.8539 14.6225 13.2046 14.6225 13.5814C14.6225 13.9901 14.4922 14.3689 14.2756 14.6732C13.5296 15.6863 12.5223 15.7226 12.1446 15.442ZM5.72373 12.7727C6.20408 12.4865 6.94696 12.8727 7.5186 13.5227V13.522C8.01784 14.1083 8.24385 15.1388 7.82897 15.4438C7.43801 15.6763 6.47983 15.5795 5.80116 14.627C5.34285 13.8258 5.40265 13.0114 5.72373 12.7727ZM10.1029 15.4882C9.41042 15.472 8.34017 15.7626 8.35528 16.1332C8.34395 16.3832 9.19322 17.1156 10.0551 17.0788C10.8899 17.0975 11.7549 16.3669 11.7436 16.0482C11.7322 15.7294 10.7992 15.4688 10.1023 15.4957L10.1029 15.4882ZM8.12234 7.10606C6.77824 6.89044 5.65888 7.66853 5.70358 9.10098C5.74765 9.65345 8.61844 7.20043 8.12297 7.11543V7.10606H8.12234ZM14.2599 9.13785C14.3046 7.71478 13.184 6.93731 11.8399 7.15293C11.3444 7.2373 14.2146 9.69095 14.2599 9.13785ZM14.4891 9.65283C13.709 9.44721 14.2246 12.8083 14.8592 12.5371C15.2061 12.209 15.4221 11.7465 15.4221 11.2346C15.4221 10.5615 15.0494 9.97531 14.4979 9.6672L14.4891 9.66283V9.65345V9.65283ZM5.47946 9.6997C6.25885 9.49408 5.74262 12.8558 5.10865 12.5746V12.584L5.10802 12.5833C4.76176 12.2546 4.54583 11.7909 4.54583 11.2778C4.54583 10.6028 4.91852 10.0147 5.47946 9.6997ZM11.0359 8.85723C10.6393 9.16347 10.3862 9.63783 10.3862 10.1703C10.3862 10.5603 10.5216 10.9184 10.7482 11.2015L10.7457 11.1984C11.0555 11.7221 11.6195 12.0684 12.2655 12.0684C12.5595 12.0684 12.8371 11.9965 13.0807 11.8696L13.0713 11.874C13.4685 11.5677 13.7223 11.094 13.7223 10.5609C13.7223 10.1709 13.5869 9.81282 13.3596 9.52971L13.3622 9.53283C13.0574 9.01098 12.4971 8.66537 11.8556 8.66537C11.5597 8.66537 11.2817 8.73909 11.0377 8.86849L11.0359 8.85723ZM8.2747 8.74474C8.57059 8.74474 8.84948 8.81724 9.08431 8.94161L9.08305 8.95223L9.08683 8.95473C9.47967 9.25972 9.73149 9.73407 9.73149 10.2672C9.73149 10.6553 9.59803 11.0121 9.37642 11.2921L9.37202 11.3003C9.07172 11.8146 8.51141 12.1602 7.86989 12.1602C7.57085 12.1602 7.28944 12.0852 7.05273 11.9571L7.04895 11.9546C6.65547 11.649 6.40239 11.1734 6.40239 10.639C6.40239 10.2478 6.53775 9.88782 6.7625 9.60658L6.76691 9.59845C7.07161 9.08723 7.63255 8.74474 8.2747 8.74474ZM11.8348 13.4177C11.7864 12.5433 11.0605 11.8527 10.1722 11.8527C10.1419 11.8527 10.1116 11.8533 10.0813 11.8551C10.0642 11.8545 10.0439 11.854 10.0242 11.854C9.12838 11.854 8.39683 12.5533 8.35402 13.4327V13.4364V13.4545C8.40313 14.3289 9.12964 15.0195 10.0179 15.0195C10.0481 15.0195 10.0782 15.0189 10.1084 15.0171C10.1299 15.0183 10.1548 15.0189 10.1797 15.0189C11.0693 15.0189 11.7952 14.3214 11.8323 13.4477V13.4445V13.4264L11.8386 13.417L11.8348 13.4177Z" fill="#EA3B31"/>
  </g>
</svg>