<svg xmlns:xlink="http://www.w3.org/1999/xlink" xmlns="http://www.w3.org/2000/svg" width="20" height="20" viewBox="0 0 20 20" fill="none">
  <rect width="20" height="20" fill="#F9F9F9"/>
  <mask id="mask0_0_648" style="mask-type:luminance" maskUnits="userSpaceOnUse" x="0" y="0" width="20" height="20">
    <rect width="20" height="20" fill="white"/>
  </mask>
  <g mask="url(#mask0_0_648)">
    <path fill-rule="evenodd" clip-rule="evenodd" d="M11.7143 4C11.7143 4.47339 12.098 4.85714 12.5714 4.85714C13.0448 4.85714 13.4286 4.47339 13.4286 4H14.2857C15.2325 4 16 4.76751 16 5.71429V15.1429C16 15.6162 15.6162 16 15.1429 16L13.4286 15.9991C13.4281 15.5261 13.0445 15.1429 12.5714 15.1429C12.1319 15.1429 11.7696 15.4737 11.7201 15.9L11.7143 15.9991L4.85714 16C4.38376 16 4 15.6162 4 15.1429V9.14286C4.47339 9.14286 4.85714 8.7591 4.85714 8.28571V7.42857C4.85714 6.95518 4.47339 6.57143 4 6.57143V5.71429C4 4.76751 4.76751 4 5.71429 4H11.7143ZM14.2857 4.6L13.8991 4.59914L13.8491 4.70107C13.6204 5.11707 13.1944 5.4093 12.6972 5.45179L12.5714 5.45714C12.0208 5.45714 11.5415 5.15173 11.2937 4.70107L11.2429 4.6H5.71429C5.13735 4.6 4.66282 5.03847 4.60575 5.60036L4.6 5.71429L4.59914 6.1L4.70107 6.15086C5.11707 6.37959 5.4093 6.80558 5.45179 7.30284L5.45714 7.42857V8.28571C5.45714 8.83634 5.15173 9.31563 4.70107 9.56343L4.6 9.61343V15.1429C4.6 15.2646 4.68458 15.3666 4.79814 15.3932L4.85707 15.4L11.2429 15.3991L11.2937 15.2989C11.5225 14.8829 11.9484 14.5907 12.4457 14.5482L12.5714 14.5429C13.1217 14.5429 13.6007 14.8479 13.8487 15.2981L13.8991 15.3983L15.1429 15.4C15.2646 15.4 15.3666 15.3154 15.3932 15.2018L15.4 15.1429V5.71429C15.4 5.09888 14.9011 4.6 14.2857 4.6ZM13.1558 9.18182C13.3065 9.18182 13.4286 9.05971 13.4286 8.90909C13.4286 8.75847 13.3065 8.63636 13.1558 8.63636H12.6104V8.56818C12.6101 8.15409 12.2745 7.81848 11.8604 7.81818H11.7922V7.27273C11.7922 7.1221 11.6701 7 11.5195 7C11.3689 7 11.2468 7.1221 11.2468 7.27273V7.81818H10.7013V7.27273C10.7013 7.1221 10.5792 7 10.4286 7C10.2779 7 10.1558 7.1221 10.1558 7.27273V7.81818H9.61039V7.27273C9.61039 7.1221 9.48829 7 9.33766 7C9.18704 7 9.06494 7.1221 9.06494 7.27273V7.81818H8.99675C8.58266 7.81848 8.24705 8.15409 8.24675 8.56818V8.63636H7.7013C7.55068 8.63636 7.42857 8.75847 7.42857 8.90909C7.42857 9.05971 7.55068 9.18182 7.7013 9.18182H8.24675V9.72727H7.7013C7.55068 9.72727 7.42857 9.84938 7.42857 10C7.42857 10.1506 7.55068 10.2727 7.7013 10.2727H8.24675V10.8182H7.7013C7.55068 10.8182 7.42857 10.9403 7.42857 11.0909C7.42857 11.2415 7.55068 11.3636 7.7013 11.3636H8.24675V11.4318C8.24705 11.8459 8.58266 12.1815 8.99675 12.1818H9.06494V12.7273C9.06494 12.8779 9.18704 13 9.33766 13C9.48829 13 9.61039 12.8779 9.61039 12.7273V12.1818H10.1558V12.7273C10.1558 12.8779 10.2779 13 10.4286 13C10.5792 13 10.7013 12.8779 10.7013 12.7273V12.1818H11.2468V12.7273C11.2468 12.8779 11.3689 13 11.5195 13C11.6701 13 11.7922 12.8779 11.7922 12.7273V12.1818H11.8604C12.2745 12.1815 12.6101 11.8459 12.6104 11.4318V11.3636H13.1558C13.3065 11.3636 13.4286 11.2415 13.4286 11.0909C13.4286 10.9403 13.3065 10.8182 13.1558 10.8182H12.6104V10.2727H13.1558C13.3065 10.2727 13.4286 10.1506 13.4286 10C13.4286 9.84938 13.3065 9.72727 13.1558 9.72727H12.6104V9.18182H13.1558ZM12.0649 11.4318C12.0648 11.5447 11.9733 11.6362 11.8604 11.6364H8.99675C8.88385 11.6362 8.79236 11.5447 8.79221 11.4318V8.56818C8.79236 8.45528 8.88385 8.36379 8.99675 8.36364H11.8604C11.9733 8.36379 12.0648 8.45528 12.0649 8.56818V11.4318Z" fill="#EA3B31"/>
  </g>
</svg>