<svg xmlns:xlink="http://www.w3.org/1999/xlink" xmlns="http://www.w3.org/2000/svg" width="62" height="62" viewBox="0 0 62 62" fill="none">
<path fill-rule="evenodd" clip-rule="evenodd" d="M19.495 42.5078C18.7859 41.7988 17.6365 41.7988 16.9273 42.5078L7.68552 51.7478C6.97637 52.4574 6.97637 53.6066 7.68552 54.3157C8.39468 55.0247 9.54406 55.0247 10.2532 54.3157L19.495 45.0752C20.2042 44.3661 20.2042 43.2169 19.495 42.5078ZM55.0446 58.4693L51.2621 54.0214L54.0302 51.2552L58.4777 55.0367C58.935 55.4249 59.5549 55.5635 60.1348 55.4047C60.7131 55.2453 61.1762 54.8114 61.3709 54.2435C62.0624 52.2368 62.1859 50.078 61.7312 48.0048C61.2603 45.8683 60.1919 43.9187 58.6396 42.3666C57.0869 40.8141 55.1354 39.7443 53.0002 39.275C51.3067 38.9029 49.5567 38.9174 47.8793 39.3119L39.1379 30.5718L50.8063 18.9067L54.5467 18.1576C55.0326 18.0606 55.4562 17.7694 55.7226 17.3531L61.7151 7.93609C62.1729 7.21821 62.0696 6.27921 61.4679 5.6776L56.3305 0.542427C55.7288 -0.059177 54.7897 -0.162472 54.0717 0.293792L44.6549 6.28544C44.237 6.55172 43.9458 6.97684 43.8487 7.46217L43.1011 11.2026L31.4328 22.8677L22.693 14.1291C23.6124 10.2579 22.4895 6.22211 19.6362 3.37033C16.5079 0.240847 11.956 -0.805602 7.75768 0.637936C7.18974 0.833626 6.75521 1.29716 6.59636 1.8754C6.4375 2.45365 6.57611 3.07446 6.96443 3.53072L10.7464 7.97865L7.97988 10.7448L3.53288 6.96334C3.07499 6.57508 2.45565 6.43701 1.87577 6.59584C1.29744 6.75468 0.833841 7.18862 0.638124 7.75649C-0.80562 11.9532 0.240458 16.5054 3.37091 19.6334C6.22413 22.4867 10.2594 23.6079 14.1328 22.6897L22.8721 31.4282L20.9004 33.3997L17.9044 30.4025C17.1947 29.6935 16.0458 29.6935 15.3362 30.4025C14.627 31.1121 14.627 32.2624 15.3362 32.972L15.7645 33.3986L2.67006 46.4907C-0.870513 50.0307 -0.870513 55.7914 2.67006 59.3315C6.21115 62.8705 11.9705 62.8705 15.5116 59.3315L28.6055 46.2394L29.0338 46.6661C29.743 47.3767 30.8924 47.3767 31.602 46.6661C32.3112 45.9581 32.3112 44.8073 31.602 44.0983L28.6055 41.1027L30.5762 39.1323L39.316 47.8709C38.3976 51.7421 39.519 55.7784 42.3722 58.6297C45.5027 61.7592 50.054 62.8056 54.2513 61.3621C54.8193 61.1664 55.2548 60.7044 55.4121 60.1246C55.571 59.5463 55.4329 58.9255 55.0446 58.4677V58.4693ZM15.9425 19.3645C15.4525 18.8729 14.7241 18.7053 14.0679 18.9316C11.1939 19.9204 8.07852 19.2057 5.9386 17.066C4.5068 15.6329 3.71198 13.7642 3.64138 11.8234L6.90265 14.5968C7.62374 15.2109 8.6937 15.1662 9.36288 14.4972L14.5003 9.36198C15.1685 8.69237 15.2126 7.62257 14.599 6.90158L11.8252 3.63973C13.7663 3.71188 15.6368 4.50606 17.0686 5.93818C19.208 8.07727 19.9233 11.1922 18.9344 14.0658C18.7075 14.7219 18.8767 15.4491 19.3668 15.9407L28.8646 25.4366L25.4403 28.8609L15.9425 19.3645ZM12.9434 56.7626C10.8186 58.8871 7.36313 58.8871 5.23827 56.7626C3.11341 54.6396 3.11341 51.1831 5.23827 49.0601L18.3327 35.9675L26.0378 43.6716L12.9434 56.7626ZM23.4686 35.9675L46.0571 13.3817C46.3105 13.1289 46.4839 12.805 46.5534 12.4546L47.2579 8.93374L54.7928 4.14011L57.8682 7.21509L53.0739 14.7484L49.5536 15.4533C49.2021 15.5239 48.8782 15.6962 48.6253 15.9495L26.0378 38.5348L23.4686 35.9675ZM44.942 56.0623C42.8021 53.9227 42.0867 50.8093 43.0757 47.9342C43.301 47.2781 43.1333 46.5509 42.6417 46.0598L33.1455 36.565L36.5697 33.1396L46.0659 42.6355C46.5576 43.1271 47.2859 43.2947 47.9411 43.07C50.8166 42.0811 53.9305 42.7949 56.0699 44.934C57.5032 46.3671 58.2965 48.2358 58.3687 50.1766L55.1063 47.4032C54.3863 46.7912 53.3153 46.8338 52.6456 47.5028L47.5097 52.638C46.84 53.3076 46.7974 54.379 47.4095 55.0984L50.1838 58.3603C48.2427 58.2881 46.3738 57.4955 44.942 56.0623Z" fill="white"/>
</svg>