<svg xmlns:xlink="http://www.w3.org/1999/xlink" xmlns="http://www.w3.org/2000/svg" width="40" height="40" viewBox="0 0 40 40" fill="none">
  <rect width="40" height="40" rx="20" fill="url(#paint0_linear_2_469)"/>
  <path fill-rule="evenodd" clip-rule="evenodd" d="M15.7745 10.2856H24.6865C27.7132 10.2856 30.1755 12.748 30.1754 15.7745V24.6865C30.1754 27.7129 27.7132 30.1753 24.6865 30.1753H15.7745C12.748 30.1753 10.2858 27.7131 10.2858 24.6865V15.7745C10.2858 12.748 12.748 10.2856 15.7745 10.2856ZM24.6866 28.4106C26.7401 28.4106 28.4108 26.74 28.4108 24.6865H28.4107V15.7745C28.4107 13.7211 26.74 12.0504 24.6865 12.0504H15.7745C13.7211 12.0504 12.0505 13.7211 12.0505 15.7745V24.6865C12.0505 26.74 13.7211 28.4107 15.7745 28.4106H24.6866Z" fill="white"/>
  <path fill-rule="evenodd" clip-rule="evenodd" d="M15.1056 20.2305C15.1056 17.4045 17.4046 15.1055 20.2306 15.1055C23.0566 15.1055 25.3557 17.4045 25.3557 20.2305C25.3557 23.0564 23.0566 25.3554 20.2306 25.3554C17.4046 25.3554 15.1056 23.0564 15.1056 20.2305ZM16.8703 20.2304C16.8703 22.0832 18.3778 23.5905 20.2306 23.5905C22.0835 23.5905 23.591 22.0832 23.591 20.2304C23.591 18.3775 22.0836 16.8701 20.2306 16.8701C18.3777 16.8701 16.8703 18.3775 16.8703 20.2304Z" fill="white"/>
  <path d="M25.5706 13.6094C25.2306 13.6094 24.8966 13.747 24.6565 13.9882C24.4152 14.2282 24.2765 14.5623 24.2765 14.9035C24.2765 15.2436 24.4153 15.5776 24.6565 15.8188C24.8965 16.0588 25.2306 16.1976 25.5706 16.1976C25.9118 16.1976 26.2447 16.0588 26.4859 15.8188C26.7271 15.5776 26.8647 15.2435 26.8647 14.9035C26.8647 14.5623 26.7271 14.2282 26.4859 13.9882C26.2459 13.747 25.9118 13.6094 25.5706 13.6094Z" fill="white"/>
  <defs>
    <linearGradient id="paint0_linear_2_469" x1="39.7864" y1="39.8836" x2="39.7864" y2="0.310687" gradientUnits="userSpaceOnUse">
      <stop stop-color="#E09B3D"/>
      <stop offset="0.3" stop-color="#C74C4D"/>
      <stop offset="0.6" stop-color="#C21975"/>
      <stop offset="1" stop-color="#7024C4"/>
    </linearGradient>
  </defs>
</svg>