<svg xmlns:xlink="http://www.w3.org/1999/xlink" xmlns="http://www.w3.org/2000/svg" width="40" height="40" viewBox="0 0 40 40" fill="none">
  <rect width="40" height="40" rx="20" fill="#4A71A9"/>
  <path d="M24.1625 10.8611L21.5584 10.8569C18.6327 10.8569 16.742 12.7888 16.742 15.779V18.0483H14.1237C13.8975 18.0483 13.7142 18.231 13.7142 18.4564V21.7444C13.7142 21.9698 13.8977 22.1523 14.1237 22.1523H16.742V30.4491C16.742 30.6745 16.9253 30.8569 17.1515 30.8569H20.5677C20.794 30.8569 20.9772 30.6743 20.9772 30.4491V22.1523H24.0386C24.2649 22.1523 24.4481 21.9698 24.4481 21.7444L24.4494 18.4564C24.4494 18.3482 24.4061 18.2446 24.3295 18.168C24.2528 18.0914 24.1483 18.0483 24.0397 18.0483H20.9772V16.1246C20.9772 15.1999 21.1984 14.7305 22.4078 14.7305L24.1621 14.7299C24.3882 14.7299 24.5714 14.5472 24.5714 14.3221V11.2689C24.5714 11.044 24.3884 10.8615 24.1625 10.8611Z" fill="white"/>
</svg>