<svg xmlns:xlink="http://www.w3.org/1999/xlink" xmlns="http://www.w3.org/2000/svg" width="20" height="20" viewBox="0 0 20 20" fill="none">
  <rect width="20" height="20" fill="#F9F9F9"/>
  <mask id="mask0_0_672" style="mask-type:luminance" maskUnits="userSpaceOnUse" x="0" y="0" width="20" height="20">
    <rect width="20" height="20" fill="white"/>
  </mask>
  <g mask="url(#mask0_0_672)">
    <path d="M15.8186 9.03568H16.267C16.5383 9.03539 16.7581 8.8197 16.7584 8.55354V5.98214C16.7581 5.71598 16.5383 5.50029 16.267 5.5H8.24128C7.97003 5.50029 7.75021 5.71598 7.74991 5.98214H6.93096C6.65971 5.98243 6.43989 6.19812 6.43959 6.46428V7.02677H3.16379C3.07333 7.02677 3 7.09872 3 7.18748C3 7.27624 3.07333 7.3482 3.16379 7.3482H6.43959V7.91069C6.43989 8.17685 6.65971 8.39254 6.93096 8.39283H7.74991V8.55354C7.75021 8.8197 7.97003 9.03539 8.24128 9.03568H11.245L12.3291 9.22704C12.3818 9.44019 12.5765 9.59015 12.8 9.58974L13.2019 10.7972L14.0006 14.1283C14.0524 14.3464 14.2508 14.5005 14.4791 14.4999H16.5085C16.6587 14.4999 16.8006 14.4326 16.8938 14.3171C16.987 14.2016 17.0213 14.0507 16.9869 13.9073L15.8186 9.03568Z" fill="#EA3B31"/>
  </g>
</svg>