<svg xmlns:xlink="http://www.w3.org/1999/xlink" xmlns="http://www.w3.org/2000/svg" width="20" height="20" viewBox="0 0 20 20" fill="none">
  <rect width="20" height="20" fill="#F9F9F9"/>
  <mask id="mask0_0_609" style="mask-type:luminance" maskUnits="userSpaceOnUse" x="0" y="0" width="20" height="20">
    <rect width="20" height="20" fill="white"/>
  </mask>
  <g mask="url(#mask0_0_609)">
    <path fill-rule="evenodd" clip-rule="evenodd" d="M12.1954 14.6086C12.2148 14.5604 12.2259 14.2601 12.2259 13.8351V13.1437H12.3783H12.5307V13.9144C12.5307 14.8183 12.5279 14.8268 12.2536 15.0903C11.9877 15.3453 11.9766 15.3764 11.9766 15.759V16.0876L12.0625 16.1386C12.334 16.303 12.334 16.745 12.0597 16.932C11.9322 17.0227 11.6885 17.0227 11.561 16.932C11.4003 16.8215 11.3532 16.7308 11.3532 16.5296C11.3532 16.3285 11.4003 16.235 11.5527 16.133L11.6386 16.0763L11.6497 15.6938C11.6607 15.2376 11.6746 15.2064 11.9655 14.9004C12.0763 14.7843 12.1788 14.6511 12.1954 14.6086ZM8.45817 14.7616V13.9512V13.1437H8.6244H8.79062V13.9427C8.79062 14.4414 8.77954 14.7871 8.76015 14.8579C8.72136 15.0024 8.55791 15.1696 8.41662 15.2093C8.35567 15.2263 8.10079 15.2404 7.85146 15.2404L7.7952 15.2404C7.51576 15.2401 7.38392 15.24 7.32182 15.3058C7.26634 15.3645 7.26652 15.4758 7.26685 15.6865L7.2669 15.7391C7.2669 16.1613 7.25028 16.2038 7.08683 16.2038C7.02034 16.2038 6.98155 16.1868 6.96216 16.15C6.92615 16.0791 6.92615 15.4019 6.96216 15.2688C6.97601 15.2121 7.02865 15.1271 7.07852 15.0789C7.2392 14.9203 7.32508 14.9004 7.84869 14.9004C8.31411 14.9004 8.32242 14.9004 8.38891 14.8296L8.45817 14.7616ZM5.29976 11.5182C5.41934 11.4307 5.60101 11.4279 6.32867 11.4169L6.43579 11.4153C6.97601 11.4068 7.46083 11.3955 7.5107 11.3926L7.59935 11.387V11.5541V11.7213L6.59647 11.7326C5.67393 11.7411 5.5825 11.7468 5.50493 11.795L5.48919 11.8047L5.48918 11.8047C5.46266 11.8209 5.4405 11.8345 5.42196 11.8519C5.32747 11.9408 5.3275 12.1301 5.32762 13.2848V13.2848L5.32763 13.4185L5.3304 14.8296L5.41905 14.8863C5.56311 14.9798 5.63237 15.1129 5.63237 15.2943C5.63237 15.5776 5.45507 15.759 5.17249 15.759C4.88991 15.759 4.70152 15.5436 4.72368 15.2518C4.73754 15.0789 4.79848 14.9741 4.93423 14.8863L5.02289 14.8296L5.00349 13.4384C4.9841 11.8743 4.9841 11.8686 5.16695 11.6561L5.18318 11.6372C5.22705 11.5858 5.25997 11.5473 5.29976 11.5182ZM7.87639 7.644C7.91518 7.49666 8.02876 7.37199 8.16728 7.32099C8.26147 7.28699 8.65487 7.28132 10.6329 7.28699L12.9878 7.29265L13.0847 7.35499C13.1401 7.38899 13.2122 7.46833 13.2454 7.53066L13.3064 7.64117L13.3008 10.1063L13.3008 10.1173V10.1173V10.1173V10.1173V10.1173V10.1173V10.1174V10.1174V10.1174V10.1174V10.1174V10.1174V10.1174V10.1175V10.1175V10.1175V10.1175V10.1175V10.1175V10.1176V10.1176C13.2925 12.5488 13.2924 12.5743 13.2343 12.6507C13.2039 12.6932 13.1429 12.7555 13.1014 12.7867C13.0267 12.8461 13.0017 12.8462 10.627 12.8546L10.6163 12.8547C8.26147 12.8604 8.20607 12.8604 8.10079 12.8037C8.04261 12.7753 7.96227 12.7017 7.92903 12.6422L7.86254 12.5345L7.85423 10.1459C7.84869 8.51386 7.857 7.7205 7.87639 7.644ZM12.6692 12.2087V10.0836L12.6692 7.95851H10.5914L8.51358 7.95851V10.0836V12.2087H10.5914H12.6692ZM3.04483 6.86481C3.09746 6.75147 3.21659 6.65513 3.34403 6.6268C3.52964 6.58146 3.75959 6.6693 3.84824 6.82514L3.89534 6.90447L4.28596 6.91581C4.70429 6.92997 4.80125 6.95547 4.96194 7.09431C5.12816 7.23882 5.17249 7.36349 5.18911 7.76584C5.20296 8.09735 5.2085 8.12852 5.27222 8.19935C5.40797 8.35236 5.43567 8.35519 6.56045 8.35519H7.59935V8.51103V8.66687H6.49119C5.26668 8.66687 5.26391 8.66687 5.08383 8.48836C4.91761 8.32686 4.87605 8.21069 4.85943 7.83101C4.8345 7.30399 4.77632 7.25015 4.22778 7.25015L3.90088 7.25299L3.84547 7.34082C3.7485 7.49666 3.65431 7.54766 3.45761 7.54766C3.26092 7.54766 3.17226 7.49949 3.06422 7.33515C2.98665 7.22182 2.97834 7.00648 3.04483 6.86481ZM6.43579 5.78527C6.23355 5.89294 6.13658 6.15078 6.21692 6.36329C6.25017 6.45679 6.40531 6.6268 6.45518 6.6268C6.48288 6.6268 6.49119 6.71747 6.49119 7.03198C6.49119 7.51649 6.52721 7.67517 6.67681 7.83101C6.84026 8.00101 6.95662 8.04351 7.30292 8.04351H7.59935V7.88767V7.73184H7.37772C7.10622 7.73184 6.95662 7.678 6.87905 7.54766C6.82918 7.46549 6.82364 7.40882 6.82364 7.04898L6.82641 6.64096L6.91229 6.58429C7.03973 6.49929 7.10068 6.40296 7.1173 6.24428C7.13947 6.05161 7.04804 5.87594 6.87905 5.78527C6.72668 5.7031 6.58816 5.7031 6.43579 5.78527ZM13.9214 4.19571C13.8743 4.24388 13.8743 5.80793 13.9214 5.8561C13.9436 5.87877 14.0599 5.8901 14.2677 5.8901H14.5807V6.81097V7.73184H14.0821H13.5834V7.88767V8.04351H14.204C14.7331 8.04351 14.8328 8.03785 14.8689 7.99818C14.9076 7.96134 14.9132 7.814 14.9132 6.81097C14.9132 5.80793 14.9076 5.66059 14.8689 5.62376C14.8356 5.58693 14.7608 5.57843 14.5087 5.57843H14.1929V4.90407C14.1929 4.41672 14.1846 4.22121 14.1596 4.19571C14.1402 4.17587 14.0876 4.16171 14.0405 4.16171C13.9934 4.16171 13.9408 4.17587 13.9214 4.19571ZM7.28076 3.66302C7.28076 3.46468 7.32785 3.37401 7.48853 3.26068C7.61597 3.17284 7.85977 3.17284 7.98721 3.26351C8.26147 3.45052 8.26147 3.91803 7.98444 4.06254L7.90409 4.10787V4.80773C7.90409 5.43675 7.90963 5.51609 7.95396 5.59259C7.98166 5.63793 8.14789 5.82493 8.32242 6.00344C8.69089 6.38029 8.75183 6.49079 8.77954 6.80247L8.79893 7.02348H8.62717H8.45817V6.8818C8.45817 6.80247 8.44155 6.69763 8.41939 6.6438C8.39999 6.59279 8.231 6.40012 8.04815 6.21311L7.99356 6.15739C7.81447 5.97479 7.71426 5.8726 7.65746 5.75027C7.58529 5.59484 7.58321 5.40687 7.57848 4.98009L7.57719 4.86723L7.56888 4.11354L7.50239 4.08237C7.46914 4.06537 7.40265 4.00587 7.3611 3.94637C7.29184 3.8557 7.28076 3.8132 7.28076 3.66302ZM12.2259 3.86703C12.2259 3.0935 12.2259 3.08784 12.2869 3.04533C12.3201 3.01983 12.3617 3 12.3783 3C12.3949 3 12.4365 3.01983 12.4697 3.04533C12.5307 3.08784 12.5307 3.09067 12.5307 3.9917C12.5307 4.77373 12.5251 4.90123 12.4863 4.93807C12.4558 4.97207 12.3866 4.9834 12.2231 4.9834H12.0043V6.00344V7.02348H11.8381H11.6718V5.87877V4.73123L11.7328 4.68873C11.7771 4.65756 11.8602 4.64339 12.0098 4.64339H12.2259V3.86703ZM13.2731 3.71119C13.226 3.73669 13.2232 3.8217 13.2232 4.84173V5.94677H12.7578C12.4337 5.94677 12.2813 5.95811 12.2592 5.98077C12.237 6.00344 12.2259 6.16495 12.2259 6.51912V7.02348H12.3783H12.5306V6.64096V6.25845H12.9961C13.3202 6.25845 13.4726 6.24712 13.4947 6.22445C13.5197 6.19895 13.528 5.88444 13.528 4.98057C13.528 3.91803 13.5225 3.76503 13.4837 3.72536C13.4338 3.67436 13.3424 3.66869 13.2731 3.71119ZM9.0732 5.54159C9.07874 4.33455 9.08982 4.04837 9.1203 4.01154C9.16739 3.95203 9.30037 3.9492 9.35578 4.0087C9.39457 4.04837 9.40011 4.22404 9.40011 5.53876L9.40011 7.02348H9.23388H9.06489L9.0732 5.54159ZM10.4252 4.73123L10.4861 4.68873C10.5637 4.63206 10.6218 4.63206 10.6911 4.68306C10.741 4.72273 10.7437 4.77373 10.7521 5.8731L10.7604 7.02348H10.5914H10.4252L10.4252 5.87877V4.73123ZM9.78242 5.43959C9.73809 5.46509 9.73255 5.53592 9.73255 6.24428V7.02348H9.88492H10.0373V6.24995C10.0373 5.6861 10.029 5.46792 10.0041 5.44242C9.9625 5.39992 9.84614 5.39992 9.78242 5.43959ZM11.1177 6.26128C11.1177 5.60393 11.1233 5.49059 11.1621 5.45375C11.2258 5.38575 11.356 5.39709 11.4059 5.47075C11.4447 5.52459 11.4502 5.65209 11.4502 6.27828V7.02348H11.284H11.1177V6.26128ZM8.76292 10.0893C8.76292 9.07772 8.77123 8.24185 8.78231 8.23335C8.79062 8.22202 9.60789 8.21352 10.5969 8.21352H12.3921L12.3921 10.0694V11.9253H10.5775H8.76292V10.0893ZM15.4867 7.49949C15.4479 7.542 15.4396 7.6185 15.4396 7.95284V8.35519H14.5115H13.5834V8.51103V8.66687H14.6334H15.6861L15.7277 8.60453C15.7637 8.55353 15.772 8.46003 15.772 8.16535V7.7885H16.3344C16.6419 7.7885 16.9079 7.77717 16.9245 7.76584C17.027 7.69783 17.0242 7.50799 16.9217 7.46549C16.8968 7.45699 16.5727 7.44849 16.2042 7.44849C15.5864 7.44849 15.5282 7.45416 15.4867 7.49949ZM6.08118 9.47156C6.00915 9.42056 5.99806 9.28739 6.06455 9.22222C6.10057 9.18255 6.21138 9.17689 6.85412 9.17689H7.59935V9.34689V9.5169H6.87074C6.25848 9.5169 6.13381 9.51123 6.08118 9.47156ZM13.5834 9.34689V9.5169L14.2871 9.5169C14.6749 9.5169 15.024 9.50557 15.06 9.4914C15.1487 9.4574 15.1791 9.33556 15.121 9.24489L15.0794 9.17689H14.3314L13.5834 9.17689V9.34689ZM15.7969 9.80024C15.8163 9.75207 15.8773 9.68124 15.9327 9.64157C16.0213 9.57924 16.0601 9.57073 16.2153 9.57924C16.4231 9.59057 16.5117 9.64157 16.6031 9.80874C16.653 9.89658 16.6613 9.95042 16.653 10.0723C16.6308 10.3273 16.4812 10.4803 16.2347 10.5029C16.0574 10.5171 15.9493 10.4689 15.8357 10.3244L15.7582 10.2253H14.6722L13.5834 10.2253V10.0553V9.88525L14.6722 9.88525H15.7582L15.7969 9.80024ZM5.31655 9.94758C5.25837 10.0326 5.26114 10.1006 5.32763 10.1686C5.38027 10.2224 5.41905 10.2253 6.49119 10.2253H7.59935V10.0553V9.88525H6.48011H5.3581L5.31655 9.94758ZM6.07009 10.8854C6.00915 10.8288 6.00638 10.7126 6.06732 10.6446C6.10888 10.5964 6.16983 10.5936 6.85689 10.5936H7.59935V10.7636V10.9336H6.85966C6.21138 10.9336 6.11442 10.9279 6.07009 10.8854ZM13.5834 10.7636V10.9336L14.3176 10.9336C15.0157 10.9336 15.0545 10.9308 15.1071 10.8769C15.1376 10.8458 15.1625 10.7948 15.1625 10.7636C15.1625 10.7324 15.1376 10.6814 15.1071 10.6503C15.0545 10.5964 15.0157 10.5936 14.3176 10.5936L13.5834 10.5936V10.7636ZM13.5834 11.557V11.727L14.0821 11.727H14.5807V12.458C14.5807 12.9879 14.5891 13.1975 14.614 13.223C14.6389 13.2485 14.8993 13.257 15.6113 13.257H16.5754L16.6197 13.189C16.6558 13.1267 16.6585 13.1069 16.6253 13.0389L16.5893 12.9595L15.7526 12.951L14.916 12.9454L14.9076 12.22L14.9076 12.2189V12.2189V12.2189V12.2189V12.2189V12.2189C14.8993 11.4975 14.8993 11.4946 14.8328 11.4408C14.7747 11.3926 14.7193 11.387 14.1763 11.387L13.5834 11.387V11.557ZM6.30835 12.4268C6.35821 12.305 6.48842 12.186 6.61863 12.1378C6.69343 12.1095 6.8652 12.0982 7.1644 12.0953H7.59935V12.2653V12.4353H7.1644L7.07918 12.4352C6.84628 12.4345 6.72672 12.4341 6.66548 12.4937C6.60089 12.5565 6.60121 12.6861 6.60187 12.9523L6.60201 13.0417C6.60201 13.495 6.60478 13.5262 6.66296 13.5885C6.7156 13.648 6.74607 13.6537 6.9677 13.6537C7.17825 13.6537 7.21981 13.6622 7.26967 13.7132C7.33616 13.7812 7.32508 13.8974 7.24751 13.9569C7.18933 14.0022 6.79594 14.0051 6.64911 13.9626C6.5189 13.9257 6.35544 13.7841 6.30835 13.6622C6.25294 13.5319 6.25294 12.5543 6.30835 12.4268ZM13.5834 12.2653V12.4353H13.7358L13.8881 12.4353L13.8937 13.7727L13.902 15.1101L13.974 15.1526C14.0405 15.1894 14.0544 15.1894 14.1209 15.1469L14.1929 15.0988V13.6395V12.1832L14.1319 12.1407C14.0876 12.1067 14.0017 12.0953 13.8272 12.0953H13.5834V12.2653ZM9.06766 13.6055C9.06766 14.1326 9.08428 14.1921 9.24773 14.1921C9.31422 14.1921 9.35301 14.1751 9.3724 14.1382C9.38902 14.1071 9.40011 13.8832 9.40011 13.614V13.1437H9.23388H9.06766V13.6055ZM9.73255 14.6738V13.9087V13.1437H9.88492H10.0373V13.9002C10.0373 14.3196 10.0262 14.6738 10.0151 14.6908C9.97635 14.7531 9.87107 14.7644 9.80181 14.7191L9.73255 14.6738ZM10.4252 14.3304C10.4251 15.2454 10.4251 15.4488 10.504 15.4864C10.5266 15.4971 10.5556 15.4943 10.5929 15.4907L10.6025 15.4898C10.7548 15.4756 10.7576 15.4501 10.7576 14.2402V13.1437H10.5914H10.4252V14.2742L10.4252 14.3304ZM11.1787 14.7134C11.1177 14.6709 11.1177 14.6652 11.1177 13.9059V13.1437H11.284H11.4502V13.8946C11.4502 14.6086 11.4474 14.6482 11.3948 14.7021C11.3283 14.7701 11.2618 14.7729 11.1787 14.7134ZM11.6718 13.665C11.6718 14.2402 11.6774 14.2601 11.8436 14.2431C11.9849 14.2289 12.0043 14.1609 12.0043 13.6169V13.1437H11.8381H11.6718V13.665Z" fill="#EA3B31"/>
  </g>
</svg>