<svg xmlns:xlink="http://www.w3.org/1999/xlink" xmlns="http://www.w3.org/2000/svg" width="40" height="40" viewBox="0 0 40 40" fill="none">
  <rect width="40" height="40" rx="20" fill="#00BAF1"/>
  <path d="M32 14.2438C31.1588 14.6217 30.2561 14.878 29.3077 14.9924C30.2761 14.4045 31.0174 13.4719 31.3687 12.3641C30.4603 12.9086 29.4576 13.304 28.3893 13.5183C27.5337 12.593 26.3168 12.0166 24.967 12.0166C22.3775 12.0166 20.2779 14.1453 20.2779 16.7692C20.2779 17.1414 20.3193 17.5049 20.3993 17.8524C16.5029 17.654 13.0479 15.7614 10.7355 12.8854C10.3313 13.5863 10.1013 14.403 10.1013 15.2748C10.1013 16.9242 10.9297 18.3795 12.1866 19.231C11.4182 19.2049 10.6955 18.9906 10.0628 18.6344V18.6937C10.0628 20.9962 11.6796 22.9178 13.8235 23.3552C13.4307 23.4623 13.0165 23.5217 12.588 23.5217C12.2852 23.5217 11.9924 23.4913 11.7053 23.4334C12.3023 25.3231 14.0334 26.6973 16.0845 26.735C14.4805 28.0094 12.458 28.7667 10.2613 28.7667C9.88281 28.7667 9.51 28.7435 9.14294 28.7015C11.2183 30.0526 13.6821 30.8404 16.3302 30.8404C24.9557 30.8404 29.6705 23.597 29.6705 17.3152L29.6548 16.6998C30.576 16.0336 31.373 15.1966 32 14.2438Z" fill="white"/>
</svg>