<svg xmlns:xlink="http://www.w3.org/1999/xlink" xmlns="http://www.w3.org/2000/svg" width="20" height="20" viewBox="0 0 20 20" fill="none">
  <rect width="20" height="20" fill="#F9F9F9"/>
  <mask id="mask0_0_743" style="mask-type:luminance" maskUnits="userSpaceOnUse" x="0" y="0" width="20" height="20">
    <rect width="20" height="20" fill="white"/>
  </mask>
  <g mask="url(#mask0_0_743)">
    <path fill-rule="evenodd" clip-rule="evenodd" d="M16.9856 9.88454C16.9856 9.49485 16.9422 9.11959 16.87 8.74433L16.8266 8.52783C16.7399 8.15258 16.6388 7.79175 16.4943 7.43093L16.3932 7.21443C16.2343 6.86804 16.0609 6.52165 15.8586 6.20412L15.7286 6.01649C15.5119 5.69897 15.2663 5.41031 15.0062 5.13608L14.8473 4.97732C14.5728 4.71753 14.2838 4.47216 13.9659 4.25567L13.7781 4.12577C13.4603 3.92371 13.128 3.73608 12.7668 3.59175L12.5501 3.49072C12.2033 3.34639 11.8277 3.24536 11.452 3.15876L11.2353 3.11546C10.8596 3.0433 10.484 3.01443 10.0939 3L9.86275 3.01443C9.47265 3.01443 9.09701 3.05773 8.72136 3.1299L8.50464 3.1732C8.129 3.25979 7.7678 3.36082 7.4066 3.50515L7.18989 3.60619C6.84314 3.76495 6.49639 3.93814 6.17853 4.14021L5.99071 4.2701C5.67286 4.4866 5.3839 4.73196 5.10939 4.99175L4.95046 5.15052C4.6904 5.42474 4.44479 5.7134 4.22807 6.03093L4.09804 6.21856C3.89577 6.53608 3.70795 6.86804 3.56347 7.22887L3.49123 7.43093C3.34675 7.77732 3.24561 8.15258 3.15893 8.52783L3.11558 8.74433C3.04334 9.11959 3.01445 9.49485 3 9.8701V10.101C3 10.4907 3.04334 10.866 3.11558 11.2268L3.15893 11.4433C3.23117 11.8474 3.34675 12.2227 3.49123 12.5691L3.59236 12.7856C3.75129 13.132 3.92466 13.4784 4.12694 13.7959L4.25697 13.9835C4.47368 14.301 4.7193 14.5897 4.97936 14.8639L5.13829 15.0227C5.4128 15.2825 5.70175 15.5278 6.01961 15.7443L6.20743 15.8742C6.52528 16.0763 6.85759 16.2639 7.21878 16.4082L7.4355 16.5093C7.78225 16.6536 8.14345 16.7546 8.51909 16.8412L8.73581 16.8845C9.11146 16.9567 9.4871 16.9856 9.86275 17L10.0939 16.9856C10.484 16.9856 10.8596 16.9423 11.2353 16.8701L11.452 16.8268C11.8277 16.7402 12.1889 16.6392 12.5501 16.4948L12.7668 16.3938C13.1135 16.2351 13.4603 16.0619 13.7781 15.8598L13.9659 15.7299C14.2838 15.5134 14.5728 15.268 14.8473 15.0082L15.0062 14.8495C15.2663 14.5753 15.5119 14.2866 15.7286 13.9691L15.8731 13.7959C16.0753 13.4784 16.2632 13.1464 16.4076 12.7856L16.5088 12.5691C16.6533 12.2227 16.7544 11.8474 16.8411 11.4722L16.8844 11.2557C16.9567 10.8804 16.9856 10.5052 17 10.1299L16.9856 9.88454ZM9.99278 15.1093C7.16099 15.1093 4.87822 12.8144 4.87822 10C4.87822 7.18557 7.16099 4.89072 9.99278 4.89072C12.8246 4.89072 15.1073 7.18557 15.1073 10C15.1073 12.8144 12.8246 15.1093 9.99278 15.1093ZM5.19608 10C5.19608 7.35876 7.34881 5.20825 9.99278 5.20825C12.6367 5.20825 14.7895 7.35876 14.7895 10C14.7895 12.6412 12.6367 14.7918 9.99278 14.7918C7.34881 14.7918 5.19608 12.6412 5.19608 10ZM5.80289 10C5.80289 12.3093 7.68112 14.1856 9.99278 14.1856C12.3044 14.1856 14.1827 12.3093 14.1827 10C14.1827 7.69072 12.3044 5.81443 9.99278 5.81443C7.68112 5.81443 5.80289 7.69072 5.80289 10ZM9.99278 13.8825C7.85449 13.8825 6.1063 12.1361 6.1063 10C6.1063 7.86392 7.85449 6.11753 9.99278 6.11753C12.1455 6.11753 13.8793 7.86392 13.8793 10C13.8793 12.1361 12.1455 13.8825 9.99278 13.8825ZM9.99278 6.30515C7.95562 6.30515 6.29412 7.96495 6.29412 10C6.29412 12.0351 7.95562 13.6948 9.99278 13.6948C12.0299 13.6948 13.6914 12.0351 13.6914 10C13.6914 7.96495 12.0299 6.30515 9.99278 6.30515ZM9.99278 8.62887C9.24149 8.62887 8.63468 9.23505 8.63468 9.98557C8.63468 10.7361 9.24149 11.3567 9.99278 11.3567C10.7441 11.3567 11.3509 10.7505 11.3509 10C11.3509 9.24949 10.7441 8.62887 9.99278 8.62887ZM9.99278 8.91753C10.5851 8.91753 11.0764 9.40825 11.0764 10C11.0764 10.5918 10.5851 11.0825 9.99278 11.0825C9.40041 11.0825 8.90918 10.5918 8.90918 10C8.90918 9.40825 9.40041 8.91753 9.99278 8.91753Z" fill="#EA3B31"/>
  </g>
</svg>