<svg xmlns:xlink="http://www.w3.org/1999/xlink" xmlns="http://www.w3.org/2000/svg" width="64" height="70" viewBox="0 0 64 70" fill="none">
<path fill-rule="evenodd" clip-rule="evenodd" d="M61.976 28.7421C60.7551 27.6294 59.1528 27.0478 57.4661 27.1056C55.8154 27.1613 54.2616 27.8241 53.0917 28.968L51.9627 30.075L50.1069 27.8288C50.3919 27.2576 50.6408 26.6698 50.8519 26.0695L56.8737 25.4452V16.334L50.8519 15.7097C50.6408 15.1093 50.3919 14.5215 50.1069 13.9503L53.9149 9.33979L47.3347 2.89753L42.6259 6.62553C42.0425 6.34645 41.4427 6.1033 40.829 5.8966L40.1914 0H30.888L30.2499 5.8966C29.6368 6.1033 29.0369 6.34645 28.4536 6.62553L23.7426 2.89753L17.1646 9.33979L20.9721 13.9503C20.687 14.5231 20.4387 15.1093 20.226 15.7097L14.2042 16.334V25.4452L20.226 26.0695C20.4387 26.6698 20.687 27.2576 20.9721 27.8288L17.1646 32.4393L20.9434 36.1408L12.7689 44.1461L10.1914 41.6208L0 51.5985L18.7955 70L28.9854 60.0229L25.1523 56.2694L27.683 53.79H40.2924C43.7761 53.79 47.0513 52.4617 49.5161 50.05L62.1419 37.6877C63.3703 36.4834 64.0308 34.8834 63.9989 33.1818C63.9691 31.4797 63.2502 29.9037 61.976 28.7421ZM35.5395 12.4909C30.8093 12.4909 26.9609 16.2574 26.9609 20.8903C26.9609 25.5202 30.8093 29.2882 35.5395 29.2882C40.2696 29.2882 44.118 25.5202 44.118 20.8903C44.118 16.2574 40.2696 12.4909 35.5395 12.4909ZM35.5395 25.1869C33.1204 25.1869 31.1518 23.2594 31.1518 20.8903C31.1518 18.5197 33.1204 16.5922 35.5395 16.5922C37.959 16.5922 39.9277 18.5197 39.9277 20.8903C39.9277 23.2594 37.959 25.1869 35.5395 25.1869ZM18.3946 21.7536V20.0255L23.5256 19.4939L23.874 18.0917C24.1648 16.9291 24.6339 15.819 25.2715 14.7933L26.0372 13.5593L22.7929 9.63032L24.0415 8.40831L28.0526 11.586L29.3124 10.8362C30.36 10.2119 31.4937 9.75164 32.6817 9.4684L34.1138 9.12579L34.6578 4.1034H36.4217L36.9657 9.12579L38.3977 9.4684C39.5852 9.75164 40.7189 10.2119 41.7665 10.8346L43.0268 11.5844L47.0396 8.40831L48.2861 9.63032L45.0422 13.5593L45.808 14.7933C46.4456 15.819 46.9141 16.9291 47.2055 18.0917L47.5549 19.4939L52.6849 20.0255V21.7536L47.5549 22.2852L47.2055 23.6874C46.9141 24.85 46.4456 25.9601 45.808 26.9858L45.0422 28.2198L48.2861 32.1488L47.0396 33.3708L43.0268 30.1932L41.7665 30.9429C41.5932 31.046 41.4156 31.1465 41.2348 31.2408H31.3507C30.8891 31.2408 30.4323 31.2658 29.9803 31.3116C29.7543 31.1949 29.531 31.0726 29.3124 30.9429L28.0537 30.1932L24.0415 33.3708L22.7929 32.1488L26.0372 28.2198L25.2725 26.9858C24.6349 25.9601 24.1648 24.85 23.8755 23.6874L23.5256 22.2852L18.3946 21.7536ZM18.7955 64.1982L5.92555 51.5985L10.1914 47.4227L23.0598 60.0229L18.7955 64.1982ZM59.1784 34.7876L46.5525 47.1498C44.8811 48.7868 42.6572 49.6886 40.2924 49.6886H25.9479L22.1888 53.3677L15.7325 47.0462L25.0901 37.884C26.762 36.246 28.9854 35.3442 31.3507 35.3442H41.5283C42.1191 35.3442 42.6711 35.5743 43.0811 35.9903C43.4911 36.4069 43.7054 36.9556 43.6841 37.5357C43.6432 38.6572 42.6301 39.5694 41.4262 39.5694H31.2119V43.6723H41.4262C43.0795 43.6723 44.6578 43.0647 45.8654 41.9603C46.1834 41.6714 46.4653 41.3537 46.7125 41.0174L56.0553 31.8697C56.9066 31.0356 58.2818 30.9799 59.1199 31.7442C59.5538 32.141 59.7995 32.6768 59.8101 33.2558C59.8208 33.8342 59.5958 34.3773 59.1784 34.7876V34.7876Z" fill="white"/>
</svg>