<svg xmlns:xlink="http://www.w3.org/1999/xlink" xmlns="http://www.w3.org/2000/svg" width="20" height="20" viewBox="0 0 20 20" fill="none">
  <rect width="20" height="20" fill="#F9F9F9"/>
  <mask id="mask0_0_714" style="mask-type:luminance" maskUnits="userSpaceOnUse" x="0" y="0" width="20" height="20">
    <rect width="20" height="20" fill="white"/>
  </mask>
  <g mask="url(#mask0_0_714)">
</g>
  <path fill-rule="evenodd" clip-rule="evenodd" d="M18 6C18 5.44772 17.5523 5 17 5H3C2.44772 5 2 5.44772 2 6V9C2 9.55228 2.44772 10 3 10H10V12.5L8 13V15H16V13L14 12.5V10H17C17.5523 10 18 9.55228 18 9V6ZM13.5 9.5H14H17C17.2761 9.5 17.5 9.27614 17.5 9V6C17.5 5.72386 17.2761 5.5 17 5.5H3C2.72386 5.5 2.5 5.72386 2.5 6V9C2.5 9.27614 2.72386 9.5 3 9.5H10H10.5H13.5ZM10.5 10H13.5V12.5H10.5V10ZM8.5 13.39L10.0615 13H13.9384L15.5 13.391V14.5H8.5V13.39ZM15.5 6.5C16.0523 6.5 16.5 6.94772 16.5 7.5C16.5 8.05228 16.0523 8.5 15.5 8.5C14.9477 8.5 14.5 8.05228 14.5 7.5C14.5 6.94772 14.9477 6.5 15.5 6.5ZM15 7.5C15 7.22386 15.2239 7 15.5 7C15.7761 7 16 7.22386 16 7.5C16 7.77614 15.7761 8 15.5 8C15.2239 8 15 7.77614 15 7.5ZM7 7.5C7 6.67157 6.32843 6 5.5 6C4.67157 6 4 6.67157 4 7.5C4 8.32843 4.67157 9 5.5 9C6.32843 9 7 8.32843 7 7.5ZM5 7.5C5 7.22386 5.22386 7 5.5 7C5.77614 7 6 7.22386 6 7.5C6 7.77614 5.77614 8 5.5 8C5.22386 8 5 7.77614 5 7.5ZM9.5 6C10.3284 6 11 6.67157 11 7.5C11 8.32843 10.3284 9 9.5 9C8.67157 9 8 8.32843 8 7.5C8 6.67157 8.67157 6 9.5 6ZM9.5 7C9.22386 7 9 7.22386 9 7.5C9 7.77614 9.22386 8 9.5 8C9.77614 8 10 7.77614 10 7.5C10 7.22386 9.77614 7 9.5 7Z" fill="#EA3B31"/>
</svg>