<svg xmlns:xlink="http://www.w3.org/1999/xlink" xmlns="http://www.w3.org/2000/svg" width="20" height="20" viewBox="0 0 20 20" fill="none">
  <rect width="20" height="20" fill="#F9F9F9"/>
  <mask id="mask0_0_563" style="mask-type:luminance" maskUnits="userSpaceOnUse" x="0" y="0" width="20" height="20">
    <rect width="20" height="20" fill="white"/>
  </mask>
  <g mask="url(#mask0_0_563)">
    <path fill-rule="evenodd" clip-rule="evenodd" d="M5.90411 5.83555C6.46027 4.35352 7.73699 3.31172 9.31507 3.04102C9.80274 2.95898 10.663 3.00547 11.1425 3.13945L11.3425 3.19414L11.526 3.13672C11.8247 3.04375 12.1507 3 12.5205 3C13.063 3 13.5342 3.10937 14.0137 3.34727C14.9534 3.81211 15.6137 4.70898 15.7973 5.77266C15.8575 6.11172 15.8356 6.74609 15.7562 7.07422C15.5726 7.80977 15.189 8.425 14.6192 8.89805L14.4849 9.01016L14.8603 9.6418C14.9812 9.8462 15.123 10.0828 15.2427 10.2825L15.2429 10.2827L15.243 10.283C15.3266 10.4223 15.3993 10.5437 15.4466 10.6234L15.6575 10.9707H15.9315C16.1808 10.9707 16.2219 10.9789 16.3836 11.0555C16.6137 11.1648 16.8082 11.359 16.9151 11.5859C16.9945 11.75 17 11.7855 17 12.0645C17 12.3461 16.9945 12.3762 16.9151 12.543C16.7096 12.9668 16.3233 13.191 15.8329 13.1664C15.5205 13.1527 15.3041 13.0488 15.0849 12.8137C15 12.7234 14.9315 12.6387 14.9315 12.6223C14.9315 12.6086 14.6055 12.5977 14.1096 12.5977L13.2904 12.5977L13.263 12.6988C13.2466 12.7562 13.1425 13.1719 13.0301 13.623C12.9178 14.0742 12.8 14.5117 12.7699 14.5965C12.6274 15.0121 12.2849 15.3402 11.8493 15.477C11.6603 15.5371 11.6356 15.5371 10 15.5371C8.36438 15.5371 8.33973 15.5371 8.15068 15.477C7.71507 15.3402 7.3726 15.0121 7.23014 14.5965C7.2 14.5117 7.08219 14.0742 6.96986 13.623C6.85753 13.1719 6.75342 12.7562 6.73699 12.6988L6.70959 12.5977H5.89041H5.07397L5.01644 12.6852C4.89589 12.882 4.53151 13.1445 4.38082 13.1445C4.33151 13.1445 4.32877 13.1801 4.32877 14.0988V15.0504L4.54795 15.0668C4.80548 15.0832 4.93699 15.1406 5.05205 15.2855C5.1726 15.4387 5.17534 15.5891 5.05479 16.2891C4.94247 16.948 4.92055 17 4.73973 17C4.62192 17 4.53151 16.9426 4.50959 16.8496C4.50137 16.8141 4.53699 16.5242 4.58904 16.2098C4.6411 15.8953 4.68493 15.6191 4.68493 15.5945C4.68493 15.5563 4.6137 15.5508 4.09589 15.5508H3.50685V15.6109C3.50685 15.6465 3.54795 15.9199 3.6 16.218C3.71781 16.9125 3.69863 17 3.4411 17C3.33151 17 3.24384 16.9262 3.22192 16.8113C3.1589 16.5105 3.03836 15.7066 3.03836 15.5918C3.03288 15.2582 3.29041 15.0586 3.72603 15.0586H3.86301L3.86301 14.1016C3.86301 13.191 3.86027 13.1445 3.8137 13.1445C3.78356 13.1445 3.68767 13.1063 3.59726 13.0625C3.39178 12.9613 3.1726 12.7344 3.07397 12.5238C3.00822 12.3816 3 12.3352 3 12.0645C3 11.7855 3.00548 11.75 3.08493 11.5859C3.19178 11.359 3.3863 11.1648 3.61644 11.0555C3.78356 10.9762 3.8137 10.9707 4.09589 10.9707C4.38082 10.9707 4.40822 10.9762 4.57534 11.0582C4.95342 11.2441 5.20548 11.6215 5.20548 12.0016V12.1328H5.90137H6.59726L6.49863 11.7555C6.36986 11.2578 6.36438 11.0336 6.47945 10.8121C6.56986 10.6316 6.69315 10.5113 6.87397 10.4266C7 10.3691 7.00822 10.3691 10 10.3691C12.9918 10.3691 13 10.3691 13.126 10.4266C13.3068 10.5113 13.4301 10.6316 13.5205 10.8121C13.6356 11.0336 13.6301 11.2578 13.5014 11.7582L13.4027 12.1328L14.0959 12.1328H14.7863L14.8 11.9469C14.8164 11.709 14.9123 11.4957 15.0795 11.318C15.1479 11.2441 15.2055 11.1758 15.2055 11.1676C15.2055 11.1512 14.1123 9.31367 14.0849 9.28086C14.074 9.26992 13.9726 9.30273 13.8575 9.35742C13.4 9.57617 12.6411 9.68828 12.1205 9.61719C11.811 9.57617 11.5151 9.50234 11.2959 9.41211L11.1233 9.34375H9.00274C7.53151 9.34375 6.83562 9.33555 6.73425 9.31367C6.26575 9.2125 5.8274 8.80508 5.68767 8.33203C5.63014 8.13789 5.6274 7.03594 5.68219 6.69141C5.73151 6.39336 5.81644 6.06523 5.90411 5.83555ZM10.5123 3.65078C10.6658 3.53594 10.6767 3.52227 10.6219 3.50586C10.5014 3.46758 9.60822 3.46484 9.39726 3.50313C9.07671 3.56055 8.77808 3.64805 8.46027 3.78203C7.60822 4.14023 6.82192 4.91406 6.44932 5.76172C6.18904 6.34961 6.10959 6.77617 6.10959 7.56641C6.10959 8.04766 6.11507 8.12969 6.16438 8.26094C6.2274 8.42773 6.39726 8.63281 6.54795 8.72852C6.78356 8.87891 6.8 8.87891 8.65479 8.87891L10.3671 8.87891L10.1562 8.66562C9.8137 8.32383 9.52877 7.88086 9.38082 7.4625C9.34247 7.35312 9.32055 7.32305 9.28767 7.33672C8.96712 7.46797 8.58904 7.4543 8.28219 7.29844C8.13699 7.22461 7.90685 6.99492 7.83562 6.85273C7.4137 6.03242 8.07397 5.08633 8.98082 5.21484C9.06575 5.22578 9.18082 5.25313 9.23562 5.27773L9.33151 5.31602L9.39452 5.13555C9.58356 4.60234 10.0329 4.00078 10.5123 3.65078ZM13.1918 3.54141C13.7342 3.69453 14.126 3.91055 14.4904 4.26602C15.1014 4.86211 15.4055 5.62227 15.3616 6.45625C15.2548 8.50977 13.0685 9.78672 11.2384 8.86797C10.3836 8.43867 9.80548 7.63203 9.67397 6.68047C9.63288 6.39609 9.63562 6.21016 9.68493 5.8957C9.77808 5.26406 10.074 4.69805 10.5397 4.25508C10.9562 3.86133 11.4438 3.6125 12.0082 3.50313C12.2904 3.45117 12.9397 3.47031 13.1918 3.54141ZM9.19178 5.78086L9.08219 5.73164C8.85479 5.62773 8.54795 5.68516 8.36712 5.86562C8.03014 6.20195 8.15616 6.74883 8.6137 6.92383C8.76164 6.98125 8.9726 6.96758 9.10411 6.89102L9.1863 6.8418L9.18904 6.31133L9.19178 5.78086ZM12.9781 10.8914C13.0192 10.9215 13.0767 10.9926 13.1068 11.05L13.1562 11.1512L13.0356 11.6352L12.9151 12.1191L11.6877 12.1328L10.4603 12.1465L10.4082 12.2121C10.337 12.2996 10.3425 12.4145 10.4219 12.5074L10.4877 12.584L11.6438 12.5922C12.7205 12.5977 12.7973 12.6031 12.7836 12.6469C12.7753 12.6715 12.6685 13.0926 12.5479 13.582C12.4082 14.1371 12.3014 14.5117 12.2603 14.5828C12.1699 14.7359 12.0137 14.8836 11.8493 14.9711L11.7123 15.0449L10 15.0449H8.28767L8.15068 14.9711C7.9863 14.8863 7.79452 14.7004 7.72329 14.5609C7.69589 14.5062 7.48767 13.7215 7.26027 12.8164C6.89863 11.3754 6.85205 11.1566 6.87671 11.0801C6.90959 10.9816 6.99452 10.8914 7.09589 10.8504C7.13973 10.834 8.16438 10.8258 10.0329 10.8285L10.0384 10.8285H10.0384H10.0384H10.0384C12.8822 10.834 12.9014 10.834 12.9781 10.8914ZM4.54521 12.5129C4.84384 12.2148 4.7863 11.7418 4.4274 11.5203C3.98082 11.2441 3.4137 11.5914 3.45753 12.1164C3.50137 12.6605 4.1589 12.8984 4.54521 12.5129ZM16.1781 11.4875C16.6411 11.7008 16.674 12.3406 16.2356 12.6113C16.1178 12.6824 16.074 12.6934 15.9041 12.6934C15.7342 12.6934 15.6904 12.6824 15.5726 12.6113C15.4932 12.5594 15.4082 12.4773 15.3589 12.398C15.0274 11.8621 15.6055 11.2195 16.1781 11.4875ZM7.84658 16.5625C7.70137 16.6199 7.65753 16.8031 7.75616 16.9289L7.81096 17H10H12.189L12.2438 16.9289C12.3205 16.8332 12.3151 16.7184 12.2356 16.6254L12.1699 16.5488L10.0356 16.5434C8.86301 16.5406 7.87671 16.5488 7.84658 16.5625ZM8.01644 13.6504C7.97808 13.5492 8 13.4152 8.06849 13.3496C8.13425 13.2812 8.24658 13.2621 8.34247 13.2977C8.4 13.3195 8.46575 13.4508 8.46575 13.541C8.46575 13.6285 8.32877 13.7734 8.24658 13.7734C8.16712 13.7734 8.03836 13.7023 8.01644 13.6504ZM7.75068 11.5449C7.81644 11.4027 7.91233 11.318 8.05753 11.2688C8.14521 11.2414 8.29315 11.2332 8.57534 11.2387C9.02466 11.2441 9.08767 11.266 9.24384 11.4574L9.32877 11.5641L9.33699 12.0234C9.34521 12.4418 9.33973 12.4938 9.29041 12.5922C9.16164 12.841 8.96164 12.9121 8.42466 12.893C7.98904 12.8766 7.84384 12.8082 7.73973 12.5621C7.67397 12.4062 7.68219 11.6926 7.75068 11.5449ZM8.87123 12.0809C8.87671 11.8758 8.86849 11.7582 8.84658 11.7336C8.80548 11.6816 8.27945 11.6789 8.21096 11.7309C8.16986 11.7609 8.16438 11.8074 8.16986 12.0781L8.17808 12.3926H8.52055H8.86301L8.87123 12.0809ZM12.1945 4.03906C11.3068 4.16211 10.5808 4.78555 10.3014 5.66602C10.2164 5.93672 10.1945 6.46172 10.2603 6.77617C10.4767 7.85078 11.4055 8.60547 12.5068 8.60547C13.8877 8.60547 14.9452 7.42969 14.7918 6.06797C14.7397 5.60859 14.5836 5.22578 14.2932 4.86484C14.0137 4.51484 13.5342 4.20586 13.0932 4.09648C12.8384 4.03086 12.4329 4.00625 12.1945 4.03906ZM8.99178 13.3004C8.94795 13.3168 8.87671 13.4535 8.87671 13.5246C8.87671 13.7434 9.13151 13.8473 9.28767 13.6914C9.36712 13.6121 9.36164 13.4344 9.27397 13.3496C9.21096 13.284 9.08493 13.2621 8.99178 13.3004ZM11.5205 13.7625C11.2822 13.8063 11.1425 13.5027 11.3233 13.3359C11.4 13.2621 11.5534 13.2648 11.6356 13.3414C11.6822 13.3852 11.6986 13.4316 11.6986 13.5137C11.6986 13.6559 11.6384 13.7406 11.5205 13.7625Z" fill="#EA3B31"/>
  </g>
</svg>