<svg xmlns="http://www.w3.org/2000/svg" xmlns:xlink="http://www.w3.org/1999/xlink" id="Layer_2" data-name="Layer 2" viewBox="0 0 300 300" width="300"  height="300" ><defs><style>.cls-1{fill:#3faaa2;}.cls-2{fill:url(#linear-gradient);}.cls-3{fill:url(#linear-gradient-2);}.cls-4{fill:url(#linear-gradient-3);}</style><linearGradient id="linear-gradient" x1="132.69" y1="267.72" x2="132.69" y2="17.3" gradientUnits="userSpaceOnUse"><stop offset="0" stop-color="#888"/><stop offset="1" stop-color="#d5d5d3"/></linearGradient><linearGradient id="linear-gradient-2" x1="147.67" y1="267.72" x2="147.67" y2="17.3" xlink:href="#linear-gradient"/><linearGradient id="linear-gradient-3" x1="133.49" y1="267.72" x2="133.49" y2="17.3" xlink:href="#linear-gradient"/></defs><path class="cls-1" d="M224,28.33H110.66a24.56,24.56,0,0,0-24.29,20.5,6.3,6.3,0,0,0,5.15,7.25,6.31,6.31,0,0,0,7.24-5.15,12,12,0,0,1,11.9-10H224A12.09,12.09,0,0,1,236,53V212.42A12.08,12.08,0,0,1,224,224.49a6.28,6.28,0,0,0,0,12.56,24.66,24.66,0,0,0,24.63-24.63V53A24.66,24.66,0,0,0,224,28.33Z"/><path class="cls-2" d="M189.34,63H76A24.66,24.66,0,0,0,51.41,87.58V247A24.66,24.66,0,0,0,76,271.67h113.3A24.65,24.65,0,0,0,214,247V87.58A24.65,24.65,0,0,0,189.34,63ZM76,75.51h3.11V96.39H64V87.58A12.08,12.08,0,0,1,76,75.51ZM201.41,87.58V247a12.08,12.08,0,0,1-12.07,12.07H76A12.09,12.09,0,0,1,64,247V109H85.43a6.28,6.28,0,0,0,6.28-6.28V75.51h97.63A12.08,12.08,0,0,1,201.41,87.58Z"/><path class="cls-3" d="M178.23,116.28H117.1a6.28,6.28,0,0,0,0,12.56h61.13a6.28,6.28,0,1,0,0-12.56Z"/><path class="cls-4" d="M178.23,152.77H88.74a6.28,6.28,0,1,0,0,12.56h89.49a6.28,6.28,0,1,0,0-12.56Z"/><path class="cls-4" d="M178.23,181.62H88.74a6.28,6.28,0,0,0,0,12.56h89.49a6.28,6.28,0,0,0,0-12.56Z"/><path class="cls-4" d="M178.23,210.46H88.74a6.28,6.28,0,0,0,0,12.56h89.49a6.28,6.28,0,1,0,0-12.56Z"/></svg>