<svg xmlns:xlink="http://www.w3.org/1999/xlink" xmlns="http://www.w3.org/2000/svg" viewBox="0 0 81 81" width="81"  height="81" ><defs><style>.cls-1{fill:#fff;}.cls-2{fill:#ccc;}</style></defs><g id="Layer_2" data-name="Layer 2"><g id="Layer_1-2" data-name="Layer 1"><ellipse class="cls-1" cx="40.5" cy="42.57" rx="34" ry="32.5"/><path class="cls-2" d="M40.5,0A40.5,40.5,0,1,1,0,40.5,40.49,40.49,0,0,1,40.5,0ZM35.28,32.89V62.71a3.9,3.9,0,0,0,3.92,3.92h2.61a3.91,3.91,0,0,0,3.92-3.92V32.89L57.55,45.22a3.92,3.92,0,0,0,5.6.07l1.78-1.8a3.9,3.9,0,0,0,0-5.54L43.28,16.28a3.92,3.92,0,0,0-5.54,0L16.05,38a3.92,3.92,0,0,0,0,5.54l1.78,1.8a3.94,3.94,0,0,0,5.62-.07Z"/></g></g></svg>