<svg xmlns:xlink="http://www.w3.org/1999/xlink" xmlns="http://www.w3.org/2000/svg" viewBox="0 0 24 24" width="24"  height="24" ><path d="M0 0h24v24H0z" style="fill:none"/><path d="M13 1A11 11 0 0 0 2 12l14.84 3.84Z" style="fill:#ed6c47"/><path d="M13 1a11 11 0 0 1 11 11l-5.5 3-5.5-3Z" style="fill:#ff8f6b"/><path d="M2 12a11 11 0 0 0 22 0Z" style="fill:#d35230"/><path d="M15 18.65V7.17A1.18 1.18 0 0 0 13.83 6H3.8a10.91 10.91 0 0 0 1.69 14h8.11a1.5 1.5 0 0 0 1.4-1.35Z" style="opacity:.5"/><path d="M15 18.65V7.17A1.18 1.18 0 0 0 13.83 6H3.8a10.91 10.91 0 0 0 1.69 14h8.11a1.5 1.5 0 0 0 1.4-1.35Z" style="opacity:.1"/><rect width="14" height="14" y="5" data-name="Back Plate" rx="1.17" style="fill:#c43e1c"/><path d="M7.4 8a3.32 3.32 0 0 1 2.2.64 2.32 2.32 0 0 1 .76 1.86 3.42 3.42 0 0 1-.36 1.61 2.54 2.54 0 0 1-1.07 1 3.7 3.7 0 0 1-1.61.34H5.78V16H4.22V8Zm-1.62 4h1.34a1.78 1.78 0 0 0 1.19-.35 1.46 1.46 0 0 0 .4-1.1c0-.88-.51-1.32-1.54-1.32H5.78Z" style="fill:#fff"/></svg>