<svg xmlns:xlink="http://www.w3.org/1999/xlink"   viewBox="0 0 20 20" xmlns="http://www.w3.org/2000/svg" class="___1yjlmar f1w7gpdv fez10in f1kxrtqx" fill="currentColor" aria-hidden="true" style="font-size: 20px; vertical-align: text-bottom;" width="1"  height="1" ><path d="M5 15v2a1 1 0 001 1h11a1 1 0 001-1V3a1 1 0 00-1-1H6a1 1 0 00-1 1v2H3a1 1 0 00-1 1v8a1 1 0 001 1h2zm12 2h-3v-3h3v3zm0-4h-3v-3h3v3zm0-4h-3V6h3v3zM6 3h11v2h-4v12H6v-2h5a1 1 0 001-1V6a1 1 0 00-1-1H6V3zm2.59 10.25l-3.06-3.9v3.9H3.91v-6.5h1.68l3 3.81V6.75h1.62v6.5H8.59z" fill="#FFFFFF"></path></svg>