<svg xmlns:xlink="http://www.w3.org/1999/xlink" width="52" height="41" viewBox="0 0 52 41" fill="none" xmlns="http://www.w3.org/2000/svg">
<g filter="url(#filter0_dd_1958_585417)">
<rect x="2" y="2" width="47.6757" height="36" rx="0.972973" fill="white"/>
</g>
<g opacity="0.2">
<rect x="5.89192" y="5.8916" width="4.86486" height="4.86486" rx="0.486486" fill="#10893C"/>
<rect x="5.89191" y="11.7295" width="4.86486" height="4.86486" rx="0.486486" fill="#10893C"/>
<rect x="5.89191" y="17.5674" width="4.86486" height="4.86486" rx="0.486486" fill="#10893C"/>
<rect x="5.89191" y="23.4053" width="4.86486" height="4.86486" rx="0.486486" fill="#10893C"/>
<rect x="5.89191" y="29.2429" width="4.86486" height="4.86486" rx="0.486486" fill="#10893C"/>
<rect x="11.7297" y="5.8916" width="4.86486" height="4.86486" rx="0.486486" fill="#10893C"/>
<rect x="11.7297" y="11.7295" width="4.86486" height="4.86486" rx="0.486486" fill="#10893C"/>
<rect x="11.7297" y="17.5674" width="4.86486" height="4.86486" rx="0.486486" fill="#10893C"/>
<rect x="11.7297" y="23.4053" width="4.86486" height="4.86486" rx="0.486486" fill="#10893C"/>
<rect x="11.7297" y="29.2429" width="4.86486" height="4.86486" rx="0.486486" fill="#10893C"/>
<rect x="17.5675" y="5.8916" width="4.86486" height="4.86486" rx="0.486486" fill="#10893C"/>
<rect x="17.5675" y="11.7295" width="4.86486" height="4.86486" rx="0.486486" fill="#10893C"/>
<rect x="17.5675" y="17.5674" width="4.86486" height="4.86486" rx="0.486486" fill="#10893C"/>
<rect x="17.5675" y="23.4053" width="4.86486" height="4.86486" rx="0.486486" fill="#10893C"/>
<rect x="17.5675" y="29.2429" width="4.86486" height="4.86486" rx="0.486486" fill="#10893C"/>
<rect x="23.4054" y="5.8916" width="4.86486" height="4.86486" rx="0.486486" fill="#10893C"/>
<rect x="23.4054" y="11.7295" width="4.86486" height="4.86486" rx="0.486486" fill="#10893C"/>
<rect x="23.4054" y="17.5674" width="4.86486" height="4.86486" rx="0.486486" fill="#10893C"/>
<rect x="23.4054" y="23.4053" width="4.86486" height="4.86486" rx="0.486486" fill="#10893C"/>
<rect x="23.4054" y="29.2429" width="4.86486" height="4.86486" rx="0.486486" fill="#10893C"/>
<rect x="29.2433" y="5.8916" width="4.86486" height="4.86486" rx="0.486486" fill="#10893C"/>
<rect x="29.2433" y="11.7295" width="4.86486" height="4.86486" rx="0.486486" fill="#10893C"/>
<rect x="29.2433" y="17.5674" width="4.86486" height="4.86486" rx="0.486486" fill="#10893C"/>
<rect x="29.2433" y="23.4053" width="4.86486" height="4.86486" rx="0.486486" fill="#10893C"/>
<rect x="29.2433" y="29.2429" width="4.86486" height="4.86486" rx="0.486486" fill="#10893C"/>
<rect x="35.0811" y="5.8916" width="4.86486" height="4.86486" rx="0.486486" fill="#10893C"/>
<rect x="35.0811" y="11.7295" width="4.86486" height="4.86486" rx="0.486486" fill="#10893C"/>
<rect x="35.0811" y="17.5674" width="4.86486" height="4.86486" rx="0.486486" fill="#10893C"/>
<rect x="35.0811" y="23.4053" width="4.86486" height="4.86486" rx="0.486486" fill="#10893C"/>
<rect x="35.0811" y="29.2429" width="4.86486" height="4.86486" rx="0.486486" fill="#10893C"/>
<rect x="40.9189" y="5.8916" width="4.86486" height="4.86486" rx="0.486486" fill="#10893C"/>
<rect x="40.9189" y="11.7295" width="4.86486" height="4.86486" rx="0.486486" fill="#10893C"/>
<rect x="40.9189" y="17.5674" width="4.86486" height="4.86486" rx="0.486486" fill="#10893C"/>
<rect x="40.9189" y="23.4053" width="4.86486" height="4.86486" rx="0.486486" fill="#10893C"/>
<rect x="40.9189" y="29.2429" width="4.86486" height="4.86486" rx="0.486486" fill="#10893C"/>
</g>
<defs>
<filter id="filter0_dd_1958_585417" x="0.230958" y="0.230958" width="51.2138" height="40.4226" filterUnits="userSpaceOnUse" color-interpolation-filters="sRGB">
<feFlood flood-opacity="0" result="BackgroundImageFix"/>
<feColorMatrix in="SourceAlpha" type="matrix" values="0 0 0 0 0 0 0 0 0 0 0 0 0 0 0 0 0 0 127 0" result="hardAlpha"/>
<feOffset/>
<feGaussianBlur stdDeviation="0.884521"/>
<feComposite in2="hardAlpha" operator="out"/>
<feColorMatrix type="matrix" values="0 0 0 0 0 0 0 0 0 0 0 0 0 0 0 0 0 0 0.12 0"/>
<feBlend mode="normal" in2="BackgroundImageFix" result="effect1_dropShadow_1958_585417"/>
<feColorMatrix in="SourceAlpha" type="matrix" values="0 0 0 0 0 0 0 0 0 0 0 0 0 0 0 0 0 0 127 0" result="hardAlpha"/>
<feOffset dy="0.884521"/>
<feGaussianBlur stdDeviation="0.884521"/>
<feComposite in2="hardAlpha" operator="out"/>
<feColorMatrix type="matrix" values="0 0 0 0 0 0 0 0 0 0 0 0 0 0 0 0 0 0 0.14 0"/>
<feBlend mode="normal" in2="effect1_dropShadow_1958_585417" result="effect2_dropShadow_1958_585417"/>
<feBlend mode="normal" in="SourceGraphic" in2="effect2_dropShadow_1958_585417" result="shape"/>
</filter>
</defs>
</svg>
