<svg xmlns:xlink="http://www.w3.org/1999/xlink"   viewBox="0 0 20 20" xmlns="http://www.w3.org/2000/svg" class="___1yjlmar f1w7gpdv fez10in f1kxrtqx" fill="currentColor" aria-hidden="true" style="font-size: 20px; vertical-align: text-bottom;" width="1"  height="1" ><path d="M14.5 3A2.5 2.5 0 0117 5.5v3.09a2 2 0 00-1 .23V7H4v7.5c0 .83.67 1.5 1.5 1.5h1.48a2 2 0 00.41.6l.4.4H5.5A2.5 2.5 0 013 14.5v-9A2.5 2.5 0 015.5 3h9zm0 1h-9C4.67 4 4 4.67 4 5.5V6h12v-.5c0-.83-.67-1.5-1.5-1.5zM8.1 15.9a1 1 0 010-1.42l1.06-1.06a1 1 0 011.41 0l1.07 1.06 4.6-4.6a1 1 0 011.4 0l1.07 1.06a1 1 0 010 1.42l-6.37 6.36a1 1 0 01-1.41 0L8.1 15.89zm2.47 1.05l1.07 1.06L18 11.65l-1.06-1.06-6.37 6.36zm-1.76-1.77l1.06 1.06 1.06-1.06-1.06-1.06-1.06 1.06z" fill="#FFFFFF"></path></svg>