<svg xmlns:xlink="http://www.w3.org/1999/xlink" clip-rule="evenodd" fill-rule="evenodd" stroke-linejoin="round" stroke-miterlimit="2" version="1.1" viewBox="0 0 286.57 312.96" xml:space="preserve" xmlns="http://www.w3.org/2000/svg" width="286.57"  height="312.96" ><path d="m160.53 7.432h18.53c3.262 0 6.391 1.296 8.698 3.603 2.306 2.306 3.602 5.435 3.602 8.697 0 0-0.016 63.151-0.048 63.409 0 0-1.609 10.509 5.352 15.826 20.216 15.439 33.265 39.793 33.265 67.17 0 46.626-37.706 84.475-84.332 84.475-46.623 0-84.475-37.852-84.475-84.475 0-27.377 13.049-51.731 33.265-67.17 6.961-5.317 5.352-15.826 5.352-15.826-0.032-0.258-0.048-63.409-0.048-63.409-1e-3 -3.262 1.295-6.391 3.602-8.697 2.307-2.307 5.435-3.603 8.698-3.603h18.53c-0.074-0.383-0.112-0.778-0.112-1.182 0-3.45 2.8-6.25 6.25-6.25h17.733c3.449 0 6.25 2.8 6.25 6.25 0 0.404-0.038 0.799-0.112 1.182zm-48.363 43.283v31.457c0.213 3.171 0.63 18.434-10.207 26.711-17.232 13.161-28.361 33.918-28.361 57.254 0 39.737 32.261 71.998 71.998 71.998 0.163 0 0.326 0 0.489-1e-3 -7.144-7.016-8.7-18.227-8.987-21.074-4.175-2.705-11.677-8.173-18.085-16.102-6.563-8.12-11.933-18.749-11.933-31.495 0-12.077 5.027-25.737 11.246-37.726 8.936-17.229 20.111-30.952 20.111-30.952 1.187-1.458 2.968-2.305 4.848-2.305s3.661 0.847 4.848 2.305c0 0 11.175 13.723 20.111 30.952 6.219 11.989 11.246 25.649 11.246 37.726 0 12.746-5.37 23.375-11.933 31.495-6.329 7.831-13.725 13.262-17.929 16.001 0.166 1.414 0.598 4.043 1.684 6.784 0.921 2.323 2.299 4.808 4.661 6.403 3.321 2.243 7.229 2.712 10.687 2.609 5.811-0.174 11.034-2.234 11.269-2.298 23.459-11.859 39.522-36.222 39.522-64.32 0-23.336-11.129-44.093-28.361-57.254-10.84-8.279-10.42-23.546-10.208-26.704v-15.519l-46.912 7.755c-3.397 0.561-6.611-1.741-7.173-5.138-0.561-3.397 1.741-6.61 5.138-7.172l48.947-8.091v-14.327zm66.716-23.675v-7.131h-66.716v18.16zm-29.347 174.46c2.676-2.251 5.604-5.063 8.3-8.399 4.94-6.112 9.155-14.045 9.155-23.638 0-10.262-4.558-21.783-9.842-31.971-4.711-9.081-10.086-17.118-13.863-22.382-3.777 5.264-9.152 13.301-13.863 22.382-5.284 10.188-9.842 21.709-9.842 31.971 0 9.593 4.215 17.526 9.155 23.638 2.697 3.336 5.624 6.148 8.3 8.399v-47.73c0-3.45 2.801-6.25 6.25-6.25s6.25 2.8 6.25 6.25v47.73zm78.574-107.81c-2.439 2.439-6.4 2.439-8.839 0s-2.439-6.4 0-8.839l16.495-16.495c2.439-2.439 6.4-2.439 8.839 0s2.439 6.4 0 8.839zm52.212 69.735c3.45 0 6.25 2.801 6.25 6.25s-2.8 6.25-6.25 6.25h-25.166c-3.45 0-6.25-2.801-6.25-6.25s2.8-6.25 6.25-6.25zm-64.565 87.56c-2.439-2.439-2.439-6.4 0-8.839s6.4-2.439 8.839 0l20.009 20.009c2.439 2.439 2.439 6.4 0 8.839s-6.4 2.439-8.839 0zm-66.221 55.726c0 3.45-2.801 6.25-6.25 6.25s-6.25-2.8-6.25-6.25v-30.96c0-3.45 2.801-6.25 6.25-6.25s6.25 2.8 6.25 6.25zm-98.73-35.717c-2.439 2.439-6.4 2.439-8.839 0s-2.439-6.4 0-8.839l22.201-22.201c2.439-2.439 6.4-2.439 8.839 0s2.439 6.4 0 8.839zm-44.556-95.069c-3.45 0-6.25-2.801-6.25-6.25s2.8-6.25 6.25-6.25h29.645c3.449 0 6.25 2.801 6.25 6.25s-2.801 6.25-6.25 6.25zm35.717-98.73c-2.439-2.439-2.439-6.4 0-8.839s6.4-2.439 8.839 0l19.113 19.113c2.439 2.439 2.439 6.399 0 8.839-2.44 2.439-6.4 2.439-8.839 0z" fill="#840010"></path></svg>