<svg xmlns:xlink="http://www.w3.org/1999/xlink" xmlns="http://www.w3.org/2000/svg" viewBox="0 0 400 259.031" width="400"  height="259.031" ><path d="M88.554.583c-3.35 1.873-7.707 2.994-10.686 5.92-3.846 3.288-6.685 7.672-8.249 12.446-1.602 4.976-.802 10.363-1.092 15.52-.193 10.636.17 21.303-.453 31.92-3.342 1-7.402.34-11.018.604-14.571.114-29.143.158-43.714.235-4.865 1.777-9.657 4.711-11.657 9.728C-.663 79.88.36 84.094.089 87.84c-.134 50.522-.15 101.044.003 151.565.011 3.69-.383 7.298 2.045 10.192 2.367 4.015 6.116 7.438 10.773 8.387 3.42 1.994 8.153.53 12.1 1.031 29.104.018 58.211.21 87.314-.128 3.497-.907 7.422-2.48 10.408-5.061 2.748-2.178 3.31-6.678 5.47-8.741 77.926-.09 155.851 0 233.776-.258 5.188-.134 10.415.114 15.574-.497 3.971-1.313 7.997-2.759 11.226-5.555 4.933-4.008 8.503-9.714 9.516-16.013.56-11.369.21-22.775.357-34.159-.002-55.659.121-111.321-.369-166.979-.818-4.023-2.673-7.862-5.232-11.084-2.865-4.018-7.206-6.96-11.787-8.732-3.24-1.87-6.928-1.741-10.784-1.68C266.35-.092 185.773 0 88.637 0l-.083.583zm239.995 10.764c.53 16.67.275 33.367.402 50.049.16 39.42-.068 78.842.346 118.26-.069 4.135-.535 10.851 5.686 9.669 5.268-.508 3.375-6.53 3.876-10.126.466-54.683.065-109.372.553-164.055-1.619-5.907 5.252-3.557 8.792-4.127 8.757-.06 17.529-.314 26.278.093 5.232 1.103 10.045 4.47 12.068 9.53 1.095 1.363 1.314 2.948 1.144 4.643V222.15c-1.573 2.911-2.829 6.055-5.652 8.042-3.127 2.689-7.28 3.98-11.38 3.804-10.004.142-21.45.121-31.445-.338-.457-9.217-.17-19.753-.607-28.61-1.45-4.492-9.315-3.589-9.33 1.29-.468 9.04-.09 18.19-.582 27.177-67.363.625-120.265.45-193.778.528-3.607.004-6.975.657-6.942-4.637.366-58.072-1.016-82.388-.54-147.185-.164-5.991-4.533-11.073-9.745-13.608-4.035-2.16-8.767-1.237-13.163-1.503-8.206-.158-16.45.283-24.634-.304-1.177-3.317-.326-7.403-.598-11.013.02-10.869.07-21.737.106-32.606 1.316-2.89 2.574-5.811 5.046-7.94 3.497-3.46 8.542-4.582 13.322-4.186 80.36.489 159.37.137 230.777.286zM16.111 12.445c-1.85 3.124 3.449 7.758 6.414 7.643 2.933-3.16-2.92-7.203-5.727-8.132l-.3.142zm19.096-.183c-2.575 1.337-8.452 7.856-2.45 7.708 2.57-.915 9.796-8.744 2.45-7.708zM20.891 26.609c-2.207 1.783-8.17 6.242-3.827 8.485 2.767-1.334 7.874-4.664 5.722-8.213-.506-.498-1.267-.473-1.895-.272zm9.625.269c-1.547 3.549 3.654 7.857 6.902 8.086 2.787-3.336-3.02-7.335-5.92-8.52l-.544.105zm121.408 17.511c-.715.894-5.197-.6-5.216 1.968-.019 2.568 3.062 1.6 4.42 2.808 1.254 1.116 0 5.85 2.605 5.784 2.81-.07 1.852-4.501 2.894-5.855 1.041-1.355 5.189.69 5.223-2.369.035-3.06-4.148-1.52-5.166-2.33-1.017-.811.69-5.554-2.207-5.578-2.897-.024-1.838 4.678-2.553 5.572zm43.374 14.482c-9.227 6.431-14.294 14.731-16.453 24.808-1.051 6.438-.144 13.052-.971 19.51-2.717 1.78-7.939 1.433-9.113 5.794-.58 23.642-.852 50.188-.893 71.021.889 2.861 2.118 5.923 5.255 6.928 4.161 2.026 8.897 2.055 13.38 2.902 16.709 1.101 33.486.913 50.216.39 5.988-.22 12.022-.914 17.815-2.413 3.51-1.232 7.25-3.79 6.88-8.002l-.527-71.256c-1.438-4.334-6.978-3.265-9.154-5.79-.564-7.299.45-14.749-1.478-21.916-4.499-14.692-11.654-23.52-27.783-26.873-9.43-2.068-19.869.07-27.174 4.897zm34.004 13.328c5.578 6.926 6.327 6.49 6.806 31.182l-42.294.343c-.214-25.456 2.456-26.02 6.85-31.17 4.393-5.149 23.06-7.28 28.638-.355zm-116.284 5.794c2.439 1.029 4.441 3.644 3.953 6.4l.132 157.837c-.59 2.3-1.622 4.633-4.134 5.346-31.578 1.455-65.089.481-97.295.481-2.876-1.14-5.314-3.632-4.767-6.973-.327-9.562-.576-19.159.007-28.714 28.317-.308 60.887-1.763 86.395-1.164 4.553.107 8.864-4.144 5.414-7.9-3.264-3.553-8.84-2.128-13.193-2.232-26.094-.627-52.202-.02-78.303-.038-1.35-39.837-.68-83.299-.144-118.258.13-4.134 4.96-5.52 8.444-4.885 31.026-.212 62.059-.337 93.083.064zm-62.15 15.711c-3.53 2.226-6.663 4.915-10.112 7.23-3.027 2.38-6.136 4.652-9.281 6.88-2.616 2.933-8.325 4.084-8.473 8.458 1.942 3.849 6.542-.629 8.667-2.347 7.153-5.298 14.366-10.536 21.468-15.913 3.082-2.09 1.164-6.045-2.269-4.308zm15.757 4.739c-3.933 1.895-7.032 4.995-10.647 7.377-4.269 3.172-8.57 6.295-12.806 9.467-2.744 1.397-8.358 6.105-2.946 7.773 3.633-1.44 6.352-4.473 9.683-6.5 3.02-2.43 6.231-4.588 9.255-6.975a152.773 152.773 0 0 0 9.537-7.115c2.408-1.633.495-4.984-2.076-4.027zm179.751 21.57c.018 19.19.195 36.377.185 53.914-4.337 1.237-9.094 1.12-13.608 1.654-12.058.266-24.143.546-36.194-.009-4.386-.514-8.87-.483-13.18-1.454-.807-18.014-.417-37.216-.418-53.748.772-1.498 2.308-1.23 3.741-1.2h58.961l.513.843zm-32.904 15.195c-6.363.01-5.966 9.304-5.71 13.607.385 6.505-.158 15.534 6.553 15.469 7.167-.07 5.373-7.71 5.748-15.773.336-7.243-.67-13.313-6.591-13.303zm82.92 67.945c-2.407 1.798-5.271 4.04-7.433.672-4.75-2.998-7.036 4.874-2.958 7.15-.567 2.918-4.47 7.652.391 9.35 3.276.082 5.323-5.482 8.175-1.26 3.389 3.583 8.196-2.576 4.633-5.247-4.18-3.138 3.414-5.313.724-8.713-.567-1.379-2.01-2.393-3.532-1.952zm79.656-80.5c.215 7.366-8.869 12.146-15.06 8.54-5.831-2.671-7.156-11.351-2.212-15.52 5.096-5.104 15.055-2.709 16.9 4.378.246.844.372 1.723.372 2.603zM73.952 229.99c.215 7.365-8.868 12.145-15.06 8.54-5.83-2.672-7.156-11.352-2.212-15.52 5.097-5.104 15.055-2.71 16.901 4.377a9.32 9.32 0 0 1 .371 2.603z" fill="#840010"></path></svg>