<svg xmlns:xlink="http://www.w3.org/1999/xlink" clip-rule="evenodd" fill-rule="evenodd" stroke-linejoin="round" stroke-miterlimit="2" version="1.1" viewBox="0 0 208.6 261.81" xml:space="preserve" xmlns="http://www.w3.org/2000/svg" width="208.6"  height="261.81" ><g transform="matrix(1.0008 0 0 1.0008 -161.49 -330.07)" fill="#840010"><path d="m168.97 378.43h-1.361c-2.236 0-4.052-1.816-4.052-4.052s1.816-4.051 4.052-4.051h1.361v-1.361c0-2.237 1.816-4.052 4.052-4.052s4.051 1.815 4.051 4.052v1.361h1.362c2.236 0 4.051 1.815 4.051 4.051s-1.815 4.052-4.051 4.052h-1.362v1.361c0 2.236-1.815 4.052-4.051 4.052s-4.052-1.816-4.052-4.052zm10.826-27.963h-1.361c-2.237 0-4.052-1.815-4.052-4.051 0-2.237 1.815-4.052 4.052-4.052h1.361v-1.361c0-2.236 1.815-4.052 4.051-4.052 2.237 0 4.052 1.816 4.052 4.052v1.361h1.361c2.236 0 4.052 1.815 4.052 4.052 0 2.236-1.816 4.051-4.052 4.051h-1.361v1.361c0 2.236-1.815 4.052-4.052 4.052-2.236 0-4.051-1.816-4.051-4.052zm27.415-7.134h-1.361c-2.236 0-4.052-1.815-4.052-4.052 0-2.236 1.816-4.051 4.052-4.051h1.361v-1.361c0-2.237 1.816-4.052 4.052-4.052s4.051 1.815 4.051 4.052v1.361h1.361c2.237 0 4.052 1.815 4.052 4.051 0 2.237-1.815 4.052-4.052 4.052h-1.361v1.361c0 2.236-1.815 4.052-4.051 4.052s-4.052-1.816-4.052-4.052zm-27.426 88.044 0.157-1.391 12.264-32.993-3.316-2.972-0.922-5.015 4.485-7.374 19.958-6.083 6.149 3.41 8.022-5.763-3.459-9.685 1.415-6.656 1.508-1.579-2.751-6.248 6.331-9.083 20.902 1.288 4.095 1.797 11.269 10.836 14.004 1.683 4.812 9.727s-2.158 3.663-2.159 3.663l1.943 0.3 17.24-15.403 7.428-0.854 17.523 9.579 3.319-1.628 6.858 0.72 9.425 7.397 2.442 4.398 3.061 28.14-2.227 4.609 6.859 4.785 2.759 4.869 1.726 24.939 8.296 13.219 0.599 5.669-4.309 11.803-9.735 3.138-1.299-0.884-20.52 14.287-13.031 23.368 14.478 13.765 6.204 1.997 4.458 6.873-1.19 10.917-6.794 5.77-2.972-0.16-8.992 7.84 4.052 6.499-3.7 9.658-26.905 7.776-0.376 0.097-39.974 8.998-7.565-4.25-1.132-3.353-20.673-7.242-29.877 4.744-7.406-7.498 4.826-28.128 0.605-1.833 4.645-9.172-23.676-5.787-3.289-1.972-8.442-9.425-0.978-7.207 1.898-3.823-1.12-0.758-2.845-5.502 0.247-11.812 2.443-4.079-4.777-7.812-0.716-5.117c1.266-4.555 1.102-32.25 1.102-32.25l6.46-6.482c1.716-6e-3 6.758-0.687 10.86-1.285zm24.333-39.746 2.479 3.858-13.941 37.505 0.402 3.057-5.436 7.253s-6.736 1.022-12.254 1.71c-0.105 7.513-0.373 20.32-1.025 26.7l6.649 10.873-2.353 9.033-1.341 0.753-0.096 4.587 2.889 1.957 2.171 8.249-2.462 4.961 4.171 4.657 29.659 7.249 4.244 9.225-7.893 15.589-3.131 18.249 22.558-3.582 3.16 0.284 25.203 8.83 3.999 4.044s0.276 0.817 0.276 0.817l34.086-7.673 18.48-5.342-2.437-3.908 1.24-8.316 15.137-13.199 3.714-1.279-2.262-0.728-2.481-1.473-19.194-18.248-1.195-7.856 16.208-29.067 1.958-2.163 25.409-17.691 4.982-0.028 0.842-2.305-7.473-11.907-0.977-2.999-1.624-23.466-8.388-5.851-2.737-6.008 0.476-4.439 2.682-4.299-2.359-21.68-4.075-3.198-2.68 1.315-5.965-0.132-16.456-8.995-16.11 14.392-5.306 1.572-14.419-2.221-4.599-9.698 1.981-3.361-6.314-0.758-3.72-1.764-11.116-10.689-7.907-0.487 0.208 0.471-1.244 7.088-1.734 1.816 3.756 10.518-2.323 7.445-12.771 9.175-4.557 4.209-10.66-3.079-0.343-1.278zm47.719 146.21c-30.322 0-44.847-22.656-37.248-65.243 7.569-42.416 31.804-65.584 60.763-65.584 28.789 0 44.494 23.679 37.351 63.71-4.62 25.893-15.125 37.988-30.457 37.988-10.902 0-14.979-5.792-16.038-12.265-5.365 7.154-11.728 12.265-19.394 12.265-12.095 0-15.588-11.925-11.794-30.322 5.484-26.915 16.469-43.609 31.46-43.609 6.302 0 10.294 3.407 11.816 9.199l2.219-7.666h13.628l-13.554 49.23c-2.968 10.903-0.68 14.31 5.112 14.31 7.154 0 13.621-6.644 17.663-29.3 6.505-36.454-6.334-55.193-29.671-55.193-23.508 0-42.713 17.887-49.674 56.896-6.961 39.01 6 57.067 29.508 57.067 9.199 0 19.815-2.215 27.59-6.644l2.641 7.155c-8.377 4.94-21.53 8.006-31.921 8.006zm2.027-41.905c4.088 0 7.61-2.556 11.716-6.474l9.961-35.772c-1.546-3.748-4.497-6.303-8.245-6.303-6.984 0-13.456 9.539-17.523 29.47-2.681 13.116-1.36 19.079 4.091 19.079z" fill="#840010"></path></g></svg>