<svg xmlns:xlink="http://www.w3.org/1999/xlink" viewBox="0 0 513 514" fill="none" xmlns="http://www.w3.org/2000/svg" style="width: 450px;height: 448px;" width="513"  height="514" ><circle cx="251.49" cy="250.986" r="213.49" transform="rotate(11.099 251.49 250.986)" fill="#F63030"></circle><path d="M141.145 130.464L147.725 96.9217L171.113 101.51L169.822 108.094L154.541 105.096L153.192 111.975L167.277 114.738L165.982 121.339L151.897 118.575L150.544 125.471L165.825 128.468L164.533 135.052L141.145 130.464ZM184.396 104.116L188.443 115.914L188.705 115.965L196.975 106.583L206.048 108.363L192.636 123.149L199.795 141.97L190.493 140.145L186.305 128.2L186.043 128.148L177.652 137.626L168.415 135.814L182.105 121.083L175.257 102.323L184.396 104.116ZM236.412 126.94L228.223 125.334C228.279 124.471 228.204 123.669 227.998 122.925C227.793 122.182 227.458 121.515 226.996 120.926C226.533 120.336 225.944 119.841 225.229 119.44C224.527 119.03 223.718 118.735 222.801 118.555C221.174 118.236 219.692 118.359 218.357 118.925C217.032 119.493 215.905 120.468 214.976 121.85C214.058 123.235 213.39 124.998 212.97 127.138C212.533 129.365 212.483 131.294 212.821 132.925C213.172 134.548 213.851 135.854 214.858 136.846C215.879 137.828 217.186 138.476 218.78 138.789C219.676 138.964 220.511 139.009 221.288 138.923C222.075 138.84 222.79 138.634 223.433 138.307C224.089 137.97 224.659 137.521 225.143 136.958C225.641 136.387 226.04 135.711 226.34 134.931L234.52 136.587C234.086 138.044 233.368 139.422 232.365 140.722C231.372 142.024 230.137 143.148 228.659 144.094C227.183 145.029 225.481 145.671 223.553 146.018C221.636 146.368 219.526 146.317 217.222 145.865C214.187 145.269 211.598 144.07 209.458 142.266C207.33 140.454 205.824 138.129 204.941 135.291C204.058 132.453 203.977 129.195 204.699 125.515C205.423 121.825 206.741 118.834 208.653 116.545C210.564 114.255 212.852 112.68 215.516 111.819C218.179 110.958 221.001 110.82 223.982 111.405C226.013 111.803 227.835 112.456 229.449 113.362C231.065 114.257 232.422 115.374 233.52 116.712C234.621 118.039 235.427 119.564 235.94 121.286C236.452 123.008 236.61 124.892 236.412 126.94ZM236.855 149.24L243.435 115.697L251.543 117.288L246.254 144.246L260.208 146.984L258.917 153.568L236.855 149.24ZM289.986 124.83L298.077 126.417L293.833 148.052C293.342 150.553 292.32 152.614 290.765 154.237C289.213 155.849 287.273 156.954 284.945 157.551C282.618 158.138 280.047 158.155 277.23 157.603C274.38 157.044 271.989 156.053 270.057 154.631C268.127 153.198 266.753 151.443 265.936 149.366C265.121 147.279 264.959 144.985 265.449 142.484L269.694 120.849L277.801 122.439L273.695 143.37C273.468 144.528 273.516 145.609 273.841 146.614C274.176 147.621 274.752 148.471 275.569 149.164C276.385 149.857 277.399 150.322 278.611 150.56C279.823 150.798 280.933 150.749 281.94 150.414C282.958 150.08 283.812 149.511 284.503 148.705C285.194 147.9 285.653 146.918 285.88 145.761L289.986 124.83ZM319.316 141.027C319.443 139.804 319.14 138.775 318.408 137.94C317.689 137.096 316.538 136.519 314.955 136.208C313.907 136.002 313.006 135.967 312.254 136.103C311.502 136.239 310.904 136.513 310.46 136.925C310.018 137.326 309.732 137.831 309.601 138.44C309.481 138.938 309.493 139.4 309.636 139.825C309.79 140.252 310.051 140.655 310.419 141.033C310.801 141.403 311.275 141.757 311.844 142.095C312.413 142.433 313.063 142.759 313.795 143.073L316.549 144.294C318.138 144.98 319.507 145.747 320.656 146.596C321.815 147.447 322.745 148.372 323.445 149.371C324.156 150.372 324.629 151.457 324.865 152.626C325.1 153.795 325.092 155.052 324.839 156.397C324.413 158.513 323.521 160.226 322.164 161.536C320.807 162.846 319.056 163.71 316.91 164.128C314.775 164.549 312.31 164.485 309.515 163.936C306.709 163.386 304.346 162.486 302.425 161.236C300.505 159.986 299.134 158.39 298.313 156.449C297.492 154.508 297.322 152.224 297.803 149.597L305.566 151.12C305.42 152.213 305.532 153.171 305.904 153.992C306.276 154.814 306.873 155.498 307.696 156.045C308.529 156.594 309.541 156.985 310.731 157.218C311.823 157.432 312.78 157.467 313.602 157.322C314.435 157.18 315.111 156.887 315.628 156.444C316.146 156.001 316.477 155.443 316.62 154.768C316.734 154.132 316.643 153.553 316.349 153.031C316.057 152.497 315.544 151.988 314.811 151.504C314.092 151.012 313.148 150.504 311.981 149.98L308.637 148.473C305.863 147.237 303.786 145.713 302.407 143.901C301.03 142.077 300.597 139.894 301.107 137.352C301.503 135.276 302.416 133.567 303.847 132.226C305.278 130.885 307.073 129.973 309.231 129.489C311.39 129.006 313.741 129.013 316.285 129.513C318.884 130.022 321.052 130.907 322.789 132.166C324.54 133.417 325.789 134.937 326.538 136.728C327.286 138.519 327.467 140.46 327.079 142.549L319.316 141.027ZM341.712 134.977L335.132 168.519L327.025 166.929L333.605 133.386L341.712 134.977ZM354.418 137.469L357.1 163.508L357.378 163.563L369.699 140.467L378.772 142.247L360.875 173.569L350.082 171.452L345.344 135.689L354.418 137.469ZM375.803 176.498L382.384 142.956L405.772 147.544L404.48 154.128L389.199 151.13L387.85 158.009L401.935 160.772L400.64 167.372L386.555 164.609L385.202 171.504L400.483 174.502L399.191 181.086L375.803 176.498ZM170.687 184.155L158.288 181.723L164.868 148.181L177.25 150.61C180.668 151.28 183.479 152.529 185.683 154.356C187.9 156.174 189.434 158.471 190.284 161.246C191.137 164.009 191.221 167.133 190.538 170.616C189.853 174.11 188.592 176.981 186.757 179.229C184.932 181.479 182.648 183.032 179.906 183.889C177.166 184.735 174.093 184.824 170.687 184.155ZM167.751 176.402L171.731 177.183C173.609 177.551 175.26 177.546 176.684 177.168C178.12 176.78 179.313 175.932 180.262 174.621C181.224 173.302 181.941 171.435 182.415 169.022C182.888 166.609 182.926 164.621 182.53 163.058C182.136 161.484 181.34 160.251 180.143 159.358C178.959 158.457 177.407 157.818 175.485 157.441L171.62 156.683L167.751 176.402ZM226.927 177.772C226.203 181.462 224.88 184.451 222.957 186.739C221.034 189.026 218.73 190.598 216.045 191.455C213.371 192.313 210.532 192.448 207.529 191.859C204.516 191.268 201.934 190.064 199.785 188.248C197.635 186.431 196.101 184.106 195.183 181.273C194.278 178.431 194.186 175.17 194.908 171.49C195.632 167.8 196.95 164.81 198.862 162.52C200.785 160.233 203.083 158.659 205.757 157.801C208.432 156.942 211.276 156.808 214.289 157.399C217.292 157.988 219.869 159.186 222.021 160.991C224.184 162.799 225.723 165.125 226.639 167.969C227.555 170.814 227.651 174.081 226.927 177.772ZM218.64 176.146C219.068 173.962 219.119 172.056 218.792 170.427C218.476 168.8 217.816 167.486 216.811 166.483C215.816 165.483 214.511 164.825 212.895 164.508C211.29 164.193 209.833 164.309 208.523 164.858C207.214 165.406 206.1 166.372 205.182 167.757C204.275 169.144 203.607 170.929 203.179 173.113C202.75 175.296 202.694 177.202 203.01 178.828C203.337 180.457 204.003 181.773 205.008 182.775C206.014 183.778 207.319 184.436 208.924 184.751C210.54 185.068 211.997 184.951 213.296 184.401C214.605 183.853 215.713 182.885 216.62 181.498C217.538 180.114 218.211 178.33 218.64 176.146ZM234.951 161.929L244.99 163.898L249.433 186.337L249.826 186.414L262.417 167.317L272.457 169.287L265.876 202.829L257.982 201.28L262.024 180.677L261.746 180.622L249.687 199.432L244.643 198.442L240.608 176.356L240.329 176.302L236.265 197.02L228.37 195.471L234.951 161.929ZM278.189 205.244L269.476 203.535L287.373 172.213L298.166 174.33L302.903 210.093L294.19 208.383L291.235 181.747L290.973 181.695L278.189 205.244ZM279.616 191.815L297.828 195.388L296.62 201.546L278.407 197.974L279.616 191.815ZM321.202 178.849L314.622 212.392L306.515 210.801L313.095 177.259L321.202 178.849ZM354.839 185.448L348.259 218.99L341.38 217.641L331.829 195.663L331.616 195.621L327.819 214.98L319.711 213.39L326.292 179.848L333.269 181.216L342.678 203.132L342.957 203.187L346.748 183.861L354.839 185.448ZM369.354 188.295L364.035 211.421L357.303 210.1L361.116 186.679L369.354 188.295ZM358.553 221.503C357.385 221.274 356.462 220.662 355.784 219.667C355.117 218.675 354.899 217.589 355.13 216.409C355.357 215.252 355.966 214.345 356.957 213.689C357.96 213.024 359.046 212.806 360.214 213.036C361.339 213.256 362.246 213.865 362.935 214.862C363.637 215.85 363.874 216.923 363.647 218.08C363.493 218.866 363.15 219.542 362.62 220.107C362.101 220.674 361.481 221.085 360.762 221.341C360.054 221.599 359.318 221.653 358.553 221.503Z" fill="#410002"></path><path d="M255.405 316.148C255.371 315.654 255.266 315.205 255.09 314.8C254.916 314.388 254.676 314.02 254.369 313.698C254.061 313.375 253.69 313.105 253.254 312.888C252.819 312.664 252.327 312.498 251.776 312.39C250.669 312.173 249.657 312.252 248.742 312.629C247.834 313.006 247.06 313.665 246.42 314.605C245.782 315.537 245.32 316.732 245.034 318.189C244.747 319.654 244.713 320.944 244.935 322.061C245.156 323.177 245.614 324.085 246.311 324.786C247.007 325.486 247.928 325.948 249.073 326.173C250.084 326.371 250.971 326.375 251.734 326.185C252.505 325.989 253.133 325.622 253.617 325.084C254.101 324.546 254.424 323.864 254.586 323.039L255.588 323.363L250.034 322.274L250.824 318.248L260.67 320.18L260.078 323.202C259.677 325.246 258.898 326.911 257.743 328.198C256.594 329.486 255.186 330.371 253.516 330.854C251.854 331.339 250.041 331.389 248.079 331.004C245.9 330.576 244.079 329.729 242.614 328.461C241.148 327.193 240.126 325.595 239.547 323.667C238.97 321.732 238.917 319.56 239.39 317.151C239.757 315.278 240.362 313.671 241.204 312.331C242.047 310.983 243.066 309.902 244.261 309.086C245.462 308.272 246.772 307.734 248.19 307.471C249.616 307.211 251.09 307.23 252.614 307.529C253.938 307.788 255.131 308.219 256.194 308.821C257.264 309.425 258.17 310.159 258.912 311.022C259.661 311.887 260.217 312.849 260.581 313.909C260.944 314.968 261.081 316.08 260.992 317.243L255.405 316.148ZM261.474 333.307L264.834 316.179L270.131 317.218L269.518 320.341L269.697 320.376C270.23 319.307 270.904 318.567 271.719 318.155C272.534 317.736 273.41 317.618 274.347 317.802C274.6 317.852 274.856 317.921 275.117 318.011C275.378 318.093 275.618 318.19 275.835 318.303L274.906 323.042C274.663 322.902 274.335 322.764 273.921 322.629C273.515 322.495 273.149 322.396 272.822 322.332C272.175 322.205 271.563 322.235 270.985 322.423C270.417 322.605 269.934 322.923 269.536 323.378C269.147 323.827 268.885 324.393 268.751 325.077L266.927 334.377L261.474 333.307ZM278.818 337.011C277.725 336.796 276.791 336.424 276.015 335.893C275.248 335.357 274.692 334.669 274.347 333.829C274.011 332.984 273.954 331.996 274.176 330.866C274.362 329.914 274.687 329.144 275.15 328.556C275.613 327.967 276.178 327.526 276.845 327.232C277.513 326.939 278.25 326.763 279.057 326.705C279.865 326.639 280.711 326.655 281.595 326.751C282.586 326.853 283.389 326.914 284.003 326.934C284.618 326.947 285.077 326.886 285.382 326.753C285.695 326.614 285.885 326.369 285.954 326.02L285.965 325.964C286.077 325.392 285.967 324.911 285.634 324.521C285.301 324.132 284.8 323.871 284.131 323.74C283.41 323.598 282.8 323.641 282.3 323.867C281.8 324.093 281.437 324.47 281.21 324.996L276.216 323.831C276.569 322.82 277.134 321.966 277.911 321.269C278.697 320.566 279.679 320.087 280.856 319.832C282.043 319.57 283.401 319.59 284.933 319.89C286.026 320.105 287.007 320.432 287.878 320.874C288.75 321.307 289.48 321.836 290.068 322.461C290.657 323.079 291.068 323.777 291.302 324.556C291.542 325.337 291.573 326.18 291.396 327.087L289.112 338.729L283.982 337.723L284.45 335.336L284.317 335.31C283.898 335.83 283.411 336.244 282.857 336.552C282.31 336.862 281.697 337.054 281.018 337.13C280.347 337.206 279.614 337.167 278.818 337.011ZM281.202 333.773C281.789 333.888 282.34 333.873 282.855 333.727C283.378 333.582 283.821 333.329 284.185 332.968C284.551 332.6 284.788 332.137 284.898 331.58L285.217 329.952C285.045 330.003 284.841 330.04 284.605 330.063C284.376 330.088 284.126 330.104 283.854 330.113C283.582 330.121 283.304 330.121 283.02 330.111C282.737 330.102 282.465 330.091 282.205 330.079C281.676 330.06 281.212 330.1 280.814 330.2C280.424 330.3 280.105 330.47 279.858 330.707C279.62 330.938 279.464 331.239 279.391 331.611C279.28 332.176 279.396 332.647 279.739 333.023C280.09 333.4 280.578 333.65 281.202 333.773ZM292.446 339.383L296.926 316.546L302.379 317.615L300.684 326.257L300.795 326.279C301.12 325.803 301.535 325.363 302.038 324.96C302.549 324.558 303.154 324.268 303.854 324.089C304.562 323.903 305.365 323.899 306.265 324.075C307.454 324.309 308.504 324.839 309.415 325.666C310.334 326.495 310.985 327.622 311.369 329.048C311.753 330.475 311.747 332.195 311.352 334.21C310.972 336.15 310.344 337.714 309.471 338.901C308.604 340.09 307.587 340.91 306.418 341.36C305.256 341.811 304.043 341.913 302.779 341.665C301.917 341.496 301.198 341.208 300.621 340.802C300.045 340.395 299.586 339.919 299.245 339.374C298.912 338.83 298.682 338.271 298.555 337.698L298.388 337.665L297.843 340.442L292.446 339.383ZM299.467 331.867C299.286 332.789 299.252 333.616 299.363 334.348C299.481 335.081 299.738 335.684 300.132 336.155C300.534 336.62 301.067 336.917 301.728 337.047C302.397 337.178 303.003 337.104 303.544 336.824C304.087 336.537 304.544 336.074 304.916 335.437C305.296 334.801 305.576 334.023 305.757 333.101C305.937 332.179 305.971 331.356 305.859 330.631C305.754 329.908 305.503 329.314 305.108 328.851C304.72 328.389 304.188 328.091 303.511 327.959C302.842 327.827 302.238 327.898 301.698 328.17C301.158 328.443 300.695 328.892 300.31 329.519C299.932 330.148 299.651 330.93 299.467 331.867ZM233.123 368.045C232.469 367.916 231.862 367.743 231.302 367.525C230.741 367.315 230.269 367.087 229.885 366.842L231.866 363.12C232.366 363.403 232.829 363.602 233.254 363.716C233.687 363.832 234.076 363.835 234.422 363.725C234.774 363.624 235.076 363.379 235.331 362.989L235.643 362.517L233.037 343.57L238.747 344.69L239.505 357.531L239.683 357.566L245.281 345.972L251.024 347.099L240.886 364.6C240.39 365.475 239.786 366.214 239.073 366.815C238.367 367.425 237.524 367.846 236.544 368.079C235.572 368.313 234.431 368.301 233.123 368.045ZM257.135 366.421C255.336 366.068 253.861 365.397 252.712 364.407C251.572 363.411 250.782 362.183 250.343 360.723C249.913 359.256 249.87 357.646 250.214 355.892C250.559 354.13 251.208 352.655 252.159 351.467C253.119 350.274 254.314 349.435 255.744 348.951C257.184 348.462 258.803 348.393 260.602 348.746C262.401 349.099 263.871 349.774 265.011 350.769C266.16 351.759 266.95 352.987 267.38 354.453C267.819 355.914 267.866 357.525 267.52 359.287C267.176 361.041 266.524 362.515 265.564 363.709C264.613 364.896 263.418 365.735 261.979 366.225C260.548 366.708 258.934 366.774 257.135 366.421ZM257.975 362.313C258.629 362.441 259.223 362.349 259.755 362.036C260.287 361.724 260.742 361.234 261.12 360.567C261.505 359.902 261.79 359.1 261.974 358.164C262.16 357.212 262.201 356.356 262.096 355.594C261.998 354.833 261.761 354.208 261.387 353.718C261.012 353.227 260.498 352.918 259.843 352.79C259.167 352.657 258.555 352.745 258.008 353.055C257.468 353.366 257.006 353.854 256.621 354.52C256.243 355.187 255.96 355.996 255.774 356.948C255.59 357.884 255.547 358.733 255.645 359.493C255.75 360.255 255.994 360.882 256.376 361.374C256.766 361.867 257.299 362.18 257.975 362.313ZM281.146 363.118L283.055 353.383L288.497 354.45L285.137 371.578L279.941 370.559L280.566 367.37L280.388 367.335C279.803 368.309 278.993 369.014 277.958 369.452C276.931 369.884 275.775 369.973 274.489 369.721C273.321 369.492 272.348 369.023 271.568 368.314C270.789 367.606 270.248 366.724 269.945 365.668C269.644 364.606 269.617 363.427 269.863 362.132L272.005 351.215L277.458 352.285L275.526 362.131C275.351 363.062 275.453 363.842 275.831 364.472C276.209 365.102 276.815 365.499 277.647 365.662C278.19 365.769 278.7 365.745 279.178 365.592C279.665 365.433 280.08 365.147 280.423 364.736C280.775 364.319 281.016 363.779 281.146 363.118ZM288.608 372.259L291.968 355.131L297.265 356.17L296.652 359.293L296.831 359.328C297.364 358.259 298.039 357.519 298.853 357.107C299.668 356.688 300.544 356.57 301.481 356.754C301.734 356.804 301.99 356.873 302.251 356.963C302.513 357.045 302.752 357.142 302.969 357.255L302.04 361.994C301.797 361.854 301.469 361.716 301.055 361.581C300.649 361.447 300.283 361.348 299.956 361.284C299.309 361.157 298.697 361.187 298.12 361.375C297.551 361.557 297.068 361.875 296.67 362.33C296.281 362.779 296.019 363.345 295.885 364.029L294.061 373.329L288.608 372.259ZM319.112 365.887L314.079 365.039C314.097 364.672 314.018 364.328 313.842 364.008C313.666 363.68 313.408 363.402 313.067 363.173C312.735 362.938 312.327 362.773 311.844 362.678C311.212 362.554 310.649 362.575 310.153 362.74C309.665 362.907 309.382 363.206 309.305 363.639C309.232 363.972 309.309 364.288 309.536 364.588C309.77 364.888 310.233 365.184 310.925 365.474L314.103 366.746C315.749 367.408 316.914 368.2 317.598 369.122C318.289 370.045 318.516 371.132 318.278 372.382C318.04 373.555 317.491 374.509 316.629 375.243C315.774 375.979 314.705 376.472 313.42 376.721C312.138 376.964 310.73 376.935 309.199 376.634C306.753 376.155 304.922 375.274 303.707 373.994C302.5 372.707 301.963 371.197 302.095 369.462L307.507 370.385C307.503 371.033 307.718 371.569 308.152 371.994C308.586 372.419 309.19 372.707 309.963 372.859C310.662 372.996 311.256 372.977 311.746 372.803C312.235 372.629 312.526 372.327 312.618 371.897C312.686 371.509 312.576 371.167 312.287 370.871C311.999 370.568 311.511 370.279 310.824 370.005L307.947 368.85C306.291 368.201 305.125 367.374 304.45 366.369C303.776 365.357 303.571 364.197 303.835 362.89C304.053 361.744 304.549 360.826 305.325 360.137C306.103 359.44 307.102 358.988 308.324 358.78C309.546 358.572 310.93 358.619 312.477 358.923C314.796 359.378 316.529 360.223 317.676 361.46C318.825 362.689 319.304 364.165 319.112 365.887ZM232.065 384.652L230.149 394.42L224.696 393.35L228.056 376.222L233.241 377.239L232.624 380.384L232.814 380.421C233.399 379.447 234.207 378.753 235.238 378.338C236.27 377.915 237.418 377.827 238.682 378.075C239.887 378.311 240.878 378.788 241.656 379.504C242.443 380.214 242.987 381.101 243.288 382.163C243.598 383.22 243.623 384.391 243.364 385.675L241.222 396.592L235.769 395.523L237.701 385.676C237.895 384.726 237.799 383.935 237.413 383.304C237.035 382.674 236.415 382.274 235.553 382.105C234.98 381.993 234.45 382.02 233.962 382.187C233.482 382.347 233.078 382.635 232.75 383.049C232.429 383.465 232.201 383.999 232.065 384.652ZM252.53 399.146C250.731 398.794 249.257 398.122 248.108 397.132C246.967 396.137 246.178 394.909 245.738 393.448C245.308 391.982 245.265 390.372 245.609 388.617C245.955 386.855 246.603 385.381 247.554 384.193C248.514 382.999 249.709 382.161 251.139 381.677C252.579 381.187 254.198 381.119 255.997 381.472C257.796 381.825 259.266 382.499 260.406 383.495C261.555 384.485 262.345 385.713 262.775 387.179C263.214 388.639 263.261 390.25 262.916 392.012C262.571 393.767 261.919 395.241 260.96 396.434C260.009 397.622 258.813 398.461 257.374 398.95C255.944 399.434 254.329 399.499 252.53 399.146ZM253.37 395.038C254.025 395.167 254.618 395.075 255.15 394.762C255.682 394.45 256.137 393.96 256.515 393.293C256.901 392.627 257.185 391.826 257.369 390.889C257.556 389.938 257.596 389.081 257.491 388.319C257.393 387.559 257.157 386.934 256.782 386.443C256.407 385.953 255.893 385.644 255.239 385.515C254.562 385.383 253.95 385.471 253.403 385.78C252.864 386.092 252.401 386.58 252.016 387.245C251.638 387.912 251.356 388.722 251.169 389.673C250.985 390.61 250.942 391.458 251.04 392.219C251.145 392.981 251.389 393.607 251.771 394.099C252.161 394.593 252.694 394.906 253.37 395.038ZM266.872 401.624L265.772 383.621L271.247 384.695L271.403 396.121L271.548 396.149L276.176 385.662L281.517 386.71L281.922 398.103L282.067 398.132L286.446 387.677L291.921 388.751L284.09 405.002L278.258 403.858L277.539 393.352L277.35 393.315L272.715 402.771L266.872 401.624ZM301.642 384.729L298.02 400.474L293.437 399.575L296.033 383.628L301.642 384.729ZM294.288 407.338C293.492 407.182 292.864 406.766 292.402 406.088C291.948 405.412 291.8 404.673 291.957 403.87C292.112 403.082 292.526 402.465 293.201 402.018C293.884 401.565 294.623 401.417 295.419 401.573C296.185 401.723 296.802 402.138 297.271 402.817C297.749 403.489 297.911 404.22 297.756 405.008C297.651 405.543 297.418 406.003 297.057 406.388C296.703 406.774 296.281 407.054 295.792 407.228C295.31 407.404 294.808 407.44 294.288 407.338Z" fill="#410002"></path><path d="M79.0368 206.198L84.0025 207.172L85.0313 229.266L85.3491 229.329L101.588 210.622L106.553 211.596L96.7311 237.832L92.838 237.069L99.9585 218.086L99.7069 218.036L84.6093 235.413L81.365 234.777L80.4955 214.254L80.2439 214.204L73.1075 233.198L69.2144 232.434L79.0368 206.198ZM102.124 246.811C101.524 246.693 100.999 246.54 100.55 246.351C100.1 246.171 99.77 246.006 99.5613 245.855L101.707 242.906C102.367 243.237 102.974 243.435 103.53 243.498C104.095 243.563 104.661 243.435 105.228 243.116C105.795 242.796 106.417 242.24 107.095 241.447L108.099 240.255L108.14 218.948L112.218 219.748L111.63 236.066L111.842 236.107L122.733 221.811L127.142 222.676L110.429 243.311C109.64 244.293 108.809 245.074 107.934 245.654C107.066 246.245 106.146 246.638 105.173 246.832C104.208 247.027 103.192 247.021 102.124 246.811ZM155.512 221.2L145.69 247.437L141.929 246.699L135.356 224.755L135.118 224.708L127.893 243.945L123.801 243.143L133.623 216.906L137.41 217.649L143.991 239.623L144.243 239.672L151.46 220.406L155.512 221.2ZM157.119 250.146C155.83 249.893 154.751 249.434 153.882 248.769C153.015 248.095 152.442 247.253 152.163 246.245C151.884 245.237 151.986 244.088 152.468 242.798C152.888 241.689 153.452 240.819 154.163 240.188C154.882 239.559 155.695 239.109 156.601 238.837C157.508 238.557 158.465 238.401 159.47 238.369C160.476 238.337 161.479 238.364 162.48 238.45C163.743 238.552 164.769 238.629 165.556 238.682C166.352 238.738 166.964 238.702 167.392 238.575C167.822 238.439 168.123 238.141 168.296 237.68L168.315 237.587C168.725 236.476 168.732 235.551 168.336 234.814C167.951 234.069 167.122 233.572 165.851 233.322C164.527 233.063 163.357 233.136 162.342 233.542C161.337 233.949 160.551 234.474 159.985 235.114L156.602 233.571C157.48 232.459 158.484 231.62 159.613 231.053C160.752 230.479 161.943 230.135 163.184 230.021C164.428 229.899 165.663 229.958 166.89 230.198C167.702 230.358 168.526 230.62 169.362 230.986C170.2 231.343 170.927 231.843 171.543 232.486C172.168 233.131 172.566 233.957 172.735 234.962C172.906 235.958 172.723 237.173 172.185 238.608L167.297 251.676L163.431 250.917L164.453 248.23L164.294 248.199C163.858 248.645 163.291 249.056 162.594 249.433C161.906 249.811 161.101 250.08 160.181 250.238C159.261 250.397 158.24 250.366 157.119 250.146ZM159.093 247.233C160.196 247.45 161.214 247.425 162.147 247.158C163.088 246.894 163.892 246.465 164.558 245.871C165.226 245.269 165.705 244.579 165.995 243.802L166.947 241.266C166.751 241.374 166.43 241.444 165.984 241.476C165.547 241.509 165.059 241.519 164.521 241.505C163.983 241.491 163.456 241.465 162.941 241.429C162.434 241.393 162.012 241.37 161.675 241.359C160.879 241.304 160.119 241.324 159.394 241.42C158.678 241.518 158.053 241.739 157.518 242.084C156.984 242.419 156.591 242.929 156.338 243.612C155.987 244.561 156.075 245.349 156.603 245.975C157.142 246.594 157.972 247.013 159.093 247.233ZM172.584 252.713L179.964 233.038L183.765 233.784L182.559 236.985L182.811 237.034C183.648 236.034 184.659 235.325 185.841 234.906C187.034 234.48 188.306 234.399 189.656 234.664C190.998 234.928 192.017 235.458 192.713 236.254C193.419 237.053 193.79 238.033 193.828 239.196L194.04 239.237C194.908 238.271 195.992 237.58 197.293 237.166C198.593 236.752 199.976 236.689 201.442 236.976C203.269 237.335 204.558 238.193 205.31 239.55C206.071 240.901 206.03 242.699 205.187 244.944L200.233 258.137L196.261 257.357L201.088 244.525C201.581 243.183 201.565 242.144 201.04 241.408C200.516 240.664 199.734 240.189 198.692 239.985C197.403 239.732 196.257 239.92 195.254 240.548C194.252 241.168 193.533 242.076 193.097 243.274L188.368 255.809L184.436 255.038L189.352 241.962C189.747 240.884 189.718 239.957 189.265 239.181C188.823 238.397 188.05 237.897 186.947 237.681C186.196 237.534 185.429 237.589 184.645 237.848C183.87 238.108 183.166 238.539 182.535 239.139C181.904 239.74 181.424 240.48 181.096 241.36L176.543 253.489L172.584 252.713ZM214.159 261.295C212.164 260.904 210.597 260.152 209.459 259.039C208.331 257.919 207.66 256.527 207.445 254.862C207.233 253.189 207.51 251.332 208.277 249.291C209.03 247.275 210.083 245.575 211.437 244.19C212.79 242.806 214.331 241.82 216.06 241.233C217.797 240.648 219.611 240.541 221.5 240.911C222.647 241.136 223.692 241.538 224.632 242.117C225.582 242.698 226.335 243.464 226.89 244.417C227.446 245.369 227.733 246.521 227.753 247.872C227.782 249.217 227.466 250.782 226.804 252.568L226.303 253.927L210.122 250.753L211.167 247.878L223.456 250.288C223.845 249.283 223.978 248.351 223.853 247.492C223.73 246.625 223.37 245.889 222.773 245.286C222.185 244.685 221.375 244.283 220.342 244.081C219.282 243.873 218.239 243.957 217.212 244.333C216.185 244.709 215.277 245.269 214.489 246.013C213.712 246.75 213.155 247.557 212.818 248.435L211.822 251.059C211.301 252.497 211.107 253.697 211.24 254.658C211.381 255.621 211.809 256.383 212.524 256.945C213.239 257.507 214.192 257.905 215.384 258.138C216.152 258.289 216.883 258.323 217.578 258.239C218.283 258.148 218.934 257.941 219.529 257.618C220.126 257.286 220.659 256.831 221.13 256.254L224.626 257.641C223.924 258.65 223.037 259.479 221.965 260.131C220.894 260.773 219.696 261.203 218.37 261.42C217.055 261.629 215.651 261.588 214.159 261.295ZM241.16 273.825C238.424 273.288 236.132 272.449 234.284 271.307C232.443 270.176 231.06 268.768 230.134 267.083C229.207 265.407 228.746 263.483 228.75 261.311C228.763 259.141 229.249 256.756 230.208 254.157C231.154 251.629 232.382 249.431 233.895 247.565C235.407 245.698 237.154 244.198 239.136 243.065C241.121 241.923 243.297 241.181 245.665 240.839C248.033 240.497 250.542 240.585 253.19 241.105C255.724 241.602 257.813 242.424 259.458 243.572C261.103 244.72 262.332 246.093 263.146 247.692C263.96 249.291 264.381 251.024 264.409 252.891C264.437 254.757 264.092 256.656 263.374 258.587C262.871 259.937 262.29 261.239 261.632 262.494C260.975 263.741 260.214 264.838 259.349 265.787C258.486 266.727 257.497 267.422 256.382 267.873C255.269 268.314 253.999 268.409 252.572 268.157C251.808 268.034 251.106 267.805 250.466 267.468C249.835 267.134 249.352 266.7 249.016 266.166C248.691 265.626 248.603 265.004 248.75 264.299L248.591 264.268C248.206 264.733 247.683 265.135 247.021 265.472C246.36 265.801 245.598 266.018 244.734 266.124C243.88 266.222 242.959 266.152 241.97 265.912C240.875 265.651 239.967 265.212 239.245 264.593C238.523 263.975 237.99 263.21 237.646 262.299C237.311 261.39 237.177 260.365 237.246 259.223C237.322 258.083 237.605 256.855 238.092 255.539C238.569 254.276 239.183 253.181 239.932 252.256C240.684 251.321 241.526 250.556 242.459 249.96C243.394 249.355 244.364 248.922 245.368 248.66C246.382 248.401 247.39 248.31 248.392 248.387C249.349 248.465 250.187 248.657 250.906 248.963C251.634 249.271 252.195 249.633 252.59 250.05C252.994 250.468 253.189 250.877 253.174 251.278L253.347 251.312L253.889 249.878L257.147 250.517L252.684 262.403C252.45 263.081 252.426 263.691 252.613 264.232C252.81 264.775 253.247 265.113 253.927 265.246C254.731 265.404 255.464 265.24 256.127 264.756C256.799 264.274 257.45 263.457 258.079 262.306C258.717 261.157 259.383 259.656 260.077 257.803C260.569 256.506 260.848 255.249 260.912 254.034C260.978 252.809 260.841 251.663 260.5 250.597C260.161 249.522 259.614 248.549 258.859 247.676C258.104 246.804 257.151 246.058 255.998 245.437C254.845 244.817 253.492 244.355 251.938 244.05C249.829 243.636 247.831 243.583 245.946 243.892C244.072 244.193 242.353 244.823 240.79 245.782C239.227 246.74 237.85 247.987 236.659 249.523C235.471 251.05 234.497 252.835 233.739 254.877C232.946 257.004 232.532 258.949 232.498 260.712C232.474 262.468 232.834 264.023 233.576 265.379C234.319 266.735 235.43 267.87 236.91 268.783C238.397 269.708 240.253 270.388 242.478 270.825C243.467 271.018 244.464 271.122 245.47 271.136C246.482 271.161 247.399 271.139 248.219 271.071C249.046 271.013 249.667 270.956 250.082 270.9L249.989 273.893C249.339 274.031 248.517 274.132 247.524 274.193C246.531 274.255 245.476 274.259 244.359 274.205C243.251 274.153 242.185 274.026 241.16 273.825ZM243.931 262.927C245.079 263.153 246.081 263.111 246.939 262.803C247.806 262.496 248.559 261.933 249.196 261.114C249.844 260.287 250.418 259.208 250.918 257.876C251.401 256.577 251.62 255.511 251.573 254.677C251.527 253.833 251.22 253.177 250.652 252.708C250.095 252.232 249.273 251.888 248.187 251.675C247.19 251.479 246.255 251.548 245.383 251.881C244.511 252.214 243.737 252.745 243.062 253.475C242.388 254.204 241.867 255.06 241.5 256.042C241.123 257.078 240.912 258.081 240.868 259.054C240.826 260.017 241.039 260.847 241.507 261.544C241.975 262.241 242.783 262.702 243.931 262.927ZM271.102 247.534L272.375 244.126L293.364 248.243L292.09 251.651L283.629 249.991L275.08 272.82L271.001 272.02L279.55 249.191L271.102 247.534ZM301.037 269.152L305.359 257.637L309.331 258.417L301.951 278.091L298.058 277.327L299.345 273.922L299.133 273.88C298.284 274.841 297.206 275.57 295.899 276.065C294.602 276.553 293.19 276.647 291.663 276.348C290.357 276.092 289.305 275.587 288.508 274.835C287.722 274.076 287.251 273.09 287.095 271.876C286.939 270.663 287.162 269.245 287.764 267.621L292.474 255.11L296.433 255.886L291.91 267.939C291.417 269.282 291.408 270.426 291.883 271.372C292.358 272.317 293.204 272.91 294.422 273.149C295.164 273.294 295.968 273.259 296.835 273.045C297.703 272.83 298.514 272.407 299.271 271.776C300.036 271.147 300.625 270.272 301.037 269.152ZM324.145 261.323L323.006 264.399L311.896 262.22L313.036 259.143L324.145 261.323ZM317.765 255.011L321.725 255.787L314.746 274.399C314.471 275.143 314.38 275.725 314.472 276.147C314.565 276.559 314.77 276.87 315.086 277.079C315.414 277.28 315.793 277.424 316.226 277.509C316.544 277.571 316.826 277.603 317.073 277.606C317.32 277.609 317.517 277.611 317.663 277.612L317.234 280.924C316.951 280.96 316.577 280.979 316.109 280.979C315.649 280.989 315.1 280.936 314.462 280.821C313.417 280.634 312.513 280.264 311.751 279.711C310.99 279.149 310.481 278.426 310.224 277.541C309.968 276.648 310.067 275.608 310.519 274.423L317.765 255.011ZM326.923 283.457C325.634 283.205 324.555 282.745 323.687 282.08C322.82 281.406 322.247 280.564 321.968 279.556C321.689 278.548 321.79 277.399 322.273 276.109C322.692 275 323.257 274.13 323.967 273.499C324.687 272.87 325.499 272.42 326.405 272.148C327.313 271.868 328.269 271.712 329.275 271.68C330.28 271.648 331.283 271.675 332.284 271.762C333.548 271.863 334.573 271.94 335.36 271.994C336.156 272.049 336.768 272.013 337.196 271.886C337.626 271.751 337.928 271.452 338.101 270.991L338.119 270.898C338.53 269.787 338.537 268.863 338.141 268.125C337.755 267.38 336.927 266.883 335.655 266.633C334.331 266.374 333.162 266.447 332.147 266.853C331.141 267.261 330.355 267.785 329.789 268.426L326.407 266.882C327.285 265.771 328.288 264.932 329.417 264.365C330.557 263.791 331.747 263.447 332.989 263.333C334.232 263.21 335.467 263.269 336.695 263.509C337.507 263.669 338.331 263.931 339.167 264.297C340.004 264.654 340.731 265.154 341.347 265.797C341.973 266.443 342.37 267.268 342.54 268.273C342.711 269.269 342.527 270.484 341.989 271.919L337.102 284.987L333.235 284.228L334.257 281.541L334.098 281.51C333.663 281.956 333.096 282.367 332.399 282.744C331.71 283.122 330.906 283.391 329.985 283.549C329.065 283.708 328.044 283.677 326.923 283.457ZM328.897 280.544C330.001 280.761 331.019 280.736 331.951 280.47C332.892 280.205 333.696 279.776 334.362 279.183C335.031 278.58 335.51 277.89 335.8 277.113L336.751 274.577C336.556 274.685 336.235 274.755 335.789 274.787C335.351 274.82 334.863 274.83 334.325 274.816C333.787 274.802 333.26 274.777 332.745 274.74C332.238 274.705 331.817 274.681 331.48 274.67C330.684 274.615 329.923 274.635 329.199 274.732C328.483 274.83 327.857 275.051 327.322 275.395C326.789 275.73 326.395 276.24 326.142 276.924C325.791 277.872 325.879 278.66 326.408 279.286C326.946 279.905 327.776 280.324 328.897 280.544ZM345.266 286.85C344.524 286.704 343.956 286.327 343.562 285.718C343.177 285.111 343.062 284.437 343.216 283.697C343.369 282.966 343.763 282.406 344.398 282.018C345.044 281.622 345.729 281.495 346.453 281.637C347.177 281.779 347.745 282.156 348.156 282.769C348.568 283.381 348.687 284.037 348.513 284.736C348.39 285.225 348.16 285.648 347.824 286.004C347.499 286.353 347.11 286.606 346.657 286.765C346.206 286.915 345.742 286.943 345.266 286.85ZM361.37 290.174C359.392 289.786 357.86 289.022 356.772 287.883C355.687 286.735 355.052 285.322 354.867 283.645C354.683 281.968 354.958 280.143 355.694 278.169C356.435 276.169 357.476 274.48 358.819 273.103C360.173 271.718 361.718 270.733 363.456 270.148C365.202 269.565 367.033 269.461 368.949 269.837C370.493 270.14 371.766 270.687 372.765 271.48C373.767 272.263 374.454 273.223 374.827 274.359C375.2 275.496 375.213 276.74 374.865 278.093L371.011 277.337C371.137 276.372 370.944 275.481 370.435 274.666C369.926 273.851 369.044 273.321 367.791 273.075C366.687 272.859 365.615 272.951 364.574 273.352C363.534 273.744 362.592 274.411 361.747 275.355C360.903 276.289 360.225 277.458 359.711 278.861C359.173 280.296 358.935 281.578 358.998 282.709C359.06 283.84 359.399 284.773 360.016 285.508C360.633 286.243 361.497 286.72 362.61 286.938C363.369 287.087 364.102 287.089 364.809 286.943C365.526 286.79 366.188 286.503 366.793 286.081C367.407 285.66 367.928 285.112 368.354 284.434L372.221 285.193C371.583 286.434 370.717 287.483 369.623 288.341C368.537 289.201 367.292 289.8 365.887 290.139C364.482 290.477 362.976 290.489 361.37 290.174ZM382.673 294.353C380.739 293.974 379.21 293.215 378.086 292.078C376.963 290.932 376.294 289.508 376.077 287.806C375.872 286.097 376.15 284.213 376.911 282.153C377.656 280.135 378.688 278.449 380.008 277.094C381.337 275.742 382.853 274.788 384.557 274.233C386.27 273.68 388.071 273.588 389.96 273.959C391.893 274.338 393.417 275.1 394.531 276.244C395.654 277.391 396.323 278.819 396.537 280.53C396.751 282.24 396.477 284.13 395.714 286.199C394.973 288.199 393.934 289.874 392.596 291.225C391.269 292.569 389.753 293.519 388.049 294.074C386.345 294.629 384.553 294.722 382.673 294.353ZM383.55 291.073C384.821 291.323 385.995 291.205 387.071 290.719C388.156 290.235 389.108 289.496 389.926 288.501C390.745 287.507 391.394 286.369 391.875 285.088C392.329 283.848 392.554 282.677 392.55 281.576C392.556 280.468 392.283 279.525 391.73 278.748C391.176 277.97 390.295 277.462 389.086 277.225C387.814 276.976 386.631 277.097 385.535 277.588C384.45 278.071 383.498 278.815 382.677 279.818C381.866 280.824 381.225 281.967 380.753 283.25C380.3 284.481 380.071 285.651 380.064 286.759C380.06 287.858 380.335 288.792 380.89 289.561C381.445 290.33 382.332 290.834 383.55 291.073ZM396.575 296.654L403.955 276.979L407.755 277.725L406.549 280.926L406.801 280.975C407.639 279.976 408.649 279.266 409.831 278.847C411.024 278.421 412.296 278.34 413.647 278.605C414.988 278.869 416.008 279.399 416.704 280.195C417.409 280.994 417.78 281.974 417.818 283.137L418.03 283.178C418.898 282.212 419.982 281.521 421.283 281.107C422.584 280.693 423.966 280.63 425.432 280.917C427.259 281.276 428.549 282.134 429.3 283.491C430.062 284.842 430.021 286.64 429.177 288.885L424.224 302.078L420.251 301.298L425.079 288.466C425.571 287.124 425.555 286.085 425.03 285.349C424.507 284.605 423.724 284.13 422.683 283.926C421.394 283.673 420.248 283.861 419.244 284.489C418.243 285.109 417.524 286.017 417.087 287.215L412.359 299.75L408.426 298.979L413.343 285.903C413.737 284.825 413.708 283.898 413.256 283.122C412.813 282.338 412.041 281.838 410.937 281.622C410.187 281.475 409.42 281.53 408.635 281.789C407.86 282.05 407.157 282.48 406.526 283.08C405.894 283.681 405.415 284.421 405.086 285.301L400.534 297.43L396.575 296.654Z" fill="#FFFFFF"></path><path d="M182.495 292.337C182.938 292.563 183.392 292.773 183.823 293.017C186.899 294.777 188.542 298.255 187.879 301.768C186.979 306.541 186.021 311.305 185.086 316.07C185.025 316.383 184.964 316.694 184.874 317.153C187.329 316.34 189.637 316.384 191.824 317.594C193.983 318.788 195.322 320.637 195.958 323.12C198.647 321.902 201.309 321.84 203.866 323.335C206.393 324.814 207.679 327.119 207.973 329.85C209.358 329.715 210.71 329.364 212.012 329.494C217.102 329.995 220.291 334.439 219.316 339.569C218.237 345.243 217.113 350.907 215.983 356.573C215.403 359.476 214.88 362.396 214.14 365.26C211.171 376.735 200.509 385.289 188.674 385.539C178.5 385.755 170.589 381.43 164.954 372.985C157.53 361.856 150.159 350.693 142.765 339.543C141.318 337.362 141.225 335.102 142.652 333.272C143.2 332.572 143.953 331.965 144.729 331.519C149.737 328.638 156.033 330.012 159.438 334.688C160.76 336.502 162.057 338.337 163.512 340.368L163.742 339.194C166.359 325.854 168.974 312.514 171.593 299.174C172.328 295.428 174.774 292.838 178.227 292.142C178.887 292.007 179.564 291.972 180.232 291.893C180.985 292.041 181.742 292.189 182.495 292.337ZM170.962 322.186C169.508 329.596 168.054 337.007 166.6 344.418C166.549 344.681 166.498 344.941 166.446 345.203C166.262 346.087 165.809 346.74 164.869 346.904C163.98 347.06 163.347 346.653 162.841 345.94C160.696 342.927 158.549 339.914 156.373 336.923C154.011 333.673 149.574 332.845 146.266 335.001C145.374 335.581 145.208 336.282 145.759 337.182C145.914 337.435 146.081 337.677 146.245 337.924C153.633 349.075 161.025 360.224 168.408 371.379C174.01 379.844 184.508 383.82 194.203 380.828C203.463 377.97 209.04 371.56 211.004 362.084C212.589 354.428 214.032 346.743 215.534 339.071C215.597 338.751 215.66 338.43 215.684 338.107C215.809 336.336 215.159 334.909 213.675 333.933C211.052 332.21 207.63 333.683 206.901 336.848C206.538 338.436 206.287 340.049 205.936 341.637C205.64 342.984 204.251 343.605 203.124 342.907C202.328 342.413 202.101 341.663 202.282 340.752C202.896 337.675 203.513 334.595 204.09 331.51C204.547 329.073 203.202 326.799 201.013 326.204C198.479 325.518 196.02 326.939 195.436 329.503C194.963 331.581 194.61 333.687 194.174 335.775C193.87 337.233 192.741 337.903 191.508 337.407C190.613 337.045 190.223 336.166 190.456 334.951C191.044 331.897 191.666 328.85 192.237 325.793C192.603 323.833 191.799 322.021 190.208 321.041C187.585 319.425 184.201 320.94 183.522 324.068C183.064 326.18 182.692 328.311 182.251 330.427C182.058 331.359 181.297 331.956 180.434 331.952C179.552 331.947 178.779 331.405 178.62 330.55C178.534 330.104 178.597 329.61 178.687 329.153C180.455 320.085 182.237 311.018 184.015 301.951C184.078 301.631 184.156 301.313 184.191 300.99C184.39 299.094 183.795 297.523 182.174 296.468C180.679 295.496 179.096 295.508 177.559 296.402C176.241 297.168 175.616 298.393 175.332 299.865C173.891 307.308 172.421 314.747 170.962 322.186Z" fill="#410002"></path><circle cx="420.855" cy="421.649" r="92.1448" fill="#ECECEC"></circle><path d="M401.075 357.188H403.893V373.824C403.893 375.309 403.621 376.57 403.075 377.608C402.53 378.646 401.761 379.434 400.768 379.972C399.776 380.51 398.605 380.779 397.257 380.779C395.984 380.779 394.852 380.548 393.859 380.085C392.867 379.616 392.086 378.949 391.518 378.085C390.95 377.222 390.666 376.195 390.666 375.006H393.439C393.439 375.665 393.602 376.241 393.927 376.733C394.261 377.218 394.715 377.597 395.291 377.869C395.867 378.142 396.522 378.279 397.257 378.279C398.068 378.279 398.757 378.108 399.325 377.767C399.893 377.426 400.325 376.926 400.621 376.267C400.924 375.601 401.075 374.786 401.075 373.824V357.188ZM420.177 373.324V363.006H422.859V380.46H420.177V377.506H419.996C419.586 378.392 418.95 379.146 418.086 379.767C417.223 380.381 416.132 380.688 414.814 380.688C413.723 380.688 412.753 380.449 411.905 379.972C411.056 379.487 410.389 378.76 409.905 377.79C409.42 376.813 409.177 375.582 409.177 374.097V363.006H411.859V373.915C411.859 375.188 412.215 376.203 412.927 376.96C413.647 377.718 414.564 378.097 415.677 378.097C416.344 378.097 417.022 377.926 417.711 377.585C418.408 377.244 418.992 376.722 419.461 376.017C419.939 375.313 420.177 374.415 420.177 373.324ZM440.135 366.915L437.726 367.597C437.574 367.195 437.351 366.805 437.055 366.426C436.767 366.04 436.373 365.722 435.873 365.472C435.373 365.222 434.733 365.097 433.953 365.097C432.885 365.097 431.995 365.343 431.282 365.835C430.578 366.32 430.226 366.938 430.226 367.688C430.226 368.354 430.468 368.881 430.953 369.267C431.438 369.654 432.195 369.976 433.226 370.233L435.817 370.869C437.377 371.248 438.54 371.828 439.305 372.608C440.07 373.381 440.453 374.377 440.453 375.597C440.453 376.597 440.165 377.491 439.589 378.279C439.021 379.066 438.226 379.688 437.203 380.142C436.18 380.597 434.991 380.824 433.635 380.824C431.854 380.824 430.381 380.438 429.214 379.665C428.048 378.892 427.309 377.763 426.998 376.279L429.544 375.642C429.786 376.582 430.245 377.286 430.919 377.756C431.601 378.226 432.491 378.46 433.589 378.46C434.839 378.46 435.832 378.195 436.567 377.665C437.309 377.127 437.68 376.483 437.68 375.733C437.68 375.127 437.468 374.619 437.044 374.21C436.62 373.794 435.968 373.483 435.089 373.279L432.18 372.597C430.582 372.218 429.407 371.631 428.657 370.835C427.915 370.032 427.544 369.029 427.544 367.824C427.544 366.839 427.82 365.968 428.373 365.21C428.934 364.453 429.695 363.858 430.657 363.426C431.627 362.994 432.726 362.779 433.953 362.779C435.68 362.779 437.036 363.157 438.021 363.915C439.014 364.673 439.718 365.673 440.135 366.915ZM452.081 363.006V365.279H443.035V363.006H452.081ZM445.672 358.824H448.354V375.46C448.354 376.218 448.463 376.786 448.683 377.165C448.91 377.536 449.198 377.786 449.547 377.915C449.903 378.036 450.278 378.097 450.672 378.097C450.967 378.097 451.21 378.082 451.399 378.051C451.588 378.013 451.74 377.983 451.854 377.96L452.399 380.369C452.217 380.438 451.963 380.506 451.638 380.574C451.312 380.65 450.899 380.688 450.399 380.688C449.641 380.688 448.899 380.525 448.172 380.199C447.452 379.873 446.854 379.377 446.376 378.71C445.907 378.044 445.672 377.203 445.672 376.188V358.824Z" fill="#333333"></path><path d="M383.278 425.535L381.808 428.731H360.97L362.121 425.535H383.278ZM380.53 431.927L379.06 435.123H360.97L362.121 431.927H380.53ZM387.05 416.906L385.515 420.23C384.834 419.612 384.115 419.079 383.358 418.632C382.602 418.184 381.808 417.838 380.977 417.593C380.146 417.348 379.273 417.225 378.356 417.225C376.545 417.225 374.915 417.726 373.466 418.727C372.018 419.729 370.872 421.204 370.031 423.154C369.189 425.103 368.768 427.495 368.768 430.329C368.768 433.163 369.189 435.554 370.031 437.504C370.872 439.454 372.018 440.929 373.466 441.931C374.915 442.932 376.545 443.433 378.356 443.433C379.294 443.433 380.178 443.31 381.009 443.065C381.851 442.82 382.634 442.485 383.358 442.058C384.093 441.632 384.77 441.153 385.388 440.62L386.986 443.944C385.867 444.999 384.557 445.798 383.055 446.341C381.552 446.874 379.986 447.14 378.356 447.14C375.736 447.14 373.413 446.458 371.389 445.095C369.376 443.731 367.794 441.792 366.643 439.278C365.503 436.764 364.933 433.781 364.933 430.329C364.933 426.877 365.503 423.894 366.643 421.38C367.794 418.866 369.376 416.927 371.389 415.563C373.413 414.2 375.736 413.518 378.356 413.518C380.05 413.518 381.632 413.811 383.102 414.397C384.583 414.983 385.899 415.819 387.05 416.906Z" fill="#333333"></path><path d="M459.843 420.907L454.367 441.248H452.576L458.051 420.907H459.843ZM462.136 438.693V426.147H463.998V428.107H464.161C464.423 427.438 464.845 426.918 465.427 426.547C466.01 426.172 466.71 425.984 467.526 425.984C468.354 425.984 469.043 426.172 469.593 426.547C470.148 426.918 470.581 427.438 470.891 428.107H471.022C471.343 427.459 471.825 426.945 472.468 426.564C473.11 426.177 473.881 425.984 474.779 425.984C475.901 425.984 476.818 426.335 477.532 427.037C478.245 427.734 478.602 428.821 478.602 430.296V438.693H476.674V430.296C476.674 429.371 476.421 428.709 475.914 428.312C475.408 427.914 474.812 427.715 474.126 427.715C473.244 427.715 472.56 427.982 472.076 428.516C471.591 429.044 471.349 429.714 471.349 430.525V438.693H469.389V430.1C469.389 429.387 469.157 428.813 468.694 428.377C468.231 427.936 467.635 427.715 466.906 427.715C466.405 427.715 465.936 427.849 465.501 428.116C465.071 428.382 464.722 428.753 464.455 429.226C464.194 429.695 464.063 430.236 464.063 430.852V438.693H462.136ZM487.582 426.147V427.781H481.08V426.147H487.582ZM482.975 423.141H484.903V435.099C484.903 435.643 484.982 436.052 485.14 436.324C485.303 436.591 485.51 436.771 485.761 436.863C486.016 436.95 486.286 436.994 486.569 436.994C486.781 436.994 486.956 436.983 487.092 436.961C487.228 436.934 487.337 436.912 487.419 436.896L487.811 438.627C487.68 438.676 487.497 438.725 487.263 438.774C487.029 438.829 486.732 438.856 486.373 438.856C485.829 438.856 485.295 438.739 484.772 438.505C484.255 438.271 483.825 437.914 483.482 437.435C483.144 436.956 482.975 436.351 482.975 435.622V423.141ZM492.678 431.146V438.693H490.751V421.965H492.678V428.107H492.842C493.136 427.459 493.577 426.945 494.165 426.564C494.758 426.177 495.548 425.984 496.534 425.984C497.388 425.984 498.137 426.155 498.78 426.498C499.422 426.836 499.92 427.356 500.274 428.058C500.634 428.755 500.813 429.643 500.813 430.721V438.693H498.886V430.852C498.886 429.855 498.627 429.085 498.11 428.54C497.598 427.99 496.888 427.715 495.978 427.715C495.347 427.715 494.78 427.849 494.279 428.116C493.784 428.382 493.392 428.772 493.103 429.284C492.82 429.795 492.678 430.416 492.678 431.146Z" fill="#333333"></path><path d="M421.328 465.466C416.184 465.466 411.602 464.582 407.584 462.814C403.588 461.022 400.43 458.565 398.111 455.442C395.815 452.296 394.632 448.668 394.563 444.557H409.581C409.673 446.279 410.236 447.795 411.269 449.104C412.326 450.39 413.727 451.389 415.472 452.101C417.217 452.813 419.18 453.169 421.362 453.169C423.635 453.169 425.645 452.767 427.39 451.963C429.135 451.159 430.502 450.046 431.489 448.622C432.477 447.198 432.97 445.556 432.97 443.696C432.97 441.813 432.442 440.148 431.386 438.701C430.352 437.232 428.86 436.083 426.908 435.257C424.979 434.43 422.682 434.017 420.019 434.017H413.439V423.063H420.019C422.269 423.063 424.256 422.672 425.978 421.892C427.723 421.111 429.078 420.032 430.042 418.654C431.007 417.253 431.489 415.622 431.489 413.762C431.489 411.994 431.064 410.444 430.215 409.112C429.388 407.757 428.217 406.701 426.701 405.943C425.209 405.185 423.463 404.806 421.465 404.806C419.445 404.806 417.596 405.174 415.92 405.909C414.243 406.621 412.9 407.642 411.889 408.974C410.879 410.306 410.339 411.868 410.27 413.659H395.975C396.044 409.594 397.204 406.012 399.454 402.912C401.705 399.812 404.736 397.389 408.548 395.644C412.383 393.876 416.712 392.991 421.534 392.991C426.403 392.991 430.662 393.876 434.314 395.644C437.965 397.412 440.801 399.8 442.822 402.809C444.866 405.794 445.876 409.147 445.853 412.867C445.876 416.817 444.648 420.112 442.167 422.753C439.71 425.394 436.507 427.07 432.557 427.782V428.333C437.747 428.999 441.697 430.802 444.406 433.741C447.139 436.658 448.494 440.309 448.471 444.695C448.494 448.714 447.334 452.285 444.992 455.408C442.673 458.531 439.469 460.988 435.382 462.779C431.294 464.57 426.609 465.466 421.328 465.466Z" fill="#333333"></path></svg>