<svg xmlns:xlink="http://www.w3.org/1999/xlink" version="1.1" viewBox="0 0 234.38 234.38" xmlns="http://www.w3.org/2000/svg" width="234.38"  height="234.38" ><g transform="translate(547.84 533.73)" fill="#767676"><g transform="translate(.6033 -4.3157)" fill="#767676"><circle cx="-450.69" cy="-459.75" r="0" color="#000000" color-rendering="auto" fill="#FFFFFF" image-rendering="auto" shape-rendering="auto" solid-color="#000000" style="isolation:auto;mix-blend-mode:normal"></circle><g transform="matrix(.55932 0 0 .55932 -200.89 -162.04)" fill="#767676"></g><g shape-rendering="auto" fill="#767676"><path d="m-433.1-500.56c-13.343 0.41066-26.918 3.375-36.062 16.039-9.984 13.828-7.2201 26.282-7.6196 30.676-0.39951 4.3946-30.263 55.547-26.288 62.849 2.2214 4.0808 12.105-2.437 12.305 3.3559s-9.6598 63.762 58.987 63.762h0.51179c0.17826 2.2e-4 0.34712-2e-3 0.51617 0 68.647 0 58.786-57.969 58.986-63.762 0.19975-5.7929 10.084 0.72487 12.305-3.3559 3.975-7.3024-25.888-58.454-26.288-62.849s2.3644-16.848-7.6196-30.676c-9.1439-12.664-22.718-15.629-36.062-16.04-0.69409 0-1.215-5e-3 -1.8364-5e-3 -0.5841-4e-5 -1.2713 5e-3 -1.8364 6e-3z" color="#000000" color-rendering="auto" image-rendering="auto" solid-color="#000000" style="isolation:auto;mix-blend-mode:normal" fill="#767676"></path><g fill="#FFFFFF"><path d="m-453.63-469c3.6296 0 6.572 2.9424 6.572 6.572 0 3.6296-2.9424 6.572-6.572 6.572-3.6296 0-6.572-2.9424-6.572-6.572 0-3.6296 2.9424-6.572 6.572-6.572z" color="#000000" color-rendering="auto" image-rendering="auto" solid-color="#000000" style="isolation:auto;mix-blend-mode:normal" fill="#FFFFFF"></path><path d="m-408.89-469c3.6296 0 6.572 2.9424 6.572 6.572 0 3.6296-2.9424 6.572-6.572 6.572s-6.572-2.9424-6.572-6.572c0-3.6296 2.9424-6.572 6.572-6.572z" color="#000000" color-rendering="auto" image-rendering="auto" solid-color="#000000" style="isolation:auto;mix-blend-mode:normal" fill="#FFFFFF"></path><path d="m-457.85-439.16c6.7508-0.2173 19.492 9.55 25.3 11.476 0.62048 0.16626 0.84471 0.30153 1.2923 0.30153s0.70895-0.14521 1.2923-0.30153c6.0156-1.9939 19.47-12.403 26.002-11.414 7.2198 1.0932 1.2346 11.928 4.3107 19.894 7.7428 20.05 18.148 51.112 7.0417 69.193-3.4527 5.6212-11.475 15.268-36.852 15.587-0.59913 4e-3 -1.1842 0.0111-1.7948 0.012-0.61102-1e-3 -1.1964-8e-3 -1.7959-0.012-25.375-0.31888-33.397-9.9656-36.849-15.587-11.106-18.081-0.70107-49.142 7.0417-69.193 3.0761-7.9658-2.9091-18.801 4.3107-19.894 0.22562-0.0342 0.45869-0.0545 0.70024-0.0623z" color="#000000" color-rendering="auto" image-rendering="auto" solid-color="#000000" style="isolation:auto;mix-blend-mode:normal" fill="#FFFFFF"></path></g></g></g></g></svg>