<svg xmlns:xlink="http://www.w3.org/1999/xlink" viewBox="0 0 191 191" fill="none" xmlns="http://www.w3.org/2000/svg" width="191"  height="191" ><circle cx="95.0266" cy="95.4921" r="76.5216" transform="rotate(-16.4146 95.0266 95.4921)" fill="#F63030"></circle><path d="M36.7337 95.6083L32.6233 81.6557L42.352 78.7897L43.1588 81.5284L36.8025 83.401L37.6454 86.2624L43.5044 84.5363L44.3133 87.2819L38.4543 89.0079L39.2992 91.8761L45.6555 90.0036L46.4624 92.7423L36.7337 95.6083ZM47.8772 77.162L51.7237 80.8193L51.8327 80.7872L53.1094 75.6206L56.8837 74.5088L54.7286 82.7254L61.1303 88.4212L57.2606 89.5612L53.3319 85.8763L53.2229 85.9084L51.9194 91.1347L48.077 92.2667L50.3479 84.0159L44.0756 78.2819L47.8772 77.162ZM71.9951 75.5508L68.5887 76.5543C68.4402 76.218 68.2541 75.9298 68.0304 75.6897C67.8066 75.4495 67.5495 75.2637 67.259 75.1321C66.9685 75.0005 66.6489 74.9293 66.3002 74.9185C65.9547 74.9018 65.5912 74.9496 65.2097 75.062C64.5329 75.2614 63.9981 75.5991 63.6053 76.0752C63.217 76.5499 62.9834 77.1394 62.9046 77.8438C62.8304 78.5469 62.9244 79.3435 63.1867 80.2337C63.4596 81.1602 63.8201 81.8981 64.2682 82.4473C64.7195 82.9906 65.2327 83.3503 65.8078 83.5264C66.3861 83.6966 67.0068 83.684 67.6699 83.4887C68.0423 83.379 68.3666 83.2316 68.6428 83.0466C68.9236 82.8602 69.153 82.6421 69.3311 82.3921C69.5125 82.1363 69.6393 81.8547 69.7115 81.5471C69.787 81.2336 69.8048 80.9001 69.7648 80.5466L73.1772 79.5636C73.3001 80.1987 73.3 80.8601 73.1769 81.548C73.0583 82.2345 72.813 82.9015 72.4411 83.5491C72.0678 84.1922 71.5516 84.7687 70.8923 85.2789C70.2376 85.7876 69.4311 86.1832 68.4728 86.4655C67.2102 86.8375 65.9976 86.8936 64.8352 86.6338C63.6759 86.3682 62.6507 85.7867 61.7594 84.8893C60.8682 83.9919 60.1971 82.7778 59.7462 81.2472C59.294 79.7121 59.2036 78.3245 59.475 77.0846C59.7465 75.8447 60.3002 74.8005 61.1362 73.952C61.9722 73.1035 63.0101 72.4966 64.2501 72.1314C65.0948 71.8825 65.9108 71.7704 66.698 71.7952C67.4839 71.8155 68.2155 71.9701 68.893 72.2592C69.5692 72.5437 70.1732 72.9606 70.7052 73.5097C71.2372 74.0588 71.6671 74.7392 71.9951 75.5508ZM76.546 83.8799L72.4356 69.9273L75.808 68.9338L79.1115 80.1477L84.916 78.4377L85.7228 81.1764L76.546 83.8799ZM91.7993 64.2228L95.1648 63.2314L97.8161 72.2311C98.1225 73.2712 98.1419 74.2502 97.8743 75.1682C97.6053 76.0816 97.0902 76.8799 96.329 77.5632C95.5664 78.242 94.5993 78.754 93.4275 79.0992C92.242 79.4484 91.1449 79.5446 90.1362 79.3876C89.1261 79.2261 88.2627 78.8339 87.5461 78.2108C86.8281 77.5832 86.3159 76.7493 86.0095 75.7092L83.3582 66.7095L86.7306 65.7161L89.2955 74.4228C89.4374 74.9043 89.6683 75.3027 89.9882 75.6181C90.3128 75.9322 90.6972 76.1398 91.1416 76.2409C91.586 76.3419 92.0603 76.3182 92.5644 76.1697C93.0686 76.0212 93.4777 75.7847 93.7918 75.4601C94.1104 75.1343 94.321 74.7514 94.4234 74.3116C94.5258 73.8717 94.5061 73.411 94.3642 72.9296L91.7993 64.2228ZM106.053 64.57C105.86 64.0838 105.543 63.755 105.103 63.5836C104.666 63.4064 104.118 63.4148 103.459 63.6088C103.023 63.7373 102.677 63.9011 102.419 64.1003C102.162 64.2994 101.99 64.5204 101.904 64.763C101.816 65.0011 101.807 65.248 101.878 65.5037C101.93 65.7153 102.025 65.8872 102.163 66.0194C102.305 66.1503 102.483 66.2509 102.696 66.3214C102.913 66.386 103.161 66.4262 103.443 66.4421C103.724 66.458 104.033 66.4532 104.371 66.4277L105.651 66.347C106.385 66.2935 107.053 66.314 107.653 66.4086C108.258 66.5019 108.791 66.6682 109.251 66.9077C109.716 67.1458 110.108 67.4623 110.427 67.8571C110.745 68.2519 110.989 68.7279 111.158 69.2852C111.413 70.1677 111.414 70.9895 111.159 71.7506C110.905 72.5117 110.413 73.1821 109.686 73.7617C108.963 74.34 108.02 74.8004 106.857 75.1429C105.69 75.4868 104.621 75.6116 103.651 75.5174C102.68 75.4233 101.849 75.0906 101.157 74.5193C100.466 73.9481 99.9528 73.1194 99.6181 72.0334L102.847 71.0821C103.007 71.5237 103.238 71.8629 103.54 72.0998C103.841 72.3367 104.201 72.4775 104.619 72.5222C105.042 72.5656 105.5 72.5143 105.995 72.3685C106.45 72.2347 106.818 72.0596 107.099 71.8434C107.386 71.6257 107.583 71.3825 107.692 71.1136C107.8 70.8448 107.815 70.5689 107.736 70.286C107.654 70.0239 107.506 69.8231 107.292 69.6837C107.077 69.5398 106.784 69.4486 106.412 69.41C106.044 69.3655 105.588 69.3592 105.044 69.3909L103.486 69.4798C102.196 69.5586 101.113 69.3916 100.236 68.9786C99.3578 68.5611 98.7651 67.8225 98.4579 66.7629C98.1991 65.9013 98.208 65.0769 98.4844 64.2896C98.7609 63.5023 99.2589 62.8052 99.9785 62.1983C100.698 61.5914 101.587 61.1321 102.645 60.8204C103.726 60.5019 104.718 60.4096 105.622 60.5433C106.528 60.6712 107.298 60.9995 107.933 61.5283C108.568 62.0571 109.017 62.7539 109.282 63.6187L106.053 64.57ZM113.316 57.8842L117.426 71.8368L114.054 72.8303L109.943 58.8777L113.316 57.8842ZM118.601 56.3273L124.732 65.6273L124.847 65.5932L124.957 54.4547L128.731 53.3429L128.134 68.6823L123.645 70.0049L114.827 57.4392L118.601 56.3273ZM134.344 66.8529L130.234 52.9003L139.962 50.0343L140.769 52.7731L134.413 54.6456L135.256 57.507L141.115 55.7809L141.924 58.5265L136.065 60.2525L136.91 63.1207L143.266 61.2482L144.073 63.9869L134.344 66.8529ZM58.4372 110.064L53.2799 111.584L49.1696 97.6311L54.3201 96.1138C55.7417 95.695 57.048 95.6137 58.239 95.87C59.4333 96.1204 60.4636 96.6856 61.33 97.5656C62.195 98.4412 62.841 99.6033 63.2678 101.052C63.6959 102.506 63.7846 103.837 63.5337 105.046C63.2873 106.254 62.7309 107.289 61.8645 108.151C60.9967 109.009 59.8543 109.647 58.4372 110.064ZM55.8053 107.715L57.4608 107.228C58.242 106.997 58.8641 106.671 59.3269 106.248C59.793 105.82 60.0763 105.265 60.1767 104.584C60.2804 103.897 60.1843 103.051 59.8886 102.048C59.5929 101.044 59.2166 100.286 58.7598 99.774C58.3016 99.2574 57.7589 98.9484 57.1317 98.8469C56.5077 98.7394 55.7961 98.8035 54.9967 99.039L53.3889 99.5126L55.8053 107.715ZM78.4078 96.5994C78.8601 98.1346 78.9482 99.5228 78.6722 100.764C78.3962 102.005 77.8356 103.052 76.9906 103.903C76.15 104.753 75.1053 105.361 73.8563 105.729C72.6027 106.099 71.3918 106.152 70.2235 105.889C69.0551 105.626 68.0192 105.05 67.1157 104.161C66.2153 103.266 65.5397 102.054 65.0888 100.523C64.6366 98.988 64.5462 97.6004 64.8176 96.3605C65.0936 95.1192 65.6519 94.0737 66.4924 93.2239C67.3329 92.3741 68.38 91.7645 69.6335 91.3952C70.8825 91.0273 72.0905 90.9725 73.2575 91.2309C74.4291 91.488 75.4673 92.0632 76.3721 92.9566C77.277 93.85 77.9556 95.0643 78.4078 96.5994ZM74.9605 97.615C74.6929 96.7066 74.3374 95.9772 73.8938 95.4267C73.4549 94.8748 72.9471 94.5086 72.3707 94.3279C71.7988 94.1459 71.1768 94.154 70.5046 94.352C69.8369 94.5487 69.3099 94.8792 68.9234 95.3435C68.537 95.8078 68.3067 96.3914 68.2324 97.0945C68.1627 97.7962 68.2617 98.6012 68.5293 99.5096C68.7969 100.418 69.1502 101.148 69.5891 101.7C70.0327 102.25 70.5427 102.616 71.1191 102.797C71.6955 102.977 72.3176 102.969 72.9852 102.773C73.6574 102.575 74.1845 102.244 74.5664 101.781C74.9528 101.317 75.1809 100.734 75.2506 100.032C75.3248 99.3291 75.2281 98.5234 74.9605 97.615ZM78.3215 89.0431L82.4978 87.8128L88.5853 95.4078L88.7488 95.3596L89.7466 85.6774L93.9228 84.4471L98.0332 98.3997L94.7494 99.367L92.2246 90.7966L92.1088 90.8307L91.2556 100.3L89.1573 100.918L83.2926 93.376L83.1768 93.4102L85.7157 102.028L82.4319 102.996L78.3215 89.0431ZM103.155 96.8909L99.5303 97.9586L100.128 82.6192L104.617 81.2966L113.435 93.8623L109.811 94.9301L103.459 85.4582L103.35 85.4903L103.155 96.8909ZM101.053 91.5423L108.629 89.3105L109.384 91.8721L101.808 94.1039L101.053 91.5423ZM114.199 78.4737L118.31 92.4263L114.937 93.4198L110.827 79.4672L114.199 78.4737ZM128.191 74.3518L132.302 88.3044L129.44 89.1474L121.515 82.7304L121.427 82.7564L123.799 90.8092L120.427 91.8026L116.317 77.85L119.219 76.995L127.078 83.4165L127.194 83.3824L124.826 75.3433L128.191 74.3518ZM134.229 72.5731L136.768 82.3464L133.968 83.1713L130.802 73.5826L134.229 72.5731ZM136.681 87.2291C136.195 87.3722 135.726 87.3227 135.275 87.0806C134.828 86.8371 134.532 86.4701 134.388 85.9795C134.246 85.4981 134.297 85.0362 134.542 84.5939C134.79 84.1457 135.157 83.85 135.643 83.7068C136.111 83.569 136.573 83.6205 137.029 83.8613C137.488 84.0963 137.788 84.4545 137.93 84.9359C138.027 85.2629 138.03 85.5852 137.941 85.9026C137.857 86.2188 137.704 86.4958 137.483 86.7337C137.266 86.9703 136.999 87.1354 136.681 87.2291Z" fill="#410002"></path><path d="M60.6771 137.128C59.2691 137.543 57.995 137.709 56.8548 137.625C55.7205 137.544 54.7332 137.226 53.8928 136.669C53.0512 136.107 52.3673 135.319 51.8413 134.304C51.3198 133.288 50.967 132.057 50.7828 130.61C50.6093 129.2 50.6485 127.876 50.9005 126.637C51.1524 125.397 51.6034 124.272 52.2533 123.262C52.9019 122.246 53.7373 121.371 54.7596 120.635C55.7818 119.9 56.9743 119.331 58.3368 118.93C59.6403 118.546 60.8156 118.422 61.8625 118.558C62.9095 118.693 63.8173 119.036 64.586 119.584C65.3548 120.133 65.9726 120.839 66.4395 121.703C66.9064 122.568 67.207 123.538 67.3414 124.614C67.4347 125.367 67.4802 126.116 67.4778 126.862C67.4741 127.603 67.3859 128.301 67.213 128.954C67.0388 129.602 66.7462 130.167 66.3352 130.649C65.9228 131.126 65.353 131.479 64.6258 131.708C64.2392 131.836 63.8557 131.9 63.4752 131.898C63.0992 131.896 62.7681 131.811 62.4819 131.643C62.1988 131.47 62.0061 131.201 61.9036 130.836L61.8218 130.86C61.7554 131.171 61.6087 131.486 61.3818 131.804C61.1534 132.118 60.8504 132.405 60.4727 132.665C60.0982 132.918 59.651 133.109 59.1311 133.237C58.5566 133.382 58.0257 133.398 57.5383 133.285C57.0509 133.172 56.6162 132.944 56.2342 132.603C55.8567 132.26 55.5451 131.813 55.2993 131.264C55.0581 130.713 54.8912 130.071 54.7987 129.338C54.7142 128.633 54.7345 127.973 54.8595 127.358C54.9832 126.739 55.1903 126.177 55.4808 125.672C55.77 125.163 56.1173 124.725 56.5227 124.358C56.9327 123.991 57.3811 123.703 57.8679 123.496C58.3332 123.299 58.771 123.185 59.1812 123.153C59.5958 123.12 59.946 123.152 60.2317 123.251C60.5219 123.348 60.7124 123.492 60.803 123.682L60.8916 123.656L60.7963 122.855L62.4722 122.361L63.2787 128.995C63.3345 129.368 63.4718 129.658 63.6907 129.865C63.9142 130.071 64.2008 130.122 64.5505 130.019C64.9638 129.898 65.2665 129.643 65.4584 129.256C65.6549 128.867 65.7601 128.328 65.7739 127.638C65.7923 126.946 65.7381 126.084 65.6113 125.05C65.526 124.325 65.3506 123.67 65.085 123.087C64.818 122.5 64.4754 121.998 64.0571 121.583C63.6374 121.164 63.1453 120.843 62.5809 120.619C62.0164 120.395 61.3898 120.279 60.7009 120.27C60.0121 120.26 59.268 120.373 58.4686 120.609C57.3831 120.929 56.4379 121.39 55.6331 121.992C54.8315 122.588 54.1824 123.3 53.6857 124.128C53.1891 124.955 52.8496 125.872 52.6673 126.879C52.4836 127.881 52.4631 128.95 52.6058 130.088C52.7527 131.274 53.0325 132.282 53.4452 133.113C53.8611 133.938 54.4071 134.577 55.0833 135.03C55.7595 135.482 56.5549 135.744 57.4693 135.815C58.3869 135.88 59.4179 135.744 60.5625 135.407C61.0712 135.257 61.5619 135.063 62.0348 134.825C62.5135 134.591 62.9367 134.36 63.3042 134.133C63.675 133.9 63.9503 133.721 64.1301 133.594L64.8148 135.013C64.5448 135.236 64.1855 135.483 63.737 135.753C63.2885 136.023 62.797 136.282 62.2624 136.528C61.7324 136.773 61.2039 136.973 60.6771 137.128ZM59.3206 131.368C59.9111 131.194 60.3691 130.93 60.6946 130.578C61.0247 130.224 61.239 129.778 61.3373 129.241C61.4389 128.698 61.4444 128.054 61.3537 127.311C61.2639 126.587 61.1065 126.036 60.8817 125.658C60.6554 125.276 60.3527 125.044 59.9735 124.963C59.5975 124.877 59.1302 124.916 58.5716 125.08C58.0583 125.231 57.6387 125.491 57.3126 125.858C56.9865 126.226 56.7546 126.662 56.617 127.166C56.4793 127.671 56.4443 128.197 56.5118 128.745C56.5874 129.32 56.7332 129.84 56.949 130.304C57.1635 130.764 57.4648 131.1 57.8529 131.311C58.2409 131.523 58.7302 131.542 59.3206 131.368ZM68.5942 119.662L68.3601 117.761L79.1584 114.58L79.3925 116.481L75.0391 117.763L76.599 130.498L74.5007 131.116L72.9408 118.381L68.5942 119.662ZM87.8237 122.475L87.0414 116.049L89.0852 115.447L90.4239 126.425L88.4209 127.015L88.1936 125.113L88.0846 125.145C87.9222 125.8 87.5961 126.402 87.1063 126.951C86.6197 127.494 85.9835 127.881 85.1977 128.113C84.5255 128.311 83.9121 128.331 83.3573 128.174C82.8057 128.01 82.346 127.665 81.9781 127.136C81.6101 126.608 81.3695 125.891 81.2561 124.987L80.4125 118.002L82.4495 117.402L83.2685 124.128C83.365 124.874 83.639 125.41 84.0905 125.736C84.5419 126.063 85.081 126.133 85.7078 125.949C86.0893 125.836 86.4564 125.624 86.809 125.313C87.1615 125.002 87.4376 124.607 87.6373 124.129C87.8415 123.649 87.9036 123.098 87.8237 122.475ZM96.707 113.201L96.923 114.915L91.2071 116.599L90.9911 114.885L96.707 113.201ZM92.1942 111.806L94.2312 111.206L95.4987 121.591C95.5515 122.005 95.6505 122.299 95.7956 122.473C95.9395 122.643 96.1107 122.738 96.3092 122.759C96.5109 122.773 96.7231 122.748 96.9456 122.682C97.1092 122.634 97.2489 122.581 97.3648 122.522C97.4808 122.463 97.5731 122.416 97.6417 122.381L98.2464 124.032C98.1236 124.117 97.953 124.217 97.7348 124.331C97.5224 124.447 97.2534 124.556 96.9277 124.657C96.3944 124.824 95.8826 124.871 95.3923 124.799C94.9006 124.721 94.4871 124.507 94.1519 124.157C93.8153 123.802 93.6085 123.293 93.5316 122.629L92.1942 111.806ZM103.385 122.858C102.722 123.054 102.107 123.102 101.54 123.002C100.971 122.898 100.499 122.645 100.124 122.242C99.7484 121.839 99.5165 121.278 99.428 120.559C99.354 119.939 99.4061 119.396 99.5844 118.929C99.7672 118.46 100.037 118.052 100.394 117.705C100.749 117.354 101.158 117.048 101.62 116.789C102.081 116.53 102.556 116.298 103.044 116.095C103.659 115.835 104.156 115.622 104.536 115.456C104.921 115.288 105.198 115.123 105.367 114.959C105.535 114.791 105.603 114.579 105.572 114.322L105.558 114.274C105.479 113.655 105.258 113.222 104.894 112.974C104.533 112.72 104.025 112.689 103.371 112.882C102.69 113.083 102.162 113.401 101.787 113.837C101.416 114.272 101.177 114.708 101.069 115.145L99.1142 115.247C99.2539 114.514 99.5183 113.879 99.9074 113.34C100.3 112.795 100.772 112.345 101.324 111.99C101.874 111.63 102.465 111.357 103.096 111.171C103.514 111.048 103.963 110.97 104.442 110.938C104.92 110.901 105.381 110.957 105.825 111.108C106.273 111.257 106.66 111.546 106.983 111.973C107.305 112.397 107.515 113.009 107.613 113.809L108.508 121.097L106.519 121.684L106.343 120.181L106.261 120.205C106.166 120.519 106.002 120.849 105.768 121.194C105.538 121.538 105.228 121.859 104.837 122.157C104.446 122.455 103.962 122.689 103.385 122.858ZM103.599 121.019C104.166 120.851 104.635 120.592 105.006 120.241C105.381 119.889 105.652 119.493 105.819 119.054C105.984 118.611 106.04 118.172 105.986 117.739L105.814 116.323C105.749 116.422 105.616 116.532 105.416 116.656C105.219 116.777 104.994 116.901 104.74 117.025C104.485 117.149 104.233 117.266 103.983 117.374C103.738 117.48 103.536 117.572 103.376 117.649C102.991 117.817 102.641 118.011 102.326 118.232C102.016 118.452 101.777 118.707 101.611 118.998C101.444 119.284 101.384 119.618 101.432 119.998C101.499 120.527 101.732 120.873 102.13 121.037C102.532 121.195 103.022 121.189 103.599 121.019ZM112.772 119.982C112.391 120.094 112.034 120.056 111.702 119.868C111.375 119.678 111.157 119.392 111.049 119.009C110.943 118.631 110.99 118.273 111.193 117.937C111.398 117.596 111.687 117.37 112.059 117.26C112.432 117.15 112.788 117.188 113.129 117.374C113.47 117.56 113.685 117.837 113.774 118.206C113.836 118.464 113.831 118.717 113.761 118.965C113.694 119.207 113.574 119.42 113.401 119.604C113.227 119.784 113.017 119.91 112.772 119.982ZM121.098 117.618C120.08 117.918 119.179 117.934 118.395 117.667C117.609 117.395 116.969 116.89 116.475 116.152C115.981 115.414 115.666 114.495 115.529 113.395C115.389 112.281 115.465 111.239 115.757 110.27C116.052 109.294 116.534 108.459 117.202 107.763C117.876 107.067 118.705 106.573 119.691 106.283C120.486 106.048 121.213 105.995 121.872 106.121C122.53 106.243 123.084 106.524 123.534 106.964C123.985 107.404 124.293 107.982 124.46 108.698L122.477 109.282C122.301 108.801 121.995 108.432 121.559 108.176C121.123 107.919 120.583 107.886 119.938 108.076C119.37 108.243 118.892 108.547 118.503 108.987C118.113 109.423 117.836 109.963 117.671 110.609C117.504 111.251 117.472 111.961 117.573 112.741C117.671 113.541 117.871 114.198 118.175 114.711C118.479 115.223 118.865 115.576 119.331 115.769C119.798 115.963 120.317 115.975 120.89 115.806C121.28 115.691 121.623 115.514 121.918 115.274C122.215 115.028 122.454 114.733 122.634 114.389C122.819 114.044 122.928 113.661 122.962 113.241L124.952 112.655C124.956 113.389 124.807 114.09 124.504 114.756C124.207 115.421 123.771 116.004 123.198 116.504C122.624 117.003 121.924 117.375 121.098 117.618ZM132.058 114.39C131.063 114.683 130.165 114.7 129.364 114.443C128.561 114.181 127.902 113.679 127.387 112.937C126.876 112.189 126.547 111.242 126.402 110.095C126.259 108.973 126.331 107.935 126.618 106.981C126.909 106.027 127.385 105.213 128.045 104.54C128.71 103.865 129.529 103.384 130.501 103.098C131.496 102.805 132.392 102.79 133.19 103.053C133.993 103.316 134.653 103.82 135.169 104.566C135.685 105.312 136.016 106.261 136.163 107.413C136.303 108.526 136.225 109.561 135.929 110.517C135.637 111.467 135.16 112.279 134.5 112.952C133.839 113.625 133.025 114.105 132.058 114.39ZM131.67 112.645C132.324 112.453 132.843 112.112 133.227 111.624C133.616 111.134 133.881 110.558 134.021 109.894C134.161 109.231 134.188 108.542 134.101 107.827C134.011 107.138 133.832 106.537 133.562 106.024C133.296 105.505 132.939 105.132 132.491 104.903C132.044 104.675 131.509 104.652 130.887 104.835C130.233 105.028 129.71 105.372 129.318 105.868C128.929 106.357 128.665 106.936 128.526 107.604C128.392 108.27 128.37 108.96 128.462 109.674C128.55 110.358 128.728 110.96 128.994 111.479C129.259 111.993 129.615 112.362 130.061 112.586C130.507 112.81 131.043 112.83 131.67 112.645ZM139.106 112.084L137.768 101.105L139.723 100.529L139.939 102.317L140.068 102.279C140.216 101.608 140.515 101.031 140.965 100.548C141.418 100.059 141.992 99.7126 142.687 99.5079C143.378 99.3045 143.982 99.3041 144.501 99.5067C145.024 99.708 145.436 100.075 145.736 100.609L145.845 100.577C146.016 99.9145 146.354 99.3286 146.86 98.8191C147.367 98.3096 147.997 97.9438 148.751 97.7217C149.691 97.4447 150.501 97.5317 151.182 97.9827C151.866 98.4279 152.284 99.2771 152.436 100.531L153.332 107.893L151.288 108.495L150.421 101.331C150.325 100.585 150.065 100.104 149.641 99.888C149.215 99.6678 148.735 99.6366 148.199 99.7945C147.536 99.9898 147.046 100.356 146.731 100.893C146.414 101.426 146.299 102.025 146.387 102.69L147.227 109.691L145.204 110.287L144.32 102.988C144.242 102.389 144.003 101.963 143.603 101.711C143.206 101.453 142.724 101.407 142.156 101.575C141.77 101.688 141.425 101.901 141.122 102.212C140.824 102.523 140.6 102.894 140.451 103.328C140.303 103.762 140.259 104.224 140.319 104.715L141.143 111.483L139.106 112.084Z" fill="#FFFFFF"></path><path d="M102.515 129.467C102.693 129.466 102.872 129.457 103.049 129.464C104.318 129.514 105.417 130.347 105.787 131.574C106.292 133.24 106.776 134.913 107.268 136.583C107.3 136.693 107.332 136.801 107.38 136.962C108.026 136.297 108.767 135.929 109.662 135.952C110.546 135.974 111.278 136.34 111.891 137.024C112.544 136.191 113.38 135.731 114.441 135.783C115.489 135.834 116.279 136.354 116.825 137.174C117.243 136.902 117.615 136.566 118.05 136.392C119.751 135.708 121.501 136.593 122.04 138.385C122.637 140.367 123.217 142.354 123.796 144.342C124.093 145.361 124.41 146.376 124.649 147.409C125.605 151.549 123.632 156.033 119.911 158.072C116.713 159.826 113.482 159.761 110.292 158.009C106.089 155.701 101.898 153.372 97.7008 151.052C96.8798 150.598 96.476 149.896 96.6266 149.077C96.685 148.764 96.8237 148.447 96.9966 148.176C98.1115 146.431 100.341 145.826 102.197 146.748C102.918 147.106 103.634 147.474 104.433 147.879L104.312 147.468C102.935 142.794 101.557 138.12 100.181 133.446C99.7943 132.133 100.143 130.905 101.125 130.112C101.313 129.96 101.522 129.837 101.721 129.701C101.986 129.623 102.25 129.545 102.515 129.467ZM103.79 140.866C104.555 143.462 105.32 146.059 106.085 148.655C106.112 148.747 106.139 148.839 106.166 148.931C106.254 149.242 106.218 149.525 105.947 149.732C105.69 149.929 105.421 149.905 105.142 149.762C103.961 149.159 102.78 148.557 101.593 147.966C100.304 147.324 98.7563 147.796 98.0617 149.029C97.8744 149.361 97.9376 149.611 98.2619 149.806C98.3529 149.861 98.4462 149.91 98.5391 149.962C102.734 152.283 106.93 154.603 111.124 156.927C114.307 158.69 118.302 158.216 120.889 155.659C123.359 153.218 124.071 150.256 123.126 146.919C122.362 144.223 121.548 141.541 120.756 138.853C120.722 138.741 120.689 138.629 120.644 138.522C120.39 137.938 119.947 137.592 119.314 137.528C118.195 137.414 117.351 138.449 117.643 139.576C117.791 140.141 117.978 140.695 118.129 141.258C118.258 141.735 117.92 142.163 117.446 142.127C117.111 142.102 116.914 141.901 116.821 141.582C116.507 140.502 116.193 139.421 115.866 138.345C115.607 137.494 114.803 136.994 114.009 137.167C113.09 137.369 112.543 138.227 112.782 139.139C112.976 139.878 113.212 140.606 113.42 141.342C113.564 141.856 113.316 142.256 112.842 142.302C112.498 142.335 112.228 142.121 112.101 141.696C111.783 140.628 111.476 139.556 111.151 138.49C110.943 137.806 110.387 137.363 109.719 137.315C108.618 137.236 107.793 138.277 108.095 139.384C108.299 140.131 108.534 140.871 108.744 141.616C108.837 141.944 108.694 142.26 108.419 142.402C108.138 142.546 107.802 142.502 107.61 142.257C107.509 142.129 107.447 141.962 107.4 141.802C106.461 138.626 105.526 135.449 104.59 132.272C104.557 132.16 104.529 132.046 104.486 131.937C104.236 131.302 103.786 130.901 103.097 130.834C102.46 130.772 101.959 131.038 101.618 131.577C101.326 132.039 101.33 132.531 101.484 133.047C102.258 135.651 103.023 138.259 103.79 140.866Z" fill="#410002"></path></svg>