<svg xmlns:xlink="http://www.w3.org/1999/xlink" xmlns="http://www.w3.org/2000/svg" viewBox="0 0 400 345" width="400"  height="345" ><path d="M386.195 172.118c-15.955.71-20.363 18.601-27.203 29.972-3.685 8.858-21.983 31.698-2.47 31.314 9.72-10.57 14.058-25.342 21.542-37.64 9.463-17.747-.048 11.173-1.694 16.818-6.147 18.622-10.102 38.088-17.568 56.208-10.318 11.615-26.595 15.82-39.426 24.26-11.462 6.768-23.72 11.395-27.391 27.319-4.67 20.25 12.633 17.375 14.387-.79 1.162-12.039 20.962-12.918 30.643-19.96 14.374-8.014 32.658-14.643 37.458-32.276 8.538-27.727 15.898-55.933 25.023-83.391 4.13-8.981-6.232-12.651-13.301-11.834zM8.628 174.171c-17.025 2.991-2.751 21.305-1.695 31.513 7.062 22.885 12.832 46.216 20.823 68.774 8.322 16.702 28.45 20.882 42.86 30.607 12.496 5.824 25.128 11.733 26.939 26.61 17.915 10.477 12.116-26.236-.92-28.143-16.982-9.474-34.574-17.983-51.082-28.234-10.562-10.982-10.493-27.785-15.995-41.412-3.692-14.131-9.53-28.428-11.826-42.516 7.255 8.705 15.357 21.021 18.329 32.949 3.488 14 23.46 13.762 15.187-.69-8.291-14.694-14.309-31.007-24.634-44.38-4.856-4.233-11.643-6.059-17.986-5.078zm323.727 57.951c-18.18 8.249-40.424 10.7-53.715 27.07-13.014 14.639-17.943 34.149-24.627 52.114-3.106 8.349-10.495 26.564-4.478 28.47 9.611 3.045 14.16-15.77 19.801-29.867 5.64-14.098 11.885-38.66 29.273-49.689 8.924-1.989 27.917-13.932 31.79-9.324-5.66 9.553-37.012 19.935-18.059 29.862 12.904-6.281 28.098-16.148 32.843-30.551 1.182-7.477-3-21.107-12.828-18.085zM61.26 234.846c-16.484 13.56-.104 32.599 13.251 40.646 5.162 10.464 27.006 8.279 16.765-4.63-6.152-5.623-22.513-13.41-21.318-20.209 15.671 6.767 34.984 9.22 44.69 25.006 10.246 19.1 16.59 40.17 25.1 60.129 2.87 14.688 19.483 5.722 11.917-7.172-10.686-18.211-14.545-39.81-24.115-58.605-7.992-13.9-21.892-22.964-37.152-27.042-9.575-2.35-19.178-9.939-29.138-8.123zm129.31-87.56a13.26 13.26 0 0 1-3.92-9.466c0-7.47 5.914-13.38 13.383-13.38 7.47 0 13.383 5.91 13.383 13.38 0 3.735-1.49 7.036-3.92 9.465-2.824 3.318-7.764 4.989-10.042 4.871-3.545-.485-6.385-2.407-8.884-4.87zm24.37 47.265c1.412 3.384 4.425 11.972 6.306 12.535 1.881.562 23.247-11.03 29.767-17.549 13.038-13.039 21.118-31.114 21.118-50.98 0-39.73-32.367-72.097-72.098-72.097-39.73 0-72.095 32.366-72.095 72.097 0 19.866 8.077 37.941 21.115 50.98 6.52 6.52 28.964 19.68 31.23 16.452 2.264-3.228 3.433-8.053 4.846-11.439 4.897-7.732 12.928-37.073 15.057-37.054 2.128.02 10.066 24.856 14.753 37.055zM200.032 79.956c31.96 0 57.709 26 57.709 58.267 0 16.134-6.45 30.647-16.903 41.2-3.473 3.506-8.198 7.303-12.457 9.827l-12.278-30.332c.948-.724 1.912-1.43 2.753-2.272a26.63 26.63 0 0 0 7.797-18.826c0-14.624-11.997-26.62-26.62-26.62-14.625 0-26.622 11.996-26.622 26.62a26.63 26.63 0 0 0 7.797 18.826c.841.842 1.806 1.548 2.754 2.272l-12.059 30.166c-4.259-2.524-9.204-6.155-12.677-9.662-10.452-10.552-16.902-25.065-16.902-41.2 0-32.267 25.749-58.266 57.708-58.266zm8.47 178.061c-.15-5.92-.854-16.114-8.676-15.642-7.821.473-7.895 10.203-7.745 16.122.15 5.92.852 16.114 8.674 15.642 7.821-.472 7.897-10.202 7.747-16.122zM130.7 217.823c3.7-4.623 9.732-12.872 3.446-17.551-6.285-4.68-12.612 2.713-16.312 7.336-3.7 4.623-9.733 12.871-3.448 17.55 6.285 4.68 12.613-2.711 16.314-7.335zm152.516-12.378c-4.023-4.346-11.285-11.534-16.845-6.013-5.56 5.521.811 12.875 4.834 17.22 4.022 4.345 11.284 11.536 16.844 6.015 5.56-5.521-.81-12.876-4.833-17.222zm38.057-62.365c5.922.019 16.132-.395 15.882-8.227-.25-7.832-9.973-8.182-15.895-8.2-5.92-.02-16.132.393-15.882 8.225.25 7.831 9.973 8.184 15.895 8.202zm-39.17-78.878c3.618-4.69 9.5-13.044 3.133-17.61-6.368-4.567-12.561 2.937-16.178 7.626-3.618 4.688-9.502 13.042-3.135 17.609 6.368 4.566 12.563-2.937 16.18-7.625zm-203.84 80.705c5.921-.01 16.13-.475 15.84-8.305-.288-7.83-10.014-8.133-15.935-8.122-5.921.01-16.13.473-15.841 8.304.288 7.83 10.013 8.134 15.935 8.123zM129.79 53.85c-3.993-4.374-11.205-11.613-16.803-6.13-5.6 5.482.722 12.88 4.714 17.253 3.992 4.373 11.203 11.613 16.802 6.131 5.598-5.482-.72-12.88-4.713-17.254zm76.944-36.74c-.15-5.92-.854-16.114-8.676-15.641-7.821.472-7.895 10.202-7.745 16.122.15 5.92.852 16.114 8.674 15.642 7.821-.473 7.897-10.202 7.747-16.122z" fill="#840010"></path></svg>