<svg xmlns:xlink="http://www.w3.org/1999/xlink" clip-rule="evenodd" fill-rule="evenodd" stroke-linejoin="round" stroke-miterlimit="2" version="1.1" viewBox="0 0 271.95 242.14" xml:space="preserve" xmlns="http://www.w3.org/2000/svg" width="271.95"  height="242.14" ><g transform="matrix(1.0008 0 0 1.0008 -1731.8 -633.25)" fill="#840010"><path d="m1765.1 770v-98.728c0-3.175 2.3-5.882 5.43-6.397 0 0 61.44-10.069 92.16-10.069 14.17 0 91.94 10.037 91.94 10.037 3.23 0.419 5.65 3.171 5.65 6.429v98.728c0 41.006-24.15 67.343-48.48 83.321-23.81 15.636-47.63 21.212-47.63 21.212-0.99 0.234-2.02 0.23-3.01-9e-3 0 0-23.81-5.739-47.6-21.447-24.33-16.063-48.46-42.407-48.46-83.077zm12.96 0c0 35.478 21.42 58.245 42.64 72.257 18.37 12.125 36.72 17.791 42.01 19.264 5.28-1.438 23.62-6.985 41.97-19.037 21.22-13.938 42.63-36.713 42.63-72.484v-93.026c-17.92-2.289-73.01-9.202-84.62-9.202-24.55 0-69.18 6.62-84.63 9.031zm85.48-73.293c32.15 0 58.25 26.105 58.25 58.259s-26.1 58.259-58.25 58.259c-32.16 0-58.26-26.105-58.26-58.259s26.1-58.259 58.26-58.259zm0 12.965c-25 0-45.3 20.296-45.3 45.294 0 24.999 20.3 45.294 45.3 45.294 24.99 0 45.29-20.295 45.29-45.294 0-24.998-20.3-45.294-45.29-45.294zm-31.79 56.013c-2.53-2.53-2.53-6.637 0-9.167s6.63-2.53 9.16 0l10.87 10.864 30.77-30.773c2.53-2.529 6.64-2.529 9.17 0 2.53 2.53 2.53 6.638 0 9.168l-35.36 35.356c-2.53 2.532-6.64 2.532-9.17 0zm-100.06-126.02c-1.58-1.581-1.58-4.148 0-5.73 1.58-1.581 4.15-1.581 5.73 0l5.7 5.705c1.58 1.581 1.58 4.148 0 5.73-1.58 1.581-4.15 1.581-5.73 0zm17.2 17.202c-1.58-1.581-1.58-4.149 0-5.73s4.15-1.581 5.73 0l5.94 5.935c1.58 1.581 1.58 4.148 0 5.73-1.59 1.581-4.15 1.581-5.73 0zm5.94-22.932c1.58-1.581 4.14-1.581 5.73 0 1.58 1.582 1.58 4.149 0 5.73l-5.84 5.839c-1.58 1.581-4.15 1.581-5.73 0-1.58-1.582-1.58-4.149 0-5.73zm-17.28 17.28c1.58-1.581 4.14-1.581 5.73 0 1.58 1.582 1.58 4.149 0 5.73l-5.86 5.857c-1.58 1.581-4.15 1.581-5.73 0-1.58-1.582-1.58-4.149 0-5.73z" fill="#840010"></path></g></svg>