<svg xmlns:xlink="http://www.w3.org/1999/xlink" xmlns="http://www.w3.org/2000/svg" version="1.1" viewBox="0 0 250 250" width="250"  height="250" ><path style="fill-opacity: 1;" id="path8" d="m 177.60259,156.82866 a 9.5189421,9.5189421 0 1 1 9.51715,-9.52074 9.531498,9.531498 0 0 1 -9.51715,9.52074 m -105.205195,0 a 9.5189421,9.5189421 0 1 1 9.517147,-9.52074 9.5297038,9.5297038 0 0 1 -9.517147,9.52074 M 181.01593,99.494382 200.03766,66.548476 a 3.9582295,3.9582295 0 1 0 -6.85355,-3.962185 l -19.26209,33.36203 c -14.72953,-6.72263 -31.27243,-10.465995 -48.92382,-10.465995 -17.65139,0 -34.192495,3.748744 -48.922013,10.465995 L 56.81589,62.586291 a 3.9576604,3.9576604 0 1 0 -6.85536,3.956806 L 68.984063,99.494382 C 36.319762,117.26057 13.97796,150.32844 10.709915,189.3979 H 239.29008 c -3.27164,-39.06946 -25.61165,-72.13733 -58.27415,-89.903518" fill="#767676" stroke-width="0.179366px"></path></svg>