<svg xmlns:xlink="http://www.w3.org/1999/xlink" xmlns="http://www.w3.org/2000/svg" viewBox="0 0 400 338.318" width="400"  height="338.318" ><path d="M313.223 1.311c-2.454 1.717 1.453 3.323 1.386 5.567-.068 2.244-3.851 3.22-1.691 5.418s3.48-1.763 5.236-1.75c1.754.011 3.191 4.418 5.585 1.907 2.394-2.51-1.994-3.114-1.91-5.35.082-2.234 3.687-3.19 1.714-5.022-1.973-1.83-3.907 1.358-5.304 1.426-1.397.067-2.563-3.913-5.016-2.196zM53.299 49.957c-10.615-.111-18.9 8.662-18.85 18.214.392 74.063.108 148.164-.1 223.707-.027 9.877 7.76 18.424 17.105 18.613 101.102 2.047 202.707 1.144 291.616-.89 5.207-.119 11.609-4.795 11.71-9.961 1.527-77.174 2.66-166.509 2.411-233.819-1.658-9.266-13.115-15.6-20.988-15.543-98.077.696-197.506.576-282.904-.321zM340.196 61.84c4.626.03 6.408 6.615 5.892 11.147.104 8.882-.204 19.112-.288 27.972-19.08.246-46.766.198-64.206-.125-5.965.19-6.643 8.83-1.222 10.537 21.812.436 46.416.256 65.997.916.609 61.31.088 126.904-.345 179.989-.036 4.446-5.75 7.065-10.52 7.033-99.492-.66-195.346 1.16-282.74-.447-4.812-.088-7.233-6.427-7.235-11.215-.025-58.265-.126-116.357-.19-174.535 21.36-.35 46.522 0 65.836-.53 5.047-.102 5.69-9.034 1.7-11.613-21.7-.427-46.34-.214-66.366-.686-1.465-4.682-.98-9.823-1.223-14.71.157-6-.293-12.178 1.22-18.027 1.557-3.485 4.941-5.945 9.065-5.964 112.771-.532 112.753-.83 284.625.258zm48.242 11.324c-4.68-.02-2.273 4.435-3.47 6.013-1.195 1.578-6.277-1.548-6.194 3.734.083 5.283 4.882 1.88 6.117 3.708 1.235 1.828-.623 5.772 3.546 5.74 4.17-.034 1.682-3.173 3.398-5.727 1.716-2.554 6.205.42 6.262-3.809.057-4.23-4.316-1.66-6.219-3.203-1.903-1.542 1.24-6.436-3.44-6.456zm-235.924 7.281c-5.036.767-10.27 1.398-14.885 3.657-4.341 2.294-7.936 6.083-9.646 10.653-1.602 2.41-.698 5.416-.979 8.14-.116 9.653-.174 19.307-.377 28.959-9.345 2.741-19.187 4.12-27.904 6.355-8.096 1.965-24.53 4.32-28.083 9.2-3.914 5.226-1.954 13.123 3.49 16.464 3.852 2.403 8.33 3.487 12.493 5.21 4.404 1.79 8.777 3.62 13.195 5.443 4.097 1.672 7.94 3.79 12.055 5.371 2.148 1.795 11.67 3.72 5.474 6.076-4.799 2.028-9.812 3.563-14.521 5.807-5.567 3.228-1.78 9.397-1.577 14.211 1.138 5.577 1.967 11.2 3.18 16.763.754 3.974 1.142 7.86-3.626 9.816-13.43 4.63-31.59 9.82-41.853 14.026-5.396 4.245 1.278 12.053 6.74 9.114 15.207-4.496 28.88-9.18 43.162-13.774 3.247-1.044 8.188-1.685 8.99-5.112-.026-9.666-2.666-19.486-4.454-28.272-.753-3.698-1.368-7.96 2.626-10.003 3.714-1.899 8.606-4.994 12.346-3.29.984 3.405 2.238 7.554-2.905 9.345-5.597 1.949-3.02 10.295 2.579 10.957 17.701 6.781 36.8 14.531 53.07 20.372 5.319.823 5.187 5.986 5.742 10.42 1.411 11.257 4.164 30.626 5.19 40.17 3.008 3.642 9.831.753 9.492-3.983-.27-4.605-.708-9.458 1.794-13.615 3.814-11.47 8.494-22.073 11.906-32.77 2.02-4.717 8.115-4.872 12.24-6.896 9.362-4.022 19.079-6.604 27.642-10.502 4.25-1.672 9.07-2.712 12.624-5.543 1.005-1.871 2.179-5.03.269-6.891-2.455-2.393-6.634-1.68-5.373-6.855.905-3.716 1.923-4.687 5.773-3.439 3.593 1.165 9.038 1.848 10.877 5.716-1.497 10.076-3.73 19.99-5.166 29.338-2.443 4.457 1.096 9.093 5.862 9.874 15.427 2.529 31.747 5.394 45.969 8.483 4.73 1.04 10.15-1.335 8.834-6.478-1.611-4.556-7.37-4.827-11.433-5.491-11.54-1.958-22.664-4.272-33.596-6.196-6.95-3.29-.254-21.85.646-26.715.9-4.863 2.589-9.561-1.208-12.654-5.554-2.593-11.584-4.2-17.065-7.003-.576-2.34 5.134-3.67 7.683-4.96 9.626-4.868 19.671-8.868 29.14-12.1 4.045-2.044 8.868-2.758 11.861-6.614 2.518-3.245 3.733-7.654 1.43-11.985-2.302-4.33-8.025-6.408-13.01-7.463-10.86-2.298-21.82-4.578-31.81-7.102-3.703-1.398-9.705-.403-11.654-3.896-.885-11.13-.03-22.349-.93-33.477-1.157-4.527-3.871-8.51-7.599-11.35-4.056-3.636-9.833-3.935-14.925-5.153-16.644-2.867-34.157-4.085-49.757-3.902-13.458.1-27.998 1.195-40.038 3.544zm86.236 11.281c4.39 1.034 9.855.767 12.982 4.456 1.307 1.83 2.662 3.822 2.269 6.173-.023 5.887.345 11.79-.055 17.665-2.169 3.106-7.558 2.828-11.207 3.852-6.668 1.483-13.428 2.713-20.235 3.358-10.644 1.04-21.316 1.925-32.023 1.59-5.559-.094-11.17-.18-16.62-1.266a101.753 101.753 0 0 1-17.461-2.357c-4.25-.958-11.785-.462-10.952 5.652.422 4.896 6.326 5.338 10.153 5.815 9.282 1.674 18.7 2.626 28.111 3.273 10.629.098 21.3.296 31.897-.544 7.305-.823 14.619-1.534 21.858-2.837 4.622-.702 9.138-1.926 13.735-2.773 4.685-1.082 2.858 7.402 2.168 10.166-3.779 2.802-9.133 2.68-13.595 4.075-14.534 2.9-30.832 5.899-43.481 5.632-15.633-1.072-32.15-2.086-46.162-6.126-3.85-1.127-8.415-1.022-11.593-3.669-1.058-1.188-.214-3.16-.473-4.677.147-12.867-.114-25.745.371-38.603.06-5.194 5.628-7.406 9.978-8.015 15.041-2.53 29.64-4.272 43.827-4.465 15.566-.183 31.596 1.02 46.508 3.625zM169.344 96.8c-3.031 1.781-3.523 8.219.724 9.512 8.47 2.603 17.508 2.072 26.267 2.297 8.47-.231 17.236.317 25.384-2.376 4.655-1.16 4.973-10.225.507-9.755-15.854.896-31.12 3.537-45.372-.064-2.626-.664-4.479-1.395-7.51.386zm101.694 48.194c3.874 1.03 7.888 1.508 11.77 2.556 4.541.688 8.89 2.267 13.467 2.836 4.88 1.387 10.165 1.82 14.785 3.82-3.437 2.57-8.373 3.558-12.414 5.391-6.1 2.419-12.17 5.063-18.117 7.761a1511.947 1511.947 0 0 0-12.205 5.668 192.01 192.01 0 0 1-19.17 8.407c-4.546 1.504-9.043 3.156-13.746 4.126-16.588 4.149-31.959 5.874-47.673 4.958-12.252-.428-24.27-3.35-35.296-5.867-4.708-1.77-9.665-2.882-14.21-5.051-3.986-1.59-8.064-3.105-11.709-5.318-5.136-2.035-9.974-4.807-15.046-6.938-5.643-2.532-11.339-5.074-17.125-7.309-4.261-2.051-9.234-2.987-13.086-5.6 8.632-2.73 17.751-4.255 25.916-6.6 4.411-.735 8.746-1.867 13.147-2.66 3.353-1.968 7.908-1.268 6.709 3.526.351 5.56 6.652 6.297 10.858 7.451 4.727 1.185 9.352 2.758 14.202 3.426 14.576 2.945 31.06 5.295 43.88 4.985 15.8-.621 31.825-1.942 46.078-5.42 4.828-.868 9.504-2.368 14.228-3.677 5.253-.522 9.842-3.829 9.25-9.605.577-2.82 3.788-1.875 5.507-.866zm-127.639 48.57c4.837 1.793 9.898 2.787 14.84 4.244 12.184 2.515 23.987 4.153 35.558 4.195 12.782.137 25.754-1.335 37.337-3.728 4.927-.939 9.702-2.585 14.599-3.717 2.578-1.003 7.24-3.727 5.965 1.548-1.49 4.102.956 10.94-3.055 12.967-10.563 5.337-21.64 8.064-31.92 11.994-4.162 1.592-9.36 2.787-10.791 7.851-1.355 4.796-3.456 9.378-5.208 14.06-.292 2.155-2.083 5.87-2.593 1.533a239.652 239.652 0 0 0-1.87-13.547c-2.668-2.944-6.682-3.746-10.211-5.246-14.15-5.26-27.705-10.627-41.203-15.722-4.633-1.561-3.46-7.579-4.336-11.448-.17-2.228-1.285-7.84 2.888-4.984zm-18.191 51.455c-4.638 2.29-2.682 9.218 1.326 11.17 7.586 5.574 14.79 11.662 22.353 17.246 3.016 2.831.757 7.923 2.77 11.432 1.817 6.01 10.066 3.142 10.093-2.28.864-5.125.888-11.238-2.612-15.426-9.379-7.164-18.577-14.554-27.98-21.679-1.826-.83-4.023-1.079-5.95-.463zm135.736-.001c-8.122 5.971-15.971 12.364-23.97 18.535-2.958 2.697-8.12 4.96-7.154 9.82-.014 3.949.08 7.896.129 11.844 2.014 2.584 6 4.229 8.684 1.593 3.988-3.221 1.031-8.8 3.267-12.717 7.6-6.048 15.361-11.922 22.955-17.997 1.245-1.493 3.595-2.576 4.178-4.39.484-3.314-1.545-7.031-5.192-7.171a6.124 6.124 0 0 0-2.897.483zM.931 313.948c-3.285 3.67 4.333 10.672 6.601 8.467 3.274-3.006-4.246-10.858-6.601-8.467zm16.258 7.9c2.469 2.394 8.821-5.404 6.61-7.34-3.57-2.374-9.02 5.17-6.61 7.34zm-16.043 15.5c2.211 2.248 8.945-4.804 6.52-6.54-2.587-2.82-9.266 4.882-6.52 6.54zm15.888-8.014c-3.015 3.2 4.325 9.038 6.842 7.104 3.172-2.994-4.266-9.54-6.842-7.104zM109.16 80.577a5.215 5.215 0 1 1-10.43 0 5.215 5.215 0 0 1 10.43 0zm-18.297 0a5.215 5.215 0 1 1-10.43 0 5.215 5.215 0 0 1 10.43 0zm-17.854 0a5.215 5.215 0 1 1-10.43 0 5.215 5.215 0 0 1 10.43 0z" fill="#840010"></path></svg>